<?xml version="1.0" encoding="utf-8"?>
<!-- Generator: Adobe Illustrator 21.0.1, SVG Export Plug-In . SVG Version: 6.00 Build 0)  -->
<svg version="1.1" id="Layer_1" xmlns="http://www.w3.org/2000/svg" xmlns:xlink="http://www.w3.org/1999/xlink" x="0px" y="0px"
	 viewBox="0 0 103.9 103.9" style="enable-background:new 0 0 103.9 103.9;" xml:space="preserve">
<style type="text/css">
	.st0{fill:#00AEE6;}
	.st1{fill:#123962;}
	.st2{fill:#B1D4E5;}
	.st3{fill:#2754BA;}
	.st4{fill:#799EB2;}
</style>
<g>
	<path class="st0" d="M38.6,52L17,73.5l27.1,27.1c4.4,4.4,11.4,4.4,15.8,0l27.1-27.1L65.3,52L52,38.6L38.6,52z"/>
	<path class="st1" d="M17,30.4L3.3,44.1c-4.4,4.4-4.4,11.4,0,15.8L17,73.5L38.6,52L52,38.6L30.4,17L17,30.4z"/>
	<path class="st2" d="M73.5,60.1l13.4,13.4l13.7-13.7c4.4-4.4,4.4-11.4,0-15.8l-5.5-5.5L73.5,60.1z"/>
	<polygon class="st2" points="65.3,52 65.3,52 52,38.6 73.5,17 73.5,17 52,38.6 	"/>
	<polygon class="st3" points="52,38.6 65.3,52 73.5,60.1 95.1,38.6 86.9,30.4 73.5,17 	"/>
	<path class="st4" d="M73.5,17L59.8,3.3c-4.4-4.4-11.4-4.4-15.8,0L30.4,17L52,38.6L73.5,17z"/>
</g>
</svg>
