<svg width="14" height="14" viewBox="0 0 14 14" fill="none" xmlns="http://www.w3.org/2000/svg">
<g clip-path="url(#clip0_1720_8949)">
<path fill-rule="evenodd" clip-rule="evenodd" d="M12.4473 5.47065L14 7.23974L12.4473 9.00883L12.6636 11.3506L10.3664 11.8725L9.16364 13.8961L7 12.967L4.83636 13.9025L3.63364 11.8788L1.33636 11.357L1.55273 9.00883L0 7.23974L1.55273 5.46428L1.33636 3.12247L3.63364 2.60701L4.83636 0.583374L7 1.51246L9.16364 0.583374L10.3664 2.60701L12.6636 3.12883L12.4473 5.47065ZM4.66365 6.61764L5.9986 7.95259L9.39076 4.56364L10.3485 5.52139L5.99848 9.87142L3.70079 7.57373L4.66365 6.61764Z" fill="#65A5FF"/>
</g>
<defs>
<clipPath id="clip0_1720_8949">
<rect width="14" height="14" fill="white"/>
</clipPath>
</defs>
</svg>
