<?xml version="1.0" encoding="utf-8"?>
<!-- Generator: Adobe Illustrator 19.2.1, SVG Export Plug-In . SVG Version: 6.00 Build 0)  -->
<svg version="1.1" id="Layer_1" xmlns="http://www.w3.org/2000/svg" xmlns:xlink="http://www.w3.org/1999/xlink" x="0px" y="0px"
	 viewBox="0 0 219.8 23.6" style="enable-background:new 0 0 219.8 23.6;" xml:space="preserve">
<style type="text/css">
	.st0{fill:#039BD3;}
</style>
<g>
	<path class="st0" d="M15.7,11.3c2-0.9,3.5-2.4,3.5-5V6.2c0-1.6-0.6-2.7-1.5-3.7c-1.3-1.3-3.3-2-6.2-2H0v22.6h11.7
		c5.4,0,8.6-2.4,8.6-6.2v-0.1C20.2,13.7,18.5,12.2,15.7,11.3z M6.1,5.5h4.1c1.9,0,2.8,0.7,2.8,1.9v0.1c0,1.3-1.1,2-3,2H6.1V5.5z
		 M14,16c0,1.3-1.1,2.1-3,2.1H6.1v-4.2h4.8C13,13.9,14,14.7,14,16L14,16z"/>
	<polygon class="st0" points="29.3,0.5 23,0.5 23,23.1 40.2,23.1 40.2,17.6 29.3,17.6 	"/>
	<path class="st0" d="M53.1,0c-7,0-12.2,5.3-12.2,11.8v0.1c0,6.5,5.2,11.7,12.2,11.7s12.2-5.3,12.2-11.8v-0.1
		C65.2,5.2,60.1,0,53.1,0z M58.8,11.8c0,3.3-2.3,6.1-5.8,6.1c-3.4,0-5.8-2.8-5.8-6.1v-0.1c0-3.3,2.3-6.1,5.7-6.1
		C56.4,5.7,58.8,8.5,58.8,11.8L58.8,11.8L58.8,11.8z"/>
	<path class="st0" d="M79.6,17.8c-3.2,0-5.4-2.6-5.4-6.1v-0.1c0-3.3,2.2-6,5.4-6c2.2,0,3.6,1,5,2.6l4.7-3.6c-2-2.8-5-4.7-9.6-4.7
		c-6.9,0-11.9,5.2-11.9,11.8v0.1c0,6.7,5.2,11.7,11.7,11.7c5,0,7.9-2.2,10-5.1l-4.8-3.4C83.3,16.7,82,17.8,79.6,17.8"/>
	<path class="st0" d="M125,17.8c-3.2,0-5.4-2.6-5.4-6.1v-0.1c0-3.3,2.2-6,5.4-6c2.2,0,3.6,1,5,2.6l4.7-3.6c-2-2.8-5-4.7-9.6-4.7
		c-6.9,0-11.9,5.2-11.9,11.8v0.1c0,1,0.1,2,0.4,2.9l0,0c1.2,5.2,5.8,8.8,11.3,8.8c5,0,7.9-2.2,10-5.1l-4.7-3.4
		C128.8,16.7,127.4,17.8,125,17.8"/>
	<polygon class="st0" points="151.9,8.9 143.8,8.9 143.8,0.5 137.6,0.5 137.6,23.1 143.8,23.1 143.8,14.5 151.9,14.5 151.9,23.1 
		158.1,23.1 158.1,0.5 151.9,0.5 	"/>
	<path class="st0" d="M176,0.3H170l-9.6,22.8h6.6l1.6-4.1h8.7l1.6,4.1h6.7L176,0.3z M170.4,14.2l2.5-6.4l2.5,6.4H170.4z"/>
	<rect x="188" y="0.5" class="st0" width="6.3" height="22.6"/>
	<polygon class="st0" points="213.6,0.5 213.6,12.4 204.3,0.5 198.5,0.5 198.5,23.1 204.7,23.1 204.7,10.7 214.3,23.1 219.8,23.1 
		219.8,0.5 	"/>
	<polygon class="st0" points="113.6,0.5 112.4,0.5 110.6,0.5 108.2,0.5 106.2,0.5 106.2,0.5 106.2,0.5 98.4,9.6 98.4,0.5 92.1,0.5 
		92.1,23.1 98.4,23.1 98.4,17.2 100.7,14.7 106.4,23.1 106.4,23.1 106.4,23.1 112.6,23.1 104.1,10.9 	"/>
</g>
<g>
</g>
<g>
</g>
<g>
</g>
<g>
</g>
<g>
</g>
<g>
</g>
<g>
</g>
<g>
</g>
<g>
</g>
<g>
</g>
<g>
</g>
<g>
</g>
<g>
</g>
<g>
</g>
<g>
</g>
</svg>
