<?xml version="1.0" standalone="no"?>
<!DOCTYPE svg PUBLIC "-//W3C//DTD SVG 1.1//EN" "http://www.w3.org/Graphics/SVG/1.1/DTD/svg11.dtd" >
<svg xmlns="http://www.w3.org/2000/svg">
<metadata>Generated by IcoMoon</metadata>
<defs>
<font id="icomoon" horiz-adv-x="1024">
<font-face units-per-em="1024" ascent="960" descent="-64" />
<missing-glyph horiz-adv-x="1024" />
<glyph unicode="&#x20;" horiz-adv-x="512" d="" />
<glyph unicode="&#xe900;" glyph-name="bank" horiz-adv-x="1035" d="M0 27.215c0.083 10.342 8.487 18.694 18.841 18.694 0.105 0 0.211-0.001 0.315-0.003h996.62c10.488 0 18.991-8.502 18.991-18.991v-71.925c0-10.488-8.502-18.991-18.991-18.991h-996.785c-10.488 0-18.991 8.502-18.991 18.991zM129.495 599.776c29.648 0 53.682-24.034 53.682-53.682v-370.093c0-29.648-24.034-53.682-53.682-53.682s-53.682 24.034-53.682 53.682v370.093c0 29.648 24.034 53.682 53.682 53.682zM388.336 599.626h0.15c29.565 0 53.533-23.967 53.533-53.533v-370.542c0-29.565-23.967-53.533-53.533-53.533h-0.15c-29.565 0-53.533 23.967-53.533 53.533v370.542c0 29.565 23.967 53.533 53.533 53.533zM646.28 599.776c29.565 0 53.533-23.967 53.533-53.533v-370.542c0-29.565-23.967-53.533-53.533-53.533s-53.533 23.967-53.533 53.533v370.542c0 29.565 23.967 53.533 53.533 53.533zM905.271 599.626c29.648 0 53.682-24.034 53.682-53.682v-370.093c0-29.648-24.034-53.682-53.682-53.682s-53.682 24.034-53.682 53.682v370.093c0 29.648 24.034 53.682 53.682 53.682zM483.738 952.523l-452.187-199.178c-14.089-6.372-23.714-20.305-23.714-36.486 0-22.029 17.84-39.89 39.86-39.925h936.826c0.26-0.006 0.566-0.009 0.873-0.009 22.793 0 41.271 18.478 41.271 41.271 0 16.836-10.081 31.317-24.535 37.737l-447.067 196.59c-10.497 4.74-22.758 7.502-35.664 7.502s-25.167-2.762-36.223-7.727z" />
<glyph unicode="&#xe901;" glyph-name="bitcoin" d="M638.728 461.675c58.686 9.271 103.026 59.493 103.026 120.071 0 2.118-0.054 4.223-0.161 6.314 0.012 75.871-51.188 125.004-138.164 136.611v82.524h-54.38v-79.503h-73.461v79.503h-54.38v-79.503h-95.404v-558.907h95.404v-79.503h54.38v79.503h73.461v-79.503h55.175v81.57c102.082 10.017 162.186 64.716 162.186 149.625 0 76.641-47.066 129.272-127.682 141.198zM389.724 665.998h168.388c75.051 0 118.937-31.801 118.937-88.566s-43.886-90.952-118.937-90.952h-168.388zM558.112 229.525h-168.388v196.214h168.388c90.952 0 143.106-35.935 143.106-96.517 0.477-63.92-52.154-99.697-143.106-99.697zM512 960c-282.77 0-512-229.23-512-512s229.23-512 512-512c282.77 0 512 229.23 512 512s-229.23 512-512 512zM512-2.624c-248.873 0-450.624 201.751-450.624 450.624s201.751 450.624 450.624 450.624c248.873 0 450.624-201.751 450.624-450.624s-201.751-450.624-450.624-450.624z" />
<glyph unicode="&#xe902;" glyph-name="card" horiz-adv-x="1555" d="M1365.76 960h-1176.463c-0.871 0.015-1.899 0.023-2.929 0.023-101.498 0-184.050-81.117-186.365-182.059l-0.004-660.034c1.966-101.437 84.659-182.914 186.382-182.914 1.025 0 2.048 0.008 3.070 0.025l1176.309-0.002c0.871-0.015 1.899-0.023 2.929-0.023 101.498 0 184.050 81.117 186.365 182.059l0.004 660.674c-2.319 101.157-84.871 182.274-186.369 182.274-1.030 0-2.058-0.008-3.083-0.025zM232.218 874.8h1095.747c1.050 0.031 2.284 0.048 3.523 0.048 70.759 0 128.12-57.361 128.12-128.12 0-0.017 0-0.034 0-0.051v-40.996h-1359.354v42.28c0.692 70.231 57.786 126.897 128.114 126.897 1.354 0 2.702-0.021 4.046-0.063zM1327.965 21.52h-1095.747c-1.050-0.031-2.284-0.048-3.523-0.048-70.759 0-128.12 57.361-128.12 128.12 0 0.017 0 0.034 0 0.051v375.71h1359.034v-377.314c-0.877-70.088-57.898-126.567-128.111-126.567-1.242 0-2.48 0.018-3.714 0.053z" />
<glyph unicode="&#xe903;" glyph-name="down_arrow" horiz-adv-x="1655" d="M1458.608 960l-631.274-631.274-631.274 631.274-196.059-196.059 827.334-827.941 827.334 827.941-196.059 196.059z" />
<glyph unicode="&#xe904;" glyph-name="export" d="M511.813 712.524l-200.266-200.266 47.584-47.584 119.148 119.148v-400.533h67.442v400.533l119.148-119.148 47.584 47.584-200.454 200.454-0.187-0.187zM512 960c-282.77 0-512-229.23-512-512s229.23-512 512-512c282.77 0 512 229.23 512 512s-229.23 512-512 512zM512-2.74c-248.937 0-450.74 201.803-450.74 450.74s201.803 450.74 450.74 450.74c248.937 0 450.74-201.803 450.74-450.74s-201.803-450.74-450.74-450.74z" />
<glyph unicode="&#xe905;" glyph-name="help" d="M512 960c-282.77 0-512-229.23-512-512s229.23-512 512-512c282.77 0 512 229.23 512 512s-229.23 512-512 512zM512-2.624c-248.873 0-450.624 201.751-450.624 450.624s201.751 450.624 450.624 450.624c248.873 0 450.624-201.751 450.624-450.624s-201.751-450.624-450.624-450.624zM502.778 215.533c-0.665 0.033-1.443 0.052-2.226 0.052-26.345 0-47.702-21.357-47.702-47.702s21.357-47.702 47.702-47.702c26.327 0 47.672 21.327 47.702 47.647 0.035 0.668 0.055 1.446 0.055 2.229 0 25.116-20.36 45.476-45.476 45.476-0.019 0-0.038 0-0.057 0zM506.435 765.853c-106.693 0-176.338-59.468-180.949-166.161l58.514-1.908c3.657 68.691 47.702 103.036 116.075 103.036s114.166-30.688 114.166-95.404c0-126.251-138.335-121.64-138.335-275.558h57.56c0 135.473 148.512 134.519 148.512 286.211-0.159 99.697-73.461 149.784-175.543 149.784z" />
<glyph unicode="&#xe906;" glyph-name="home" horiz-adv-x="1128" d="M1111.166 442.503l-185.587 177.211c1.832 55.231 0 198.937 0 252.859 0 9.686-7.852 17.538-17.538 17.538-52.352 0-102.086 0-150.773 0-0.668 0.079-1.441 0.125-2.225 0.125s-1.557-0.045-2.318-0.134l-4.096 0.009c-7.807 0-14.135-6.328-14.135-14.135v-74.601l-158.626 152.605c-3.785 3.567-8.9 5.759-14.528 5.759s-10.742-2.192-14.538-5.769l0.011 0.010-518.544-495.509c-5.796-6.040-11.133-12.624-15.893-19.631-41.694-76.434 31.86-89.522 67.983-52.876l70.675 67.534c0-155.485 0-364.63 0-484.515v-15.444c0-10.12 8.204-18.323 18.323-18.323h280.867c11.633 0.285 20.955 9.783 20.955 21.458 0 0.278-0.005 0.555-0.016 0.831l0.001 252.557c0 8.385 6.797 15.182 15.182 15.182h146.061c9.83 0 17.8-7.969 17.8-17.8v-250.765c0-10.842 8.79-19.632 19.632-19.632h275.632c14.457 0 26.176 11.719 26.176 26.176 0 116.744 0 230.871 0 344.998 0 14.92 0 82.978 0 146.061l78.528-74.863c16.229-15.706 31.411-31.411 54.969-17.276 13.402 9.607 22.031 25.134 22.031 42.677 0 14.79-6.133 28.148-15.995 37.668zM787.37 835.141c22.773 0 46.070 0 71.722 0s18.847-26.176 18.847-35.861c0-28.008 0-88.213 0-133.497l-90.569 84.81zM892.074 29.71v0c1.047-5.759 1.047-3.926 1.047-0.524zM892.074 36.515c0 5.235 0 8.9 0 1.309 1.309-1.047 1.047-1.309 1.047-1.832zM892.074 357.431q0-160.458 0-321.178c-0.571-12.326-10.638-22.119-23.022-22.249h-127.227c-7.662 0-13.873 6.211-13.873 13.873v251.55c0 13.155-10.665 23.82-23.82 23.82h-285.317c-14.457 0-26.176-11.719-26.176-26.176v-248.409c0-8.096-6.563-14.658-14.658-14.658h-140.826c-4.771 0-8.638 3.867-8.638 8.638 0 8.115 0 8.638 0 8.376v7.591c0 97.374 0 338.192 0 488.965l299.975 287.935c7.067 6.544 14.135 13.088 21.464 19.37 3.158 2.908 7.391 4.691 12.041 4.691s8.883-1.783 12.053-4.702l22.76-21.453 296.049-285.317c-0.262-72.507 0.262-164.384 0.262-170.143z" />
<glyph unicode="&#xe907;" glyph-name="id" horiz-adv-x="1555" d="M1365.76 960h-1176.463c-0.871 0.015-1.899 0.023-2.929 0.023-101.498 0-184.050-81.117-186.365-182.059l-0.004-660.034c1.966-101.437 84.659-182.914 186.382-182.914 1.025 0 2.048 0.008 3.070 0.025l1176.309-0.002c0.871-0.015 1.899-0.023 2.929-0.023 101.498 0 184.050 81.117 186.365 182.059l0.004 660.674c-2.319 101.157-84.871 182.274-186.369 182.274-1.030 0-2.058-0.008-3.083-0.025zM429.843 304.666c-8.816 5.19-15.753 12.745-20.050 21.798-9.195 15.428-16.090 33.033-19.814 51.78-0.174 7.138-2.096 13.544-2.737 19.95s0 2.562-2.562 2.883l-10.57 1.922c-3.562 0.439-6.568 2.492-8.299 5.394-4.126 6.565-7.056 14.237-8.314 22.459-0.693 3.27-1.067 6.643-1.067 10.103s0.373 6.833 1.082 10.080c0.743 3.987 3.201 7.599 6.614 9.903l7.102 5.16c1.353 0.615 2.277 1.954 2.277 3.51 0 0.586-0.131 1.141-0.366 1.638-3.513 14.71-7.357 29.124-10.24 43.858-4.303 19.688-6.768 42.304-6.768 65.496 0 5.353 0.131 10.676 0.391 15.965 0.664 21.469 5.905 42.294 14.787 61.059 10.569 21.311 28.65 38.667 50.825 48.44 11.163 5.928 23.648 9.259 36.911 9.259 0.768 0 1.534-0.011 2.297-0.033 5.36 0.534 11.717 0.837 18.145 0.837s12.785-0.303 19.059-0.895c9.296-0.674 18.678-2.495 27.625-5.302 11.291-3.606 0.721-3.926 6.807-15.777 0-2.562 4.484-1.922 7.047-2.562 11.994-1.969 22.759-5.658 32.611-10.849 13.52-6.529 24.641-17.65 31.273-31.348 4.875-12.635 7.777-26.779 8.18-41.547 0.547-6.58 0.857-14.037 0.857-21.566 0-16.436-1.476-32.528-4.301-48.149-4.051-24.099-9.949-46.73-17.62-68.527 0.639 2.429 0.491 1.868 0.491 1.274 0-1.392 0.807-2.595 1.979-3.168l6.107-4.493c5.458-3.224 9.062-9.077 9.062-15.772 0-0.649-0.034-1.291-0.1-1.923-0.121-11.58-2.825-22.577-7.56-32.412-0.778-1.656-2.070-3.46-3.639-4.98-1.694-1.556-3.727-2.763-5.975-3.495-3.343-0.953-7.252-1.74-11.252-2.235-2.316-0.040-2.636-0.040-2.957-2.922-1.595-18.257-5.688-35.106-11.955-50.854-4.482-11.117-9.966-21.659-16.357-31.56-3.174-4.3-7.781-8.395-13.116-11.328-1.555-0.815-2.456-2.203-2.456-3.801 0-0.052 0.001-0.104 0.003-0.156 0-20.492 0-41.311 0-61.81-0.001-0.221-0.001-0.483-0.001-0.746 0-9.567 0.699-18.972 2.049-28.164 1.267-4.549 3.471-9.465 6.39-13.866 9.582-15.729 22.77-28.61 38.446-37.663 18.644-11.055 39.76-21.192 61.788-29.466 31.796-12.074 55.323-22.845 78.121-34.816 16.582-8.408 33.986-21.72 48.498-37.705 10.499-10.098 18.758-22.161 24.228-35.653l-560.6-0.687c-0.62-0.010-1.352-0.016-2.086-0.016-18.302 0-35.749 3.655-51.654 10.274 10.464 19.142 24.14 35.28 40.881 47.462 20.133 14.336 42.733 26.62 66.773 36.032 24.239 9.706 46.020 18.354 67.8 27.642 17.888 7.453 33.317 16.816 47.088 28.124 12.112 9.776 21.697 22.866 27.34 37.884 0.496 2.443 0.664 4.552 0.664 6.7s-0.168 4.257-0.491 6.314q0.030 27.958 0.030 56.145c0 7.687 0 15.054 0 22.741 0.891 0.71 1.457 1.796 1.457 3.013 0 0.411-0.064 0.807-0.184 1.178zM1459.608 148.039c0-0.014 0-0.031 0-0.048 0-70.759-57.361-128.12-128.12-128.12-1.239 0-2.474 0.018-3.704 0.053l-478.348-0.004c-8.27 32.143-25.365 59.524-48.533 80.261-16.484 14.192-35.162 26.202-55.384 35.412-22.282 9.885-43.421 18.533-65.522 27.502-22.687 8.851-41.877 18.319-60.128 29.199-7.096 4.167-14.636 10.686-20.785 18.368-3.336 3.449-5.532 7.747-6.195 12.534q-0.013 30.544-0.013 60.973c-0.128 0.383-0.202 0.823-0.202 1.281s0.074 0.899 0.21 1.311c8.333 9.211 15.497 19.753 21.097 31.199 7.81 15.28 13.885 32.081 17.721 49.717 0.658 2.855 1.571 4.080 2.79 4.881 7.962 4.815 14.364 11.421 18.785 19.29 8.742 15.411 13.814 33.54 13.814 52.854 0 2.457-0.082 4.895-0.244 7.312-0.812 10.225-4.531 19.772-10.339 27.691-0.351 0.681-0.62 1.675-0.62 2.73s0.269 2.049 0.742 2.914c5.762 18.999 10.486 41.689 13.25 64.981 1.171 10.769 1.733 21.018 1.733 31.398s-0.562 20.628-1.656 30.717c-1.873 21.223-8.401 41.792-18.548 60.074-7.636 13.245-18.408 24.835-31.272 33.577-12.151 8.233-26.007 14.241-40.917 17.391-1.096 0.044-1.482-0.008-1.88-0.008s-0.785 0.052-1.152 0.149c-9.578 10.992-21.898 19.389-35.897 24.162-15.35 5.41-32.381 8.556-50.11 8.82l-17.419 0.001c-0.676 0.006-1.476 0.010-2.276 0.010-19.164 0-37.838-2.104-55.801-6.093-22.244-6.14-43.057-17.191-60.692-31.921-22.901-18.372-40.081-43.538-48.494-72.437-4.612-16.624-7.382-34.641-7.934-53.216-0.178-4.095-0.275-8.503-0.275-12.933 0-15.22 1.145-30.173 3.354-44.776 2.358-15.976 6.202-33.592 9.405-51.529 0.187-0.475 0.296-1.026 0.296-1.602s-0.109-1.126-0.306-1.632c-7.256-9.694-11.623-21.952-11.623-35.231 0-1.229 0.037-2.45 0.111-3.661 0.477-12.709 2.901-24.864 6.982-36.229 4.33-13.983 13.727-26.183 26.075-34.24 1.168-0.738 1.852-1.63 2.16-2.681 3.277-15.13 7.8-28.399 13.635-40.933 6.459-15.402 15.399-29.686 26.263-42.261-0.022-0.225 0.065-0.721 0.065-1.237s-0.087-1.012-0.247-1.473c0.010-20.147 0.010-40.647 0.010-60.826-0.231-2.517-1.035-4.806-2.28-6.791-6.613-10.418-15.579-18.871-26.177-24.731-13.82-8.198-29.539-15.845-45.909-22.184-24.287-9.713-46.708-18.682-68.809-28.291-27.959-11.922-51.929-27.781-72.507-47.195-8.424-8.227-16.027-17.459-22.561-27.453-21.004 21.148-33.764 50.548-34.013 82.927v599.972c0 0.014 0 0.031 0 0.048 0 70.759 57.361 128.12 128.12 128.12 1.239 0 2.474-0.018 3.704-0.053l1094.926 0.004c1.050 0.031 2.284 0.048 3.523 0.048 70.759 0 128.12-57.361 128.12-128.12 0-0.017 0-0.034 0-0.051zM1364.479 595.178h-506.395c-11.37-2.721-19.898-12.224-21.13-23.903 1.231-11.918 9.76-21.421 20.942-24.104l506.582-0.038c10.426 3.284 17.855 12.866 17.855 24.183s-7.429 20.898-17.676 24.134zM1362.878 458.41h-504.793c-11.37-2.721-19.898-12.224-21.13-23.903 1.231-11.918 9.76-21.421 20.942-24.104l504.981-0.038c11.381 2.34 19.819 12.276 19.819 24.183s-8.437 21.843-19.659 24.155zM1362.878 314.275h-504.793c-12.191-1.446-21.555-11.721-21.555-24.183s9.364-22.737 21.44-24.172l504.908-0.011c11.381 2.34 19.819 12.276 19.819 24.183s-8.437 21.843-19.659 24.155z" />
<glyph unicode="&#xe908;" glyph-name="left_arrow" horiz-adv-x="1352" d="M1352.311 534.022h-1023.249l304.646 304.646-121.708 121.332-512-512 0.751-0.751 120.581-120.957 390.668-390.292 121.708 121.332-304.646 304.646h1023.249v172.044z" />
<glyph unicode="&#xe909;" glyph-name="lock" horiz-adv-x="866" d="M835.133 487.608c-2.685 4.476-5.371 8.727-8.28 12.979-21.318 28.521-52.631 48.553-88.66 54.924l-35.312 1.691c0 93.538-1.343 92.196 0 185.734s-31.552 140.979-117.259 187.077c-23.223 11.676-50.175 20.438-78.562 24.864l-3.564 0.199c-15.72 2.655-34.18 4.426-52.961 4.912l-2.984 0.011c-1.069 0.010-2.333 0.015-3.598 0.015-48.999 0-96.083-8.198-139.956-23.297-11.292-3.978-23.123-8.97-34.544-14.659-62.462-31.205-87.748-61.863-101.622-135.709-1.33-7.742-2.141-16.717-2.237-25.864-0.001-94.751-0.001-77.968-0.001-173.297v-25.958c-52.206-1.025-98.453-25.669-128.63-63.654-2.95-4.374-5.636-8.402-8.097-12.653-18.18-32.319-28.889-70.945-28.889-112.072 0-1.115 0.008-2.229 0.024-3.341l-0.002-257.398c-0.021-1.036-0.033-2.259-0.033-3.483 0-34.579 9.404-66.961 25.794-94.729 10.808-18.265 25.852-34.024 43.751-45.796 5.005-3.012 9.704-5.698 14.404-8.159 30.057-15.114 65.502-23.964 103.015-23.964 1.074 0 2.146 0.007 3.217 0.022l501.097-0.002c0.938-0.017 2.044-0.026 3.152-0.026 29.77 0 57.937 6.863 83.005 19.094 19.197 9.253 35.998 23.472 48.516 40.964 3.173 4.64 5.858 9.115 8.544 13.591 20.005 35.284 31.795 77.498 31.795 122.465 0 1.081-0.007 2.16-0.020 3.237l0.002 231.445c0.014 0.951 0.021 2.073 0.021 3.198 0 43.266-11.551 83.835-31.738 118.789zM268.531 829.986c39.276 38.874 93.008 63.206 152.421 64.221 6.795 0.694 14.456 1.088 22.209 1.088 37.397 0 72.652-9.174 103.636-25.393 15.577-9.77 29.802-22.499 41.472-37.334 22.354-24.064 36.987-54.995 40.27-89.239-1.295-97.511 0.048-82.518 0.048-181.427h-390.042c0 7.608 0 16.783 0 22.378 0 91.748 0 68.923 0 160.448-0.369 3.311-0.579 7.149-0.579 11.037 0 28.953 11.674 55.179 30.572 74.229zM794.853 154.406c0.001-0.201 0.002-0.439 0.002-0.678 0-79.838-64.721-144.559-144.559-144.559-0.473 0-0.945 0.002-1.416 0.007-86.306-0.001-128.152-0.001-214.529-0.001s-127.329 0-214.378 0c-80.051 0.503-144.825 65.198-145.454 145.171 0 87.78 0 89.571 0 180.2 0 107.86 52.14 152.168 147.916 152.168h422.266c2.76 0.193 5.981 0.302 9.228 0.302 77.861 0 140.979-63.118 140.979-140.979 0-1.365-0.019-2.726-0.058-4.082 0.452-91.996 0.676-94.906 0.004-187.549zM377.51 383.105c-25.763-16.941-42.536-45.717-42.536-78.411 0-12.97 2.64-25.323 7.411-36.551 7.592-17.123 12.145-37.802 12.145-59.545 0-3.32-0.106-6.615-0.315-9.883 0.022 0.201 0.021-0.088 0.021-0.378 0-7.598 0.489-15.082 1.436-22.422-0.093 0.727-0.093 0.561-0.093 0.395 0-38.065 30.858-68.923 68.923-68.923 2.839 0 5.639 0.172 8.388 0.505 2.358-0.404 5.466-0.617 8.623-0.617 38.065 0 68.923 30.858 68.923 68.923 0 0.205-0.001 0.41-0.003 0.615 1.567 15.185 0 30.626 1.79 44.724 1.124 12.598 3.982 24.214 8.349 35.061 6.261 12.321 10.097 27.809 10.097 44.192 0 19.671-5.53 38.051-15.12 53.67-17.471 27.315-48.12 45.459-83.007 45.459-20.532 0-39.595-6.284-55.373-17.034zM474.182 275.469c-5.121-8.754-8.498-19.116-9.382-30.18-1.583-18.38-0.016-31.359-0.016-49.709 0-35.804-5.147-44.755-32.448-44.755s-32.895 17.678-32.895 54.154c0.11 3.038 0.173 6.607 0.173 10.19 0 9.807-0.469 19.504-1.386 29.070-2.174 12.36-6.229 24.537-11.88 35.775-12.418 26.112-12.194 44.014 9.513 63.483 8.818 9.967 21.639 16.219 35.921 16.219 9.691 0 18.709-2.878 26.247-7.827 36.742-18.462 32.266-49.566 16.154-76.42z" />
<glyph unicode="&#xe90a;" glyph-name="mail" horiz-adv-x="1412" d="M1280.117 960h-1148.42c-72.627-0.266-131.432-59.070-131.697-131.672v-760.396c0.031-13.151 2.002-25.829 5.641-37.781 16.69-53.799 66.796-92.881 126.045-92.977h1148.431c51.314 0.454 95.589 30.133 117.032 73.182 8.988 17.276 14.233 36.766 14.663 57.439l0.002 760.508c-0.266 72.627-59.070 131.432-131.672 131.697zM162.92 878.54h6.573c8.421 2.277 18.111 3.64 28.101 3.755l1016.793 0.001c3.287 0 6.573 0 9.625 0h62.445l-9.155-6.573h-23.475c5.686-2.086 10.408-4.221 14.951-6.646l-470.61-332.809-62.445-43.43c-8.183-6.139-18.508-9.831-29.696-9.831s-21.514 3.692-29.826 9.923l-7.618 5.776-52.116 38.735-448.851 337.577h-9.86l6.573 2.113zM77.939 762.571c0 0.049 0 0.107 0 0.166 0 23.669 7.005 45.701 19.056 64.137l452.801-338.966-472.092-352.132zM1214.621 13.704h-1017.192c-42.066 0.136-78.999 21.989-100.19 54.929l502.794 381.715 58.923-44.134c12.923-9.747 29.252-15.611 46.951-15.611s34.028 5.864 47.15 15.755l59.194 44.225 504.018-378.894c-21.169-34.821-58.823-57.775-101.853-57.984zM862.489 487.908l452.138 338.516c11.775-17.987 18.78-40.019 18.78-63.688 0-0.058 0-0.117 0-0.175v-627.49zM1254.294 875.019h23.006l9.39 6.573-62.445-0.235-1061.326-2.817 4.695-3.521h1086.68z" />
<glyph unicode="&#xe90b;" glyph-name="skinny-arrow-right" horiz-adv-x="2075" d="M0 507.964v-111.856h1834.667l-366.703-366.703 94.559-93.405 512 512-512 512-94.559-76.108 366.703-371.315-1834.667-4.613z" />
<glyph unicode="&#xe90c;" glyph-name="mobile" horiz-adv-x="534" d="M510.767 77.688c0-60.838-41.508-110.609-92.239-110.609h-307.085c-50.73 0-92.239 49.771-92.239 110.609v740.623c0 60.832 41.508 110.609 92.239 110.609h307.085c50.73 0 92.239-49.777 92.239-110.609v-740.623zM426.074 953.876h-322.178c-57.148 0-103.896-56.064-103.896-124.59v-762.58c0-68.52 46.748-124.59 103.896-124.59h322.178c57.142 0 103.896 56.070 103.896 124.59v762.58c0 68.526-46.754 124.59-103.896 124.59v0zM29.62 798.698c0-2.889 2.064-5.234 4.614-5.234h462.026c2.55 0 4.614 2.344 4.614 5.234s-2.064 5.234-4.614 5.234h-462.026c-2.55 0-4.614-2.344-4.614-5.234zM228.531 852.959h73.437c2.55 0 4.614 2.344 4.614 5.234s-2.064 5.227-4.614 5.227h-73.437c-2.55 0-4.614-2.338-4.614-5.227s2.064-5.234 4.614-5.234zM496.261 70.252h-462.026c-2.55 0-4.614-2.344-4.614-5.234s2.064-5.227 4.614-5.227h462.026c2.55 0 4.614 2.338 4.614 5.227s-2.064 5.234-4.614 5.234z" />
<glyph unicode="&#xe90d;" glyph-name="present" horiz-adv-x="1019" d="M0 595.301v-238.397h47.364c6.801 0 12.315-5.513 12.315-12.315v-407.327h894.855c2.616 0 4.736 2.121 4.736 4.736v401.327c0 6.801 5.513 12.315 12.315 12.315h42.943c2.616 0 4.736 2.121 4.736 4.736v234.923zM599.938 535.307l63.151-350.175-87.465 36.312c-2.165 0.915-4.682 1.446-7.323 1.446-5.114 0-9.762-1.993-13.211-5.244l-68.825-63.142-67.888 381.119zM61.573 535.307h297.443l21.156-119.988h-320.178zM899.276-4.006h-779.288v359.647h269.025l56.521-320.178 120.619 111.778c3.638 3.338 8.508 5.383 13.856 5.383 2.863 0 5.589-0.586 8.065-1.645l152.693-63.101-48.942 268.078h207.137zM959.27 415.635h-278.182l-21.787 119.988h299.969zM469.846 618.667l-1.895-11.999 40.417 5.999h1.895l38.207-4.736-1.895 10.736c65.362 11.999 198.295 43.574 274.393 108.62 27.418 22.791 44.974 56.63 45.782 94.591 0.002 61.393-45.782 115.072-120.617 133.701-10.448 2.857-22.445 4.499-34.826 4.499-23.415 0-45.459-5.873-64.738-16.225-69.050-37.848-112.625-116.155-138.517-182.78-25.892 66.309-69.467 144.301-138.933 182.508-18.638 10.079-40.798 16.002-64.342 16.002-12.143 0-23.918-1.576-35.132-4.534-74.824-18.415-119.662-72.094-119.662-132.403 0.811-38.097 18.367-71.936 45.579-94.561 76.303-66.16 209.237-97.42 274.283-109.418zM649.512 873.167c17.916 14.399 40.938 23.111 65.993 23.111s48.077-8.711 66.199-23.271c14.727-11.825 24.321-29.932 24.738-50.292-0.516-20.38-10.089-38.355-24.814-50.173-63.281-53.148-175.691-81.25-237.895-94.828 14.841 54.626 47.048 144.932 106.094 195.454zM234.607 873.167c17.481 14.733 40.254 23.686 65.119 23.686 0.308 0 0.615-0.001 0.922-0.004 0.469 0.010 1.078 0.015 1.688 0.015 24.486 0 46.938-8.71 64.426-23.2 58.563-51.017 90.77-141.008 106.874-194.055-63.151 11.999-177.14 40.101-239.028 92.833-14.844 11.801-24.422 29.676-24.943 49.805 0.369 20.525 9.976 38.648 24.811 50.504z" />
<glyph unicode="&#xe90e;" glyph-name="receive" horiz-adv-x="1118" d="M559.186 335.131l55.868 55.868 180.691 180.439-56.372 56.372-140.677-140.929v473.119h-79.776v-473.119l-140.677 140.929-56.12-56.372 236.811-236.559 0.252 0.252zM1094.464 427.49h-71.471c-32.198-230.055-227.677-405.179-464.059-405.179s-431.86 175.123-463.775 402.707l-95.159 2.472c37.059-278.536 273.101-491.18 558.809-491.18s521.75 212.644 558.495 488.301z" />
<glyph unicode="&#xe90f;" glyph-name="right_arrow" horiz-adv-x="1352" d="M1230.603 569.332v0l-390.292 390.668-121.708-121.332 304.646-304.646h-1023.249v-172.42h1023.249l-304.646-304.27 121.708-121.332 512 512-121.708 121.332z" />
<glyph unicode="&#xe910;" glyph-name="search" horiz-adv-x="1037" d="M1016.353 59.448l-336.114 336.114c-5.314 5.171-11.436 9.549-18.152 12.919 34.681 54.694 55.539 121.253 55.539 192.683 0 198.301-160.755 359.055-359.055 359.055s-359.055-160.755-359.055-359.055c0-198.301 160.755-359.055 359.055-359.055 78.023 0 150.234 24.887 209.128 67.155 2.177-6.557 5.922-11.579 10.235-16.050l336.093-336.092c13.458-16.841 33.996-27.536 57.033-27.536 40.223 0 72.831 32.607 72.831 72.831 0 23.036-10.695 43.575-27.391 56.92zM358.691 336.205c-146.413 0-265.104 118.691-265.104 265.104s118.691 265.104 265.104 265.104c146.413 0 265.104-118.691 265.104-265.104s-118.691-265.104-265.104-265.104z" />
<glyph unicode="&#xe911;" glyph-name="send" horiz-adv-x="1118" d="M519.172 807.746v-472.867h79.524v472.867l140.677-140.677 56.372 56.12-236.811 236.811-236.811-236.811 56.12-56.12 140.929 140.677zM1094.464 427.49h-71.471c-32.198-230.055-227.677-405.179-464.059-405.179s-431.86 175.123-463.775 402.707l-95.159 2.472c37.059-278.536 273.101-491.18 558.809-491.18s521.75 212.644 558.495 488.301z" />
<glyph unicode="&#xe912;" glyph-name="settings" d="M512.187 595.408c-82.651 0-149.653-67.002-149.653-149.653s67.002-149.653 149.653-149.653c82.651 0 149.653 67.002 149.653 149.653s-67.002 149.653-149.653 149.653zM512.187 339.502c-58.682 0-106.254 47.571-106.254 106.254s47.571 106.254 106.254 106.254c58.682 0 106.254-47.571 106.254-106.254s-47.571-106.254-106.254-106.254zM991.45 535.173h-168.36c-5.746 20.36-12.501 37.809-20.661 54.444l122.425 119.715c6.062 6.088 9.81 14.485 9.81 23.757s-3.748 17.669-9.811 23.759l-87.359 86.236c-6.088 6.062-14.485 9.81-23.757 9.81s-17.669-3.748-23.759-9.811l-116.541-116.354c-19.144 11.472-41.253 21.499-64.52 28.932l-2.262 170.667c0 0 0 0 0 0.001 0 18.531-14.969 33.565-33.475 33.671h-121.977c-18.596 0-33.672-15.075-33.672-33.672v-170.23c-18.153-5.75-33.508-12.091-48.206-19.54l-118.657 121.491c-6.088 6.062-14.485 9.81-23.757 9.81s-17.669-3.748-23.759-9.811l-86.236-86.236c-6.062-6.088-9.81-14.485-9.81-23.757s3.748-17.669 9.811-23.759l115.98-115.98c-9.7-16.572-18.494-35.798-25.337-55.926l-173.888-2.251c-18.596 0-33.672-15.075-33.672-33.672v-121.78c0.211-18.435 15.205-33.298 33.67-33.298 0.001 0 0.001 0 0.002 0h168.359c5.819-20.29 12.633-37.67 20.848-54.232l-122.051-120.487c-6.062-6.088-9.81-14.485-9.81-23.757s3.748-17.669 9.811-23.759l86.236-86.236c6.088-6.062 14.485-9.81 23.757-9.81s17.669 3.748 23.759 9.811l116.915 116.915c18.976-11.307 40.899-21.208 63.96-28.56l2.261-171.788c0-18.596 15.075-33.672 33.672-33.672h121.78c18.596 0 33.672 15.075 33.672 33.672v171.353c17.949 5.785 33.112 12.121 47.629 19.541l119.421-122.053c6.088-6.062 14.485-9.81 23.757-9.81s17.669 3.748 23.759 9.811l86.236 86.236c6.062 6.088 9.81 14.485 9.81 23.757s-3.748 17.669-9.811 23.759l-116.354 116.354c9.677 16.463 18.467 35.561 25.331 55.555l174.83 2.249c18.596 0 33.672 15.075 33.672 33.672v121.593c0 18.596-15.075 33.672-33.672 33.672zM978.917 406.284c-0.105-11.322-9.255-20.472-20.567-20.577h-190.069c-8.475-34.207-22.603-64.22-41.504-90.579l0.537 0.787 127.766-127.766c3.703-3.748 5.991-8.903 5.991-14.591s-2.288-10.843-5.993-14.593l-48.448-48.448c-3.748-3.703-8.903-5.991-14.591-5.991s-10.843 2.288-14.593 5.993l-131.318 131.318c-22.779-13.801-49.236-24.532-77.393-30.732l-1.736-187.387c-0.105-11.322-9.255-20.472-20.567-20.577h-68.476c-11.322 0.105-20.472 9.255-20.577 20.567v187.076c-37.343 8.151-70.233 23.227-98.783 43.924l-0.549-1.835-40.032-39.845-87.921-87.921c-3.748-3.703-8.903-5.991-14.591-5.991s-10.843 2.288-14.593 5.993l-48.635 47.887c-3.703 3.748-5.991 8.903-5.991 14.591s2.288 10.843 5.993 14.593l90.912 90.538 42.277 42.277c-14.887 24.713-26.083 53.522-31.917 84.23l-186.763 1.634c-11.322 0.105-20.472 9.255-20.577 20.567v68.289c-0.005 0.167-0.008 0.364-0.008 0.562 0 11.405 9.194 20.662 20.575 20.763h189.133c8.367 34.335 22.441 64.482 41.323 90.966l-0.542-0.8-41.342 40.78-86.986 86.799c-3.703 3.748-5.991 8.903-5.991 14.591s2.288 10.843 5.993 14.593l48.635 48.635c3.748 3.703 8.903 5.991 14.591 5.991s10.843-2.288 14.593-5.993l89.228-89.79 38.723-37.413 3.554-3.554c22.989 14.003 49.7 24.867 78.143 31.108l1.734 187.385c0.105 11.322 9.255 20.472 20.567 20.577h68.663c11.322-0.105 20.472-9.255 20.577-20.567v-187.076c37.569-8.191 70.653-23.401 99.333-44.293l-0.749 0.52 40.406 40.406 88.108 87.734c3.717 3.541 8.759 5.719 14.311 5.719s10.594-2.178 14.319-5.727l48.442-48.442c3.703-3.748 5.991-8.903 5.991-14.591s-2.288-10.843-5.993-14.593l-89.603-90.725-41.903-41.903c14.78-24.779 25.857-53.664 31.553-84.437l186.192-1.614c11.322-0.105 20.472-9.255 20.577-20.567z" />
<glyph unicode="&#xe913;" glyph-name="success" d="M765.096 725.263h-1.686c-2.365 0.689-5.082 1.086-7.891 1.086-6.229 0-12.002-1.949-16.744-5.269l-307.893-464.541c-1.501-2.212-4.004-3.646-6.842-3.646-2.040 0-3.907 0.741-5.347 1.969l-139.744 119.701c-8.056 8.43-31.848 1.686-36.344-7.868s2.248-30.162 5.433-32.972l182.844-162.236c1.446-1.281 3.359-2.063 5.454-2.063 2.881 0 5.417 1.478 6.891 3.718l338.355 516.34c2.997 4.683 0.375 32.597-16.486 35.782zM512 960c-282.77 0-512-229.23-512-512s229.23-512 512-512c282.77 0 512 229.23 512 512s-229.23 512-512 512zM512-2.74c-248.937 0-450.74 201.803-450.74 450.74s201.803 450.74 450.74 450.74c248.937 0 450.74-201.803 450.74-450.74s-201.803-450.74-450.74-450.74z" />
<glyph unicode="&#xe914;" glyph-name="trash" horiz-adv-x="758" d="M724.247 857.768c-14.304 0-28.608 0-42.071 0h-163.234c0 13.252 0 26.084 0 38.915 0.152 1.583 0.239 3.423 0.239 5.284 0 22.802-13.050 42.556-32.090 52.2l-0.334 0.153c-7.389 3.588-16.073 5.685-25.247 5.685-0.294 0-0.588-0.002-0.881-0.006l-160.034 0.001c-0.387 0.008-0.843 0.012-1.3 0.012-12.737 0-24.69-3.359-35.021-9.24-7.792-4.29-14.275-10.908-18.462-18.916-4.25-10.733-6.643-22.872-6.643-35.57 0-0.23 0.001-0.459 0.002-0.689-1.262-11.955 0-24.366 0-37.828h-15.145c-62.054 0-123.898 0-185.952 0-0.203 0.004-0.442 0.006-0.681 0.006-6.357 0-12.35-1.558-17.619-4.313-11.673-6.279-19.617-18.619-19.617-32.814 0-18.876 14.047-34.471 32.257-36.903l21.226-0.021c2.735-30.922 5.68-28.398 8.204-58.478q6.731-74.675 13.463-149.141c4.207-48.381 8.414-96.763 12.832-145.144s8.835-97.394 13.252-147.247 8.414-95.5 12.621-143.251c4.628-52.168 8.835-105.177 14.304-156.293 1.937-20.34 15.066-37.195 33.089-44.468l10.454-4.545h400.723c0.018 0 0.040 0 0.061 0 13.521 0 26.049 4.252 36.319 11.492 14.526 11.994 23.844 30.228 23.844 50.639 0 1.009-0.023 2.012-0.068 3.009 7.788 89.469 15.992 178.869 23.775 268.48 7.573 85.824 14.935 171.859 22.508 257.683 6.942 78.251 14.304 156.503 21.035 234.754 1.683 17.88 0 5.68 2.104 24.401 7.362 0 16.408 0 22.929 0 18.039 1.24 32.203 16.176 32.203 34.421 0 0.397-0.007 0.792-0.020 1.185 0.159 1.145 0.248 2.535 0.248 3.946 0 18.007-14.598 32.605-32.605 32.605-0.235 0-0.469-0.002-0.702-0.007zM298.491 871.862c0 12.411 27.346 32.815 42.071 32.815h82.669c18.331-3.658 32.629-17.604 36.75-35.444 0.061-3.051 0.061-4.102 0.061-4.944s0 0 0-5.68h-161.762c-0.060 1.411-0.093 3.066-0.093 4.729 0 2.999 0.11 5.972 0.327 8.916zM641.578 756.588q-6.521-74.675-13.252-149.141t-13.252-147.247c-4.417-48.381-8.414-96.763-12.832-145.354s-8.835-97.394-13.252-147.247-8.414-75.096-12.832-123.267c0-9.887-4.838-21.035-5.89-30.922-1.683-14.304-21.035-16.197-35.97-16.197h-305.854c-17.459 0-37.233 0-38.705 18.090-6.521 74.044-13.252 129.367-19.773 203.412s-12.2 143.882-18.511 215.402-12.832 141.988-19.353 212.878c-4.838 53.43-9.466 64.789-14.304 118.219 0 2.735-2.945 16.408-2.945 21.035h529.249c-1.683-21.666-0.841-10.097-2.524-29.66zM434.59 103.021c-0.005-0.203-0.007-0.442-0.007-0.682 0-4.068 0.775-7.954 2.185-11.52 4.718-6.818 12.688-11.375 21.722-11.375 5.176 0 10.002 1.495 14.071 4.078 5.695 3.245 9.544 9.392 9.544 16.437 0 0.932-0.067 1.848-0.197 2.743q0.012 268.519 0.012 536.93c0.004 0.186 0.006 0.404 0.006 0.624 0 4.414-0.931 8.611-2.608 12.404-4.971 6.319-12.798 10.473-21.595 10.473-4.778 0-9.269-1.225-13.177-3.378-5.97-3.037-10.083-9.279-10.083-16.481 0-0.764 0.046-1.518 0.136-2.258q-0.009-134.116-0.009-268.532t0-269.463zM281.453 92.503c4.082-7.74 12.076-12.927 21.281-12.927 2.618 0 5.138 0.42 7.497 1.195 9.387 0.753 16.84 8.707 16.84 18.402 0 0.912-0.066 1.808-0.193 2.685q0.012 134.316 0.012 268.521t0 267.78c0.031 0.595 0.049 1.292 0.049 1.993 0 3.323-0.401 6.553-1.158 9.643-3.841 7.67-11.874 13.044-21.161 13.044-2.565 0-5.034-0.41-7.346-1.168-12.244-2.267-17.082-8.367-17.082-20.988q0-268.621 0-537.242c-0.025-0.489-0.040-1.062-0.040-1.639 0-3.312 0.475-6.513 1.362-9.539z" />
<glyph unicode="&#xe915;" glyph-name="tx" horiz-adv-x="701" d="M636.218 960h-570.734c-36.13-0.088-65.396-29.354-65.484-65.475v-893.041c0 0 0 0 0 0 0-36.197 29.299-65.551 65.475-65.639h570.742c36.13 0.088 65.396 29.354 65.484 65.475v893.196c-0.088 36.13-29.354 65.396-65.475 65.484zM648.476 39.657c-0.428-25.536-21.016-46.124-46.512-46.552l-501.566-0.001c-25.536 0.428-46.124 21.016-46.552 46.512l-0.001 816.727c0.428 25.536 21.016 46.124 46.512 46.552l500.48 0.001c25.536-0.428 46.124-21.016 46.552-46.512zM215.383 733.6c0-28.024-22.718-50.742-50.742-50.742s-50.742 22.718-50.742 50.742c0 28.024 22.718 50.742 50.742 50.742s50.742-22.718 50.742-50.742zM559.871 761.686h-290.643c-15.255 0-27.621-12.366-27.621-27.621s12.366-27.621 27.621-27.621h290.643c15.255 0 27.621 12.366 27.621 27.621s-12.366 27.621-27.621 27.621zM215.383 540.562c0-28.024-22.718-50.742-50.742-50.742s-50.742 22.718-50.742 50.742c0 28.024 22.718 50.742 50.742 50.742s50.742-22.718 50.742-50.742zM559.871 568.649h-290.643c-15.255 0-27.621-12.366-27.621-27.621s12.366-27.621 27.621-27.621h290.643c15.255 0 27.621 12.366 27.621 27.621s-12.366 27.621-27.621 27.621zM215.383 347.369c0-28.024-22.718-50.742-50.742-50.742s-50.742 22.718-50.742 50.742c0 28.024 22.718 50.742 50.742 50.742s50.742-22.718 50.742-50.742zM559.871 375.456h-290.643c-15.255 0-27.621-12.366-27.621-27.621s12.366-27.621 27.621-27.621h290.643c15.255 0 27.621 12.366 27.621 27.621s-12.366 27.621-27.621 27.621zM215.383 162.245c0-28.024-22.718-50.742-50.742-50.742s-50.742 22.718-50.742 50.742c0 28.024 22.718 50.742 50.742 50.742s50.742-22.718 50.742-50.742zM559.871 190.332h-290.643c-15.255 0-27.621-12.366-27.621-27.621s12.366-27.621 27.621-27.621h290.643c15.255 0 27.621 12.366 27.621 27.621s-12.366 27.621-27.621 27.621z" />
<glyph unicode="&#xe916;" glyph-name="up_arrow" horiz-adv-x="1655" d="M827.334 960l-827.334-827.334 196.059-196.666 631.274 631.274 631.274-631.274 196.059 196.666-827.334 827.334z" />
<glyph unicode="&#xe917;" glyph-name="user" horiz-adv-x="965" d="M964.527-56.599c-1.059 20.822-3.418 40.252-7.031 59.239-9.626 42.897-33.806 81.706-67.208 109.947-21.313 18.378-45.348 33.864-71.378 45.738-28.309 12.926-54.742 24.027-82.76 35.129-29.377 10.717-54.218 22.294-77.89 35.694-8.951 5.244-18.677 13.537-26.634 23.326-4.323 4.43-7.183 9.976-8.061 16.161q-0.018 39.272-1.604 79.45c-0.182 0.512-0.287 1.103-0.287 1.718s0.105 1.206 0.298 1.755c10.331 12.075 19.181 25.92 25.976 40.895 11.076 19.565 19.938 40.929 25.928 63.463 0.908 3.747 2.042 5.31 3.566 6.34 10.241 6.185 18.479 14.676 24.171 24.792 11.325 19.873 17.899 43.267 17.899 68.198 0 3.094-0.101 6.164-0.301 9.207-0.801 13.243-5.431 25.676-12.81 36.011-0.945 1.102-1.606 2.805-1.606 4.663 0 0.905 0.157 1.774 0.445 2.58 7.388 24.458 13.424 53.674 16.931 83.662 1.951 15.691 2.931 31.001 2.931 46.54 0 11.094-0.5 22.071-1.477 32.91-2.159 27.981-10.506 54.965-23.675 78.925-9.45 16.764-22.778 31.526-38.723 42.842-15.499 10.528-33.224 18.237-52.296 22.304-2.251 0.448-3.339 1.106-4.145 2.019-12.648 14.213-28.916 24.931-47.364 30.729-19.696 7.271-41.586 11.67-64.41 12.355l-22.245 0.007c-26.846-1.033-52.287-5.116-76.591-11.92-28.154-7.265-54.723-20.876-77.381-39.142-29.262-24.092-51.039-57.1-61.159-94.875-5.959-21.379-9.577-44.581-10.328-68.506-0.226-5.239-0.349-10.85-0.349-16.489 0-19.524 1.468-38.706 4.3-57.44 3.175-20.626 7.932-43.358 12.162-66.090 0.221-0.59 0.348-1.271 0.348-1.982s-0.128-1.393-0.361-2.023c-9.312-12.448-14.917-28.189-14.917-45.24 0-1.553 0.046-3.094 0.138-4.624 0.636-16.358 3.779-31.988 9.054-46.599 5.313-18.19 17.54-34.023 33.693-44.19 0.913-1.007 1.296-2.002 1.385-3.080 4.161-20.066 10.089-37.743 17.819-54.415 8.372-19.765 19.924-38.099 33.941-54.232 0.608-0.743 1.107-2.032 1.107-3.438 0-0.003 0-0.007 0-0.010 0-26.432 0-52.865-1.85-79.297-0.295-3.264-1.338-6.233-2.956-8.805-8.492-13.336-19.989-24.156-33.573-31.66-17.821-10.49-38.111-20.271-59.237-28.365-31.11-10.467-60.979-21.834-87.411-34.257-35.828-15.272-66.547-35.569-92.937-60.414-20.851-19.769-37.544-44.014-48.52-71.181-9.040-24.186-14.472-50.566-15.538-78.066-0.015-5.236-0.015-9.994-1.601-14.488v-2.908h965.32zM79.298-1.090c2.379 13.481 6.344 11.63 12.159 23.789 12.435 25.557 30.373 46.712 52.378 62.575 26.463 18.617 56.206 34.471 87.848 46.461 31.058 12.553 59.341 23.655 87.359 35.55 22.952 9.541 42.748 21.532 60.422 36.018 15.644 12.578 28.014 29.458 35.27 48.836 1.304 4.716 1.904 9.225 1.904 13.875 0 0.882-0.022 1.759-0.064 2.631q0.005 36.090 1.591 72.303c0 9.78 0 19.56 0 29.34 0.058 0.287 0.091 0.617 0.091 0.954 0 2.042-1.218 3.799-2.967 4.584-11.556 6.57-20.645 16.255-26.298 27.915-12.162 19.839-21.325 42.5-26.36 66.676-1.561 9.302-2.618 17.497-3.675 25.426 0 2.115 0 3.172-3.436 3.436s-8.987 2.115-13.481 2.643c-4.647 0.575-8.563 3.268-10.8 7.069-5.282 8.476-9.008 18.382-10.56 28.993-0.978 4.387-1.51 8.947-1.51 13.631s0.532 9.245 1.539 13.624c1.045 5.033 4.214 9.584 8.57 12.498 3.246 2.161 5.889 4.54 9.325 6.655 1.675 0.761 2.819 2.419 2.819 4.345 0 0.725-0.162 1.413-0.453 2.028-4.481 18.738-9.239 37.505-13.204 56.537-5.175 24.5-8.139 52.651-8.139 81.495 0 6.944 0.172 13.848 0.511 20.708 0.769 27.973 7.603 55.123 19.247 79.54 13.555 27.365 36.771 49.641 65.245 62.163 14.395 7.679 30.51 11.998 47.633 11.998 0.93 0 1.856-0.013 2.78-0.038 6.915 0.69 15.106 1.082 23.389 1.082s16.474-0.392 24.557-1.158c11.865-0.883 23.835-3.231 35.247-6.835 14.472-4.716 0.991-5.245 8.657-20.311 1.586-3.172 5.551-2.643 8.987-3.172 15.173-2.668 28.748-7.453 41.175-14.103 17.235-8.945 31.238-23.802 39.226-41.908 7.097-16.041 11.722-34.011 13.138-52.876 0.717-8.693 1.107-18.18 1.107-27.758 0-21.303-1.93-42.155-5.624-62.391-5.285-30.798-12.903-59.69-22.77-87.517 0.781 3.085 0.563 2.319 0.563 1.501 0-1.834 1.099-3.412 2.674-4.11 2.936-1.597 5.051-3.976 7.958-5.562 7.061-4.148 11.726-11.705 11.726-20.352 0-0.745-0.035-1.482-0.102-2.209-0.397-15.302-4.259-29.705-10.825-42.491-0.935-2.209-2.538-4.575-4.503-6.585-2.196-1.993-4.848-3.535-7.777-4.449-4.19-1.208-9.114-2.226-14.15-2.89-2.915-0.058-3.444-1.644-3.708-3.758-1.746-23.434-6.736-45.184-14.539-65.54-5.853-14.087-12.944-27.477-21.18-40.050-4.039-5.502-9.869-10.741-16.617-14.541-2.008-1.026-3.181-2.807-3.181-4.862 0-0.104 0.003-0.208 0.009-0.311-0.001-26.418-0.001-52.851-0.001-79.284-0.003-0.478-0.005-1.044-0.005-1.611 0-12.112 0.867-24.021 2.541-35.669 1.606-5.889 4.428-12.242 8.178-17.928 12.031-19.851 28.519-36.169 48.119-47.792 24.13-14.294 51.493-27.38 80.043-38.032 41.004-15.147 71.328-28.675 100.727-43.75 20.802-10.733 42.862-27.643 61.301-47.907 17.438-15.306 29.832-35.616 34.921-58.67z" />
<glyph unicode="&#xe918;" glyph-name="wallet" horiz-adv-x="1007" d="M1006.882 420.241c0.158 1.491 0.248 3.222 0.248 4.973 0 26.054-19.941 47.451-45.394 49.76-0.194 43.812-0.194 86.993-0.194 130.327 0 0.019 0 0.041 0 0.064 0 19.511-5.751 37.679-15.651 52.9-1.712 3.069-2.856 7.187-2.856 11.572 0 0.083 0 0.166 0.001 0.248 0.162 3.347 0.254 7.284 0.254 11.243 0 27.964-4.609 54.852-13.108 79.945-10.64 30.199-40.521 52.713-75.659 52.713-0.762 0-1.521-0.011-2.278-0.032-24.255 0.002-48.775 0.002-73.142 0.002-7.248 0-10.024 2.159-12.183 9.099-11.258 41.022-24.983 81.272-37.937 121.523-5.552 17.427-6.94 18.043-23.287 11.258q-165.937-68.935-332.183-137.87c-5.038-2.049-10.883-3.239-17.006-3.239-0.040 0-0.079 0-0.119 0-71.088 0-142.028 0-213.122 0-3.96 0.216-8.596 0.34-13.26 0.34-31.937 0-62.525-5.779-90.775-16.348-22.356-7.764-39.384-30.304-39.384-56.82 0-1.506 0.055-2.999 0.163-4.478-0.012-211.079-0.012-422.356-0.012-633.633q0-30.843 0-61.687c-0.044-1.125-0.070-2.445-0.070-3.771 0-56.298 45.639-101.937 101.937-101.937 1.326 0 2.646 0.025 3.96 0.076l524.148-0.006c77.108 0 154.217 0 231.325 0 1.126-0.048 2.446-0.075 3.774-0.075 45.893 0 84.211 32.438 93.274 75.638 1.858 10.453 2.859 21.772 2.859 33.325 0 2.491-0.047 4.971-0.139 7.44 0.011 37.735 0.011 75.827 0.011 113.918 0 4.781 0 8.945 6.323 10.641 21.715 2.818 38.315 21.197 38.315 43.453 0 2.025-0.137 4.017-0.403 5.969q1.722 96.775 1.567 193.469zM857.137 781.263c20.14-1.678 36.88-14.648 43.983-32.498 6.107-11.553 9.622-24.854 9.622-38.975 0-4.219-0.314-8.365-0.919-12.415-14.548 5.161-31.35 7.873-48.786 7.873-5.065 0-10.076-0.229-15.025-0.677-10.775 0.047-22.341 0.047-33.753 0.047-3.504 0.153-6.562 1.931-8.459 4.593-9.893 29.643-15.444 43.985-24.235 72.824 32.386-0.308 46.882 1.080 77.571-0.771zM692.28 907.875c24.52-79.267 42.872-123.373 67.701-203.104h-560.27c191.229 79.267 300.26 123.528 492.569 203.104zM57.214 766.149c18.043 15.422 40.713 14.034 63.229 15.422 50.12 2.159 69.552 2.005 119.827 2.622 17.272 0 34.39 0 51.663 0l-53.359-22.361c-43.489-17.735-40.405-17.735-84.357-35.778-26.988-11.258-95.152-9.87-107.952 15.422-3.239 9.87 0 15.73 10.949 24.675zM915.431 91.451c0.109-4.76 0.171-10.369 0.171-15.991 0-20.751-0.846-41.304-2.506-61.627-6.302-32.955-34.678-28.174-70.919-30.333-43.181-2.005-56.289 0-99.47 0-395.104 0-363.643-0.925-605.764-1.080-1.184-0.057-2.571-0.089-3.966-0.089-40.267 0-74.221 27.028-84.712 63.931-1.838 8.045-2.805 16.571-2.805 25.323 0 0.966 0.012 1.93 0.035 2.891-0.003 221.93-0.003 382.161-0.003 604.233 0 2.467 0 5.089 0 10.024 28.839-25.6 92.53-30.843 127.537-30.843 249.060 0 156.53-1.234 654.651-1.234 51.971 0 85.59-30.843 86.361-83.431 0-39.942 0-49.041 0-88.983 0-2.93 0-2.93 0-9.561h-121.060c-0.407 0.004-0.887 0.006-1.368 0.006-79.884 0-145.052-63.007-148.52-142.036-0.195-3.065-0.301-6.279-0.301-9.518 0-73.86 54.713-134.94 125.82-144.923 22.17-2.026 47.055-3.131 72.198-3.131 12.304 0 24.546 0.265 36.721 0.788 21.55-0.059 13.685-0.059 37.897-0.059 0-39.171 0.154-46.265 0-84.357zM959.846 261.089c-0.028-5.478-0.645-10.797-1.789-15.917-1.979-13.663-14.039-24.413-28.611-24.413-0.753 0-1.499 0.029-2.238 0.085-57.271-0.006-83.796-0.006-141.010-0.006-74.333 0-106.718 43.027-106.718 103.942 0 57.677 43.027 102.863 117.667 103.017h128.925c0.869 0.087 1.879 0.137 2.899 0.137 17.034 0 30.843-13.809 30.843-30.843 0-0.971-0.045-1.932-0.133-2.88 0.009-32.727 0.009-34.886 0.009-67.734v0c0.154-31.614 0.308-33.002 0.154-65.080zM823.827 386.93c-34.069 0-61.687-27.618-61.687-61.687s27.618-61.687 61.687-61.687c34.069 0 61.687 27.618 61.687 61.687s-27.618 61.687-61.687 61.687zM823.055 278.978c-25.287 0.348-45.652 20.928-45.652 46.265 0 25.554 20.715 46.269 46.269 46.269 0.217 0 0.433-0.001 0.65-0.004 25.254-0.348 45.62-20.928 45.62-46.265 0-25.554-20.715-46.269-46.269-46.269-0.217 0-0.433 0.001-0.65 0.004z" />
<glyph unicode="&#xe919;" glyph-name="downtriangle" horiz-adv-x="1646" d="M822.827-64l822.827 1024h-1645.653l822.827-1024z" />
<glyph unicode="&#xe91a;" glyph-name="phone" d="M512 960c-282.77 0-512-229.23-512-512s229.23-512 512-512c282.77 0 512 229.23 512 512s-229.23 512-512 512zM512-2.642c-248.883 0-450.642 201.759-450.642 450.642s201.759 450.642 450.642 450.642c248.883 0 450.642-201.759 450.642-450.642s-201.759-450.642-450.642-450.642zM564.268 299.377v0l-5-1.364c-5.139-1.031-11.046-1.621-17.092-1.621-25.436 0-48.432 10.448-64.931 27.286-39.936 43.019-69.464 96.224-84.259 155.272-2.365 10.122-3.423 18.922-3.423 27.97 0 20.068 5.202 38.921 14.332 55.284 2.907 6.233 7.445 11.935 13.019 16.395l1.911 0.072c0 1.136-5 174.757-5 175.439v0c-4.803 1.075-10.319 1.691-15.979 1.691-8.17 0-16.041-1.283-23.421-3.659-23.312-4.156-43.797-16.251-58.667-33.359-5.46-8.754-9.685-18.765-12.237-29.427-39.455-212.040 55.537-433.838 243.020-539.511h1.818c4.901-2.477 10.595-4.514 16.561-5.82 7.844-1.838 16.296-2.84 24.982-2.84 12.537 0 24.585 2.089 35.817 5.937l-0.777-0.231c26.674 8.928 49.774 21.761 69.963 38.055l7.303 5.805zM717.436 262.335c-22.725 16.589-60.676 45.451-80.447 60.449-5.144 3.781-11.602 6.050-18.591 6.050-3.932 0-7.697-0.719-11.17-2.032-12.353-4.875-22.75-9.836-32.76-15.409l144.331-112.917c3.82 8.861 7.33 19.476 9.949 30.437 0.773 3.473 1.057 5.879 1.057 8.352 0 10.181-4.817 19.238-12.296 25.014zM468.595 602.304c5.808 4.171 9.547 10.906 9.547 18.514 0 0.122-0.001 0.244-0.003 0.366 0 24.298-2.045 76.566-2.954 100.427-0.416 8.305-5.231 15.397-12.147 19.030-9.873 5.445-21.294 10.445-33.191 14.405s1.705-171.604 4.205-172.059c13.306 6.045 24.64 12.492 35.321 19.821z" />
<glyph unicode="&#xe91b;" glyph-name="always-supported" horiz-adv-x="1018" d="M512.619 139.067c-175.826 0-318.22 153.538-318.22 342.984s142.394 342.984 318.22 342.984c175.826 0 318.22-153.538 318.22-342.984s-142.394-342.984-318.22-342.984zM512.619 787.889c-154.776 0-281.074-137.441-281.074-305.838s126.297-305.838 281.074-305.838c154.776 0 281.074 137.441 281.074 305.838s-126.297 305.838-281.074 305.838zM443.279 4.102c-184.493 0-359.081 232.784-359.081 477.949 0 258.786 195.637 477.949 428.421 477.949s428.421-219.163 428.421-477.949h-37.146c0 238.975-179.541 440.803-391.274 440.803s-391.274-201.828-391.274-440.803c0-247.642 173.349-440.803 321.935-440.803v-37.146zM963.328 335.942h-76.769l17.335 211.734h58.196c29.717 0 54.481-24.764 54.481-54.481v-101.533c1.238-13.62-3.715-28.479-14.859-39.623-9.906-9.906-23.526-16.097-38.385-16.097zM926.181 373.088h37.146c4.953 0 8.667 1.238 12.382 4.953 2.476 2.476 4.953 6.191 3.715 12.382v102.771c0 9.906-7.429 17.335-17.335 17.335h-23.526l-12.382-137.441zM132.489 335.942h-78.007c-30.955 0-54.481 24.764-54.481 55.719v101.533c0 29.717 24.764 54.481 54.481 54.481h59.434l18.573-211.734zM54.481 510.53c-9.906 0-17.335-7.429-17.335-17.335v-101.533c0-11.144 7.429-18.573 17.335-18.573h38.385l-12.382 137.441h-26.002zM512.619-64c-48.29 0-86.675 38.385-86.675 86.675s38.385 86.675 86.675 86.675 86.675-38.385 86.675-86.675-38.385-86.675-86.675-86.675zM512.619 72.203c-27.241 0-49.528-22.288-49.528-49.528s22.288-49.528 49.528-49.528 49.528 22.288 49.528 49.528-22.288 49.528-49.528 49.528z" />
<glyph unicode="&#xe91c;" glyph-name="buy-sell" horiz-adv-x="1003" d="M993.557 960h-45.437c-40.288 0-74.062 0-115.107 0-35.856-0.838-65.865-24.93-75.583-57.74-4.689-15.717-9.535-70.241-13.17-85.841-1.783-7.879-8.681-13.689-16.953-13.782-240.372 0-441.962 0-681.566 0-1.319 0.152-2.848 0.238-4.398 0.238-22.501 0-40.742-18.241-40.742-40.742 0-6.598 1.569-12.83 4.353-18.343 39.121-110.633 70.775-213.321 111.517-324.642 15.676-46.956 59.24-80.203 110.57-80.203 1.542 0 3.078 0.030 4.605 0.090 136.091-0.007 234.841-0.007 371.758-0.007 4.847 0 30.291 2.423 34.078-1.060 30.566-30.025 59.205-61.688 85.905-94.973 15.42-21.952 10.725-36.189-20.93-41.339-10.591-1.475-23.214-2.509-36.007-2.867l-606.322-0.011v-64.824h77.546c-24.957-7.138-45.794-21.936-60.366-41.646-11.611-15.733-18.454-35.125-18.454-56.116 0-6.079 0.574-12.024 1.671-17.784 7.222-44.421 44.65-78.736 90.537-81.186 2.111-0.137 4.292-0.21 6.489-0.21 42.861 0 79.295 27.517 92.599 65.849 3.609 10.119 5.576 21.002 5.576 32.344 0 18.047-4.979 34.931-13.637 49.354-14.309 23.27-37.054 40.741-63.967 48.154l473.143 0.18c-64.218-28.020-89.36-66.035-78.909-118.591 9.493-45.241 49.062-78.726 96.451-78.726 45.585 0 83.934 30.983 95.137 73.040 2.34 8.337 3.596 17.122 3.596 26.2 0 19.517-5.804 37.678-15.781 52.852-14.74 21.956-37.228 38.232-63.544 44.912 13.334 1.373 27.419-0.595 40.747 1.828 28.798 4.614 51.742 25.428 59.398 52.644 2.91 8.086 4.521 16.827 4.521 25.944 0 20.729-8.329 39.513-21.822 53.187-24.831 27.405-50.124 54.97-74.357 83.141-2.148 2.595-3.452 5.958-3.452 9.625 0 1.261 0.154 2.485 0.444 3.656q69.043 243.741 139.318 487.436c3.219 18.094 18.829 31.655 37.607 31.655 1.692 0 3.359-0.11 4.993-0.324l114.915 0.021c7.11 0 12.874 5.764 12.874 12.874v55.433c0.007 0.136 0.010 0.295 0.010 0.454 0 5.437-4.408 9.845-9.845 9.845-0.004 0-0.007 0-0.011 0zM217.341 33.084c0-33.459-27.124-60.583-60.583-60.583s-60.583 27.124-60.583 60.583c0 33.459 27.124 60.583 60.583 60.583s60.583-27.124 60.583-60.583zM730.628 33.084c0-33.459-27.124-60.583-60.583-60.583s-60.583 27.124-60.583 60.583c0 33.459 27.124 60.583 60.583 60.583s60.583-27.124 60.583-60.583zM730.628 714.64c-17.569-63.006-28.777-99.81-38.622-136.311-20.447-77.697-9.39-39.379-27.111-103.294s-25.142-72.245-42.711-72.245c-133.888 0-245.209 0-378.642 0-34.532 0-52.858 15.146-64.824 47.255-40.893 111.321-54.070 121.166-94.055 231.578l-9.542 26.959c-0.813 2.209-1.283 4.76-1.283 7.422 0 12.213 9.9 22.113 22.113 22.113 0.025 0 0.050 0 0.075 0h617.334c0.005 0 0.011 0 0.016 0 9.954 0 18.023-8.069 18.023-18.023 0-1.67-0.227-3.287-0.652-4.822z" />
<glyph unicode="&#xe91d;" glyph-name="global" horiz-adv-x="1023" d="M1023.31 447.655c-0.396-282.28-229.319-510.96-511.654-510.96-282.579 0-511.655 229.076-511.655 511.655 0 281.802 227.817 510.395 509.325 511.65 0.285 0.001 0.479 0.001 0.674 0.001 283.155 0 512.761-229.267 513.311-512.293zM191.353 737.583c8.622-6.442 16.075-13.763 22.446-21.966 4.278-9.591 7.585-20.481 9.592-31.821l4.824-1.714c5.661 9.802 11.459 19.467 16.705 29.407 8.068 17.951 16.043 32.852 24.885 47.161 4.489 5.854 13.217 10.813 23.116 11.1 8.19-1.932 13.85-13.115 21.030-20.708 1.795-2.071 1.381-6.075 1.795-8.422 23.332-6.765 47.217-10.078 58.124-37.967l16.705-4.832c-5.661-6.627-8.56-12.702-13.806-15.049-11.873-5.661-24.713-9.388-37-13.806-9.112-3.728-17.81-8.284-27.612-12.978l21.952-27.612-27.612-13.116-2.761 1.519 7.593 16.705c-75.519-27.612-105.893-85.46-122.874-154.767-8.284 7.455-15.463 13.806-23.194 20.571-9.112 4.158-19.764 6.582-30.982 6.582-8.674 0-17.010-1.449-24.779-4.119-3.701-3.073-6.819-7.58-8.259-12.784-0.393-2.341-0.595-4.84-0.595-7.387 0-19.919 12.334-36.956 29.781-43.893 2.973-1.32 5.135-3.216 6.635-5.575 5.9-12.115 12.759-22.505 20.774-31.876 15.709-13.605 16.537-31 17.504-53.090l-104.512 82.837c0-166.778 117.904-330.519 253.895-384.086-1.657 26.646-2.761 52.601-5.108 78.557-0.254 25.712-15.95 47.695-38.246 57.141-10.046 5.293-18.29 11.599-25.362 19.029-27.65 24.891-44.632 55.264-37.176 92.955 7.869 39.9 1.104 35.62-21.399 50.53l53.706 15.187 6.351-14.773c7.317 5.108 12.978 9.664 19.191 13.806 5.37 3.396 11.907 5.412 18.914 5.412s13.544-2.016 19.062-5.499c19.306-12.129 41.985-24.006 65.591-34.138 26.763-9.817 38.084-22.242 33.666-47.231 0-0.828 0.966-1.795 0-1.243 32.444-6.903 63.922-12.702 94.986-20.709 25.956-6.765 27.612-11.597 16.982-35.482-21.338-45.766-48.799-84.931-81.916-118.503-8.55-8.541-17.692-16.588-27.32-24.037-0.386-2.935-0.23-5.768-0.23-8.637s-0.156-5.702-0.461-8.49c-1.88-7.273-3.913-13.58-6.297-19.711-0.419-1.232-0.886-3.966-0.886-6.809 0-12.53 9.071-22.941 21.005-25.024 24.586-4.874 52.678-7.65 81.419-7.65 84.054 0 162.561 23.747 229.178 64.899 5.417 3.768 11.458 9.897 16.062 17.039 25.887 38.474 45.874 83.064 57.548 130.913 6.281 23.356 11.129 48.234 14.151 73.671 2.034 16.281-4.041 21.803-19.227 21.803-1.786-0.044-3.889-0.069-5.998-0.069-20.34 0-40.133 2.34-59.125 6.764-71.695 18.018-78.46 47.839-67.277 102.926 13.806 67.926 48.321 119.975 119.423 139.442 37.829 10.355 43.489 7.041 64.337-25.403 6.406-8.030 14.261-14.607 23.21-19.409 2.449-0.984 4.822-1.441 7.301-1.441s4.852 0.457 7.039 1.292c15.604 4.511 31.066 9.895 50.395 16.246-5.166 7.98-10.586 17.518-15.491 27.357-5.048 11.147-8.579 22.102-10.853 33.511-0.075 8.84 1.13 16.382 3.299 23.504l-17.406-28.18-2.761 1.657 1.795-17.12c-20.019 23.747-31.478 52.325-60.609 63.508 2.983-7.23 7.087-13.416 12.164-18.653 7.224-7.722 14.149-16.048 20.574-24.766 3.158-4.764 1.501-11.529 1.639-17.051-5.661 1.381-12.978 0.966-16.705 4.418-6.197 7.040-12.228 14.736-17.809 22.768-7.204 11.149-18.631 17.877-31.63 17.877-8.814 0-16.906-3.094-23.248-8.254-11.115-6.988-20.78-16.652-31.963-23.693-12.638-8.553-27.119-16.086-42.452-21.884-2.677-0.682-4.090-0.797-5.529-0.797-7.792 0-14.799 3.362-19.649 8.715-3.45 6.145-5.47 13.459-5.47 21.244 0 9.183 2.811 17.71 7.619 24.768 7.219 13.654 18.954 9.098 30.551 8.407 9.102 0.523 17.631 2.101 25.746 4.62-2.276 6.977-3.932 13.604-5.313 21.473 0 0.966 0 1.933 0.828 3.037 13.136 8.32 24.149 18.717 32.897 30.855 7.001 11.748 13.585 25.153 19.14 39.079 4.074-2.302 7.463-6.128 11.062-9.745 4.286-3.947 9.027-7.546 14.092-10.672 14.206-8.375 18.348-6.028 20.833 9.987 0.388 2.499 0.609 5.38 0.609 8.314 0 23.904-14.71 44.373-35.571 52.848l13.424-53.155-6.213-3.175-30.235 28.717c-6.489-8.56-13.806-17.12-22.642-1.933-4.832 8.284-8.146 17.258-11.735 25.127 4.556 5.937 13.806 12.84 12.287 16.843-4.004 13.806-4.28 30.65-19.329 40.038-44.22 27.925-96.059 48.513-151.567 58.555-10.655 1.778-18.939 2.606-26.808 3.573l12.84-23.332-18.362-6.351 16.567-12.149-26.784-9.664 13.806-3.59c-39.9-11.045-63.094-39.209-82.837-71.654-8.146-13.806-16.982-14.496-27.612-2.485-4.556 5.384-7.317 12.287-11.321 18.224-6.351 9.526-13.806 18.776-20.709 29.269l22.642 19.605c-11.873 13.806-23.194 28.993-36.034 42.523-3.794 3.666-8.968 5.925-14.67 5.925-0.814 0-1.618-0.046-2.408-0.136-17.299-4.409-34.28-10.898-54.023-17.663l24.161-21.814-4.832-9.802 18.776-17.672-24.713-11.321v-20.571l-12.426 2.347v-12.84l-49.288 30.097 42.799 10.217c-5.799 8.284-10.769 14.911-15.325 21.814-7.179 10.907-15.187 13.806-25.817 4.418-11.771-10.741-24.666-20.74-38.327-29.664-27.296-16.515-47.749-39.411-60.147-66.739z" />
<glyph unicode="&#xe91e;" glyph-name="safe-secure" horiz-adv-x="866" d="M835.218 487.593c-2.559 4.366-5.42 8.732-8.28 12.947-21.516 28.644-53.144 48.684-89.495 54.832s-27.026 1.17-35.155 1.772c0 93.488-1.355 92.283 0 185.771s-31.163 140.909-116.672 186.976c-23.215 11.699-50.155 20.486-78.534 24.94l-3.663 0.201c-15.648 2.661-34.039 4.448-52.749 4.956l-2.952 0.012c-0.998 0.008-2.177 0.013-3.358 0.013-49.060 0-96.201-8.217-140.121-23.35-11.292-4.079-23.124-9.162-34.541-14.945-62.549-31.119-87.69-61.83-101.691-135.747-1.368-7.633-2.237-16.521-2.406-25.58-0.002-94.855-0.002-78.145-0.002-173.439v-26.044c-52.247-0.986-98.544-25.631-128.752-63.636-2.974-4.41-5.534-8.474-7.942-12.689-18.199-32.334-28.921-70.98-28.921-112.131 0-0.961 0.006-1.921 0.018-2.88l-0.001-257.586c-0.019-1.004-0.031-2.188-0.031-3.375 0-34.585 9.405-66.973 25.797-94.746 10.903-18.347 26.087-34.156 44.147-45.92 5.058-3.191 9.574-5.75 14.391-8.008 30.056-15.105 65.498-23.949 103.006-23.949 0.835 0 1.669 0.004 2.503 0.013l501.485-0.001c0.898-0.015 1.957-0.024 3.018-0.024 29.833 0 58.054 6.898 83.157 19.186 19.231 9.249 36.057 23.47 48.6 40.97 3.274 4.602 5.984 9.118 8.543 13.635 19.998 35.275 31.784 77.479 31.784 122.436 0 1.096-0.007 2.191-0.021 3.284l0.002 231.22c0.013 0.936 0.021 2.042 0.021 3.149 0 43.306-11.573 83.908-31.795 118.884zM269.323 829.93c39.19 38.748 92.756 63.028 151.99 64.129 6.329 0.595 13.438 0.932 20.625 0.932 37.87 0 73.552-9.366 104.857-25.907 15.588-9.543 29.837-22.018 41.592-36.589 17.853-21.534 40.736-56.008 40.284-90.633-1.204-96.8-0.903-81.745-0.903-180.653h-389.307c0 7.678 0 16.71 0 23.334 0 91.681 0 68.949 0 160.63-0.29 2.935-0.456 6.344-0.456 9.791 0 29.324 11.978 55.851 31.307 74.955zM795.023 154.59c0.001-0.228 0.002-0.498 0.002-0.768 0-79.817-64.705-144.522-144.522-144.522-0.742 0-1.482 0.006-2.221 0.017-86.301-0.001-128.001-0.001-214.413-0.001s-127.21 0-214.375 0c-79.831 0.844-144.301 65.42-144.973 145.211 0 87.831 0 90.39 0 180.717 0 107.789 52.088 152.2 147.985 152.2 170.566 0 251.709 0 422.426 0 97.251 0 150.544-68.046 150.544-144.522 0-93.036 0-95.897-0.452-188.33zM377.564 382.965c-25.723-16.935-42.468-45.682-42.468-78.339 0-13.022 2.662-25.422 7.472-36.685 7.543-17.073 12.068-37.688 12.068-59.36 0-3.106-0.093-6.19-0.276-9.25 0.012-0.189 0.008-0.91 0.008-1.632 0-7.661 0.497-15.206 1.46-22.605 5.477-46.097 30.016-68.227 76.986-68.227s72.562 22.13 77.681 70.304c1.656 15.054 0 30.109 1.807 45.163 1.103 12.569 3.935 24.166 8.27 34.998 6.295 12.355 10.15 27.889 10.15 44.322 0 19.643-5.508 37.999-15.064 53.608-17.529 26.956-47.979 44.829-82.604 44.829-20.726 0-39.957-6.405-55.821-17.342zM474.213 275.477c-5.050-8.665-8.398-18.909-9.316-29.844-1.523-18.48-0.018-31.427-0.018-49.643 0-35.829-5.269-45.163-32.367-45.163s-32.969 17.764-32.969 54.045c0.096 2.845 0.151 6.19 0.151 9.547 0 10.050-0.492 19.985-1.454 29.782-2.219 12.302-6.307 24.433-11.982 35.624-12.308 26.213-12.157 44.429 9.521 63.397 8.835 9.889 21.626 16.084 35.863 16.084 9.664 0 18.662-2.855 26.195-7.767 36.849-17.35 32.634-49.265 16.375-76.062z" />
<glyph unicode="&#xe91f;" glyph-name="simple" horiz-adv-x="1007" d="M1006.882 420.241c0.158 1.491 0.248 3.222 0.248 4.973 0 26.054-19.941 47.451-45.394 49.76-0.194 43.812-0.194 86.993-0.194 130.327 0 0.019 0 0.041 0 0.064 0 19.511-5.751 37.679-15.651 52.9-1.712 3.069-2.856 7.187-2.856 11.572 0 0.083 0 0.166 0.001 0.248 0.162 3.347 0.254 7.284 0.254 11.243 0 27.964-4.609 54.852-13.108 79.945-10.64 30.199-40.521 52.713-75.659 52.713-0.762 0-1.521-0.011-2.278-0.032-24.255 0.002-48.775 0.002-73.142 0.002-7.248 0-10.024 2.159-12.183 9.099-11.258 41.022-24.983 81.272-37.937 121.523-5.552 17.427-6.94 18.043-23.287 11.258q-165.937-68.935-332.183-137.87c-5.038-2.049-10.883-3.239-17.006-3.239-0.040 0-0.079 0-0.119 0-71.088 0-142.028 0-213.122 0-3.96 0.216-8.596 0.34-13.26 0.34-31.937 0-62.525-5.779-90.775-16.348-22.356-7.764-39.384-30.304-39.384-56.82 0-1.506 0.055-2.999 0.163-4.478-0.012-211.079-0.012-422.356-0.012-633.633q0-30.843 0-61.687c-0.044-1.125-0.070-2.445-0.070-3.771 0-56.298 45.639-101.937 101.937-101.937 1.326 0 2.646 0.025 3.96 0.076l524.148-0.006c77.108 0 154.217 0 231.325 0 1.126-0.048 2.446-0.075 3.774-0.075 45.893 0 84.211 32.438 93.274 75.638 1.858 10.453 2.859 21.772 2.859 33.325 0 2.491-0.047 4.971-0.139 7.44 0.011 37.735 0.011 75.827 0.011 113.918 0 4.781 0 8.945 6.323 10.641 21.715 2.818 38.315 21.197 38.315 43.453 0 2.025-0.137 4.017-0.403 5.969q1.722 96.775 1.567 193.469zM857.137 781.263c20.14-1.678 36.88-14.648 43.983-32.498 6.107-11.553 9.622-24.854 9.622-38.975 0-4.219-0.314-8.365-0.919-12.415-14.548 5.161-31.35 7.873-48.786 7.873-5.065 0-10.076-0.229-15.025-0.677-10.775 0.047-22.341 0.047-33.753 0.047-3.504 0.153-6.562 1.931-8.459 4.593-9.893 29.643-15.444 43.985-24.235 72.824 32.386-0.308 46.882 1.080 77.571-0.771zM692.28 907.875c24.52-79.267 42.872-123.373 67.701-203.104h-560.27c191.229 79.267 300.26 123.528 492.569 203.104zM57.214 766.149c18.043 15.422 40.713 14.034 63.229 15.422 50.12 2.159 69.552 2.005 119.827 2.622 17.272 0 34.39 0 51.663 0l-53.359-22.361c-43.489-17.735-40.405-17.735-84.357-35.778-26.988-11.258-95.152-9.87-107.952 15.422-3.239 9.87 0 15.73 10.949 24.675zM915.431 91.451c0.109-4.76 0.171-10.369 0.171-15.991 0-20.751-0.846-41.304-2.506-61.627-6.302-32.955-34.678-28.174-70.919-30.333-43.181-2.005-56.289 0-99.47 0-395.104 0-363.643-0.925-605.764-1.080-1.184-0.057-2.571-0.089-3.966-0.089-40.267 0-74.221 27.028-84.712 63.931-1.838 8.045-2.805 16.571-2.805 25.323 0 0.966 0.012 1.93 0.035 2.891-0.003 221.93-0.003 382.161-0.003 604.233 0 2.467 0 5.089 0 10.024 28.839-25.6 92.53-30.843 127.537-30.843 249.060 0 156.53-1.234 654.651-1.234 51.971 0 85.59-30.843 86.361-83.431 0-39.942 0-49.041 0-88.983 0-2.93 0-2.93 0-9.561h-121.060c-0.407 0.004-0.887 0.006-1.368 0.006-79.884 0-145.052-63.007-148.52-142.036-0.195-3.065-0.301-6.279-0.301-9.518 0-73.86 54.713-134.94 125.82-144.923 22.17-2.026 47.055-3.131 72.198-3.131 12.304 0 24.546 0.265 36.721 0.788 21.55-0.059 13.685-0.059 37.897-0.059 0-39.171 0.154-46.265 0-84.357zM959.846 261.089c-0.028-5.478-0.645-10.797-1.789-15.917-1.979-13.663-14.039-24.413-28.611-24.413-0.753 0-1.499 0.029-2.238 0.085-57.271-0.006-83.796-0.006-141.010-0.006-74.333 0-106.718 43.027-106.718 103.942 0 57.677 43.027 102.863 117.667 103.017h128.925c0.869 0.087 1.879 0.137 2.899 0.137 17.034 0 30.843-13.809 30.843-30.843 0-0.971-0.045-1.932-0.133-2.88 0.009-32.727 0.009-34.886 0.009-67.734v0c0.154-31.614 0.308-33.002 0.154-65.080zM823.827 386.93c-34.069 0-61.687-27.618-61.687-61.687s27.618-61.687 61.687-61.687c34.069 0 61.687 27.618 61.687 61.687s-27.618 61.687-61.687 61.687zM823.055 278.978c-25.287 0.348-45.652 20.928-45.652 46.265 0 25.554 20.715 46.269 46.269 46.269 0.217 0 0.433-0.001 0.65-0.004 25.254-0.348 45.62-20.928 45.62-46.265 0-25.554-20.715-46.269-46.269-46.269-0.217 0-0.433 0.001-0.65 0.004z" />
<glyph unicode="&#xe920;" glyph-name="ethereum" horiz-adv-x="660" d="M8.91 380.507c-7.816 10.943-12.037 33.688-6.018 43.771 107.785 179.304 217.603 357.357 326.952 535.722 109.427-178.366 218.854-356.497 326.873-535.722 6.097-10.083 1.954-32.906-5.784-43.849-106.144-148.82-213.851-296.468-321.089-444.351-107.238 147.882-214.867 295.609-320.933 444.429zM311.006 254.745v614.588l-276.772-454.356zM625.296 414.898l-277.631 455.528v-616.073zM297.015 224.261c-77.537 46.194-156.324 90.668-234.486 135.924 80.819-111.459 167.892-235.189 249.18-347.743 7.816 60.732 3.205 127.951 1.72 185.009-1.441 11.196-7.553 20.731-16.284 26.726l-0.13 0.084zM345.32 12.052c77.771 107.707 177.271 244.491 256.528 353.917-9.536-6.487-16.023-10.865-27.2-17.274-73.394-42.676-146.085-85.978-218.854-129.358-6.487-3.908-9.692-17.586-9.848-26.81-1.094-60.028-0.469-120.213-0.625-180.476z" />
<glyph unicode="&#xe921;" glyph-name="buysell" horiz-adv-x="1059" d="M1048.83 179.585c-64.364 64.156-128.312 128.867-193.37 192.26-6.899 6.259-16.099 10.090-26.195 10.090-1.916 0-3.8-0.138-5.642-0.405l0.21 0.025c-6.45-1.803-11.93-17.825-12.692-27.743-1.803-25.246-0.555-50.701-0.555-76.987h-69.011c80.941 116.244 80.733 229.852 2.428 338.467 3.329 17.062 7.976 30.171 8.184 43.349 0.902 50.284 0.347 100.638 0.347 150.923 0 40.991-2.705 43.834-43.141 43.834h-460.675c0 27.743 1.179 53.267-0.624 78.513-0.694 9.988-6.45 25.94-12.831 27.743-9.225 2.428-22.819-3.607-31.627-10.057-12.369-10.427-23.518-21.313-33.832-32.956l-0.292-0.336-169.511-166.528v-26.495c7.363-5.469 13.804-10.788 19.965-16.408l-0.198 0.178c61.174-61.035 121.792-122.694 183.66-183.035 6.991-6.326 16.307-10.197 26.527-10.197 1.847 0 3.665 0.126 5.445 0.371l-0.206-0.023c6.45 1.665 12.207 17.686 12.901 27.743 1.803 25.87 0.624 51.949 0.624 77.958h69.358c-81.704-116.729-80.941-230.962-2.15-339.854-3.676-15.259-8.6-26.564-8.808-37.939-0.832-52.92-0.416-105.84-0.347-158.76 0-36.898 3.676-40.644 40.991-40.644q214.316 0 428.632 0h34.124c0-27.743-1.248-53.406 0.624-78.582 0.694-9.988 6.52-25.94 12.97-27.743 9.225-2.358 21.778 4.716 31.835 9.918 6.508 4.748 12.124 10.166 16.925 16.257l0.137 0.181 186.295 183.174v26.495c-3.972 2.223-7.399 4.611-10.57 7.293l0.097-0.080zM242.753 665.368c-34.679 0-38.702-4.231-39.048-40.020 0-9.571 0-19.212 0-23.582l-138.508 138.23 138.3 137.953c0-10.82 0-22.611 0-34.679 0.624-29.546 6.381-35.373 35.927-35.373q220.974 0 441.949 0h25.593v-145.652c-11.978 4.435-21.901 8.943-31.458 14.048l1.356-0.661c-98.141 59.995-196.005 59.787-294.355 0-9.814-5.792-21.531-9.411-34.050-9.914l-0.144-0.005c-35.234-1.11-70.537-0.208-105.563-0.347zM302.262 448.971c0.715 125.175 102.354 226.373 227.629 226.373 125.718 0 227.633-101.915 227.633-227.633s-101.915-227.633-227.633-227.633c-0.803 0-1.606 0.004-2.407 0.012l0.122-0.001c-124.612 0.146-225.573 101.197-225.573 225.829 0 1.073 0.007 2.145 0.022 3.214l-0.002-0.162zM856.154 18.189c0 10.473 0 22.264 0 33.985-0.555 29.616-6.242 35.373-35.789 35.442h-467.68v145.652c11.75-4.166 21.524-8.471 30.929-13.387l-1.313 0.625c98.141-60.133 195.936-59.995 294.424-0.555 9.785 5.83 21.471 9.494 33.966 10.051l0.158 0.006c36.135 1.248 72.34 0.416 108.545 0.486 31.28 0 36.135 5.063 36.552 37.176 0 11.028 0 21.986 0 33.222l141.143-141.906z" />
<glyph unicode="&#xe922;" glyph-name="bell" horiz-adv-x="789" d="M395.010 960v0c32.053 0 58.208-20.531 58.208-52.584 0-17.146 0-17.746-0.546-34.783s3.331-26.756 22.388-33.309c128.758-44.448 197.669-136.948 208.644-271.603 6.061-74.208 7.918-148.798 10.921-223.224 2.676-66.836 23.535-126.355 67.71-177.028 7.317-8.409 13.16-15.235 17.637-21.296 5.916-8.053 9.467-18.164 9.467-29.104 0-27.323-22.149-49.472-49.472-49.472-0.026 0-0.053 0-0.079 0h-690.198c-0.137-0.001-0.299-0.002-0.461-0.002-27.142 0-49.144 22.003-49.144 49.144 0 4.725 0.667 9.294 1.911 13.618l-0.085-0.347c4.040 13.548 11.372 25.082 21.084 34.084l0.048 0.044c49.581 47.943 69.293 111.12 72.46 180.195 3.986 87.040 4.914 174.735 16.982 260.792 16.381 116.253 86.712 193.573 197.505 231.687 22.77 7.808 28.886 18.675 27.794 40.79-0.71 15.398-0.874 14.47-0.874 30.033 0.164 31.998 26.156 52.366 58.099 52.366zM283.289 41.168c29.486 0 181.014-0.764 223.879-0.764-1.037-58.427-52.639-105.168-113.851-104.349-59.847 0.764-111.448 49.472-110.028 105.114z" />
<glyph unicode="&#xe923;" glyph-name="clipboard" horiz-adv-x="752" d="M34.122-64c-37.451 0-33.29 36.619-33.29 48.77q0 144.479 0 288.957-0.832 286.793-0.832 573.753c-0.16 1.591-0.251 3.439-0.251 5.307 0 10.841 3.067 20.967 8.379 29.555l-0.139-0.241c7.845 11.331 20.776 18.659 35.418 18.659 0.422 0 0.843-0.006 1.262-0.018l-0.062 0.001c45.108 0 90.216 0 135.324 0 0.524 0.051 1.132 0.080 1.748 0.080s1.224-0.029 1.824-0.086l-0.077 0.006c-9.654-40.614-3.662-80.562-4.993-120.51 0-23.303 9.654-33.29 33.29-33.29h328.905c23.137 0 33.29 9.821 33.29 33.29s0 45.108 0 67.745c0 16.645-2.164 34.289-3.329 52.598 0.999 0 3.828 0 6.658 0h124.671c33.29 0 49.935-16.645 49.935-51.1q0-431.771 0-863.542c0-23.802 0-49.935-34.122-49.935zM37.451 418.705q0-215.553 0-430.939c0-13.15 1.165-14.148 13.982-14.148h649.155c12.983 0 13.982 0.999 13.982 14.148q0 94.876 0 189.919 0 335.563 0 671.293c0 13.482-1.332 14.814-14.481 14.814-26.466 0-52.765 0-79.23 0-8.156 0-10.153-2.663-9.987-10.32 0-25.3 0-49.935 0-75.901 0.075-1.153 0.118-2.5 0.118-3.857 0-34.749-28.169-62.918-62.918-62.918-1.741 0-3.465 0.071-5.169 0.209l0.224-0.015h-334.398c-1.481-0.124-3.205-0.195-4.945-0.195-34.749 0-62.918 28.169-62.918 62.918 0 1.357 0.043 2.704 0.128 4.039l-0.009-0.182c0 24.801 0 49.935 0 74.237 0 11.818 0 11.818-11.485 11.818h-76.733c-14.315 0-15.313-0.999-15.313-15.646q0-214.554 0-429.274zM317.42 930.538c13.53 17.983 34.831 29.489 58.819 29.489 21.876 0 41.518-9.57 54.966-24.752l0.067-0.077c6.366-6.713 10.817-15.301 12.444-24.851l0.040-0.283c0-5.826 3.329-6.991 8.655-6.991 23.137 0 46.273 0 69.41 0 19.475 0.333 27.464-7.657 27.464-26.299q0-38.783 0-77.566c0-19.308-7.823-27.298-27.131-27.298h-292.619c-19.308 0-26.965 7.99-27.131 27.298q0 39.282 0 78.398c0 18.309 8.489 26.632 26.965 26.632h69.41c3.995 0 7.49 0 8.322 5.326 1.996 8.061 5.57 15.096 10.4 21.075l-0.080-0.102z" />
<glyph unicode="&#xe924;" glyph-name="pencil" d="M996.233 819.694c-35.339 34.919-70.048 70.048-105.177 105.177-46.909 46.909-91.714 46.909-138.623-0.21q-315.53-315.53-631.060-631.060c-9.579-9.685-17.218-21.31-22.271-34.232l-0.236-0.687c-31.763-84.141-63.106-170.807-93.607-256.21-3.923-6.691-6.239-14.734-6.239-23.319 0-11.996 4.523-22.935 11.956-31.205l-0.038 0.043c8.216-7.855 19.377-12.69 31.667-12.69 8.311 0 16.105 2.211 22.827 6.076l-0.223-0.118c86.035 31.553 172.49 63.106 258.314 94.449 12.762 5.001 23.676 12.132 32.836 21.056l-0.021-0.020c52.168 51.116 103.704 103.283 155.451 154.82q239.382 239.382 477.923 477.712c19.935 17.194 32.788 42.125 33.861 70.076l0.006 0.182c-0.771 23.802-11.119 45.045-27.294 60.114l-0.051 0.047zM185.321 23.507c-3.576-1.262-51.747-21.035-55.954-21.035s-70.468-22.718-72.782-23.139c-24.611-5.68-24.611-5.68-25.453 2.314-2.104 21.035 55.744 130.629 64.578 152.927 16.32 43.748 34.802 81.189 56.525 116.419l-1.623-2.828c53.85-53.85 109.804-107.491 163.234-160.71-36.877-23.921-79.246-45.447-123.871-62.395l-4.655-1.552zM354.866 125.318c-56.795 57.426-109.173 109.173-168.283 168.283l444.477 444.897c57.847-58.478 110.435-110.646 168.283-168.283zM949.114 716.832c-43.333-43.333-74.465-75.517-118.008-119.481l-171.228 171.228c44.595 45.016 77.831 78.882 123.267 124.108 22.508 22.508 58.899 21.035 86.035-7.152 39.546-38.495 35.339-35.55 74.255-74.255 14.1-12.146 22.972-30.023 22.972-49.973 0-17.169-6.571-32.803-17.336-44.524l0.043 0.048zM354.656 180.431l362.439 361.597c-6.1 7.573-8.624 11.569-15.776 21.035l-364.753-365.384z" />
<glyph unicode="&#xe925;" glyph-name="paper-airplane" horiz-adv-x="1039" d="M392.881-42.719c0.764 79.449 0.764 158.789 0.546 238.239-0.042 0.798-0.065 1.732-0.065 2.671 0 13.959 5.241 26.693 13.863 36.343l-0.047-0.053c42.344 47.255 83.924 94.837 127.577 141.655q162.391 177.451 325.545 354.684c1.542 1.436 2.556 3.423 2.727 5.646l0.002 0.029-35.359-28.92-264.54-217.721q-113.062-92.873-226.343-185.527c-17.461-14.296-35.468-27.938-53.585-41.362-2.278-1.558-5.093-2.488-8.126-2.488-1.222 0-2.409 0.151-3.543 0.435l0.1-0.021q-119.61 42.126-238.893 85.233c-9.774 3.599-18.096 9.111-24.863 16.132l-0.019 0.020c-12.005 12.878-9.931 25.428 4.147 36.123 7.314 5.588 15.585 11.074 24.213 16.006l1.106 0.582q191.857 108.479 382.84 215.757 278.291 156.388 556.799 312.449c7.312 4.147 14.733 8.076 21.827 11.786 14.842 7.312 24.446 6.766 32.74-2.728 4.822-5.885 7.744-13.489 7.744-21.775 0-2.727-0.317-5.38-0.915-7.925l0.046 0.234c-1.855-8.622-3.165-17.352-4.474-25.974-5.129-33.831-10.913-67.445-16.152-101.276s-9.713-66.353-14.733-99.53c-5.784-38.088-11.896-76.393-17.57-114.372s-10.913-76.393-16.807-114.481-11.896-76.393-17.57-114.263-10.913-76.393-16.807-114.481-11.786-77.267-17.57-116.009c-1.763-14.393-4.022-26.849-6.917-39.060l0.478 2.391c-6.766-25.319-30.448-40.379-62.315-28.92-91.345 32.74-182.799 65.48-274.143 98.22-1.598 0.97-3.53 1.544-5.595 1.544-4.661 0-8.64-2.922-10.204-7.034l-0.025-0.075q-40.27-66.353-81.304-132.161c-14.951-23.9-30.23-47.582-45.509-71.264-3.744-5.783-10.163-9.555-17.463-9.555-11.358 0-20.583 9.132-20.734 20.454v0.014z" />
<glyph unicode="&#xe926;" glyph-name="alert" horiz-adv-x="1163" d="M525.282 927.638l-516.49-894.55c-5.452-9.283-8.672-20.447-8.672-32.362 0-35.747 28.978-64.725 64.725-64.725 0.023 0 0.047 0 0.070 0h1032.788c0.020 0 0.043 0 0.066 0 35.747 0 64.725 28.978 64.725 64.725 0 11.916-3.22 23.079-8.837 32.668l0.165-0.306-516.49 894.55c-11.406 19.457-32.214 32.316-56.026 32.316s-44.621-12.859-55.861-32.011l-0.165-0.304zM623.678 796.691l427.446-737.415c11.972-20.764-21.7-46.954-45.831-46.954h-848.158c-24.132 0-57.803 26.002-45.831 46.954l427.633 737.041c8.6 14.691 24.305 24.402 42.277 24.402s33.677-9.711 42.152-24.171l0.125-0.23zM581.214 243.724v0c-0.019 0-0.041 0-0.063 0-14.632 0-26.613 11.351-27.618 25.728l-0.005 0.087-21.7 307.537c-0.049 0.616-0.077 1.334-0.077 2.058 0 15.29 12.395 27.686 27.686 27.686 0.027 0 0.054 0 0.081 0h43.395c0.023 0 0.050 0 0.077 0 15.29 0 27.686-12.395 27.686-27.686 0-0.724-0.028-1.442-0.082-2.152l0.006 0.094-21.7-307.537c-1.009-14.464-12.99-25.815-27.623-25.815-0.022 0-0.044 0-0.067 0h0.003zM611.145 139.341c0-16.53-13.4-29.931-29.931-29.931s-29.931 13.4-29.931 29.931c0 16.53 13.4 29.931 29.931 29.931s29.931-13.4 29.931-29.931z" />
<glyph unicode="&#xe927;" glyph-name="completed-check" horiz-adv-x="995" d="M962.133 957.427l-3.021 0.783c-6.377 1.902-33.563 5.146-44.75-7.496l-564.749-854.62c-2.746-4.088-7.352-6.742-12.577-6.742-3.748 0-7.178 1.366-9.818 3.626l0.021-0.017-256.755 219.948c-14.991 15.439-58.399 3.021-67.126-14.32-11.188-16.558 4.251-55.938 10.181-60.749l334.621-297.925c2.627-2.268 6.075-3.65 9.845-3.65 5.196 0 9.779 2.624 12.496 6.618l0.034 0.053 622.030 949.043c5.482 8.391 0.783 59.742-30.43 65.447z" />
<glyph unicode="&#xe928;" glyph-name="ExchangeTab" horiz-adv-x="816" d="M281.182 326.416c-4.095 6.985-6.514 15.382-6.514 24.345 0 0.145 0.001 0.29 0.002 0.434v-0.022c0 7.92-0.352 15.84 0 23.466 0.517 6.063 1.493 11.62 2.911 16.996l-0.154-0.688c0.469 2.229 0 2.933-1.467 3.931-7.274 4.517-14.666 8.917-21.589 14.080-8.581 6.494-15.314 14.998-19.558 24.827l-0.153 0.399c-1.375 3.516-2.802 8.016-3.976 12.618l-0.189 0.875q0 18.421 0 36.842c0.227 0.556 0.448 1.241 0.623 1.944l0.023 0.109c2.071 10.239 6.698 19.169 13.186 26.392l-0.045-0.051c7.91 8.959 17.314 16.379 27.861 21.92l0.533 0.255c1.64 0.8 2.804 2.353 3.048 4.196l0.003 0.028c1.722 8.353 5.251 15.69 10.171 21.87l-0.081-0.105c9.719 12.266 22.068 22.020 36.231 28.496l0.611 0.25c16.293 7.855 35.214 13.448 55.135 15.761l0.831 0.079 14.784 1.936h27.103c0.82-0.248 1.831-0.473 2.864-0.629l0.128-0.016c24.977-1.577 48.151-7.728 69.217-17.622l-1.166 0.492c13.908-6.291 25.645-15.116 35.095-25.983l0.104-0.123c8.065-9.269 12.982-21.463 12.982-34.806 0-0.468-0.006-0.935-0.018-1.401l0.001 0.069c0-6.922 0.352-13.845 0-20.709-0.563-6.614-1.518-12.62-2.869-18.475l0.17 0.875c-0.469-2.171 0-2.816 1.408-3.755 7.626-4.928 15.429-9.562 22.703-15.018 7.51-5.562 13.486-12.778 17.454-21.132l0.145-0.34c1.806-4.298 3.688-9.761 5.258-15.355l0.257-1.071v-36.196c-0.182-0.335-0.342-0.724-0.459-1.132l-0.010-0.041c-2.393-13.892-9.616-25.779-19.845-34.122l-0.101-0.080c-6.864-5.867-14.549-10.384-21.765-15.605-1.278-0.897-2.295-2.083-2.968-3.466l-0.024-0.054c-2.112-4.928-4.107-10.032-5.867-15.136-0.411-1.173-0.997 0-0.411-1.173-29.685-45.231-85.475-52.799-127.597-52.153-63.476 0.587-112.461 28.687-124.018 52.975zM407.195 466.626c6.277 0 12.613-0.352 18.89 0 16.337 1.168 31.529 4.427 45.849 9.526l-1.205-0.374c16.494 5.254 30.705 13.575 42.629 24.374l-0.097-0.087c5.795 5.174 10.367 11.592 13.312 18.843l0.122 0.34c1.146 3.279 1.809 7.059 1.809 10.994 0 8.739-3.266 16.715-8.645 22.774l0.031-0.035c-8.851 10.65-19.864 19.184-32.399 24.989l-0.571 0.237c-20.307 9.664-44.054 15.585-69.111 16.245l-0.231 0.005c-33.087 1.291-65.412-3.109-95.859-19.477-12.263-6.126-22.351-14.992-29.747-25.839l-0.172-0.267c-3.654-5.103-5.843-11.471-5.843-18.351 0-4.296 0.854-8.393 2.401-12.131l-0.077 0.211c3.11-7.305 7.607-13.476 13.205-18.433l0.054-0.047c12.83-11.512 28.365-20.288 45.517-25.255l0.829-0.206c15.456-5.093 33.247-8.030 51.723-8.030 2.668 0 5.323 0.061 7.961 0.182l-0.374-0.014zM380.326 376.693v-1.291c9.562-2.699 19.066-5.867 28.687-7.978 12.738-2.896 27.367-4.555 42.383-4.555 7.347 0 14.602 0.397 21.743 1.171l-0.884-0.078c22.11 1.865 42.467 7.597 60.994 16.525l-1.038-0.451c12.43 5.665 22.916 13.596 31.347 23.351l0.097 0.115c4.586 5.25 7.826 11.788 9.116 19.002l0.036 0.24c0.181 1.283 0.284 2.765 0.284 4.271 0 7.566-2.604 14.523-6.964 20.025l0.051-0.067c-8.778 11.48-20.064 20.604-33.072 26.642l-0.543 0.226c-1.995 0.997-2.992 0.528-4.283-1.173-2.047-2.569-4.12-4.865-6.324-7.028l-0.012-0.011c-7.094-6.776-15.156-12.63-23.937-17.315l-0.585-0.285c-1.305-0.864-2.253-2.176-2.631-3.712l-0.009-0.043c-2.016-9.471-6.251-17.739-12.142-24.531l0.057 0.068c-8.942-10.401-19.884-18.808-32.262-24.681l-0.59-0.252c-15.164-7.54-32.772-13.044-51.329-15.565l-0.883-0.098zM274.729 521.654l-1.643-0.704c-10.598-5.983-19.35-14.060-25.936-23.73l-0.17-0.264c-3.453-5.024-5.515-11.238-5.515-17.933 0-5.365 1.324-10.421 3.663-14.859l-0.084 0.174c3.941-7.547 9.205-13.879 15.544-18.916l0.119-0.092c11.278-9.16 24.538-16.411 38.983-21.003l0.85-0.233c18.091-6.138 38.928-9.681 60.594-9.681 0.209 0 0.418 0 0.626 0.001h-0.032c1-0.019 2.179-0.030 3.361-0.030 24.563 0 48.028 4.706 69.54 13.265l-1.271-0.446c0.904 0.42 1.635 0.812 2.343 1.237l-0.114-0.063c-0.56 0.42-1.266 0.673-2.031 0.673-0.152 0-0.303-0.010-0.45-0.029l0.017 0.002c-5.867-0.528-11.733-1.173-18.010-1.525-3.062-0.169-6.646-0.266-10.253-0.266-13.202 0-26.102 1.293-38.581 3.758l1.256-0.207c-19.129 3.332-36.248 9.465-51.84 18.032l0.86-0.433c-12.346 6.438-22.692 15.078-30.881 25.493l-0.153 0.202c-6.198 7.74-10.133 17.531-10.672 28.218l-0.005 0.118c-0.176 6.395 0 12.496 0 19.242zM480.057 325.302v1.115l-4.752-0.352c-7.359-0.867-15.882-1.362-24.522-1.362s-17.164 0.495-25.545 1.457l1.023-0.096c-27.898 2.491-53.271 11.466-75.185 25.396l0.681-0.404c-10.647 6.7-19.359 15.525-25.733 25.936l-0.197 0.346c-0.836 1.138-1.973 2.010-3.294 2.506l-0.050 0.016c-1.019 0.283-2.236 0.51-3.482 0.637l-0.096 0.008-29.743 8.037c-2.075-3.79-3.295-8.303-3.295-13.101 0-4.39 1.021-8.541 2.84-12.229l-0.072 0.162c5.318-10.912 13.337-19.797 23.206-26.012l0.26-0.153c20.128-13.161 44.28-21.873 70.273-24.186l0.594-0.043c7.342-0.943 15.835-1.481 24.454-1.481 14.184 0 28.028 1.458 41.39 4.232l-1.313-0.228c12.284 2.387 23.131 5.795 33.415 10.254l-1.032-0.399zM813.040 491.031c1.637-13.596 2.571-29.341 2.571-45.305 0-31.379-3.609-61.915-10.435-91.215l0.531 2.705c-8.314-38.441-21.333-72.473-38.698-103.761l0.977 1.918q-91.459-161.681-270.974-207.323c-19.477-4.928-25.461-11.733-24.639-30.917 1.291-30.858 0.352-61.774 0.352-81.134l-154.055 132.935 152.529 159.863v-108.882c104.835 3.051 227.679 117.33 261.471 240.527 35.844 130.237-10.090 298.43-182.273 389.537l47.988 54.207c48.036-25.276 88.567-58.296 121.507-97.86l0.517-0.638c49.852-58.148 83.303-131.697 92.408-212.615l0.165-1.806zM282.59 129.595c-1.833-3.707-3.784-6.879-5.988-9.852l0.122 0.172c-13.082-14.432-26.399-28.687-41.535-45.055-77.699 36.134-140.246 93.866-181.355 165.474l-1.035 1.956c-138.802 242.522 9.034 554.855 285.054 601.318 22.469 3.755 29.333 12.672 27.807 34.26-1.701 28.863-0.411 57.902-0.411 82.131l153.703-140.796-151.884-137.98v88.995c-93.864 3.696-234.661-90.638-278.073-221.578-44.879-134.636-4.283-327.821 193.595-419.045z" />
<glyph unicode="&#xe929;" glyph-name="search_alt" horiz-adv-x="1000" d="M463.434 956.859c-15.905 2.182-34.286 3.428-52.957 3.428-226.856 0-410.76-183.903-410.76-410.76s183.903-410.76 410.76-410.76c81.695 0 157.82 23.85 221.792 64.966l-1.631-0.981 245.248-245.489c13.126-13.171 31.284-21.32 51.345-21.32s38.219 8.149 51.343 21.318l0.002 0.002c13.171 13.126 21.32 31.284 21.32 51.345s-8.149 38.219-21.318 51.343l-241.625 241.625c52.72 68.036 84.511 154.598 84.511 248.586 0 17.645-1.121 35.029-3.294 52.083l0.21-2.023c-23.814 186.031-169.137 331.931-352.846 356.408l-2.098 0.229zM410.76 863.351c173.478 0 314.11-140.632 314.11-314.11s-140.632-314.11-314.11-314.11c-173.478 0-314.11 140.632-314.11 314.11v0c0 173.478 140.632 314.11 314.11 314.11v0z" />
<glyph unicode="&#xe92a;" glyph-name="bitcoin-cash" d="M512 960c-282.77 0-512-229.23-512-512s229.23-512 512-512c282.77 0 512 229.23 512 512v0c0 282.77-229.23 512-512 512v0zM655.36 212.685l16.589-78.029-54.067-11.469-16.179 76.186-72.090-15.36 16.179-76.186-52.019-11.059-16.179 76.186-92.16-20.48-114.278 541.286 92.16 20.48-15.155 75.571 52.019 11.059 16.179-76.186 72.090 15.36-17.408 76.595 52.019 11.059 16.998-80.077c86.221 7.782 146.637-29.491 162.406-103.629 2.223-8.742 3.498-18.778 3.498-29.113 0-51.574-31.773-95.727-76.812-113.953l-0.824-0.295c80.691 4.506 137.421-35.635 153.19-109.773 17.203-82.739-29.286-147.661-126.157-178.176zM557.875 449.434l-162.202-34.406 40.96-190.259 162.202 34.406c88.064 18.637 132.915 63.898 117.76 125.542s-70.656 83.763-158.72 64.717zM642.867 620.237c-11.878 56.115-61.44 76.8-134.554 61.44l-162.202-34.406 37.069-174.285 162.202 34.406c74.138 15.77 109.978 58.778 97.485 112.845z" />
</font>
</defs>
</svg>
