<svg fill="none" height="32" viewBox="0 0 32 32" width="32" xmlns="http://www.w3.org/2000/svg"><g fill="#003a63"><path d="m1.08856 23.358v5.2341c0 2.9248 1.78504 3.4079 3.279 3.4079 2.2085 0 3.23165-1.4606 3.23165-3.4377v-5.2043h-1.4624v5.3814c0 .6795-.22181 1.949-1.76925 1.9244-1.40804-.0245-1.66843-1.3221-1.66843-2.1541v-5.1517z"/><path d="m13.7048 23.7017s-.9328-.4656-1.9928-.4656c-1.3204 0-2.98091.6813-2.98091 2.5329 0 1.2862.94512 1.8964 1.59131 2.2094.341.1675.7583.3542 1.1003.5375.1771.0955.8776.3322.8776 1.095 0 .8119-.8899 1.0907-1.2897 1.0907-1.4247 0-2.39524-.6497-2.39524-.6497l.14904 1.6325s.58215.2963 2.326.2972c1.6632-.0044 2.8617-1.0723 2.8617-2.5452 0-1.1327-.7725-1.8052-1.4318-2.1252-.5199-.2569-.8215-.3928-1.273-.6067-.4515-.2122-.917-.5804-.917-1.1511 0-.6102.5576-1.0486 1.3808-1.0486 1.2099 0 1.6974.5471 1.9928.7207v-1.5238z"/><path d="m23.7101 29.1865 1.1626-3.3158 1.0398 3.3158zm-7.0077 0 1.1652-3.3158 1.038 3.3158zm8.8962-5.8417h-1.7543l.2796.7085-2.724 7.276-2.8082-7.9845h-1.7543l.2797.7085-2.9038 7.7573h1.5852l.5076-1.4764h3.0019l.5042 1.4764h2.994l.5076-1.4764h3.0011l.5059 1.4764h1.7561z"/><path d="m1 13.8375.07365 2.6443s.64878-.4796 1.37384-.4796c.72769 0 1.54656.5225 1.54656.5225l6.49925 3.8042.5497-2.3909-7.04895-4.1241s-.81624-.52-1.54656-.52c-.72944 0-1.44749.5436-1.44749.5436z"/><path d="m1 10.3788.07365 2.6451s.64878-.4795 1.37384-.4795c.72769 0 1.54656.5225 1.54656.5225l7.20065 4.2127.5488-2.39-7.74857-4.5336s-.81624-.52076-1.54656-.52076-1.44837.54356-1.44837.54356z"/><path d="m1 6.92096.07365 2.64512s.64878-.4787 1.37384-.4787c.72769 0 1.54656.52078 1.54656.52078l7.90295 4.62654.5479-2.3917-8.44997-4.94658s-.81624-.51815-1.54656-.51815-1.44837.54269-1.44837.54269z"/><path d="m14.5456 2.71087.7242 3.12206 9.8974 5.78907s.7795.5199 1.5422.5199c.7654 0 1.4501-.5436 1.4501-.5436l-.0736-2.64507s-.6216.48045-1.3765.48045c-.754 0-1.5422-.52165-1.5422-.52165l-7.6574-4.481-.5286-2.00773c0-.08417.0754-.1245.1034-.13151l1.2967-.40593c.1745 0 .2753.14992.2753.27793l.0684.1429c.0464.02455.242-.07101.2569-.0789v-.79257c.0043-.524291-.4147-.989838-.9864-.989838h-1.2949s-.1894-.445382-.74-.445382h-2.4601c-.6497 0-.8066.612839-.8066.612839l-1.7079 6.920081-6.99107-4.09261s-.7575-.52078-1.54744-.52078c-.78731 0-1.44749.5427-1.44749.5427l.07365 2.64424s.5839-.47782 1.37384-.47782c.79082 0 1.54744.52253 1.54744.52253l8.60077 5.03162z"/><path d="m15.4644 6.68948.7224 3.13521 8.9813 5.25431s.804.5225 1.5422.5225 1.4501-.5453 1.4501-.5453l-.0745-2.6443s-.5751.4787-1.3756.4787c-.8022 0-1.5422-.5199-1.5422-.5199z"/><path d="m16.3841 10.6857.7233 3.1361 8.0598 4.7142s.8058.5216 1.5431.5216c.7382 0 1.4492-.5444 1.4492-.5444l-.0736-2.6451s-.576.4778-1.3765.4778c-.8022 0-1.543-.5199-1.543-.5199z"/><path d="m17.3064 14.6853.7233 3.1317 7.1375 4.1777s.8066.5234 1.5439.5234c.7383 0 1.4493-.548 1.4493-.548l-.0737-2.6433s-.576.4804-1.3764.4804c-.8022 0-1.544-.5234-1.544-.5234z"/><path d="m30.2015 22.8653c.9644 0 1.7306.7829 1.7306 1.7614 0 .9933-.7671 1.7692-1.7385 1.7692-.9627 0-1.7447-.775-1.7447-1.7692 0-.9785.782-1.7614 1.7447-1.7614zm-.0071.2744c-.7741 0-1.4089.6655-1.4089 1.487 0 .8364.6348 1.4948 1.416 1.4948.7838.007 1.4097-.6584 1.4097-1.4878s-.6259-1.494-1.4097-1.494zm-.3287 2.5119h-.3139v-1.9648c.1648-.0237.3218-.0473.5567-.0473.2964 0 .4927.0622.6102.149.1175.0859.1806.2183.1806.4059 0 .2595-.1718.4165-.3831.4779v.0149c.1727.0315.2884.1885.3288.4778.0473.306.0938.4226.1253.4857h-.3287c-.0474-.0623-.0947-.242-.1342-.4998-.0473-.2507-.1718-.3454-.4234-.3454h-.2183zm0-1.0881h.2262c.2595 0 .4778-.0938.4778-.3358 0-.1727-.1254-.3436-.4778-.3436-.1017 0-.171.007-.2262.0149z"/></g></svg>