<svg fill="none" height="32" viewBox="0 0 32 32" width="32" xmlns="http://www.w3.org/2000/svg"><path d="m4 7v14.168l12.0001 4.0831 11.9999-4.0831v-14.168z" fill="#d62a43"/><path clip-rule="evenodd" d="m22.641 12.9048c.2498.1728.4221.4225.4411.7495v.0002h3.4566c-.0948-2.5544-2.6881-3.1518-4.8395-3.1518-1.9976 0-4.7064.6547-4.7064 3.1714 0 1.709 1.1717 2.6309 4.0718 3.1298 1.7674.3074 2.094.4802 2.094 1.056 0 .5777-.7874.7691-1.2871.7691-.4599 0-.8259-.1155-1.0173-.2889-.2888-.2491-.4424-.5369-.4621-.8826h-3.6295c.0568 2.5741 2.6311 3.515 4.9747 3.515 2.4211 0 5.0717-.75 5.0717-3.515 0-1.6333-1.1143-2.3827-2.3822-2.7864-.6706-.2231-1.3893-.3497-2.0115-.4593-.5544-.0976-1.0321-.1818-1.331-.3087-.2111-.0953-.442-.229-.442-.5178 0-.6528.6141-.7687 1.1535-.7687.3062 0 .6143.0962.8452.2882zm-10.3172 7.8178h3.669v-9.9698h-3.8035v5.2636c0 1.594-.8642 1.9204-1.5174 1.9204-1.11496 0-1.2482-.8056-1.2482-1.9589v-5.2253h-3.8037v6.8387c0 2.2861 1.63383 3.381 3.41934 3.381 1.51756 0 2.53656-.5182 3.24686-1.5174h.0376z" fill="#fff" fill-rule="evenodd"/></svg>