<svg fill="none" height="32" viewBox="0 0 32 32" width="32" xmlns="http://www.w3.org/2000/svg"><path clip-rule="evenodd" d="m4.56823 4.56759c-.74917.74916-.75929 1.9792 0 2.73849l4.47478 4.47482-3.10804-.0304c-1.21487-.0304-1.91849.82-1.91849 1.8881 0 1.0934.85548 1.9488 1.91849 1.9488h3.86733c.8504 0 1.5388-.5264 1.8021-1.2148.4859-1.2655 1.4831-2.2678 2.7688-2.7689.6935-.2734 1.2149-.9517 1.2149-1.80206v-3.86734c0-1.06301-.8504-1.91848-1.9489-1.91848-1.063 0-1.9184.70361-1.8881 1.91848l.0304 3.10804-4.47475-4.47475c-.75929-.76436-1.99441-.74917-2.73852 0zm20.12567 0c.7593-.76436 1.9944-.74917 2.7385 0 .7441.7441.7593 1.9792 0 2.73849l-4.4748 4.47482 3.1081-.0304c1.2148-.0304 1.9185.8251 1.9185 1.8881 0 1.0984-.8555 1.9488-1.9185 1.9488h-3.8673c-.8505 0-1.5288-.5213-1.8021-1.2148-.5062-1.2858-1.5034-2.283-2.7689-2.7689-.6884-.2632-1.2148-.9517-1.2148-1.80206v-3.86734c0-1.06301.8554-1.91848 1.9488-1.91848 1.063 0 1.9185.70361 1.8881 1.91848l-.0304 3.10804zm2.7385 20.12631c.7644.7593.7492 1.9894 0 2.7386-.7492.7441-1.9792.7592-2.7385 0l-4.4748-4.4748.0304 3.108c.0304 1.2149-.8251 1.9185-1.8881 1.9185-1.0985 0-1.9488-.8555-1.9488-1.9185v-3.8673c0-.8504.5213-1.5287 1.2148-1.8021 1.2858-.5011 2.283-1.5033 2.7689-2.7688.2632-.6885.9516-1.2149 1.8021-1.2149h3.8673c1.063 0 1.9185.8555 1.9185 1.9489 0 1.068-.7037 1.9184-1.9185 1.888l-3.1081-.0303zm-20.1263 2.7386c-.75929.7643-1.99441.7491-2.73851 0-.74917-.7492-.76436-1.9793 0-2.7386l4.47477-4.4747-3.10804.0303c-1.21487.0304-1.91849-.825-1.91849-1.888 0-1.0985.85548-1.9489 1.91849-1.9489h3.86733c.85045 0 1.52875.5214 1.80205 1.2149.5062 1.2857 1.5034 2.2829 2.7689 2.7688.6884.2633 1.2149.9517 1.2149 1.8021v3.8673c0 1.063-.8555 1.9185-1.9489 1.9185-1.0681 0-1.9185-.7036-1.8881-1.9185l.0304-3.108z" fill="#03965f" fill-rule="evenodd"/></svg>