<svg fill="none" height="32" viewBox="0 0 32 32" width="32" xmlns="http://www.w3.org/2000/svg" xmlns:xlink="http://www.w3.org/1999/xlink"><linearGradient id="a"><stop offset=".3427" stop-color="#fdb913"/><stop offset=".3656" stop-color="#fbb415"/><stop offset=".5519" stop-color="#ef941b"/><stop offset=".7247" stop-color="#e8801d"/><stop offset=".8776" stop-color="#e4741e"/><stop offset=".9944" stop-color="#e36f1e"/></linearGradient><linearGradient id="b" gradientUnits="userSpaceOnUse" x1="-.268138" x2="16.4447" xlink:href="#a" y1="24.5279" y2="4.61032"/><linearGradient id="c" gradientUnits="userSpaceOnUse" x1=".290941" x2="16.9422" xlink:href="#a" y1="25.0519" y2="5.2079"/><linearGradient id="d" gradientUnits="userSpaceOnUse" x1="-.78021" x2="15.8102" xlink:href="#a" y1="24.1907" y2="4.41907"/><linearGradient id="e" gradientUnits="userSpaceOnUse" x1=".232635" x2="16.7824" xlink:href="#a" y1="25.0783" y2="5.355"/><linearGradient id="f" gradientUnits="userSpaceOnUse" x1="-.429278" x2="16.0841" xlink:href="#a" y1="24.5518" y2="4.87179"/><linearGradient id="g" gradientUnits="userSpaceOnUse" x1=".712768" x2="17.1841" xlink:href="#a" y1="25.5359" y2="5.9061"/><linearGradient id="h" gradientUnits="userSpaceOnUse" x1="1.79467" x2="18.1493" xlink:href="#a" y1="26.4498" y2="6.95897"/><linearGradient id="i" gradientUnits="userSpaceOnUse" x1="2.40827" x2="18.7086" xlink:href="#a" y1="26.9688" y2="7.54281"/><linearGradient id="j" gradientUnits="userSpaceOnUse" x1="4.01917" x2="20.2703" xlink:href="#a" y1="28.3314" y2="8.96422"/><linearGradient id="k" gradientUnits="userSpaceOnUse" x1="6.0595" x2="22.2603" xlink:href="#a" y1="30.0463" y2="10.739"/><linearGradient id="l" gradientUnits="userSpaceOnUse" x1="7.70924" x2="23.8563" xlink:href="#a" y1="31.4379" y2="12.1946"/><linearGradient id="m" gradientUnits="userSpaceOnUse" x1="10.0265" x2="26.1192" xlink:href="#a" y1="33.3886" y2="14.21"/><linearGradient id="n" gradientUnits="userSpaceOnUse" x1="10.8941" x2="26.9042" xlink:href="#a" y1="34.0981" y2="15.018"/><linearGradient id="o" gradientUnits="userSpaceOnUse" x1="13.2082" x2="29.1146" xlink:href="#a" y1="36.0324" y2="17.0759"/><linearGradient id="p" gradientUnits="userSpaceOnUse" x1="13.3618" x2="29.1374" xlink:href="#a" y1="36.1389" y2="17.3382"/><linearGradient id="q" gradientUnits="userSpaceOnUse" x1=".390627" x2="16.805" xlink:href="#a" y1="25.27" y2="5.70802"/><path d="m.326218 19.3637-.187421.5199c-.160463.4352-.1822858 1.2131-.0629011 1.6277l.9614941 4.9706c.07574.4313.21181.611.35559.5853.15661-.0398.13992-.3671.04878-1.1168l-.725294-6.588c-.051349-.4146-.233635-.4223-.390248.0013z" fill="url(#b)"/><path d="m2.36348 24.5858c.01798.4288.06419.9423-.08215.9795-.13608.0282-.21952-.1387-.29012-.6919l-.31194-2.9346c-.0552-.421.01669-1.3119.1733-1.6239.15918-.3119.30552-.2323.32221.1862z" fill="url(#c)"/><path d="m3.67027 14.7103-.37484 8.5508c-.00642.3889-.03209.8844-.17715.8511-.08087-.0193-.17844-.2452-.18614-.6355l-.16431-7.0193c-.01027-.3492.12323-.9255.31065-1.2747l.25803-.4852c.18742-.3402.36329-.3351.33376.0128z" fill="url(#d)"/><path d="m4.95398 16.4587-.58152 6.5212c-.05905.4609-.12709.9345-.26316.9281-.09243-.0025-.1733-.2901-.12709-.7214l.24134-5.5983c.04108-.4043.31322-1.0115.48652-1.3222.17587-.3029.30809-.1643.24391.1926z" fill="url(#e)"/><path d="m5.17474 22.5178c-.11168-.0142-.11681-.4763-.08601-.7908l.914-9.0258c.05007-.3337.29269-.8472.53403-1.1437l.08729-.1079c.25032-.3016.43389-.2734.36585.0514l-1.54044 10.2363c-.07959.4416-.13736.7805-.27472.7805z" fill="url(#f)"/><path d="m7.89883 12.9952c.20154-.2285.5353-.0988.46342.2247l-1.99873 9.1182c-.07189.326-.21438.8292-.36329.8125-.12324-.0089-.11425-.4878-.02568-.8754l1.43775-8.2453c.07061-.3325.28114-.8113.48653-1.0347z" fill="url(#g)"/><path d="m8.10293 22.2328c-.14506.3145-.32349.7663-.52632.6803-.14634-.0577.14763-.7702.14763-.7702l4.95636-12.0887c.1592-.35169.5135-.80227.8999-.61356.3453.16688-.0257.84726-.1617 1.15406-3.0052 6.7561-3.86143 8.5007-5.31587 11.6381z" fill="url(#h)"/><path d="m9.21717 21.6371c.1181.0899.39667-.2413.61362-.6174l9.07321-15.1131c.1605-.27215.2529-.70989-.0731-.87293-.2542-.12708-.6932.12067-.9012.4891l-8.43268 15.22343c-.24775.4583-.3941.7998-.27985.8909z" fill="url(#i)"/><path d="m9.4264 23.2661c-.1181-.1168.08344-.4904.32606-.8665l9.68944-14.06299c.2619-.39795.8395-.83826 1.1938-.63286.321.18613.3261.58665.0552.96278l-10.5764 14.00007c-.26191.3774-.56486.724-.6881.5995z" fill="url(#j)"/><path d="m12.2929 21.6358s-.6405.6701-.7741.5199c-.1386-.145.122-.4261.4044-.7869l.3171-.3825 13.5405-15.53029c.2183-.26701.5161-.27985.8023-.06804l.4095.5045c.2234.25417.208.69449-.0385.94096z" fill="url(#k)"/><path d="m11.1954 24.1263c-.1053-.1053.1297-.4185.5597-.7972l14.3762-13.2106c.2581-.26574.6188-.25676.8511-.0334.3017.2876.4044.5546.4532.8087.0809.4172-.1515.6021-.4468.8665l-14.9731 11.9218c-.3697.3261-.6983.5572-.8203.4442z" fill="url(#l)"/><path d="m14.1748 22.9439 16.7267-11.9538c.3197-.2516.6111-.1939.6919.1219l.3877 1.3389c.0886.3312-.145.7741-.4865 1.0141l-17.0322 9.8692c-.4185.267-.8537.5019-.9615.3543-.1322-.1836.2888-.4313.6739-.7446z" fill="url(#m)"/><path d="m12.3943 25.4536c-.05-.1951.3916-.3774.8588-.6175l14.968-7.5469c.4057-.2221.7253-.1091.7228.2414l.068 1.6624c-.0064.3633-.389.81-.8537.9961l-14.7536 5.1336c-.5173.2002-.9666.317-1.0103.1309z" fill="url(#n)"/><path d="m29.9349 24.0223-14.4532 2.068c-.5662.0873-.9821.1785-1.0257.0129-.0488-.2003.4339-.3223.9628-.5007l14.9949-4.5533c.4827-.1605.8614.0154.8165.389l-.2131 1.7163c-.0462.3954-.5276.7882-1.0822.8678z" fill="url(#o)"/><path d="m13.4906 27.4934c-.0398-.2131.6791-.3338 1.2349-.3916l12.7832-1.4993c.5712-.0578 1.0398.2464.8536.7419l-.2593.674c-.1527.4313-.6226.7317-1.2156.6919l-12.253.0051c-.5366.0077-1.1027-.0089-1.1438-.222z" fill="url(#p)"/><path d="m11.7216 8.53692s-3.70216 11.37488-3.91526 11.98728c-.22721.6559-.44801 1.24-.64185 1.19-.12452-.0373-.02696-.4545.11168-.9577l3.50453-12.34153c.1669-.49808.6881-.92812.8922-.88704.3684.0706.1566.69448.0487 1.00899z" fill="url(#q)"/></svg>