<svg fill="none" height="32" viewBox="0 0 32 32" width="32" xmlns="http://www.w3.org/2000/svg" xmlns:xlink="http://www.w3.org/1999/xlink"><clipPath id="a"><path d="m0 0h32v32h-32z"/></clipPath><g clip-path="url(#a)"><path d="m12.4169 12.618c.949.36 1.898.744 2.82 1.18-2.95 1.1499-5.80537 2.5291-8.53997 4.125-.92755-.4699-1.86791-.9141-2.82-1.332 2.74039-1.5417 5.59551-2.87 8.53997-3.973zm-3.53197-1.204c-3.04972.9473-6.00557 2.1738-8.8299984 3.664.8970004.333 1.7929984.667 2.6629984 1.026 2.72475-1.5682 5.59312-2.8725 8.56597-3.895-.791-.282-1.58197-.564-2.39897-.795z" fill="#0067b1"/><path d="m18.8221 12.49c-2.424-1.1254-4.9254-2.0758-7.485-2.84401-.923.256-1.82002.53801-2.68902.82001 2.63482.7691 5.20752 1.7369 7.69602 2.895.8205-.3054 1.6466-.5954 2.478-.87zm3.927-1.127c-2.4722-1.055-5.018-1.92866-7.617-2.61401-.8317.15208-1.6582.33151-2.478.538 2.5811.73511 5.1013 1.66921 7.538 2.79401.8454-.2632 1.6981-.5026 2.557-.718zm-10.912 10.583c1.3089.7825 2.5841 1.6203 3.822 2.511 5.0088-3.8551 10.5139-7.0182 16.367-9.404-.9642-.5816-1.9488-1.1287-2.952-1.64-6.1251 2.003-11.9303 4.8768-17.237 8.533zm12.967-10.48c-6.3606 1.6213-12.4141 4.2695-17.92202 7.84 1.22159.5874 2.42545 1.211 3.61002 1.87 5.4118-3.6355 11.3501-6.4179 17.607-8.25-1.08-.512-2.16-1.025-3.295-1.46z" fill="#ee2a24"/></g></svg>