<svg fill="none" height="32" viewBox="0 0 32 32" width="32" xmlns="http://www.w3.org/2000/svg"><path d="m23.5374 11.6449v2.511h.2672c.1069-1.2716.8461-2.0564 1.5935-2.0564l1.2555.0037v8.3183c.0616.7047-.5665.9661-1.3328.9608l.0029.2643h4.976l-.0013-.2668c-.7893-.0888-1.4384-.0686-1.4298-.823l.0025-8.4536h1.1642c.7478 0 1.6736.6434 1.6736 2.0527h.2911v-2.511zm-3.7004 1.4849c-.0041-.3832.2923-.8276.812-.8276.897 0 1.0656.9447.8423 1.4093-.3778.7872-.9184.9813-.9344.95-.3059-.5056-.7145-1.0627-.7199-1.5317zm-1.394 5.8056c-.6882-1.3044-.1788-2.2364.4904-2.8033 0 0 1.3176 2.6656 2.6957 4.044-.5361.4752-2.1596.7046-3.1861-1.2407zm-6.9863-2.2212h.5525c1.4397-.1225 1.961.9192 2.037 2.0049.0925 1.3082-.4312 2.4363-1.7533 2.4363-.592 0-.8354-.2138-.8354-.8815zm4.8416 3.1865c.4078.8325 1.4281 2.0707 3.1252 2.0987.934.0152 1.8027-.2344 2.8337-1.2103.3676.3214.8888.8575 1.6851.9036.2241.0131.9102-.1172 1.4706-.8268.4723-.5985.5693-1.0577.5825-1.0729l-.2454-.1838c-.1583.3256-.421.5669-.7507.5669-.6204 0-.6549-.2409-1.3789-.9649.7203-1.0569.6804-1.6012 1.0726-2.1599.398-.5669.7355-.8884 1.4093-.9118v-.2833h-2.4888v.252c.4974-.0374.5767.3548.5126.6825-.1299.6668-.8267 2.0279-.9188 1.9301-1.057-1.1182-2.3593-3.5536-2.3593-3.5536.9496-.5209 1.3328-1.6087 1.3328-1.8845 0-.9439-.4962-1.7382-1.8837-1.9145-.8432-.1073-2.4362.5973-2.4667 2.0678-.0139.666.398 1.3328.8272 2.16-1.1211.4415-2.0009 1.3122-2.3729 2.4411-.4391-1.0376-1.6469-1.4524-2.435-1.6645h.0317c.5915-.1928 2.3864-.5517 2.3096-2.2212-.1008-2.192-2.9049-2.5682-3.9035-2.5004h-4.35523v.2845c.64831.0444 1.28265-.125 1.28265.9538l.00246 7.4948c0 .9045-.49003.9151-1.27935 1.0039l-.0037.2586h4.53817c2.4518.0243 3.4825-.6742 3.8258-1.7459zm-16.2983 1.7459h4.53531c3.154-.1073 4.04239-1.1527 4.04239-2.7737 0-1.6909-1.4808-2.2093-2.45881-2.4728.54389-.1073 2.15994-.7507 2.13692-2.2779-.03289-2.1937-2.89952-2.5386-3.89851-2.4708h-4.35524447v.2849c.64831247.0444 1.28305447-.1258 1.28305447.9538l-.00287 7.4648c0 .9045-.492919.9443-1.28224 1.0331zm3.52235-4.9476h.55211c1.27484-.0317 2.014.6894 2.09828 1.9914.0851 1.3184-.45222 2.4201-1.81503 2.4358-.59158.007-.83536-.2138-.83536-.881zm.64749-4.514c1.40022.0946 1.76939 1.3037 1.77022 1.7489.00287 1.3406-.4181 2.3667-2.40785 2.3059v-4.0548c.01727 0 .48264-.0102.63763 0zm7.93556.005c1.4006.0945 1.7698 1.3036 1.7702 1.7488.0029 1.3406-.4185 2.3668-2.4078 2.3059v-4.0547c.0172 0 .4826-.0103.6376 0z" fill="#8a0025"/></svg>