<svg fill="none" height="32" viewBox="0 0 32 32" width="32" xmlns="http://www.w3.org/2000/svg" xmlns:xlink="http://www.w3.org/1999/xlink"><clipPath id="a"><path d="m0 0h32v32h-32z"/></clipPath><g clip-path="url(#a)"><path d="m0 32h32v-32h-32z" fill="#b31e30"/><path d="m11.5331 10.0722v1.5725h.3596c.4539 0 .6598-.2207.6598-.8383v-.0967h.5283v2.4405h-.5283v-.1042c0-.6126-.2059-.8457-.6598-.8457h-.3596v1.7585h1.508c.687 0 .935-.4539 1.0169-1.322h.5481v1.8825h-4.95302v-.5605h.41912c.2605 0 .3994-.072.3994-.5258v-2.9342c0-.3274-.1489-.4266-.49857-.4266h-.15377c-.35964 0-.53077.0844-.65727.4589l-1.3666 3.9882h-1.03922l-.7912-2.5993h-.01486l-.87801 2.5993h-1.05162l-1.41869-4.1792c-.06203-.2059-.16866-.2679-.45636-.2679h-.10417v-.55801h2.18757v.55801h-.31747c-.16618 0-.23315.0992-.23315.1985 0 .0744.0273.1686.06697.2728l.94745 2.7927h.01486l.90281-2.6265-.1265-.3572c-.07688-.2232-.22817-.2803-.44892-.2803h-.17857v-.55801h2.25949v.55801h-.39932c-.15377 0-.2133.067-.2133.1662 0 .0769.03721.1836.06204.2555l.82839 2.7927h.01486l.96233-2.7282c.02978-.0893.05702-.1637.05702-.258 0-.119-.05702-.2282-.32243-.2282h-.36459v-.55801h6.8653v1.71131h-.563c-.1141-.7242-.1786-1.1533-1.1831-1.1533zm8.2269 4.4471v-1.8825h-.5779c-.0768.8606-.2331 1.322-1.0168 1.322h-1.1385v-3.5393c0-.2778.1141-.3473.4465-.3473h.4241v-.55801h-2.7655v.55801h.4365c.3026 0 .4043.0992.4043.3274v3.2243c0 .2629-.1438.3349-.3571.3349h-.4837v.5605zm5.1366 0v-1.8825h-.5804c-.0769.8606-.2381 1.322-1.0119 1.322h-1.1409v-3.5393c0-.2778.1141-.3473.4464-.3473h.4217v-.55801h-2.768v.55801h.439c.3051 0 .4068.0992.4068.3274v3.2243c0 .2629-.1463.3349-.3572.3349h-.4886v.5605zm3.8096-4.62812c-.0471-.04712-.5084-.52581-1.4087-.52581-.945 0-1.8999.47869-1.8999 1.50553 0 .9301.7416 1.3542 1.5948 1.5377.2828.0595.4514.0918.7094.1464.6399.1364 1.0665.3298 1.0665.7738 0 .3373-.3572.6994-1.0641.6994-.9871 0-1.5724-.5506-1.694-1.3914h-.5803v1.8825h.5134l.1661-.4489c.1216.1066.6027.5977 1.5179.5977 1.1658 0 2.0462-.5184 2.0462-1.5427 0-.9921-.8209-1.4187-1.8229-1.6196-.1786-.0446-.3423-.0719-.5258-.1141-.6226-.1339-1.0219-.2877-1.0219-.7341 0-.3869.4092-.6523 1.0243-.6523.9252 0 1.2823.5878 1.4733 1.2202h.563v-1.71131h-.4067zm-22.97189 12.43092v-.563h-.377c-.34971 0-.47868-.1042-.47868-.3869v-1.3641h.31003c.46876 0 .67214.2033.67214.7341v.1662h.52581v-2.3042h-.52581v.0993c0 .3893-.14138.7465-.6275.7465h-.35467v-1.5774h.98465c1.10867 0 1.22523.558 1.29964 1.1508h.54069v-1.7089h-4.73724v.5581h.501c.22571 0 .3522.1017.3522.2827v3.2342c0 .2109-.11409.3696-.38196.3696h-.47124v.563zm20.96049-5.1589c-1.6419 0-2.7283 1.1484-2.7283 2.6539 0 1.503 1.0864 2.6613 2.7283 2.6613 1.6369 0 2.7258-1.1583 2.7258-2.6613 0-1.5055-1.0889-2.6539-2.7258-2.6539zm0 .5903c1.1855 0 1.5402.9847 1.5402 2.0636s-.3547 2.066-1.5402 2.066c-1.193 0-1.5452-.9871-1.5452-2.066s.3522-2.0636 1.5452-2.0636zm-4.6182-.0297c-.1091-.0968-.5779-.5606-1.503-.5606-1.4807 0-2.4108 1.1285-2.4108 2.6539 0 1.5377.9449 2.6613 2.4108 2.6613.9424 0 1.4534-.4316 1.5699-.5382l.2803.3819h.5134v-1.7361c0-.2952.1092-.3746.4018-.3746h.1389v-.5605h-2.3116v.5605h.3423c.248 0 .3993.1116.3993.3547v.2927c0 .5729-.3522.9722-1.1186.9722-.9598 0-1.441-.8631-1.441-2.0139 0-1.1335.4812-2.0016 1.4113-2.0016.9697 0 1.2996.9028 1.4112 1.2079h.6201v-1.7089h-.5283zm-4.1643 3.4227v.1364c0 .8631-.4118 1.1955-1.0368 1.1955-.7316 0-.9772-.3522-.9772-1.0343v-.2604c0-.8607-.3671-1.2079-1.2054-1.2079h-.3968v1.513c0 .2009.0918.2703.31.2703h.5506v.563h-5.0001v-.563h.5555c.1538 0 .2109-.0372.2109-.1265 0-.0471-.0149-.124-.0447-.2058-.0273-.067-.2629-.7119-.2629-.7119h-1.78575s-.22073.5953-.25794.6945c-.02483.0744-.04464.1364-.04464.2083 0 .1067.08929.1414.23811.1414h.53077v.563h-2.35623v-.563c.39932 0 .6523-.057.79368-.4068l1.59727-4.0378h.95983l1.637 4.0378c.1364.3547.3943.4068.7937.4068h.2033c.2158 0 .3125-.0694.3125-.2703v-3.3434c0-.2009-.0769-.2728-.3125-.2728h-.5258v-.5581h3.2888c1.0913 0 1.6047.5159 1.6047 1.2972 0 .9698-.9648 1.1607-1.4162 1.1855v.0124c.5283.0397.9747.258.9747 1.0293v.2927c0 .5134.1092.6275.2902.6275.1786 0 .2729-.1414.2729-.4762v-.1364zm-7.5027-.9871-.67467-1.823h-.02229l-.67462 1.823zm5.831-1.5155c0-.439-.315-.7713-1.0144-.7713h-.9301v1.5452h.9301c.6448 0 1.0144-.2902 1.0144-.7739z" fill="#ffcc02"/></g></svg>