<svg width="79" height="78" viewBox="0 0 79 78" fill="none" xmlns="http://www.w3.org/2000/svg">
<rect x="0.791748" width="78" height="78" rx="8" fill="white" fill-opacity="0.54"/>
<path fill-rule="evenodd" clip-rule="evenodd" d="M9.44653 11.6485V48.7904C9.44653 50.8064 11.1001 52.4391 13.1421 52.4391H35.538L45.3144 38.8353C45.7805 38.1863 46.9459 38.1863 47.4121 38.8353L50.8348 43.5991L50.8614 43.6362L50.8846 43.6034L58.2253 33.1986C58.7329 32.4781 60.0048 32.4781 60.5124 33.1986L70.2343 46.9802V48.7947V11.6485C70.2343 9.63249 68.5762 8 66.5386 8H13.1421C11.1001 8 9.44653 9.63249 9.44653 11.6485Z" fill="#0C6CF2"/>
<path d="M26.5889 36.3368C21.3033 36.3368 17.0186 32.1538 17.0186 26.9939C17.0186 21.8341 21.3033 17.6511 26.5889 17.6511C31.8745 17.6511 36.1594 21.8341 36.1594 26.9939C36.1594 32.1538 31.8745 36.3368 26.5889 36.3368Z" fill="white"/>
<path d="M39.7777 59.9913H10.9506C9.76527 59.9913 8.79175 59.2 8.79175 58.2368C8.79175 57.2621 9.76527 56.4707 10.9506 56.4707H39.7777C40.977 56.4707 41.9505 57.2621 41.9505 58.2368C41.9505 59.2 40.977 59.9913 39.7777 59.9913ZM68.6187 59.9916H47.764C46.5647 59.9916 45.591 59.2002 45.591 58.2255C45.591 57.2508 46.5647 56.4595 47.764 56.4595H68.6187C69.8182 56.4595 70.7917 57.2508 70.7917 58.2255C70.7917 59.2002 69.8182 59.9916 68.6187 59.9916ZM23.1982 67.732H10.9506C9.76527 67.732 8.79175 66.9408 8.79175 65.9774C8.79175 65.0027 9.76527 64.2114 10.9506 64.2114H23.1982C24.3975 64.2114 25.3712 65.0027 25.3712 65.9774C25.3712 66.9408 24.3975 67.732 23.1982 67.732ZM68.6187 67.7322H30.479C29.2796 67.7322 28.3061 66.941 28.3061 65.9663C28.3061 64.9916 29.2796 64.2002 30.479 64.2002H68.6187C69.8182 64.2002 70.7917 64.9916 70.7917 65.9663C70.7917 66.941 69.8182 67.7322 68.6187 67.7322Z" fill="#65A5FF"/>
</svg>
