<svg width="208" height="140" viewBox="0 0 208 140" fill="none" xmlns="http://www.w3.org/2000/svg">
<path d="M115.185 3.0799H92.5298C84.5302 3.0799 78.0452 9.56491 78.0452 17.5646V40.2193C78.0452 48.219 84.5302 54.704 92.5298 54.704H115.185C123.184 54.704 129.669 48.219 129.669 40.2193V17.5646C129.669 9.56491 123.184 3.0799 115.185 3.0799Z" fill="#DFE3EB" stroke="#F0F2F7" stroke-linecap="round" stroke-linejoin="round"/>
<path d="M95.5516 18.5711C95.7539 18.7712 95.8922 19.027 95.9489 19.3059C96.0056 19.5847 95.9781 19.8742 95.8699 20.1374C95.7617 20.4007 95.5778 20.6258 95.3414 20.7842C95.1049 20.9427 94.8268 21.0273 94.5422 21.0273C94.2576 21.0273 93.9794 20.9427 93.743 20.7842C93.5066 20.6258 93.3226 20.4007 93.2144 20.1374C93.1063 19.8742 93.0788 19.5847 93.1355 19.3059C93.1921 19.027 93.3304 18.7712 93.5328 18.5711C93.8026 18.3034 94.1672 18.1531 94.5473 18.1531C94.9274 18.1531 95.292 18.3034 95.5618 18.5711M129.669 23.4723C125.749 22.8721 121.745 23.1301 117.934 24.2285C114.123 25.3269 110.596 27.2394 107.596 29.8341C104.597 32.4288 102.196 35.6437 100.56 39.2567C98.9246 42.8698 98.0927 46.7949 98.122 50.7608C98.1299 52.0812 98.2352 53.3995 98.4367 54.7049" stroke="white" stroke-width="7.24214" stroke-linecap="round" stroke-linejoin="round"/>
<path d="M194.979 53.7603L175.359 42.433C168.431 38.4331 159.573 40.8068 155.573 47.7347L144.245 67.3543C140.246 74.2822 142.619 83.1409 149.547 87.1407L169.167 98.4681C176.095 102.468 184.953 100.094 188.953 93.1664L200.281 73.5468C204.28 66.6189 201.907 57.7602 194.979 53.7603Z" fill="#DFE3EB" stroke="#F0F2F7" stroke-linecap="round" stroke-linejoin="round"/>
<path d="M170.231 57.359C170.287 57.5643 170.297 57.7795 170.26 57.9891C170.223 58.1987 170.14 58.3975 170.016 58.571C169.893 58.7445 169.733 58.8884 169.547 58.9923C169.361 59.0962 169.155 59.1574 168.942 59.1716C168.73 59.1858 168.517 59.1526 168.319 59.0744C168.121 58.9962 167.943 58.8749 167.798 58.7194C167.652 58.5639 167.543 58.378 167.479 58.1751C167.414 57.9723 167.395 57.7577 167.424 57.5467C167.462 57.2648 167.583 57.0005 167.771 56.7874C167.96 56.5743 168.207 56.422 168.482 56.3498C168.85 56.253 169.241 56.3053 169.57 56.4953C169.899 56.6853 170.139 56.9976 170.239 57.3642M197.327 78.6627C194.232 76.1829 190.635 74.4045 186.786 73.4503C182.936 72.4962 178.925 72.389 175.03 73.1362C171.135 73.8835 167.449 75.4673 164.226 77.7783C161.003 80.0893 158.32 83.0724 156.362 86.5216C155.709 87.6693 155.141 88.8635 154.663 90.0946" stroke="white" stroke-width="7.24214" stroke-linecap="round" stroke-linejoin="round"/>
<path d="M32.6407 43.355L13.0211 54.6824C6.09323 58.6822 3.71956 67.5409 7.71939 74.4688L19.0468 94.0884C23.0466 101.016 31.9053 103.39 38.8332 99.3902L58.4528 88.0628C65.3807 84.063 67.7544 75.2043 63.7546 68.2763L52.4272 48.6568C48.4273 41.7288 39.5687 39.3552 32.6407 43.355Z" fill="#DFE3EB" stroke="#F0F2F7" stroke-linecap="round" stroke-linejoin="round"/>
<path d="M23.3833 66.5872C23.6585 66.6593 23.9061 66.8115 24.0946 67.0247C24.283 67.2378 24.4039 67.5021 24.4419 67.7841C24.4798 68.0661 24.433 68.353 24.3076 68.6083C24.1821 68.8637 23.9835 69.0759 23.7372 69.2182C23.4908 69.3605 23.2076 69.4263 22.9238 69.4073C22.6399 69.3883 22.3681 69.2854 22.1428 69.1115C21.9176 68.9377 21.7491 68.7009 21.6587 68.4311C21.5684 68.1613 21.5603 67.8707 21.6354 67.5963C21.7353 67.2297 21.9759 66.9174 22.305 66.7274C22.6341 66.5374 23.0249 66.4851 23.3923 66.582M55.3814 53.7726C51.6862 55.2132 48.3478 57.4387 45.5966 60.2954C42.8455 63.1521 40.7471 66.5719 39.4466 70.3187C38.1463 74.0655 37.6748 78.0499 38.0647 81.9968C38.4545 85.9436 39.6965 89.7588 41.7047 93.1789C42.3721 94.3185 43.1224 95.4075 43.9495 96.4371" stroke="white" stroke-width="7.24214" stroke-linecap="round" stroke-linejoin="round"/>
<path d="M102.345 133.856C124.437 133.856 142.345 115.948 142.345 93.8564C142.345 71.7651 124.437 53.8564 102.345 53.8564C80.2538 53.8564 62.3452 71.7651 62.3452 93.8564C62.3452 115.948 80.2538 133.856 102.345 133.856Z" fill="#0C6CF2"/>
<path d="M100.134 107.798C101.401 108.933 103.319 108.932 104.585 107.796L117.902 95.8425C119.272 94.6128 119.386 92.5053 118.156 91.1353C116.926 89.7653 114.819 89.6516 113.449 90.8813L105.692 97.8442L105.692 73.8596C105.692 72.0186 104.199 70.5262 102.358 70.5262C100.517 70.5262 99.025 72.0186 99.025 73.8596L99.025 97.8544L91.2379 90.879C89.8667 89.6507 87.7593 89.7666 86.531 91.1378C85.3027 92.5091 85.4185 94.6164 86.7898 95.8448L100.134 107.798Z" fill="white"/>
<path d="M89.012 110.52C87.1711 110.52 85.6787 112.012 85.6787 113.853C85.6787 115.694 87.1711 117.187 89.012 117.187H115.679C117.52 117.187 119.012 115.694 119.012 113.853C119.012 112.012 117.52 110.52 115.679 110.52H89.012Z" fill="white"/>
</svg>
