<svg fill="none" height="140" viewBox="0 0 200 140" width="200" xmlns="http://www.w3.org/2000/svg"><rect fill="#fff" height="139" rx="7.5" width="199" x=".5" y=".5"/><path clip-rule="evenodd" d="m71.7327 40.08v34.9726c0 1.8983 1.538 3.4355 3.4377 3.4355h20.8325l9.0941-12.8093c.434-.6109 1.517-.6109 1.951 0l3.184 4.4856.024.0349.022-.031 6.828-9.7969c.472-.6786 1.656-.6786 2.128 0l9.042 12.9763v-33.2677c0-1.8983-1.542-3.4356-3.437-3.4356h-49.6686c-1.8997 0-3.4377 1.5373-3.4377 3.4356z" fill="#0c6cf2" fill-rule="evenodd"/><path d="m87.6789 60.4638c-3.317 0-6.006-2.6573-6.006-5.9352 0-3.2778 2.689-5.9348 6.006-5.9348 3.3171 0 6.0058 2.657 6.0058 5.9348 0 3.2779-2.6887 5.9352-6.0058 5.9352z" fill="#fff"/><g fill="#dfe3eb"><path d="m9.8029 9.05635c.5919 0 1.1595-.23234 1.578-.64591s.6536-.97449.6536-1.55936c0-.58488-.2351-1.14579-.6536-1.55936s-.9861-.64591-1.578-.64591c-.59186 0-1.15948.23234-1.57799.64591s-.65362.97448-.65362 1.55936c0 .58487.23511 1.14579.65362 1.55936s.98613.64591 1.57799.64591zm9.2988 0c.2953.00339.5883-.05116.8621-.16049.2737-.10932.5229-.27125.7329-.47639.21-.20515.3767-.44943.4905-.7187.1137-.26928.1723-.55819.1723-.84999 0-.29181-.0586-.58071-.1725-.84997-.1138-.26926-.2805-.51352-.4906-.71864-.21-.20511-.4591-.36701-.7329-.47629-.2738-.10929-.5668-.1638-.8621-.16037-.5874.00681-1.1484.24219-1.5613.65507-.4129.41289-.6445.97-.6444 1.5505 0 .58049.2316 1.13757.6446 1.5504.413.41284.974.64814 1.5614.65487zm8.9267 0c.5919 0 1.1595-.23234 1.578-.64591s.6536-.97449.6536-1.55936c0-.58488-.2351-1.14579-.6536-1.55936s-.9861-.64591-1.578-.64591c-.5918 0-1.1594.23234-1.578.64591-.4185.41357-.6536.97448-.6536 1.55936 0 .58487.2351 1.14579.6536 1.55936.4186.41357.9862.64591 1.578.64591z"/><path d="m169.605 85.9043h-139.5137c-2.0144 0-3.6475 1.6137-3.6475 3.6044 0 1.9906 1.6331 3.6043 3.6475 3.6043h139.5137c2.014 0 3.647-1.6137 3.647-3.6043 0-1.9907-1.633-3.6044-3.647-3.6044z"/><path d="m169.605 18.3224h-3.648c-2.014 0-3.647 1.6137-3.647 3.6043 0 1.9907 1.633 3.6044 3.647 3.6044h3.648c2.014 0 3.647-1.6137 3.647-3.6044 0-1.9906-1.633-3.6043-3.647-3.6043z"/><path d="m154.407 18.3224h-3.647c-2.014 0-3.647 1.6137-3.647 3.6043 0 1.9907 1.633 3.6044 3.647 3.6044h3.647c2.015 0 3.648-1.6137 3.648-3.6044 0-1.9906-1.633-3.6043-3.648-3.6043z"/><path d="m139.21 18.3224h-3.648c-2.014 0-3.647 1.6137-3.647 3.6043 0 1.9907 1.633 3.6044 3.647 3.6044h3.648c2.014 0 3.647-1.6137 3.647-3.6044 0-1.9906-1.633-3.6043-3.647-3.6043z"/><path d="m124.012 18.3224h-3.647c-2.014 0-3.647 1.6137-3.647 3.6043 0 1.9907 1.633 3.6044 3.647 3.6044h3.647c2.015 0 3.648-1.6137 3.648-3.6044 0-1.9906-1.633-3.6043-3.648-3.6043z"/><path d="m48.9362 18.3224h-18.8449c-2.0144 0-3.6475 1.6137-3.6475 3.6043 0 1.9907 1.6331 3.6044 3.6475 3.6044h18.8449c2.0145 0 3.6475-1.6137 3.6475-3.6044 0-1.9906-1.633-3.6043-3.6475-3.6043z"/><path d="m169.605 98.8199h-139.5137c-2.0144 0-3.6475 1.6141-3.6475 3.6041 0 1.991 1.6331 3.605 3.6475 3.605h139.5137c2.014 0 3.647-1.614 3.647-3.605 0-1.99-1.633-3.6041-3.647-3.6041z"/></g><path d="m124.012 114.439h-48.328c-4.3646 0-7.9028 3.496-7.9028 7.809s3.5382 7.81 7.9028 7.81h48.328c4.365 0 7.903-3.497 7.903-7.81s-3.538-7.809-7.903-7.809z" fill="#0c6cf2"/><rect height="139" rx="7.5" stroke="#f0f2f7" width="199" x=".5" y=".5"/></svg>