<?xml version="1.0" encoding="UTF-8"?>
<svg width="75px" height="106px" viewBox="0 0 75 106" version="1.1" xmlns="http://www.w3.org/2000/svg" xmlns:xlink="http://www.w3.org/1999/xlink">
    <!-- Generator: Sketch 52.2 (67145) - http://www.bohemiancoding.com/sketch -->
    <title>Slice</title>
    <desc>Created with Sketch.</desc>
    <g id="Web-App---V2---RC" stroke="none" stroke-width="1" fill="none" fill-rule="evenodd">
        <ellipse id="Oval-5" stroke="#473BCB" stroke-width="2" fill="#473BCB" fill-rule="nonzero" cx="31.8427673" cy="76.5" rx="24.509434" ry="24.5"></ellipse>
        <g id="Group-16" transform="translate(24.333333, 61.000000)" fill="#FFFFFF">
            <polygon id="Fill-1" points="7.8692833 0 2.88291685 10.1705073 1 14.0109789 3.20291223 15.6109358 7.8692833 19 12.5338216 15.6109358 14.7358491 14.0109789 12.8536695 10.1705073"></polygon>
            <polygon id="Fill-2-Copy" points="2.25526825 18.9654338 7.9165514 28.9198036 13.5800924 18.9654338 15.8299709 15.0109387 15.8331028 15.0054845 15.8362104 15.0000303 15.8362104 15 15.8331028 15.0023029 15.8299709 15.0045755 10.456332 18.9654338 7.9165514 20.8374611 5.37776621 18.9654338 3.55271368e-14 15"></polygon>
        </g>
        <circle id="Oval-5" stroke="#FF9B22" stroke-width="2" fill="#FF9B22" fill-rule="nonzero" cx="55.3333333" cy="19" r="15"></circle>
        <path d="M64.6213657,16.1124218 C64.9820284,13.7306961 63.1464418,12.4503368 60.6365235,11.5962046 L61.4507041,8.3698558 L59.4628125,7.88042182 L58.6701471,11.021749 C58.1475541,10.8930977 57.6108064,10.7717181 57.0774558,10.6514572 L57.8757831,7.48943398 L55.8890239,7 L55.0742771,10.2252301 C54.6417083,10.1279027 54.2170661,10.0316939 53.8048801,9.93045102 L53.8071449,9.92038266 L51.065655,9.24412474 L50.5368339,11.341699 C50.5368339,11.341699 52.0117578,11.6756328 51.9806173,11.6963288 C52.7857389,11.8948992 52.9312496,12.4212505 52.9069035,12.8385279 L51.9794849,16.5140373 C52.0349715,16.5280211 52.1068776,16.5481578 52.1861441,16.5794816 C52.1199,16.5632604 52.0491263,16.5453611 51.9760878,16.5280211 L50.6761166,21.6768666 C50.5775996,21.9185072 50.32791,22.280968 49.7651175,22.1433671 C49.7849342,22.1718942 48.3202018,21.7870592 48.3202018,21.7870592 L47.3333333,24.0350994 L49.9202535,24.6722026 C50.4015146,24.7913448 50.8731505,24.9160806 51.337426,25.0335447 L50.5147525,28.2968109 L52.5003794,28.7862448 L53.3151261,25.5576586 C53.8575357,25.7030904 54.3840921,25.8373352 54.8993246,25.963749 L54.0874087,29.1772327 L56.0753003,29.6666667 L56.8979737,26.4095534 C60.2877507,27.0433005 62.8367361,26.7876761 63.9096654,23.758779 C64.7742369,21.3199993 63.866635,19.9132262 62.0831378,18.9958871 C63.3819767,18.6999893 64.3603523,17.8559254 64.6213657,16.1124218 Z M60.0793929,22.4045851 C59.4650773,24.8433647 55.3086796,23.5249694 53.9611484,23.1943917 L55.0527619,18.8711514 C56.4002931,19.2034071 60.7214519,19.8612064 60.0793929,22.4045851 Z M60.6942748,16.0771825 C60.1337471,18.295577 56.6743289,17.1684805 55.5521411,16.89216 L56.5418405,12.9710946 C57.6640282,13.247415 61.2780163,13.7631386 60.6942748,16.0771825 Z" id="Shape" fill="#FFFFFF" fill-rule="nonzero"></path>
        <circle id="Oval-5" stroke="#3EDC89" stroke-width="2" fill="#3EDC89" fill-rule="nonzero" cx="20.3333333" cy="23" r="15"></circle>
        <path d="M28.3101961,21.0053036 C28.6682359,18.6120013 26.8459987,17.3254186 24.3543338,16.4671348 L25.1625933,13.2251039 L23.1891587,12.7332909 L22.402258,15.8898869 C21.8834656,15.7606104 21.3506214,15.6386407 20.8211497,15.5177953 L21.6136711,12.3404026 L19.6413607,11.8485897 L18.8325392,15.0894965 C18.4031162,14.9916959 17.9815622,14.8950196 17.5723739,14.7932846 L17.5746222,14.7831673 L14.8530699,14.1036223 L14.3280947,16.211392 C14.3280947,16.211392 15.7922921,16.546949 15.7613781,16.5677457 C16.5606444,16.7672812 16.7050969,17.2961909 16.6809278,17.7154965 L15.760254,21.4088712 C15.815337,21.422923 15.8867201,21.4431576 15.9654102,21.4746336 C15.8996478,21.4583336 15.8293888,21.4403473 15.7568815,21.422923 L14.4663644,26.5967952 C14.3685638,26.8396103 14.1206901,27.2038329 13.5619906,27.0655632 C13.5816631,27.0942289 12.127583,26.7075234 12.127583,26.7075234 L11.1478917,28.9664905 L13.7159983,29.6066904 C14.1937595,29.7264117 14.6619654,29.8517538 15.1228644,29.9697889 L14.3061739,33.2489165 L16.2773601,33.7407295 L17.0861817,30.4964503 C17.6246466,30.642589 18.1473735,30.7774862 18.6588589,30.9045145 L17.8528478,34.1336178 L19.8262823,34.6254307 L20.6429729,31.3524858 C24.0080975,31.9893133 26.5385454,31.7324465 27.6036717,28.6888269 C28.4619555,26.2381933 27.5609542,24.8245824 25.7904276,23.9027844 C27.0798207,23.6054484 28.051081,22.7572818 28.3101961,21.0053036 Z M23.8012551,27.3280508 C23.191407,29.7786844 19.0652369,28.4538809 17.7275057,28.1216964 L18.8111804,23.7774424 C20.1489116,24.1113131 24.4386446,24.7723097 23.8012551,27.3280508 Z M24.4116652,20.9698931 C23.855214,23.1990703 20.4209544,22.0664954 19.3069279,21.7888319 L20.2894296,17.8487076 C21.4034562,18.1263711 24.9911613,18.6446015 24.4116652,20.9698931 Z" id="Shape-Copy" fill="#FFFFFF" fill-rule="nonzero" transform="translate(19.751530, 23.237010) rotate(-33.000000) translate(-19.751530, -23.237010) "></path>
    </g>
</svg>