<svg fill="none" height="40" viewBox="0 0 76 40" width="76" xmlns="http://www.w3.org/2000/svg"><circle cx="56" cy="20" fill="#ecf5fe" r="20"/><g stroke="#0c6cf2"><path d="m64.25 9.5h-16.5c-1.2426 0-2.25 1.0074-2.25 2.25v16.5c0 1.2426 1.0074 2.25 2.25 2.25h16.5c1.2426 0 2.25-1.0074 2.25-2.25v-16.5c0-1.2426-1.0074-2.25-2.25-2.25z" fill="#fff" stroke-linecap="round" stroke-linejoin="round" stroke-width="2"/><path d="m64.25 13.25 2.25-.75v15c0 1.6569-1.3431 3-3 3h-15c-1.6569 0-3-1.3431-3-3v-.75l2.25-5.25 3 .75 5.25-6 5.25-.75z" fill="#0c6cf2" fill-opacity=".36" stroke-linecap="round" stroke-linejoin="round" stroke-width="2"/><path d="m56 20v10.5" stroke-linecap="round" stroke-width="2"/><path d="m50.75 24.5v6" stroke-linecap="round" stroke-width="2"/><path d="m56 9.5v3" stroke-linecap="round" stroke-width="2"/><path d="m61.25 18.5v12" stroke-linecap="round" stroke-width="2"/><path d="m56 17.75c.8284 0 1.5-.6716 1.5-1.5s-.6716-1.5-1.5-1.5-1.5.6716-1.5 1.5.6716 1.5 1.5 1.5z" fill="#fff" stroke-width="2"/></g><circle cx="20" cy="20" fill="#efecfe" r="20"/><path d="m10.001 24v-11c0-1.1046.8954-2 2-2h16c1.1045 0 1.9999.8954 1.9999 2v11c0 1.1046-.8954 2-1.9999 2h-16c-1.1046 0-2-.8954-2-2z" fill="#fff"/><path d="m10.001 24v-11c0-1.1046.8954-2 2-2h16c1.1045 0 1.9999.8954 1.9999 2v11c0 1.1046-.8954 2-1.9999 2h-16c-1.1046 0-2-.8954-2-2z" fill="#5322e5" fill-opacity=".36"/><path d="m10.001 24v-11c0-1.1046.8954-2 2-2h16c1.1045 0 2 .8954 2 2v11c0 1.1046-.8955 2-2 2h-16c-1.1046 0-2-.8954-2-2z" stroke="#7349f2" stroke-linecap="round" stroke-linejoin="round" stroke-width="2"/><path d="m10.001 24v-6h19.9999v6c0 1.1046-.8954 2-1.9999 2h-16c-1.1046 0-2-.8954-2-2z" fill="#fff" stroke="#7349f2" stroke-linecap="round" stroke-linejoin="round" stroke-width="2"/><path d="m10.001 24.919v-11.8378c0-1.0238 1.003-1.7468 1.9743-1.423l11.6581 3.8861c.8167.2721 1.3676 1.0365 1.3676 1.8973v10.7837c0 1.365-1.3374 2.329-2.6325 1.8973l-11.3419-3.7807c-.6125-.2041-1.0256-.7773-1.0256-1.4229z" fill="#fff"/><path d="m10.001 24.919v-11.8378c0-1.0238 1.003-1.7468 1.9743-1.423l11.6581 3.8861c.8167.2721 1.3676 1.0365 1.3676 1.8973v10.7837c0 1.365-1.3374 2.329-2.6325 1.8973l-11.3419-3.7807c-.6125-.2041-1.0256-.7773-1.0256-1.4229z" fill="#5322e5" fill-opacity=".36"/><path d="m10.001 24.919v-11.8378c0-1.0238 1.003-1.7468 1.9743-1.423l11.6581 3.8861c.8167.2721 1.3676 1.0365 1.3676 1.8973v10.7837c0 1.365-1.3374 2.329-2.6325 1.8973l-11.3419-3.7807c-.6125-.2041-1.0256-.7773-1.0256-1.4229z" stroke="#7349f2" stroke-linecap="round" stroke-linejoin="round" stroke-width="2"/><path d="m20.501 24c.8284 0 1.5-.6716 1.5-1.5s-.6716-1.5-1.5-1.5c-.8285 0-1.5.6716-1.5 1.5s.6715 1.5 1.5 1.5z" fill="#fff" stroke="#7349f2" stroke-width="2"/></svg>