<svg width="76" height="40" viewBox="0 0 76 40" fill="none" xmlns="http://www.w3.org/2000/svg">
<circle cx="56" cy="20" r="20" fill="#ECF5FE"/>
<path d="M64.25 9.5H47.75C46.5074 9.5 45.5 10.5074 45.5 11.75V28.25C45.5 29.4926 46.5074 30.5 47.75 30.5H64.25C65.4926 30.5 66.5 29.4926 66.5 28.25V11.75C66.5 10.5074 65.4926 9.5 64.25 9.5Z" fill="white" stroke="#0C6CF2" stroke-width="2" stroke-linecap="round" stroke-linejoin="round"/>
<path d="M64.25 13.25L66.5 12.5V27.5C66.5 29.1569 65.1569 30.5 63.5 30.5H48.5C46.8431 30.5 45.5 29.1569 45.5 27.5V26.75L47.75 21.5L50.75 22.25L56 16.25L61.25 15.5L64.25 13.25Z" fill="#0C6CF2" fill-opacity="0.36" stroke="#0C6CF2" stroke-width="2" stroke-linecap="round" stroke-linejoin="round"/>
<path d="M56 20V30.5" stroke="#0C6CF2" stroke-width="2" stroke-linecap="round"/>
<path d="M50.75 24.5V30.5" stroke="#0C6CF2" stroke-width="2" stroke-linecap="round"/>
<path d="M56 9.5V12.5" stroke="#0C6CF2" stroke-width="2" stroke-linecap="round"/>
<path d="M61.25 18.5V30.5" stroke="#0C6CF2" stroke-width="2" stroke-linecap="round"/>
<path d="M56 17.75C56.8284 17.75 57.5 17.0784 57.5 16.25C57.5 15.4216 56.8284 14.75 56 14.75C55.1716 14.75 54.5 15.4216 54.5 16.25C54.5 17.0784 55.1716 17.75 56 17.75Z" fill="white" stroke="#0C6CF2" stroke-width="2"/>
<circle cx="20" cy="20" r="20" fill="#EFECFE"/>
<path d="M10.001 24V13C10.001 11.8954 10.8964 11 12.001 11H28.001C29.1055 11 30.0009 11.8954 30.0009 13V24C30.0009 25.1046 29.1055 26 28.001 26H12.001C10.8964 26 10.001 25.1046 10.001 24Z" fill="white"/>
<path d="M10.001 24V13C10.001 11.8954 10.8964 11 12.001 11H28.001C29.1055 11 30.0009 11.8954 30.0009 13V24C30.0009 25.1046 29.1055 26 28.001 26H12.001C10.8964 26 10.001 25.1046 10.001 24Z" fill="#5322E5" fill-opacity="0.36"/>
<path d="M10.001 24V13C10.001 11.8954 10.8964 11 12.001 11H28.001C29.1055 11 30.001 11.8954 30.001 13V24C30.001 25.1046 29.1055 26 28.001 26H12.001C10.8964 26 10.001 25.1046 10.001 24V24Z" stroke="#7349F2" stroke-width="2" stroke-linecap="round" stroke-linejoin="round"/>
<path d="M10.001 24V18H30.0009V24C30.0009 25.1046 29.1055 26 28.001 26H12.001C10.8964 26 10.001 25.1046 10.001 24Z" fill="white" stroke="#7349F2" stroke-width="2" stroke-linecap="round" stroke-linejoin="round"/>
<path d="M10.001 24.919V13.0812C10.001 12.0574 11.004 11.3344 11.9753 11.6582L23.6334 15.5443C24.4501 15.8164 25.001 16.5808 25.001 17.4416V28.2253C25.001 29.5903 23.6636 30.5543 22.3685 30.1226L11.0266 26.3419C10.4141 26.1378 10.001 25.5646 10.001 24.919Z" fill="white"/>
<path d="M10.001 24.919V13.0812C10.001 12.0574 11.004 11.3344 11.9753 11.6582L23.6334 15.5443C24.4501 15.8164 25.001 16.5808 25.001 17.4416V28.2253C25.001 29.5903 23.6636 30.5543 22.3685 30.1226L11.0266 26.3419C10.4141 26.1378 10.001 25.5646 10.001 24.919Z" fill="#5322E5" fill-opacity="0.36"/>
<path d="M10.001 24.919V13.0812C10.001 12.0574 11.004 11.3344 11.9753 11.6582L23.6334 15.5443C24.4501 15.8164 25.001 16.5808 25.001 17.4416V28.2253C25.001 29.5903 23.6636 30.5543 22.3685 30.1226L11.0266 26.3419C10.4141 26.1378 10.001 25.5646 10.001 24.919V24.919Z" stroke="#7349F2" stroke-width="2" stroke-linecap="round" stroke-linejoin="round"/>
<path d="M20.501 24C21.3294 24 22.001 23.3284 22.001 22.5C22.001 21.6716 21.3294 21 20.501 21C19.6725 21 19.001 21.6716 19.001 22.5C19.001 23.3284 19.6725 24 20.501 24Z" fill="white" stroke="#7349F2" stroke-width="2"/>
</svg>
