<svg viewBox="0 0 24.21 24.21" xmlns="http://www.w3.org/2000/svg"><circle cx="12.1" cy="12.1" fill="#fff" r="12.1"/><g fill="#094b7c"><path d="m10.56 19.09a2.13 2.13 0 0 1 -.36-.14.78.78 0 0 1 -.4-.65c0-.28 0-.57 0-.85s0-.69 0-1c0 0 0-.05 0-.09h-.09c-.21 0-.42 0-.63 0a.91.91 0 0 1 -.82-.84s0-.09 0-.14q0-2.72 0-5.43v-.15h7.62c.06 0 .09 0 .09.08q0 2.74 0 5.48a.91.91 0 0 1 -.75.94h-.21-.59v.09 1.76a.88.88 0 0 1 -.75.91h-.2-.1a.86.86 0 0 1 -.68-.85c0-.6 0-1.2 0-1.8 0 0 0-.06 0-.09h-1.17s0 .06 0 .09v1.8a.85.85 0 0 1 -.58.83h-.19z"/><path d="m18 14.2a2.31 2.31 0 0 1 -.14.37.85.85 0 0 1 -.86.43.86.86 0 0 1 -.66-.7 1.05 1.05 0 0 1 0-.16q0-1.79 0-3.58a.86.86 0 0 1 1.66-.19z"/><path d="m8.21 9.49a3.54 3.54 0 0 1 2-3.1l-.21-.27-.42-.78v-.05a.12.12 0 0 1 0-.15.12.12 0 0 1 .16 0v.06l.54 1v.06a4.26 4.26 0 0 1 3.38 0v-.06l.54-1a.22.22 0 0 1 .1-.1.13.13 0 0 1 .11 0 .19.19 0 0 1 0 .12s0 .05 0 .08l-.57 1a3.55 3.55 0 0 1 2 3.1zm2.13-1.22a.5.5 0 1 0 -.5-.51.51.51 0 0 0 .5.51zm3.54-1a.5.5 0 1 0 .49.5.5.5 0 0 0 -.49-.51z"/><path d="m7.91 12.3q0 .89 0 1.79a.86.86 0 0 1 -1.71.14 1.73 1.73 0 0 1 0-.2q0-1.76 0-3.51a.86.86 0 0 1 1.72 0c-.01.56-.01 1.17-.01 1.78z"/></g></svg>