<svg xmlns="http://www.w3.org/2000/svg" viewBox="0 0 24.21 24.21"><defs><style>.cls-1{fill:#fff;}.cls-2{fill:#094b7c;}</style></defs><title>Asset 85</title><g id="Layer_2" data-name="Layer 2"><g id="Layer_1-2" data-name="Layer 1"><circle class="cls-1" cx="12.1" cy="12.1" r="12.1"/><g id="hWniET.tif"><path class="cls-2" d="M10.56,19.09a2.13,2.13,0,0,1-.36-.14.78.78,0,0,1-.4-.65c0-.28,0-.57,0-.85s0-.69,0-1c0,0,0-.05,0-.09H9.71c-.21,0-.42,0-.63,0a.91.91,0,0,1-.82-.84s0-.09,0-.14q0-2.72,0-5.43V9.8h7.62c.06,0,.09,0,.09.08q0,2.74,0,5.48a.91.91,0,0,1-.75.94l-.21,0h-.59v.09c0,.59,0,1.17,0,1.76a.88.88,0,0,1-.75.91h-.2l-.1,0a.86.86,0,0,1-.68-.85c0-.6,0-1.2,0-1.8,0,0,0-.06,0-.09H11.52s0,.06,0,.09c0,.6,0,1.2,0,1.8a.85.85,0,0,1-.58.83l-.19,0Z"/><path class="cls-2" d="M18,14.2a2.31,2.31,0,0,1-.14.37A.85.85,0,0,1,17,15a.86.86,0,0,1-.66-.7,1.05,1.05,0,0,1,0-.16q0-1.79,0-3.58A.86.86,0,0,1,18,10.37V14.2Z"/><path class="cls-2" d="M8.21,9.49a3.54,3.54,0,0,1,2-3.1L10,6.12l-.42-.78,0-.05a.12.12,0,0,1,0-.15.12.12,0,0,1,.16,0l0,.06.54,1,0,.06a4.26,4.26,0,0,1,3.38,0l0-.06.54-1a.22.22,0,0,1,.1-.1.13.13,0,0,1,.11,0,.19.19,0,0,1,0,.12s0,.05,0,.08l-.57,1a3.55,3.55,0,0,1,2,3.1Zm2.13-1.22a.5.5,0,1,0-.5-.51A.51.51,0,0,0,10.34,8.27Zm3.54-1a.5.5,0,1,0,.49.5A.5.5,0,0,0,13.88,7.26Z"/><path class="cls-2" d="M7.91,12.3q0,.89,0,1.79a.86.86,0,0,1-1.71.14,1.73,1.73,0,0,1,0-.2q0-1.76,0-3.51a.86.86,0,0,1,1.72,0C7.91,11.08,7.91,11.69,7.91,12.3Z"/></g></g></g></svg>