<svg xmlns="http://www.w3.org/2000/svg" viewBox="0 0 24.21 24.21"><defs><style>.cls-1{fill:#fff;}.cls-2{fill:#094b7c;}</style></defs><title>Asset 84</title><g id="Layer_2" data-name="Layer 2"><g id="Layer_1-2" data-name="Layer 1"><circle class="cls-1" cx="12.1" cy="12.1" r="12.1"/><g id="QyEzxX.tif"><path class="cls-2" d="M16.64,10.17A2.71,2.71,0,0,0,17,14.93a6.32,6.32,0,0,1-1.79,2.82,1.3,1.3,0,0,1-1.43.21,3.27,3.27,0,0,0-2.83,0,1.31,1.31,0,0,1-1.42-.22A7.06,7.06,0,0,1,7.4,11.37a2.88,2.88,0,0,1,2-2.18,2.75,2.75,0,0,1,1.62,0,3.07,3.07,0,0,0,2.35,0A2.75,2.75,0,0,1,16.64,10.17Z"/><path class="cls-2" d="M14.44,6.12c.29,1.2-1.06,3-2.31,2.72A2.52,2.52,0,0,1,14.44,6.12Z"/></g></g></g></svg>