<svg width="16" height="17" viewBox="0 0 16 17" fill="none" xmlns="http://www.w3.org/2000/svg">
<g id="Arrow Right">
<path id="Subtract" fill-rule="evenodd" clip-rule="evenodd" d="M8 16.5C12.4183 16.5 16 12.9183 16 8.5C16 4.08172 12.4183 0.5 8 0.5C3.58172 0.5 0 4.08172 0 8.5C0 12.9183 3.58172 16.5 8 16.5ZM12.497 8.94737C12.7243 8.69419 12.7245 8.31038 12.4974 8.05696L10.1054 5.38807C9.85962 5.11389 9.43814 5.09084 9.16396 5.33658C8.88978 5.58232 8.86672 6.0038 9.11246 6.27798L10.5082 7.83525L3.99934 7.83525C3.63115 7.83525 3.33267 8.13373 3.33267 8.50192C3.33267 8.87011 3.63115 9.16858 3.99934 9.16858L10.5062 9.16858L9.11292 10.7199C8.8669 10.9938 8.88953 11.4153 9.16346 11.6613C9.43739 11.9074 9.85889 11.8847 10.1049 11.6108L12.497 8.94737Z" fill="#0C6CF2"/>
</g>
</svg>
