<svg width="104" height="104" viewBox="0 0 104 104" fill="none" xmlns="http://www.w3.org/2000/svg">
<path d="M30.6842 55.5V76.5H39.2105V55.5H30.6842ZM47.7368 55.5V76.5H56.2632V55.5H47.7368ZM25 91.5H79V82.5H25V91.5ZM64.7895 55.5V76.5H73.3158V55.5H64.7895ZM52 28.5L25 43.5V49.5H79V43.5L52 28.5Z" fill="#0C6CF2"/>
<g clip-path="url(#clip0)">
<circle cx="83" cy="29" r="20" fill="white"/>
<path d="M82.9997 12.3334C73.833 12.3334 66.333 19.8334 66.333 29C66.333 38.1667 73.833 45.6667 82.9997 45.6667C92.1663 45.6667 99.6663 38.1667 99.6663 29C99.6663 19.8334 92.1663 12.3334 82.9997 12.3334ZM89.9997 36L81.333 30.6667V20.6667H83.833V29.3334L91.333 33.8334L89.9997 36Z" fill="#F5A250"/>
</g>
<defs>
<clipPath id="clip0">
<rect width="40" height="40" fill="white" transform="translate(63 9)"/>
</clipPath>
</defs>
</svg>
