<svg fill="none" height="104" viewBox="0 0 104 104" width="104" xmlns="http://www.w3.org/2000/svg" xmlns:xlink="http://www.w3.org/1999/xlink"><clipPath id="a"><path d="m63 9h40v40h-40z"/></clipPath><path d="m30.6842 55.5v21h8.5263v-21zm17.0526 0v21h8.5264v-21zm-22.7368 36h54v-9h-54zm39.7895-36v21h8.5263v-21zm-12.7895-27-27 15v6h54v-6z" fill="#0c6cf2"/><g clip-path="url(#a)"><circle cx="83" cy="29" fill="#fff" r="20"/><path d="m82.9997 12.3334c-9.1667 0-16.6667 7.5-16.6667 16.6666 0 9.1667 7.5 16.6667 16.6667 16.6667 9.1666 0 16.6666-7.5 16.6666-16.6667 0-9.1666-7.5-16.6666-16.6666-16.6666zm7 23.6666-8.6667-5.3333v-10h2.5v8.6667l7.5 4.5z" fill="#f5a250"/></g></svg>