<svg width="32" height="32" viewBox="0 0 32 32" fill="none" xmlns="http://www.w3.org/2000/svg">
<path d="M27.8404 16.0762C27.8404 14.408 27.5503 12.8377 26.9701 11.3654C26.3898 9.89303 25.5811 8.61652 24.544 7.53581C23.5068 6.45514 22.2665 5.59568 20.8232 4.9574C19.3799 4.31916 17.7951 4.00003 16.0689 4C8.55933 4 4 9.31998 4 16.0762C4 22.6906 9.19313 27.8628 14.7561 28L20.9107 21.1902L20.8105 21.021V27.5213H27.8404V16.0762ZM20.7852 21.0466L15.942 21.0589C12.6233 21.0589 8.95412 16.2826 12.6963 12.5404C16.0166 9.22008 20.9918 11.9433 20.9918 16.5639L20.7852 21.0466Z" fill="#5C105D"/>
</svg>
