<svg fill="none" height="104" viewBox="0 0 104 104" width="104" xmlns="http://www.w3.org/2000/svg" xmlns:xlink="http://www.w3.org/1999/xlink"><clipPath id="a"><path d="m63 9h40v40h-40z"/></clipPath><path d="m30.6842 55.5v21h8.5263v-21zm17.0526 0v21h8.5264v-21zm-22.7368 36h54v-9h-54zm39.7895-36v21h8.5263v-21zm-12.7895-27-27 15v6h54v-6z" fill="#0c6cf2"/><g clip-path="url(#a)"><circle cx="83" cy="29" fill="#fff" r="20"/><path d="m82.9997 12.3333c-9.2167 0-16.6667 7.45-16.6667 16.6666 0 9.2167 7.45 16.6667 16.6667 16.6667 9.2166 0 16.6666-7.45 16.6666-16.6667 0-9.2166-7.45-16.6666-16.6666-16.6666zm8.3333 22.65-2.35 2.35-5.9833-5.9834-5.9834 5.9834-2.35-2.35 5.9834-5.9834-5.9834-5.9833 2.35-2.35 5.9834 5.9833 5.9833-5.9833 2.35 2.35-5.9833 5.9833z" fill="#f5a250"/></g></svg>