<svg width="24" height="24" viewBox="0 0 24 24" fill="none" xmlns="http://www.w3.org/2000/svg">
<path d="M2.05353 8.72192L0.958534 9.81693C0.65546 10.1081 0.414334 10.4575 0.249619 10.8441C0.0849028 11.2307 0 11.6467 0 12.0669C0 12.4872 0.0849028 12.9031 0.249619 13.2898C0.414334 13.6764 0.65546 14.0258 0.958534 14.3169L9.78001 23.2255C9.98909 23.4394 10.2324 23.6168 10.5 23.7505V12.9519L2.05353 8.72192Z" fill="#619FF7"/>
<path d="M21.9465 8.72192L23.0415 9.81693C23.3445 10.1081 23.5857 10.4575 23.7504 10.8441C23.9151 11.2307 24 11.6467 24 12.0669C24 12.4872 23.9151 12.9031 23.7504 13.2898C23.5857 13.6764 23.3445 14.0258 23.0415 14.3169L14.22 23.2255C14.0109 23.4394 13.7676 23.6168 13.5 23.7505V12.9519L21.9465 8.72192Z" fill="#3D89F5"/>
<path d="M19.8286 6.48695L14.3086 0.951954C14.0163 0.650761 13.6666 0.411296 13.2801 0.247776C12.8936 0.0842556 12.4782 0 12.0586 0C11.6389 0 11.2235 0.0842556 10.837 0.247776C10.4505 0.411296 10.1008 0.650761 9.80856 0.951954L4.27356 6.48695L12.0286 10.3569L19.8286 6.48695Z" fill="#85B5F8"/>
</svg>
