<svg width="608" height="48" viewBox="0 0 608 48" xmlns="http://www.w3.org/2000/svg">
	<path class="logomark-color" fill="white" fill-rule="evenodd" clip-rule="evenodd" d="M155 36.5C158.6 36.5 161.9 34.9 164.2 32.5C164.7 31.9 165.8 30.8 165.7 31L173.4 39.3C169 44.6 162.4 48 154.9 48C141.6 48 130.9 37.3 130.9 24C130.9 10.7 141.6 0 154.9 0C162 0 168.4 3.1 172.8 8L165.1 16.3L163.3 14.5C161.1 12.5 158.2 11.3 155 11.3C148.1 11.3 142.4 16.9 142.4 23.9C142.4 30.8 148 36.5 155 36.5ZM451.2 47.2C454.8 47.2 457.3 44.7 457.3 41.1C457.3 37.6 454.8 35.2 451.2 35.1C447.7 35.1 445.2 37.6 445.2 41.1C445.2 44.7 447.7 47.2 451.2 47.2ZM255.3 32.7C253 35.1 249.7 36.7 246.1 36.7C239.1 36.7 233.5 31 233.5 24.1C233.5 17.1 239.2 11.5 246.1 11.5C249.3 11.5 252.2 12.7 254.4 14.7L256.2 16.5L264 8C259.6 3.1 253.2 0 246.1 0C232.8 0 222.1 10.7 222.1 24C222.1 37.3 232.8 48 246.1 48C253.6 48 260.2 44.6 264.6 39.3L256.9 31C256.9 31 255.8 32.1 255.3 32.7ZM484.9 36.5C488.5 36.5 491.8 34.9 494.1 32.5C494.6 31.9 495.7 30.8 495.6 31L503.3 39.3C498.9 44.6 492.3 48 484.8 48C471.5 48 460.8 37.3 460.8 24C460.8 10.7 471.5 0 484.8 0C491.9 0 498.3 3.1 502.7 8L495 16.3L493.2 14.5C491 12.5 488.1 11.3 484.9 11.3C478 11.3 472.3 16.9 472.3 23.9C472.3 30.8 477.9 36.5 484.9 36.5ZM32.4 23C36.5 21.2 39.5 18.1 39.5 12.7V12.6C39.5 9.4 38.4 7 36.5 5.2C33.8 2.4 29.8 1 24 1H0V47H24.1C35.1 47 41.5 42.2 41.5 34.3V34.2C41.5 27.9 38 24.8 32.4 23ZM12.8 11.2H21.1C24.9 11.2 26.9 12.6 26.9 15.1V15.2C26.9 17.9 24.7 19.2 20.8 19.2H12.8V11.2V11.2ZM28.8 32.6C28.8 35.3 26.6 36.8 22.7 36.8H12.8V28.3H22.5C26.8 28.3 28.7 29.9 28.7 32.4V32.6H28.8V32.6ZM45.5 1H58.3V35.9H79V47H45.5V1ZM299.8 18.2H283.4V1H270.6V47.1L283.4 47V29.5H299.8V47H312.6V1H299.8V18.2ZM337.7 1H349.9L369.4 47H355.8L352.5 38.8H334.9L331.6 47H318.3L337.7 1ZM343.6 16L338.5 29H348.7L343.6 16ZM387.9 1H375.1V47.1H387.9V1ZM424.9 25.4V1.1H437.7V47.1H426.4L406.7 21.8V47.1H393.9V1L405.9 1.1L424.9 25.4ZM222.3 1H207.2L191.3 19.7V1H178.5V47.1H191.3V35.2L196 30L208.9 47.1H224.1L204.3 20.8L222.3 1ZM80 24C80 10.7 90.7 0 104 0C117.2 0 128 10.7 128 24C128 37.3 117.3 48 104 48C90.7 48 80 37.3 80 24ZM91.4 24C91.4 30.9 97 36.6 104 36.6C111 36.6 116.6 31 116.6 24C116.6 17.1 111 11.4 104 11.4C97.1 11.4 91.4 17 91.4 24ZM528.4 0C515.1 0 504.4 10.7 504.4 24C504.4 37.3 515.1 48 528.4 48C541.7 48 552.4 37.3 552.4 24C552.4 10.7 541.7 0 528.4 0ZM528.4 36.6C521.4 36.6 515.8 30.9 515.8 24C515.8 17 521.5 11.4 528.4 11.4C535.4 11.4 541 17.1 541 24C541.1 31 535.4 36.6 528.4 36.6ZM596 19.7L586.8 42.3H577.9L568.7 19.7V46.9H556.7V1H571.3L582.4 26.4L593.5 1H608V46.9H596V19.7Z"/>
</svg>