<svg xmlns="http://www.w3.org/2000/svg" viewBox="0 0 600 103.9"><defs><style>.cls-1{fill:#00aee6;}.cls-2{fill:#123962;}.cls-3{fill:#b1d4e5;}.cls-4{fill:#2754ba;}.cls-5{fill:#799eb2;}</style></defs><title>Asset 3</title><g id="Layer_2" data-name="Layer 2"><g id="Layer_1-2" data-name="Layer 1"><path class="cls-1" d="M38.56,52,17,73.54l27.09,27.09a11.16,11.16,0,0,0,15.78,0L86.94,73.54,65.35,52,52,38.56Z"/><path class="cls-2" d="M17,30.36,3.27,44.06a11.16,11.16,0,0,0,0,15.78L17,73.54,38.56,52,52,38.56,30.36,17Z"/><path class="cls-3" d="M73.54,60.15,86.94,73.54l13.7-13.7a11.16,11.16,0,0,0,0-15.78l-5.5-5.5Z"/><polygon class="cls-3" points="65.34 51.95 65.34 51.95 51.95 38.56 73.54 16.97 73.54 16.97 51.95 38.56 65.34 51.95"/><polygon class="cls-4" points="51.95 38.56 65.34 51.95 73.54 60.15 95.13 38.56 86.94 30.36 73.54 16.97 51.95 38.56"/><path class="cls-5" d="M73.54,17,59.84,3.27a11.16,11.16,0,0,0-15.78,0L30.36,17,52,38.56Z"/><path class="cls-2" d="M309.67,61a13.57,13.57,0,1,1-.88-19.47c.69.61,2,1.9,2,1.9l8.27-8.9a25.77,25.77,0,1,0,.65,33.57l-8.3-8.93Z"/><path class="cls-2" d="M407.58,61a13.57,13.57,0,1,1-.88-19.47c.69.61,2,1.9,2,1.9l8.27-8.9a25.77,25.77,0,1,0,.65,33.57l-8.3-8.93Z"/><path class="cls-2" d="M165.33,50.6c4.38-1.91,7.63-5.29,7.63-11v-.14a10.83,10.83,0,0,0-3.18-8c-2.89-2.9-7.28-4.45-13.5-4.45H130.53V76.45h25.89c11.8,0,18.72-5.16,18.72-13.63v-.14C175.15,56,171.33,52.58,165.33,50.6ZM144.28,38h8.9c4.09,0,6.22,1.55,6.22,4.24v.14c0,2.9-2.33,4.31-6.5,4.31h-8.61Zm17.16,22.89c0,2.9-2.4,4.52-6.56,4.52h-10.6V56.32h10.45c4.6,0,6.71,1.76,6.71,4.45Z"/><polygon class="cls-2" points="194.97 27.02 181.22 27 181.22 76.42 217.16 76.43 217.16 64.45 194.97 64.45 194.97 27.02"/><polygon class="cls-2" points="453.39 45.74 435.79 45.74 435.79 27.19 422.04 27.19 422.04 76.68 435.79 76.67 435.79 57.88 453.39 57.88 453.39 76.67 467.14 76.67 467.14 27.26 453.39 27.26 453.39 45.74"/><path class="cls-2" d="M505.75,26.9H492.53l-21,49.78h14.42l3.54-8.85h19.06l3.59,8.85h14.68ZM493.47,57.2,499,43.14l5.52,14.06Z"/><rect class="cls-2" x="531.14" y="27.26" width="13.75" height="49.47"/><polygon class="cls-2" points="586.25 27.31 586.25 53.45 565.89 27.31 552.93 27.26 552.93 76.72 566.67 76.72 566.67 49.59 587.82 76.72 600 76.72 600 27.31 586.25 27.31"/><polygon class="cls-2" points="373.18 27.14 356.89 27.14 356.89 27.14 356.89 27.14 339.87 47.18 339.87 27.14 326.12 27.14 326.12 76.6 339.87 76.6 339.87 63.79 344.89 58.26 358.79 76.6 358.8 76.6 358.8 76.6 375.08 76.6 353.85 48.41 373.18 27.14"/><path class="cls-2" d="M244.62,25.93a25.78,25.78,0,1,0,25.78,25.78A25.78,25.78,0,0,0,244.62,25.93Zm0,39.34a13.56,13.56,0,1,1,13.56-13.56A13.56,13.56,0,0,1,244.62,65.27Z"/></g></g></svg>