<svg fill="none" height="165" viewBox="0 0 282 165" width="282" xmlns="http://www.w3.org/2000/svg"><path d="m34.8145 149.795h24.3703" stroke="#0c6cf2" stroke-linecap="round" stroke-linejoin="round" stroke-miterlimit="10" stroke-width="3"/><path d="m217.013 149.795h24.37" stroke="#0c6cf2" stroke-linecap="round" stroke-linejoin="round" stroke-miterlimit="10" stroke-width="3"/><path d="m58.0252 142.755h-33.6544c-6.0926 0-11.0247-4.786-11.0247-10.699s4.9321-10.7 11.0247-10.7h8.7037c2.8897 0 5.2223-2.264 5.2223-5.068 0-2.805-2.3326-5.069-5.2223-5.069h-20.8888c-3.84128 0-6.96301-3.029-6.96301-6.757s3.12173-6.758 6.96301-6.758h26.6913c3.8412 0 6.963-3.0297 6.963-6.7577 0-3.7279-3.1218-6.7576-6.963-6.7576h-22.6296c-8.00742 0-14.50619-6.3072-14.50619-14.0785 0-7.7714 6.49877-14.0785 14.50619-14.0785h16.8271c2.8897 0 5.2223-2.2639 5.2223-5.0683s-2.3326-5.0683-5.2223-5.0683h-16.8271c-4.1662 0-7.54323-3.2774-7.54323-7.3208 0-4.0433 3.37703-7.3208 7.54323-7.3208h35.9753c2.8896 0 5.2222-2.2638 5.2222-5.0683 0-2.8044-2.3326-5.0682-5.2222-5.0682h-24.3704c-2.8896 0-5.2222-2.2638-5.2222-5.0683 0-2.8044 2.3326-5.0682 5.2222-5.0682h216.4317c4.492 0 8.124 3.5252 8.124 7.8839s-3.632 7.884-8.124 7.884h-24.95c-2.24 0-4.062 1.7682-4.062 3.942 0 2.1737 1.822 3.9419 4.062 3.9419h47.58c2.24 0 4.062 1.7683 4.062 3.942s-1.822 3.942-4.062 3.942h-20.309c-3.841 0-6.963 3.0297-6.963 6.7577s3.122 6.7577 6.963 6.7577h17.408c8.97 0 16.247 7.0617 16.247 15.7679 0 8.7061-7.277 15.7679-16.247 15.7679h-17.988c-3.203 0-5.802 2.5229-5.802 5.6314s2.599 5.6314 5.802 5.6314h16.247c7.369 0 13.346 5.8007 13.346 12.9527 0 7.151-5.977 12.952-13.346 12.952h-23.21c-2.24 0-4.062 1.768-4.062 3.942 0 2.173 1.822 3.942 4.062 3.942h15.087c2.889 0 5.222 2.264 5.222 5.068s-2.333 5.068-5.222 5.068h-40.618" stroke="#dfe3eb" stroke-linecap="round" stroke-linejoin="round" stroke-miterlimit="10" stroke-width="3"/><path d="m69.3397 156.272h136.9383c7.056 0 12.765-5.541 12.765-12.389v-20.273h-41.777c-2.867 0-5.536-.755-7.845-2.061-14.518 9.483-31.995 15.013-50.807 15.013h-62.0398v7.321c0 6.848 5.7096 12.389 12.7655 12.389z" fill="#bbdbfc"/><path d="m207.601 67.2277c-2.112 9.2919-5.721 18.0318-10.583 25.9721h22.026v-38.2936c0 6.4086-5.014 11.6796-11.443 12.3215z" fill="#bbdbfc"/><path d="m206.568 67.577h-136.9383c-7.0558 0-12.7654-5.5413-12.7654-12.3891s5.7096-12.3891 12.7654-12.3891h136.9383c7.056 0 12.765 5.5413 12.765 12.3891s-5.709 12.3891-12.765 12.3891z" style="fill:#fff;stroke:#0c6cf2;stroke-width:3;stroke-miterlimit:10;stroke-linecap:round;stroke-linejoin:round"/><path d="m177.846 115.162c3.845 0 6.963-3.026 6.963-6.758s-3.118-6.758-6.963-6.758c-3.846 0-6.963 3.026-6.963 6.758s3.117 6.758 6.963 6.758z" style="fill:#bbdbfc;stroke:#bbdbfc;stroke-width:3;stroke-miterlimit:10;stroke-linecap:round;stroke-linejoin:round"/><path d="m204.758 48.9941h-133.6659c-2.82 0-5.4079 1.8021-5.9766 4.4488-.7659 3.6154 2.1121 6.814 5.7445 6.814h133.666c2.82 0 5.408-1.802 5.976-4.4488.778-3.6266-2.1-6.814-5.744-6.814z" fill="#bbdbfc"/><path d="m177.962 123.891c-8.042 0-15.098-5.722-15.98-13.471-1.033-9.179 6.336-16.939 15.574-16.939h41.777v-38.2935c0 6.8478-5.709 12.3891-12.765 12.3891h-136.9383c-7.0558 0-12.7654-5.5413-12.7654-12.3891v88.9765c0 6.847 5.7096 12.389 12.7654 12.389h136.9383c7.056 0 12.765-5.542 12.765-12.389v-20.273z" stroke="#0c6cf2" stroke-linecap="round" stroke-linejoin="round" stroke-miterlimit="10" stroke-width="3"/><path d="m104.305 20.5659c5.371 0 9.725-4.2256 9.725-9.4382 0-5.21261-4.354-9.43825-9.725-9.43825-5.3709 0-9.7249 4.22564-9.7249 9.43825 0 5.2126 4.354 9.4382 9.7249 9.4382z" style="fill:#0c6cf2;stroke:#bbdbfc;stroke-width:3;stroke-miterlimit:10;stroke-linecap:round;stroke-linejoin:round"/><path d="m104.305 13.3909c1.289 0 2.333-1.0135 2.333-2.2638 0-1.25027-1.044-2.26382-2.333-2.26382-1.288 0-2.332 1.01355-2.332 2.26382 0 1.2503 1.044 2.2638 2.332 2.2638z" fill="#fff"/><path d="m104.305 9.41534c.964 0 1.753.76586 1.753 1.70066s-.789 1.7007-1.753 1.7007c-.963 0-1.752-.7659-1.752-1.7007s.778-1.70066 1.752-1.70066zm0-1.12628c-1.613 0-2.912 1.26144-2.912 2.82694 0 1.5656 1.299 2.827 2.912 2.827s2.913-1.2614 2.913-2.827c0-1.5655-1.311-2.82694-2.913-2.82694z" fill="#fff"/><g stroke-linecap="round" stroke-linejoin="round" stroke-miterlimit="10" stroke-width="3"><path d="m76.4534 30.7028c3.4482 0 6.2435-2.7129 6.2435-6.0594s-2.7953-6.0594-6.2435-6.0594-6.2434 2.7129-6.2434 6.0594 2.7952 6.0594 6.2434 6.0594z" fill="#0c6cf2" stroke="#bbdbfc"/><path d="m199.466 30.7028c3.448 0 6.244-2.7129 6.244-6.0594s-2.796-6.0594-6.244-6.0594-6.243 2.7129-6.243 6.0594 2.795 6.0594 6.243 6.0594z" fill="#0c6cf2" stroke="#bbdbfc"/><path d="m152.605 68.9838c17.946 0 32.494-14.1191 32.494-31.5359 0-17.4167-14.548-31.53579-32.494-31.53579s-32.494 14.11909-32.494 31.53579c0 17.4168 14.548 31.5359 32.494 31.5359z" fill="#fff" stroke="#bbdbfc"/><path d="m152.605 62.3942c14.197 0 25.705-11.1692 25.705-24.9471s-11.508-24.9471-25.705-24.9471c-14.196 0-25.705 11.1692-25.705 24.9471s11.509 24.9471 25.705 24.9471z" fill="#0c6cf2" stroke="#bbdbfc"/><path d="m152.118 5.91211v6.58869" stroke="#bbdbfc"/><path d="m135.94 10.373 3.389 5.7103" stroke="#bbdbfc"/><path d="m124.22 22.0859 5.883 3.3" stroke="#bbdbfc"/><path d="m120.111 37.9219h6.789" stroke="#bbdbfc"/><path d="m124.707 53.6208 5.884-3.2888" stroke="#bbdbfc"/><path d="m136.776 64.9973 3.401-5.7102" stroke="#bbdbfc"/><path d="m153.093 68.9833v-6.5888" stroke="#bbdbfc"/><path d="m169.27 64.5227-3.389-5.7102" stroke="#bbdbfc"/><path d="m180.991 52.8098-5.884-3.3" stroke="#bbdbfc"/><path d="m185.099 36.9746h-6.788" stroke="#bbdbfc"/><path d="m180.504 21.2754-5.884 3.2887" stroke="#bbdbfc"/><path d="m168.434 9.89844-3.4 5.71026" stroke="#bbdbfc"/></g><path d="m150.935 20.373 1.16 12.6256 11.431 3.8069z" fill="#fff"/><path d="m150.934 20.373-9.388 18.3471 10.549-5.7215z" fill="#fff"/><path d="m153.29 45.939.789 8.571 9.632-15.7229z" fill="#fff"/><path d="m154.078 54.5226-.789-8.5823-11.559-5.2372z" fill="#fff"/><path d="m153.104 43.9567 10.422-7.1518-11.431-3.8069z" fill="#fff"/><path d="m141.546 38.7196 11.558 5.2371-1.009-10.9587z" fill="#fff"/><path d="m109.666 108.405c21.151 0 38.297-16.6406 38.297-37.1675s-17.146-37.1672-38.297-37.1672c-21.15 0-38.2959 16.6403-38.2959 37.1672s17.1459 37.1675 38.2959 37.1675z" style="fill:#fff;stroke:#bbdbfc;stroke-width:3;stroke-miterlimit:10;stroke-linecap:round;stroke-linejoin:round"/><path d="m109.667 100.634c16.728 0 30.289-13.1614 30.289-29.3963s-13.561-29.3959-30.289-29.3959c-16.7283 0-30.2891 13.161-30.2891 29.3959s13.5608 29.3963 30.2891 29.3963z" style="fill:#0c6cf2;stroke:#bbdbfc;stroke-width:3;stroke-miterlimit:10;stroke-linecap:round;stroke-linejoin:round"/><path d="m124.834 68.6691c1.3-3.9645-1.532-6.645-5.652-8.785l2.321-5.2935-3.319-1.374-2.263 5.1471c-.87-.3605-1.764-.7096-2.669-1.0588l2.275-5.1808-3.319-1.3741-2.321 5.2823c-.72-.2816-1.439-.5632-2.124-.8448h.012l-4.573-1.8921-1.508 3.4351s2.471.9686 2.413.9912c1.347.5518 1.451 1.4979 1.289 2.1962l-6.3599 14.484c-.2437.3829-.7775.9348-1.7175.5519.0232.0563-2.4139-.9912-2.4139-.9912l-2.3442 3.5703 4.3171 1.7796c.8007.3378 1.5899.6757 2.3558 1.0023l-2.3442 5.3499 3.3188 1.374 2.321-5.2935c.905.3942 1.776.7659 2.635 1.115l-2.31 5.271 3.319 1.3741 2.344-5.3386c5.71 1.9935 10.213 2.2413 12.928-2.6355 2.194-3.9307 1.01-6.5774-1.833-8.6273 2.344-.1464 4.27-1.329 5.222-4.2348zm-9.667 9.5171c-1.752 3.9983-8.599.6307-10.851-.3041l3.11-7.0843c2.252.9348 9.575 3.2211 7.741 7.3884zm2.843-10.6321c-1.601 3.6379-7.288.7771-9.156.0113l2.82-6.4198c1.868.7546 8.007 2.6129 6.336 6.4085z" fill="#fff"/><path d="m109.098 34.0703v7.7713" stroke="#bbdbfc" stroke-linecap="round" stroke-linejoin="round" stroke-miterlimit="10" stroke-width="3"/><path d="m90.0195 39.3301 4.0037 6.7239" stroke="#bbdbfc" stroke-linecap="round" stroke-linejoin="round" stroke-miterlimit="10" stroke-width="3"/><path d="m76.209 53.1387 6.9397 3.8744" stroke="#bbdbfc" stroke-linecap="round" stroke-linejoin="round" stroke-miterlimit="10" stroke-width="3"/><path d="m71.3701 71.7891h8.0074" stroke="#bbdbfc" stroke-linecap="round" stroke-linejoin="round" stroke-miterlimit="10" stroke-width="3"/><path d="m76.79 90.3056 6.9282-3.8857" stroke="#bbdbfc" stroke-linecap="round" stroke-linejoin="round" stroke-miterlimit="10" stroke-width="3"/><path d="m91.0176 103.708 3.9921-6.7353" stroke="#bbdbfc" stroke-linecap="round" stroke-linejoin="round" stroke-miterlimit="10" stroke-width="3"/><path d="m110.235 108.404v-7.771" stroke="#bbdbfc" stroke-linecap="round" stroke-linejoin="round" stroke-miterlimit="10" stroke-width="3"/><path d="m129.313 103.146-4.003-6.7241" stroke="#bbdbfc" stroke-linecap="round" stroke-linejoin="round" stroke-miterlimit="10" stroke-width="3"/><path d="m143.123 89.3373-6.939-3.8744" stroke="#bbdbfc" stroke-linecap="round" stroke-linejoin="round" stroke-miterlimit="10" stroke-width="3"/><path d="m147.962 70.6855h-8.007" stroke="#bbdbfc" stroke-linecap="round" stroke-linejoin="round" stroke-miterlimit="10" stroke-width="3"/><path d="m142.543 52.1699-6.928 3.8857" stroke="#bbdbfc" stroke-linecap="round" stroke-linejoin="round" stroke-miterlimit="10" stroke-width="3"/><path d="m128.315 38.7676-3.992 6.7351" stroke="#bbdbfc" stroke-linecap="round" stroke-linejoin="round" stroke-miterlimit="10" stroke-width="3"/><path d="m53.3828 156.553h170.5922" stroke="#0c6cf2" stroke-linecap="round" stroke-linejoin="round" stroke-miterlimit="10" stroke-width="3"/><path d="m66.7285 163.311h143.9015" stroke="#0c6cf2" stroke-linecap="round" stroke-linejoin="round" stroke-miterlimit="10" stroke-width="3"/><path d="m219.333 93.4805h3.76c1.126 0 2.042.8897 2.042 1.9822v26.4563c0 1.093-.916 1.982-2.042 1.982h-3.76" stroke="#0c6cf2" stroke-linecap="round" stroke-linejoin="round" stroke-miterlimit="10" stroke-width="3"/></svg>