<svg xmlns="http://www.w3.org/2000/svg" viewBox="0 0 208.21 33.08"><defs><style>.cls-1{fill:none;stroke:#fcbb76;stroke-miterlimit:10;}.cls-2{fill:#fed09f;}.cls-3{fill:#f7941f;}.cls-4{fill:#fcbb76;}.cls-5{font-size:8.23px;fill:#c48844;font-family:Montserrat-Light, Montserrat;}</style></defs><title>Asset 13</title><g id="Layer_2" data-name="Layer 2"><g id="Layer_1-2" data-name="Layer 1"><path class="cls-1" d="M114.26,2.23,105.61,7a5.62,5.62,0,0,0-1.76,1.49l-.68.88a6.25,6.25,0,0,1-9.2.73h0a6.25,6.25,0,0,0-8.24-.25"/><line class="cls-1" x1="114.13" y1="16.28" x2="104.57" y2="7.53"/><path class="cls-2" d="M207.22,22.9l-8.4-10.3,9.39-6.38S195.6-.33,171.39,4.12c0,0-18.41,3-32.74,2A134,134,0,0,1,113.93.4V18s4.52,1.18,11.06,2.58a126.13,126.13,0,0,0,35.83,2.57,85.83,85.83,0,0,0,13-1.89A73.25,73.25,0,0,1,207.22,22.9Z"/><path class="cls-3" d="M71.49,10,81.67,0h7.19L85.42,7.78l3.44,3.45H83.92L78.53,23.65H52.63l11.68,9.43H53.68L32.87,23.65H10.77C8.83,23.65,0,23.25,0,20.45H0c0-2.36,4.44-4.37,6.18-4.61h0A10.68,10.68,0,0,1,15.69,10H32.15l8.71-5.89h7.66L45.31,10Z"/><path class="cls-4" d="M6.18,15.84h0A10.68,10.68,0,0,1,15.69,10H32.15l8.71-5.89h7.66L45.31,10H71.49L81.67,0h7.19L85.42,7.78l3.44,3.45H83.92l-2,4.69Z"/><path class="cls-2" d="M6.18,15.84H13.1c3.24,0,4-3.87,2.32-5.53l-1-.21A10.72,10.72,0,0,0,6.18,15.84Z"/><text class="cls-5" transform="translate(134.98 16.63) rotate(5.93)">B</text><text class="cls-5" transform="matrix(1, 0.06, -0.06, 1, 141, 17.24)">u</text><text class="cls-5" transform="translate(146.48 17.54) rotate(1.03)">y</text><text class="cls-5" transform="translate(150.69 17.61) rotate(-0.52)"> </text><text class="cls-5" transform="translate(153.06 17.61) rotate(-2.52)">B</text><text class="cls-5" transform="matrix(1, -0.08, 0.08, 1, 159.05, 17.32)">i</text><text class="cls-5" transform="translate(161.34 17.14) rotate(-6.07)">t</text><text class="cls-5" transform="matrix(0.99, -0.15, 0.15, 0.99, 164.65, 16.81)">c</text><text class="cls-5" transform="translate(169.17 16.06) rotate(-11.32)">o</text><text class="cls-5" transform="matrix(0.99, -0.12, 0.12, 0.99, 174.07, 15.16)">i</text><text class="cls-5" transform="matrix(1, -0.07, 0.07, 1, 176.19, 14.87)">n</text></g></g></svg>