<svg viewBox="0 0 80.91 54" xmlns="http://www.w3.org/2000/svg"><path d="m38.81 11.8v3.12h30.4a1.8 1.8 0 0 0 2-1.56 1.8 1.8 0 0 0 -2-1.56z" fill="#9d8dc3"/><path d="m80.89 2.34a.08.08 0 0 0 0-.11c-3.39-3-11.77-3-15.14 0a.05.05 0 0 0 0 .08.07.07 0 0 0 0 .1c3.39 3 11.77 3 15.14 0a.05.05 0 0 0 0-.07z" fill="#6f59a6"/><path d="m63.36 2.34a.12.12 0 0 0 0-.11c-3.4-3-11.78-3-15.15 0a.05.05 0 0 0 0 .08.07.07 0 0 0 0 .1c3.39 3 11.77 3 15.14 0a.07.07 0 0 0 .01-.07z" fill="#6f59a6"/><path d="m63 11.8v-9.8a1.54 1.54 0 0 1 1.54-1.57 1.54 1.54 0 0 1 1.54 1.57v9.8z" fill="#8572b4"/><path d="m60 14.92v.14a4.5 4.5 0 0 0 4.51 4.5 4.5 4.5 0 0 0 4.5-4.5v-.14z" fill="#8572b4"/><path d="m40.54 11.8v3.12h-28.94a1.74 1.74 0 0 1 -1.87-1.56 1.74 1.74 0 0 1 1.87-1.56z" fill="#9d8dc3"/><path d="m0 2.34s0-.07 0-.11c3.4-3 11.77-3 15.15 0a.05.05 0 0 1 0 .08.07.07 0 0 1 0 .1c-3.4 3-11.77 3-15.15 0a.06.06 0 0 1 0-.07z" fill="#6f59a6"/><path d="m17.55 2.34s0-.07 0-.11c3.4-3 11.77-3 15.15 0a.05.05 0 0 1 0 .08.08.08 0 0 1 0 .1c-3.4 3-11.77 3-15.15 0a.05.05 0 0 1 0-.07z" fill="#6f59a6"/><g fill="#8572b4"><path d="m17.91 11.8v-9.8a1.54 1.54 0 0 0 -1.54-1.57 1.54 1.54 0 0 0 -1.54 1.57v9.8z"/><path d="m20.87 14.92v.14a4.49 4.49 0 0 1 -4.5 4.5 4.49 4.49 0 0 1 -4.5-4.5v-.14z"/><path d="m42.75 18.14v3.4a3.15 3.15 0 0 0 3.15 3.15h10.67a.88.88 0 0 1 .89.89v8.34h2.23a1 1 0 0 0 1-1v-8.54a3.12 3.12 0 0 0 -3.12-3.12h-10.5a.71.71 0 0 1 -.71-.71v-3.31z"/><path d="m38.1 18.14v3.4a3.15 3.15 0 0 1 -3.1 3.15h-10.72a.89.89 0 0 0 -.89.89v8.34h-2.22a1 1 0 0 1 -1-1v-8.54a3.12 3.12 0 0 1 3.12-3.12h10.5a.7.7 0 0 0 .7-.71v-3.31z"/></g><path d="m23.39 25.99h34.02v28.01h-34.02z" fill="#f2be78"/><path d="m44.51 25.98v7.87l-1.62-.67-1.29.67-.97-.83-1.44.83-1.33-.58-1.41.58v-7.87z" fill="#eaae68"/><circle cx="40.43" cy="12.9" fill="#b9aed6" r="8.54"/><text fill="#6f59a6" font-family="Montserrat-Light, Montserrat" font-size="6.76" transform="translate(23.74 41.7)">E<tspan letter-spacing="-.02em" x="4.4" y="0">x</tspan><tspan x="7.82" y="0">change </tspan><tspan x="8.28" y="8.11">Ether</tspan></text></svg>