<svg xmlns="http://www.w3.org/2000/svg" viewBox="0 0 570.46 259.77"><defs><style>.cls-1{fill:#e1eeee;}.cls-2{fill:#f26c57;}.cls-3{fill:#e25e50;}.cls-4{fill:#9ac1d1;}.cls-5{fill:#b3d5e5;}.cls-6{fill:#7fb1c1;}.cls-7{fill:#799eb2;}.cls-8{fill:#5b8d9e;}.cls-9{fill:#eab852;}.cls-10{fill:#ffcf64;}.cls-11{fill:#dda94b;}.cls-12{fill:#00babb;}.cls-13{fill:#00a5a0;}.cls-14{fill:#f9b0a1;}.cls-15{fill:#ef998f;}.cls-16{fill:#e0877e;}.cls-17{fill:#ffdf99;}.cls-18{fill:#ffe6b4;}.cls-19{fill:#ffd883;}.cls-20{fill:#84d0d3;}.cls-21{fill:#6fc6c6;}.cls-22{fill:#57bfbc;}.cls-23{fill:#cfcfce;stroke:#a09f9f;stroke-miterlimit:10;}</style></defs><title>Asset 11</title><g id="Layer_2" data-name="Layer 2"><g id="Layer_1-2" data-name="Layer 1"><path class="cls-1" d="M514.49,153.64V124.41H494.43V90.9h-32.8V73.79H440.24V49.55H380.35V67.37H356.11V25.31H292.66V51.69H273.41v15H245.6V28.16h-.37a33.16,33.16,0,0,0-65.56,0h-.37v10H147.21v16.4h-11.4V32.44H80.19v83.42h-27V195H27.67v52.76H542.8V153.64Z"/><rect class="cls-2" x="197.5" y="122.42" width="33.33" height="125.33"/><rect class="cls-3" x="203.98" y="139.44" width="2.27" height="108.31"/><rect class="cls-3" x="209.86" y="139.44" width="2.27" height="108.31"/><rect class="cls-3" x="215.73" y="139.44" width="2.27" height="108.31"/><rect class="cls-3" x="221.6" y="139.44" width="2.27" height="108.31"/><rect class="cls-3" x="227.48" y="139.44" width="2.27" height="108.31"/><polygon class="cls-4" points="186.47 70.12 186.47 61.79 178.42 61.79 178.42 53.12 162.8 53.12 162.8 61.79 162.8 70.12 174.73 70.12 174.73 247.75 197.5 247.75 197.5 70.12 186.47 70.12"/><polygon class="cls-5" points="162.76 70.12 162.76 61.79 162.76 53.12 143.7 53.12 143.7 61.79 135.65 61.79 135.65 70.12 125.31 70.12 125.31 247.75 174.73 247.75 174.73 70.12 162.76 70.12"/><rect class="cls-4" x="121.66" y="73.95" width="53.06" height="2.19"/><rect class="cls-4" x="130.41" y="78.19" width="3.47" height="3.34"/><rect class="cls-4" x="135.65" y="78.19" width="3.47" height="3.34"/><rect class="cls-4" x="140.89" y="78.19" width="3.47" height="3.34"/><rect class="cls-4" x="146.14" y="78.19" width="3.47" height="3.34"/><rect class="cls-4" x="151.38" y="78.19" width="3.47" height="3.34"/><rect class="cls-4" x="156.63" y="78.19" width="3.47" height="3.34"/><rect class="cls-4" x="161.87" y="78.19" width="3.47" height="3.34"/><rect class="cls-4" x="167.11" y="78.19" width="3.47" height="3.34"/><rect class="cls-6" x="178.97" y="78.19" width="3.47" height="3.34"/><rect class="cls-6" x="184.38" y="78.19" width="3.47" height="3.34"/><rect class="cls-6" x="189.79" y="78.19" width="3.47" height="3.34"/><rect class="cls-4" x="121.66" y="84.3" width="53.06" height="2.19"/><rect class="cls-4" x="130.41" y="88.54" width="3.47" height="3.34"/><rect class="cls-4" x="135.65" y="88.54" width="3.47" height="3.34"/><rect class="cls-4" x="140.89" y="88.54" width="3.47" height="3.34"/><rect class="cls-4" x="146.14" y="88.54" width="3.47" height="3.34"/><rect class="cls-4" x="151.38" y="88.54" width="3.47" height="3.34"/><rect class="cls-4" x="156.63" y="88.54" width="3.47" height="3.34"/><rect class="cls-4" x="161.87" y="88.54" width="3.47" height="3.34"/><rect class="cls-4" x="167.11" y="88.54" width="3.47" height="3.34"/><rect class="cls-6" x="174.73" y="73.95" width="26.77" height="2.19"/><rect class="cls-6" x="178.97" y="88.54" width="3.47" height="3.34"/><rect class="cls-6" x="184.38" y="88.54" width="3.47" height="3.34"/><rect class="cls-6" x="189.79" y="88.54" width="3.47" height="3.34"/><rect class="cls-6" x="174.73" y="84.3" width="26.77" height="2.19"/><rect class="cls-4" x="121.66" y="94.48" width="53.06" height="2.19"/><rect class="cls-4" x="130.41" y="98.72" width="3.47" height="3.34"/><rect class="cls-4" x="135.65" y="98.72" width="3.47" height="3.34"/><rect class="cls-4" x="140.89" y="98.72" width="3.47" height="3.34"/><rect class="cls-4" x="146.14" y="98.72" width="3.47" height="3.34"/><rect class="cls-4" x="151.38" y="98.72" width="3.47" height="3.34"/><rect class="cls-4" x="156.63" y="98.72" width="3.47" height="3.34"/><rect class="cls-4" x="161.87" y="98.72" width="3.47" height="3.34"/><rect class="cls-4" x="167.11" y="98.72" width="3.47" height="3.34"/><rect class="cls-6" x="178.97" y="98.72" width="3.47" height="3.34"/><rect class="cls-6" x="184.38" y="98.72" width="3.47" height="3.34"/><rect class="cls-6" x="189.79" y="98.72" width="3.47" height="3.34"/><rect class="cls-6" x="174.73" y="94.48" width="26.77" height="2.19"/><rect class="cls-4" x="121.66" y="104.66" width="53.06" height="2.19"/><rect class="cls-4" x="130.41" y="108.9" width="3.47" height="3.34"/><rect class="cls-4" x="135.65" y="108.9" width="3.47" height="3.34"/><rect class="cls-4" x="140.89" y="108.9" width="3.47" height="3.34"/><rect class="cls-4" x="146.14" y="108.9" width="3.47" height="3.34"/><rect class="cls-4" x="151.38" y="108.9" width="3.47" height="3.34"/><rect class="cls-4" x="156.63" y="108.9" width="3.47" height="3.34"/><rect class="cls-4" x="161.87" y="108.9" width="3.47" height="3.34"/><rect class="cls-4" x="167.11" y="108.9" width="3.47" height="3.34"/><rect class="cls-6" x="178.97" y="108.9" width="3.47" height="3.34"/><rect class="cls-6" x="184.38" y="108.9" width="3.47" height="3.34"/><rect class="cls-6" x="189.79" y="108.9" width="3.47" height="3.34"/><rect class="cls-6" x="174.73" y="104.66" width="26.77" height="2.19"/><rect class="cls-4" x="121.66" y="114.84" width="53.06" height="2.19"/><rect class="cls-4" x="130.41" y="119.08" width="3.47" height="3.34"/><rect class="cls-4" x="135.65" y="119.08" width="3.47" height="3.34"/><rect class="cls-4" x="140.89" y="119.08" width="3.47" height="3.34"/><rect class="cls-4" x="146.14" y="119.08" width="3.47" height="3.34"/><rect class="cls-4" x="151.38" y="119.08" width="3.47" height="3.34"/><rect class="cls-4" x="156.63" y="119.08" width="3.47" height="3.34"/><rect class="cls-4" x="161.87" y="119.08" width="3.47" height="3.34"/><rect class="cls-4" x="167.11" y="119.08" width="3.47" height="3.34"/><rect class="cls-6" x="178.97" y="119.08" width="3.47" height="3.34"/><rect class="cls-6" x="184.38" y="119.08" width="3.47" height="3.34"/><rect class="cls-6" x="189.79" y="119.08" width="3.47" height="3.34"/><rect class="cls-6" x="174.73" y="114.84" width="26.77" height="2.19"/><rect class="cls-4" x="121.66" y="125.02" width="53.06" height="2.19"/><rect class="cls-4" x="130.41" y="129.26" width="3.47" height="3.34"/><rect class="cls-4" x="135.65" y="129.26" width="3.47" height="3.34"/><rect class="cls-4" x="140.89" y="129.26" width="3.47" height="3.34"/><rect class="cls-4" x="146.14" y="129.26" width="3.47" height="3.34"/><rect class="cls-4" x="151.38" y="129.26" width="3.47" height="3.34"/><rect class="cls-4" x="156.63" y="129.26" width="3.47" height="3.34"/><rect class="cls-4" x="161.87" y="129.26" width="3.47" height="3.34"/><rect class="cls-4" x="167.11" y="129.26" width="3.47" height="3.34"/><rect class="cls-6" x="178.97" y="129.26" width="3.47" height="3.34"/><rect class="cls-6" x="184.38" y="129.26" width="3.47" height="3.34"/><rect class="cls-6" x="189.79" y="129.26" width="3.47" height="3.34"/><rect class="cls-6" x="174.73" y="125.02" width="26.77" height="2.19"/><rect class="cls-4" x="121.66" y="135.2" width="53.06" height="2.19"/><rect class="cls-4" x="130.41" y="139.44" width="3.47" height="3.34"/><rect class="cls-4" x="135.65" y="139.44" width="3.47" height="3.34"/><rect class="cls-4" x="140.89" y="139.44" width="3.47" height="3.34"/><rect class="cls-4" x="146.14" y="139.44" width="3.47" height="3.34"/><rect class="cls-4" x="151.38" y="139.44" width="3.47" height="3.34"/><rect class="cls-4" x="156.63" y="139.44" width="3.47" height="3.34"/><rect class="cls-4" x="161.87" y="139.44" width="3.47" height="3.34"/><rect class="cls-4" x="167.11" y="139.44" width="3.47" height="3.34"/><rect class="cls-6" x="178.97" y="139.44" width="3.47" height="3.34"/><rect class="cls-6" x="184.38" y="139.44" width="3.47" height="3.34"/><rect class="cls-6" x="189.79" y="139.44" width="3.47" height="3.34"/><rect class="cls-6" x="174.73" y="135.2" width="26.77" height="2.19"/><rect class="cls-4" x="121.66" y="145.38" width="53.06" height="2.19"/><rect class="cls-4" x="130.41" y="149.62" width="3.47" height="3.34"/><rect class="cls-4" x="135.65" y="149.62" width="3.47" height="3.34"/><rect class="cls-4" x="140.89" y="149.62" width="3.47" height="3.34"/><rect class="cls-4" x="146.14" y="149.62" width="3.47" height="3.34"/><rect class="cls-4" x="151.38" y="149.62" width="3.47" height="3.34"/><rect class="cls-4" x="156.63" y="149.62" width="3.47" height="3.34"/><rect class="cls-4" x="161.87" y="149.62" width="3.47" height="3.34"/><rect class="cls-4" x="167.11" y="149.62" width="3.47" height="3.34"/><rect class="cls-6" x="178.97" y="149.62" width="3.47" height="3.34"/><rect class="cls-6" x="184.38" y="149.62" width="3.47" height="3.34"/><rect class="cls-6" x="189.79" y="149.62" width="3.47" height="3.34"/><rect class="cls-6" x="174.73" y="145.38" width="26.77" height="2.19"/><rect class="cls-4" x="121.66" y="155.56" width="53.06" height="2.19"/><rect class="cls-4" x="130.41" y="159.8" width="3.47" height="3.34"/><rect class="cls-4" x="135.65" y="159.8" width="3.47" height="3.34"/><rect class="cls-4" x="140.89" y="159.8" width="3.47" height="3.34"/><rect class="cls-4" x="146.14" y="159.8" width="3.47" height="3.34"/><rect class="cls-4" x="151.38" y="159.8" width="3.47" height="3.34"/><rect class="cls-4" x="156.63" y="159.8" width="3.47" height="3.34"/><rect class="cls-4" x="161.87" y="159.8" width="3.47" height="3.34"/><rect class="cls-4" x="167.11" y="159.8" width="3.47" height="3.34"/><rect class="cls-6" x="178.97" y="159.8" width="3.47" height="3.34"/><rect class="cls-6" x="184.38" y="159.8" width="3.47" height="3.34"/><rect class="cls-6" x="189.79" y="159.8" width="3.47" height="3.34"/><rect class="cls-6" x="174.73" y="155.56" width="26.77" height="2.19"/><rect class="cls-4" x="121.66" y="165.74" width="53.06" height="2.19"/><rect class="cls-4" x="130.41" y="169.98" width="3.47" height="3.34"/><rect class="cls-4" x="135.65" y="169.98" width="3.47" height="3.34"/><rect class="cls-4" x="140.89" y="169.98" width="3.47" height="3.34"/><rect class="cls-4" x="146.14" y="169.98" width="3.47" height="3.34"/><rect class="cls-4" x="151.38" y="169.98" width="3.47" height="3.34"/><rect class="cls-4" x="156.63" y="169.98" width="3.47" height="3.34"/><rect class="cls-4" x="161.87" y="169.98" width="3.47" height="3.34"/><rect class="cls-4" x="167.11" y="169.98" width="3.47" height="3.34"/><rect class="cls-6" x="178.97" y="169.98" width="3.47" height="3.34"/><rect class="cls-6" x="184.38" y="169.98" width="3.47" height="3.34"/><rect class="cls-6" x="189.79" y="169.98" width="3.47" height="3.34"/><rect class="cls-6" x="174.73" y="165.74" width="26.77" height="2.19"/><rect class="cls-4" x="121.66" y="175.92" width="53.06" height="2.19"/><rect class="cls-4" x="130.41" y="180.17" width="3.47" height="3.34"/><rect class="cls-4" x="135.65" y="180.17" width="3.47" height="3.34"/><rect class="cls-4" x="140.89" y="180.17" width="3.47" height="3.34"/><rect class="cls-4" x="146.14" y="180.17" width="3.47" height="3.34"/><rect class="cls-4" x="151.38" y="180.17" width="3.47" height="3.34"/><rect class="cls-4" x="156.63" y="180.17" width="3.47" height="3.34"/><rect class="cls-4" x="161.87" y="180.17" width="3.47" height="3.34"/><rect class="cls-4" x="167.11" y="180.17" width="3.47" height="3.34"/><rect class="cls-6" x="178.97" y="180.17" width="3.47" height="3.34"/><rect class="cls-6" x="184.38" y="180.17" width="3.47" height="3.34"/><rect class="cls-6" x="189.79" y="180.17" width="3.47" height="3.34"/><rect class="cls-6" x="174.73" y="175.92" width="26.77" height="2.19"/><rect class="cls-4" x="121.66" y="186.1" width="53.06" height="2.19"/><rect class="cls-4" x="130.41" y="190.35" width="3.47" height="3.34"/><rect class="cls-4" x="135.65" y="190.35" width="3.47" height="3.34"/><rect class="cls-4" x="140.89" y="190.35" width="3.47" height="3.34"/><rect class="cls-4" x="146.14" y="190.35" width="3.47" height="3.34"/><rect class="cls-4" x="151.38" y="190.35" width="3.47" height="3.34"/><rect class="cls-4" x="156.63" y="190.35" width="3.47" height="3.34"/><rect class="cls-4" x="161.87" y="190.35" width="3.47" height="3.34"/><rect class="cls-4" x="167.11" y="190.35" width="3.47" height="3.34"/><rect class="cls-6" x="178.97" y="190.35" width="3.47" height="3.34"/><rect class="cls-6" x="184.38" y="190.35" width="3.47" height="3.34"/><rect class="cls-6" x="189.79" y="190.35" width="3.47" height="3.34"/><rect class="cls-6" x="174.73" y="186.1" width="26.77" height="2.19"/><rect class="cls-4" x="121.66" y="196.28" width="53.06" height="2.19"/><rect class="cls-4" x="130.41" y="200.53" width="3.47" height="3.34"/><rect class="cls-4" x="135.65" y="200.53" width="3.47" height="3.34"/><rect class="cls-4" x="140.89" y="200.53" width="3.47" height="3.34"/><rect class="cls-4" x="146.14" y="200.53" width="3.47" height="3.34"/><rect class="cls-4" x="151.38" y="200.53" width="3.47" height="3.34"/><rect class="cls-4" x="156.63" y="200.53" width="3.47" height="3.34"/><rect class="cls-4" x="161.87" y="200.53" width="3.47" height="3.34"/><rect class="cls-4" x="167.11" y="200.53" width="3.47" height="3.34"/><rect class="cls-6" x="178.97" y="200.53" width="3.47" height="3.34"/><rect class="cls-6" x="184.38" y="200.53" width="3.47" height="3.34"/><rect class="cls-6" x="189.79" y="200.53" width="3.47" height="3.34"/><rect class="cls-6" x="174.73" y="196.28" width="26.77" height="2.19"/><rect class="cls-4" x="121.66" y="206.46" width="53.06" height="2.19"/><rect class="cls-4" x="130.41" y="210.71" width="3.47" height="3.34"/><rect class="cls-4" x="135.65" y="210.71" width="3.47" height="3.34"/><rect class="cls-4" x="140.89" y="210.71" width="3.47" height="3.34"/><rect class="cls-4" x="146.14" y="210.71" width="3.47" height="3.34"/><rect class="cls-4" x="151.38" y="210.71" width="3.47" height="3.34"/><rect class="cls-4" x="156.63" y="210.71" width="3.47" height="3.34"/><rect class="cls-4" x="161.87" y="210.71" width="3.47" height="3.34"/><rect class="cls-4" x="167.11" y="210.71" width="3.47" height="3.34"/><rect class="cls-6" x="178.97" y="210.71" width="3.47" height="3.34"/><rect class="cls-6" x="184.38" y="210.71" width="3.47" height="3.34"/><rect class="cls-6" x="189.79" y="210.71" width="3.47" height="3.34"/><rect class="cls-6" x="174.73" y="206.46" width="26.77" height="2.19"/><rect class="cls-4" x="121.66" y="216.65" width="53.06" height="2.19"/><rect class="cls-4" x="130.41" y="220.89" width="3.47" height="3.34"/><rect class="cls-4" x="135.65" y="220.89" width="3.47" height="3.34"/><rect class="cls-4" x="140.89" y="220.89" width="3.47" height="3.34"/><rect class="cls-4" x="146.14" y="220.89" width="3.47" height="3.34"/><rect class="cls-4" x="151.38" y="220.89" width="3.47" height="3.34"/><rect class="cls-4" x="156.63" y="220.89" width="3.47" height="3.34"/><rect class="cls-4" x="161.87" y="220.89" width="3.47" height="3.34"/><rect class="cls-4" x="167.11" y="220.89" width="3.47" height="3.34"/><rect class="cls-6" x="178.97" y="220.89" width="3.47" height="3.34"/><rect class="cls-6" x="184.38" y="220.89" width="3.47" height="3.34"/><rect class="cls-6" x="189.79" y="220.89" width="3.47" height="3.34"/><rect class="cls-6" x="174.73" y="216.65" width="26.77" height="2.19"/><rect class="cls-4" x="121.66" y="226.83" width="53.06" height="2.19"/><rect class="cls-4" x="130.41" y="231.07" width="3.47" height="3.34"/><rect class="cls-4" x="135.65" y="231.07" width="3.47" height="3.34"/><rect class="cls-4" x="140.89" y="231.07" width="3.47" height="3.34"/><rect class="cls-4" x="146.14" y="231.07" width="3.47" height="3.34"/><rect class="cls-4" x="151.38" y="231.07" width="3.47" height="3.34"/><rect class="cls-4" x="156.63" y="231.07" width="3.47" height="3.34"/><rect class="cls-4" x="161.87" y="231.07" width="3.47" height="3.34"/><rect class="cls-4" x="167.11" y="231.07" width="3.47" height="3.34"/><rect class="cls-6" x="178.97" y="231.07" width="3.47" height="3.34"/><rect class="cls-6" x="184.38" y="231.07" width="3.47" height="3.34"/><rect class="cls-6" x="189.79" y="231.07" width="3.47" height="3.34"/><rect class="cls-6" x="174.73" y="226.83" width="26.77" height="2.19"/><rect class="cls-4" x="121.66" y="237.01" width="53.06" height="2.19"/><rect class="cls-4" x="130.41" y="241.25" width="3.47" height="3.34"/><rect class="cls-4" x="135.65" y="241.25" width="3.47" height="3.34"/><rect class="cls-4" x="140.89" y="241.25" width="3.47" height="3.34"/><rect class="cls-4" x="146.14" y="241.25" width="3.47" height="3.34"/><rect class="cls-4" x="151.38" y="241.25" width="3.47" height="3.34"/><rect class="cls-4" x="156.63" y="241.25" width="3.47" height="3.34"/><rect class="cls-4" x="161.87" y="241.25" width="3.47" height="3.34"/><rect class="cls-4" x="167.11" y="241.25" width="3.47" height="3.34"/><rect class="cls-6" x="178.97" y="241.25" width="3.47" height="3.34"/><rect class="cls-6" x="184.38" y="241.25" width="3.47" height="3.34"/><rect class="cls-6" x="189.79" y="241.25" width="3.47" height="3.34"/><rect class="cls-6" x="174.73" y="237.01" width="26.77" height="2.19"/><rect class="cls-7" x="291.33" y="150.16" width="42.32" height="97.59"/><rect class="cls-8" x="291.33" y="159.03" width="32.45" height="3.07"/><rect class="cls-8" x="291.33" y="166.37" width="32.45" height="3.07"/><rect class="cls-8" x="291.33" y="173.71" width="32.45" height="3.07"/><rect class="cls-8" x="291.33" y="181.04" width="32.45" height="3.07"/><rect class="cls-8" x="291.33" y="188.38" width="32.45" height="3.07"/><rect class="cls-8" x="291.33" y="195.72" width="32.45" height="3.07"/><rect class="cls-8" x="291.33" y="203.06" width="32.45" height="3.07"/><rect class="cls-8" x="291.33" y="210.39" width="32.45" height="3.07"/><rect class="cls-8" x="291.33" y="217.73" width="32.45" height="3.07"/><rect class="cls-8" x="291.33" y="225.07" width="32.45" height="3.07"/><rect class="cls-8" x="291.33" y="232.41" width="32.45" height="3.07"/><rect class="cls-9" x="373.3" y="110.08" width="27.6" height="137.67"/><polygon class="cls-9" points="400.55 93.44 393.13 93.44 393.13 80.82 373.3 80.82 373.3 93.44 373.3 107.01 400.55 107.01 400.55 93.44"/><rect class="cls-10" x="333.65" y="110.08" width="39.65" height="137.67"/><polygon class="cls-10" points="341.07 80.82 341.07 93.44 333.65 93.44 333.65 107.01 373.3 107.01 373.3 93.44 373.3 80.82 341.07 80.82"/><rect class="cls-9" x="329.39" y="107.01" width="43.91" height="3.07"/><rect class="cls-11" x="373.3" y="107.01" width="30.31" height="3.07"/><rect class="cls-9" x="337.44" y="115.08" width="31.6" height="3.98"/><rect class="cls-9" x="337.44" y="122.46" width="31.6" height="3.98"/><rect class="cls-9" x="337.44" y="129.83" width="31.6" height="3.98"/><rect class="cls-9" x="337.44" y="137.21" width="31.6" height="3.98"/><rect class="cls-9" x="337.44" y="144.59" width="31.6" height="3.98"/><rect class="cls-9" x="337.44" y="151.96" width="31.6" height="3.98"/><rect class="cls-9" x="337.44" y="159.34" width="31.6" height="3.98"/><rect class="cls-9" x="337.44" y="166.72" width="31.6" height="3.98"/><rect class="cls-9" x="337.44" y="174.09" width="31.6" height="3.98"/><rect class="cls-9" x="337.44" y="181.47" width="31.6" height="3.98"/><rect class="cls-9" x="337.44" y="188.85" width="31.6" height="3.98"/><rect class="cls-9" x="337.44" y="196.22" width="31.6" height="3.98"/><rect class="cls-9" x="337.44" y="203.6" width="31.6" height="3.98"/><rect class="cls-9" x="337.44" y="210.97" width="31.6" height="3.98"/><rect class="cls-9" x="337.44" y="218.35" width="31.6" height="3.98"/><rect class="cls-9" x="337.44" y="225.73" width="31.6" height="3.98"/><rect class="cls-9" x="337.44" y="233.1" width="31.6" height="3.98"/><rect class="cls-11" x="377.58" y="115.08" width="19.05" height="3.98"/><rect class="cls-11" x="377.58" y="122.46" width="19.05" height="3.98"/><rect class="cls-11" x="377.58" y="129.83" width="19.05" height="3.98"/><rect class="cls-11" x="377.58" y="137.21" width="19.05" height="3.98"/><rect class="cls-11" x="377.58" y="144.59" width="19.05" height="3.98"/><rect class="cls-11" x="377.58" y="151.96" width="19.05" height="3.98"/><rect class="cls-11" x="377.58" y="159.34" width="19.05" height="3.98"/><rect class="cls-11" x="377.58" y="166.72" width="19.05" height="3.98"/><rect class="cls-11" x="377.58" y="174.09" width="19.05" height="3.98"/><rect class="cls-11" x="377.58" y="181.47" width="19.05" height="3.98"/><rect class="cls-11" x="377.58" y="188.85" width="19.05" height="3.98"/><rect class="cls-11" x="377.58" y="196.22" width="19.05" height="3.98"/><rect class="cls-11" x="377.58" y="203.6" width="19.05" height="3.98"/><rect class="cls-11" x="377.58" y="210.97" width="19.05" height="3.98"/><rect class="cls-11" x="377.58" y="218.35" width="19.05" height="3.98"/><rect class="cls-11" x="377.58" y="225.73" width="19.05" height="3.98"/><rect class="cls-11" x="377.58" y="233.1" width="19.05" height="3.98"/><rect class="cls-12" x="457.48" y="190.72" width="68.8" height="57.04"/><rect class="cls-13" x="502.43" y="197.49" width="13.77" height="4.63"/><rect class="cls-13" x="502.43" y="206.29" width="13.77" height="4.63"/><rect class="cls-13" x="502.43" y="215.08" width="13.77" height="4.63"/><rect class="cls-13" x="502.43" y="223.88" width="13.77" height="4.63"/><rect class="cls-13" x="502.43" y="232.68" width="13.77" height="4.63"/><rect class="cls-13" x="484.26" y="197.49" width="13.77" height="4.63"/><rect class="cls-13" x="484.26" y="206.29" width="13.77" height="4.63"/><rect class="cls-13" x="484.26" y="215.08" width="13.77" height="4.63"/><rect class="cls-13" x="484.26" y="223.88" width="13.77" height="4.63"/><rect class="cls-13" x="484.26" y="232.68" width="13.77" height="4.63"/><rect class="cls-13" x="465.51" y="197.49" width="13.77" height="4.63"/><rect class="cls-13" x="465.51" y="206.29" width="13.77" height="4.63"/><rect class="cls-13" x="465.51" y="215.08" width="13.77" height="4.63"/><rect class="cls-13" x="465.51" y="223.88" width="13.77" height="4.63"/><rect class="cls-13" x="465.51" y="232.68" width="13.77" height="4.63"/><rect class="cls-13" x="457.48" y="186.9" width="73.78" height="3.82"/><rect class="cls-12" x="457.48" y="180.3" width="68.8" height="6.6"/><rect class="cls-14" x="400.9" y="133.81" width="33.82" height="113.94"/><rect class="cls-15" x="434.72" y="133.81" width="22.75" height="113.94"/><path class="cls-16" d="M434.72,133.81v-5.64h25.46A2.83,2.83,0,0,1,463,131h0a2.83,2.83,0,0,1-2.83,2.82Z"/><rect class="cls-15" x="400.9" y="128.17" width="33.82" height="5.64"/><rect class="cls-15" x="403.62" y="137.21" width="24.56" height="3.98"/><rect class="cls-15" x="403.62" y="144.59" width="24.56" height="3.98"/><rect class="cls-15" x="403.62" y="151.96" width="24.56" height="3.98"/><rect class="cls-15" x="403.62" y="159.34" width="24.56" height="3.98"/><rect class="cls-15" x="403.62" y="166.72" width="24.56" height="3.98"/><rect class="cls-15" x="403.62" y="174.09" width="24.56" height="3.98"/><rect class="cls-15" x="403.62" y="181.47" width="24.56" height="3.98"/><rect class="cls-15" x="403.62" y="188.85" width="24.56" height="3.98"/><rect class="cls-15" x="403.62" y="196.22" width="24.56" height="3.98"/><rect class="cls-16" x="440.46" y="137.21" width="12.28" height="3.98"/><rect class="cls-16" x="440.46" y="144.59" width="12.28" height="3.98"/><rect class="cls-16" x="440.46" y="151.96" width="12.28" height="3.98"/><rect class="cls-16" x="440.46" y="159.34" width="12.28" height="3.98"/><rect class="cls-16" x="440.46" y="166.72" width="12.28" height="3.98"/><rect class="cls-16" x="440.46" y="174.09" width="12.28" height="3.98"/><rect class="cls-16" x="440.46" y="181.47" width="12.28" height="3.98"/><rect class="cls-16" x="440.46" y="188.85" width="12.28" height="3.98"/><rect class="cls-16" x="440.46" y="196.22" width="12.28" height="3.98"/><path class="cls-17" d="M130.93,175.53c-3-4.75-6.59-7.62-12.19-7.62h0v-7h4.06V157H101.29v10.89h8.52v63.47h21.68V179.2a12.09,12.09,0,0,0-.56-3.67Z"/><path class="cls-18" d="M101.29,167.91V157H76.42v3.92h4.06v7h-.9a14.34,14.34,0,0,0-12.42,7.14h0a5.94,5.94,0,0,0-.81,3v53.34h43.46V167.91Z"/><rect class="cls-17" x="49.21" y="231.38" width="48.3" height="16.37"/><rect class="cls-19" x="97.51" y="231.38" width="35" height="16.37"/><rect class="cls-10" x="102.14" y="239.57" width="10.12" height="8.19"/><rect class="cls-10" x="113.54" y="239.57" width="3.86" height="8.19"/><rect class="cls-10" x="118.6" y="239.57" width="4.86" height="8.19"/><rect class="cls-10" x="124.57" y="239.57" width="5.06" height="8.19"/><rect class="cls-19" x="58.52" y="239.13" width="29.95" height="8.62"/><rect class="cls-17" x="71.32" y="186.01" width="5.1" height="45.38"/><rect class="cls-17" x="81.41" y="186.01" width="5.1" height="45.38"/><rect class="cls-17" x="90.51" y="186.01" width="5.1" height="45.38"/><rect class="cls-17" x="99.61" y="186.01" width="5.1" height="45.38"/><rect class="cls-19" x="112.92" y="186.01" width="5.1" height="45.38"/><rect class="cls-19" x="122.76" y="186.01" width="5.1" height="45.38"/><rect class="cls-17" x="88.01" y="163.96" width="21.8" height="3.95"/><rect class="cls-19" x="101.29" y="163.96" width="11.63" height="3.95"/><path class="cls-20" d="M258.63,31.66h-1.52V54.89h-7.4v12h-3.88a6.86,6.86,0,0,0-4.07,1.33l-4.23,3.12s-.06.11,0,.11h-.19c-.09,0,0,.15,0,.15V90.21l-6.2,6.23a.14.14,0,0,0,.12.22H231V162.1l.13-.12-4.44,3.76v73.45h31.92V138.72h0V51.42h0Z"/><path class="cls-21" d="M286.24,113.54V96.66H286a.14.14,0,0,0,.13-.22l-3.8-6.23V71.57a.15.15,0,0,0-.15-.15h-.05a.06.06,0,0,0,0-.11l-4.26-3.12a6.86,6.86,0,0,0-4.07-1.33H270.6v-12H260.48V31.66h-1.82V51.42h0V239.19h32.71V108.9Z"/><rect class="cls-21" x="226.7" y="239.19" width="31.92" height="8.56"/><rect class="cls-21" x="230.83" y="231.07" width="22.86" height="3.34"/><rect class="cls-21" x="230.83" y="225.15" width="22.86" height="3.34"/><rect class="cls-21" x="230.83" y="219.24" width="22.86" height="3.34"/><rect class="cls-21" x="230.83" y="212.33" width="22.86" height="3.34"/><rect class="cls-21" x="230.83" y="206.41" width="22.86" height="3.34"/><rect class="cls-21" x="230.83" y="200.5" width="22.86" height="3.34"/><rect class="cls-21" x="230.83" y="193.58" width="22.86" height="3.34"/><rect class="cls-21" x="230.83" y="187.67" width="22.86" height="3.34"/><rect class="cls-21" x="230.83" y="181.75" width="22.86" height="3.34"/><rect class="cls-21" x="230.83" y="175.84" width="22.86" height="3.34"/><rect class="cls-21" x="230.83" y="168.93" width="22.86" height="3.34"/><rect class="cls-21" x="237.97" y="163.15" width="15.72" height="3.34"/><rect class="cls-21" x="245.83" y="156.65" width="7.86" height="3.34"/><rect class="cls-21" x="250.66" y="151.29" width="3.03" height="2.21"/><rect class="cls-22" x="263.38" y="142.96" width="22.86" height="3.34"/><rect class="cls-22" x="263.38" y="150.16" width="22.86" height="3.34"/><rect class="cls-22" x="263.38" y="157.36" width="22.86" height="3.34"/><rect class="cls-22" x="263.38" y="164.56" width="22.86" height="3.34"/><rect class="cls-22" x="263.38" y="171.76" width="22.86" height="3.34"/><rect class="cls-22" x="263.38" y="178.96" width="22.86" height="3.34"/><rect class="cls-22" x="263.38" y="186.16" width="22.86" height="3.34"/><rect class="cls-22" x="263.38" y="193.36" width="22.86" height="3.34"/><rect class="cls-22" x="263.38" y="200.56" width="22.86" height="3.34"/><rect class="cls-22" x="263.38" y="207.76" width="22.86" height="3.34"/><rect class="cls-22" x="263.38" y="214.96" width="22.86" height="3.34"/><rect class="cls-22" x="263.38" y="222.16" width="22.86" height="3.34"/><rect class="cls-22" x="263.38" y="229.36" width="22.86" height="3.34"/><rect class="cls-22" x="270.52" y="137.18" width="15.72" height="3.34"/><rect class="cls-22" x="278.38" y="130.69" width="7.86" height="3.34"/><rect class="cls-22" x="283.21" y="125.33" width="3.03" height="2.21"/><rect class="cls-22" x="258.62" y="239.19" width="32.71" height="8.56"/><polygon class="cls-21" points="235.46 103.98 239.93 103.98 239.93 154.55 235.46 158.32 235.46 103.98"/><polygon class="cls-21" points="242.58 103.98 247.05 103.98 247.05 148.62 242.58 152.4 242.58 103.98"/><polygon class="cls-21" points="249.71 103.98 254.17 103.98 254.17 142.53 249.71 146.3 249.71 103.98"/><polygon class="cls-22" points="263.38 103.98 268.25 103.98 268.25 129.94 263.38 134.38 263.38 103.98"/><polygon class="cls-22" points="270.52 103.98 275.39 103.98 275.39 123.45 270.52 127.89 270.52 103.98"/><polygon class="cls-22" points="277.66 103.98 282.52 103.98 282.52 116.96 277.66 121.4 277.66 103.98"/><rect class="cls-22" x="263.38" y="76.14" width="12.71" height="3.6"/><rect class="cls-22" x="263.38" y="82.86" width="12.71" height="3.6"/><rect class="cls-21" x="241.61" y="76.14" width="12.71" height="3.6"/><rect class="cls-21" x="241.61" y="82.86" width="12.71" height="3.6"/><rect class="cls-23" x="0.5" y="247.75" width="569.46" height="11.51" rx="5.76" ry="5.76"/></g></g></svg>