<svg xmlns="http://www.w3.org/2000/svg" viewBox="0 0 70.11 95.48"><defs><style>.cls-1{fill:#98c877;}.cls-2{fill:#b1d396;}.cls-3{fill:#80be56;}.cls-4{font-size:10.37px;fill:#fff;font-family:Montserrat-Regular, Montserrat;}.cls-5{letter-spacing:-0.01em;}.cls-6{letter-spacing:-0.02em;}</style></defs><title>Asset 12</title><g id="Layer_2" data-name="Layer 2"><g id="Layer_1-2" data-name="Layer 1"><path class="cls-1" d="M35.06.07S64.11-2.42,69.39,22.84a37.27,37.27,0,0,1-2.77,22.9c-2.51,5.57-6.39,13-11.22,18.45,0,0-11.87,14.41-12.43,18.36H35.06Z"/><path class="cls-2" d="M35.06.07S6-2.42.72,22.84a37.27,37.27,0,0,0,2.77,22.9c2.52,5.57,6.4,13,11.23,18.45,0,0,11.86,14.41,12.43,18.36h7.91Z"/><polygon class="cls-1" points="50.84 69.97 42.46 82.55 27.4 82.55 19.28 69.97 50.84 69.97"/><polygon class="cls-3" points="35.06 82.55 42.71 82.55 50.84 69.97 35.06 69.97 35.06 82.55"/><rect class="cls-3" x="29.39" y="82.55" width="1.07" height="4.54"/><rect class="cls-3" x="39.33" y="82.55" width="1.07" height="4.54"/><rect class="cls-3" x="27.58" y="87.09" width="14.96" height="8.39"/><text class="cls-4" transform="translate(25.72 25.5)">Sell<tspan x="-10.18" y="12.44">Bi</tspan><tspan class="cls-5" x="0.08" y="12.44">t</tspan><tspan class="cls-6" x="4.24" y="12.44">c</tspan><tspan x="9.87" y="12.44">oin </tspan><tspan x="-3.22" y="24.88">Cash</tspan></text></g></g></svg>