<svg viewBox="0 0 70.11 95.48" xmlns="http://www.w3.org/2000/svg"><path d="m35.06.07s29.05-2.49 34.33 22.77a37.27 37.27 0 0 1 -2.77 22.9c-2.51 5.57-6.39 13-11.22 18.45 0 0-11.87 14.41-12.43 18.36h-7.91z" fill="#98c877"/><path d="m35.06.07s-29.06-2.49-34.34 22.77a37.27 37.27 0 0 0 2.77 22.9c2.52 5.57 6.4 13 11.23 18.45 0 0 11.86 14.41 12.43 18.36h7.91z" fill="#b1d396"/><path d="m50.84 69.97-8.38 12.58h-15.06l-8.12-12.58z" fill="#98c877"/><g fill="#80be56"><path d="m35.06 82.55h7.65l8.13-12.58h-15.78z"/><path d="m29.39 82.55h1.07v4.54h-1.07z"/><path d="m39.33 82.55h1.07v4.54h-1.07z"/><path d="m27.58 87.09h14.96v8.39h-14.96z"/></g><text fill="#fff" font-family="Montserrat-Regular, Montserrat" font-size="10.37" transform="translate(9.68 29.5)">E<tspan letter-spacing="-.02em" x="6.8" y="0">x</tspan><tspan x="12.29" y="0">change</tspan><tspan x="5.86" y="12.44">Bi</tspan><tspan letter-spacing="-.01em" x="16.13" y="12.44">t</tspan><tspan letter-spacing="-.02em" x="20.29" y="12.44">c</tspan><tspan x="25.92" y="12.44">oin </tspan><tspan x="12.82" y="24.88">Cash</tspan></text></svg>