<svg xmlns="http://www.w3.org/2000/svg" viewBox="0 0 80.91 54"><defs><style>.cls-1{fill:#9d8dc3;}.cls-2,.cls-7{fill:#6f59a6;}.cls-3{fill:#8572b4;}.cls-4{fill:#f2be78;}.cls-5{fill:#eaae68;}.cls-6{fill:#b9aed6;}.cls-7{font-size:6.76px;font-family:Montserrat-Light, Montserrat;}</style></defs><title>Asset 18</title><g id="Layer_2" data-name="Layer 2"><g id="Layer_1-2" data-name="Layer 1"><path class="cls-1" d="M38.81,11.8v3.12h30.4a1.8,1.8,0,0,0,2-1.56h0a1.8,1.8,0,0,0-2-1.56Z"/><path class="cls-2" d="M80.89,2.34a.08.08,0,0,0,0-.11h0c-3.39-3-11.77-3-15.14,0h0a.05.05,0,0,0,0,.08.07.07,0,0,0,0,.1h0c3.39,3,11.77,3,15.14,0h0A.05.05,0,0,0,80.89,2.34Z"/><path class="cls-2" d="M63.36,2.34a.12.12,0,0,0,0-.11h0c-3.4-3-11.78-3-15.15,0h0a.05.05,0,0,0,0,.08.07.07,0,0,0,0,.1h0c3.39,3,11.77,3,15.14,0h0A.07.07,0,0,0,63.36,2.34Z"/><path class="cls-3" d="M63,11.8V2A1.54,1.54,0,0,1,64.54.43h0A1.54,1.54,0,0,1,66.08,2V11.8Z"/><path class="cls-3" d="M60,14.92v.14a4.5,4.5,0,0,0,4.51,4.5h0a4.5,4.5,0,0,0,4.5-4.5v-.14Z"/><path class="cls-1" d="M40.54,11.8v3.12H11.6a1.74,1.74,0,0,1-1.87-1.56h0A1.74,1.74,0,0,1,11.6,11.8Z"/><path class="cls-2" d="M0,2.34s0-.07,0-.11H0c3.4-3,11.77-3,15.15,0h0a.05.05,0,0,1,0,.08.07.07,0,0,1,0,.1h0c-3.4,3-11.77,3-15.15,0H0A.06.06,0,0,1,0,2.34Z"/><path class="cls-2" d="M17.55,2.34s0-.07,0-.11h0c3.4-3,11.77-3,15.15,0h0a.05.05,0,0,1,0,.08.08.08,0,0,1,0,.1h0c-3.4,3-11.77,3-15.15,0h0A.05.05,0,0,1,17.55,2.34Z"/><path class="cls-3" d="M17.91,11.8V2A1.54,1.54,0,0,0,16.37.43h0A1.54,1.54,0,0,0,14.83,2V11.8Z"/><path class="cls-3" d="M20.87,14.92v.14a4.49,4.49,0,0,1-4.5,4.5h0a4.49,4.49,0,0,1-4.5-4.5v-.14Z"/><path class="cls-3" d="M42.75,18.14v3.4a3.15,3.15,0,0,0,3.15,3.15H56.57a.88.88,0,0,1,.89.89v8.34h2.23a1,1,0,0,0,1-1V24.38a3.12,3.12,0,0,0-3.12-3.12H47.07a.71.71,0,0,1-.71-.71V17.24Z"/><path class="cls-3" d="M38.1,18.14v3.4A3.15,3.15,0,0,1,35,24.69H24.28a.89.89,0,0,0-.89.89v8.34H21.17a1,1,0,0,1-1-1V24.38a3.12,3.12,0,0,1,3.12-3.12H33.79a.7.7,0,0,0,.7-.71V17.24Z"/><rect class="cls-4" x="23.39" y="25.99" width="34.02" height="28.01"/><polygon class="cls-5" points="44.51 25.98 44.51 33.85 42.89 33.18 41.6 33.85 40.63 33.02 39.19 33.85 37.86 33.27 36.45 33.85 36.45 25.98 44.51 25.98"/><circle class="cls-6" cx="40.43" cy="12.9" r="8.54"/><text class="cls-7" transform="translate(35.09 41.7)">Sell<tspan x="-3.07" y="8.11">Ether</tspan></text></g></g></svg>