<svg fill="none" height="80" viewBox="0 0 84 80" width="84" xmlns="http://www.w3.org/2000/svg"><path d="m60 20h-48c-3.33 0-5.97 2.67-5.97 6l-.03 36c0 3.33 2.67 6 6 6h48c3.33 0 6-2.67 6-6v-36c0-3.33-2.67-6-6-6zm0 42h-48v-18h48zm0-30h-48v-6h48z" fill="#0c6cf2"/><g fill="#fff"><ellipse cx="64" cy="20" rx="20" ry="20"/><ellipse cx="64" cy="20" rx="20" ry="20"/><ellipse cx="64" cy="20" rx="20" ry="20"/><ellipse cx="64" cy="20" rx="20" ry="20"/></g><path d="m64 4c-8.832 0-16 7.168-16 16s7.168 16 16 16 16-7.168 16-16-7.168-16-16-16zm-3.2 24-8-8 2.256-2.256 5.744 5.728 12.144-12.144 2.256 2.272z" fill="#00994c"/></svg>