<svg fill="none" height="80" viewBox="0 0 84 80" width="84" xmlns="http://www.w3.org/2000/svg"><path d="m60 20h-48c-3.33 0-5.97 2.67-5.97 6l-.03 36c0 3.33 2.67 6 6 6h48c3.33 0 6-2.67 6-6v-36c0-3.33-2.67-6-6-6zm0 42h-48v-18h48zm0-30h-48v-6h48z" fill="#0c6cf2"/><g fill="#fff"><ellipse cx="64" cy="20" rx="20" ry="20"/><ellipse cx="64" cy="20" rx="20" ry="20"/><ellipse cx="64" cy="20" rx="20" ry="20"/><ellipse cx="64" cy="20" rx="20" ry="20"/><path d="m61.3335 10.6667h5.33333v18.6667h-5.33333z"/></g><path d="m64 36c8.832 0 16-7.168 16-16s-7.168-16-16-16-16 7.168-16 16 7.168 16 16 16zm-1.6-24h3.2v9.6h-3.2zm0 12.8h3.2v3.2h-3.2z" fill="#cf1726"/></svg>