<svg width="14" height="15" viewBox="0 0 14 15" fill="none" xmlns="http://www.w3.org/2000/svg">
<g id="Title Icon">
<path id="Union" fill-rule="evenodd" clip-rule="evenodd" d="M11.667 7.50008C11.667 10.0774 9.57765 12.1667 7.00033 12.1667C4.423 12.1667 2.33366 10.0774 2.33366 7.50008C2.33366 4.92275 4.423 2.83341 7.00033 2.83341C9.57765 2.83341 11.667 4.92275 11.667 7.50008ZM12.8337 7.50008C12.8337 10.7217 10.222 13.3334 7.00033 13.3334C3.77866 13.3334 1.16699 10.7217 1.16699 7.50008C1.16699 4.27842 3.77866 1.66675 7.00033 1.66675C10.222 1.66675 12.8337 4.27842 12.8337 7.50008ZM6.1074 4.1777C6.53376 4.00109 7.00291 3.95488 7.45554 4.04492C7.90816 4.13495 8.32392 4.35718 8.65024 4.6835C8.97656 5.00982 9.19879 5.42558 9.28882 5.87821C9.37886 6.33083 9.33265 6.79998 9.15604 7.22634C8.97944 7.65271 8.68037 8.01712 8.29666 8.27351C7.91294 8.5299 7.46181 8.66675 7.00033 8.66675C6.67816 8.66675 6.41699 8.40558 6.41699 8.08342C6.41699 7.76125 6.67816 7.50008 7.00033 7.50008C7.23107 7.50008 7.45663 7.43166 7.64849 7.30346C7.84035 7.17527 7.98988 6.99306 8.07819 6.77988C8.16649 6.5667 8.18959 6.33212 8.14458 6.10581C8.09956 5.8795 7.98844 5.67162 7.82528 5.50846C7.66212 5.3453 7.45424 5.23418 7.22793 5.18917C7.00162 5.14415 6.76704 5.16725 6.55386 5.25556C6.34068 5.34386 6.15847 5.49339 6.03028 5.68525C5.90208 5.87711 5.83366 6.10267 5.83366 6.33342C5.83366 6.65558 5.57249 6.91675 5.25033 6.91675C4.92816 6.91675 4.66699 6.65558 4.66699 6.33342C4.66699 5.87193 4.80384 5.4208 5.06023 5.03709C5.31662 4.65337 5.68104 4.3543 6.1074 4.1777ZM7.00033 9.25008C7.32249 9.25008 7.58366 9.51125 7.58366 9.83342V10.4167C7.58366 10.7389 7.32249 11.0001 7.00033 11.0001C6.67816 11.0001 6.41699 10.7389 6.41699 10.4167V9.83342C6.41699 9.51125 6.67816 9.25008 7.00033 9.25008Z" fill="#98A1B2"/>
</g>
</svg>
