<svg width="102" height="88" viewBox="0 0 102 88" fill="none" xmlns="http://www.w3.org/2000/svg">
<path d="M73.05 46.12C71.01 35.77 61.92 28 51 28C42.33 28 34.8 32.92 31.05 40.12C22.02 41.08 15 48.73 15 58C15 67.93 23.07 76 33 76H72C80.28 76 87 69.28 87 61C87 53.08 80.85 46.66 73.05 46.12ZM57 55V67H45V55H36L51 40L66 55H57Z" fill="#0C6CF2"/>
<g clip-path="url(#clip0)">
<circle cx="82" cy="20" r="20" fill="white"/>
<path fill-rule="evenodd" clip-rule="evenodd" d="M82 36C90.8366 36 98 28.8366 98 20C98 11.1634 90.8366 4 82 4C73.1634 4 66 11.1634 66 20C66 28.8366 73.1634 36 82 36ZM72.2091 20.8758L75.0376 18.0474L79.0376 22.0474L89.5425 11.5425L92.3709 14.3709L79.0376 27.7042L72.2091 20.8758Z" fill="#17CF73"/>
</g>
<defs>
<clipPath id="clip0">
<rect width="40" height="40" fill="white" transform="translate(62)"/>
</clipPath>
</defs>
</svg>
