<?xml version="1.0" encoding="utf-8"?>
<!-- Generator: Adobe Illustrator 23.0.2, SVG Export Plug-In . SVG Version: 6.00 Build 0)  -->
<svg version="1.1" id="Layer_1" xmlns="http://www.w3.org/2000/svg" xmlns:xlink="http://www.w3.org/1999/xlink" x="0px" y="0px"
	 viewBox="0 0 600 400" style="enable-background:new 0 0 600 400;" xml:space="preserve">
<style type="text/css">
	.st0{fill:#FFF0D2;}
	.st1{fill:#FFCF62;}
	.st2{fill:#B2D5E5;}
	.st3{fill:#D1E6EF;}
	.st4{fill:none;}
	.st5{fill:#84D0D3;}
	.st6{fill:#00BABC;}
	.st7{fill:#FFFFFF;}
	.st8{opacity:0.4;}
	.st9{opacity:0.8;}
</style>
<g>
	<g>
		<path class="st0" d="M207.8,250.7c-44-25.4-115.1-25.4-158.8,0c-21.7,12.7-32.6,29.3-32.6,45.9c0,0.3,0,0.5,0,0.8
			c0,0.3,0,0.5,0,0.8c0,0.3,0,0.5,0,0.8c0,0.3,0,0.5,0.1,0.8c0,0.3,0.1,0.5,0.1,0.8c0,0.3,0.1,0.5,0.1,0.8c0,0.3,0.1,0.5,0.1,0.8
			c0,0.3,0.1,0.5,0.1,0.8c0,0.3,0.1,0.5,0.1,0.8c0,0.3,0.1,0.5,0.1,0.8c0.1,0.3,0.1,0.5,0.2,0.8c0.1,0.3,0.1,0.5,0.2,0.8
			c0.1,0.3,0.1,0.5,0.2,0.8c0.1,0.3,0.1,0.5,0.2,0.8c0.1,0.3,0.2,0.5,0.2,0.8c0.1,0.3,0.2,0.5,0.2,0.8c0.1,0.3,0.2,0.5,0.3,0.8
			c0.1,0.3,0.2,0.5,0.3,0.8c0.1,0.3,0.2,0.5,0.3,0.8c0.1,0.2,0.2,0.5,0.3,0.7c0.1,0.3,0.2,0.5,0.3,0.8c0.1,0.2,0.2,0.5,0.3,0.7
			c0.1,0.3,0.2,0.5,0.4,0.8c0.1,0.3,0.2,0.5,0.4,0.8c0.1,0.3,0.3,0.5,0.4,0.8c0.1,0.2,0.3,0.5,0.4,0.7c0.1,0.3,0.3,0.5,0.4,0.8
			c0.1,0.2,0.3,0.5,0.4,0.7c0.2,0.3,0.3,0.5,0.5,0.8c0.2,0.2,0.3,0.5,0.5,0.7c0.2,0.3,0.3,0.5,0.5,0.7c0.2,0.2,0.3,0.5,0.5,0.7
			c0.2,0.3,0.4,0.5,0.5,0.8c0.2,0.2,0.3,0.5,0.5,0.7c0.2,0.2,0.4,0.5,0.6,0.7c0.2,0.2,0.4,0.5,0.6,0.7c0.2,0.2,0.4,0.5,0.6,0.7
			c0.2,0.2,0.4,0.5,0.6,0.7c0.2,0.2,0.4,0.5,0.7,0.7c0.2,0.2,0.4,0.5,0.6,0.7c0.2,0.2,0.5,0.5,0.7,0.7c0.2,0.2,0.4,0.5,0.6,0.7
			c0.2,0.2,0.5,0.5,0.7,0.7c0.2,0.2,0.4,0.4,0.7,0.7c0.2,0.2,0.5,0.5,0.8,0.7c0.2,0.2,0.5,0.4,0.7,0.7c0.3,0.2,0.5,0.5,0.8,0.7
			c0.2,0.2,0.5,0.4,0.7,0.6c0.3,0.2,0.6,0.5,0.8,0.7c0.2,0.2,0.5,0.4,0.7,0.6c0.3,0.2,0.6,0.5,0.9,0.7c0.2,0.2,0.5,0.4,0.7,0.6
			c0.3,0.2,0.6,0.5,1,0.7c0.3,0.2,0.5,0.4,0.8,0.6c0.3,0.2,0.7,0.5,1,0.7c0.3,0.2,0.5,0.4,0.8,0.6c0.3,0.2,0.7,0.5,1,0.7
			c0.3,0.2,0.5,0.4,0.8,0.6c0.4,0.3,0.8,0.5,1.2,0.8c0.2,0.2,0.5,0.3,0.7,0.5c0.4,0.3,0.9,0.5,1.3,0.8c0.2,0.1,0.4,0.3,0.7,0.4
			c0.7,0.4,1.3,0.8,2,1.2c1.3,0.8,2.7,1.5,4,2.2c0.5,0.2,0.9,0.5,1.4,0.7c0.9,0.5,1.8,0.9,2.8,1.4c0.6,0.3,1.1,0.5,1.7,0.8
			c0.9,0.4,1.7,0.8,2.6,1.2c0.6,0.3,1.2,0.5,1.9,0.8c0.9,0.4,1.8,0.7,2.7,1.1c0.4,0.2,0.8,0.3,1.2,0.4c1.2,0.4,2.3,0.9,3.5,1.3
			c0.3,0.1,0.5,0.2,0.8,0.3c1.4,0.5,2.8,0.9,4.3,1.4c0.4,0.1,0.7,0.2,1.1,0.3c1,0.3,1.9,0.6,2.9,0.8c1.1,0.3,2.3,0.6,3.4,0.9
			c0.7,0.2,1.4,0.4,2.1,0.5c1.3,0.3,2.5,0.6,3.8,0.9c0.6,0.1,1.2,0.3,1.8,0.4c1.1,0.2,2.3,0.4,3.5,0.7c0.6,0.1,1.3,0.2,1.9,0.4
			c1.5,0.3,3,0.5,4.6,0.7c0.3,0,0.6,0.1,0.9,0.1c1.8,0.3,3.6,0.5,5.4,0.7c0.4,0,0.8,0.1,1.3,0.1c1.4,0.1,2.8,0.3,4.1,0.4
			c0.7,0.1,1.3,0.1,2,0.1c1.1,0.1,2.3,0.2,3.5,0.2c0.7,0,1.5,0.1,2.3,0.1c1.1,0,2.1,0.1,3.2,0.1c0.7,0,1.4,0,2.1,0
			c1.2,0,2.3,0,3.5,0c0.8,0,1.5,0,2.3,0c1.1,0,2.2,0,3.3-0.1c0.7,0,1.4-0.1,2.1-0.1c1.3-0.1,2.5-0.1,3.8-0.2c0.8,0,1.5-0.1,2.3-0.2
			c1.2-0.1,2.4-0.2,3.6-0.3c1-0.1,1.9-0.2,2.9-0.3c0.4,0,0.8-0.1,1.2-0.1c1.6-0.2,3.1-0.4,4.7-0.6c0.2,0,0.4-0.1,0.7-0.1
			c1.4-0.2,2.7-0.4,4.1-0.6c0.4-0.1,0.8-0.1,1.2-0.2c0.9-0.2,1.7-0.3,2.6-0.5c1-0.2,2-0.4,2.9-0.6c0.8-0.2,1.6-0.3,2.4-0.5
			c1-0.2,1.9-0.4,2.9-0.7c0.8-0.2,1.6-0.4,2.4-0.6c0.9-0.2,1.9-0.5,2.8-0.7c0.8-0.2,1.6-0.4,2.3-0.7c0.9-0.3,1.8-0.5,2.7-0.8
			c1-0.3,1.9-0.6,2.9-0.9c0.3-0.1,0.7-0.2,1-0.3c1.4-0.5,2.8-1,4.2-1.5c0.3-0.1,0.5-0.2,0.7-0.3c1.2-0.5,2.3-0.9,3.4-1.4
			c0.3-0.1,0.7-0.3,1-0.4c1.3-0.6,2.7-1.2,3.9-1.8c0.2-0.1,0.3-0.1,0.5-0.2c1.2-0.6,2.3-1.1,3.4-1.7c0.3-0.2,0.7-0.3,1-0.5
			c1.3-0.7,2.5-1.3,3.7-2.1c0.7-0.4,1.4-0.8,2-1.2c0.2-0.1,0.4-0.3,0.7-0.4c0.4-0.3,0.9-0.5,1.3-0.8c0.2-0.2,0.5-0.3,0.7-0.5
			c0,0,0,0,0,0c0.4-0.3,0.8-0.5,1.2-0.8c0.2-0.2,0.5-0.3,0.7-0.5c0,0,0,0,0,0c0.4-0.3,0.7-0.5,1.1-0.8c0.2-0.2,0.5-0.3,0.7-0.5
			c0,0,0,0,0,0c0.3-0.3,0.7-0.5,1-0.8c0.2-0.2,0.5-0.4,0.7-0.5c0,0,0,0,0,0c0.3-0.3,0.7-0.5,1-0.8c0.2-0.2,0.5-0.4,0.7-0.6
			c0,0,0,0,0,0c0.3-0.2,0.6-0.5,0.9-0.7c0.2-0.2,0.5-0.4,0.7-0.6c0,0,0,0,0,0c0.3-0.2,0.6-0.5,0.9-0.7c0.2-0.2,0.5-0.4,0.7-0.6
			c0,0,0,0,0,0c0.3-0.2,0.5-0.5,0.8-0.7c0.2-0.2,0.4-0.4,0.7-0.6c0.3-0.2,0.5-0.5,0.8-0.7c0,0,0.1-0.1,0.1-0.1c0,0,0,0,0,0
			c0.1-0.1,0.3-0.3,0.4-0.4c0,0,0,0,0,0c0,0,0.1-0.1,0.1-0.1c0.2-0.2,0.5-0.5,0.7-0.7c0.1-0.2,0.3-0.3,0.4-0.5c0,0,0,0,0,0
			c0.3-0.3,0.6-0.6,0.9-0.9c0.2-0.2,0.4-0.5,0.6-0.7c0.2-0.2,0.4-0.5,0.6-0.7c0.2-0.2,0.4-0.5,0.6-0.7c0.2-0.2,0.4-0.5,0.6-0.7
			c0,0,0.1-0.1,0.1-0.1c0,0,0,0,0-0.1c0.1-0.2,0.3-0.3,0.4-0.5c0,0,0,0,0,0c0.2-0.2,0.4-0.5,0.6-0.7c0.1-0.1,0.1-0.2,0.2-0.2
			c0,0,0,0,0-0.1c0.3-0.4,0.6-0.8,0.8-1.2c0.1-0.1,0.2-0.2,0.2-0.4c0,0,0,0,0-0.1c0.2-0.3,0.5-0.7,0.7-1c0.1-0.2,0.2-0.3,0.3-0.5
			c0,0,0,0,0,0c0.2-0.3,0.4-0.6,0.6-0.9c0.1-0.2,0.3-0.5,0.4-0.7c0,0,0,0,0,0c0.1-0.3,0.3-0.5,0.4-0.8c0.1-0.2,0.3-0.5,0.4-0.7
			c0,0,0,0,0,0c0.1-0.3,0.3-0.5,0.4-0.8c0.1-0.2,0.2-0.5,0.4-0.7c0.1-0.3,0.3-0.5,0.4-0.8c0.1-0.2,0.2-0.5,0.3-0.7
			c0.1-0.3,0.2-0.5,0.3-0.8c0,0,0-0.1,0-0.1c0.1-0.2,0.2-0.4,0.3-0.6c0.1-0.3,0.2-0.6,0.3-0.8c0.1-0.2,0.1-0.3,0.2-0.5
			c0-0.1,0-0.1,0.1-0.2c0.1-0.3,0.2-0.6,0.3-0.9c0.1-0.2,0.1-0.4,0.2-0.6c0,0,0-0.1,0-0.1c0.1-0.3,0.2-0.6,0.3-0.9
			c0.1-0.2,0.1-0.4,0.2-0.6c0,0,0-0.1,0-0.1c0.1-0.3,0.2-0.6,0.2-0.9c0-0.2,0.1-0.4,0.1-0.6c0,0,0,0,0,0c0.1-0.3,0.1-0.5,0.2-0.8
			c0,0,0,0,0,0c0,0,0-0.1,0-0.1c0-0.2,0.1-0.3,0.1-0.5c0,0,0-0.1,0-0.1c0,0,0,0,0,0c0-0.3,0.1-0.5,0.1-0.8c0,0,0,0,0,0
			c0,0,0-0.1,0-0.1c0.1-0.5,0.1-0.9,0.2-1.4c0,0,0-0.1,0-0.1c0,0,0-0.1,0-0.1c0.1-0.4,0.1-0.9,0.1-1.3c0,0,0-0.1,0-0.1
			c0,0,0-0.1,0-0.1c0-0.4,0.1-0.9,0.1-1.3c0,0,0-0.1,0-0.1c0,0,0-0.1,0-0.1C241.5,281,230.4,263.7,207.8,250.7z"/>
	</g>
	<g>
		<path class="st1" d="M240.9,298c0,0,0,0.1,0,0.1c0,0,0,0.1,0,0.1c0,0,0,0.1,0,0.1c0,0.4,0,0.9-0.1,1.3c0,0,0,0.1,0,0.1
			c0,0,0,0.1,0,0.1c0,0.4-0.1,0.9-0.1,1.3c0,0,0,0.1,0,0.1c0,0,0,0.1,0,0.1c-0.1,0.5-0.1,0.9-0.2,1.4c0,0,0,0.1,0,0.1c0,0,0,0,0,0
			c0,0.3-0.1,0.5-0.1,0.8c0,0,0,0,0,0c0,0,0,0.1,0,0.1c0,0.2-0.1,0.3-0.1,0.5c0,0,0,0.1,0,0.1c0,0,0,0,0,0c-0.1,0.3-0.1,0.5-0.2,0.8
			c0,0,0,0,0,0c0,0.2-0.1,0.4-0.1,0.6c-0.1,0.3-0.2,0.6-0.2,0.9c0,0,0,0.1,0,0.1c-0.1,0.2-0.1,0.4-0.2,0.6c-0.1,0.3-0.2,0.6-0.3,0.9
			c0,0,0,0.1,0,0.1c-0.1,0.2-0.1,0.4-0.2,0.6c-0.1,0.3-0.2,0.6-0.3,0.9c0,0.1,0,0.1-0.1,0.2c-0.1,0.2-0.1,0.4-0.2,0.5
			c-0.1,0.3-0.2,0.6-0.3,0.8c-0.1,0.2-0.2,0.4-0.3,0.6c0,0,0,0.1,0,0.1c-0.1,0.3-0.2,0.5-0.3,0.8c-0.1,0.2-0.2,0.5-0.3,0.7
			c-0.1,0.3-0.2,0.5-0.4,0.8c-0.1,0.2-0.2,0.5-0.4,0.7c-0.1,0.3-0.3,0.5-0.4,0.8c0,0,0,0,0,0c-0.1,0.2-0.2,0.5-0.4,0.7
			c-0.1,0.3-0.3,0.5-0.4,0.8c0,0,0,0,0,0c-0.1,0.2-0.3,0.5-0.4,0.7c-0.2,0.3-0.4,0.6-0.6,0.9c0,0,0,0,0,0c-0.1,0.2-0.2,0.3-0.3,0.5
			c-0.2,0.3-0.5,0.7-0.7,1c0,0,0,0,0,0.1c-0.1,0.1-0.2,0.2-0.2,0.4c-0.3,0.4-0.5,0.8-0.8,1.2c0,0,0,0,0,0.1
			c-0.1,0.1-0.1,0.2-0.2,0.2c-0.2,0.2-0.4,0.5-0.6,0.7c0,0,0,0,0,0c-0.1,0.2-0.3,0.3-0.4,0.5c0,0,0,0,0,0.1c0,0-0.1,0.1-0.1,0.1
			c-0.2,0.2-0.4,0.5-0.6,0.7c-0.2,0.2-0.4,0.5-0.6,0.7c-0.2,0.2-0.4,0.5-0.6,0.7c-0.2,0.2-0.4,0.5-0.6,0.7c-0.3,0.3-0.6,0.6-0.9,0.9
			c0,0,0,0,0,0c-0.1,0.2-0.3,0.3-0.4,0.5c-0.2,0.2-0.5,0.5-0.7,0.7c0,0-0.1,0.1-0.1,0.1c0,0,0,0,0,0c-0.1,0.1-0.2,0.3-0.4,0.4
			c0,0,0,0,0,0c0,0-0.1,0.1-0.1,0.1c-0.2,0.2-0.5,0.5-0.8,0.7c-0.2,0.2-0.4,0.4-0.7,0.6c-0.3,0.2-0.5,0.5-0.8,0.7c0,0,0,0,0,0
			c-0.2,0.2-0.5,0.4-0.7,0.6c-0.3,0.2-0.6,0.5-0.9,0.7c0,0,0,0,0,0c-0.2,0.2-0.5,0.4-0.7,0.6c-0.3,0.3-0.6,0.5-0.9,0.7c0,0,0,0,0,0
			c-0.2,0.2-0.5,0.4-0.7,0.6c-0.3,0.3-0.7,0.5-1,0.8c0,0,0,0,0,0c-0.2,0.2-0.5,0.4-0.7,0.5c-0.3,0.3-0.7,0.5-1,0.8c0,0,0,0,0,0
			c-0.2,0.2-0.5,0.3-0.7,0.5c-0.4,0.3-0.7,0.5-1.1,0.8c0,0,0,0,0,0c-0.2,0.2-0.5,0.3-0.7,0.5c-0.4,0.3-0.8,0.5-1.2,0.8c0,0,0,0,0,0
			c-0.2,0.2-0.5,0.3-0.7,0.5c-0.4,0.3-0.9,0.5-1.3,0.8c-0.2,0.1-0.4,0.3-0.7,0.4c-0.7,0.4-1.3,0.8-2,1.2c-1.2,0.7-2.5,1.4-3.7,2.1
			c-0.3,0.2-0.7,0.3-1,0.5c-1.1,0.6-2.3,1.2-3.4,1.7c-0.2,0.1-0.3,0.1-0.5,0.2c-1.3,0.6-2.6,1.2-3.9,1.8c-0.3,0.1-0.7,0.3-1,0.4
			c-1.1,0.5-2.3,0.9-3.4,1.4c-0.2,0.1-0.5,0.2-0.7,0.3c-1.4,0.5-2.8,1-4.2,1.5c-0.3,0.1-0.7,0.2-1,0.3c-0.9,0.3-1.9,0.6-2.9,0.9
			c-0.9,0.3-1.8,0.6-2.7,0.8c-0.8,0.2-1.5,0.5-2.3,0.7c-0.9,0.3-1.9,0.5-2.8,0.7c-0.8,0.2-1.6,0.4-2.4,0.6c-1,0.2-1.9,0.4-2.9,0.7
			c-0.8,0.2-1.6,0.4-2.4,0.5c-1,0.2-2,0.4-2.9,0.6c-0.9,0.2-1.7,0.3-2.6,0.5c-0.4,0.1-0.8,0.1-1.2,0.2c-1.3,0.2-2.7,0.4-4.1,0.6
			c-0.2,0-0.4,0.1-0.7,0.1c-1.5,0.2-3.1,0.4-4.7,0.6c-0.4,0-0.8,0.1-1.2,0.1c-1,0.1-1.9,0.2-2.9,0.3c-1.2,0.1-2.4,0.2-3.6,0.3
			c-0.8,0.1-1.5,0.1-2.3,0.2c-1.3,0.1-2.5,0.1-3.8,0.2c-0.7,0-1.4,0.1-2.1,0.1c-1.1,0-2.2,0-3.3,0.1c-0.8,0-1.5,0-2.3,0
			c-1.2,0-2.3,0-3.5,0c-0.7,0-1.4,0-2.1,0c-1.1,0-2.1-0.1-3.2-0.1c-0.8,0-1.5-0.1-2.3-0.1c-1.2-0.1-2.3-0.2-3.5-0.2
			c-0.7,0-1.3-0.1-2-0.1c-1.4-0.1-2.8-0.3-4.1-0.4c-0.4,0-0.8-0.1-1.3-0.1c-1.8-0.2-3.6-0.4-5.4-0.7c-0.3,0-0.6-0.1-0.9-0.1
			c-1.5-0.2-3-0.5-4.6-0.7c-0.6-0.1-1.3-0.2-1.9-0.4c-1.2-0.2-2.3-0.4-3.5-0.7c-0.6-0.1-1.2-0.3-1.8-0.4c-1.3-0.3-2.5-0.6-3.8-0.9
			c-0.7-0.2-1.4-0.3-2.1-0.5c-1.1-0.3-2.3-0.6-3.4-0.9c-1-0.3-1.9-0.5-2.9-0.8c-0.4-0.1-0.7-0.2-1.1-0.3c-1.4-0.4-2.9-0.9-4.3-1.4
			c-0.3-0.1-0.5-0.2-0.8-0.3c-1.2-0.4-2.3-0.8-3.5-1.3c-0.4-0.1-0.8-0.3-1.2-0.4c-0.9-0.4-1.8-0.7-2.7-1.1c-0.6-0.3-1.2-0.5-1.9-0.8
			c-0.9-0.4-1.7-0.8-2.6-1.2c-0.6-0.3-1.1-0.5-1.7-0.8c-0.9-0.4-1.9-0.9-2.8-1.4c-0.5-0.2-0.9-0.5-1.4-0.7c-1.4-0.7-2.7-1.5-4-2.2
			c-0.7-0.4-1.4-0.8-2-1.2c-0.2-0.1-0.4-0.3-0.7-0.4c-0.4-0.3-0.9-0.5-1.3-0.8c-0.2-0.2-0.5-0.3-0.7-0.5c-0.4-0.3-0.8-0.5-1.2-0.8
			c-0.3-0.2-0.5-0.4-0.8-0.6c-0.3-0.2-0.7-0.5-1-0.7c-0.3-0.2-0.5-0.4-0.8-0.6c-0.3-0.2-0.7-0.5-1-0.7c-0.3-0.2-0.5-0.4-0.8-0.6
			c-0.3-0.2-0.6-0.5-1-0.7c-0.3-0.2-0.5-0.4-0.7-0.6c-0.3-0.2-0.6-0.5-0.9-0.7c-0.3-0.2-0.5-0.4-0.7-0.6c-0.3-0.2-0.6-0.5-0.8-0.7
			c-0.2-0.2-0.5-0.4-0.7-0.6c-0.3-0.2-0.5-0.5-0.8-0.7c-0.2-0.2-0.5-0.4-0.7-0.7c-0.3-0.2-0.5-0.5-0.8-0.7c-0.2-0.2-0.4-0.4-0.7-0.7
			c-0.2-0.2-0.5-0.5-0.7-0.7c-0.2-0.2-0.4-0.4-0.6-0.7c-0.2-0.2-0.5-0.5-0.7-0.7c-0.2-0.2-0.4-0.5-0.6-0.7c-0.2-0.2-0.4-0.5-0.7-0.7
			c-0.2-0.2-0.4-0.5-0.6-0.7c-0.2-0.2-0.4-0.5-0.6-0.7c-0.2-0.2-0.4-0.5-0.6-0.7c-0.2-0.2-0.4-0.5-0.6-0.7c-0.2-0.2-0.3-0.5-0.5-0.7
			c-0.2-0.3-0.4-0.5-0.5-0.8c-0.2-0.2-0.3-0.5-0.5-0.7c-0.2-0.2-0.3-0.5-0.5-0.7c-0.2-0.2-0.3-0.5-0.5-0.7c-0.2-0.3-0.3-0.5-0.5-0.8
			c-0.1-0.2-0.3-0.5-0.4-0.7c-0.1-0.3-0.3-0.5-0.4-0.8c-0.1-0.2-0.3-0.5-0.4-0.7c-0.1-0.3-0.3-0.5-0.4-0.8c-0.1-0.3-0.2-0.5-0.4-0.8
			c-0.1-0.3-0.3-0.5-0.4-0.8c-0.1-0.2-0.2-0.5-0.3-0.7c-0.1-0.3-0.2-0.5-0.3-0.8c-0.1-0.2-0.2-0.5-0.3-0.7c-0.1-0.3-0.2-0.5-0.3-0.8
			c-0.1-0.3-0.2-0.5-0.3-0.8c-0.1-0.3-0.2-0.5-0.3-0.8c-0.1-0.3-0.2-0.5-0.2-0.8c-0.1-0.3-0.2-0.5-0.2-0.8c-0.1-0.3-0.1-0.5-0.2-0.8
			c-0.1-0.3-0.1-0.5-0.2-0.8c-0.1-0.3-0.1-0.5-0.2-0.8c-0.1-0.3-0.1-0.5-0.2-0.8c-0.1-0.3-0.1-0.5-0.1-0.8c0-0.3-0.1-0.5-0.1-0.8
			c0-0.3-0.1-0.5-0.1-0.8c0-0.3-0.1-0.5-0.1-0.8c0-0.3-0.1-0.5-0.1-0.8c0-0.3-0.1-0.5-0.1-0.8c0-0.3,0-0.5-0.1-0.8
			c0-0.3,0-0.5,0-0.8c0-0.3,0-0.5,0-0.8c0-0.3,0-0.5,0-0.8c0-0.1,0-0.1,0-0.2l0,12.2c0,16.7,11,33.5,33.1,46.3
			c1.3,0.8,2.7,1.5,4,2.2c0.5,0.2,0.9,0.5,1.4,0.7c0.9,0.5,1.8,0.9,2.8,1.4c0.6,0.3,1.1,0.5,1.7,0.8c0.9,0.4,1.7,0.8,2.6,1.2
			c0.6,0.3,1.2,0.5,1.9,0.8c0.6,0.2,1.2,0.5,1.8,0.7c0.3,0.1,0.6,0.3,0.9,0.4c0.4,0.2,0.8,0.3,1.2,0.4c1.2,0.4,2.3,0.9,3.5,1.3
			c0.3,0.1,0.5,0.2,0.8,0.3c1.4,0.5,2.8,0.9,4.3,1.4c0.4,0.1,0.7,0.2,1.1,0.3c0.6,0.2,1.2,0.4,1.8,0.5c0.3,0.1,0.7,0.2,1,0.3
			c1.1,0.3,2.3,0.6,3.4,0.9c0.7,0.2,1.4,0.4,2.1,0.5c1.3,0.3,2.5,0.6,3.8,0.9c0.5,0.1,0.9,0.2,1.4,0.3c0.1,0,0.3,0.1,0.4,0.1
			c1.1,0.2,2.3,0.4,3.5,0.7c0.6,0.1,1.3,0.2,1.9,0.4c1.5,0.3,3,0.5,4.6,0.7c0.3,0,0.5,0.1,0.8,0.1c0,0,0,0,0,0
			c1.8,0.3,3.6,0.5,5.4,0.7c0.4,0,0.8,0.1,1.2,0.1c1.4,0.1,2.8,0.3,4.2,0.4c0,0,0.1,0,0.1,0c0.6,0.1,1.2,0.1,1.8,0.1
			c1.2,0.1,2.3,0.2,3.5,0.2c0.7,0,1.5,0.1,2.2,0.1c1.1,0,2.2,0.1,3.2,0.1c0.1,0,0.2,0,0.3,0c0.6,0,1.2,0,1.8,0c1.2,0,2.3,0,3.5,0
			c0.8,0,1.5,0,2.3,0c1.1,0,2.2,0,3.3-0.1c0.2,0,0.4,0,0.6,0c0.5,0,1,0,1.5-0.1c1.3-0.1,2.5-0.1,3.8-0.2c0.8,0,1.5-0.1,2.3-0.2
			c1.2-0.1,2.4-0.2,3.6-0.3c0.4,0,0.8-0.1,1.3-0.1c0.5-0.1,1.1-0.1,1.6-0.2c0.4,0,0.8-0.1,1.2-0.1c1.6-0.2,3.1-0.4,4.7-0.6
			c0.2,0,0.4-0.1,0.7-0.1c1.4-0.2,2.7-0.4,4.1-0.6c0.4-0.1,0.8-0.1,1.2-0.2c0.3-0.1,0.6-0.1,1-0.2c0.6-0.1,1.1-0.2,1.7-0.3
			c1-0.2,2-0.4,2.9-0.6c0.8-0.2,1.6-0.3,2.4-0.5c1-0.2,1.9-0.4,2.9-0.7c0.8-0.2,1.6-0.4,2.4-0.6c0.9-0.2,1.9-0.5,2.8-0.7
			c0.8-0.2,1.6-0.4,2.3-0.7c0.9-0.3,1.8-0.5,2.7-0.8c0.4-0.1,0.8-0.3,1.2-0.4c0.6-0.2,1.1-0.3,1.7-0.5c0.3-0.1,0.7-0.2,1-0.3
			c1.4-0.5,2.8-1,4.2-1.5c0.3-0.1,0.5-0.2,0.7-0.3c1.2-0.5,2.3-0.9,3.4-1.4c0.3-0.1,0.7-0.3,1-0.4c1.3-0.6,2.7-1.2,3.9-1.8
			c0.2-0.1,0.3-0.1,0.5-0.2c1.2-0.6,2.3-1.1,3.4-1.7c0.3-0.2,0.7-0.3,1-0.5c1.3-0.7,2.5-1.3,3.7-2.1c0.5-0.3,0.9-0.5,1.4-0.8
			c0.1-0.1,0.2-0.1,0.3-0.2c0.3-0.2,0.7-0.4,1-0.6c0.3-0.2,0.6-0.4,0.9-0.6c0.3-0.2,0.7-0.4,1-0.7c0.3-0.2,0.6-0.4,0.9-0.6
			c0.3-0.2,0.6-0.4,1-0.7c0.3-0.2,0.6-0.4,0.9-0.6c0.3-0.2,0.6-0.5,0.9-0.7c0.3-0.2,0.6-0.4,0.8-0.6c0.3-0.2,0.6-0.5,0.9-0.7
			c0.3-0.2,0.5-0.4,0.8-0.6c0.3-0.2,0.6-0.5,0.9-0.7c0.3-0.2,0.5-0.4,0.8-0.6c0.3-0.2,0.6-0.5,0.9-0.7c0.2-0.2,0.5-0.4,0.7-0.6
			c0.3-0.2,0.6-0.5,0.8-0.8c0.2-0.2,0.4-0.4,0.6-0.5c0,0,0,0,0.1-0.1c0.6-0.5,1.2-1.1,1.7-1.6c0.1-0.1,0.3-0.3,0.4-0.4
			c0.4-0.4,0.8-0.8,1.2-1.3c0.2-0.2,0.3-0.3,0.5-0.5c0.4-0.5,0.9-0.9,1.3-1.4c0.1-0.1,0.2-0.2,0.3-0.3c0.5-0.6,1-1.1,1.4-1.7
			c0,0,0.1-0.1,0.1-0.1c0.1-0.1,0.2-0.3,0.3-0.4c0.3-0.3,0.5-0.7,0.7-1c0.2-0.2,0.3-0.4,0.5-0.6c0.2-0.3,0.5-0.6,0.7-1
			c0.1-0.2,0.3-0.4,0.4-0.6c0.2-0.3,0.4-0.6,0.6-1c0.1-0.2,0.3-0.4,0.4-0.6c0.2-0.4,0.4-0.7,0.6-1.1c0.1-0.1,0.2-0.3,0.3-0.4
			c0,0,0-0.1,0.1-0.1c0.2-0.3,0.3-0.6,0.5-0.9c0.1-0.2,0.2-0.4,0.3-0.6c0.2-0.3,0.3-0.7,0.5-1.1c0.1-0.2,0.2-0.3,0.2-0.5
			c0.2-0.5,0.5-1,0.7-1.6c0-0.1,0.1-0.1,0.1-0.2c0.2-0.5,0.4-0.9,0.5-1.4c0,0,0,0,0-0.1c0.1-0.2,0.1-0.4,0.2-0.6
			c0.1-0.3,0.2-0.6,0.3-0.9c0.1-0.2,0.1-0.5,0.2-0.7c0.1-0.3,0.2-0.6,0.3-0.9c0.1-0.2,0.1-0.5,0.2-0.7c0.1-0.3,0.2-0.6,0.2-0.9
			c0.1-0.2,0.1-0.5,0.2-0.7c0.1-0.3,0.1-0.6,0.2-0.8c0-0.1,0-0.1,0-0.2c0-0.2,0.1-0.4,0.1-0.5c0.1-0.3,0.1-0.6,0.2-0.9
			c0-0.2,0.1-0.5,0.1-0.7c0-0.3,0.1-0.6,0.1-0.9c0-0.2,0.1-0.5,0.1-0.7c0-0.3,0.1-0.6,0.1-0.8c0-0.2,0-0.5,0-0.7c0-0.3,0-0.6,0-0.8
			c0-0.2,0-0.4,0-0.6c0-0.2,0-0.4,0-0.6l0-12.2C240.9,297.3,240.9,297.6,240.9,298z"/>
	</g>
	<g>
		<polygon class="st2" points="277.3,186.3 277.3,192.5 282.6,189.4 		"/>
		<polygon class="st2" points="311.4,186.3 311.3,206.1 306,203 251.9,234.2 257.2,237.3 223.1,237.3 223.1,248.8 257.2,248.8 
			257.2,242.7 306,214.4 311.4,217.5 311.5,197.8 		"/>
		<polygon class="st3" points="251.9,234.2 306,203 311.3,206.1 311.4,186.3 277.3,186.3 282.6,189.4 277.3,192.5 228.5,220.6 
			223.2,217.5 223.1,237.3 257.2,237.3 		"/>
	</g>
	<g>
		<path class="st4" d="M434.5,144.4C434.5,144.4,434.5,144.4,434.5,144.4c0.1-0.3,0.3-0.5,0.4-0.8c0,0,0,0,0,0
			C434.8,143.8,434.6,144.1,434.5,144.4z"/>
		<path class="st4" d="M363,129.5C363,129.5,363,129.5,363,129.5c-0.1,0.1-0.2,0.2-0.3,0.4c0,0,0,0,0,0
			C362.8,129.7,362.9,129.6,363,129.5z"/>
		<path class="st4" d="M433.1,146.8C433.1,146.8,433.1,146.8,433.1,146.8c0.2-0.4,0.5-0.7,0.7-1.1c0,0,0,0,0,0
			c0.2-0.4,0.4-0.7,0.6-1.1c0,0,0,0,0,0C434,145.4,433.6,146.1,433.1,146.8z"/>
		<path class="st4" d="M432.3,147.9C432.3,147.9,432.3,147.9,432.3,147.9c0.2-0.3,0.4-0.5,0.6-0.8c0,0,0,0,0,0
			C432.7,147.4,432.5,147.6,432.3,147.9z"/>
		<path class="st4" d="M361.9,131.2C361.9,131.2,361.9,131.2,361.9,131.2c-0.1,0.1-0.1,0.3-0.2,0.4c0,0,0,0,0,0
			C361.7,131.4,361.8,131.3,361.9,131.2z"/>
		<path class="st4" d="M361.4,132C361.4,132,361.4,132,361.4,132c-0.1,0.1-0.1,0.3-0.2,0.4c0,0,0,0,0,0
			C361.3,132.3,361.3,132.1,361.4,132z"/>
		<path class="st4" d="M361,132.8C361,132.8,361,132.8,361,132.8c-0.1,0.1-0.1,0.3-0.2,0.4c0,0,0,0,0,0
			C360.9,133.1,361,133,361,132.8z"/>
		<path class="st4" d="M360.7,133.7C360.7,133.7,360.7,133.7,360.7,133.7c0,0.1-0.1,0.3-0.1,0.4c0,0,0,0,0,0
			C360.6,134,360.6,133.8,360.7,133.7z"/>
		<path class="st4" d="M430.2,150.2C430.2,150.2,430.2,150.2,430.2,150.2c0.3-0.3,0.7-0.7,1-1c0,0,0,0,0,0c0.3-0.3,0.6-0.7,0.9-1
			c0,0,0,0,0,0C431.5,148.9,430.9,149.6,430.2,150.2z"/>
		<path class="st4" d="M362.4,130.3C362.4,130.3,362.4,130.3,362.4,130.3c-0.1,0.1-0.2,0.3-0.3,0.4c0,0,0,0,0,0
			C362.2,130.6,362.3,130.4,362.4,130.3z"/>
		<path class="st4" d="M356.6,153.2c0.2,0.1,0.3,0.2,0.5,0.3c0,0,0,0,0,0C356.9,153.4,356.7,153.3,356.6,153.2z"/>
		<path class="st4" d="M349.9,146.4c0,0.1,0.1,0.1,0.1,0.2C350,146.5,349.9,146.4,349.9,146.4C349.9,146.4,349.9,146.4,349.9,146.4z
			"/>
		<path class="st4" d="M429.1,151.3C429.1,151.3,429.1,151.3,429.1,151.3c0.3-0.2,0.5-0.5,0.8-0.7c0,0,0,0,0,0
			C429.7,150.8,429.4,151,429.1,151.3z"/>
		<path class="st4" d="M349.2,145.2C349.2,145.2,349.2,145.2,349.2,145.2c0.1,0.2,0.2,0.4,0.3,0.6c0,0,0,0,0,0
			C349.4,145.5,349.3,145.3,349.2,145.2z"/>
		<path class="st4" d="M353.8,150.9C353.8,150.9,353.8,150.9,353.8,150.9c0.2,0.2,0.4,0.3,0.5,0.5c0,0,0,0,0,0
			C354.2,151.3,354,151.1,353.8,150.9z"/>
		<path class="st4" d="M427.7,152.5C427.7,152.5,427.7,152.5,427.7,152.5c0.4-0.3,0.8-0.6,1.1-0.9c0,0,0,0,0,0
			C428.5,151.9,428.1,152.2,427.7,152.5z"/>
		<path class="st4" d="M423.3,155.5C423.3,155.5,423.3,155.5,423.3,155.5c0.5-0.3,1-0.6,1.4-0.9c0,0,0,0,0,0
			C424.2,154.9,423.7,155.2,423.3,155.5z"/>
		<path class="st4" d="M426.4,153.4C426.4,153.4,426.4,153.4,426.4,153.4c0.4-0.3,0.8-0.6,1.2-0.9c0,0,0,0,0,0
			C427.3,152.8,426.9,153.1,426.4,153.4z"/>
		<path class="st4" d="M425.1,154.4C425.1,154.4,425.1,154.4,425.1,154.4c0.3-0.2,0.7-0.4,1-0.7c0,0,0,0,0,0
			C425.7,153.9,425.4,154.1,425.1,154.4z"/>
		<path class="st4" d="M437.1,147.2C437.1,147.2,437.1,147.2,437.1,147.2c0.1-0.2,0.3-0.4,0.4-0.7c0,0,0,0,0,0
			C437.4,146.8,437.2,147,437.1,147.2z"/>
		<path class="st4" d="M360.4,134.6C360.4,134.6,360.4,134.6,360.4,134.6c0,0.1-0.1,0.3-0.1,0.4c0,0,0,0,0,0
			C360.4,134.8,360.4,134.7,360.4,134.6z"/>
		<path class="st4" d="M436.2,148.5C436.2,148.5,436.2,148.5,436.2,148.5c0.2-0.2,0.3-0.4,0.5-0.7c0,0,0,0,0,0
			C436.5,148.1,436.4,148.3,436.2,148.5z"/>
		<polygon class="st4" points="435.4,149.5 435.4,149.5 435.4,149.5 435.4,149.5 		"/>
		<path class="st4" d="M420.7,130.4C420.7,130.4,420.7,130.4,420.7,130.4c-0.1-0.1-0.2-0.3-0.3-0.4c0,0,0,0,0,0
			C420.5,130.1,420.6,130.2,420.7,130.4z"/>
		<path class="st4" d="M438.5,144.6C438.5,144.6,438.5,144.6,438.5,144.6c0.1-0.2,0.2-0.5,0.3-0.7c0,0,0,0,0,0
			C438.8,144.2,438.6,144.4,438.5,144.6z"/>
		<path class="st4" d="M440.2,135.9C440.2,135.9,440.2,135.9,440.2,135.9c0-0.2-0.1-0.5-0.1-0.7c0,0,0,0,0,0
			C440.1,135.5,440.2,135.7,440.2,135.9z"/>
		<path class="st4" d="M437.9,145.9C437.9,145.9,437.9,145.9,437.9,145.9c0.1-0.2,0.3-0.5,0.4-0.7c0,0,0,0,0,0
			C438.1,145.5,438,145.7,437.9,145.9z"/>
		<path class="st4" d="M440.2,137.3C440.2,137.3,440.2,137.3,440.2,137.3c0-0.2,0-0.5,0-0.7c0,0,0,0,0,0
			C440.2,136.8,440.2,137,440.2,137.3z"/>
		<path class="st4" d="M421.3,131.2C421.3,131.2,421.3,131.2,421.3,131.2c-0.1-0.1-0.2-0.3-0.3-0.4c0,0,0,0,0,0
			C421.1,130.9,421.2,131.1,421.3,131.2z"/>
		<path class="st4" d="M348.6,143.9C348.6,144,348.6,144,348.6,143.9c0.1,0.2,0.2,0.4,0.3,0.6c0,0,0,0,0,0
			C348.7,144.3,348.6,144.1,348.6,143.9z"/>
		<path class="st4" d="M423,136.4C423,136.4,423,136.4,423,136.4c0-0.2,0-0.3-0.1-0.5c0,0,0,0,0,0C423,136.1,423,136.2,423,136.4z"
			/>
		<path class="st4" d="M421.7,132C421.7,132,421.7,132,421.7,132c-0.1-0.1-0.2-0.3-0.2-0.4c0,0,0,0,0,0
			C421.6,131.8,421.7,131.9,421.7,132z"/>
		<path class="st4" d="M360.2,136.3C360.2,136.3,360.2,136.3,360.2,136.3c0,0.1,0,0.3,0,0.4c0,0,0,0,0,0
			C360.1,136.6,360.1,136.4,360.2,136.3z"/>
		<path class="st4" d="M360.3,135.4C360.3,135.4,360.3,135.4,360.3,135.4c0,0.1,0,0.3-0.1,0.4c0,0,0,0,0,0
			C360.2,135.7,360.2,135.6,360.3,135.4z"/>
		<path class="st4" d="M423.1,137.2c0-0.1,0-0.3,0-0.4c0,0,0,0,0,0C423,136.9,423.1,137.1,423.1,137.2z"/>
		<path class="st4" d="M422.5,133.8C422.5,133.8,422.5,133.8,422.5,133.8c-0.1-0.1-0.1-0.3-0.2-0.4c0,0,0,0,0,0
			C422.4,133.5,422.4,133.6,422.5,133.8z"/>
		<path class="st4" d="M422.1,132.9C422.1,132.9,422.1,132.9,422.1,132.9c-0.1-0.1-0.1-0.3-0.2-0.4c0,0,0,0,0,0
			C422,132.6,422.1,132.8,422.1,132.9z"/>
		<path class="st4" d="M422.7,134.6C422.7,134.6,422.7,134.6,422.7,134.6c0-0.1-0.1-0.3-0.1-0.4c0,0,0,0,0,0
			C422.6,134.3,422.7,134.5,422.7,134.6z"/>
		<path class="st4" d="M422.9,135.5C422.9,135.5,422.9,135.5,422.9,135.5c0-0.2-0.1-0.3-0.1-0.5c0,0,0,0,0,0
			C422.9,135.2,422.9,135.3,422.9,135.5z"/>
		<path class="st4" d="M199.6,96.4c0-0.1,0-0.1,0-0.2C199.5,96.2,199.5,96.3,199.6,96.4z"/>
		<path class="st4" d="M199.8,97.2c0-0.1-0.1-0.1-0.1-0.2C199.8,97.1,199.8,97.1,199.8,97.2z"/>
		<path class="st4" d="M199.7,96.8c0-0.1,0-0.1,0-0.2C199.6,96.7,199.6,96.7,199.7,96.8z"/>
		<path class="st4" d="M200.1,97.6c0-0.1-0.1-0.1-0.1-0.2C200,97.5,200,97.5,200.1,97.6z"/>
		<path class="st4" d="M200.4,98c-0.1-0.1-0.1-0.1-0.1-0.2C200.3,97.9,200.3,97.9,200.4,98z"/>
		<path class="st4" d="M203.6,95.7c0-0.1,0-0.1,0-0.2C203.6,95.6,203.6,95.7,203.6,95.7z"/>
		<path class="st4" d="M326,90.9C326,90.9,326,90.9,326,90.9c0-0.1,0-0.2-0.1-0.3c0,0,0,0,0,0C325.9,90.7,325.9,90.8,326,90.9z"/>
		<path class="st4" d="M440,134.6C440,134.6,440,134.6,440,134.6c0-0.2-0.1-0.5-0.1-0.7c0,0,0,0,0,0
			C439.9,134.1,440,134.3,440,134.6z"/>
		<path class="st4" d="M203.7,95.3c0,0,0-0.1,0.1-0.1C203.7,95.2,203.7,95.3,203.7,95.3z"/>
		<path class="st4" d="M200.8,98.3c-0.1,0-0.1-0.1-0.2-0.1C200.7,98.3,200.7,98.3,200.8,98.3z"/>
		<path class="st4" d="M201.2,98.7c-0.1,0-0.1-0.1-0.1-0.1C201.1,98.6,201.2,98.7,201.2,98.7z"/>
		<path class="st4" d="M583.5,179.3c0,0.1-0.1,0.2-0.1,0.2C583.5,179.4,583.5,179.4,583.5,179.3z"/>
		<path class="st4" d="M583.6,178.9c0,0.1,0,0.1-0.1,0.2C583.6,179,583.6,179,583.6,178.9z"/>
		<path class="st4" d="M583.4,179.7c0,0.1-0.1,0.2-0.1,0.2C583.3,179.9,583.3,179.8,583.4,179.7z"/>
		<path class="st4" d="M582.8,180.5c-0.1,0.1-0.1,0.1-0.2,0.2C582.7,180.6,582.7,180.6,582.8,180.5z"/>
		<path class="st4" d="M582,181.2c-0.1,0.1-0.3,0.2-0.4,0.3C581.7,181.4,581.9,181.3,582,181.2z"/>
		<path class="st4" d="M582.4,180.9c-0.1,0.1-0.2,0.1-0.2,0.2C582.3,181,582.4,180.9,582.4,180.9z"/>
		<path class="st4" d="M325.8,90.4C325.8,90.4,325.8,90.4,325.8,90.4c0-0.1-0.1-0.2-0.1-0.3c0,0,0,0,0,0
			C325.7,90.2,325.8,90.3,325.8,90.4z"/>
		<path class="st4" d="M583.1,180.1c-0.1,0.1-0.1,0.1-0.2,0.2C583,180.2,583.1,180.2,583.1,180.1z"/>
		<path class="st4" d="M324.3,88.3C324.3,88.3,324.3,88.3,324.3,88.3c-0.1-0.1-0.3-0.2-0.4-0.3c0,0,0,0,0,0
			C324.1,88.1,324.2,88.2,324.3,88.3z"/>
		<path class="st4" d="M382.9,109.5C382.9,109.5,382.9,109.5,382.9,109.5c-1.2,0.1-2.4,0.3-3.5,0.4c0,0,0,0,0,0
			C380.5,109.7,381.7,109.6,382.9,109.5z"/>
		<path class="st4" d="M378.8,110C378.8,110,378.8,110,378.8,110c-1.2,0.2-2.4,0.4-3.6,0.6c0,0,0,0,0,0
			C376.4,110.4,377.6,110.2,378.8,110z"/>
		<path class="st4" d="M326,91.2C326,91.2,326,91.2,326,91.2c0,0.1,0,0.2,0,0.3C326,91.3,326,91.3,326,91.2z"/>
		<path class="st4" d="M306.3,90.3c0,0.1,0,0.1,0,0.2C306.2,90.5,306.2,90.4,306.3,90.3C306.3,90.3,306.3,90.3,306.3,90.3z"/>
		<path class="st4" d="M375,110.7C375,110.7,375,110.7,375,110.7c-1.2,0.2-2.3,0.5-3.5,0.8c0,0,0,0,0,0
			C372.7,111.2,373.8,110.9,375,110.7z"/>
		<path class="st4" d="M363.6,114.1C363.6,114.1,363.5,114.1,363.6,114.1C363.5,114.1,363.6,114.1,363.6,114.1L363.6,114.1z"/>
		<path class="st4" d="M325.6,89.8C325.6,89.8,325.6,89.8,325.6,89.8c-0.1-0.1-0.1-0.2-0.2-0.3c0,0,0,0,0,0
			C325.5,89.6,325.5,89.7,325.6,89.8z"/>
		<path class="st4" d="M306.5,89.8C306.5,89.8,306.5,89.8,306.5,89.8c0,0.1-0.1,0.2-0.1,0.2c0,0,0,0,0,0
			C306.4,89.9,306.4,89.9,306.5,89.8z"/>
		<path class="st4" d="M371.2,111.6C371.2,111.6,371.2,111.6,371.2,111.6c-1.1,0.3-2.2,0.6-3.3,1c0,0,0,0,0,0
			C368.9,112.2,370,111.9,371.2,111.6z"/>
		<path class="st4" d="M367.3,112.8C367.3,112.8,367.3,112.8,367.3,112.8c-1.1,0.4-2.1,0.7-3.1,1.1c0,0,0,0,0,0
			C365.1,113.5,366.2,113.1,367.3,112.8z"/>
		<path class="st4" d="M324.9,88.8C324.9,88.8,324.9,88.8,324.9,88.8c-0.1-0.1-0.2-0.2-0.3-0.3c0,0,0,0,0,0
			C324.7,88.6,324.8,88.7,324.9,88.8z"/>
		<path class="st4" d="M323.8,87.8C323.8,87.8,323.8,87.8,323.8,87.8c-0.2-0.2-0.4-0.3-0.7-0.4c0,0,0.1,0.1,0.1,0.1
			C323.4,87.6,323.6,87.7,323.8,87.8z"/>
		<path class="st4" d="M348.2,143.2L348.2,143.2c0,0,0,0.1,0.1,0.1c0,0,0,0,0,0C348.2,143.3,348.2,143.2,348.2,143.2z"/>
		<path class="st4" d="M325.3,89.3C325.3,89.3,325.3,89.3,325.3,89.3c-0.1-0.1-0.2-0.2-0.2-0.3c0,0,0,0,0,0
			C325.1,89.1,325.2,89.2,325.3,89.3z"/>
		<path class="st4" d="M307.7,88.3C307.7,88.3,307.7,88.3,307.7,88.3c-0.1,0.1-0.1,0.1-0.2,0.2c0,0,0,0,0,0
			C307.6,88.4,307.6,88.3,307.7,88.3z"/>
		<path class="st4" d="M307.2,88.8C307.2,88.8,307.2,88.8,307.2,88.8c-0.1,0.1-0.1,0.1-0.2,0.2c0,0,0,0,0,0
			C307.1,88.9,307.1,88.8,307.2,88.8z"/>
		<path class="st4" d="M308.3,87.8C308.3,87.8,308.3,87.8,308.3,87.8c-0.1,0-0.1,0.1-0.2,0.1c0,0,0,0,0,0
			C308.2,87.9,308.2,87.8,308.3,87.8z"/>
		<path class="st4" d="M306.8,89.3C306.8,89.3,306.8,89.3,306.8,89.3c-0.1,0.1-0.1,0.2-0.1,0.2c0,0,0,0,0,0
			C306.7,89.4,306.7,89.3,306.8,89.3z"/>
		<path class="st4" d="M415.2,112.6C415.2,112.6,415.2,112.6,415.2,112.6c-1.1-0.4-2.2-0.7-3.4-1c0,0,0,0,0,0
			C412.9,111.9,414,112.2,415.2,112.6z"/>
		<path class="st4" d="M461.6,178.6C461.6,178.6,461.6,178.6,461.6,178.6c0.2-0.3,0.5-0.7,0.9-1C462.1,178,461.8,178.3,461.6,178.6
			C461.6,178.7,461.6,178.7,461.6,178.6C461.6,178.7,461.6,178.6,461.6,178.6z"/>
		<polygon class="st4" points="461.3,179.2 461.3,179.2 461.3,179.2 		"/>
		<path class="st4" d="M433.4,122.9C433.4,122.9,433.4,122.9,433.4,122.9c-0.2-0.2-0.5-0.4-0.7-0.7c0,0,0,0,0.1,0.1
			C433,122.5,433.2,122.7,433.4,122.9z"/>
		<polygon class="st4" points="463.8,176.7 463.8,176.7 463.8,176.7 		"/>
		<path class="st4" d="M479.9,178.5c0,0.1,0.1,0.1,0.1,0.2c0,0,0,0,0,0c0,0,0,0,0,0c0.1,0.2,0.2,0.3,0.3,0.5c0,0,0,0,0,0
			c-0.5-0.9-1.3-1.7-2.5-2.4C478.8,177.2,479.4,177.8,479.9,178.5z"/>
		<path class="st4" d="M430.7,120.6C430.7,120.6,430.7,120.6,430.7,120.6c-0.3-0.2-0.6-0.5-0.9-0.7c0,0,0.1,0.1,0.1,0.1
			C430.2,120.2,430.5,120.4,430.7,120.6z"/>
		<path class="st4" d="M432.1,121.7C432.1,121.7,432.1,121.7,432.1,121.7c-0.3-0.2-0.5-0.4-0.8-0.7c0,0,0.1,0.1,0.1,0.1
			C431.7,121.3,431.9,121.5,432.1,121.7z"/>
		<path class="st4" d="M204.1,94.8C204.1,94.9,204,94.9,204.1,94.8C204,94.9,204.1,94.9,204.1,94.8z"/>
		<path class="st4" d="M429.2,119.4C429.2,119.4,429.2,119.4,429.2,119.4c-0.3-0.2-0.7-0.5-1.1-0.7c0.1,0.1,0.2,0.1,0.2,0.2
			C428.7,119.1,429,119.2,429.2,119.4z"/>
		<path class="st4" d="M461.1,179.7C461.1,179.7,461.1,179.7,461.1,179.7c0,0.1,0,0.2-0.1,0.2c0,0,0,0,0,0
			C461,179.9,461,179.8,461.1,179.7z"/>
		<path class="st4" d="M434.6,124.1C434.6,124.1,434.6,124.1,434.6,124.1c-0.2-0.2-0.4-0.4-0.6-0.7c0,0,0,0,0,0
			C434.2,123.7,434.4,123.9,434.6,124.1z"/>
		<path class="st4" d="M460.9,180.3C460.9,180.3,460.9,180.3,460.9,180.3c0,0.1,0,0.2,0,0.2c0,0,0,0,0,0
			C460.9,180.4,460.9,180.3,460.9,180.3z"/>
		<path class="st4" d="M436.6,126.6C436.6,126.6,436.6,126.6,436.6,126.6c-0.2-0.2-0.3-0.5-0.5-0.7c0,0,0,0,0,0
			C436.3,126.2,436.5,126.4,436.6,126.6z"/>
		<path class="st4" d="M435.7,125.4C435.7,125.4,435.7,125.4,435.7,125.4c-0.2-0.2-0.4-0.4-0.6-0.7c0,0,0,0,0,0
			C435.3,124.9,435.5,125.2,435.7,125.4z"/>
		<path class="st4" d="M437.5,127.9C437.5,127.9,437.5,127.9,437.5,127.9c-0.1-0.2-0.3-0.5-0.4-0.7c0,0,0,0,0,0
			C437.2,127.5,437.3,127.7,437.5,127.9z"/>
		<path class="st4" d="M399.4,109.4C399.4,109.4,399.4,109.4,399.4,109.4c-1.2-0.1-2.4-0.2-3.6-0.3c0,0,0,0,0,0
			C397,109.2,398.2,109.3,399.4,109.4z"/>
		<path class="st4" d="M403.5,109.9C403.5,109.9,403.6,109.9,403.5,109.9c-1.2-0.2-2.3-0.3-3.5-0.4c0,0,0,0,0,0
			C401.2,109.6,402.4,109.7,403.5,109.9z"/>
		<path class="st4" d="M480.6,179.6c0-0.1-0.1-0.2-0.1-0.3c0,0,0,0,0,0C480.5,179.5,480.5,179.5,480.6,179.6z"/>
		<path class="st4" d="M407.7,110.6C407.7,110.6,407.7,110.6,407.7,110.6c-1.2-0.2-2.4-0.4-3.6-0.6c0,0,0,0,0,0
			C405.3,110.2,406.5,110.4,407.7,110.6z"/>
		<path class="st4" d="M422.4,115.5C422.4,115.5,422.4,115.5,422.4,115.5c-1-0.5-2-0.9-3-1.3c0,0,0,0,0,0
			C420.4,114.6,421.5,115,422.4,115.5z"/>
		<path class="st4" d="M411.5,111.5C411.5,111.5,411.5,111.5,411.5,111.5c-1.1-0.3-2.3-0.6-3.5-0.8c0,0,0,0,0,0
			C409.2,111,410.4,111.2,411.5,111.5z"/>
		<path class="st4" d="M418.8,113.9C418.9,113.9,418.9,113.9,418.8,113.9c-1-0.4-2.1-0.8-3.2-1.1c0,0,0,0,0,0
			C416.8,113.1,417.8,113.5,418.8,113.9z"/>
		<path class="st4" d="M425.9,117.3C425.9,117.3,425.9,117.3,425.9,117.3c-1-0.6-2-1.1-3-1.6c0,0,0,0,0,0
			C423.9,116.2,424.9,116.7,425.9,117.3z"/>
		<path class="st4" d="M462.6,177.5c0.3-0.3,0.7-0.6,1.1-0.8C463.3,177,463,177.3,462.6,177.5z"/>
		<path class="st4" d="M383.6,109.4c1.2-0.1,2.4-0.2,3.6-0.3c0,0,0,0,0,0C385.9,109.2,384.7,109.3,383.6,109.4
			C383.6,109.4,383.6,109.4,383.6,109.4z"/>
		<path class="st4" d="M427.6,118.3C427.6,118.3,427.6,118.3,427.6,118.3c-0.6-0.4-1.1-0.7-1.7-1.1c0.3,0.2,0.6,0.4,0.9,0.6
			C427.1,118,427.4,118.2,427.6,118.3z"/>
		<path class="st4" d="M395.3,109.1C395.3,109.1,395.3,109.1,395.3,109.1c-1.2-0.1-2.5-0.1-3.8-0.1c0,0,0,0,0,0
			C392.8,109,394,109.1,395.3,109.1z"/>
		<path class="st4" d="M391.5,109C391.5,109,391.5,109,391.5,109c-1.3,0-2.5,0-3.8,0.1c0,0,0,0,0,0C388.9,109.1,390.2,109,391.5,109
			z"/>
		<path class="st4" d="M461.2,179.3C461.2,179.3,461.2,179.3,461.2,179.3C461.2,179.4,461.2,179.4,461.2,179.3
			C461.2,179.3,461.2,179.3,461.2,179.3z"/>
		<path class="st4" d="M439.3,131.9C439.3,131.9,439.3,131.9,439.3,131.9c-0.1-0.2-0.2-0.5-0.3-0.7c0,0,0,0,0,0
			C439.2,131.4,439.2,131.6,439.3,131.9z"/>
		<path class="st4" d="M438.8,130.5C438.8,130.5,438.8,130.5,438.8,130.5c-0.1-0.2-0.2-0.5-0.3-0.7c0,0,0,0,0,0
			C438.6,130.1,438.7,130.3,438.8,130.5z"/>
		<path class="st4" d="M438.2,129.2C438.2,129.2,438.2,129.2,438.2,129.2c-0.1-0.2-0.3-0.5-0.4-0.7c0,0,0,0,0,0
			C438,128.8,438.1,129,438.2,129.2z"/>
		<path class="st4" d="M439.7,133.2C439.7,133.2,439.7,133.2,439.7,133.2c-0.1-0.2-0.1-0.5-0.2-0.7c0,0,0,0,0,0
			C439.6,132.8,439.7,133,439.7,133.2z"/>
		<polygon class="st5" points="312.3,59.8 320.3,64.4 312.3,59.8 326.4,51.6 386,86 386,86 326.4,51.6 		"/>
		<path class="st5" d="M306.7,89.5C306.7,89.5,306.7,89.5,306.7,89.5c-0.1,0.1-0.1,0.2-0.2,0.3c0,0,0,0,0,0
			C306.5,89.7,306.6,89.6,306.7,89.5z"/>
		<path class="st5" d="M307.5,88.4C307.5,88.4,307.5,88.5,307.5,88.4c-0.1,0.1-0.2,0.2-0.3,0.3c0,0,0,0,0,0
			C307.3,88.6,307.4,88.5,307.5,88.4z"/>
		<path class="st5" d="M309,87.4c3.9-2.3,10.2-2.3,14.1,0c0,0,0.1,0.1,0.1,0.1c0,0-0.1-0.1-0.1-0.1c-2.9-1.7-7.2-2.1-10.8-1.3
			C311.1,86.4,309.9,86.8,309,87.4c-0.2,0.1-0.5,0.3-0.7,0.4c0,0,0,0,0,0C308.5,87.6,308.7,87.5,309,87.4z"/>
		<path class="st5" d="M308.2,87.9C308.1,87.9,308.1,87.9,308.2,87.9c-0.2,0.1-0.3,0.2-0.5,0.4c0,0,0,0,0,0
			C307.8,88.1,308,88,308.2,87.9z"/>
		<path class="st5" d="M306.4,90C306.4,90,306.4,90,306.4,90c0,0.1-0.1,0.2-0.1,0.3c0,0,0,0,0,0C306.3,90.2,306.3,90.1,306.4,90z"/>
		<path class="st5" d="M307,89C307,89,307,89,307,89c-0.1,0.1-0.2,0.2-0.2,0.3c0,0,0,0,0,0C306.9,89.2,307,89.1,307,89z"/>
		<path class="st5" d="M325,93.9C325.1,93.9,325.1,93.9,325,93.9c0.1-0.1,0.2-0.2,0.2-0.3l0,0C325.2,93.7,325.1,93.8,325,93.9z"/>
		<path class="st5" d="M324,94.9C324,94.9,324,94.9,324,94.9c0.1-0.1,0.3-0.2,0.4-0.3c0,0,0,0,0,0C324.3,94.7,324.1,94.8,324,94.9z"
			/>
		<path class="st5" d="M325.9,92.3C325.9,92.3,325.9,92.3,325.9,92.3c0-0.1,0.1-0.2,0.1-0.3c0,0,0,0,0,0
			C325.9,92.1,325.9,92.2,325.9,92.3z"/>
		<path class="st5" d="M326,91.7c0-0.1,0-0.2,0-0.3C326,91.6,326,91.7,326,91.7C326,91.7,326,91.7,326,91.7z"/>
		<path class="st5" d="M324.6,94.4C324.6,94.4,324.6,94.4,324.6,94.4c0.1-0.1,0.2-0.2,0.3-0.3c0,0,0,0,0,0
			C324.8,94.2,324.7,94.3,324.6,94.4z"/>
		<path class="st5" d="M325.4,93.4C325.4,93.4,325.4,93.4,325.4,93.4c0.1-0.1,0.1-0.2,0.2-0.3c0,0,0,0,0,0
			C325.5,93.2,325.5,93.3,325.4,93.4z"/>
		<path class="st5" d="M325.7,92.8C325.7,92.8,325.7,92.8,325.7,92.8c0-0.1,0.1-0.2,0.1-0.3c0,0,0,0,0,0
			C325.8,92.7,325.7,92.7,325.7,92.8z"/>
		<path class="st5" d="M324,88C324,88,324,88,324,88c-0.1-0.1-0.2-0.1-0.2-0.2c0,0,0,0,0,0C323.8,87.9,323.9,87.9,324,88z"/>
		<path class="st5" d="M325.4,89.5C325.4,89.5,325.4,89.5,325.4,89.5c-0.1-0.1-0.1-0.2-0.1-0.2c0,0,0,0,0,0
			C325.3,89.4,325.4,89.4,325.4,89.5z"/>
		<path class="st5" d="M325.7,90.1C325.7,90.1,325.7,90.1,325.7,90.1c0-0.1-0.1-0.2-0.1-0.3c0,0,0,0,0,0
			C325.6,89.9,325.7,90,325.7,90.1z"/>
		<path class="st5" d="M325.9,90.6C325.9,90.6,325.9,90.6,325.9,90.6c0-0.1,0-0.2-0.1-0.3c0,0,0,0,0,0
			C325.8,90.4,325.9,90.5,325.9,90.6z"/>
		<path class="st5" d="M326,91.2C326,91.2,326,91.2,326,91.2c0-0.1,0-0.2,0-0.3c0,0,0,0,0,0C326,91,326,91.1,326,91.2z"/>
		<path class="st5" d="M325,89C325,89,325,89,325,89c-0.1-0.1-0.1-0.2-0.2-0.2c0,0,0,0,0,0C324.9,88.8,325,88.9,325,89z"/>
		<path class="st5" d="M324.6,88.5C324.6,88.5,324.6,88.5,324.6,88.5c-0.1-0.1-0.1-0.1-0.2-0.2c0,0,0,0,0,0
			C324.4,88.3,324.5,88.4,324.6,88.5z"/>
		<polygon class="st5" points="226.5,102.5 462.6,238.8 462.6,238.8 226.5,102.5 		"/>
		<polygon class="st6" points="226.5,102.5 226.5,102.5 216,96.4 320.5,35.6 320.5,35.6 216,96.4 		"/>
		<polygon class="st5" points="243.6,99.7 243.6,99.7 257.6,91.5 317.2,125.9 317.2,125.9 257.6,91.5 		"/>
		<path class="st5" d="M353.1,124C353.1,124,353.1,124,353.1,124c-0.2,0.2-0.3,0.3-0.5,0.5c0,0,0,0,0,0
			C352.8,124.4,352.9,124.2,353.1,124z"/>
		<path class="st5" d="M351.1,126.3C351.1,126.3,351.1,126.3,351.1,126.3c-0.1,0.2-0.3,0.4-0.4,0.5c0,0,0,0,0,0
			C350.8,126.6,350.9,126.5,351.1,126.3z"/>
		<path class="st5" d="M354.1,123.1c-0.1,0.1-0.3,0.3-0.4,0.4c0,0,0,0,0,0C353.9,123.3,354,123.2,354.1,123.1z"/>
		<path class="st5" d="M358.3,119.9C358.3,119.9,358.3,119.9,358.3,119.9c-0.2,0.1-0.3,0.2-0.5,0.3c0,0,0,0,0,0
			C358.1,120.1,358.2,120,358.3,119.9z"/>
		<path class="st5" d="M355.5,121.9C355.5,121.9,355.5,121.9,355.5,121.9c-0.2,0.1-0.4,0.3-0.5,0.4c0,0,0,0,0,0
			C355.2,122.2,355.3,122,355.5,121.9z"/>
		<path class="st5" d="M356.4,121.2C356.4,121.2,356.4,121.3,356.4,121.2C356.3,121.3,356.3,121.3,356.4,121.2
			C356.4,121.3,356.4,121.2,356.4,121.2z"/>
		<path class="st5" d="M350.2,127.4C350.2,127.4,350.2,127.4,350.2,127.4c-0.1,0.2-0.2,0.4-0.4,0.5c0,0,0,0,0,0
			C350,127.8,350.1,127.6,350.2,127.4z"/>
		<path class="st5" d="M349.4,128.6C349.4,128.6,349.4,128.6,349.4,128.6c-0.1,0.2-0.2,0.4-0.3,0.6c0,0,0,0,0,0
			C349.2,129,349.3,128.8,349.4,128.6z"/>
		<path class="st5" d="M347.2,134.7C347.2,134.7,347.2,134.7,347.2,134.7c0,0.2-0.1,0.4-0.1,0.6c0,0,0,0,0,0
			C347.1,135.1,347.1,134.9,347.2,134.7z"/>
		<path class="st5" d="M347,135.9C347,135.9,347,135.9,347,135.9c0,0.2,0,0.4,0,0.6c0,0,0,0,0,0C347,136.3,347,136.1,347,135.9z"/>
		<path class="st5" d="M347.4,133.4C347.4,133.4,347.4,133.4,347.4,133.4c0,0.2-0.1,0.4-0.1,0.6c0,0,0,0,0,0
			C347.3,133.8,347.4,133.6,347.4,133.4z"/>
		<path class="st5" d="M348.8,129.8C348.8,129.8,348.8,129.8,348.8,129.8c-0.1,0.2-0.2,0.4-0.3,0.6c0,0,0,0,0,0
			C348.6,130.2,348.7,130,348.8,129.8z"/>
		<path class="st5" d="M347.8,132.2C347.8,132.2,347.8,132.2,347.8,132.2c-0.1,0.2-0.1,0.4-0.2,0.6c0,0,0,0,0,0
			C347.7,132.6,347.7,132.4,347.8,132.2z"/>
		<path class="st5" d="M348.2,131C348.2,131,348.2,131,348.2,131c-0.1,0.2-0.1,0.4-0.2,0.6c0,0,0,0,0,0
			C348.1,131.4,348.1,131.2,348.2,131z"/>
		<path class="st5" d="M352,125.2C352,125.2,352,125.2,352,125.2c-0.2,0.2-0.3,0.4-0.4,0.5c0,0,0,0,0,0
			C351.7,125.5,351.9,125.3,352,125.2z"/>
		<path class="st5" d="M364.1,113.9C364.1,113.9,364.1,113.9,364.1,113.9c-0.2,0.1-0.4,0.1-0.5,0.2h0
			C363.8,114.1,363.9,114,364.1,113.9z"/>
		<path class="st5" d="M371.5,111.5C371.5,111.5,371.5,111.5,371.5,111.5c-0.1,0-0.2,0.1-0.4,0.1c0,0,0,0,0,0
			C371.3,111.6,371.4,111.5,371.5,111.5z"/>
		<path class="st5" d="M379.4,109.9C379.4,109.9,379.4,109.9,379.4,109.9c-0.2,0-0.4,0.1-0.6,0.1c0,0,0,0,0,0
			C379,110,379.2,109.9,379.4,109.9z"/>
		<path class="st5" d="M428.4,118.9c-0.1-0.1-0.2-0.1-0.2-0.2c-0.2-0.1-0.4-0.3-0.6-0.4c0,0,0,0,0,0
			C427.9,118.5,428.1,118.7,428.4,118.9z"/>
		<path class="st5" d="M391.5,109C391.5,109,391.5,109,391.5,109C391.5,109,391.5,109,391.5,109C391.5,109,391.5,109,391.5,109
			C391.5,109,391.5,109,391.5,109z"/>
		<path class="st5" d="M430,120c0,0-0.1-0.1-0.1-0.1c-0.2-0.1-0.4-0.3-0.6-0.5c0,0,0,0,0,0C429.5,119.6,429.7,119.8,430,120z"/>
		<path class="st5" d="M387.7,109.1C387.7,109.1,387.7,109.1,387.7,109.1c-0.2,0-0.4,0-0.5,0c0,0,0,0,0,0
			C387.3,109.1,387.5,109.1,387.7,109.1z"/>
		<path class="st5" d="M431.4,121.1c0,0-0.1-0.1-0.1-0.1c-0.2-0.2-0.4-0.3-0.6-0.5c0,0,0,0,0,0C431,120.7,431.2,120.9,431.4,121.1z"
			/>
		<path class="st5" d="M375.2,110.6C375.2,110.6,375.2,110.6,375.2,110.6c-0.1,0-0.2,0-0.2,0.1c0,0,0,0,0,0
			C375.1,110.7,375.1,110.7,375.2,110.6z"/>
		<path class="st5" d="M440.1,135.2C440.1,135.2,440.1,135.2,440.1,135.2c0-0.2,0-0.4-0.1-0.7c0,0,0,0,0,0
			C440,134.8,440.1,135,440.1,135.2z"/>
		<path class="st5" d="M383.6,109.4C383.6,109.4,383.6,109.4,383.6,109.4c-0.2,0-0.4,0-0.6,0.1c0,0,0,0,0,0
			C383.1,109.4,383.3,109.4,383.6,109.4z"/>
		<path class="st5" d="M367.8,112.6C367.8,112.6,367.8,112.6,367.8,112.6c-0.2,0.1-0.4,0.1-0.6,0.2c0,0,0,0,0,0
			C367.4,112.7,367.6,112.6,367.8,112.6z"/>
		<path class="st5" d="M425.9,117.3c0.3,0.2,0.6,0.4,0.9,0.6C426.5,117.7,426.2,117.5,425.9,117.3
			C425.9,117.3,425.9,117.3,425.9,117.3C425.9,117.3,425.9,117.3,425.9,117.3z"/>
		<path class="st5" d="M439.5,132.5C439.5,132.5,439.5,132.5,439.5,132.5c-0.1-0.2-0.1-0.4-0.2-0.7c0,0,0,0,0,0
			C439.4,132.1,439.5,132.3,439.5,132.5z"/>
		<path class="st5" d="M439.9,133.9C439.9,133.9,439.9,133.9,439.9,133.9c0-0.2-0.1-0.4-0.1-0.7c0,0,0,0,0,0
			C439.8,133.4,439.8,133.7,439.9,133.9z"/>
		<path class="st5" d="M435.1,124.7C435.1,124.7,435.1,124.7,435.1,124.7c-0.2-0.2-0.4-0.4-0.5-0.6c0,0,0,0,0,0
			C434.8,124.3,435,124.5,435.1,124.7z"/>
		<path class="st5" d="M440.2,136.6C440.2,136.6,440.2,136.6,440.2,136.6c0-0.2,0-0.4,0-0.7c0,0,0,0,0,0
			C440.2,136.1,440.2,136.4,440.2,136.6z"/>
		<path class="st5" d="M436.1,126C436.1,126,436.1,126,436.1,126c-0.2-0.2-0.3-0.4-0.5-0.6c0,0,0,0,0,0
			C435.8,125.6,436,125.8,436.1,126z"/>
		<path class="st5" d="M438.5,129.9C438.5,129.9,438.5,129.9,438.5,129.9c-0.1-0.2-0.2-0.4-0.3-0.6c0,0,0,0,0,0
			C438.3,129.4,438.4,129.7,438.5,129.9z"/>
		<path class="st5" d="M437,127.3C437,127.3,437,127.2,437,127.3c-0.2-0.2-0.3-0.4-0.4-0.6c0,0,0,0,0,0
			C436.8,126.8,436.9,127.1,437,127.3z"/>
		<path class="st5" d="M439.1,131.2C439.1,131.2,439.1,131.2,439.1,131.2c-0.1-0.2-0.2-0.4-0.2-0.6c0,0,0,0,0,0
			C438.9,130.8,439,131,439.1,131.2z"/>
		<path class="st5" d="M437.8,128.6C437.8,128.6,437.8,128.5,437.8,128.6c-0.1-0.2-0.2-0.4-0.4-0.6c0,0,0,0,0,0
			C437.6,128.1,437.7,128.3,437.8,128.6z"/>
		<path class="st5" d="M434,123.5C434,123.5,434,123.5,434,123.5c-0.2-0.2-0.4-0.4-0.6-0.6c0,0,0,0,0,0
			C433.6,123.1,433.8,123.3,434,123.5z"/>
		<path class="st5" d="M440.2,138C440.2,138,440.2,138,440.2,138c0-0.2,0-0.5,0-0.7c0,0,0,0,0,0C440.2,137.5,440.2,137.7,440.2,138z
			"/>
		<path class="st5" d="M432.8,122.3C432.8,122.3,432.7,122.3,432.8,122.3c-0.2-0.2-0.4-0.4-0.6-0.6c0,0,0,0,0,0
			C432.4,121.9,432.6,122.1,432.8,122.3z"/>
		<path class="st5" d="M440.1,139.3C440.1,139.3,440.1,139.3,440.1,139.3c0-0.2,0.1-0.5,0.1-0.7c0,0,0,0,0,0
			C440.2,138.9,440.1,139.1,440.1,139.3z"/>
		<path class="st5" d="M439.1,143.3C439.1,143.3,439.1,143.3,439.1,143.3c0.1-0.2,0.2-0.5,0.3-0.7c0,0,0,0,0,0
			C439.3,142.9,439.2,143.1,439.1,143.3z"/>
		<path class="st5" d="M439.5,142C439.5,142,439.5,142,439.5,142c0.1-0.2,0.1-0.5,0.2-0.7c0,0,0,0,0,0
			C439.7,141.5,439.6,141.8,439.5,142z"/>
		<path class="st5" d="M439.9,140.7C439.9,140.7,439.9,140.7,439.9,140.7c0-0.2,0.1-0.5,0.1-0.7c0,0,0,0,0,0
			C440,140.2,439.9,140.4,439.9,140.7z"/>
		<path class="st5" d="M404.2,110C404.2,110,404.1,110,404.2,110c-0.2,0-0.4-0.1-0.6-0.1c0,0,0,0,0,0C403.7,109.9,404,110,404.2,110
			z"/>
		<path class="st5" d="M433.7,128.6c-0.1-0.2-0.3-0.4-0.4-0.6c0,0,0,0,0,0C433.4,128.3,433.5,128.4,433.7,128.6z"/>
		<path class="st5" d="M422.9,115.7C422.9,115.7,422.9,115.7,422.9,115.7c-0.1-0.1-0.3-0.1-0.4-0.2c0,0,0,0,0,0
			C422.6,115.6,422.7,115.6,422.9,115.7z"/>
		<path class="st5" d="M432.9,127.5C432.9,127.5,432.9,127.5,432.9,127.5c-0.1-0.2-0.3-0.4-0.5-0.6c0,0,0,0,0,0
			C432.6,127.1,432.8,127.3,432.9,127.5z"/>
		<path class="st5" d="M431.1,125.2C431.1,125.2,431.1,125.2,431.1,125.2C431.1,125.2,431.1,125.2,431.1,125.2L431.1,125.2z"/>
		<path class="st5" d="M432,126.3C432,126.3,432,126.3,432,126.3c-0.2-0.2-0.4-0.4-0.5-0.6c0,0,0,0,0,0
			C431.7,125.9,431.9,126.1,432,126.3z"/>
		<path class="st5" d="M431,125.2c-0.2-0.2-0.4-0.4-0.6-0.6c0,0,0,0,0,0C430.7,124.8,430.9,125,431,125.2z"/>
		<path class="st5" d="M408,110.7C408,110.7,408,110.7,408,110.7c-0.1,0-0.2-0.1-0.3-0.1c0,0,0,0,0,0
			C407.8,110.7,407.9,110.7,408,110.7z"/>
		<path class="st5" d="M415.7,112.8C415.7,112.8,415.7,112.8,415.7,112.8c-0.2-0.1-0.4-0.1-0.5-0.2c0,0,0,0,0,0
			C415.3,112.7,415.5,112.7,415.7,112.8z"/>
		<path class="st5" d="M411.8,111.6C411.8,111.6,411.8,111.6,411.8,111.6c-0.1,0-0.2,0-0.3-0.1c0,0,0,0,0,0
			C411.6,111.6,411.7,111.6,411.8,111.6z"/>
		<path class="st5" d="M400,109.5C400,109.5,400,109.5,400,109.5c-0.2,0-0.4,0-0.6-0.1c0,0,0,0,0,0
			C399.6,109.4,399.8,109.5,400,109.5z"/>
		<path class="st5" d="M419.4,114.2C419.4,114.2,419.4,114.2,419.4,114.2c-0.2-0.1-0.4-0.2-0.6-0.2c0,0,0,0,0,0
			C419,114,419.2,114.1,419.4,114.2z"/>
		<path class="st5" d="M395.8,109.1C395.8,109.1,395.8,109.1,395.8,109.1c-0.2,0-0.3,0-0.5,0c0,0,0,0,0,0
			C395.4,109.1,395.6,109.1,395.8,109.1z"/>
		<path class="st5" d="M427.5,121.9C427.5,121.9,427.5,121.9,427.5,121.9c-0.3-0.2-0.6-0.4-0.8-0.6c0,0,0,0,0,0
			C427,121.5,427.3,121.7,427.5,121.9z"/>
		<path class="st5" d="M428.8,123c-0.2-0.2-0.5-0.4-0.7-0.6c0,0,0,0,0,0C428.3,122.6,428.6,122.8,428.8,123z"/>
		<path class="st5" d="M430,124.1C430,124.1,430,124.1,430,124.1C430,124.1,430,124.1,430,124.1L430,124.1z"/>
		<path class="st6" d="M347.1,139C347.1,139,347.1,139,347.1,139c0,0.2,0,0.4,0.1,0.6c0,0,0,0,0,0
			C347.1,139.4,347.1,139.2,347.1,139z"/>
		<path class="st6" d="M348,142.7C348,142.7,348,142.7,348,142.7c0.1,0.2,0.1,0.3,0.2,0.5v0C348.1,143,348.1,142.9,348,142.7z"/>
		<path class="st6" d="M347.3,140.3C347.3,140.3,347.3,140.3,347.3,140.3c0,0.2,0.1,0.4,0.1,0.6v0
			C347.4,140.7,347.4,140.5,347.3,140.3z"/>
		<path class="st6" d="M414.9,125c-0.4-0.2-0.7-0.5-1.1-0.7C414.2,124.5,414.5,124.8,414.9,125z"/>
		<path class="st6" d="M368.2,125C368.2,125,368.2,125,368.2,125c-0.1,0.1-0.2,0.2-0.3,0.2c0.1,0,0.1-0.1,0.2-0.1
			C368.1,125.1,368.1,125,368.2,125z"/>
		<path class="st6" d="M365.3,127.2C365.3,127.2,365.3,127.2,365.3,127.2c-0.1,0.1-0.2,0.2-0.4,0.3c0,0,0,0,0.1-0.1
			C365.1,127.4,365.2,127.3,365.3,127.2z"/>
		<path class="st6" d="M347.6,141.5C347.6,141.5,347.6,141.5,347.6,141.5c0.1,0.2,0.1,0.4,0.2,0.6c0,0,0,0,0,0
			C347.7,141.9,347.7,141.7,347.6,141.5z"/>
		<path class="st6" d="M367.1,125.7C367.1,125.7,367.1,125.7,367.1,125.7c-0.1,0.1-0.2,0.2-0.4,0.3c0,0,0.1-0.1,0.1-0.1
			C367,125.8,367,125.8,367.1,125.7z"/>
		<path class="st6" d="M420.1,129.5C420.1,129.5,420.1,129.5,420.1,129.5c-0.1-0.1-0.2-0.3-0.4-0.4c0,0,0,0,0,0
			C419.9,129.3,420,129.4,420.1,129.5z"/>
		<path class="st6" d="M366.2,126.4C366.2,126.4,366.2,126.4,366.2,126.4c-0.1,0.1-0.3,0.2-0.4,0.3c0,0,0,0,0.1-0.1
			C365.9,126.6,366,126.5,366.2,126.4z"/>
		<path class="st6" d="M435,143.2c0.1-0.2,0.1-0.4,0.2-0.6C435.2,142.8,435.1,143,435,143.2C435,143.2,435,143.2,435,143.2z"/>
		<path class="st6" d="M435.8,140.7c0,0,0-0.1,0-0.1C435.8,140.7,435.8,140.7,435.8,140.7L435.8,140.7z"/>
		<path class="st6" d="M363.7,128.7C363.7,128.7,363.7,128.7,363.7,128.7c-0.1,0.1-0.2,0.2-0.3,0.4c0,0,0,0,0,0
			C363.5,128.9,363.6,128.8,363.7,128.7z"/>
		<path class="st6" d="M364.4,127.9C364.4,127.9,364.4,127.9,364.4,127.9c-0.1,0.1-0.2,0.2-0.3,0.4c0,0,0,0,0,0
			C364.2,128.1,364.3,128,364.4,127.9z"/>
		<path class="st6" d="M417.8,127.2C417.8,127.2,417.8,127.2,417.8,127.2c-0.2-0.1-0.3-0.3-0.5-0.4c0,0,0.1,0.1,0.1,0.1
			C417.6,127,417.7,127.1,417.8,127.2z"/>
		<path class="st6" d="M415.9,125.7C415.9,125.7,415.9,125.7,415.9,125.7c-0.2-0.1-0.4-0.3-0.7-0.4c0.1,0.1,0.2,0.2,0.4,0.2
			C415.7,125.6,415.8,125.6,415.9,125.7z"/>
		<path class="st6" d="M419.4,128.7C419.4,128.7,419.4,128.7,419.4,128.7c-0.1-0.1-0.3-0.3-0.4-0.4c0,0,0,0,0.1,0.1
			C419.2,128.5,419.3,128.6,419.4,128.7z"/>
		<path class="st6" d="M347,137.8C347,137.8,347,137.8,347,137.8c0,0.2,0,0.4,0,0.6c0,0,0,0,0,0C347,138.2,347,138,347,137.8z"/>
		<path class="st6" d="M418.7,128C418.7,128,418.7,128,418.7,128c-0.1-0.1-0.3-0.3-0.4-0.4c0,0,0.1,0.1,0.1,0.1
			C418.4,127.7,418.5,127.8,418.7,128z"/>
		<path class="st6" d="M416.9,126.4C416.9,126.4,416.9,126.4,416.9,126.4c-0.2-0.1-0.4-0.3-0.6-0.4c0.1,0,0.1,0.1,0.2,0.1
			C416.7,126.2,416.8,126.3,416.9,126.4z"/>
		<path class="st6" d="M353.7,123.4C353.7,123.4,353.7,123.4,353.7,123.4c-0.2,0.2-0.5,0.4-0.7,0.6c0,0,0,0,0,0
			C353.3,123.8,353.5,123.6,353.7,123.4z"/>
		<path class="st6" d="M352.6,124.5C352.6,124.5,352.6,124.5,352.6,124.5c-0.2,0.2-0.4,0.4-0.6,0.6c0,0,0,0,0,0
			C352.2,124.9,352.4,124.7,352.6,124.5z"/>
		<path class="st6" d="M357.9,120.2c-0.2,0.1-0.4,0.2-0.5,0.4C357.5,120.4,357.7,120.3,357.9,120.2
			C357.9,120.2,357.9,120.2,357.9,120.2z"/>
		<path class="st6" d="M351.6,125.7C351.6,125.7,351.6,125.7,351.6,125.7c-0.2,0.2-0.4,0.4-0.5,0.6c0,0,0,0,0,0
			C351.2,126.1,351.4,125.9,351.6,125.7z"/>
		<path class="st6" d="M359.9,118.9c3.5-2,7.4-3.6,11.6-4.8C367.3,115.3,363.4,116.9,359.9,118.9c-0.5,0.3-1.1,0.6-1.6,1
			c0,0,0,0,0,0C358.9,119.6,359.4,119.2,359.9,118.9z"/>
		<path class="st6" d="M356.3,121.3C356.3,121.3,356.3,121.3,356.3,121.3c-0.3,0.2-0.6,0.4-0.8,0.6c0,0,0,0,0,0
			C355.8,121.7,356.1,121.5,356.3,121.3z"/>
		<path class="st6" d="M355,122.3c-0.2,0.1-0.3,0.3-0.5,0.4C354.6,122.6,354.8,122.5,355,122.3C355,122.3,355,122.3,355,122.3z"/>
		<path class="st6" d="M347.1,135.3C347.1,135.3,347.1,135.3,347.1,135.3c0,0.2-0.1,0.4-0.1,0.6c0,0,0,0,0,0
			C347,135.7,347.1,135.5,347.1,135.3z"/>
		<path class="st6" d="M347.6,132.8C347.6,132.8,347.6,132.8,347.6,132.8c-0.1,0.2-0.1,0.4-0.2,0.6c0,0,0,0,0,0
			C347.5,133.2,347.5,133,347.6,132.8z"/>
		<path class="st6" d="M347.3,134C347.3,134,347.3,134,347.3,134c0,0.2-0.1,0.4-0.1,0.6c0,0,0,0,0,0
			C347.2,134.5,347.3,134.2,347.3,134z"/>
		<path class="st6" d="M348,131.6C348,131.6,348,131.6,348,131.6c-0.1,0.2-0.2,0.4-0.2,0.6c0,0,0,0,0,0
			C347.8,132,347.9,131.8,348,131.6z"/>
		<path class="st6" d="M350.7,126.8C350.7,126.8,350.7,126.8,350.7,126.8c-0.2,0.2-0.3,0.4-0.5,0.6c0,0,0,0,0,0
			C350.3,127.2,350.5,127,350.7,126.8z"/>
		<path class="st6" d="M347,136.5C347,136.5,347,136.5,347,136.5c0,0.2,0,0.4,0,0.6c0,0,0,0,0,0C347,136.9,347,136.7,347,136.5z"/>
		<path class="st6" d="M349.8,128C349.8,128,349.8,128,349.8,128c-0.1,0.2-0.3,0.4-0.4,0.6c0,0,0,0,0,0
			C349.6,128.4,349.7,128.2,349.8,128z"/>
		<path class="st6" d="M348.5,130.4C348.5,130.4,348.5,130.4,348.5,130.4c-0.1,0.2-0.2,0.4-0.3,0.6c0,0,0,0,0,0
			C348.3,130.8,348.4,130.6,348.5,130.4z"/>
		<path class="st6" d="M349.1,129.2C349.1,129.2,349.1,129.2,349.1,129.2c-0.1,0.2-0.2,0.4-0.3,0.6c0,0,0,0,0,0
			C348.9,129.6,349,129.4,349.1,129.2z"/>
		<path class="st6" d="M432.5,126.9C432.5,126.9,432.5,126.9,432.5,126.9c-0.1-0.2-0.3-0.4-0.4-0.5c0,0,0,0,0,0
			C432.2,126.5,432.3,126.7,432.5,126.9z"/>
		<path class="st6" d="M431.5,125.7C431.5,125.7,431.5,125.7,431.5,125.7c-0.2-0.2-0.3-0.4-0.4-0.5l0,0
			C431.2,125.4,431.4,125.5,431.5,125.7z"/>
		<path class="st6" d="M430.5,124.6C430.5,124.6,430.5,124.6,430.5,124.6c-0.2-0.2-0.3-0.3-0.5-0.5h0
			C430.2,124.2,430.3,124.4,430.5,124.6z"/>
		<path class="st6" d="M383.1,111.8c-0.2,0-0.3,0-0.5,0.1C382.8,111.8,383,111.8,383.1,111.8z"/>
		<path class="st6" d="M428.1,122.4C428.1,122.4,428.1,122.4,428.1,122.4c-0.2-0.2-0.4-0.3-0.6-0.5c0,0,0,0,0,0
			C427.7,122.1,427.9,122.2,428.1,122.4z"/>
		<path class="st6" d="M433.3,128.1C433.3,128.1,433.3,128.1,433.3,128.1c-0.1-0.2-0.2-0.4-0.4-0.6c0,0,0,0,0,0
			C433,127.7,433.2,127.9,433.3,128.1z"/>
		<path class="st6" d="M426.7,121.3c-0.1-0.1-0.1-0.1-0.2-0.2C426.6,121.2,426.6,121.3,426.7,121.3
			C426.7,121.3,426.7,121.3,426.7,121.3z"/>
		<path class="st6" d="M373.6,113.5c1.1-0.3,2.3-0.5,3.4-0.8C375.9,113,374.8,113.2,373.6,113.5z"/>
		<path class="st5" d="M421,130.8C421,130.8,421,130.8,421,130.8c-0.1-0.2-0.2-0.3-0.3-0.4c0,0,0,0,0,0
			C420.8,130.5,420.9,130.7,421,130.8z"/>
		<path class="st5" d="M422.8,139.4C422.8,139.4,422.8,139.4,422.8,139.4c0-0.2,0.1-0.3,0.1-0.5c0,0,0,0,0,0
			C422.9,139.1,422.9,139.3,422.8,139.4z"/>
		<path class="st5" d="M422.8,135.1C422.8,135.1,422.8,135,422.8,135.1c0-0.2-0.1-0.3-0.1-0.4c0,0,0,0,0,0
			C422.8,134.8,422.8,134.9,422.8,135.1z"/>
		<path class="st5" d="M360.1,136.7C360.1,136.7,360.1,136.7,360.1,136.7c0,0.2,0,0.3,0,0.5l0,0C360.1,137,360.1,136.9,360.1,136.7z
			"/>
		<path class="st5" d="M422.2,141.6C422.2,141.6,422.2,141.6,422.2,141.6L422.2,141.6C422.2,141.6,422.2,141.6,422.2,141.6z"/>
		<path class="st5" d="M422.6,140.2c0-0.1,0.1-0.2,0.1-0.3c0,0,0,0,0,0C422.7,140,422.7,140.1,422.6,140.2z"/>
		<path class="st5" d="M423,136.8C423,136.8,423,136.8,423,136.8c0-0.1,0-0.3,0-0.4c0,0,0,0,0,0C423,136.5,423,136.7,423,136.8z"/>
		<path class="st5" d="M423,135.9C423,135.9,423,135.9,423,135.9c0-0.2,0-0.3-0.1-0.4c0,0,0,0,0,0C422.9,135.6,423,135.8,423,135.9z
			"/>
		<path class="st5" d="M405.7,128.4c0.3,0,0.5,0,0.8,0.1C406.3,128.4,406,128.4,405.7,128.4L405.7,128.4L405.7,128.4z"/>
		<path class="st5" d="M423,137.7c0-0.1,0-0.3,0-0.4C423.1,137.4,423,137.5,423,137.7C423,137.7,423,137.7,423,137.7z"/>
		<path class="st5" d="M423,138.6C423,138.6,423,138.6,423,138.6c0-0.2,0-0.3,0.1-0.4c0,0,0,0,0,0C423,138.3,423,138.4,423,138.6z"
			/>
		<path class="st5" d="M360.2,135.8C360.2,135.8,360.2,135.8,360.2,135.8c0,0.2,0,0.3-0.1,0.5c0,0,0,0,0,0
			C360.2,136.1,360.2,136,360.2,135.8z"/>
		<path class="st5" d="M361.7,131.5C361.7,131.5,361.6,131.5,361.7,131.5c-0.1,0.2-0.2,0.3-0.3,0.5c0,0,0,0,0,0
			C361.5,131.8,361.6,131.7,361.7,131.5z"/>
		<path class="st5" d="M361.2,132.4C361.2,132.4,361.2,132.4,361.2,132.4c-0.1,0.2-0.1,0.3-0.2,0.5c0,0,0,0,0,0
			C361.1,132.7,361.1,132.5,361.2,132.4z"/>
		<path class="st5" d="M363.4,129C363.4,129.1,363.4,129.1,363.4,129c-0.2,0.2-0.3,0.3-0.4,0.5c0,0,0,0,0,0
			C363.1,129.4,363.3,129.2,363.4,129z"/>
		<path class="st5" d="M362.2,130.7C362.2,130.7,362.2,130.7,362.2,130.7c-0.1,0.2-0.2,0.3-0.3,0.5c0,0,0,0,0,0
			C362,131,362.1,130.8,362.2,130.7z"/>
		<path class="st5" d="M360.4,135C360.4,135,360.4,135,360.4,135c0,0.2-0.1,0.3-0.1,0.5c0,0,0,0,0,0
			C360.3,135.3,360.3,135.1,360.4,135z"/>
		<path class="st5" d="M360.6,134.1C360.6,134.1,360.6,134.1,360.6,134.1c0,0.2-0.1,0.3-0.1,0.5c0,0,0,0,0,0
			C360.5,134.4,360.5,134.2,360.6,134.1z"/>
		<path class="st5" d="M360.9,133.2C360.9,133.2,360.9,133.2,360.9,133.2c-0.1,0.2-0.1,0.3-0.2,0.5c0,0,0,0,0,0
			C360.7,133.5,360.8,133.4,360.9,133.2z"/>
		<path class="st5" d="M362.8,129.9C362.7,129.9,362.7,129.9,362.8,129.9c-0.1,0.2-0.2,0.3-0.4,0.5c0,0,0,0,0,0
			C362.5,130.2,362.6,130,362.8,129.9z"/>
		<path class="st5" d="M422.6,134.2C422.6,134.2,422.6,134.2,422.6,134.2c0-0.2-0.1-0.3-0.1-0.4c0,0,0,0,0,0
			C422.5,133.9,422.6,134,422.6,134.2z"/>
		<path class="st5" d="M421.5,131.6C421.5,131.6,421.5,131.6,421.5,131.6c-0.1-0.2-0.2-0.3-0.2-0.4c0,0,0,0,0,0
			C421.4,131.3,421.4,131.5,421.5,131.6z"/>
		<path class="st5" d="M422,132.5C421.9,132.5,421.9,132.5,422,132.5c-0.1-0.2-0.1-0.3-0.2-0.4c0,0,0,0,0,0
			C421.8,132.2,421.9,132.3,422,132.5z"/>
		<path class="st5" d="M422.3,133.3C422.3,133.3,422.3,133.3,422.3,133.3c-0.1-0.2-0.1-0.3-0.2-0.4c0,0,0,0,0,0
			C422.2,133,422.3,133.2,422.3,133.3z"/>
		<path class="st5" d="M364.1,128.2C364.1,128.3,364.1,128.3,364.1,128.2c-0.2,0.2-0.3,0.3-0.5,0.5c0,0,0,0,0,0
			C363.8,128.6,364,128.4,364.1,128.2z"/>
		<path class="st5" d="M416.5,126.1c-0.1,0-0.1-0.1-0.2-0.1c-0.1-0.1-0.3-0.2-0.4-0.3c0,0,0,0,0,0
			C416.2,125.8,416.3,126,416.5,126.1z"/>
		<path class="st5" d="M417.5,126.9c0,0-0.1-0.1-0.1-0.1c-0.1-0.1-0.3-0.2-0.4-0.3c0,0,0,0,0,0C417.1,126.6,417.3,126.7,417.5,126.9
			z"/>
		<path class="st5" d="M365,127.5C364.9,127.5,364.9,127.5,365,127.5c-0.2,0.2-0.4,0.3-0.5,0.5c0,0,0,0,0,0
			C364.6,127.8,364.8,127.6,365,127.5z"/>
		<path class="st5" d="M368,125.1c-0.1,0-0.1,0.1-0.2,0.1c-0.2,0.2-0.5,0.3-0.7,0.5c0,0,0,0,0,0C367.4,125.5,367.7,125.3,368,125.1z
			"/>
		<path class="st5" d="M418.3,127.6C418.3,127.6,418.2,127.6,418.3,127.6c-0.2-0.2-0.3-0.3-0.5-0.4c0,0,0,0,0,0
			C418,127.3,418.1,127.5,418.3,127.6z"/>
		<path class="st5" d="M366.9,125.9c0,0-0.1,0.1-0.1,0.1c-0.2,0.1-0.4,0.3-0.6,0.4c0,0,0,0,0,0C366.4,126.2,366.6,126.1,366.9,125.9
			z"/>
		<path class="st5" d="M365.8,126.7C365.8,126.7,365.8,126.7,365.8,126.7c-0.2,0.2-0.4,0.3-0.6,0.5c0,0,0,0,0,0
			C365.4,127,365.6,126.9,365.8,126.7z"/>
		<path class="st5" d="M420.4,130C420.4,130,420.4,129.9,420.4,130c-0.1-0.2-0.2-0.3-0.3-0.4c0,0,0,0,0,0
			C420.2,129.7,420.3,129.8,420.4,130z"/>
		<path class="st5" d="M419.1,128.4C419.1,128.4,419,128.3,419.1,128.4c-0.2-0.2-0.3-0.3-0.4-0.4c0,0,0,0,0,0
			C418.8,128.1,418.9,128.2,419.1,128.4z"/>
		<path class="st5" d="M419.8,129.2C419.8,129.1,419.8,129.1,419.8,129.2c-0.1-0.2-0.3-0.3-0.4-0.4c0,0,0,0,0,0
			C419.6,128.9,419.7,129,419.8,129.2z"/>
		<path class="st5" d="M368.2,125C368.2,125,368.2,125,368.2,125c0.4-0.2,0.7-0.5,1.1-0.7c12.3-7.1,32.2-7.1,44.5,0
			c0.7,0.4,1.3,0.8,1.9,1.2c-0.1-0.1-0.2-0.2-0.4-0.2c-0.1-0.1-0.3-0.2-0.4-0.3c-0.4-0.2-0.7-0.5-1.1-0.7c-12.3-7.1-32.3-7.1-44.5,0
			C368.9,124.5,368.5,124.8,368.2,125z"/>
		<polygon class="st6" points="405.7,128.4 396.5,128.4 405.7,128.4 		"/>
		<path class="st6" d="M407.1,128.7c-0.2-0.1-0.4-0.2-0.6-0.2s-0.5-0.1-0.8-0.1C406.3,128.4,406.8,128.5,407.1,128.7z"/>
		<path class="st6" d="M203.8,95.2c0,0,0,0.1-0.1,0.1c0,0.1-0.1,0.2-0.1,0.2c0,0.1,0,0.1,0,0.2c-0.1,0.6,0.2,1.2,1,1.7l256.4,148
			c1.4,0.8,3.6,0.8,5,0l112.7-65.5c1.4-0.8,1.4-2.1,0-2.9L322.3,29c-1.4-0.8-3.6-0.8-5,0L204.5,94.5c-0.2,0.1-0.3,0.2-0.4,0.3
			c0,0-0.1,0.1-0.1,0.1C203.9,95,203.8,95.1,203.8,95.2z M320.5,32.6l252,145.5l-109.8,63.8l-252-145.5L320.5,32.6z"/>
		<path class="st5" d="M435.4,149.5C435.4,149.5,435.4,149.5,435.4,149.5c0.1-0.1,0.2-0.3,0.4-0.4c0,0,0,0,0,0
			C435.7,149.2,435.5,149.4,435.4,149.5z"/>
		<path class="st5" d="M435.6,141.4c0.1-0.2,0.1-0.4,0.2-0.7v0C435.8,141,435.7,141.2,435.6,141.4z"/>
		<path class="st7" d="M377,146.2c0.8,0.5,2.1,0.5,2.8,0l27.4-15.9c0.3-0.2,0.5-0.4,0.5-0.6s0-0.5-0.1-0.7c-0.1-0.1-0.3-0.3-0.4-0.4
			c-0.4-0.2-0.9-0.3-1.4-0.3l0,0l-9.3,0c-0.3,0-0.5,0-0.8,0.1c-0.5,0.1-0.9,0.3-1.1,0.6c-0.1,0.1-0.2,0.3-0.2,0.4
			c0,0.3,0.2,0.6,0.6,0.8c0.4,0.2,0.9,0.3,1.4,0.3l4.4,0l-24,13.9c-0.3,0.2-0.5,0.4-0.5,0.6c0,0.1,0,0.1,0,0.2
			C376.4,145.7,376.6,146,377,146.2z"/>
		<polygon class="st5" points="539.6,174.7 539.6,174.7 480.1,140.3 466,148.5 466,148.5 480.1,140.3 		"/>
		<path class="st6" d="M422.2,141.6c0-0.1,0.1-0.2,0.1-0.2C422.2,141.4,422.2,141.5,422.2,141.6L422.2,141.6z"/>
		<path class="st6" d="M422.7,139.9C422.7,139.9,422.7,139.9,422.7,139.9c0-0.1,0.1-0.3,0.1-0.4c0,0,0,0,0,0
			C422.8,139.6,422.8,139.7,422.7,139.9z"/>
		<path class="st6" d="M360.1,137.2C360.1,137.2,360.1,137.2,360.1,137.2C360.1,137.2,360.1,137.2,360.1,137.2L360.1,137.2z"/>
		<path class="st6" d="M422.9,139C422.9,139,422.9,139,422.9,139c0-0.1,0-0.3,0.1-0.4c0,0,0,0,0,0C423,138.7,422.9,138.8,422.9,139z
			"/>
		<path class="st6" d="M423,138.1C423,138.1,423,138.1,423,138.1c0-0.1,0-0.3,0-0.4c0,0,0,0,0,0C423,137.8,423,138,423,138.1z"/>
		<path class="st5" d="M424.7,154.6C424.7,154.6,424.7,154.6,424.7,154.6c0.1-0.1,0.3-0.2,0.4-0.3c0,0,0,0,0,0
			C424.9,154.4,424.8,154.5,424.7,154.6z"/>
		<path class="st5" d="M429.9,150.5c0.1-0.1,0.1-0.1,0.2-0.2C430.1,150.4,430,150.5,429.9,150.5
			C429.9,150.5,429.9,150.5,429.9,150.5z"/>
		<path class="st5" d="M430.2,150.3C430.2,150.3,430.2,150.3,430.2,150.3C430.2,150.2,430.2,150.2,430.2,150.3
			C430.2,150.3,430.2,150.3,430.2,150.3z"/>
		<path class="st5" d="M428.8,151.5C428.8,151.5,428.8,151.5,428.8,151.5c0.1-0.1,0.2-0.2,0.3-0.3c0,0,0,0,0,0
			C429,151.4,428.9,151.4,428.8,151.5z"/>
		<path class="st5" d="M427.7,152.5C427.7,152.5,427.7,152.5,427.7,152.5C427.7,152.5,427.7,152.5,427.7,152.5
			C427.7,152.5,427.7,152.5,427.7,152.5C427.7,152.5,427.7,152.5,427.7,152.5z"/>
		<path class="st5" d="M426.1,153.7C426.1,153.7,426.1,153.7,426.1,153.7c0.1-0.1,0.3-0.2,0.4-0.3c0,0,0,0,0,0
			C426.3,153.5,426.2,153.6,426.1,153.7z"/>
		<path class="st5" d="M432,148.2C432,148.2,432,148.2,432,148.2c0.1-0.1,0.2-0.2,0.2-0.3c0,0,0,0,0,0
			C432.2,148,432.1,148.1,432,148.2z"/>
		<path class="st5" d="M434.1,151C434.1,151,434.1,151,434.1,151c0.2-0.2,0.4-0.4,0.6-0.6c0,0,0,0,0,0
			C434.5,150.5,434.3,150.8,434.1,151z"/>
		<path class="st5" d="M435.2,149.8C435.2,149.8,435.2,149.8,435.2,149.8c0.1-0.1,0.1-0.2,0.2-0.2l0,0
			C435.3,149.6,435.3,149.7,435.2,149.8z"/>
		<path class="st5" d="M432.9,147.1C432.9,147.1,432.9,147.1,432.9,147.1c0.1-0.1,0.1-0.2,0.2-0.3c0,0,0,0,0,0
			C433,146.9,432.9,147,432.9,147.1z"/>
		<path class="st5" d="M434.4,144.7C434.4,144.7,434.4,144.7,434.4,144.7c0.1-0.1,0.1-0.2,0.2-0.3c0,0,0,0,0,0
			C434.5,144.5,434.4,144.6,434.4,144.7z"/>
		<path class="st5" d="M431.2,149.2C431.2,149.2,431.2,149.2,431.2,149.2C431.2,149.2,431.2,149.2,431.2,149.2z"/>
		<path class="st5" d="M433.8,145.8C433.8,145.8,433.8,145.8,433.8,145.8C433.8,145.8,433.8,145.8,433.8,145.8z"/>
		<path class="st5" d="M353.2,150.3c0.2,0.2,0.4,0.4,0.6,0.6c0,0,0,0,0,0C353.6,150.7,353.4,150.5,353.2,150.3z"/>
		<path class="st5" d="M349.5,145.7C349.5,145.7,349.5,145.7,349.5,145.7c0.1,0.2,0.3,0.4,0.4,0.6c0,0,0,0,0,0
			C349.8,146.1,349.6,145.9,349.5,145.7z"/>
		<path class="st5" d="M383.2,162.6c14.1,1.6,29.2-0.8,40.1-7.1c0,0,0,0,0,0c0,0,0,0,0,0C412.4,161.8,397.3,164.2,383.2,162.6z"/>
		<path class="st5" d="M348.3,143.3C348.3,143.3,348.3,143.3,348.3,143.3c0.1,0.2,0.2,0.4,0.3,0.6c0,0,0,0,0,0
			C348.5,143.7,348.3,143.5,348.3,143.3z"/>
		<path class="st5" d="M348.8,144.5C348.8,144.5,348.8,144.5,348.8,144.5c0.1,0.2,0.2,0.4,0.4,0.6c0,0,0,0,0,0
			C349.1,144.9,348.9,144.7,348.8,144.5z"/>
		<path class="st5" d="M354.4,151.4c0.1,0.1,0.2,0.2,0.3,0.2C354.6,151.6,354.5,151.5,354.4,151.4
			C354.4,151.4,354.4,151.4,354.4,151.4z"/>
		<path class="st5" d="M361.8,156.4c1.9,1,4,1.9,6.2,2.7C365.8,158.3,363.7,157.4,361.8,156.4z"/>
		<path class="st5" d="M357,153.5c0.2,0.2,0.5,0.3,0.7,0.5C357.5,153.9,357.3,153.7,357,153.5C357,153.5,357,153.5,357,153.5z"/>
		<path class="st5" d="M347.4,140.9C347.4,140.9,347.4,140.9,347.4,140.9C347.4,140.9,347.4,140.9,347.4,140.9L347.4,140.9z"/>
		<path class="st5" d="M347.2,139.6C347.2,139.6,347.2,139.6,347.2,139.6c0,0.2,0.1,0.4,0.1,0.6c0,0,0,0,0,0
			C347.3,140.1,347.2,139.8,347.2,139.6z"/>
		<path class="st5" d="M347.8,142.1C347.8,142.1,347.8,142.1,347.8,142.1c0.1,0.2,0.2,0.4,0.2,0.6c0,0,0,0,0,0
			C348,142.5,347.9,142.3,347.8,142.1z"/>
		<path class="st5" d="M347.4,140.9c0.1,0.2,0.1,0.4,0.2,0.6c0,0,0,0,0,0C347.6,141.3,347.5,141.1,347.4,140.9z"/>
		<path class="st5" d="M347,138.4C347,138.4,347,138.4,347,138.4c0,0.2,0.1,0.4,0.1,0.6c0,0,0,0,0,0
			C347.1,138.8,347,138.6,347,138.4z"/>
		<path class="st5" d="M434.9,143.6C434.9,143.6,434.9,143.6,434.9,143.6c0-0.1,0.1-0.2,0.1-0.3c0,0,0,0,0,0
			C435,143.4,434.9,143.5,434.9,143.6z"/>
		<path class="st5" d="M347,137.1C347,137.1,347,137.1,347,137.1c0,0.2,0,0.4,0,0.6c0,0,0,0,0,0C347,137.6,347,137.4,347,137.1z"/>
		<path class="st5" d="M376.5,161.5c-2.4-0.5-4.7-1.1-6.9-1.8C371.9,160.4,374.2,161,376.5,161.5z"/>
		<path class="st5" d="M383.2,162.6c-1.3-0.1-2.6-0.3-3.9-0.5C380.6,162.2,381.9,162.4,383.2,162.6z"/>
		<path class="st6" d="M436.7,147.8C436.7,147.8,436.7,147.8,436.7,147.8c0.1-0.2,0.3-0.4,0.4-0.6c0,0,0,0,0,0
			C437,147.4,436.8,147.6,436.7,147.8z"/>
		<path class="st6" d="M438.2,145.3C438.2,145.3,438.2,145.3,438.2,145.3c0.1-0.2,0.2-0.4,0.3-0.6c0,0,0,0,0,0
			C438.4,144.9,438.4,145.1,438.2,145.3z"/>
		<path class="st6" d="M435.8,149.1C435.8,149.1,435.8,149.1,435.8,149.1c0.2-0.2,0.3-0.4,0.4-0.6c0,0,0,0,0,0
			C436.1,148.7,435.9,148.9,435.8,149.1z"/>
		<path class="st6" d="M437.5,146.6C437.5,146.6,437.5,146.6,437.5,146.6c0.1-0.2,0.2-0.4,0.3-0.6c0,0,0,0,0,0
			C437.8,146.2,437.7,146.4,437.5,146.6z"/>
		<path class="st6" d="M439.4,142.6C439.4,142.6,439.3,142.6,439.4,142.6c0.1-0.2,0.1-0.4,0.2-0.7c0,0,0,0,0,0
			C439.5,142.2,439.4,142.4,439.4,142.6z"/>
		<path class="st6" d="M438.9,144C438.9,144,438.9,144,438.9,144c0.1-0.2,0.2-0.4,0.2-0.6c0,0,0,0,0,0
			C439,143.5,438.9,143.7,438.9,144z"/>
		<path class="st6" d="M440,140C440,140,440,140,440,140c0-0.2,0.1-0.4,0.1-0.7c0,0,0,0,0,0C440.1,139.5,440,139.7,440,140z"/>
		<path class="st6" d="M440.2,138.6C440.2,138.6,440.2,138.6,440.2,138.6c0-0.2,0-0.4,0-0.7c0,0,0,0,0,0
			C440.2,138.2,440.2,138.4,440.2,138.6z"/>
		<path class="st6" d="M439.7,141.3C439.7,141.3,439.7,141.3,439.7,141.3c0.1-0.2,0.1-0.4,0.1-0.7c0,0,0,0,0,0
			C439.8,140.9,439.8,141.1,439.7,141.3z"/>
		<path class="st6" d="M434.7,150.3C434.7,150.3,434.7,150.3,434.7,150.3c0.2-0.2,0.3-0.4,0.5-0.6c0,0,0,0,0,0
			C435,150,434.9,150.1,434.7,150.3z"/>
		<path class="st6" d="M433.6,151.5c0.2-0.2,0.3-0.4,0.5-0.5c0,0,0,0,0,0C433.9,151.2,433.8,151.3,433.6,151.5z"/>
		<path class="st5" d="M477.9,176.7c0.9,0.5,1.6,1.1,2.1,1.7C479.4,177.8,478.8,177.2,477.9,176.7c-3.9-2.3-10.2-2.3-14.1,0l0,0
			C467.6,174.5,474,174.5,477.9,176.7z"/>
		<path class="st5" d="M480.1,178.6C480.1,178.7,480.1,178.7,480.1,178.6C480.1,178.7,480.1,178.7,480.1,178.6
			C480.1,178.6,480.1,178.6,480.1,178.6z"/>
		<path class="st5" d="M461.6,178.6C461.6,178.6,461.6,178.6,461.6,178.6c0.5-0.7,1.2-1.3,2.2-1.9l0,0l0,0c-0.4,0.3-0.8,0.5-1.1,0.8
			c0,0-0.1,0.1-0.1,0.1C462.1,178,461.8,178.3,461.6,178.6z"/>
		<path class="st5" d="M461.6,178.7C461.6,178.7,461.6,178.7,461.6,178.7c-0.1,0.2-0.2,0.4-0.3,0.5v0
			C461.4,179,461.5,178.8,461.6,178.7z"/>
		<path class="st5" d="M460.9,180.5C460.9,180.5,460.9,180.5,460.9,180.5c0,0.1,0,0.2,0,0.3c0,0,0,0,0,0
			C460.9,180.7,460.9,180.6,460.9,180.5z"/>
		<path class="st5" d="M461,179.9C461,179.9,461,179.9,461,179.9c0,0.1-0.1,0.2-0.1,0.3c0,0,0,0,0,0C460.9,180.1,461,180,461,179.9z
			"/>
		<path class="st5" d="M461.2,179.4C461.2,179.4,461.2,179.4,461.2,179.4c-0.1,0.1-0.1,0.2-0.1,0.4c0,0,0,0,0,0
			C461.1,179.6,461.1,179.5,461.2,179.4z"/>
		<path class="st5" d="M480.5,179.4C480.5,179.4,480.5,179.4,480.5,179.4c0-0.1-0.1-0.1-0.1-0.2c0,0,0,0,0,0
			C480.4,179.2,480.4,179.3,480.5,179.4z"/>
		<polygon class="st5" points="470.9,214.6 470.9,214.6 411.3,180.3 397.2,188.5 397.2,188.5 411.3,180.3 		"/>
		<path class="st6" d="M458.1,247.1l-128.2-74L458.1,247.1c1.5,0.8,3.4,1.3,5.3,1.3C461.5,248.3,459.6,247.9,458.1,247.1z"/>
		<path class="st6" d="M199.6,96.4c0,0.1,0,0.1,0.1,0.2c0,0.1,0,0.1,0,0.2c0,0.1,0.1,0.1,0.1,0.2c0,0.1,0,0.1,0.1,0.2
			c0,0.1,0.1,0.1,0.1,0.2c0,0.1,0.1,0.1,0.1,0.2c0,0.1,0.1,0.1,0.2,0.2c0,0.1,0.1,0.1,0.1,0.2c0.1,0.1,0.2,0.1,0.2,0.2
			c0.1,0,0.1,0.1,0.2,0.1c0.1,0.1,0.2,0.2,0.3,0.2c0,0,0.1,0.1,0.1,0.1c0.2,0.1,0.3,0.2,0.5,0.3l128.2,74l128.2,74
			c1.5,0.8,3.4,1.3,5.3,1.3c1.9,0,3.8-0.4,5.3-1.3l109.9-63.9l1-0.6l1.8-1.1c0,0,0.1,0,0.1-0.1c0.1-0.1,0.3-0.2,0.4-0.3
			c0.1,0,0.1-0.1,0.2-0.2c0.1-0.1,0.2-0.1,0.2-0.2c0.1-0.1,0.1-0.1,0.2-0.2c0.1-0.1,0.1-0.1,0.2-0.2c0.1-0.1,0.1-0.1,0.1-0.2
			c0.1-0.1,0.1-0.1,0.2-0.2c0-0.1,0.1-0.1,0.1-0.2c0-0.1,0.1-0.2,0.1-0.2c0-0.1,0.1-0.1,0.1-0.2c0-0.1,0.1-0.2,0.1-0.2
			c0-0.1,0-0.1,0-0.2c0-0.1,0-0.1,0.1-0.2c0-0.1,0-0.1,0-0.2c0.1-1.2-0.6-2.4-2.2-3.3l-256.4-148c-2.9-1.7-7.7-1.7-10.6,0
			L201.7,92.9c-1.5,0.8-2.2,2-2.2,3.1c0,0.1,0,0.2,0,0.2C199.5,96.2,199.5,96.3,199.6,96.4z M204.1,94.8c0.1-0.1,0.3-0.2,0.4-0.3
			L317.3,29c1.4-0.8,3.6-0.8,5,0l256.4,148c1.4,0.8,1.4,2.1,0,2.9l-112.7,65.5c-1.4,0.8-3.6,0.8-5,0l-256.4-148
			c-0.8-0.5-1.1-1.1-1-1.7c0-0.1,0-0.1,0-0.2c0-0.1,0.1-0.2,0.1-0.2c0,0,0-0.1,0.1-0.1C203.8,95.1,203.9,95,204.1,94.8
			C204,94.9,204.1,94.9,204.1,94.8z"/>
		<polygon class="st6" points="243.6,99.7 303.1,134.1 317.2,125.9 257.6,91.5 		"/>
		<path class="st7" d="M462.7,241.9L572.5,178l-252-145.5L210.7,96.4L462.7,241.9z M320.5,35.6L320.5,35.6L320.5,35.6L567.2,178
			l-104.6,60.8h0l0,0L226.5,102.5L216,96.4L320.5,35.6z"/>
		<polygon class="st6" points="312.3,59.8 320.3,64.4 371.8,94.1 386,86 326.4,51.6 		"/>
		<path class="st6" d="M423,136.4c0-0.1,0-0.3-0.1-0.4c0-0.1,0-0.3-0.1-0.4c0-0.1-0.1-0.3-0.1-0.4c0-0.1-0.1-0.3-0.1-0.4
			c0-0.1-0.1-0.3-0.1-0.4c0-0.1-0.1-0.3-0.1-0.4c0-0.1-0.1-0.3-0.2-0.4c-0.1-0.1-0.1-0.3-0.2-0.4c-0.1-0.1-0.1-0.3-0.2-0.4
			c-0.1-0.1-0.1-0.3-0.2-0.4c-0.1-0.1-0.2-0.3-0.2-0.4c-0.1-0.1-0.2-0.3-0.2-0.4c-0.1-0.1-0.2-0.3-0.3-0.4c-0.1-0.1-0.2-0.3-0.3-0.4
			c-0.1-0.1-0.2-0.3-0.3-0.4c-0.1-0.1-0.2-0.3-0.3-0.4c-0.1-0.1-0.2-0.3-0.3-0.4c-0.1-0.1-0.2-0.3-0.4-0.4c-0.1-0.1-0.2-0.2-0.3-0.4
			c-0.1-0.1-0.3-0.3-0.4-0.4c-0.1-0.1-0.2-0.2-0.4-0.3c-0.2-0.1-0.3-0.3-0.5-0.4c-0.1-0.1-0.2-0.2-0.4-0.3c-0.2-0.2-0.4-0.3-0.5-0.4
			c-0.1-0.1-0.3-0.2-0.4-0.3c-0.2-0.1-0.4-0.3-0.6-0.4c-0.1-0.1-0.2-0.1-0.3-0.2c-0.6-0.4-1.2-0.8-1.9-1.2
			c-12.3-7.1-32.3-7.1-44.5,0c-0.4,0.2-0.8,0.4-1.1,0.7c-0.1,0-0.1,0.1-0.1,0.1c-0.3,0.2-0.6,0.4-0.9,0.6c-0.1,0.1-0.2,0.1-0.2,0.2
			c-0.2,0.2-0.5,0.4-0.7,0.5c-0.1,0.1-0.2,0.2-0.3,0.3c-0.2,0.2-0.4,0.3-0.6,0.5c-0.1,0.1-0.2,0.2-0.3,0.3c-0.2,0.2-0.4,0.3-0.5,0.5
			c-0.1,0.1-0.2,0.2-0.3,0.3c-0.2,0.2-0.3,0.3-0.5,0.5c-0.1,0.1-0.2,0.2-0.3,0.3c-0.1,0.2-0.3,0.3-0.4,0.5c-0.1,0.1-0.2,0.2-0.3,0.3
			c-0.1,0.2-0.2,0.3-0.4,0.5c-0.1,0.1-0.2,0.2-0.2,0.4c-0.1,0.2-0.2,0.3-0.3,0.5c-0.1,0.1-0.1,0.2-0.2,0.4c-0.1,0.2-0.2,0.3-0.3,0.5
			c-0.1,0.1-0.1,0.3-0.2,0.4c-0.1,0.2-0.1,0.3-0.2,0.5c-0.1,0.1-0.1,0.3-0.2,0.4c-0.1,0.2-0.1,0.3-0.2,0.5c0,0.1-0.1,0.3-0.1,0.4
			c0,0.2-0.1,0.3-0.1,0.5c0,0.1-0.1,0.3-0.1,0.4c0,0.2-0.1,0.3-0.1,0.5c0,0.1,0,0.3-0.1,0.4c0,0.2,0,0.3-0.1,0.5c0,0.1,0,0.3,0,0.4
			c0,0.2,0,0.3,0,0.5c0,0,0,0,0,0c0,4.7,3.1,9.3,9.3,12.9c12.3,7.1,32.3,7.1,44.5,0c4.2-2.4,6.9-5.4,8.2-8.5c0,0,0,0,0,0
			c0-0.1,0.1-0.2,0.1-0.2c0.1-0.4,0.3-0.8,0.4-1.1c0-0.1,0.1-0.2,0.1-0.3c0-0.1,0.1-0.3,0.1-0.4c0-0.2,0.1-0.3,0.1-0.5
			c0-0.1,0-0.3,0.1-0.4c0-0.1,0-0.3,0.1-0.4c0-0.1,0-0.3,0-0.4c0-0.1,0-0.3,0-0.4c0,0,0,0,0-0.1c0-0.1,0-0.3,0-0.4
			C423,136.7,423,136.5,423,136.4z M376.4,145.2c0.1-0.2,0.3-0.4,0.5-0.6l24-13.9l-4.4,0c-0.6,0-1.1-0.1-1.4-0.3
			c-0.4-0.2-0.6-0.5-0.6-0.8c0-0.2,0.1-0.3,0.2-0.4c0.2-0.3,0.6-0.5,1.1-0.6c0.2-0.1,0.5-0.1,0.8-0.1l9.3,0c0.3,0,0.5,0,0.8,0.1
			s0.5,0.1,0.6,0.2c0.2,0.1,0.3,0.2,0.4,0.4c0.2,0.2,0.2,0.4,0.1,0.7s-0.3,0.4-0.5,0.6l-27.4,15.9c-0.8,0.5-2,0.4-2.8,0
			c-0.4-0.2-0.6-0.5-0.6-0.8C376.4,145.3,376.4,145.3,376.4,145.2z"/>
		<path class="st5" d="M216,96.4l10.5,6.1l236.1,136.3h0L567.2,178L320.5,35.6l0,0L216,96.4z M456.8,222.8l-59.5-34.4l0,0l0,0
			l14.1-8.2l59.5,34.4h0l0,0L456.8,222.8z M326,91.5c0,0.1,0,0.2,0,0.3c0,0.1,0,0.2,0,0.3c0,0.1,0,0.2-0.1,0.3c0,0.1,0,0.2-0.1,0.3
			c0,0.1-0.1,0.2-0.1,0.3c0,0.1-0.1,0.2-0.1,0.3c0,0.1-0.1,0.2-0.2,0.3c0,0.1-0.1,0.2-0.1,0.2c-0.1,0.1-0.1,0.2-0.2,0.3
			c-0.1,0.1-0.1,0.2-0.2,0.2c-0.1,0.1-0.2,0.2-0.3,0.3c-0.1,0.1-0.1,0.1-0.2,0.2c-0.1,0.1-0.2,0.2-0.4,0.3c0,0,0,0-0.1,0
			c-0.3,0.2-0.5,0.4-0.8,0.6c-0.4,0.2-0.8,0.4-1.2,0.6c-0.9,0.4-1.9,0.7-3,0.9c-3.4,0.6-7.2,0.1-9.9-1.5c-2.4-1.4-3.3-3.2-2.8-5
			c0-0.1,0-0.1,0-0.2c0-0.1,0.1-0.2,0.1-0.3c0-0.1,0.1-0.2,0.1-0.2c0.1-0.1,0.1-0.2,0.2-0.3c0-0.1,0.1-0.2,0.1-0.2
			c0.1-0.1,0.2-0.2,0.2-0.3c0.1-0.1,0.1-0.2,0.2-0.2c0.1-0.1,0.2-0.2,0.3-0.3c0.1-0.1,0.1-0.1,0.2-0.2c0.1-0.1,0.3-0.2,0.4-0.3
			c0.1,0,0.1-0.1,0.2-0.1c0.2-0.2,0.4-0.3,0.7-0.4c1-0.6,2.1-1,3.3-1.3c3.6-0.8,7.9-0.4,10.8,1.3c0.2,0.1,0.5,0.3,0.7,0.4
			c0.1,0,0.1,0.1,0.2,0.1c0.1,0.1,0.3,0.2,0.4,0.3c0.1,0.1,0.1,0.1,0.2,0.2c0.1,0.1,0.2,0.2,0.3,0.3c0.1,0.1,0.1,0.1,0.2,0.2
			c0.1,0.1,0.2,0.2,0.2,0.3c0.1,0.1,0.1,0.2,0.1,0.2c0.1,0.1,0.1,0.2,0.2,0.3c0,0.1,0.1,0.2,0.1,0.2c0,0.1,0.1,0.2,0.1,0.3
			c0,0.1,0,0.2,0.1,0.3c0,0.1,0.1,0.2,0.1,0.3c0,0.1,0,0.2,0,0.3C326,91.3,326,91.3,326,91.5C326,91.5,326,91.5,326,91.5z
			 M387.7,109.1c1.3-0.1,2.5-0.1,3.8-0.1c0,0,0,0,0.1,0c1.3,0,2.5,0,3.8,0.1c0.2,0,0.3,0,0.5,0c1.2,0.1,2.4,0.2,3.6,0.3
			c0.2,0,0.4,0,0.6,0.1c1.2,0.1,2.4,0.3,3.5,0.4c0.2,0,0.4,0.1,0.6,0.1c1.2,0.2,2.4,0.4,3.6,0.6c0.1,0,0.2,0,0.3,0.1
			c1.2,0.2,2.3,0.5,3.5,0.8c0.1,0,0.2,0,0.3,0.1c1.1,0.3,2.3,0.6,3.4,1c0.2,0.1,0.4,0.1,0.5,0.2c1.1,0.4,2.1,0.7,3.2,1.1
			c0.2,0.1,0.4,0.1,0.6,0.2c1,0.4,2,0.9,3,1.3c0.1,0.1,0.3,0.1,0.4,0.2c1,0.5,2,1,3,1.6c0.6,0.3,1.2,0.7,1.7,1.1
			c0.2,0.1,0.4,0.3,0.6,0.4c0.4,0.2,0.7,0.5,1.1,0.7c0.2,0.1,0.4,0.3,0.6,0.5c0.3,0.2,0.6,0.4,0.9,0.7c0.2,0.2,0.4,0.3,0.6,0.5
			c0.3,0.2,0.6,0.4,0.8,0.7c0.2,0.2,0.4,0.3,0.6,0.5c0.2,0.2,0.5,0.4,0.7,0.7c0.2,0.2,0.4,0.4,0.5,0.6c0.2,0.2,0.4,0.4,0.6,0.7
			c0.2,0.2,0.3,0.4,0.5,0.6c0.2,0.2,0.4,0.4,0.6,0.7c0.2,0.2,0.3,0.4,0.4,0.6c0.2,0.2,0.3,0.5,0.5,0.7c0.1,0.2,0.3,0.4,0.4,0.6
			c0.1,0.2,0.3,0.5,0.4,0.7c0.1,0.2,0.2,0.4,0.3,0.6c0.1,0.2,0.3,0.5,0.4,0.7c0.1,0.2,0.2,0.4,0.3,0.6c0.1,0.2,0.2,0.5,0.3,0.7
			c0.1,0.2,0.2,0.4,0.2,0.6c0.1,0.2,0.2,0.5,0.3,0.7c0.1,0.2,0.1,0.4,0.2,0.6c0.1,0.2,0.1,0.5,0.2,0.7c0.1,0.2,0.1,0.4,0.1,0.6
			c0,0.2,0.1,0.5,0.1,0.7c0,0.2,0.1,0.4,0.1,0.7c0,0.2,0.1,0.5,0.1,0.7c0,0.2,0,0.4,0,0.7c0,0.2,0,0.5,0,0.7c0,0.2,0,0.5,0,0.7
			c0,0.2,0,0.4,0,0.7c0,0.2-0.1,0.5-0.1,0.7c0,0.2,0,0.4-0.1,0.7c0,0.2-0.1,0.5-0.1,0.7c0,0.2-0.1,0.4-0.1,0.7
			c-0.1,0.2-0.1,0.5-0.2,0.7c-0.1,0.2-0.1,0.4-0.2,0.7c-0.1,0.2-0.2,0.5-0.3,0.7c-0.1,0.2-0.2,0.4-0.2,0.6c-0.1,0.2-0.2,0.5-0.3,0.7
			c-0.1,0.2-0.2,0.4-0.3,0.6c-0.1,0.2-0.2,0.4-0.4,0.7c-0.1,0.2-0.2,0.4-0.3,0.6c-0.1,0.2-0.3,0.4-0.4,0.7c-0.1,0.2-0.3,0.4-0.4,0.6
			c-0.2,0.2-0.3,0.4-0.5,0.7c-0.1,0.2-0.3,0.4-0.4,0.6c-0.1,0.1-0.2,0.3-0.4,0.4v0c-0.1,0.1-0.1,0.2-0.2,0.2
			c-0.2,0.2-0.3,0.4-0.5,0.6c-0.2,0.2-0.4,0.4-0.6,0.6c-0.2,0.2-0.3,0.4-0.5,0.5c-2,2-4.5,3.9-7.5,5.6c-18.9,11-49.7,11-68.8,0
			c-19.1-11-19.2-28.8-0.2-39.8c2-1.2,4.2-2.2,6.4-3.1c0,0,0,0,0.1,0c0.2-0.1,0.4-0.1,0.5-0.2c1-0.4,2.1-0.8,3.1-1.1
			c0.2-0.1,0.4-0.1,0.6-0.2c1.1-0.4,2.2-0.7,3.3-1c0.1,0,0.2-0.1,0.4-0.1c1.1-0.3,2.3-0.6,3.5-0.8c0.1,0,0.2,0,0.2-0.1
			c1.2-0.2,2.4-0.4,3.6-0.6c0.2,0,0.4-0.1,0.6-0.1c1.2-0.2,2.3-0.3,3.5-0.4c0.2,0,0.4,0,0.6-0.1c1.2-0.1,2.4-0.2,3.6-0.3
			C387.3,109.1,387.5,109.1,387.7,109.1z M386,86l-14.1,8.2l-51.6-29.8l-8-4.6l14.1-8.2L386,86L386,86z M477.9,184.9
			c-3.9,2.3-10.2,2.3-14.1,0c-2-1.1-2.9-2.6-2.9-4.1c0,0,0,0,0,0c0-0.1,0-0.2,0-0.3c0-0.1,0-0.2,0-0.2c0-0.1,0-0.2,0.1-0.3
			c0-0.1,0-0.2,0.1-0.2c0-0.1,0.1-0.2,0.1-0.4c0,0,0,0,0,0c0-0.1,0-0.1,0.1-0.2c0,0,0,0,0,0c0.1-0.2,0.2-0.3,0.3-0.5
			c0.2-0.4,0.6-0.7,0.9-1c0,0,0.1-0.1,0.1-0.1c0.3-0.3,0.7-0.6,1.1-0.8c3.9-2.3,10.2-2.3,14.1,0c1.2,0.7,2.1,1.5,2.5,2.4
			c0,0.1,0.1,0.1,0.1,0.2c0,0.1,0.1,0.2,0.1,0.3C481.3,181.5,480.4,183.5,477.9,184.9z M525.5,182.9L466,148.5l0,0l0,0l14.1-8.2
			l59.5,34.4h0l0,0L525.5,182.9z M317.2,125.9l-14.1,8.2l-59.5-34.4l0,0l14.1-8.2L317.2,125.9L317.2,125.9z"/>
		<path class="st6" d="M326,90.9c0-0.1,0-0.2-0.1-0.3c0-0.1,0-0.2-0.1-0.3c0-0.1-0.1-0.2-0.1-0.3c0-0.1-0.1-0.2-0.1-0.3
			c-0.1-0.1-0.1-0.2-0.2-0.3c0-0.1-0.1-0.2-0.1-0.2c-0.1-0.1-0.2-0.2-0.2-0.3c-0.1-0.1-0.1-0.2-0.2-0.2c-0.1-0.1-0.2-0.2-0.3-0.3
			c-0.1-0.1-0.1-0.1-0.2-0.2c-0.1-0.1-0.2-0.2-0.4-0.3c-0.1-0.1-0.1-0.1-0.2-0.2c-0.2-0.1-0.4-0.2-0.6-0.4c0,0-0.1-0.1-0.1-0.1
			c-3.9-2.3-10.2-2.3-14.1,0c-0.2,0.1-0.5,0.3-0.7,0.4c0,0-0.1,0.1-0.1,0.1c-0.2,0.1-0.3,0.2-0.5,0.4c-0.1,0.1-0.1,0.1-0.2,0.2
			c-0.1,0.1-0.2,0.2-0.3,0.3c-0.1,0.1-0.1,0.1-0.2,0.2c-0.1,0.1-0.2,0.2-0.2,0.3c-0.1,0.1-0.1,0.1-0.1,0.2c-0.1,0.1-0.1,0.2-0.2,0.3
			c0,0.1-0.1,0.2-0.1,0.2c0,0.1-0.1,0.2-0.1,0.3c0,0.1,0,0.1,0,0.2c-0.5,1.8,0.4,3.6,2.8,5c2.7,1.5,6.5,2,9.9,1.5
			c1.1-0.2,2.1-0.5,3-0.9c0.4-0.2,0.8-0.4,1.2-0.6c0.3-0.2,0.6-0.4,0.8-0.6c0,0,0,0,0.1,0c0,0,0,0,0,0c0.1-0.1,0.3-0.2,0.4-0.3
			c0,0,0,0,0,0c0.1-0.1,0.1-0.1,0.2-0.2c0,0,0,0,0,0c0.1-0.1,0.2-0.2,0.3-0.3c0,0,0,0,0,0c0.1-0.1,0.1-0.2,0.2-0.2c0,0,0,0,0,0
			c0.1-0.1,0.2-0.2,0.2-0.3l0,0c0.1-0.1,0.1-0.2,0.1-0.2c0,0,0,0,0,0c0.1-0.1,0.1-0.2,0.2-0.3c0,0,0,0,0,0c0-0.1,0.1-0.2,0.1-0.3
			c0,0,0,0,0,0c0-0.1,0.1-0.2,0.1-0.3c0,0,0,0,0,0c0-0.1,0-0.2,0.1-0.3c0,0,0,0,0,0c0-0.1,0.1-0.2,0.1-0.3c0,0,0,0,0,0
			c0-0.1,0-0.2,0-0.3c0,0,0,0,0,0c0-0.1,0-0.2,0-0.3c0,0,0,0,0,0c0-0.1,0-0.2,0-0.3C326,91.1,326,91,326,90.9z"/>
		<path class="st6" d="M434.7,150.3c0.2-0.2,0.3-0.4,0.5-0.6c0.1-0.1,0.1-0.2,0.2-0.2v0c0.1-0.1,0.2-0.3,0.4-0.4
			c0.2-0.2,0.3-0.4,0.4-0.6c0.2-0.2,0.3-0.4,0.5-0.7c0.1-0.2,0.3-0.4,0.4-0.6c0.1-0.2,0.3-0.4,0.4-0.7c0.1-0.2,0.2-0.4,0.3-0.6
			c0.1-0.2,0.3-0.5,0.4-0.7c0.1-0.2,0.2-0.4,0.3-0.6c0.1-0.2,0.2-0.5,0.3-0.7c0.1-0.2,0.2-0.4,0.2-0.6c0.1-0.2,0.2-0.5,0.3-0.7
			c0.1-0.2,0.1-0.4,0.2-0.6c0.1-0.2,0.1-0.5,0.2-0.7c0.1-0.2,0.1-0.4,0.1-0.6c0-0.2,0.1-0.5,0.1-0.7c0-0.2,0.1-0.4,0.1-0.6
			c0-0.2,0.1-0.5,0.1-0.7c0-0.2,0-0.4,0-0.7c0-0.2,0-0.5,0-0.7c0-0.2,0-0.5,0-0.7c0-0.2,0-0.4,0-0.7c0-0.2-0.1-0.5-0.1-0.7
			c0-0.2,0-0.4-0.1-0.7c0-0.2-0.1-0.5-0.1-0.7c0-0.2-0.1-0.4-0.1-0.7c-0.1-0.2-0.1-0.5-0.2-0.7c-0.1-0.2-0.1-0.4-0.2-0.7
			c-0.1-0.2-0.2-0.5-0.3-0.7c-0.1-0.2-0.2-0.4-0.2-0.6c-0.1-0.2-0.2-0.5-0.3-0.7c-0.1-0.2-0.2-0.4-0.3-0.6c-0.1-0.2-0.2-0.4-0.4-0.7
			c-0.1-0.2-0.2-0.4-0.4-0.6c-0.1-0.2-0.3-0.4-0.4-0.6c-0.1-0.2-0.3-0.4-0.4-0.6c-0.2-0.2-0.3-0.4-0.5-0.6c-0.2-0.2-0.3-0.4-0.5-0.6
			c-0.2-0.2-0.4-0.4-0.5-0.6c-0.2-0.2-0.3-0.4-0.5-0.6c-0.2-0.2-0.4-0.4-0.6-0.6c-0.2-0.2-0.4-0.4-0.6-0.6c-0.2-0.2-0.4-0.4-0.7-0.6
			c-0.2-0.2-0.4-0.4-0.6-0.6c-0.2-0.2-0.5-0.4-0.7-0.6c-0.2-0.2-0.5-0.4-0.7-0.6c-0.2-0.2-0.5-0.4-0.8-0.6c-0.2-0.2-0.5-0.4-0.7-0.6
			c-0.3-0.2-0.6-0.4-0.8-0.6c-0.3-0.2-0.5-0.4-0.8-0.5c-0.3-0.2-0.5-0.3-0.8-0.5c-0.3-0.2-0.6-0.4-0.9-0.6c0,0,0,0,0,0
			c-1-0.6-2-1.1-3-1.6c-0.1-0.1-0.3-0.1-0.4-0.2c-1-0.5-2-0.9-3-1.3c-0.2-0.1-0.4-0.2-0.6-0.2c-1-0.4-2.1-0.8-3.1-1.1
			c-0.2-0.1-0.4-0.1-0.6-0.2c-1.1-0.4-2.2-0.7-3.4-1c-0.1,0-0.2,0-0.3-0.1c-1.1-0.3-2.3-0.6-3.4-0.8c-0.1,0-0.2-0.1-0.3-0.1
			c-1.2-0.2-2.4-0.4-3.5-0.6c-0.2,0-0.4-0.1-0.6-0.1c-1.2-0.2-2.3-0.3-3.5-0.4c-0.2,0-0.4,0-0.6-0.1c-1.2-0.1-2.4-0.2-3.6-0.3
			c-0.2,0-0.3,0-0.5,0c-1.2-0.1-2.5-0.1-3.8-0.1c0,0-0.1,0-0.1,0c-1.3,0-2.5,0-3.8,0.1c-0.2,0-0.4,0-0.5,0c-1.2,0.1-2.4,0.2-3.6,0.3
			c-0.2,0-0.4,0-0.7,0.1c-1.2,0.1-2.4,0.3-3.5,0.4c-0.2,0-0.4,0.1-0.6,0.1c-1.2,0.2-2.4,0.4-3.6,0.6c-0.1,0-0.2,0-0.3,0.1
			c-1.2,0.2-2.3,0.5-3.5,0.8c-0.1,0-0.2,0.1-0.4,0.1c-1.1,0.3-2.2,0.6-3.3,1c-0.2,0.1-0.4,0.1-0.6,0.2c-1.1,0.4-2.1,0.7-3.1,1.1
			c-0.2,0.1-0.4,0.1-0.5,0.2c0,0,0,0-0.1,0c-2.3,0.9-4.4,2-6.4,3.1c-18.9,11-18.8,28.8,0.2,39.8c19.1,11,49.9,11,68.8,0
			c3-1.7,5.5-3.6,7.5-5.6c0.2-0.2,0.3-0.4,0.5-0.5C434.3,150.8,434.5,150.5,434.7,150.3z M423.1,118.9c1.2,0.7,2.4,1.5,3.4,2.2
			c0.1,0.1,0.1,0.1,0.2,0.2c0.3,0.2,0.6,0.4,0.8,0.6c0.2,0.1,0.4,0.3,0.5,0.5c0.2,0.2,0.5,0.4,0.7,0.6c0.4,0.4,0.8,0.7,1.2,1.1
			c0,0,0,0,0,0c0.2,0.2,0.3,0.3,0.5,0.5c0.2,0.2,0.4,0.4,0.6,0.6c0,0,0,0,0,0c0.2,0.2,0.3,0.3,0.4,0.5c0.2,0.2,0.4,0.4,0.5,0.6
			c0.1,0.2,0.3,0.4,0.4,0.5c0.2,0.2,0.3,0.4,0.5,0.6c0.1,0.2,0.2,0.4,0.4,0.6c0.1,0.2,0.3,0.4,0.4,0.6c2.3,3.9,3.1,8,2.2,12
			c0,0,0,0.1,0,0.1c-0.1,0.2-0.1,0.4-0.2,0.7c-0.1,0.4-0.2,0.8-0.4,1.2c-0.1,0.2-0.1,0.4-0.2,0.6c0,0.1-0.1,0.2-0.1,0.3
			c-0.1,0.3-0.2,0.5-0.4,0.8c-0.1,0.1-0.1,0.2-0.2,0.3c-0.2,0.4-0.4,0.7-0.6,1.1c0,0,0,0,0,0c-0.2,0.4-0.4,0.7-0.7,1.1
			c-0.1,0.1-0.1,0.2-0.2,0.3c-0.2,0.3-0.4,0.5-0.6,0.8c-0.1,0.1-0.2,0.2-0.2,0.3c-0.3,0.3-0.6,0.7-0.9,1c0,0,0,0,0,0
			c-0.3,0.3-0.6,0.7-1,1c0,0,0,0-0.1,0.1c0,0,0,0,0,0c-0.1,0.1-0.1,0.1-0.2,0.2c-0.3,0.2-0.5,0.5-0.8,0.7c-0.1,0.1-0.2,0.2-0.3,0.3
			c-0.4,0.3-0.7,0.6-1.1,0.9c0,0,0,0,0,0c-0.4,0.3-0.8,0.6-1.2,0.9c-0.1,0.1-0.3,0.2-0.4,0.3c-0.3,0.2-0.6,0.4-1,0.7
			c-0.1,0.1-0.3,0.2-0.4,0.3c-0.5,0.3-0.9,0.6-1.4,0.9c0,0,0,0,0,0c-10.8,6.3-26,8.7-40.1,7.1c-1.3-0.1-2.6-0.3-3.9-0.5
			c-0.9-0.2-1.9-0.3-2.8-0.5c-2.4-0.5-4.7-1.1-6.9-1.8c-0.6-0.2-1.1-0.4-1.7-0.6c-2.2-0.8-4.2-1.7-6.2-2.7c-0.6-0.3-1.1-0.6-1.7-0.9
			c-0.8-0.5-1.6-1-2.3-1.5c-0.2-0.2-0.5-0.3-0.7-0.5c-0.2-0.1-0.3-0.2-0.5-0.3c-0.7-0.5-1.3-1-1.9-1.5c-0.1-0.1-0.2-0.2-0.3-0.2
			c-0.2-0.2-0.4-0.3-0.5-0.5c-0.2-0.2-0.4-0.4-0.6-0.6c-1.3-1.2-2.3-2.5-3.2-3.8c0-0.1-0.1-0.1-0.1-0.2c-0.1-0.2-0.3-0.4-0.4-0.6
			c-0.1-0.2-0.2-0.4-0.3-0.6c-0.1-0.2-0.2-0.4-0.4-0.6c-0.1-0.2-0.2-0.4-0.3-0.6c-0.1-0.2-0.2-0.4-0.3-0.6c0,0,0-0.1-0.1-0.1
			c-0.1-0.1-0.1-0.3-0.2-0.4c-0.1-0.2-0.2-0.4-0.2-0.6c-0.1-0.2-0.1-0.4-0.2-0.6c-0.1-0.2-0.1-0.4-0.2-0.6c0,0,0,0,0-0.1
			c0-0.2-0.1-0.4-0.1-0.6c0-0.2-0.1-0.4-0.1-0.6c0-0.2-0.1-0.4-0.1-0.6c0-0.2-0.1-0.4-0.1-0.6c0-0.2,0-0.4,0-0.6c0-0.2,0-0.4,0-0.6
			c0-0.2,0-0.4,0-0.6c0-0.2,0-0.4,0-0.6c0-0.2,0-0.4,0.1-0.6c0-0.2,0-0.4,0.1-0.6c0-0.2,0.1-0.4,0.1-0.6c0-0.2,0.1-0.4,0.1-0.6
			c0.1-0.2,0.1-0.4,0.2-0.6c0.1-0.2,0.1-0.4,0.2-0.6c0.1-0.2,0.2-0.4,0.2-0.6c0.1-0.2,0.1-0.4,0.2-0.6c0.1-0.2,0.2-0.4,0.3-0.6
			c0.1-0.2,0.2-0.4,0.3-0.6c0.1-0.2,0.2-0.4,0.3-0.6c0.1-0.2,0.2-0.4,0.3-0.6c0.1-0.2,0.3-0.4,0.4-0.6c0.1-0.2,0.2-0.4,0.4-0.5
			c0.1-0.2,0.3-0.4,0.5-0.6c0.1-0.2,0.3-0.4,0.4-0.5c0.2-0.2,0.3-0.4,0.5-0.6c0.1-0.2,0.3-0.4,0.4-0.5c0.2-0.2,0.4-0.4,0.6-0.6
			c0.2-0.2,0.3-0.3,0.5-0.5c0.2-0.2,0.4-0.4,0.7-0.6c0.1-0.1,0.3-0.3,0.4-0.4c0.1-0.1,0.2-0.2,0.3-0.3c0.2-0.1,0.3-0.3,0.5-0.4
			c0.2-0.1,0.3-0.3,0.5-0.4c0.3-0.2,0.6-0.4,0.8-0.6c0,0,0,0,0.1-0.1c0.3-0.2,0.6-0.4,0.9-0.7c0.2-0.1,0.3-0.2,0.5-0.4
			c0.2-0.1,0.3-0.2,0.5-0.3c0.5-0.3,1-0.6,1.6-1c3.5-2,7.4-3.6,11.6-4.8c0.7-0.2,1.4-0.4,2.2-0.6c1.1-0.3,2.3-0.5,3.4-0.8
			c1.8-0.4,3.7-0.7,5.6-0.9c0.2,0,0.3,0,0.5-0.1C397.1,110.3,412.2,112.6,423.1,118.9z"/>
		<path class="st5" d="M377.1,112.7c-1.2,0.2-2.3,0.5-3.4,0.8c-0.7,0.2-1.5,0.4-2.2,0.6c-4.2,1.2-8.1,2.8-11.6,4.8
			c-0.5,0.3-1.1,0.6-1.6,1c-0.2,0.1-0.3,0.2-0.4,0.3c-0.2,0.1-0.4,0.3-0.6,0.4c-0.3,0.2-0.6,0.4-0.9,0.7c0,0,0,0-0.1,0.1
			c-0.3,0.2-0.6,0.4-0.8,0.6c-0.2,0.1-0.3,0.3-0.5,0.4c-0.2,0.1-0.3,0.3-0.5,0.4c-0.1,0.1-0.2,0.2-0.3,0.3c-0.1,0.1-0.3,0.2-0.4,0.4
			c-0.2,0.2-0.5,0.4-0.7,0.6c-0.2,0.2-0.3,0.3-0.5,0.5c-0.2,0.2-0.4,0.4-0.6,0.6c-0.1,0.2-0.3,0.3-0.4,0.5c-0.2,0.2-0.4,0.4-0.5,0.6
			c-0.1,0.2-0.3,0.3-0.4,0.5c-0.2,0.2-0.3,0.4-0.5,0.6c-0.1,0.2-0.2,0.4-0.3,0.5c-0.1,0.2-0.3,0.4-0.4,0.6c-0.1,0.2-0.2,0.4-0.3,0.6
			c-0.1,0.2-0.2,0.4-0.3,0.6c-0.1,0.2-0.2,0.4-0.3,0.6c-0.1,0.2-0.2,0.4-0.3,0.6c-0.1,0.2-0.1,0.4-0.2,0.6c-0.1,0.2-0.2,0.4-0.2,0.6
			c-0.1,0.2-0.1,0.4-0.2,0.6c-0.1,0.2-0.1,0.4-0.2,0.6c0,0.2-0.1,0.4-0.1,0.6c0,0.2-0.1,0.4-0.1,0.6c0,0.2,0,0.4-0.1,0.6
			c0,0.2-0.1,0.4-0.1,0.6c0,0.2,0,0.4,0,0.6c0,0.2,0,0.4,0,0.6c0,0.2,0,0.4,0,0.6c0,0.2,0,0.4,0,0.6c0,0.2,0.1,0.4,0.1,0.6
			c0,0.2,0,0.4,0.1,0.6c0,0.2,0.1,0.4,0.1,0.6c0,0.2,0.1,0.4,0.1,0.6c0,0,0,0,0,0.1c0.1,0.2,0.1,0.4,0.2,0.6
			c0.1,0.2,0.1,0.4,0.2,0.6c0.1,0.2,0.2,0.4,0.2,0.6c0.1,0.2,0.1,0.3,0.2,0.5c0,0,0,0.1,0.1,0.1c0.1,0.2,0.2,0.4,0.3,0.6
			c0.1,0.2,0.2,0.4,0.3,0.6c0.1,0.2,0.2,0.4,0.3,0.6c0.1,0.2,0.2,0.4,0.3,0.6c0.1,0.2,0.3,0.4,0.4,0.6c0,0.1,0.1,0.1,0.1,0.2
			c0.9,1.3,1.9,2.6,3.2,3.8c0.2,0.2,0.4,0.4,0.6,0.6c0.2,0.2,0.4,0.3,0.5,0.5c0.1,0.1,0.2,0.2,0.3,0.2c0.6,0.5,1.2,1,1.9,1.5
			c0.2,0.1,0.3,0.2,0.5,0.3c0.2,0.2,0.5,0.3,0.7,0.5c0.7,0.5,1.5,1,2.3,1.5c0.5,0.3,1.1,0.6,1.7,0.9c1.9,1,4,1.9,6.2,2.7
			c0.6,0.2,1.1,0.4,1.7,0.6c2.2,0.7,4.5,1.3,6.9,1.8c0.9,0.2,1.8,0.4,2.8,0.5c1.3,0.2,2.6,0.4,3.9,0.5c14.1,1.6,29.2-0.8,40.1-7.1
			c0.5-0.3,1-0.6,1.4-0.9c0.1-0.1,0.3-0.2,0.4-0.3c0.3-0.2,0.7-0.4,1-0.7c0.1-0.1,0.3-0.2,0.4-0.3c0.4-0.3,0.8-0.6,1.2-0.9
			c0,0,0,0,0,0c0.4-0.3,0.8-0.6,1.1-1c0.1-0.1,0.2-0.2,0.3-0.3c0.3-0.2,0.5-0.5,0.8-0.7c0.1-0.1,0.1-0.1,0.2-0.2c0,0,0,0,0,0
			c0,0,0,0,0.1-0.1c0.7-0.7,1.3-1.3,1.8-2c0.1-0.1,0.2-0.2,0.2-0.3c0.2-0.3,0.4-0.5,0.6-0.8c0.1-0.1,0.1-0.2,0.2-0.3
			c0.5-0.7,0.9-1.4,1.3-2.1c0.1-0.1,0.1-0.2,0.2-0.3c0.1-0.3,0.3-0.5,0.4-0.8c0-0.1,0.1-0.2,0.1-0.3c0.1-0.2,0.1-0.4,0.2-0.6
			c0.1-0.4,0.3-0.8,0.4-1.2c0.1-0.2,0.1-0.4,0.2-0.7c0,0,0-0.1,0-0.1c0.9-4,0.2-8.1-2.2-12c-0.1-0.2-0.3-0.4-0.4-0.6
			c-0.1-0.2-0.2-0.4-0.4-0.6c-0.1-0.2-0.3-0.4-0.5-0.6c-0.1-0.2-0.3-0.4-0.4-0.5c-0.2-0.2-0.3-0.4-0.5-0.6c-0.2-0.2-0.3-0.4-0.4-0.5
			c0,0,0,0,0,0c-0.2-0.2-0.4-0.4-0.6-0.6c-0.2-0.2-0.3-0.3-0.5-0.5c0,0,0,0,0,0c-0.4-0.4-0.8-0.7-1.2-1.1c-0.2-0.2-0.5-0.4-0.7-0.6
			c-0.2-0.2-0.4-0.3-0.6-0.5c-0.3-0.2-0.5-0.4-0.8-0.6c-0.1-0.1-0.1-0.1-0.2-0.2c-1.1-0.8-2.2-1.5-3.4-2.2
			c-10.9-6.3-25.9-8.6-39.9-7.1c-0.2,0-0.3,0-0.5,0.1C380.8,112.1,378.9,112.4,377.1,112.7z M413.8,124.3c0.4,0.2,0.8,0.5,1.1,0.7
			c0.1,0.1,0.3,0.2,0.4,0.3c0.2,0.1,0.4,0.3,0.7,0.4c0.1,0.1,0.3,0.2,0.4,0.3c0.2,0.1,0.4,0.3,0.6,0.4c0.1,0.1,0.3,0.2,0.4,0.3
			c0.2,0.1,0.3,0.3,0.5,0.4c0.1,0.1,0.3,0.2,0.4,0.4c0.2,0.1,0.3,0.3,0.4,0.4c0.1,0.1,0.2,0.2,0.4,0.4c0.1,0.1,0.3,0.3,0.4,0.4
			c0.1,0.1,0.2,0.2,0.3,0.4c0.1,0.1,0.3,0.3,0.4,0.4c0.1,0.1,0.2,0.3,0.3,0.4c0.1,0.1,0.2,0.3,0.3,0.4c0.1,0.1,0.2,0.3,0.3,0.4
			c0.1,0.1,0.2,0.3,0.3,0.4c0.1,0.1,0.2,0.3,0.2,0.4c0.1,0.1,0.2,0.3,0.2,0.4c0.1,0.1,0.1,0.3,0.2,0.4c0.1,0.2,0.1,0.3,0.2,0.5
			c0.1,0.1,0.1,0.3,0.2,0.4c0.1,0.1,0.1,0.3,0.2,0.4c0,0.1,0.1,0.3,0.1,0.4c0,0.1,0.1,0.3,0.1,0.4c0,0.1,0.1,0.3,0.1,0.4
			c0,0.2,0.1,0.3,0.1,0.5c0,0.1,0,0.3,0.1,0.4c0,0.2,0,0.3,0.1,0.5c0,0.1,0,0.3,0,0.4c0,0.1,0,0.3,0,0.4c0,0,0,0,0,0.1
			c0,0.1,0,0.3,0,0.4c0,0.1,0,0.3,0,0.4c0,0.1,0,0.3-0.1,0.4c0,0.1,0,0.3-0.1,0.4c0,0.1-0.1,0.3-0.1,0.4c0,0.1-0.1,0.3-0.1,0.4
			c0,0.1-0.1,0.2-0.1,0.3c-0.1,0.4-0.2,0.8-0.4,1.1c0,0.1-0.1,0.2-0.1,0.2c0,0,0,0,0,0c-1.3,3.1-4.1,6.1-8.2,8.5
			c-12.2,7.1-32.2,7.1-44.5,0c-6.2-3.6-9.3-8.2-9.3-12.9c0,0,0,0,0,0c0-0.2,0-0.3,0-0.5c0-0.1,0-0.3,0-0.4c0-0.2,0-0.3,0.1-0.5
			c0-0.1,0-0.3,0.1-0.4c0-0.1,0.1-0.3,0.1-0.4c0-0.1,0.1-0.3,0.1-0.4c0-0.1,0.1-0.3,0.1-0.4c0-0.1,0.1-0.3,0.1-0.4
			c0-0.1,0.1-0.3,0.2-0.4c0.1-0.1,0.1-0.3,0.2-0.4c0.1-0.1,0.1-0.3,0.2-0.4c0.1-0.1,0.1-0.3,0.2-0.4c0.1-0.1,0.2-0.3,0.2-0.4
			c0.1-0.1,0.1-0.3,0.2-0.4c0.1-0.1,0.2-0.3,0.3-0.4c0.1-0.1,0.2-0.3,0.3-0.4c0.1-0.1,0.2-0.3,0.3-0.4c0.1-0.1,0.2-0.2,0.3-0.4
			c0.1-0.1,0.2-0.3,0.4-0.4c0.1-0.1,0.2-0.2,0.3-0.4c0.1-0.1,0.3-0.3,0.4-0.4c0.1-0.1,0.2-0.2,0.3-0.4c0.1-0.1,0.3-0.3,0.5-0.4
			c0.1-0.1,0.2-0.2,0.4-0.3c0.2-0.1,0.3-0.3,0.5-0.4c0.1-0.1,0.3-0.2,0.4-0.3c0.2-0.2,0.4-0.3,0.6-0.4c0.1-0.1,0.2-0.2,0.4-0.3
			c0.2-0.2,0.5-0.3,0.7-0.5c0.1-0.1,0.2-0.2,0.3-0.2c0.4-0.2,0.7-0.5,1.1-0.7C381.5,117.2,401.4,117.2,413.8,124.3z"/>
		<polygon class="st6" points="539.6,174.7 480.1,140.3 466,148.5 466,148.5 525.5,182.9 539.6,174.7 		"/>
		<path class="st6" d="M480.6,179.6c0-0.1-0.1-0.2-0.1-0.3c0-0.1,0-0.1-0.1-0.2c-0.1-0.2-0.2-0.3-0.3-0.5c0,0,0,0,0,0
			c0-0.1-0.1-0.1-0.1-0.2c-0.5-0.6-1.2-1.2-2.1-1.7c-3.9-2.3-10.2-2.3-14.1,0l0,0l0,0c-1,0.6-1.7,1.2-2.2,1.9c0,0,0,0,0,0
			c-0.1,0.2-0.2,0.3-0.3,0.5c0,0,0,0,0,0c0,0.1,0,0.1-0.1,0.2c0,0,0,0,0,0c-0.1,0.1-0.1,0.2-0.1,0.4c0,0.1,0,0.1-0.1,0.2
			c0,0.1-0.1,0.2-0.1,0.3c0,0.1,0,0.2,0,0.2c0,0.1,0,0.2,0,0.3c0,0,0,0,0,0c0,0,0,0,0,0c0,1.5,1,3,2.9,4.1c3.9,2.3,10.2,2.3,14.1,0
			C480.4,183.5,481.3,181.5,480.6,179.6z"/>
		<polygon class="st6" points="470.9,214.6 411.3,180.3 397.2,188.5 397.2,188.5 456.8,222.8 470.9,214.6 		"/>
		<path class="st5" d="M583.6,178.7c0,0.1,0,0.1,0,0.2c0,0.1,0,0.1-0.1,0.2c0,0.1,0,0.1,0,0.2c0,0.1-0.1,0.2-0.1,0.2
			c0,0.1,0,0.1-0.1,0.2c0,0.1-0.1,0.2-0.1,0.2c0,0.1-0.1,0.1-0.1,0.2c-0.1,0.1-0.1,0.1-0.2,0.2c0,0.1-0.1,0.1-0.1,0.2
			c-0.1,0.1-0.1,0.1-0.2,0.2c-0.1,0.1-0.1,0.1-0.2,0.2c-0.1,0.1-0.2,0.1-0.2,0.2c-0.1,0.1-0.1,0.1-0.2,0.2c-0.1,0.1-0.3,0.2-0.4,0.3
			c0,0-0.1,0-0.1,0.1l-1.8,1.1l-1,0.6l-109.9,63.9c-1.5,0.8-3.4,1.3-5.3,1.3c-1.9,0-3.9-0.4-5.3-1.3l-128.2-74L201.7,99
			c-0.2-0.1-0.4-0.2-0.5-0.3c-0.1,0-0.1-0.1-0.1-0.1c-0.1-0.1-0.2-0.2-0.3-0.2c-0.1,0-0.1-0.1-0.2-0.1c-0.1-0.1-0.2-0.1-0.2-0.2
			c-0.1-0.1-0.1-0.1-0.1-0.2c-0.1-0.1-0.1-0.1-0.2-0.2c0-0.1-0.1-0.1-0.1-0.2c0-0.1-0.1-0.1-0.1-0.2c0-0.1-0.1-0.1-0.1-0.2
			c0-0.1-0.1-0.1-0.1-0.2c0-0.1,0-0.1,0-0.2c0-0.1,0-0.1-0.1-0.2c0-0.1,0-0.1,0-0.2c0-0.1,0-0.2,0-0.2c0,0,0,0,0,0l0,12.2
			c0,1.1,0.7,2.2,2.2,3.1l256.4,148c2.9,1.7,7.7,1.7,10.6,0l112.7-65.5c1.5-0.8,2.2-1.9,2.2-3.1l0-12.2
			C583.7,178.5,583.6,178.6,583.6,178.7z"/>
	</g>
	<g class="st8">
		<path class="st1" d="M193.5,320c-5.9,13.3-21.6,22.4-48.1,16.3c-37.7-8.6-64.4-0.7-81.8-10.7c-4.4-2.5-8.2-6.2-11.5-11.6
			c-2.6-4.3-3.4-8.8-2.8-13.3c2.5,2,5.3,4,8.4,6c3,2,6.2,4,9.6,5.9c11.9,6.9,25.9,11.1,40.1,12.9c11.9,1.7,25.2,2.3,39.5,1.5
			c11.8-0.6,22.6-1.9,32.1-3.6C184.3,322.3,189.1,321.2,193.5,320z"/>
	</g>
	<g class="st8">
		<path class="st1" d="M181.3,259.4c4.7,2.7,8,6.5,9.6,11.7c3.1,10,12.8,16.5,23.9,25.8c10,8.4,0.2,17.2-21.3,23.1
			c3.9-8.9,3.4-19.7-1.1-29.2c-1.7-3.5-4.5-6.9-8.3-10.1c-4.7-8.9-14.8-17.6-27.2-25.7c-0.7-0.4-1.3-0.8-2-1.2
			C165.6,254,174.8,255.7,181.3,259.4z"/>
	</g>
	<g class="st9">
		<path class="st1" d="M155,253.8c0.6,0.4,1.3,0.8,2,1.2c12.4,8.1,22.4,16.8,27.2,25.7c-0.2-0.2-0.4-0.4-0.7-0.5
			c-0.2-0.1-0.3-0.3-0.5-0.4c-2.1-1.6-4.4-3.2-6.9-4.6c-17.3-10-44.6-15.7-71.3-11.8c-21.3,3.1-38.7,11.9-48.1,22.6
			c-1,1.1-1.9,2.3-2.7,3.5c1.3-6.7,7.3-13.1,16.5-18.5c16-9.3,41.8-15.9,71.1-17C146.6,253.8,151,253.7,155,253.8z"/>
	</g>
	<g>
		<path class="st1" d="M178.5,308.1c-2.6,2.4-5.7,4.6-9.5,6.8c-0.1,0.1-0.3,0.2-0.4,0.3c-7.9,4.5-17.1,7.6-26.9,9.4
			c-10.9,1.9-22.7,2.2-34.3,0.8c-14.2-1.7-28.2-6-40.1-12.9c-3.3-1.9-6.6-3.9-9.6-5.9c-3-2-5.8-4-8.4-6c0.4-2.9,1.4-5.7,3-8.4
			c0.5-0.9,1.1-1.8,1.7-2.7c0.8-1.2,1.7-2.3,2.7-3.5c9.4-10.7,26.8-19.5,48.1-22.6c26.7-3.9,54,1.8,71.3,11.8c2.5,1.5,4.8,3,6.9,4.6
			c0.2,0.1,0.3,0.3,0.5,0.4c0.2,0.2,0.4,0.4,0.7,0.5C189,290,188.2,299.3,178.5,308.1z M114.1,318.9c24.5,3,45.2-6.6,54-20.2
			c5.6-8.7,1.4-17.7-9.3-23.8c-6.4-3.7-15.2-6.4-25.7-7.4c-24.8-2.4-48.7,6-54,20.2c-3.4,9.1,1.8,18.1,12.4,24.2
			C97.5,315.3,105.2,317.8,114.1,318.9"/>
	</g>
	<g class="st9">
		<path class="st1" d="M184.1,280.8c3.8,3.1,6.6,6.5,8.3,10.1c4.5,9.5,5,20.3,1.1,29.2c-4.4,1.2-9.2,2.3-14.5,3.3
			c-9.5,1.7-20.3,3-32.1,3.6c-14.3,0.8-27.6,0.2-39.5-1.5c11.6,1.4,23.4,1.1,34.3-0.8c9.9-1.8,19-4.9,26.8-9.3
			c0.3-0.2,0.4-0.3,0.6-0.3c3.7-2.2,6.8-4.4,9.4-6.7C188.2,299.3,189,290,184.1,280.8z"/>
	</g>
	<g class="st8">
		<path class="st1" d="M152.8,252.5c0.7,0.4,1.4,0.8,2.1,1.3c-3.9-0.1-8.3,0-13.3,0.2c-29.3,1.1-55.2,7.7-71.1,17
			c-9.3,5.4-15.2,11.7-16.5,18.5c-0.6,0.9-1.2,1.8-1.7,2.7c-1.5,2.8-2.6,5.6-3,8.4c-18.1-14.5-21.4-29.3,20.7-38.8
			C105.9,253.7,120.9,234.1,152.8,252.5z"/>
	</g>
</g>
</svg>
