<?xml version="1.0" encoding="UTF-8"?>
<svg width="291px" height="186px" viewBox="0 0 291 186" version="1.1" xmlns="http://www.w3.org/2000/svg" xmlns:xlink="http://www.w3.org/1999/xlink">
    <!-- Generator: Sketch 52.5 (67469) - http://www.bohemiancoding.com/sketch -->
    <title>coinify-enterprise-illustration-1</title>
    <desc>Created with Sketch.</desc>
    <defs>
        <linearGradient x1="100.111359%" y1="50%" x2="-0.111358575%" y2="50%" id="linearGradient-1">
            <stop stop-color="#7DAB6F" offset="0%"></stop>
            <stop stop-color="#74A781" offset="11.62%"></stop>
            <stop stop-color="#64A09D" offset="33.6%"></stop>
            <stop stop-color="#579AB2" offset="54.19%"></stop>
            <stop stop-color="#4B96C0" offset="72.75%"></stop>
            <stop stop-color="#4293C9" offset="88.64%"></stop>
            <stop stop-color="#3E92CD" offset="100%"></stop>
        </linearGradient>
    </defs>
    <g id="Page-1" stroke="none" stroke-width="1" fill="none" fill-rule="evenodd" stroke-linecap="square" stroke-linejoin="round">
        <g id="1---Buy-&amp;-Sell---Landing-Screen" transform="translate(-878.000000, -329.000000)" stroke="url(#linearGradient-1)">
            <g id="coinify-enterprise-illustration-1" transform="translate(879.000000, 329.000000)">
                <path d="M156.319775,112.693662 L122.029438,112.693662 L122.029438,73.4137324 L161.190562,73.4137324 L161.190562,108.65493 L156.319775,112.693662 Z M111.898202,122.790493 L119.821348,122.790493 L119.821348,114.84331 L111.898202,114.84331 L111.898202,122.790493 Z M110.66427,58.4964789 L115.535056,58.4964789 L115.535056,53.6109155 L110.66427,53.6109155 L110.66427,58.4964789 Z M139.174607,44.9471831 L144.045393,44.9471831 L144.045393,40.0616197 L139.174607,40.0616197 L139.174607,44.9471831 Z M139.174607,36.4788732 L144.045393,36.4788732 L144.045393,31.5933099 L139.174607,31.5933099 L139.174607,36.4788732 Z M139.174607,28.0105634 L144.045393,28.0105634 L144.045393,23.125 L139.174607,23.125 L139.174607,28.0105634 Z M187.68764,121.683099 L187.68764,116.797535 L182.816854,116.797535 L182.816854,121.683099 L187.68764,121.683099 Z M179.244944,121.683099 L179.244944,116.797535 L174.374157,116.797535 L174.374157,121.683099 L179.244944,121.683099 Z M170.802247,121.683099 L170.802247,116.797535 L165.931461,116.797535 L165.931461,121.683099 L170.802247,121.683099 Z M159.242247,177.052817 L159.242247,172.167254 L154.371461,172.167254 L154.371461,177.052817 L159.242247,177.052817 Z M150.799551,177.052817 L150.799551,172.167254 L145.928764,172.167254 L145.928764,177.052817 L150.799551,177.052817 Z M142.356854,177.052817 L142.356854,172.167254 L137.486067,172.167254 L137.486067,177.052817 L142.356854,177.052817 Z M95.3375281,136.014085 L95.3375281,131.128521 L90.4667416,131.128521 L90.4667416,136.014085 L95.3375281,136.014085 Z M86.8948315,136.014085 L86.8948315,131.128521 L82.0240449,131.128521 L82.0240449,136.014085 L86.8948315,136.014085 Z M78.4521348,136.014085 L78.4521348,131.128521 L73.5813483,131.128521 L73.5813483,136.014085 L78.4521348,136.014085 Z M89.4925843,48.3996479 L94.3633708,48.3996479 L94.3633708,43.5140845 L89.4925843,43.5140845 L89.4925843,48.3996479 Z M70.0094382,48.3996479 L74.8802247,48.3996479 L74.8802247,43.5140845 L70.0094382,43.5140845 L70.0094382,48.3996479 Z M89.4925843,67.3556338 L94.3633708,67.3556338 L94.3633708,62.4700704 L89.4925843,62.4700704 L89.4925843,67.3556338 Z M70.0094382,67.3556338 L74.8802247,67.3556338 L74.8802247,62.4700704 L70.0094382,62.4700704 L70.0094382,67.3556338 Z M169.503371,75.5633803 L174.374157,75.5633803 L174.374157,70.6778169 L169.503371,70.6778169 L169.503371,75.5633803 Z M145.474157,133.538732 L150.344944,133.538732 L150.344944,128.653169 L145.474157,128.653169 L145.474157,133.538732 Z M139.174607,146.43662 L144.045393,146.43662 L144.045393,141.551056 L139.174607,141.551056 L139.174607,146.43662 Z M161.190562,80.3838028 L166.645843,80.3838028 L161.190562,80.3838028 Z M161.190562,86.7024648 L166.645843,86.7024648 L161.190562,86.7024648 Z M161.190562,93.0862676 L166.645843,93.0862676 L161.190562,93.0862676 Z M161.190562,99.4049296 L166.645843,99.4049296 L161.190562,99.4049296 Z M161.190562,105.723592 L166.645843,105.723592 L161.190562,105.723592 Z M169.503371,80.3838028 L260.619551,80.3838028 L169.503371,80.3838028 Z M169.503371,86.7024648 L187.68764,86.7024648 L169.503371,86.7024648 Z M234.382247,49.8978873 L234.382247,38.1725352 L204.248315,38.1725352 L204.248315,66.3133803 L234.382247,49.8978873 Z M169.503371,93.0862676 L204.248315,93.0862676 L204.248315,70.2869718 L169.503371,93.0862676 Z M174.958652,99.4049296 L169.503371,99.4049296 L174.958652,99.4049296 Z M169.503371,105.723592 L179.374831,105.723592 L183.206517,109.371479 L194.182022,109.371479 L169.503371,105.723592 Z M116.509213,80.3838028 L121.964494,80.3838028 L116.509213,80.3838028 Z M116.509213,86.7024648 L121.964494,86.7024648 L116.509213,86.7024648 Z M121.964494,93.0862676 L116.509213,93.0862676 L121.964494,93.0862676 Z M116.509213,99.4049296 L121.964494,99.4049296 L116.509213,99.4049296 Z M116.509213,105.723592 L121.964494,105.723592 L116.509213,105.723592 Z M135.277978,64.9454225 L135.277978,49.3116197 L106.377978,49.3116197 L106.377978,86.7024648 L113.132135,86.7024648 L135.277978,64.9454225 Z M113.132135,80.3838028 L99.7537079,80.3838028 L96.7662921,77.1267606 L35.7840449,77.1267606 L113.132135,80.3838028 Z M51.1757303,120.640845 L51.1757303,133.538732 L68.9053933,133.538732 L51.1757303,120.640845 Z M113.132135,93.0862676 L51.1757303,93.0862676 L51.1757303,116.797535 L113.132135,93.0862676 Z M113.132135,99.4049296 L100.403146,99.4049296 L96.6364045,103.052817 L91.1811236,103.052817 L113.132135,99.4049296 Z M47.4739326,109.371479 L101.452926,109.371479 L104.706001,105.723592 L113.197079,105.723592 L47.4739326,109.371479 Z M128.913483,118.165493 L128.913483,112.693662 L128.913483,118.165493 Z M135.277978,118.165493 L135.277978,112.693662 L135.277978,118.165493 Z M141.577528,118.165493 L141.577528,112.693662 L141.577528,118.165493 Z M147.942022,118.165493 L147.942022,112.693662 L147.942022,118.165493 Z M128.913483,165.262324 L128.913483,122.139085 L128.913483,165.262324 Z M99.8835955,133.538732 L135.213034,133.538732 L135.213034,122.139085 L99.8835955,133.538732 Z M120.146067,183.632042 L166.321124,183.632042 L166.321124,133.370675 L141.577528,133.370675 L141.577528,122.139085 L120.146067,183.632042 Z M154.241573,118.165493 L154.241573,112.693662 L154.241573,118.165493 Z M128.913483,73.4137324 L128.913483,67.9419014 L128.913483,73.4137324 Z M135.277978,73.4137324 L135.277978,67.9419014 L135.277978,73.4137324 Z M141.577528,73.4137324 L141.577528,67.9419014 L141.577528,73.4137324 Z M154.241573,73.4137324 L154.241573,67.9419014 L154.241573,73.4137324 Z M128.913483,64.9454225 L128.913483,57.1285211 L125.991011,54.5228873 L125.991011,34.7852113 L72.4773034,34.7852113 L72.4773034,40.0616197 L128.913483,64.9454225 Z M141.577528,64.9454225 L141.577528,49.3116197 L141.577528,64.9454225 Z M147.942022,73.4137324 L147.942022,49.3116197 L166.386067,49.3116197 L166.386067,11.1390845 L147.942022,73.4137324 Z M154.241573,64.9454225 L154.241573,59.4735915 L154.241573,64.9454225 Z M247.630787,70.221831 L221.198652,70.221831 L221.198652,90.6109155 L247.630787,90.6109155 L247.630787,70.221831 Z M244.058876,70.221831 L244.058876,63.9683099 C244.058876,58.6267606 239.70764,54.2623239 234.382247,54.2623239 C229.056854,54.2623239 224.705618,58.6267606 224.705618,63.9683099 L224.705618,70.221831 L244.058876,70.221831 Z M198.403371,136.014085 L198.403371,147.413732 L233.797753,147.413732 L198.403371,136.014085 Z M128.913483,165.262324 L214.172692,165.262324 L214.172692,180.635563 L203.893529,180.635563 L203.893529,147.413732 L225.030337,147.413732 L225.030337,120.640845 L195.705797,120.640845 L128.913483,165.262324 Z M166.580899,142.137324 L258.801124,142.137324 L166.580899,142.137324 Z M201.780449,109.371479 L214.70427,109.371479 L201.780449,109.371479 Z M217.302022,109.371479 L230.225843,109.371479 L217.302022,109.371479 Z M278.414157,129.825704 L278.414157,142.137324 L265.490337,142.137324 L278.414157,129.825704 Z M265.360449,80.318662 L278.28427,80.318662 L265.360449,80.318662 Z M17.9244944,77.1267606 L30.8483146,77.1267606 L17.9244944,77.1267606 Z M77.5429213,64.9454225 L87.5442697,64.9454225 L77.5429213,64.9454225 Z M232.758652,109.371479 L236.525393,109.371479 L232.758652,109.371479 Z M206.651236,152.690141 L196.065393,152.690141 L196.065393,158.748239 L206.651236,158.748239 L206.651236,152.690141 Z M162.294607,4.42957746 L162.294607,7.03521127 C162.294607,9.31514085 164.113034,11.0739437 166.321124,11.0739437 C168.529213,11.0739437 170.34764,9.25 170.34764,7.03521127 L170.34764,4.42957746 L162.294607,4.42957746 Z M164.697528,4.42957746 L164.697528,0.521126761 L164.697528,4.42957746 Z M168.009663,4.42957746 L168.009663,0.521126761 L168.009663,4.42957746 Z M111.703371,155.100352 L84.167191,155.100352 L84.167191,173.144366 L111.703371,173.144366 L111.703371,155.100352 Z M111.703371,152.038732 L84.167191,152.038732 L84.167191,155.035211 L111.703371,155.035211 L111.703371,152.038732 Z M32.4069663,97.9066901 L12.7289888,97.9066901 L8.96224719,103.573944 L36.1737079,103.573944 L32.4069663,97.9066901 Z M8.96224719,103.508803 C8.96224719,105.397887 10.4559551,106.896127 12.3393258,106.896127 C14.2226966,106.896127 15.7164045,105.397887 15.7164045,103.508803 L8.96224719,103.508803 Z M15.7813483,103.508803 C15.7813483,105.397887 17.2750562,106.896127 19.158427,106.896127 C21.0417978,106.896127 22.5355056,105.397887 22.5355056,103.508803 L15.7813483,103.508803 Z M22.6004494,103.508803 C22.6004494,105.397887 24.0941573,106.896127 25.9775281,106.896127 C27.8608989,106.896127 29.3546067,105.397887 29.3546067,103.508803 L22.6004494,103.508803 Z M29.3546067,103.508803 C29.3546067,105.397887 30.8483146,106.896127 32.7316854,106.896127 C34.6150562,106.896127 36.108764,105.397887 36.108764,103.508803 L29.3546067,103.508803 Z M11.1703371,106.700704 L11.1703371,120.836268 L33.7058427,120.836268 L33.7058427,106.830986 L11.1703371,106.700704 Z M20.2624719,120.901408 L20.2624719,110.022887 L15.1319101,110.022887 L15.1319101,120.901408 L20.2624719,120.901408 Z M29.4195506,110.022887 L24.4188764,110.022887 L24.4188764,114.387324 L29.4195506,114.387324 L29.4195506,110.022887 Z M22.6004494,87.0933099 C10.3260674,87.0933099 0.389662921,97.0598592 0.389662921,109.371479 C0.389662921,121.683099 10.3260674,131.649648 22.6004494,131.649648 C34.8748315,131.649648 44.811236,121.683099 44.811236,109.371479 C44.811236,97.0598592 34.8098876,87.0933099 22.6004494,87.0933099 Z M266.399551,85.2693662 C254.125169,85.2693662 244.188764,95.2359155 244.188764,107.547535 C244.188764,119.859155 254.125169,129.825704 266.399551,129.825704 C278.673933,129.825704 288.610337,119.859155 288.610337,107.547535 C288.610337,95.2359155 278.673933,85.2693662 266.399551,85.2693662 Z M97.9352809,140.31338 C85.6608989,140.31338 75.7244944,150.27993 75.7244944,162.591549 C75.7244944,174.903169 85.6608989,184.869718 97.9352809,184.869718 C110.209663,184.869718 120.146067,174.903169 120.146067,162.591549 C120.146067,150.27993 110.209663,140.31338 97.9352809,140.31338 Z M92.3501124,159.204225 L93.908764,159.204225 L95.1426966,165.588028 L101.961798,165.588028 L92.3501124,159.204225 Z M100.208315,166.565141 C99.688764,166.565141 99.2991011,166.955986 99.2991011,167.477113 C99.2991011,167.998239 99.688764,168.389085 100.208315,168.389085 C100.727865,168.389085 101.117528,167.998239 101.117528,167.477113 C101.117528,166.955986 100.727865,166.565141 100.208315,166.565141 Z M96.6364045,166.565141 C96.1168539,166.565141 95.727191,166.955986 95.727191,167.477113 C95.727191,167.998239 96.1168539,168.389085 96.6364045,168.389085 C97.1559551,168.389085 97.545618,167.998239 97.545618,167.477113 C97.545618,166.955986 97.1559551,166.565141 96.6364045,166.565141 Z M94.8179775,164.024648 L102.221573,164.024648 L103.130787,160.181338 L94.1035955,160.181338 L94.8179775,164.024648 Z M277.829663,101.098592 C277.829663,97.8415493 275.23191,95.2359155 271.984719,95.2359155 L277.829663,101.098592 Z M255.68382,114.126761 C255.68382,117.383803 258.281573,119.989437 261.528764,119.989437 L255.68382,114.126761 Z M269.841573,102.271127 C269.841573,97.5809859 266.074831,93.8028169 261.398876,93.8028169 C256.722921,93.8028169 252.95618,97.5809859 252.95618,102.271127 C252.95618,106.961268 256.722921,110.739437 261.398876,110.739437 L269.841573,102.271127 Z M270.880674,102.205986 C265.620225,102.205986 261.398876,106.505282 261.398876,111.716549 C261.398876,116.927817 265.685169,121.227113 270.880674,121.227113 C276.141124,121.227113 280.362472,116.927817 280.362472,111.716549 C280.362472,106.505282 276.141124,102.205986 270.880674,102.205986 Z M269.516854,107.482394 L269.516854,115.950704 L269.516854,107.482394 Z M270.880674,107.482394 L270.880674,108.65493 L270.880674,107.482394 Z M270.880674,114.713028 L270.880674,115.950704 L270.880674,114.713028 Z M271.789888,111.586268 C272.569213,111.586268 273.218652,110.934859 273.218652,110.153169 C273.218652,109.371479 272.569213,108.72007 271.789888,108.72007 L268.282921,108.72007 L271.789888,111.586268 Z M268.282921,114.713028 L271.919775,114.713028 C272.764045,114.713028 273.478427,113.996479 273.478427,113.149648 C273.478427,112.302817 272.764045,111.586268 271.919775,111.586268 L269.516854,111.586268 L268.282921,114.713028 Z M261.398876,98.6883803 L261.398876,105.853873 L261.398876,98.6883803 Z M259.450562,103.443662 C259.580449,104.225352 260.164944,104.876761 261.528764,104.876761 C262.697753,104.876761 263.412135,104.290493 263.412135,103.508803 C263.412135,102.596831 262.892584,102.336268 261.528764,102.140845 C260.164944,101.945423 259.710337,101.619718 259.710337,100.903169 C259.710337,100.121479 260.359775,99.665493 261.46382,99.665493 C262.502921,99.665493 263.022472,100.056338 263.217303,100.772887 L259.450562,103.443662 Z M141.642472,82.3380282 C143.590787,82.3380282 145.34427,82.8591549 146.902921,83.7059859 L141.642472,78.4295775 L136.382022,83.7059859 C137.87573,82.8591549 139.694157,82.3380282 141.642472,82.3380282 Z M145.019551,91.7183099 C144.5,90.3503521 143.13618,89.3732394 141.642472,89.3732394 C139.629213,89.3732394 138.005618,91.0017606 138.005618,93.0211268 C138.005618,95.040493 139.629213,96.6690141 141.642472,96.6690141 C143.201124,96.6690141 144.5,95.6919014 145.019551,94.3239437 L152.163371,94.8450704 C151.968539,96.0827465 151.513933,97.2552817 150.929438,98.2975352 L156.189888,93.0211268 L150.929438,87.7447183 C151.513933,88.7869718 151.968539,89.8943662 152.163371,91.1320423 L145.019551,91.7183099 Z M130.926742,93.0211268 C130.926742,91.0669014 131.446292,89.3080986 132.290562,87.7447183 L127.030112,93.0211268 L132.290562,98.2975352 C131.446292,96.7992958 130.926742,94.9753521 130.926742,93.0211268 Z M141.642472,103.769366 C139.694157,103.769366 137.940674,103.248239 136.382022,102.401408 L141.642472,107.677817 L146.902921,102.401408 C145.34427,103.248239 143.525843,103.769366 141.642472,103.769366 Z" id="Shape"></path>
            </g>
        </g>
    </g>
</svg>