<?xml version="1.0" encoding="UTF-8"?>
<!-- Generator: Adobe Illustrator 16.0.0, SVG Export Plug-In . SVG Version: 6.00 Build 0)  -->
<!DOCTYPE svg PUBLIC "-//W3C//DTD SVG 1.1//EN" "http://www.w3.org/Graphics/SVG/1.1/DTD/svg11.dtd">
<svg version="1.1" id="Layer_1" xmlns="http://www.w3.org/2000/svg" xmlns:xlink="http://www.w3.org/1999/xlink" x="0px" y="0px" width="842px" height="256px" viewBox="0 0 842 256" enable-background="new 0 0 842 256" xml:space="preserve">
<g>
	<path fill="#B0B0B0" d="M400.01,138.4l22.361,7.105c-3.424,12.472-9.128,21.717-17.09,27.777   c-7.977,6.061-18.112,9.079-30.359,9.079c-15.183,0-27.639-5.174-37.407-15.529c-9.784-10.361-14.667-24.555-14.667-42.529   c0-19.026,4.928-33.782,14.722-44.311c9.824-10.529,22.743-15.772,38.766-15.772c13.966,0,25.303,4.116,34.048,12.376   c5.194,4.888,9.085,11.893,11.684,21.056l-22.823,5.454c-1.362-5.92-4.181-10.615-8.463-14.041   c-4.286-3.407-9.503-5.142-15.626-5.142c-8.462,0-15.339,3.032-20.627,9.133c-5.258,6.077-7.9,15.914-7.9,29.516   c0,14.459,2.601,24.751,7.795,30.849c5.206,6.163,11.96,9.221,20.267,9.221c6.124,0,11.397-1.959,15.815-5.85   C394.924,152.904,398.094,146.786,400.01,138.4z"/>
	<path fill="#B0B0B0" d="M434.034,137.851c0-7.259,1.807-14.291,5.387-21.113c3.577-6.809,8.654-11.996,15.222-15.574   c6.577-3.596,13.908-5.383,22.036-5.383c12.509,0,22.768,4.07,30.781,12.19c8.001,8.133,12.007,18.409,12.007,30.826   c0,12.531-4.045,22.915-12.128,31.149c-8.079,8.215-18.248,12.35-30.515,12.35c-7.575,0-14.826-1.711-21.692-5.151   c-6.905-3.405-12.134-8.464-15.711-15.091C435.841,155.441,434.034,147.366,434.034,137.851z M456.484,139.037   c0,8.202,1.946,14.503,5.841,18.858c3.899,4.353,8.723,6.538,14.427,6.538c5.711,0,10.507-2.186,14.382-6.538   c3.87-4.355,5.811-10.699,5.811-19.016c0-8.118-1.94-14.348-5.811-18.701c-3.875-4.372-8.671-6.557-14.382-6.557   c-5.704,0-10.527,2.185-14.427,6.557C458.431,124.532,456.484,130.815,456.484,139.037z"/>
	<path fill="#B0B0B0" d="M534.393,86.419V66.166h21.897v20.254H534.393z M534.393,180.418V97.654h21.897v82.764H534.393z"/>
	<path fill="#B0B0B0" d="M651.212,180.418h-21.897v-42.245c0-8.932-0.479-14.71-1.407-17.334c-0.943-2.623-2.453-4.681-4.565-6.118   c-2.101-1.452-4.637-2.196-7.579-2.196c-3.797,0-7.198,1.056-10.208,3.125c-3.03,2.075-5.102,4.85-6.206,8.26   c-1.125,3.426-1.682,9.77-1.682,19.014v37.494h-21.908V97.654h20.354v12.148c7.229-9.346,16.312-14.022,27.273-14.022   c4.832,0,9.26,0.856,13.271,2.622c3.979,1.731,6.999,3.958,9.066,6.637c2.047,2.72,3.465,5.778,4.295,9.204   c0.776,3.426,1.192,8.331,1.192,14.742V180.418z"/>
	<path fill="#B0B0B0" d="M669.029,86.501V66.234h21.895v20.267H669.029z M669.029,180.487V97.723h21.895v82.765H669.029z"/>
	<path fill="#B0B0B0" d="M816.337,97.654l-19.339,58.76l-19.802-58.76h-23.292H737.48v-5.766c0-4.228,0.68-7.061,2.067-8.557   c1.383-1.465,3.641-2.198,6.812-2.198c3.225,0,6.568,0.409,10.052,1.256l2.976-15.28c-5.997-1.89-12.091-2.817-18.326-2.817   c-6.089,0-11.117,1.084-15.08,3.228c-3.978,2.155-6.7,4.946-8.195,8.37c-1.481,3.439-2.194,8.641-2.194,15.604v6.228h-10.913   v17.224h10.913v65.541h21.889v-65.541h16.36h6.637l24.909,65.71c-1.291,4.608-3.153,8.43-5.616,11.402   c-2.428,2.989-6.196,4.485-11.288,4.485c-2.741,0-5.844-0.342-9.279-1.008l1.954,17.159c4.074,0.854,8.194,1.31,12.393,1.31   c4.153,0,7.878-0.455,11.177-1.31c3.299-0.891,6.088-2.126,8.357-3.71c2.252-1.594,4.25-3.649,5.977-6.202   c1.759-2.551,3.595-6.239,5.511-11.062l5.217-14.406l29.23-79.662H816.337z"/>
</g>
<g>
	<path fill="#F4C567" d="M131.794,219.562c-1.402,0.127-2.778,0.205-4.095,0.205h-0.003c-0.004,0-0.004,0-0.004,0   c-0.015,0-0.027,0-0.047,0c-1.299,0-2.651-0.078-4.034-0.205c-16.85-0.743-32.515-5.991-45.783-14.672   c-0.367,0.049-0.217,0.489,0.638,1.35l46.684,46.666c1.4,1.399,3.697,1.399,5.1,0l46.67-46.666c0.859-0.86,1.001-1.301,0.637-1.35   C164.295,213.562,148.638,218.809,131.794,219.562z"/>
	<path fill="#F4C567" d="M252.396,125.716l-46.697-46.71c-1.4-1.403-1.833-1.095-0.951,0.683c0,0,0.057,0.116,0.161,0.331   c6.044,9.605,10.33,20.405,12.457,31.97l-61.004,4.696c-4.574-11.369-15.668-19.372-28.662-19.372   c-17.055,0-30.924,13.813-30.924,30.953c0,17.026,13.869,30.884,30.924,30.884c13.001,0,24.097-8.035,28.668-19.378l61.077,4.68   c-2.142,12.156-6.648,23.493-13.109,33.481c-0.076,0.597,0.391,0.5,1.363-0.478l46.697-46.642   C253.797,129.415,253.797,127.12,252.396,125.716z"/>
	<path fill="#F4C567" d="M79.149,51.178c0,0,0.432-0.213,1.165-0.562c10.497-6.399,22.357-10.726,35.081-12.444   c4.289-0.912,8.496-1.49,12.305-1.49c3.812,0,8.021,0.579,12.315,1.493c12.71,1.721,24.566,6.045,35.051,12.442   c0.738,0.35,1.169,0.562,1.169,0.562c1.779,0.877,2.084,0.45,0.685-0.954L130.25,3.555c-1.402-1.4-3.699-1.4-5.1,0L78.467,50.224   C77.066,51.627,77.37,52.055,79.149,51.178z"/>
	<path fill="#F4C567" d="M50.421,80.113c0.122-0.261,0.203-0.424,0.203-0.424c0.879-1.778,0.45-2.086-0.953-0.683l-46.652,46.71   c-1.403,1.403-1.403,3.699,0,5.099l46.652,46.642c0.987,0.987,1.459,1.084,1.363,0.459c-7.899-12.228-12.939-26.438-14.215-41.756   c-0.425-2.743-0.679-5.408-0.679-7.893c0-2.56,0.269-5.299,0.713-8.119C38.182,105.517,43.002,91.927,50.421,80.113z"/>
</g>
</svg>