<svg enable-background="new 0 0 600 400" viewBox="0 0 600 400" xmlns="http://www.w3.org/2000/svg"><path d="m207.8 250.7c-44-25.4-115.1-25.4-158.8 0-21.7 12.7-32.6 29.3-32.6 45.9v.8.8.8c0 .3 0 .5.1.8 0 .3.1.5.1.8s.1.5.1.8.1.5.1.8.1.5.1.8.1.5.1.8.1.5.1.8c.1.3.1.5.2.8s.1.5.2.8.1.5.2.8.1.5.2.8.2.5.2.8c.1.3.2.5.2.8.1.3.2.5.3.8s.2.5.3.8.2.5.3.8c.1.2.2.5.3.7.1.3.2.5.3.8.1.2.2.5.3.7.1.3.2.5.4.8.1.3.2.5.4.8.1.3.3.5.4.8.1.2.3.5.4.7.1.3.3.5.4.8.1.2.3.5.4.7.2.3.3.5.5.8.2.2.3.5.5.7.2.3.3.5.5.7s.3.5.5.7c.2.3.4.5.5.8.2.2.3.5.5.7s.4.5.6.7.4.5.6.7.4.5.6.7.4.5.6.7.4.5.7.7c.2.2.4.5.6.7s.5.5.7.7.4.5.6.7l.7.7.7.7c.2.2.5.5.8.7.2.2.5.4.7.7.3.2.5.5.8.7.2.2.5.4.7.6.3.2.6.5.8.7s.5.4.7.6c.3.2.6.5.9.7.2.2.5.4.7.6.3.2.6.5 1 .7.3.2.5.4.8.6s.7.5 1 .7.5.4.8.6.7.5 1 .7.5.4.8.6c.4.3.8.5 1.2.8.2.2.5.3.7.5.4.3.9.5 1.3.8.2.1.4.3.7.4.7.4 1.3.8 2 1.2 1.3.8 2.7 1.5 4 2.2.5.2.9.5 1.4.7.9.5 1.8.9 2.8 1.4.6.3 1.1.5 1.7.8.9.4 1.7.8 2.6 1.2.6.3 1.2.5 1.9.8.9.4 1.8.7 2.7 1.1.4.2.8.3 1.2.4 1.2.4 2.3.9 3.5 1.3.3.1.5.2.8.3 1.4.5 2.8.9 4.3 1.4.4.1.7.2 1.1.3 1 .3 1.9.6 2.9.8 1.1.3 2.3.6 3.4.9.7.2 1.4.4 2.1.5 1.3.3 2.5.6 3.8.9.6.1 1.2.3 1.8.4 1.1.2 2.3.4 3.5.7.6.1 1.3.2 1.9.4 1.5.3 3 .5 4.6.7.3 0 .6.1.9.1 1.8.3 3.6.5 5.4.7.4 0 .8.1 1.3.1 1.4.1 2.8.3 4.1.4.7.1 1.3.1 2 .1 1.1.1 2.3.2 3.5.2.7 0 1.5.1 2.3.1 1.1 0 2.1.1 3.2.1h2.1 3.5 2.3c1.1 0 2.2 0 3.3-.1.7 0 1.4-.1 2.1-.1 1.3-.1 2.5-.1 3.8-.2.8 0 1.5-.1 2.3-.2 1.2-.1 2.4-.2 3.6-.3 1-.1 1.9-.2 2.9-.3.4 0 .8-.1 1.2-.1 1.6-.2 3.1-.4 4.7-.6.2 0 .4-.1.7-.1 1.4-.2 2.7-.4 4.1-.6.4-.1.8-.1 1.2-.2.9-.2 1.7-.3 2.6-.5 1-.2 2-.4 2.9-.6.8-.2 1.6-.3 2.4-.5 1-.2 1.9-.4 2.9-.7.8-.2 1.6-.4 2.4-.6.9-.2 1.9-.5 2.8-.7.8-.2 1.6-.4 2.3-.7.9-.3 1.8-.5 2.7-.8 1-.3 1.9-.6 2.9-.9.3-.1.7-.2 1-.3l4.2-1.5c.3-.1.5-.2.7-.3 1.2-.5 2.3-.9 3.4-1.4.3-.1.7-.3 1-.4 1.3-.6 2.7-1.2 3.9-1.8.2-.1.3-.1.5-.2 1.2-.6 2.3-1.1 3.4-1.7.3-.2.7-.3 1-.5 1.3-.7 2.5-1.3 3.7-2.1.7-.4 1.4-.8 2-1.2.2-.1.4-.3.7-.4.4-.3.9-.5 1.3-.8.2-.2.5-.3.7-.5.4-.3.8-.5 1.2-.8.2-.2.5-.3.7-.5.4-.3.7-.5 1.1-.8.2-.2.5-.3.7-.5.3-.3.7-.5 1-.8.2-.2.5-.4.7-.5.3-.3.7-.5 1-.8.2-.2.5-.4.7-.6.3-.2.6-.5.9-.7.2-.2.5-.4.7-.6.3-.2.6-.5.9-.7.2-.2.5-.4.7-.6.3-.2.5-.5.8-.7.2-.2.4-.4.7-.6s.5-.5.8-.7c0 0 .1-.1.1-.1.1-.1.3-.3.4-.4s.1-.1.1-.1l.7-.7c.1-.2.3-.3.4-.5l.9-.9c.2-.2.4-.5.6-.7s.4-.5.6-.7.4-.5.6-.7.4-.5.6-.7c0 0 .1-.1.1-.1s0 0 0-.1c.1-.2.3-.3.4-.5.2-.2.4-.5.6-.7.1-.1.1-.2.2-.2 0 0 0 0 0-.1.3-.4.6-.8.8-1.2.1-.1.2-.2.2-.4 0 0 0 0 0-.1.2-.3.5-.7.7-1 .1-.2.2-.3.3-.5l.6-.9c.1-.2.3-.5.4-.7.1-.3.3-.5.4-.8.1-.2.3-.5.4-.7.1-.3.3-.5.4-.8.1-.2.2-.5.4-.7.1-.3.3-.5.4-.8.1-.2.2-.5.3-.7.1-.3.2-.5.3-.8v-.1c.1-.2.2-.4.3-.6.1-.3.2-.6.3-.8s.1-.3.2-.5c0-.1 0-.1.1-.2.1-.3.2-.6.3-.9.1-.2.1-.4.2-.6v-.1c.1-.3.2-.6.3-.9.1-.2.1-.4.2-.6v-.1c.1-.3.2-.6.2-.9 0-.2.1-.4.1-.6.1-.3.1-.5.2-.8v-.1c0-.2.1-.3.1-.5v-.1c0-.3.1-.5.1-.8v-.1c.1-.5.1-.9.2-1.4v-.1-.1c.1-.4.1-.9.1-1.3v-.1-.1c0-.4.1-.9.1-1.3v-.1-.1c.8-17.9-10.3-35.2-32.9-48.2z" fill="#fff0d2"/><path d="m240.9 298v.1.1.1c0 .4 0 .9-.1 1.3v.1.1c0 .4-.1.9-.1 1.3v.1.1c-.1.5-.1.9-.2 1.4v.1c0 .3-.1.5-.1.8v.1c0 .2-.1.3-.1.5v.1c-.1.3-.1.5-.2.8 0 .2-.1.4-.1.6-.1.3-.2.6-.2.9v.1c-.1.2-.1.4-.2.6-.1.3-.2.6-.3.9v.1c-.1.2-.1.4-.2.6-.1.3-.2.6-.3.9 0 .1 0 .1-.1.2-.1.2-.1.4-.2.5-.1.3-.2.6-.3.8s-.2.4-.3.6v.1c-.1.3-.2.5-.3.8-.1.2-.2.5-.3.7-.1.3-.2.5-.4.8-.1.2-.2.5-.4.7-.1.3-.3.5-.4.8-.1.2-.2.5-.4.7-.1.3-.3.5-.4.8-.1.2-.3.5-.4.7-.2.3-.4.6-.6.9-.1.2-.2.3-.3.5-.2.3-.5.7-.7 1v.1c-.1.1-.2.2-.2.4-.3.4-.5.8-.8 1.2v.1c-.1.1-.1.2-.2.2-.2.2-.4.5-.6.7-.1.2-.3.3-.4.5v.1s-.1.1-.1.1c-.2.2-.4.5-.6.7s-.4.5-.6.7-.4.5-.6.7-.4.5-.6.7c-.3.3-.6.6-.9.9-.1.2-.3.3-.4.5-.2.2-.5.5-.7.7 0 0-.1.1-.1.1-.1.1-.2.3-.4.4s-.1.1-.1.1c-.2.2-.5.5-.8.7-.2.2-.4.4-.7.6s-.5.5-.8.7c-.2.2-.5.4-.7.6-.3.2-.6.5-.9.7-.2.2-.5.4-.7.6-.3.3-.6.5-.9.7-.2.2-.5.4-.7.6-.3.3-.7.5-1 .8-.2.2-.5.4-.7.5-.3.3-.7.5-1 .8-.2.2-.5.3-.7.5-.4.3-.7.5-1.1.8-.2.2-.5.3-.7.5-.4.3-.8.5-1.2.8-.2.2-.5.3-.7.5-.4.3-.9.5-1.3.8-.2.1-.4.3-.7.4-.7.4-1.3.8-2 1.2-1.2.7-2.5 1.4-3.7 2.1-.3.2-.7.3-1 .5-1.1.6-2.3 1.2-3.4 1.7-.2.1-.3.1-.5.2-1.3.6-2.6 1.2-3.9 1.8-.3.1-.7.3-1 .4-1.1.5-2.3.9-3.4 1.4-.2.1-.5.2-.7.3-1.4.5-2.8 1-4.2 1.5-.3.1-.7.2-1 .3-.9.3-1.9.6-2.9.9-.9.3-1.8.6-2.7.8-.8.2-1.5.5-2.3.7-.9.3-1.9.5-2.8.7-.8.2-1.6.4-2.4.6-1 .2-1.9.4-2.9.7-.8.2-1.6.4-2.4.5-1 .2-2 .4-2.9.6s-1.7.3-2.6.5c-.4.1-.8.1-1.2.2-1.3.2-2.7.4-4.1.6-.2 0-.4.1-.7.1-1.5.2-3.1.4-4.7.6-.4 0-.8.1-1.2.1-1 .1-1.9.2-2.9.3-1.2.1-2.4.2-3.6.3-.8.1-1.5.1-2.3.2-1.3.1-2.5.1-3.8.2-.7 0-1.4.1-2.1.1-1.1 0-2.2 0-3.3.1-.8 0-1.5 0-2.3 0-1.2 0-2.3 0-3.5 0-.7 0-1.4 0-2.1 0-1.1 0-2.1-.1-3.2-.1-.8 0-1.5-.1-2.3-.1-1.2-.1-2.3-.2-3.5-.2-.7 0-1.3-.1-2-.1-1.4-.1-2.8-.3-4.1-.4-.4 0-.8-.1-1.3-.1-1.8-.2-3.6-.4-5.4-.7-.3 0-.6-.1-.9-.1-1.5-.2-3-.5-4.6-.7-.6-.1-1.3-.2-1.9-.4-1.2-.2-2.3-.4-3.5-.7-.6-.1-1.2-.3-1.8-.4-1.3-.3-2.5-.6-3.8-.9-.7-.2-1.4-.3-2.1-.5-1.1-.3-2.3-.6-3.4-.9-1-.3-1.9-.5-2.9-.8-.4-.1-.7-.2-1.1-.3-1.4-.4-2.9-.9-4.3-1.4-.3-.1-.5-.2-.8-.3-1.2-.4-2.3-.8-3.5-1.3-.4-.1-.8-.3-1.2-.4-.9-.4-1.8-.7-2.7-1.1-.6-.3-1.2-.5-1.9-.8-.9-.4-1.7-.8-2.6-1.2-.6-.3-1.1-.5-1.7-.8-.9-.4-1.9-.9-2.8-1.4-.5-.2-.9-.5-1.4-.7-1.4-.7-2.7-1.5-4-2.2-.7-.4-1.4-.8-2-1.2-.2-.1-.4-.3-.7-.4-.4-.3-.9-.5-1.3-.8-.2-.2-.5-.3-.7-.5-.4-.3-.8-.5-1.2-.8-.3-.2-.5-.4-.8-.6s-.7-.5-1-.7-.5-.4-.8-.6-.7-.5-1-.7-.5-.4-.8-.6-.6-.5-1-.7c-.3-.2-.5-.4-.7-.6-.3-.2-.6-.5-.9-.7s-.5-.4-.7-.6c-.3-.2-.6-.5-.8-.7s-.5-.4-.7-.6c-.3-.2-.5-.5-.8-.7-.2-.2-.5-.4-.7-.7-.3-.2-.5-.5-.8-.7-.2-.2-.4-.4-.7-.7-.2-.2-.5-.5-.7-.7s-.4-.4-.6-.7c-.2-.2-.5-.5-.7-.7s-.4-.5-.6-.7-.4-.5-.7-.7c-.2-.2-.4-.5-.6-.7s-.4-.5-.6-.7-.4-.5-.6-.7-.4-.5-.6-.7-.3-.5-.5-.7c-.2-.3-.4-.5-.5-.8-.2-.2-.3-.5-.5-.7s-.3-.5-.5-.7-.3-.5-.5-.7c-.2-.3-.3-.5-.5-.8-.1-.2-.3-.5-.4-.7-.1-.3-.3-.5-.4-.8-.1-.2-.3-.5-.4-.7-.1-.3-.3-.5-.4-.8s-.2-.5-.4-.8c-.1-.3-.3-.5-.4-.8-.1-.2-.2-.5-.3-.7-.1-.3-.2-.5-.3-.8-.1-.2-.2-.5-.3-.7-.1-.3-.2-.5-.3-.8s-.2-.5-.3-.8-.2-.5-.3-.8-.2-.5-.2-.8c-.1-.3-.2-.5-.2-.8-.1-.3-.1-.5-.2-.8s-.1-.5-.2-.8-.1-.5-.2-.8-.1-.5-.2-.8-.1-.5-.1-.8-.1-.5-.1-.8-.1-.5-.1-.8-.1-.5-.1-.8-.1-.5-.1-.8-.1-.5-.1-.8 0-.5-.1-.8c0-.3 0-.5 0-.8s0-.5 0-.8 0-.5 0-.8c0-.1 0-.1 0-.2v12.2c0 16.7 11 33.5 33.1 46.3 1.3.8 2.7 1.5 4 2.2.5.2.9.5 1.4.7.9.5 1.8.9 2.8 1.4.6.3 1.1.5 1.7.8.9.4 1.7.8 2.6 1.2.6.3 1.2.5 1.9.8.6.2 1.2.5 1.8.7.3.1.6.3.9.4.4.2.8.3 1.2.4 1.2.4 2.3.9 3.5 1.3.3.1.5.2.8.3 1.4.5 2.8.9 4.3 1.4.4.1.7.2 1.1.3.6.2 1.2.4 1.8.5.3.1.7.2 1 .3 1.1.3 2.3.6 3.4.9.7.2 1.4.4 2.1.5 1.3.3 2.5.6 3.8.9.5.1.9.2 1.4.3.1 0 .3.1.4.1 1.1.2 2.3.4 3.5.7.6.1 1.3.2 1.9.4 1.5.3 3 .5 4.6.7.3 0 .5.1.8.1 1.8.3 3.6.5 5.4.7.4 0 .8.1 1.2.1 1.4.1 2.8.3 4.2.4h.1c.6.1 1.2.1 1.8.1 1.2.1 2.3.2 3.5.2.7 0 1.5.1 2.2.1 1.1 0 2.2.1 3.2.1h.3 1.8 3.5 2.3c1.1 0 2.2 0 3.3-.1h.6c.5 0 1 0 1.5-.1 1.3-.1 2.5-.1 3.8-.2.8 0 1.5-.1 2.3-.2 1.2-.1 2.4-.2 3.6-.3.4 0 .8-.1 1.3-.1.5-.1 1.1-.1 1.6-.2.4 0 .8-.1 1.2-.1 1.6-.2 3.1-.4 4.7-.6.2 0 .4-.1.7-.1 1.4-.2 2.7-.4 4.1-.6.4-.1.8-.1 1.2-.2.3-.1.6-.1 1-.2.6-.1 1.1-.2 1.7-.3 1-.2 2-.4 2.9-.6.8-.2 1.6-.3 2.4-.5 1-.2 1.9-.4 2.9-.7.8-.2 1.6-.4 2.4-.6.9-.2 1.9-.5 2.8-.7.8-.2 1.6-.4 2.3-.7.9-.3 1.8-.5 2.7-.8.4-.1.8-.3 1.2-.4.6-.2 1.1-.3 1.7-.5.3-.1.7-.2 1-.3l4.2-1.5c.3-.1.5-.2.7-.3 1.2-.5 2.3-.9 3.4-1.4.3-.1.7-.3 1-.4 1.3-.6 2.7-1.2 3.9-1.8.2-.1.3-.1.5-.2 1.2-.6 2.3-1.1 3.4-1.7.3-.2.7-.3 1-.5 1.3-.7 2.5-1.3 3.7-2.1.5-.3.9-.5 1.4-.8.1-.1.2-.1.3-.2.3-.2.7-.4 1-.6l.9-.6c.3-.2.7-.4 1-.7l.9-.6c.3-.2.6-.4 1-.7l.9-.6c.3-.2.6-.5.9-.7s.6-.4.8-.6c.3-.2.6-.5.9-.7s.5-.4.8-.6.6-.5.9-.7.5-.4.8-.6.6-.5.9-.7c.2-.2.5-.4.7-.6.3-.2.6-.5.8-.8.2-.2.4-.4.6-.5 0 0 0 0 .1-.1.6-.5 1.2-1.1 1.7-1.6.1-.1.3-.3.4-.4.4-.4.8-.8 1.2-1.3.2-.2.3-.3.5-.5.4-.5.9-.9 1.3-1.4l.3-.3c.5-.6 1-1.1 1.4-1.7 0 0 .1-.1.1-.1.1-.1.2-.3.3-.4.3-.3.5-.7.7-1 .2-.2.3-.4.5-.6.2-.3.5-.6.7-1 .1-.2.3-.4.4-.6.2-.3.4-.6.6-1 .1-.2.3-.4.4-.6.2-.4.4-.7.6-1.1.1-.1.2-.3.3-.4 0 0 0-.1.1-.1.2-.3.3-.6.5-.9.1-.2.2-.4.3-.6.2-.3.3-.7.5-1.1.1-.2.2-.3.2-.5.2-.5.5-1 .7-1.6 0-.1.1-.1.1-.2.2-.5.4-.9.5-1.4 0 0 0 0 0-.1.1-.2.1-.4.2-.6.1-.3.2-.6.3-.9.1-.2.1-.5.2-.7.1-.3.2-.6.3-.9.1-.2.1-.5.2-.7.1-.3.2-.6.2-.9.1-.2.1-.5.2-.7.1-.3.1-.6.2-.8 0-.1 0-.1 0-.2 0-.2.1-.4.1-.5.1-.3.1-.6.2-.9 0-.2.1-.5.1-.7 0-.3.1-.6.1-.9 0-.2.1-.5.1-.7 0-.3.1-.6.1-.8s0-.5 0-.7c0-.3 0-.6 0-.8s0-.4 0-.6 0-.4 0-.6v-12.2c-.1.9-.1 1.2-.1 1.6z" fill="#ffcf62"/><path d="m277.3 186.3v6.2l5.3-3.1z" fill="#b2d5e5"/><path d="m311.4 186.3-.1 19.8-5.3-3.1-54.1 31.2 5.3 3.1h-34.1v11.5h34.1v-6.1l48.8-28.3 5.4 3.1.1-19.7z" fill="#b2d5e5"/><path d="m251.9 234.2 54.1-31.2 5.3 3.1.1-19.8h-34.1l5.3 3.1-5.3 3.1-48.8 28.1-5.3-3.1-.1 19.8h34.1z" fill="#d1e6ef"/><g fill="none"><path d="m434.5 144.4c.1-.3.3-.5.4-.8-.1.2-.3.5-.4.8z"/><path d="m363 129.5c-.1.1-.2.2-.3.4.1-.2.2-.3.3-.4z"/><path d="m433.1 146.8c.2-.4.5-.7.7-1.1.2-.4.4-.7.6-1.1-.4.8-.8 1.5-1.3 2.2z"/><path d="m432.3 147.9c.2-.3.4-.5.6-.8-.2.3-.4.5-.6.8z"/><path d="m361.9 131.2c-.1.1-.1.3-.2.4 0-.2.1-.3.2-.4z"/><path d="m361.4 132c-.1.1-.1.3-.2.4.1-.1.1-.3.2-.4z"/><path d="m361 132.8c-.1.1-.1.3-.2.4.1-.1.2-.2.2-.4z"/><path d="m360.7 133.7c0 .1-.1.3-.1.4 0-.1 0-.3.1-.4z"/><path d="m430.2 150.2 1-1c.3-.3.6-.7.9-1-.6.7-1.2 1.4-1.9 2z"/><path d="m362.4 130.3c-.1.1-.2.3-.3.4.1-.1.2-.3.3-.4z"/><path d="m356.6 153.2c.2.1.3.2.5.3-.2-.1-.4-.2-.5-.3z"/><path d="m349.9 146.4c0 .1.1.1.1.2 0-.1-.1-.2-.1-.2z"/><path d="m429.1 151.3c.3-.2.5-.5.8-.7-.2.2-.5.4-.8.7z"/><path d="m349.2 145.2c.1.2.2.4.3.6-.1-.3-.2-.5-.3-.6z"/><path d="m353.8 150.9c.2.2.4.3.5.5-.1-.1-.3-.3-.5-.5z"/><path d="m427.7 152.5c.4-.3.8-.6 1.1-.9-.3.3-.7.6-1.1.9z"/><path d="m423.3 155.5c.5-.3 1-.6 1.4-.9-.5.3-1 .6-1.4.9z"/><path d="m426.4 153.4c.4-.3.8-.6 1.2-.9-.3.3-.7.6-1.2.9z"/><path d="m425.1 154.4c.3-.2.7-.4 1-.7-.4.2-.7.4-1 .7z"/><path d="m437.1 147.2c.1-.2.3-.4.4-.7-.1.3-.3.5-.4.7z"/><path d="m360.4 134.6c0 .1-.1.3-.1.4.1-.2.1-.3.1-.4z"/><path d="m436.2 148.5c.2-.2.3-.4.5-.7-.2.3-.3.5-.5.7z"/><path d="m420.7 130.4c-.1-.1-.2-.3-.3-.4.1.1.2.2.3.4z"/><path d="m438.5 144.6c.1-.2.2-.5.3-.7 0 .3-.2.5-.3.7z"/><path d="m440.2 135.9c0-.2-.1-.5-.1-.7 0 .3.1.5.1.7z"/><path d="m437.9 145.9c.1-.2.3-.5.4-.7-.2.3-.3.5-.4.7z"/><path d="m440.2 137.3c0-.2 0-.5 0-.7z"/><path d="m421.3 131.2c-.1-.1-.2-.3-.3-.4.1.1.2.3.3.4z"/><path d="m348.6 143.9c0 .1 0 .1 0 0 .1.2.2.4.3.6-.2-.2-.3-.4-.3-.6z"/><path d="m423 136.4c0-.2 0-.3-.1-.5.1.2.1.3.1.5z"/><path d="m421.7 132c-.1-.1-.2-.3-.2-.4.1.2.2.3.2.4z"/><path d="m360.2 136.3v.4c-.1-.1-.1-.3 0-.4z"/><path d="m360.3 135.4c0 .1 0 .3-.1.4 0-.1 0-.2.1-.4z"/><path d="m423.1 137.2c0-.1 0-.3 0-.4-.1.1 0 .3 0 .4z"/><path d="m422.5 133.8c-.1-.1-.1-.3-.2-.4.1.1.1.2.2.4z"/><path d="m422.1 132.9c-.1-.1-.1-.3-.2-.4.1.1.2.3.2.4z"/><path d="m422.7 134.6c0-.1-.1-.3-.1-.4 0 .1.1.3.1.4z"/><path d="m422.9 135.5c0-.2-.1-.3-.1-.5.1.2.1.3.1.5z"/><path d="m199.6 96.4c0-.1 0-.1 0-.2-.1 0-.1.1 0 .2z"/><path d="m199.8 97.2c0-.1-.1-.1-.1-.2.1.1.1.1.1.2z"/><path d="m199.7 96.8c0-.1 0-.1 0-.2-.1.1-.1.1 0 .2z"/><path d="m200.1 97.6c0-.1-.1-.1-.1-.2 0 .1 0 .1.1.2z"/><path d="m200.4 98c-.1-.1-.1-.1-.1-.2 0 .1 0 .1.1.2z"/><path d="m203.6 95.7c0-.1 0-.1 0-.2z"/><path d="m326 90.9c0-.1 0-.2-.1-.3 0 .1 0 .2.1.3z"/><path d="m440 134.6c0-.2-.1-.5-.1-.7 0 .2.1.4.1.7z"/><path d="m203.7 95.3s0-.1.1-.1c-.1 0-.1.1-.1.1z"/><path d="m200.8 98.3c-.1 0-.1-.1-.2-.1.1.1.1.1.2.1z"/><path d="m201.2 98.7c-.1 0-.1-.1-.1-.1s.1.1.1.1z"/><path d="m583.5 179.3c0 .1-.1.2-.1.2.1-.1.1-.1.1-.2z"/><path d="m583.6 178.9c0 .1 0 .1-.1.2.1-.1.1-.1.1-.2z"/><path d="m583.4 179.7c0 .1-.1.2-.1.2s0-.1.1-.2z"/><path d="m582.8 180.5c-.1.1-.1.1-.2.2.1-.1.1-.1.2-.2z"/><path d="m582 181.2c-.1.1-.3.2-.4.3.1-.1.3-.2.4-.3z"/><path d="m582.4 180.9c-.1.1-.2.1-.2.2.1-.1.2-.2.2-.2z"/><path d="m325.8 90.4c0-.1-.1-.2-.1-.3 0 .1.1.2.1.3z"/><path d="m583.1 180.1c-.1.1-.1.1-.2.2.1-.1.2-.1.2-.2z"/><path d="m324.3 88.3c-.1-.1-.3-.2-.4-.3.2.1.3.2.4.3z"/><path d="m382.9 109.5c-1.2.1-2.4.3-3.5.4 1.1-.2 2.3-.3 3.5-.4z"/><path d="m378.8 110c-1.2.2-2.4.4-3.6.6 1.2-.2 2.4-.4 3.6-.6z"/><path d="m326 91.2v.3c0-.2 0-.2 0-.3z"/><path d="m306.3 90.3v.2c-.1 0-.1-.1 0-.2z"/><path d="m375 110.7c-1.2.2-2.3.5-3.5.8 1.2-.3 2.3-.6 3.5-.8z"/><path d="m363.6 114.1c-.1 0 0 0 0 0z"/><path d="m325.6 89.8c-.1-.1-.1-.2-.2-.3.1.1.1.2.2.3z"/><path d="m306.5 89.8c0 .1-.1.2-.1.2 0-.1 0-.1.1-.2z"/><path d="m371.2 111.6c-1.1.3-2.2.6-3.3 1 1-.4 2.1-.7 3.3-1z"/><path d="m367.3 112.8c-1.1.4-2.1.7-3.1 1.1.9-.4 2-.8 3.1-1.1z"/><path d="m324.9 88.8c-.1-.1-.2-.2-.3-.3.1.1.2.2.3.3z"/><path d="m323.8 87.8c-.2-.2-.4-.3-.7-.4 0 0 .1.1.1.1.2.1.4.2.6.3z"/><path d="m348.2 143.2s0 .1.1.1c-.1 0-.1-.1-.1-.1z"/><path d="m325.3 89.3c-.1-.1-.2-.2-.2-.3 0 .1.1.2.2.3z"/><path d="m307.7 88.3c-.1.1-.1.1-.2.2.1-.1.1-.2.2-.2z"/><path d="m307.2 88.8c-.1.1-.1.1-.2.2.1-.1.1-.2.2-.2z"/><path d="m308.3 87.8c-.1 0-.1.1-.2.1.1 0 .1-.1.2-.1z"/><path d="m306.8 89.3c-.1.1-.1.2-.1.2 0-.1 0-.2.1-.2z"/><path d="m415.2 112.6c-1.1-.4-2.2-.7-3.4-1 1.1.3 2.2.6 3.4 1z"/><path d="m461.6 178.6c.2-.3.5-.7.9-1-.4.4-.7.7-.9 1 0 .1 0 .1 0 0z"/><path d="m433.4 122.9c-.2-.2-.5-.4-.7-.7 0 0 0 0 .1.1.2.2.4.4.6.6z"/><path d="m479.9 178.5c0 .1.1.1.1.2.1.2.2.3.3.5-.5-.9-1.3-1.7-2.5-2.4 1 .4 1.6 1 2.1 1.7z"/><path d="m430.7 120.6c-.3-.2-.6-.5-.9-.7 0 0 .1.1.1.1.3.2.6.4.8.6z"/><path d="m432.1 121.7c-.3-.2-.5-.4-.8-.7 0 0 .1.1.1.1.3.2.5.4.7.6z"/><path d="m204.1 94.8c0 .1-.1.1 0 0-.1.1 0 .1 0 0z"/><path d="m429.2 119.4c-.3-.2-.7-.5-1.1-.7.1.1.2.1.2.2.4.2.7.3.9.5z"/><path d="m461.1 179.7c0 .1 0 .2-.1.2s0-.1.1-.2z"/><path d="m434.6 124.1c-.2-.2-.4-.4-.6-.7.2.3.4.5.6.7z"/><path d="m460.9 180.3v.2c0-.1 0-.2 0-.2z"/><path d="m436.6 126.6c-.2-.2-.3-.5-.5-.7.2.3.4.5.5.7z"/><path d="m435.7 125.4c-.2-.2-.4-.4-.6-.7.2.2.4.5.6.7z"/><path d="m437.5 127.9c-.1-.2-.3-.5-.4-.7.1.3.2.5.4.7z"/><path d="m399.4 109.4c-1.2-.1-2.4-.2-3.6-.3 1.2.1 2.4.2 3.6.3z"/><path d="m403.5 109.9s.1 0 0 0c-1.2-.2-2.3-.3-3.5-.4 1.2.1 2.4.2 3.5.4z"/><path d="m480.6 179.6c0-.1-.1-.2-.1-.3 0 .2 0 .2.1.3z"/><path d="m407.7 110.6c-1.2-.2-2.4-.4-3.6-.6 1.2.2 2.4.4 3.6.6z"/><path d="m422.4 115.5c-1-.5-2-.9-3-1.3 1 .4 2.1.8 3 1.3z"/><path d="m411.5 111.5c-1.1-.3-2.3-.6-3.5-.8 1.2.3 2.4.5 3.5.8z"/><path d="m418.8 113.9c.1 0 .1 0 0 0-1-.4-2.1-.8-3.2-1.1 1.2.3 2.2.7 3.2 1.1z"/><path d="m425.9 117.3c-1-.6-2-1.1-3-1.6 1 .5 2 1 3 1.6z"/><path d="m462.6 177.5c.3-.3.7-.6 1.1-.8-.4.3-.7.6-1.1.8z"/><path d="m383.6 109.4c1.2-.1 2.4-.2 3.6-.3-1.3.1-2.5.2-3.6.3z"/><path d="m427.6 118.3c-.6-.4-1.1-.7-1.7-1.1.3.2.6.4.9.6s.6.4.8.5z"/><path d="m395.3 109.1c-1.2-.1-2.5-.1-3.8-.1 1.3 0 2.5.1 3.8.1z"/><path d="m391.5 109c-1.3 0-2.5 0-3.8.1 1.2 0 2.5-.1 3.8-.1z"/><path d="m461.2 179.3c0 .1 0 .1 0 0z"/><path d="m439.3 131.9c-.1-.2-.2-.5-.3-.7.2.2.2.4.3.7z"/><path d="m438.8 130.5c-.1-.2-.2-.5-.3-.7.1.3.2.5.3.7z"/><path d="m438.2 129.2c-.1-.2-.3-.5-.4-.7.2.3.3.5.4.7z"/><path d="m439.7 133.2c-.1-.2-.1-.5-.2-.7.1.3.2.5.2.7z"/></g><path d="m312.3 59.8 8 4.6-8-4.6 14.1-8.2 59.6 34.4-59.6-34.4z" fill="#84d0d3"/><path d="m306.7 89.5c-.1.1-.1.2-.2.3 0-.1.1-.2.2-.3z" fill="#84d0d3"/><path d="m307.5 88.4s0 .1 0 0c-.1.1-.2.2-.3.3.1-.1.2-.2.3-.3z" fill="#84d0d3"/><path d="m309 87.4c3.9-2.3 10.2-2.3 14.1 0 0 0 .1.1.1.1s-.1-.1-.1-.1c-2.9-1.7-7.2-2.1-10.8-1.3-1.2.3-2.4.7-3.3 1.3-.2.1-.5.3-.7.4.2-.2.4-.3.7-.4z" fill="#84d0d3"/><path d="m308.2 87.9c-.1 0-.1 0 0 0-.2.1-.3.2-.5.4.1-.2.3-.3.5-.4z" fill="#84d0d3"/><path d="m306.4 90c0 .1-.1.2-.1.3 0-.1 0-.2.1-.3z" fill="#84d0d3"/><path d="m307 89c-.1.1-.2.2-.2.3.1-.1.2-.2.2-.3z" fill="#84d0d3"/><path d="m325 93.9c.1 0 .1 0 0 0 .1-.1.2-.2.2-.3 0 .1-.1.2-.2.3z" fill="#84d0d3"/><path d="m324 94.9c.1-.1.3-.2.4-.3-.1.1-.3.2-.4.3z" fill="#84d0d3"/><path d="m325.9 92.3c0-.1.1-.2.1-.3-.1.1-.1.2-.1.3z" fill="#84d0d3"/><path d="m326 91.7c0-.1 0-.2 0-.3z" fill="#84d0d3"/><path d="m324.6 94.4c.1-.1.2-.2.3-.3-.1.1-.2.2-.3.3z" fill="#84d0d3"/><path d="m325.4 93.4c.1-.1.1-.2.2-.3-.1.1-.1.2-.2.3z" fill="#84d0d3"/><path d="m325.7 92.8c0-.1.1-.2.1-.3 0 .2-.1.2-.1.3z" fill="#84d0d3"/><path d="m324 88c-.1-.1-.2-.1-.2-.2 0 .1.1.1.2.2z" fill="#84d0d3"/><path d="m325.4 89.5c-.1-.1-.1-.2-.1-.2 0 .1.1.1.1.2z" fill="#84d0d3"/><path d="m325.7 90.1c0-.1-.1-.2-.1-.3 0 .1.1.2.1.3z" fill="#84d0d3"/><path d="m325.9 90.6c0-.1 0-.2-.1-.3 0 .1.1.2.1.3z" fill="#84d0d3"/><path d="m326 91.2c0-.1 0-.2 0-.3z" fill="#84d0d3"/><path d="m325 89c-.1-.1-.1-.2-.2-.2.1 0 .2.1.2.2z" fill="#84d0d3"/><path d="m324.6 88.5c-.1-.1-.1-.1-.2-.2s.1.1.2.2z" fill="#84d0d3"/><path d="m226.5 102.5 236.1 136.3z" fill="#84d0d3"/><path d="m226.5 102.5-10.5-6.1 104.5-60.8-104.5 60.8z" fill="#00babc"/><path d="m243.6 99.7 14-8.2 59.6 34.4-59.6-34.4z" fill="#84d0d3"/><path d="m353.1 124c-.2.2-.3.3-.5.5.2-.1.3-.3.5-.5z" fill="#84d0d3"/><path d="m351.1 126.3c-.1.2-.3.4-.4.5.1-.2.2-.3.4-.5z" fill="#84d0d3"/><path d="m354.1 123.1c-.1.1-.3.3-.4.4.2-.2.3-.3.4-.4z" fill="#84d0d3"/><path d="m358.3 119.9c-.2.1-.3.2-.5.3.3-.1.4-.2.5-.3z" fill="#84d0d3"/><path d="m355.5 121.9c-.2.1-.4.3-.5.4.2-.1.3-.3.5-.4z" fill="#84d0d3"/><path d="m356.4 121.2s0 .1 0 0c-.1.1-.1.1 0 0z" fill="#84d0d3"/><path d="m350.2 127.4c-.1.2-.2.4-.4.5.2-.1.3-.3.4-.5z" fill="#84d0d3"/><path d="m349.4 128.6c-.1.2-.2.4-.3.6.1-.2.2-.4.3-.6z" fill="#84d0d3"/><path d="m347.2 134.7c0 .2-.1.4-.1.6 0-.2 0-.4.1-.6z" fill="#84d0d3"/><path d="m347 135.9v.6c0-.2 0-.4 0-.6z" fill="#84d0d3"/><path d="m347.4 133.4c0 .2-.1.4-.1.6 0-.2.1-.4.1-.6z" fill="#84d0d3"/><path d="m348.8 129.8c-.1.2-.2.4-.3.6.1-.2.2-.4.3-.6z" fill="#84d0d3"/><path d="m347.8 132.2c-.1.2-.1.4-.2.6.1-.2.1-.4.2-.6z" fill="#84d0d3"/><path d="m348.2 131c-.1.2-.1.4-.2.6.1-.2.1-.4.2-.6z" fill="#84d0d3"/><path d="m352 125.2c-.2.2-.3.4-.4.5.1-.2.3-.4.4-.5z" fill="#84d0d3"/><path d="m364.1 113.9c-.2.1-.4.1-.5.2.2 0 .3-.1.5-.2z" fill="#84d0d3"/><path d="m371.5 111.5c-.1 0-.2.1-.4.1.2 0 .3-.1.4-.1z" fill="#84d0d3"/><path d="m379.4 109.9c-.2 0-.4.1-.6.1.2 0 .4-.1.6-.1z" fill="#84d0d3"/><path d="m428.4 118.9c-.1-.1-.2-.1-.2-.2-.2-.1-.4-.3-.6-.4.3.2.5.4.8.6z" fill="#84d0d3"/><path d="m430 120s-.1-.1-.1-.1c-.2-.1-.4-.3-.6-.5.2.2.4.4.7.6z" fill="#84d0d3"/><path d="m387.7 109.1c-.2 0-.4 0-.5 0z" fill="#84d0d3"/><path d="m431.4 121.1s-.1-.1-.1-.1c-.2-.2-.4-.3-.6-.5.3.2.5.4.7.6z" fill="#84d0d3"/><path d="m375.2 110.6c-.1 0-.2 0-.2.1.1 0 .1 0 .2-.1z" fill="#84d0d3"/><path d="m440.1 135.2c0-.2 0-.4-.1-.7 0 .3.1.5.1.7z" fill="#84d0d3"/><path d="m383.6 109.4c-.2 0-.4 0-.6.1.1-.1.3-.1.6-.1z" fill="#84d0d3"/><path d="m367.8 112.6c-.2.1-.4.1-.6.2.2-.1.4-.2.6-.2z" fill="#84d0d3"/><path d="m425.9 117.3c.3.2.6.4.9.6-.3-.2-.6-.4-.9-.6z" fill="#84d0d3"/><path d="m439.5 132.5c-.1-.2-.1-.4-.2-.7.1.3.2.5.2.7z" fill="#84d0d3"/><path d="m439.9 133.9c0-.2-.1-.4-.1-.7 0 .2 0 .5.1.7z" fill="#84d0d3"/><path d="m435.1 124.7c-.2-.2-.4-.4-.5-.6.2.2.4.4.5.6z" fill="#84d0d3"/><path d="m440.2 136.6c0-.2 0-.4 0-.7z" fill="#84d0d3"/><path d="m436.1 126c-.2-.2-.3-.4-.5-.6.2.2.4.4.5.6z" fill="#84d0d3"/><path d="m438.5 129.9c-.1-.2-.2-.4-.3-.6.1.1.2.4.3.6z" fill="#84d0d3"/><path d="m437 127.3c-.2-.2-.3-.4-.4-.6.2.1.3.4.4.6z" fill="#84d0d3"/><path d="m439.1 131.2c-.1-.2-.2-.4-.2-.6 0 .2.1.4.2.6z" fill="#84d0d3"/><path d="m437.8 128.6c-.1-.2-.2-.4-.4-.6.2.1.3.3.4.6z" fill="#84d0d3"/><path d="m434 123.5c-.2-.2-.4-.4-.6-.6.2.2.4.4.6.6z" fill="#84d0d3"/><path d="m440.2 138c0-.2 0-.5 0-.7z" fill="#84d0d3"/><path d="m432.8 122.3c-.2-.2-.4-.4-.6-.6.2.2.4.4.6.6z" fill="#84d0d3"/><path d="m440.1 139.3c0-.2.1-.5.1-.7 0 .3-.1.5-.1.7z" fill="#84d0d3"/><path d="m439.1 143.3c.1-.2.2-.5.3-.7-.1.3-.2.5-.3.7z" fill="#84d0d3"/><path d="m439.5 142c.1-.2.1-.5.2-.7 0 .2-.1.5-.2.7z" fill="#84d0d3"/><path d="m439.9 140.7c0-.2.1-.5.1-.7 0 .2-.1.4-.1.7z" fill="#84d0d3"/><path d="m404.2 110c-.2 0-.4-.1-.6-.1.1 0 .4.1.6.1z" fill="#84d0d3"/><path d="m433.7 128.6c-.1-.2-.3-.4-.4-.6.1.3.2.4.4.6z" fill="#84d0d3"/><path d="m422.9 115.7c-.1-.1-.3-.1-.4-.2.1.1.2.1.4.2z" fill="#84d0d3"/><path d="m432.9 127.5c-.1-.2-.3-.4-.5-.6.2.2.4.4.5.6z" fill="#84d0d3"/><path d="m432 126.3c-.2-.2-.4-.4-.5-.6.2.2.4.4.5.6z" fill="#84d0d3"/><path d="m431 125.2c-.2-.2-.4-.4-.6-.6.3.2.5.4.6.6z" fill="#84d0d3"/><path d="m408 110.7c-.1 0-.2-.1-.3-.1.1.1.2.1.3.1z" fill="#84d0d3"/><path d="m415.7 112.8c-.2-.1-.4-.1-.5-.2.1.1.3.1.5.2z" fill="#84d0d3"/><path d="m411.8 111.6c-.1 0-.2 0-.3-.1.1.1.2.1.3.1z" fill="#84d0d3"/><path d="m400 109.5c-.2 0-.4 0-.6-.1.2 0 .4.1.6.1z" fill="#84d0d3"/><path d="m419.4 114.2c-.2-.1-.4-.2-.6-.2.2 0 .4.1.6.2z" fill="#84d0d3"/><path d="m395.8 109.1c-.2 0-.3 0-.5 0z" fill="#84d0d3"/><path d="m427.5 121.9c-.3-.2-.6-.4-.8-.6.3.2.6.4.8.6z" fill="#84d0d3"/><path d="m428.8 123c-.2-.2-.5-.4-.7-.6.2.2.5.4.7.6z" fill="#84d0d3"/><path d="m347.1 139c0 .2 0 .4.1.6-.1-.2-.1-.4-.1-.6z" fill="#00babc"/><path d="m348 142.7c.1.2.1.3.2.5-.1-.2-.1-.3-.2-.5z" fill="#00babc"/><path d="m347.3 140.3c0 .2.1.4.1.6 0-.2 0-.4-.1-.6z" fill="#00babc"/><path d="m414.9 125c-.4-.2-.7-.5-1.1-.7.4.2.7.5 1.1.7z" fill="#00babc"/><path d="m368.2 125c-.1.1-.2.2-.3.2.1 0 .1-.1.2-.1 0 0 0-.1.1-.1z" fill="#00babc"/><path d="m365.3 127.2c-.1.1-.2.2-.4.3 0 0 0 0 .1-.1.1 0 .2-.1.3-.2z" fill="#00babc"/><path d="m347.6 141.5c.1.2.1.4.2.6-.1-.2-.1-.4-.2-.6z" fill="#00babc"/><path d="m367.1 125.7c-.1.1-.2.2-.4.3 0 0 .1-.1.1-.1.2-.1.2-.1.3-.2z" fill="#00babc"/><path d="m420.1 129.5c-.1-.1-.2-.3-.4-.4.2.2.3.3.4.4z" fill="#00babc"/><path d="m366.2 126.4c-.1.1-.3.2-.4.3 0 0 0 0 .1-.1 0 0 .1-.1.3-.2z" fill="#00babc"/><path d="m435 143.2c.1-.2.1-.4.2-.6 0 .2-.1.4-.2.6z" fill="#00babc"/><path d="m435.8 140.7v-.1z" fill="#00babc"/><path d="m363.7 128.7c-.1.1-.2.2-.3.4.1-.2.2-.3.3-.4z" fill="#00babc"/><path d="m364.4 127.9c-.1.1-.2.2-.3.4.1-.2.2-.3.3-.4z" fill="#00babc"/><path d="m417.8 127.2c-.2-.1-.3-.3-.5-.4 0 0 .1.1.1.1.2.1.3.2.4.3z" fill="#00babc"/><path d="m415.9 125.7c-.2-.1-.4-.3-.7-.4.1.1.2.2.4.2.1.1.2.1.3.2z" fill="#00babc"/><path d="m419.4 128.7c-.1-.1-.3-.3-.4-.4 0 0 0 0 .1.1s.2.2.3.3z" fill="#00babc"/><path d="m347 137.8v.6c0-.2 0-.4 0-.6z" fill="#00babc"/><path d="m418.7 128c-.1-.1-.3-.3-.4-.4 0 0 .1.1.1.1s.1.1.3.3z" fill="#00babc"/><path d="m416.9 126.4c-.2-.1-.4-.3-.6-.4.1 0 .1.1.2.1.2.1.3.2.4.3z" fill="#00babc"/><path d="m353.7 123.4c-.2.2-.5.4-.7.6.3-.2.5-.4.7-.6z" fill="#00babc"/><path d="m352.6 124.5c-.2.2-.4.4-.6.6.2-.2.4-.4.6-.6z" fill="#00babc"/><path d="m357.9 120.2c-.2.1-.4.2-.5.4.1-.2.3-.3.5-.4z" fill="#00babc"/><path d="m351.6 125.7c-.2.2-.4.4-.5.6.1-.2.3-.4.5-.6z" fill="#00babc"/><path d="m359.9 118.9c3.5-2 7.4-3.6 11.6-4.8-4.2 1.2-8.1 2.8-11.6 4.8-.5.3-1.1.6-1.6 1 .6-.3 1.1-.7 1.6-1z" fill="#00babc"/><path d="m356.3 121.3c-.3.2-.6.4-.8.6.3-.2.6-.4.8-.6z" fill="#00babc"/><path d="m355 122.3c-.2.1-.3.3-.5.4.1-.1.3-.2.5-.4z" fill="#00babc"/><path d="m347.1 135.3c0 .2-.1.4-.1.6 0-.2.1-.4.1-.6z" fill="#00babc"/><path d="m347.6 132.8c-.1.2-.1.4-.2.6.1-.2.1-.4.2-.6z" fill="#00babc"/><path d="m347.3 134c0 .2-.1.4-.1.6 0-.1.1-.4.1-.6z" fill="#00babc"/><path d="m348 131.6c-.1.2-.2.4-.2.6 0-.2.1-.4.2-.6z" fill="#00babc"/><path d="m350.7 126.8c-.2.2-.3.4-.5.6.1-.2.3-.4.5-.6z" fill="#00babc"/><path d="m347 136.5v.6c0-.2 0-.4 0-.6z" fill="#00babc"/><path d="m349.8 128c-.1.2-.3.4-.4.6.2-.2.3-.4.4-.6z" fill="#00babc"/><path d="m348.5 130.4c-.1.2-.2.4-.3.6.1-.2.2-.4.3-.6z" fill="#00babc"/><path d="m349.1 129.2c-.1.2-.2.4-.3.6.1-.2.2-.4.3-.6z" fill="#00babc"/><path d="m432.5 126.9c-.1-.2-.3-.4-.4-.5.1.1.2.3.4.5z" fill="#00babc"/><path d="m431.5 125.7c-.2-.2-.3-.4-.4-.5.1.2.3.3.4.5z" fill="#00babc"/><path d="m430.5 124.6c-.2-.2-.3-.3-.5-.5.2.1.3.3.5.5z" fill="#00babc"/><path d="m383.1 111.8c-.2 0-.3 0-.5.1.2-.1.4-.1.5-.1z" fill="#00babc"/><path d="m428.1 122.4c-.2-.2-.4-.3-.6-.5.2.2.4.3.6.5z" fill="#00babc"/><path d="m433.3 128.1c-.1-.2-.2-.4-.4-.6.1.2.3.4.4.6z" fill="#00babc"/><path d="m426.7 121.3c-.1-.1-.1-.1-.2-.2.1.1.1.2.2.2z" fill="#00babc"/><path d="m373.6 113.5c1.1-.3 2.3-.5 3.4-.8-1.1.3-2.2.5-3.4.8z" fill="#00babc"/><path d="m421 130.8c-.1-.2-.2-.3-.3-.4.1.1.2.3.3.4z" fill="#84d0d3"/><path d="m422.8 139.4c0-.2.1-.3.1-.5 0 .2 0 .4-.1.5z" fill="#84d0d3"/><path d="m422.8 135.1c0-.2-.1-.3-.1-.4.1.1.1.2.1.4z" fill="#84d0d3"/><path d="m360.1 136.7v.5c0-.2 0-.3 0-.5z" fill="#84d0d3"/><path d="m422.6 140.2c0-.1.1-.2.1-.3 0 .1 0 .2-.1.3z" fill="#84d0d3"/><path d="m423 136.8c0-.1 0-.3 0-.4z" fill="#84d0d3"/><path d="m423 135.9c0-.2 0-.3-.1-.4 0 .1.1.3.1.4z" fill="#84d0d3"/><path d="m405.7 128.4c.3 0 .5 0 .8.1-.2-.1-.5-.1-.8-.1z" fill="#84d0d3"/><path d="m423 137.7c0-.1 0-.3 0-.4.1.1 0 .2 0 .4z" fill="#84d0d3"/><path d="m423 138.6c0-.2 0-.3.1-.4-.1.1-.1.2-.1.4z" fill="#84d0d3"/><path d="m360.2 135.8c0 .2 0 .3-.1.5.1-.2.1-.3.1-.5z" fill="#84d0d3"/><path d="m361.7 131.5c-.1.2-.2.3-.3.5.1-.2.2-.3.3-.5z" fill="#84d0d3"/><path d="m361.2 132.4c-.1.2-.1.3-.2.5.1-.2.1-.4.2-.5z" fill="#84d0d3"/><path d="m363.4 129c0 .1 0 .1 0 0-.2.2-.3.3-.4.5.1-.1.3-.3.4-.5z" fill="#84d0d3"/><path d="m362.2 130.7c-.1.2-.2.3-.3.5.1-.2.2-.4.3-.5z" fill="#84d0d3"/><path d="m360.4 135c0 .2-.1.3-.1.5 0-.2 0-.4.1-.5z" fill="#84d0d3"/><path d="m360.6 134.1c0 .2-.1.3-.1.5 0-.2 0-.4.1-.5z" fill="#84d0d3"/><path d="m360.9 133.2c-.1.2-.1.3-.2.5 0-.2.1-.3.2-.5z" fill="#84d0d3"/><path d="m362.8 129.9c-.1 0-.1 0 0 0-.1.2-.2.3-.4.5.1-.2.2-.4.4-.5z" fill="#84d0d3"/><path d="m422.6 134.2c0-.2-.1-.3-.1-.4 0 .1.1.2.1.4z" fill="#84d0d3"/><path d="m421.5 131.6c-.1-.2-.2-.3-.2-.4.1.1.1.3.2.4z" fill="#84d0d3"/><path d="m422 132.5c-.1 0-.1 0 0 0-.1-.2-.1-.3-.2-.4 0 .1.1.2.2.4z" fill="#84d0d3"/><path d="m422.3 133.3c-.1-.2-.1-.3-.2-.4.1.1.2.3.2.4z" fill="#84d0d3"/><path d="m364.1 128.2c0 .1 0 .1 0 0-.2.2-.3.3-.5.5.2-.1.4-.3.5-.5z" fill="#84d0d3"/><path d="m416.5 126.1c-.1 0-.1-.1-.2-.1-.1-.1-.3-.2-.4-.3.3.1.4.3.6.4z" fill="#84d0d3"/><path d="m417.5 126.9s-.1-.1-.1-.1c-.1-.1-.3-.2-.4-.3.1.1.3.2.5.4z" fill="#84d0d3"/><path d="m365 127.5c-.1 0-.1 0 0 0-.2.2-.4.3-.5.5.1-.2.3-.4.5-.5z" fill="#84d0d3"/><path d="m368 125.1c-.1 0-.1.1-.2.1-.2.2-.5.3-.7.5.3-.2.6-.4.9-.6z" fill="#84d0d3"/><path d="m418.3 127.6c-.2-.2-.3-.3-.5-.4.2.1.3.3.5.4z" fill="#84d0d3"/><path d="m366.9 125.9s-.1.1-.1.1c-.2.1-.4.3-.6.4.2-.2.4-.3.7-.5z" fill="#84d0d3"/><path d="m365.8 126.7c-.2.2-.4.3-.6.5.2-.2.4-.3.6-.5z" fill="#84d0d3"/><path d="m420.4 130c-.1-.2-.2-.3-.3-.4.1.1.2.2.3.4z" fill="#84d0d3"/><path d="m419.1 128.4s-.1-.1 0 0c-.2-.2-.3-.3-.4-.4.1.1.2.2.4.4z" fill="#84d0d3"/><path d="m419.8 129.2c0-.1 0-.1 0 0-.1-.2-.3-.3-.4-.4.2.1.3.2.4.4z" fill="#84d0d3"/><path d="m368.2 125c.4-.2.7-.5 1.1-.7 12.3-7.1 32.2-7.1 44.5 0 .7.4 1.3.8 1.9 1.2-.1-.1-.2-.2-.4-.2-.1-.1-.3-.2-.4-.3-.4-.2-.7-.5-1.1-.7-12.3-7.1-32.3-7.1-44.5 0-.4.2-.8.5-1.1.7z" fill="#84d0d3"/><path d="m405.7 128.4h-9.2z" fill="#00babc"/><path d="m407.1 128.7c-.2-.1-.4-.2-.6-.2s-.5-.1-.8-.1c.6 0 1.1.1 1.4.3z" fill="#00babc"/><path d="m203.8 95.2s0 .1-.1.1c0 .1-.1.2-.1.2v.2c-.1.6.2 1.2 1 1.7l256.4 148c1.4.8 3.6.8 5 0l112.7-65.5c1.4-.8 1.4-2.1 0-2.9l-256.4-148c-1.4-.8-3.6-.8-5 0l-112.8 65.5c-.2.1-.3.2-.4.3 0 0-.1.1-.1.1-.1.1-.2.2-.2.3zm116.7-62.6 252 145.5-109.8 63.8-252-145.5z" fill="#00babc"/><path d="m435.4 149.5c.1-.1.2-.3.4-.4-.1.1-.3.3-.4.4z" fill="#84d0d3"/><path d="m435.6 141.4c.1-.2.1-.4.2-.7 0 .3-.1.5-.2.7z" fill="#84d0d3"/><path d="m377 146.2c.8.5 2.1.5 2.8 0l27.4-15.9c.3-.2.5-.4.5-.6s0-.5-.1-.7c-.1-.1-.3-.3-.4-.4-.4-.2-.9-.3-1.4-.3h-9.3c-.3 0-.5 0-.8.1-.5.1-.9.3-1.1.6-.1.1-.2.3-.2.4 0 .3.2.6.6.8s.9.3 1.4.3h4.4l-24 13.9c-.3.2-.5.4-.5.6v.2c.1.5.3.8.7 1z" fill="#fff"/><path d="m539.6 174.7-59.5-34.4-14.1 8.2 14.1-8.2z" fill="#84d0d3"/><path d="m422.2 141.6c0-.1.1-.2.1-.2-.1 0-.1.1-.1.2z" fill="#00babc"/><path d="m422.7 139.9c0-.1.1-.3.1-.4 0 .1 0 .2-.1.4z" fill="#00babc"/><path d="m422.9 139c0-.1 0-.3.1-.4 0 .1-.1.2-.1.4z" fill="#00babc"/><path d="m423 138.1c0-.1 0-.3 0-.4z" fill="#00babc"/><path d="m424.7 154.6c.1-.1.3-.2.4-.3-.2.1-.3.2-.4.3z" fill="#84d0d3"/><path d="m429.9 150.5c.1-.1.1-.1.2-.2 0 .1-.1.2-.2.2z" fill="#84d0d3"/><path d="m430.2 150.3c0-.1 0-.1 0 0z" fill="#84d0d3"/><path d="m428.8 151.5c.1-.1.2-.2.3-.3-.1.2-.2.2-.3.3z" fill="#84d0d3"/><path d="m426.1 153.7c.1-.1.3-.2.4-.3-.2.1-.3.2-.4.3z" fill="#84d0d3"/><path d="m432 148.2c.1-.1.2-.2.2-.3 0 .1-.1.2-.2.3z" fill="#84d0d3"/><path d="m434.1 151c.2-.2.4-.4.6-.6-.2.1-.4.4-.6.6z" fill="#84d0d3"/><path d="m435.2 149.8c.1-.1.1-.2.2-.2-.1 0-.1.1-.2.2z" fill="#84d0d3"/><path d="m432.9 147.1c.1-.1.1-.2.2-.3-.1.1-.2.2-.2.3z" fill="#84d0d3"/><path d="m434.4 144.7c.1-.1.1-.2.2-.3-.1.1-.2.2-.2.3z" fill="#84d0d3"/><path d="m353.2 150.3c.2.2.4.4.6.6-.2-.2-.4-.4-.6-.6z" fill="#84d0d3"/><path d="m349.5 145.7c.1.2.3.4.4.6-.1-.2-.3-.4-.4-.6z" fill="#84d0d3"/><path d="m383.2 162.6c14.1 1.6 29.2-.8 40.1-7.1-10.9 6.3-26 8.7-40.1 7.1z" fill="#84d0d3"/><path d="m348.3 143.3c.1.2.2.4.3.6-.1-.2-.3-.4-.3-.6z" fill="#84d0d3"/><path d="m348.8 144.5c.1.2.2.4.4.6-.1-.2-.3-.4-.4-.6z" fill="#84d0d3"/><path d="m354.4 151.4c.1.1.2.2.3.2-.1 0-.2-.1-.3-.2z" fill="#84d0d3"/><path d="m361.8 156.4c1.9 1 4 1.9 6.2 2.7-2.2-.8-4.3-1.7-6.2-2.7z" fill="#84d0d3"/><path d="m357 153.5c.2.2.5.3.7.5-.2-.1-.4-.3-.7-.5z" fill="#84d0d3"/><path d="m347.2 139.6c0 .2.1.4.1.6 0-.1-.1-.4-.1-.6z" fill="#84d0d3"/><path d="m347.8 142.1c.1.2.2.4.2.6 0-.2-.1-.4-.2-.6z" fill="#84d0d3"/><path d="m347.4 140.9c.1.2.1.4.2.6 0-.2-.1-.4-.2-.6z" fill="#84d0d3"/><path d="m347 138.4c0 .2.1.4.1.6 0-.2-.1-.4-.1-.6z" fill="#84d0d3"/><path d="m434.9 143.6c0-.1.1-.2.1-.3 0 .1-.1.2-.1.3z" fill="#84d0d3"/><path d="m347 137.1v.6c0-.1 0-.3 0-.6z" fill="#84d0d3"/><path d="m376.5 161.5c-2.4-.5-4.7-1.1-6.9-1.8 2.3.7 4.6 1.3 6.9 1.8z" fill="#84d0d3"/><path d="m383.2 162.6c-1.3-.1-2.6-.3-3.9-.5 1.3.1 2.6.3 3.9.5z" fill="#84d0d3"/><path d="m436.7 147.8c.1-.2.3-.4.4-.6-.1.2-.3.4-.4.6z" fill="#00babc"/><path d="m438.2 145.3c.1-.2.2-.4.3-.6-.1.2-.1.4-.3.6z" fill="#00babc"/><path d="m435.8 149.1c.2-.2.3-.4.4-.6-.1.2-.3.4-.4.6z" fill="#00babc"/><path d="m437.5 146.6c.1-.2.2-.4.3-.6 0 .2-.1.4-.3.6z" fill="#00babc"/><path d="m439.4 142.6c.1-.2.1-.4.2-.7-.1.3-.2.5-.2.7z" fill="#00babc"/><path d="m438.9 144c.1-.2.2-.4.2-.6-.1.1-.2.3-.2.6z" fill="#00babc"/><path d="m440 140c0-.2.1-.4.1-.7 0 .2-.1.4-.1.7z" fill="#00babc"/><path d="m440.2 138.6c0-.2 0-.4 0-.7z" fill="#00babc"/><path d="m439.7 141.3c.1-.2.1-.4.1-.7 0 .3 0 .5-.1.7z" fill="#00babc"/><path d="m434.7 150.3c.2-.2.3-.4.5-.6-.2.3-.3.4-.5.6z" fill="#00babc"/><path d="m433.6 151.5c.2-.2.3-.4.5-.5-.2.2-.3.3-.5.5z" fill="#00babc"/><path d="m477.9 176.7c.9.5 1.6 1.1 2.1 1.7-.6-.6-1.2-1.2-2.1-1.7-3.9-2.3-10.2-2.3-14.1 0 3.8-2.2 10.2-2.2 14.1 0z" fill="#84d0d3"/><path d="m480.1 178.6c0 .1 0 .1 0 0z" fill="#84d0d3"/><path d="m461.6 178.6c.5-.7 1.2-1.3 2.2-1.9-.4.3-.8.5-1.1.8 0 0-.1.1-.1.1-.5.4-.8.7-1 1z" fill="#84d0d3"/><path d="m461.6 178.7c-.1.2-.2.4-.3.5.1-.2.2-.4.3-.5z" fill="#84d0d3"/><path d="m460.9 180.5v.3c0-.1 0-.2 0-.3z" fill="#84d0d3"/><path d="m461 179.9c0 .1-.1.2-.1.3 0-.1.1-.2.1-.3z" fill="#84d0d3"/><path d="m461.2 179.4c-.1.1-.1.2-.1.4 0-.2 0-.3.1-.4z" fill="#84d0d3"/><path d="m480.5 179.4c0-.1-.1-.1-.1-.2s0 .1.1.2z" fill="#84d0d3"/><path d="m470.9 214.6-59.6-34.3-14.1 8.2 14.1-8.2z" fill="#84d0d3"/><path d="m458.1 247.1-128.2-74 128.2 74c1.5.8 3.4 1.3 5.3 1.3-1.9-.1-3.8-.5-5.3-1.3z" fill="#00babc"/><path d="m199.6 96.4c0 .1 0 .1.1.2v.2c0 .1.1.1.1.2s0 .1.1.2c0 .1.1.1.1.2s.1.1.1.2.1.1.2.2c0 .1.1.1.1.2.1.1.2.1.2.2.1 0 .1.1.2.1.1.1.2.2.3.2 0 0 .1.1.1.1.2.1.3.2.5.3l128.2 74 128.2 74c1.5.8 3.4 1.3 5.3 1.3s3.8-.4 5.3-1.3l109.9-63.9 1-.6 1.8-1.1s.1 0 .1-.1c.1-.1.3-.2.4-.3.1 0 .1-.1.2-.2s.2-.1.2-.2c.1-.1.1-.1.2-.2s.1-.1.2-.2.1-.1.1-.2c.1-.1.1-.1.2-.2 0-.1.1-.1.1-.2s.1-.2.1-.2c0-.1.1-.1.1-.2s.1-.2.1-.2c0-.1 0-.1 0-.2s0-.1.1-.2c0-.1 0-.1 0-.2.1-1.2-.6-2.4-2.2-3.3l-256.4-148c-2.9-1.7-7.7-1.7-10.6 0l-112.6 65.9c-1.5.8-2.2 2-2.2 3.1v.2s0 .1.1.2zm4.5-1.6c.1-.1.3-.2.4-.3l112.8-65.5c1.4-.8 3.6-.8 5 0l256.4 148c1.4.8 1.4 2.1 0 2.9l-112.7 65.5c-1.4.8-3.6.8-5 0l-256.4-148c-.8-.5-1.1-1.1-1-1.7 0-.1 0-.1 0-.2s.1-.2.1-.2 0-.1.1-.1c0-.1.1-.2.3-.4-.1.1 0 .1 0 0z" fill="#00babc"/><path d="m243.6 99.7 59.5 34.4 14.1-8.2-59.6-34.4z" fill="#00babc"/><path d="m462.7 241.9 109.8-63.9-252-145.5-109.8 63.9zm-142.2-206.3 246.7 142.4-104.6 60.8-236.1-136.3-10.5-6.1z" fill="#fff"/><path d="m312.3 59.8 8 4.6 51.5 29.7 14.2-8.1-59.6-34.4z" fill="#00babc"/><path d="m423 136.4c0-.1 0-.3-.1-.4 0-.1 0-.3-.1-.4 0-.1-.1-.3-.1-.4s-.1-.3-.1-.4-.1-.3-.1-.4-.1-.3-.1-.4-.1-.3-.2-.4-.1-.3-.2-.4-.1-.3-.2-.4-.1-.3-.2-.4-.2-.3-.2-.4c-.1-.1-.2-.3-.2-.4-.1-.1-.2-.3-.3-.4s-.2-.3-.3-.4-.2-.3-.3-.4-.2-.3-.3-.4-.2-.3-.3-.4-.2-.3-.4-.4c-.1-.1-.2-.2-.3-.4-.1-.1-.3-.3-.4-.4s-.2-.2-.4-.3-.3-.3-.5-.4c-.1-.1-.2-.2-.4-.3-.2-.2-.4-.3-.5-.4s-.3-.2-.4-.3c-.2-.1-.4-.3-.6-.4-.1-.1-.2-.1-.3-.2-.6-.4-1.2-.8-1.9-1.2-12.3-7.1-32.3-7.1-44.5 0-.4.2-.8.4-1.1.7-.1 0-.1.1-.1.1-.3.2-.6.4-.9.6-.1.1-.2.1-.2.2-.2.2-.5.4-.7.5-.1.1-.2.2-.3.3-.2.2-.4.3-.6.5-.1.1-.2.2-.3.3-.2.2-.4.3-.5.5-.1.1-.2.2-.3.3-.2.2-.3.3-.5.5-.1.1-.2.2-.3.3-.1.2-.3.3-.4.5-.1.1-.2.2-.3.3-.1.2-.2.3-.4.5-.1.1-.2.2-.2.4-.1.2-.2.3-.3.5-.1.1-.1.2-.2.4s-.2.3-.3.5c-.1.1-.1.3-.2.4-.1.2-.1.3-.2.5-.1.1-.1.3-.2.4-.1.2-.1.3-.2.5 0 .1-.1.3-.1.4 0 .2-.1.3-.1.5 0 .1-.1.3-.1.4 0 .2-.1.3-.1.5 0 .1 0 .3-.1.4 0 .2 0 .3-.1.5v.4.5c0 4.7 3.1 9.3 9.3 12.9 12.3 7.1 32.3 7.1 44.5 0 4.2-2.4 6.9-5.4 8.2-8.5 0-.1.1-.2.1-.2.1-.4.3-.8.4-1.1 0-.1.1-.2.1-.3s.1-.3.1-.4c0-.2.1-.3.1-.5 0-.1 0-.3.1-.4 0-.1 0-.3.1-.4 0-.1 0-.3 0-.4s0-.3 0-.4c0 0 0 0 0-.1s0-.3 0-.4c.2-1.3.2-1.5.2-1.6zm-46.6 8.8c.1-.2.3-.4.5-.6l24-13.9h-4.4c-.6 0-1.1-.1-1.4-.3-.4-.2-.6-.5-.6-.8 0-.2.1-.3.2-.4.2-.3.6-.5 1.1-.6.2-.1.5-.1.8-.1h9.3c.3 0 .5 0 .8.1s.5.1.6.2c.2.1.3.2.4.4.2.2.2.4.1.7s-.3.4-.5.6l-27.4 15.9c-.8.5-2 .4-2.8 0-.4-.2-.6-.5-.6-.8-.1-.3-.1-.3-.1-.4z" fill="#00babc"/><path d="m216 96.4 10.5 6.1 236.1 136.3 104.6-60.8-246.7-142.4zm240.8 126.4-59.5-34.4 14.1-8.2 59.5 34.4zm-130.8-131.3v.3.3c0 .1 0 .2-.1.3 0 .1 0 .2-.1.3 0 .1-.1.2-.1.3s-.1.2-.1.3-.1.2-.2.3c0 .1-.1.2-.1.2-.1.1-.1.2-.2.3s-.1.2-.2.2c-.1.1-.2.2-.3.3s-.1.1-.2.2-.2.2-.4.3c0 0 0 0-.1 0-.3.2-.5.4-.8.6-.4.2-.8.4-1.2.6-.9.4-1.9.7-3 .9-3.4.6-7.2.1-9.9-1.5-2.4-1.4-3.3-3.2-2.8-5 0-.1 0-.1 0-.2s.1-.2.1-.3.1-.2.1-.2c.1-.1.1-.2.2-.3 0-.1.1-.2.1-.2.1-.1.2-.2.2-.3.1-.1.1-.2.2-.2.1-.1.2-.2.3-.3s.1-.1.2-.2.3-.2.4-.3c.1 0 .1-.1.2-.1.2-.2.4-.3.7-.4 1-.6 2.1-1 3.3-1.3 3.6-.8 7.9-.4 10.8 1.3.2.1.5.3.7.4.1 0 .1.1.2.1.1.1.3.2.4.3s.1.1.2.2.2.2.3.3.1.1.2.2.2.2.2.3c.1.1.1.2.1.2.1.1.1.2.2.3 0 .1.1.2.1.2 0 .1.1.2.1.3s0 .2.1.3c0 .1.1.2.1.3v.3c.1-.1.1-.1.1.1zm61.7 17.6c1.3-.1 2.5-.1 3.8-.1h.1c1.3 0 2.5 0 3.8.1h.5c1.2.1 2.4.2 3.6.3.2 0 .4 0 .6.1 1.2.1 2.4.3 3.5.4.2 0 .4.1.6.1 1.2.2 2.4.4 3.6.6.1 0 .2 0 .3.1 1.2.2 2.3.5 3.5.8.1 0 .2 0 .3.1 1.1.3 2.3.6 3.4 1 .2.1.4.1.5.2 1.1.4 2.1.7 3.2 1.1.2.1.4.1.6.2 1 .4 2 .9 3 1.3.1.1.3.1.4.2 1 .5 2 1 3 1.6.6.3 1.2.7 1.7 1.1.2.1.4.3.6.4.4.2.7.5 1.1.7.2.1.4.3.6.5.3.2.6.4.9.7.2.2.4.3.6.5.3.2.6.4.8.7.2.2.4.3.6.5s.5.4.7.7c.2.2.4.4.5.6.2.2.4.4.6.7.2.2.3.4.5.6s.4.4.6.7c.2.2.3.4.4.6.2.2.3.5.5.7.1.2.3.4.4.6s.3.5.4.7.2.4.3.6.3.5.4.7.2.4.3.6.2.5.3.7.2.4.2.6c.1.2.2.5.3.7s.1.4.2.6.1.5.2.7.1.4.1.6.1.5.1.7.1.4.1.7c0 .2.1.5.1.7v.7.7.7.7c0 .2-.1.5-.1.7s0 .4-.1.7c0 .2-.1.5-.1.7s-.1.4-.1.7c-.1.2-.1.5-.2.7s-.1.4-.2.7c-.1.2-.2.5-.3.7s-.2.4-.2.6c-.1.2-.2.5-.3.7s-.2.4-.3.6-.2.4-.4.7c-.1.2-.2.4-.3.6s-.3.4-.4.7c-.1.2-.3.4-.4.6-.2.2-.3.4-.5.7-.1.2-.3.4-.4.6-.1.1-.2.3-.4.4-.1.1-.1.2-.2.2-.2.2-.3.4-.5.6s-.4.4-.6.6-.3.4-.5.5c-2 2-4.5 3.9-7.5 5.6-18.9 11-49.7 11-68.8 0s-19.2-28.8-.2-39.8c2-1.2 4.2-2.2 6.4-3.1h.1c.2-.1.4-.1.5-.2 1-.4 2.1-.8 3.1-1.1.2-.1.4-.1.6-.2 1.1-.4 2.2-.7 3.3-1 .1 0 .2-.1.4-.1 1.1-.3 2.3-.6 3.5-.8.1 0 .2 0 .2-.1 1.2-.2 2.4-.4 3.6-.6.2 0 .4-.1.6-.1 1.2-.2 2.3-.3 3.5-.4.2 0 .4 0 .6-.1 1.2-.1 2.4-.2 3.6-.3.2-.5.4-.5.6-.5zm-1.7-23.1-14.1 8.2-51.6-29.8-8-4.6 14.1-8.2zm91.9 98.9c-3.9 2.3-10.2 2.3-14.1 0-2-1.1-2.9-2.6-2.9-4.1 0-.1 0-.2 0-.3s0-.2 0-.2c0-.1 0-.2.1-.3 0-.1 0-.2.1-.2 0-.1.1-.2.1-.4 0-.1 0-.1.1-.2.1-.2.2-.3.3-.5.2-.4.6-.7.9-1 0 0 .1-.1.1-.1.3-.3.7-.6 1.1-.8 3.9-2.3 10.2-2.3 14.1 0 1.2.7 2.1 1.5 2.5 2.4 0 .1.1.1.1.2s.1.2.1.3c.8 1.8-.1 3.8-2.6 5.2zm47.6-2-59.5-34.4 14.1-8.2 59.5 34.4zm-208.3-57-14.1 8.2-59.5-34.4 14.1-8.2z" fill="#84d0d3"/><path d="m326 90.9c0-.1 0-.2-.1-.3 0-.1 0-.2-.1-.3 0-.1-.1-.2-.1-.3s-.1-.2-.1-.3c-.1-.1-.1-.2-.2-.3 0-.1-.1-.2-.1-.2-.1-.1-.2-.2-.2-.3-.1-.1-.1-.2-.2-.2-.1-.1-.2-.2-.3-.3s-.1-.1-.2-.2-.2-.2-.4-.3c-.1-.1-.1-.1-.2-.2-.2-.1-.4-.2-.6-.4 0 0-.1-.1-.1-.1-3.9-2.3-10.2-2.3-14.1 0-.2.1-.5.3-.7.4 0 0-.1.1-.1.1-.2.1-.3.2-.5.4-.1.1-.1.1-.2.2s-.2.2-.3.3-.1.1-.2.2-.2.2-.2.3c-.1.1-.1.1-.1.2-.1.1-.1.2-.2.3 0 .1-.1.2-.1.2 0 .1-.1.2-.1.3v.2c-.5 1.8.4 3.6 2.8 5 2.7 1.5 6.5 2 9.9 1.5 1.1-.2 2.1-.5 3-.9.4-.2.8-.4 1.2-.6.3-.2.6-.4.8-.6h.1c.1-.1.3-.2.4-.3.1-.1.1-.1.2-.2.1-.1.2-.2.3-.3.1-.1.1-.2.2-.2.1-.1.2-.2.2-.3.1-.1.1-.2.1-.2.1-.1.1-.2.2-.3 0-.1.1-.2.1-.3 0-.1.1-.2.1-.3 0-.1 0-.2.1-.3 0-.1.1-.2.1-.3 0-.1 0-.2 0-.3 0-.1 0-.2 0-.3 0-.1 0-.2 0-.3-.1.3-.1.2-.1.1z" fill="#00babc"/><path d="m434.7 150.3c.2-.2.3-.4.5-.6.1-.1.1-.2.2-.2.1-.1.2-.3.4-.4.2-.2.3-.4.4-.6.2-.2.3-.4.5-.7.1-.2.3-.4.4-.6s.3-.4.4-.7c.1-.2.2-.4.3-.6s.3-.5.4-.7.2-.4.3-.6.2-.5.3-.7.2-.4.2-.6c.1-.2.2-.5.3-.7s.1-.4.2-.6.1-.5.2-.7.1-.4.1-.6.1-.5.1-.7.1-.4.1-.6.1-.5.1-.7 0-.4 0-.7c0-.2 0-.5 0-.7s0-.5 0-.7 0-.4 0-.7c0-.2-.1-.5-.1-.7s0-.4-.1-.7c0-.2-.1-.5-.1-.7s-.1-.4-.1-.7c-.1-.2-.1-.5-.2-.7s-.1-.4-.2-.7c-.1-.2-.2-.5-.3-.7s-.2-.4-.2-.6c-.1-.2-.2-.5-.3-.7s-.2-.4-.3-.6-.2-.4-.4-.7c-.1-.2-.2-.4-.4-.6-.1-.2-.3-.4-.4-.6s-.3-.4-.4-.6c-.2-.2-.3-.4-.5-.6s-.3-.4-.5-.6-.4-.4-.5-.6c-.2-.2-.3-.4-.5-.6s-.4-.4-.6-.6-.4-.4-.6-.6-.4-.4-.7-.6c-.2-.2-.4-.4-.6-.6s-.5-.4-.7-.6-.5-.4-.7-.6-.5-.4-.8-.6c-.2-.2-.5-.4-.7-.6-.3-.2-.6-.4-.8-.6-.3-.2-.5-.4-.8-.5-.3-.2-.5-.3-.8-.5s-.6-.4-.9-.6c-1-.6-2-1.1-3-1.6-.1-.1-.3-.1-.4-.2-1-.5-2-.9-3-1.3-.2-.1-.4-.2-.6-.2-1-.4-2.1-.8-3.1-1.1-.2-.1-.4-.1-.6-.2-1.1-.4-2.2-.7-3.4-1-.1 0-.2 0-.3-.1-1.1-.3-2.3-.6-3.4-.8-.1 0-.2-.1-.3-.1-1.2-.2-2.4-.4-3.5-.6-.2 0-.4-.1-.6-.1-1.2-.2-2.3-.3-3.5-.4-.2 0-.4 0-.6-.1-1.2-.1-2.4-.2-3.6-.3-.2 0-.3 0-.5 0-1.2-.1-2.5-.1-3.8-.1h-.1c-1.3 0-2.5 0-3.8.1-.2 0-.4 0-.5 0-1.2.1-2.4.2-3.6.3-.2 0-.4 0-.7.1-1.2.1-2.4.3-3.5.4-.2 0-.4.1-.6.1-1.2.2-2.4.4-3.6.6-.1 0-.2 0-.3.1-1.2.2-2.3.5-3.5.8-.1 0-.2.1-.4.1-1.1.3-2.2.6-3.3 1-.2.1-.4.1-.6.2-1.1.4-2.1.7-3.1 1.1-.2.1-.4.1-.5.2 0 0 0 0-.1 0-2.3.9-4.4 2-6.4 3.1-18.9 11-18.8 28.8.2 39.8 19.1 11 49.9 11 68.8 0 3-1.7 5.5-3.6 7.5-5.6.2-.2.3-.4.5-.5.2-.1.4-.4.6-.6zm-11.6-31.4c1.2.7 2.4 1.5 3.4 2.2.1.1.1.1.2.2.3.2.6.4.8.6.2.1.4.3.5.5.2.2.5.4.7.6.4.4.8.7 1.2 1.1.2.2.3.3.5.5s.4.4.6.6c.2.2.3.3.4.5.2.2.4.4.5.6s.3.4.4.5c.2.2.3.4.5.6.1.2.2.4.4.6.1.2.3.4.4.6 2.3 3.9 3.1 8 2.2 12v.1c-.1.2-.1.4-.2.7-.1.4-.2.8-.4 1.2-.1.2-.1.4-.2.6 0 .1-.1.2-.1.3-.1.3-.2.5-.4.8-.1.1-.1.2-.2.3-.2.4-.4.7-.6 1.1-.2.4-.4.7-.7 1.1-.1.1-.1.2-.2.3-.2.3-.4.5-.6.8-.1.1-.2.2-.2.3-.3.3-.6.7-.9 1-.3.3-.6.7-1 1 0 0 0 0-.1.1-.1.1-.1.1-.2.2-.3.2-.5.5-.8.7-.1.1-.2.2-.3.3-.4.3-.7.6-1.1.9-.4.3-.8.6-1.2.9-.1.1-.3.2-.4.3-.3.2-.6.4-1 .7-.1.1-.3.2-.4.3-.5.3-.9.6-1.4.9-10.8 6.3-26 8.7-40.1 7.1-1.3-.1-2.6-.3-3.9-.5-.9-.2-1.9-.3-2.8-.5-2.4-.5-4.7-1.1-6.9-1.8-.6-.2-1.1-.4-1.7-.6-2.2-.8-4.2-1.7-6.2-2.7-.6-.3-1.1-.6-1.7-.9-.8-.5-1.6-1-2.3-1.5-.2-.2-.5-.3-.7-.5-.2-.1-.3-.2-.5-.3-.7-.5-1.3-1-1.9-1.5-.1-.1-.2-.2-.3-.2-.2-.2-.4-.3-.5-.5-.2-.2-.4-.4-.6-.6-1.3-1.2-2.3-2.5-3.2-3.8 0-.1-.1-.1-.1-.2-.1-.2-.3-.4-.4-.6s-.2-.4-.3-.6-.2-.4-.4-.6c-.1-.2-.2-.4-.3-.6s-.2-.4-.3-.6c0 0 0-.1-.1-.1-.1-.1-.1-.3-.2-.4-.1-.2-.2-.4-.2-.6-.1-.2-.1-.4-.2-.6s-.1-.4-.2-.6c0 0 0 0 0-.1 0-.2-.1-.4-.1-.6s-.1-.4-.1-.6-.1-.4-.1-.6-.1-.4-.1-.6 0-.4 0-.6 0-.4 0-.6 0-.4 0-.6 0-.4 0-.6 0-.4.1-.6c0-.2 0-.4.1-.6 0-.2.1-.4.1-.6s.1-.4.1-.6c.1-.2.1-.4.2-.6s.1-.4.2-.6.2-.4.2-.6c.1-.2.1-.4.2-.6s.2-.4.3-.6.2-.4.3-.6.2-.4.3-.6.2-.4.3-.6.3-.4.4-.6.2-.4.4-.5c.1-.2.3-.4.5-.6.1-.2.3-.4.4-.5.2-.2.3-.4.5-.6.1-.2.3-.4.4-.5.2-.2.4-.4.6-.6s.3-.3.5-.5.4-.4.7-.6c.1-.1.3-.3.4-.4s.2-.2.3-.3c.2-.1.3-.3.5-.4s.3-.3.5-.4c.3-.2.6-.4.8-.6 0 0 0 0 .1-.1.3-.2.6-.4.9-.7.2-.1.3-.2.5-.4.2-.1.3-.2.5-.3.5-.3 1-.6 1.6-1 3.5-2 7.4-3.6 11.6-4.8.7-.2 1.4-.4 2.2-.6 1.1-.3 2.3-.5 3.4-.8 1.8-.4 3.7-.7 5.6-.9.2 0 .3 0 .5-.1 14.1-2 29.2.3 40.1 6.6z" fill="#00babc"/><path d="m377.1 112.7c-1.2.2-2.3.5-3.4.8-.7.2-1.5.4-2.2.6-4.2 1.2-8.1 2.8-11.6 4.8-.5.3-1.1.6-1.6 1-.2.1-.3.2-.4.3-.2.1-.4.3-.6.4-.3.2-.6.4-.9.7 0 0 0 0-.1.1-.3.2-.6.4-.8.6-.2.1-.3.3-.5.4s-.3.3-.5.4c-.1.1-.2.2-.3.3s-.3.2-.4.4c-.2.2-.5.4-.7.6s-.3.3-.5.5-.4.4-.6.6c-.1.2-.3.3-.4.5-.2.2-.4.4-.5.6s-.3.3-.4.5c-.2.2-.3.4-.5.6-.1.2-.2.4-.3.5-.1.2-.3.4-.4.6s-.2.4-.3.6-.2.4-.3.6-.2.4-.3.6-.2.4-.3.6-.1.4-.2.6-.2.4-.2.6c-.1.2-.1.4-.2.6s-.1.4-.2.6c0 .2-.1.4-.1.6s-.1.4-.1.6 0 .4-.1.6c0 .2-.1.4-.1.6v.6.6.6.6c0 .2.1.4.1.6s0 .4.1.6c0 .2.1.4.1.6s.1.4.1.6v.1c.1.2.1.4.2.6s.1.4.2.6.2.4.2.6c.1.2.1.3.2.5 0 0 0 .1.1.1.1.2.2.4.3.6s.2.4.3.6.2.4.3.6.2.4.3.6.3.4.4.6c0 .1.1.1.1.2.9 1.3 1.9 2.6 3.2 3.8.2.2.4.4.6.6s.4.3.5.5c.1.1.2.2.3.2.6.5 1.2 1 1.9 1.5.2.1.3.2.5.3.2.2.5.3.7.5.7.5 1.5 1 2.3 1.5.5.3 1.1.6 1.7.9 1.9 1 4 1.9 6.2 2.7.6.2 1.1.4 1.7.6 2.2.7 4.5 1.3 6.9 1.8.9.2 1.8.4 2.8.5 1.3.2 2.6.4 3.9.5 14.1 1.6 29.2-.8 40.1-7.1.5-.3 1-.6 1.4-.9.1-.1.3-.2.4-.3.3-.2.7-.4 1-.7.1-.1.3-.2.4-.3.4-.3.8-.6 1.2-.9.4-.3.8-.6 1.1-1 .1-.1.2-.2.3-.3.3-.2.5-.5.8-.7.1-.1.1-.1.2-.2s0 0 .1-.1c.7-.7 1.3-1.3 1.8-2 .1-.1.2-.2.2-.3.2-.3.4-.5.6-.8.1-.1.1-.2.2-.3.5-.7.9-1.4 1.3-2.1.1-.1.1-.2.2-.3.1-.3.3-.5.4-.8 0-.1.1-.2.1-.3.1-.2.1-.4.2-.6.1-.4.3-.8.4-1.2.1-.2.1-.4.2-.7v-.1c.9-4 .2-8.1-2.2-12-.1-.2-.3-.4-.4-.6s-.2-.4-.4-.6c-.1-.2-.3-.4-.5-.6-.1-.2-.3-.4-.4-.5-.2-.2-.3-.4-.5-.6s-.3-.4-.4-.5c-.2-.2-.4-.4-.6-.6s-.3-.3-.5-.5c-.4-.4-.8-.7-1.2-1.1-.2-.2-.5-.4-.7-.6s-.4-.3-.6-.5c-.3-.2-.5-.4-.8-.6-.1-.1-.1-.1-.2-.2-1.1-.8-2.2-1.5-3.4-2.2-10.9-6.3-25.9-8.6-39.9-7.1-.2 0-.3 0-.5.1-1.9.7-3.8 1-5.6 1.3zm36.7 11.6c.4.2.8.5 1.1.7.1.1.3.2.4.3.2.1.4.3.7.4.1.1.3.2.4.3.2.1.4.3.6.4.1.1.3.2.4.3.2.1.3.3.5.4.1.1.3.2.4.4.2.1.3.3.4.4s.2.2.4.4c.1.1.3.3.4.4s.2.2.3.4c.1.1.3.3.4.4s.2.3.3.4.2.3.3.4.2.3.3.4.2.3.3.4.2.3.2.4c.1.1.2.3.2.4.1.1.1.3.2.4.1.2.1.3.2.5.1.1.1.3.2.4s.1.3.2.4c0 .1.1.3.1.4s.1.3.1.4.1.3.1.4c0 .2.1.3.1.5 0 .1 0 .3.1.4 0 .2 0 .3.1.5v.4.4.1.4.4c0 .1 0 .3-.1.4 0 .1 0 .3-.1.4 0 .1-.1.3-.1.4s-.1.3-.1.4-.1.2-.1.3c-.1.4-.2.8-.4 1.1 0 .1-.1.2-.1.2-1.3 3.1-4.1 6.1-8.2 8.5-12.2 7.1-32.2 7.1-44.5 0-6.2-3.6-9.3-8.2-9.3-12.9 0-.2 0-.3 0-.5 0-.1 0-.3 0-.4 0-.2 0-.3.1-.5 0-.1 0-.3.1-.4 0-.1.1-.3.1-.4s.1-.3.1-.4.1-.3.1-.4.1-.3.1-.4.1-.3.2-.4.1-.3.2-.4.1-.3.2-.4.1-.3.2-.4.2-.3.2-.4c.1-.1.1-.3.2-.4s.2-.3.3-.4.2-.3.3-.4.2-.3.3-.4.2-.2.3-.4c.1-.1.2-.3.4-.4.1-.1.2-.2.3-.4.1-.1.3-.3.4-.4s.2-.2.3-.4c.1-.1.3-.3.5-.4.1-.1.2-.2.4-.3s.3-.3.5-.4c.1-.1.3-.2.4-.3.2-.2.4-.3.6-.4.1-.1.2-.2.4-.3.2-.2.5-.3.7-.5.1-.1.2-.2.3-.2.4-.2.7-.5 1.1-.7 12-7 31.9-7 44.3.1z" fill="#84d0d3"/><path d="m539.6 174.7-59.5-34.4-14.1 8.2 59.5 34.4z" fill="#00babc"/><path d="m480.6 179.6c0-.1-.1-.2-.1-.3s0-.1-.1-.2c-.1-.2-.2-.3-.3-.5 0-.1-.1-.1-.1-.2-.5-.6-1.2-1.2-2.1-1.7-3.9-2.3-10.2-2.3-14.1 0-1 .6-1.7 1.2-2.2 1.9-.1.2-.2.3-.3.5 0 .1 0 .1-.1.2-.1.1-.1.2-.1.4 0 .1 0 .1-.1.2 0 .1-.1.2-.1.3v.2.3c0 1.5 1 3 2.9 4.1 3.9 2.3 10.2 2.3 14.1 0 2.5-1.3 3.4-3.3 2.7-5.2z" fill="#00babc"/><path d="m470.9 214.6-59.6-34.3-14.1 8.2 59.6 34.3z" fill="#00babc"/><path d="m583.6 178.7v.2c0 .1 0 .1-.1.2v.2c0 .1-.1.2-.1.2 0 .1 0 .1-.1.2 0 .1-.1.2-.1.2 0 .1-.1.1-.1.2-.1.1-.1.1-.2.2 0 .1-.1.1-.1.2-.1.1-.1.1-.2.2s-.1.1-.2.2-.2.1-.2.2c-.1.1-.1.1-.2.2s-.3.2-.4.3c0 0-.1 0-.1.1l-1.8 1.1-1 .6-109.9 63.9c-1.5.8-3.4 1.3-5.3 1.3s-3.9-.4-5.3-1.3l-128.2-74-128.3-74.3c-.2-.1-.4-.2-.5-.3-.1 0-.1-.1-.1-.1-.1-.1-.2-.2-.3-.2s-.1-.1-.2-.1c-.1-.1-.2-.1-.2-.2-.1-.1-.1-.1-.1-.2-.1-.1-.1-.1-.2-.2 0-.1-.1-.1-.1-.2s-.1-.1-.1-.2-.1-.1-.1-.2-.1-.1-.1-.2 0-.1 0-.2 0-.1-.1-.2c0-.1 0-.1 0-.2s0-.2 0-.2v12.2c0 1.1.7 2.2 2.2 3.1l256.4 148c2.9 1.7 7.7 1.7 10.6 0l112.7-65.5c1.5-.8 2.2-1.9 2.2-3.1v-12.2c0-.1-.1 0-.1.1z" fill="#84d0d3"/><path d="m193.5 320c-5.9 13.3-21.6 22.4-48.1 16.3-37.7-8.6-64.4-.7-81.8-10.7-4.4-2.5-8.2-6.2-11.5-11.6-2.6-4.3-3.4-8.8-2.8-13.3 2.5 2 5.3 4 8.4 6 3 2 6.2 4 9.6 5.9 11.9 6.9 25.9 11.1 40.1 12.9 11.9 1.7 25.2 2.3 39.5 1.5 11.8-.6 22.6-1.9 32.1-3.6 5.3-1.1 10.1-2.2 14.5-3.4z" fill="#ffcf62" opacity=".4"/><path d="m181.3 259.4c4.7 2.7 8 6.5 9.6 11.7 3.1 10 12.8 16.5 23.9 25.8 10 8.4.2 17.2-21.3 23.1 3.9-8.9 3.4-19.7-1.1-29.2-1.7-3.5-4.5-6.9-8.3-10.1-4.7-8.9-14.8-17.6-27.2-25.7-.7-.4-1.3-.8-2-1.2 10.7.2 19.9 1.9 26.4 5.6z" fill="#ffcf62" opacity=".4"/><path d="m155 253.8c.6.4 1.3.8 2 1.2 12.4 8.1 22.4 16.8 27.2 25.7-.2-.2-.4-.4-.7-.5-.2-.1-.3-.3-.5-.4-2.1-1.6-4.4-3.2-6.9-4.6-17.3-10-44.6-15.7-71.3-11.8-21.3 3.1-38.7 11.9-48.1 22.6-1 1.1-1.9 2.3-2.7 3.5 1.3-6.7 7.3-13.1 16.5-18.5 16-9.3 41.8-15.9 71.1-17 5-.2 9.4-.3 13.4-.2z" fill="#ffcf62" opacity=".8"/><path d="m178.5 308.1c-2.6 2.4-5.7 4.6-9.5 6.8-.1.1-.3.2-.4.3-7.9 4.5-17.1 7.6-26.9 9.4-10.9 1.9-22.7 2.2-34.3.8-14.2-1.7-28.2-6-40.1-12.9-3.3-1.9-6.6-3.9-9.6-5.9s-5.8-4-8.4-6c.4-2.9 1.4-5.7 3-8.4.5-.9 1.1-1.8 1.7-2.7.8-1.2 1.7-2.3 2.7-3.5 9.4-10.7 26.8-19.5 48.1-22.6 26.7-3.9 54 1.8 71.3 11.8 2.5 1.5 4.8 3 6.9 4.6.2.1.3.3.5.4.2.2.4.4.7.5 4.8 9.3 4 18.6-5.7 27.4zm-64.4 10.8c24.5 3 45.2-6.6 54-20.2 5.6-8.7 1.4-17.7-9.3-23.8-6.4-3.7-15.2-6.4-25.7-7.4-24.8-2.4-48.7 6-54 20.2-3.4 9.1 1.8 18.1 12.4 24.2 6 3.4 13.7 5.9 22.6 7" fill="#ffcf62"/><path d="m184.1 280.8c3.8 3.1 6.6 6.5 8.3 10.1 4.5 9.5 5 20.3 1.1 29.2-4.4 1.2-9.2 2.3-14.5 3.3-9.5 1.7-20.3 3-32.1 3.6-14.3.8-27.6.2-39.5-1.5 11.6 1.4 23.4 1.1 34.3-.8 9.9-1.8 19-4.9 26.8-9.3.3-.2.4-.3.6-.3 3.7-2.2 6.8-4.4 9.4-6.7 9.7-9.1 10.5-18.4 5.6-27.6z" fill="#ffcf62" opacity=".8"/><path d="m152.8 252.5c.7.4 1.4.8 2.1 1.3-3.9-.1-8.3 0-13.3.2-29.3 1.1-55.2 7.7-71.1 17-9.3 5.4-15.2 11.7-16.5 18.5-.6.9-1.2 1.8-1.7 2.7-1.5 2.8-2.6 5.6-3 8.4-18.1-14.5-21.4-29.3 20.7-38.8 35.9-8.1 50.9-27.7 82.8-9.3z" fill="#ffcf62" opacity=".4"/></svg>