<svg width="114" height="114" viewBox="0 0 114 114" fill="none" xmlns="http://www.w3.org/2000/svg">
<path d="M111.506 44.8455H70.0871L56.8934 5.38965L43.6986 44.8455H2.28125L36.2154 69.1398L23.1886 108.618L56.8934 84.5421L90.6007 108.572L77.57 69.141L111.506 44.8455Z" fill="#FFFFFE"/>
<path d="M56.8933 10.085L44.7578 46.3183H6.86328L37.9518 68.5731L25.9954 104.805L56.8997 82.7344L87.7937 104.805L75.8324 68.5731L106.922 46.3183H69.0275L56.8933 10.085Z" fill="#002244"/>
<path d="M56.8948 20.0713L47.1364 49.4195H16.4414L41.6238 67.4465L31.9392 96.7933L56.97 78.9179L81.8489 96.7933L72.1644 67.4476L97.3481 49.4195H66.652L56.8948 20.0713Z" fill="#FFFFFE"/>
<path d="M56.8925 28.7026L49.2225 51.8875H24.9766L44.8687 66.1293L37.2163 89.3142L56.9928 75.1916L76.5675 89.3142L68.914 66.1304L88.807 51.8875H64.5612L56.8925 28.7026Z" fill="#002244"/>
</svg>
