<svg width="250" height="250" viewBox="0 0 250 250" fill="none" xmlns="http://www.w3.org/2000/svg">
<g clip-path="url(#clip0_811_31314)">
<path d="M244.225 98.2235H153.507L124.609 11.8044L95.7091 98.2235H4.9939L79.3189 151.435L50.7867 237.903L124.609 185.17L198.437 237.802L169.897 151.437L244.225 98.2235Z" fill="#FFFFFE"/>
<path d="M124.609 22.0887L98.0293 101.45H15.03L83.1223 150.194L56.9347 229.552L124.623 181.211L192.29 229.552L166.091 150.194L234.186 101.45H151.187L124.609 22.0887Z" fill="#002244"/>
<path d="M124.609 43.9612L103.236 108.242H36.0056L91.1619 147.726L69.9501 212.003L124.774 172.851L179.266 212.003L158.054 147.728L213.213 108.242H145.98L124.609 43.9612Z" fill="#FFFFFE"/>
<path d="M124.609 62.8657L107.81 113.647H54.7048L98.2739 144.84L81.5132 195.621L124.829 164.689L167.703 195.621L150.94 144.843L194.511 113.647H141.406L124.609 62.8657Z" fill="#002244"/>
</g>
<defs>
<clipPath id="clip0_811_31314">
<rect width="249.691" height="249.691" fill="white"/>
</clipPath>
</defs>
</svg>
