<svg width="54" height="40" viewBox="0 0 54 40" fill="none" xmlns="http://www.w3.org/2000/svg">
<g clip-path="url(#clip0)">
<path d="M39.8 12.667H14.2C12.44 12.667 11.016 14.017 11.016 15.667L11 33.667C11 35.317 12.44 36.667 14.2 36.667H39.8C41.56 36.667 43 35.317 43 33.667V15.667C43 14.017 41.56 12.667 39.8 12.667ZM39.8 18.667L27 26.167L14.2 18.667V15.667L27 23.167L39.8 15.667V18.667Z" fill="#CCD2DE"/>
<circle cx="43" cy="11" r="11" fill="white"/>
<circle cx="43" cy="11" r="11" fill="white"/>
<path d="M43 2C38.023 2 34 6.023 34 11C34 15.977 38.023 20 43 20C47.977 20 52 15.977 52 11C52 6.023 47.977 2 43 2ZM47.5 14.231L46.231 15.5L43 12.269L39.769 15.5L38.5 14.231L41.731 11L38.5 7.769L39.769 6.5L43 9.731L46.231 6.5L47.5 7.769L44.269 11L47.5 14.231Z" fill="#F26C57"/>
</g>
<defs>
<clipPath id="clip0">
<rect width="54" height="40" fill="white"/>
</clipPath>
</defs>
</svg>
