<svg width="97" height="56" viewBox="0 0 97 56" fill="none" xmlns="http://www.w3.org/2000/svg">
<circle cx="49" cy="36" r="20" fill="#0C6CF2"/>
<path d="M56.5 28H40.5C39.4 28 38.51 28.9 38.51 30L38.5 42C38.5 43.1 39.4 44 40.5 44H56.5C57.6 44 58.5 43.1 58.5 42V30C58.5 28.9 57.6 28 56.5 28ZM56.5 32L48.5 37L40.5 32V30L48.5 35L56.5 30V32Z" fill="white"/>
<circle cx="69" cy="16" r="16" fill="white"/>
<path d="M69 4.33331C62.56 4.33331 57.3333 9.55998 57.3333 16C57.3333 22.44 62.56 27.6666 69 27.6666C75.44 27.6666 80.6666 22.44 80.6666 16C80.6666 9.55998 75.44 4.33331 69 4.33331ZM66.6666 21.8333L60.8333 16L62.4783 14.355L66.6666 18.5316L75.5216 9.67665L77.1666 11.3333L66.6666 21.8333Z" fill="#00994C"/>
</svg>
