<svg width="54" height="40" viewBox="0 0 54 40" fill="none" xmlns="http://www.w3.org/2000/svg">
<g clip-path="url(#clip0)">
<path d="M39.8 12.667H14.2C12.44 12.667 11.016 14.017 11.016 15.667L11 33.667C11 35.317 12.44 36.667 14.2 36.667H39.8C41.56 36.667 43 35.317 43 33.667V15.667C43 14.017 41.56 12.667 39.8 12.667ZM39.8 18.667L27 26.167L14.2 18.667V15.667L27 23.167L39.8 15.667V18.667Z" fill="#CCD2DE"/>
<circle cx="43" cy="11" r="11" fill="white"/>
<path d="M43 2C38.032 2 34 6.032 34 11C34 15.968 38.032 20 43 20C47.968 20 52 15.968 52 11C52 6.032 47.968 2 43 2ZM41.2 15.5L36.7 11L37.969 9.731L41.2 12.953L48.031 6.122L49.3 7.4L41.2 15.5Z" fill="#27AC7A"/>
</g>
<defs>
<clipPath id="clip0">
<rect width="54" height="40" fill="white"/>
</clipPath>
</defs>
</svg>
