<svg height="241" viewBox="0 0 325 241" width="325" xmlns="http://www.w3.org/2000/svg"><g fill="none" fill-rule="evenodd"><g fill="#b2d5e5" fill-opacity=".6" opacity=".5"><path d="m246.178999 27.7869254h-14.098766c-3.235504 0-6.135277-2.2543445-6.706521-5.4549712-.008865-.0511295-.017345-.1030337-.025825-.1541631-.64872-4.0551086 2.712057-7.6574115 6.79903-7.6574115 3.773598 0 7.143241-2.7722239 7.501713-6.54689508.410509-4.33051042-2.967228-7.97348452-7.191422-7.97348452h-38.222044c-3.773598 0-7.143241 2.77222389-7.501713 6.54689508-.410895 4.33051042 2.966842 7.97348452 7.191422 7.97348452h5.015918c1.441214.1936722 2.808807.8970896 3.657577 2.0843002.655273.9168442 1.107411 1.9382714 1.356414 2.9992077.988691 4.2069476-2.426821 8.1830379-6.728492 8.1830379h-56.317971c-3.773598 0-7.143626 2.7722239-7.501713 6.546895-.41128 4.3305105 2.966842 7.9738719 7.191037 7.9738719h105.892032c4.22458 0 7.601932-3.6433614 7.191037-7.9738719-.358472-3.7746711-3.728115-6.546895-7.501713-6.546895"/><path d="m190.990319 185.479233h-14.098765c-3.235504 0-6.135278-2.254344-6.706521-5.454971-.008866-.05113-.017346-.103034-.025826-.154163-.648719-4.055109 2.712058-7.657412 6.799031-7.657412 3.773598 0 7.14324-2.772224 7.501713-6.546895.410509-4.33051-2.967228-7.973484-7.191423-7.973484h-38.222043c-3.773599 0-7.143241 2.772224-7.501714 6.546895-.410894 4.33051 2.966843 7.973484 7.191423 7.973484h5.015918c1.441214.193672 2.808806.89709 3.657577 2.084301.655272.916844 1.10741 1.938271 1.356414 2.999207.988691 4.206948-2.426821 8.183038-6.728492 8.183038h-56.3179709c-3.7735985 0-7.1436263 2.772224-7.5017135 6.546895-.4112798 4.330511 2.9668425 7.973872 7.1910373 7.973872h105.8920321c4.22458 0 7.601931-3.643361 7.191037-7.973872-.358473-3.774671-3.728115-6.546895-7.501714-6.546895"/><path d="m317.490698 105.546496h-20.089262c-2.549474 0-4.927627-1.551069-5.734685-3.978107-.632663-1.9011479-.591561-3.9993119.15903-5.887351.486309-1.2245073 1.709381-1.9971499 3.022724-1.9971499 3.760638 0 7.118707-2.7593825 7.475565-6.5165688.409483-4.3104508-2.956269-7.9365501-7.16634-7.9365501h-105.219129c-3.760254 0-7.118708 2.758997-7.475565 6.5165689-.409483 4.3104508 2.956653 7.93655 7.16634 7.93655h74.479463c3.260884 0 6.072336 2.5600531 6.121121 5.8326029.000768.0470371.001152.0940742.001152.1414969-.004994 3.2941401-2.839877 5.8885081-6.122657 5.8885081h-51.527277c-3.760638 0-7.119092 2.759382-7.475949 6.516954-.409483 4.310451 2.956269 7.93655 7.16634 7.93655h105.528738c4.209687 0 7.575055-3.626099 7.165956-7.93655-.357242-3.757572-3.715311-6.516954-7.475565-6.516954"/><path d="m139.418273 90.3856957h-20.737302c-2.631715 0-5.086582-1.6095992-5.919675-4.1282238-.653071-1.9728893-.610644-4.1502293.16416-6.1095152.501997-1.2707151 1.764523-2.072514 3.120231-2.072514 3.881949 0 7.348344-2.8635101 7.716713-6.7624771.422692-4.4731093-3.051633-8.2360425-7.397513-8.2360425h-108.61329374c-3.88155279 0-7.34834368 2.86311-7.71671252 6.7624771-.42269234 4.4731093 3.052029 8.2360425 7.3975124 8.2360425h76.88202606c3.3660743 0 6.268218 2.6566589 6.3185763 6.0527011.000793.0488121.0011896.0976242.0011896.1468364-.0051548 3.4184478-2.9314864 6.1107155-6.3201625 6.1107155h-53.1894465c-3.8819493 0-7.3487402 2.8635101-7.717109 6.7628771-.4226923 4.4731092 3.0516325 8.2360422 7.3975124 8.2360422h108.9328905c4.345483 0 7.819412-3.762933 7.397116-8.2360422-.368765-3.899367-3.83516-6.7628771-7.716713-6.7628771" transform="matrix(-1 0 0 1 147.169812 0)"/><path d="m227.880254 131.637074h-85.397691c-.817605 0-1.629092-.24654-2.279199-.745389-3.065829-2.35386-4.038312-6.435422-2.714388-9.844672.293695-.756927 1.039789-1.243853 1.847451-1.243853 3.445568 0 6.612737-2.320783 7.289231-5.718495.923152-4.634257-2.575954-8.70005-7.019245-8.70005h-19.492124c-3.445186 0-6.612737 2.320783-7.288848 5.718879-.922388 4.634258 2.575954 8.699666 7.019245 8.699666h2.583602c1.67001 0 3.182083 1.077698 3.662015 2.686554.947244 3.174633.237098 7.705813-2.793931 9.075436-.066923.03077-.130404.071924-.203828.071924-3.043266 0-5.845228 1.898472-6.782529 4.810412-1.608824 4.997721 2.051279 9.607748 6.782529 9.607748h19.754079c1.419911 0 2.783606.760004 3.389353 2.051935 1.188549 2.536168 1.063499 5.553493-.380122 7.984661-.674964 1.137314-1.933877 1.797703-3.250535 1.797703h-2.33312c-3.95877 0-7.168005 3.227326-7.168005 7.208887 0 3.981946 3.209235 7.209272 7.167623 7.209272h34.8423c3.958388 0 7.168005-3.227326 7.168005-7.209272 0-3.981561-3.209617-7.208887-7.168005-7.208887h-11.678983c-.991605 0-1.976326-.355003-2.661615-1.075391-2.027952-2.131551-2.749571-5.156568-2.071548-7.918507.414157-1.688472 1.976709-2.840401 3.705611-2.840401h65.742658c4.442908 0 7.942014-4.065408 7.019627-8.699666-.676876-3.397711-3.844045-5.718494-7.289613-5.718494"/></g><g transform="translate(78.757669 10)"><path d="m145.071857 102.267473c-43.829157-11.78562-87.1362825-23.4311-130.6342831-35.12663-3.4135168 12.82743-6.65072348 24.99112-9.99064997 37.54366 43.71493867 11.76021 87.02589737 23.41262 130.61205307 35.13818 3.376722-12.66188 6.621594-24.83558 10.01288-37.55521" fill="#b2d5e5"/><path d="m98.7125738 132.87274c-4.1187572-1.09186-7.8136036-2.07207-11.7407193-3.11388-.344188 3.66905 1.2655998 5.70339 3.9639109 6.58812 3.0271677.99253 5.7346775.23023 7.7768084-3.47424m68.4029512.4235c6.654557 1.77639 12.971824 3.46269 19.552024 5.21906.863919-3.2802 1.596756-6.06452 2.425413-9.21151-6.555669-1.77485-12.76715-3.45653-19.332019-5.23446-.85932 2.99684-1.658081 5.78193-2.645418 9.22691m-4.241407 4.43674c1.811394-6.78062 3.480208-13.02224 5.250974-19.64501-6.97958-1.89266-15.24699-4.22191-22.120018-5.92361 0 0-.636249 1.30515-.850888 2.04281-1.656548 5.69646-3.102291 11.45606-4.689848 17.4867 7.542239 2.03203 14.737991 3.97166 22.40978 6.03911m-17.801954-35.46543c-43.829157-11.78562-87.1362828-23.4311-130.6342835-35.12663-3.4142833 12.82743-6.65072345 24.99112-9.99141651 37.54366 43.71570531 11.76021 87.02666391 23.41262 130.61282001 35.13818 3.375955-12.66188 6.621594-24.83635 10.01288-37.55521m-128.9455394-41.66008c-.315825 1.17579-.5680251 2.68576-.8853833 3.90467 8.8821961 2.40009 17.9422354 4.85639 27.0053409 7.29498 33.8331411 9.10294 67.6517178 18.2567 101.5216538 27.21642 3.668783.9702 4.994942 1.68014 3.670316 6.03526-.547328 1.52845-.866986 2.58412-1.266366 4.21421 6.914422 1.90113 13.473924 3.94009 20.15301 5.44929 3.74544.84623 5.360594 1.54308 3.789134 6.57657 6.423054 1.76176 12.477389 3.61746 18.632145 5.02964 2.952044.67683 3.560697 1.98429 2.860056 4.45599-.755067 2.66035-1.543863 5.31839-2.153283 8.01724-.522031 2.31231-1.511667 3.00069-3.901819 2.29229-6.207648-1.8403-12.507285-3.36798-18.688104-4.9973-2.111121 6.07761-2.648484 4.76014-8.084967 3.32794-6.367861-1.6786-12.734189-3.36413-19.228533-5.08123-.431576 1.29129-.73437 2.11288-.983504 2.95141-1.754668 5.90051-.265998 6.16539-7.700918 4.2273-8.753413-2.28074-17.486895-4.64233-26.192781-7.10017-1.958576-.55363-3.182781-.47201-4.5534 1.32825l-.038329.05005c-2.5097355 3.26634-2.5764267 7.80318-.1625115 11.14113 4.6438545 6.42026 9.3214385 12.8898 14.0066875 19.35318 11.046211 15.24215 22.100854 30.47814 33.150898 45.71721.375617.51821.899948.99792 1.068592 1.58004.216172.74305.141048 1.57157.191641 2.36313-.742035-.2233-1.66728-.24409-2.186245-.71533-.83479-.75999-1.402048-1.81489-2.078926-2.74813-16.077181-22.18986-32.152062-44.38049-48.2338429-66.56804-.0222304-.03003-.0452274-.06083-.0674578-.09163-.9398095-1.2859-2.9712084-.61138-2.9712084.98406v83.33325c-.6094197.07392-1.2180728.14707-1.8267259.22099-.2782634-1.36675-.7956952-2.7335-.8002946-4.10102-.0682243-21.30205-.0720571-42.6041-.0889216-63.90538-.0038328-4.95264-.0022997-9.90528-.3955479-14.98497-.1203508-1.53615-2.0727934-2.1021-2.9765743-.85701-16.9939937 23.37489-33.9879873 46.74978-50.9827476 70.12544-.5128324-.23716-1.0264314-.47355-1.5400303-.71071.5342962-1.31593.8340234-2.80434 1.6396839-3.92315 9.5797708-13.29944 19.2377312-26.54267 28.8696285-39.80438 6.4920444-8.93893 12.980256-17.88248 19.2990565-26.58964 2.6316199-3.62747 2.9880729-8.43535.9229451-12.41548l-.063625-.12243c-1.5216328-2.93293-4.193114-5.08893-7.3728283-5.94363-23.835592-6.41179-48.7359436-13.11079-73.51057854-19.77514-.23073626.26642-.61708534 1.4168-.96050675 2.42088-.26676484.78155-1.12531835 1.21121-1.90721531.9548l-.03602858-.01155c-.7987614-.2618-1.25256826-1.12035-.99653533-1.92423.15867909-.49819.34955393-1.001.51513211-1.63163 3.92481607-14.9534 7.95081881-29.87908 11.9898532-44.80168.2292031-.84546.3947813-1.67629.7282373-2.48941.2759636-.67375 1.1000217-1.08878 1.8075618-.92939l.0283629.00693c.7382027.16632 1.1828108.91553.9858034 1.65011" fill="#799eb2"/><path d="m169.644579 32.636604h-4.50204c-.559593 0-1.012633-.45584-1.012633-1.01717v-4.52221c0-.5621-.453041-1.01794-1.0134-1.01794-.558827 0-1.012633.45584-1.012633 1.01794v4.52221c0 .56133-.453041 1.01717-1.012634 1.01717h-4.50204c-.559592 0-1.013399.45584-1.013399 1.01717 0 .5621.453807 1.01794 1.013399 1.01794h4.50204c.559593 0 1.012634.45507 1.012634 1.01717v4.52221c0 .56133.453806 1.01717 1.012633 1.01717.560359 0 1.0134-.45584 1.0134-1.01717v-4.52221c0-.5621.45304-1.01717 1.012633-1.01717h4.50204c.559593 0 1.012633-.45584 1.012633-1.01794 0-.56133-.45304-1.01717-1.012633-1.01717" fill="#10ade4"/><path d="m109.121079 46.655301h-4.50204c-.56036 0-1.012634-.45584-1.012634-1.01717v-4.52221c0-.56287-.453806-1.01794-1.013399-1.01794s-1.012634.45507-1.012634 1.01794v4.52221c0 .56133-.453806 1.01717-1.013399 1.01717h-4.5020403c-.5595929 0-1.0133998.45507-1.0133998 1.01717s.4538069 1.01794 1.0133998 1.01794h4.5020403c.559593 0 1.013399.45507 1.013399 1.01717v4.52221c0 .56133.453041 1.01717 1.012634 1.01717s1.013399-.45584 1.013399-1.01717v-4.52221c0-.5621.452274-1.01717 1.012634-1.01717h4.50204c.558826 0 1.012633-.45584 1.012633-1.01794s-.453807-1.01717-1.012633-1.01717" fill="#10ade4"/><path d="m144.267807 54.833548c0 1.85416-1.496337 3.35643-3.342227 3.35643s-3.342226-1.50227-3.342226-3.35643 1.496336-3.35643 3.342226-3.35643 3.342227 1.50227 3.342227 3.35643" fill="#b2d5e5"/><path d="m107.46821 10.343487c-1.84589 0-3.34146-1.50227-3.34146-3.35643s1.49557-3.3572 3.34146-3.3572c1.845123 0 3.341459 1.50304 3.341459 3.3572s-1.496336 3.35643-3.341459 3.35643m0-9.57418c-3.418116 0-6.189251 2.78432-6.189251 6.21775s2.771135 6.21698 6.189251 6.21698 6.189251-2.78355 6.189251-6.21698-2.771135-6.21775-6.189251-6.21775" fill="#799eb2"/><path d="m176.846846 80.92931c-1.845123 0-3.341459-1.50227-3.341459-3.35643s1.496336-3.3572 3.341459-3.3572c1.84589 0 3.342226 1.50304 3.342226 3.3572s-1.496336 3.35643-3.342226 3.35643m0-9.57418c-3.418116 0-6.189251 2.78432-6.189251 6.21775s2.771135 6.21698 6.189251 6.21698c3.418883 0 6.189251-2.78355 6.189251-6.21698s-2.770368-6.21775-6.189251-6.21775" fill="#799eb2"/><path d="m17.1578854 33.654005c0 1.85339-1.4955696 3.35643-3.3414596 3.35643-1.8466567 0-3.3422262-1.50304-3.3422262-3.35643 0-1.85416 1.4955695-3.35643 3.3422262-3.35643 1.84589 0 3.3414596 1.50227 3.3414596 3.35643" fill="#b2d5e5"/><path d="m61.2196951 35.137641c-6.9489176-.66143-12.5985063-6.26626-13.3344093-13.23861-.5335297-5.06198 1.4564747-9.67582 4.8561933-12.7435-1.6481161 6.70054.8317237 11.18656 2.5212344 13.31715.6163187.7777 1.5017021 1.32132 2.488272 1.40525 1.3775185.11704 1.6711131.85932 1.6956432 1.40756.0237636.55363.1157514 1.11265.4016804 1.58697 3.1666827 5.23446 13.5513474 3.47501 13.8311439 3.42727-3.0195021 3.34026-7.5169427 5.30838-12.4597579 4.83791m17.5949811-10.9263c-1.0601603.54824-2.154816 1.15115-2.2222738 1.32979-4.5871288 2.61723-8.9235906 1.71402-11.3842663.76923-1.120719-.42966-1.9417108-1.38908-2.2284063-2.55871-.5220312-2.13059-2.3479906-2.85054-3.707878-3.08693-1.1283847-.19635-2.1402513-.86086-2.6461846-1.89266-2.9903726-6.09686.2583326-12.27072.2583326-12.27072l.6216847-2.19989c.2422348-.85162-.5933218-1.60545-1.4166133-1.28821-7.2977049 2.81204-12.3578046 10.16092-11.7583503 18.60936.6308835 8.88041 7.696319 16.17616 16.5194895 17.02855 9.1405287.88319 17.0752496-4.96034 19.473067-13.18163.2636985-.90244-.6761109-1.68861-1.5086012-1.25818" fill="#10ade4"/><g fill="#b2d5e5"><path d="m98.7125738 132.87274c-4.1187572-1.09186-7.8136036-2.07207-11.7407193-3.11388-.344188 3.66905 1.2655998 5.70339 3.9639109 6.58812 3.0271677.99253 5.7346775.23023 7.7768084-3.47424"/><path d="m162.874271 137.732595c1.811395-6.78062 3.480208-13.02147 5.250975-19.64501-6.97958-1.89266-15.246991-4.22114-22.120018-5.92284 0 0-.63625 1.30438-.850888 2.04204-1.656549 5.69723-3.102291 11.45606-4.689849 17.4867 7.541473 2.0328 14.737991 3.97166 22.40978 6.03911"/><path d="m167.115832 133.296086c6.654556 1.77716 12.971824 3.46269 19.552023 5.21906.86392-3.27943 1.596757-6.06452 2.425414-9.21151-6.556436-1.77485-12.767151-3.45653-19.332785-5.23369-.858554 2.99607-1.657315 5.78116-2.644652 9.22614"/></g><path d="m30.6124922 80.859394 86.7123718 23.86846" stroke="#799eb2" stroke-dasharray="6.015 6.015" stroke-width="4"/></g></g></svg>