<?xml version="1.0" encoding="UTF-8"?>
<svg width="326px" height="225px" viewBox="0 0 326 225" version="1.1" xmlns="http://www.w3.org/2000/svg" xmlns:xlink="http://www.w3.org/1999/xlink">
    <!-- Generator: Sketch 49.3 (51167) - http://www.bohemiancoding.com/sketch -->
    <title>Group 9</title>
    <desc>Created with Sketch.</desc>
    <defs></defs>
    <g id="Design-Final" stroke="none" stroke-width="1" fill="none" fill-rule="evenodd">
        <g id="Tx-feed-empty-search" transform="translate(-692.000000, -282.000000)">
            <g id="Group-9" transform="translate(692.000000, 282.000000)">
                <g id="Group-8">
                    <g id="Group-4" opacity="0.5" fill="#B2D5E5" fill-opacity="0.599999964">
                        <path d="M246.936472,27.7869254 L232.794326,27.7869254 C229.548867,27.7869254 226.640171,25.5325809 226.06717,22.3319542 C226.058277,22.2808247 226.049771,22.2289205 226.041265,22.1777911 C225.390549,18.1226825 228.761667,14.5203796 232.861215,14.5203796 C236.646425,14.5203796 240.026435,11.7481557 240.386011,7.97348452 C240.797783,3.6429741 237.409653,0 233.172461,0 L194.832811,0 C191.047601,0 187.667591,2.77222389 187.308015,6.54689508 C186.895857,10.8774055 190.283986,14.5203796 194.521565,14.5203796 L199.552917,14.5203796 C200.998565,14.7140518 202.370366,15.4174692 203.221748,16.6046798 C203.879037,17.521524 204.332566,18.5429512 204.582335,19.6038875 C205.574068,23.8108351 202.148047,27.7869254 197.83314,27.7869254 L141.341883,27.7869254 C137.556674,27.7869254 134.176277,30.5591493 133.817088,34.3338204 C133.404542,38.6643309 136.793059,42.3076923 141.030251,42.3076923 L247.248105,42.3076923 C251.485684,42.3076923 254.873427,38.6643309 254.461268,34.3338204 C254.101693,30.5591493 250.721682,27.7869254 246.936472,27.7869254" id="Fill-26"></path>
                        <path d="M191.577982,185.479233 L177.435836,185.479233 C174.190376,185.479233 171.28168,183.224889 170.708679,180.024262 C170.699786,179.973132 170.69128,179.921228 170.682774,179.870099 C170.032058,175.81499 173.403176,172.212687 177.502724,172.212687 C181.287934,172.212687 184.667945,169.440463 185.02752,165.665792 C185.439292,161.335282 182.051162,157.692308 177.81397,157.692308 L139.47432,157.692308 C135.689111,157.692308 132.3091,160.464532 131.949525,164.239203 C131.537366,168.569713 134.925496,172.212687 139.163075,172.212687 L144.194426,172.212687 C145.640075,172.406359 147.011875,173.109777 147.863257,174.296988 C148.520546,175.213832 148.974075,176.235259 149.223845,177.296195 C150.215578,181.503143 146.789557,185.479233 142.47465,185.479233 L85.9833928,185.479233 C82.1981832,185.479233 78.8177861,188.251457 78.4585972,192.026128 C78.0460519,196.356639 81.4345684,200 85.6717607,200 L191.889614,200 C196.127193,200 199.514936,196.356639 199.102778,192.026128 C198.743202,188.251457 195.363192,185.479233 191.577982,185.479233" id="Fill-26-Copy"></path>
                        <path d="M318.467592,105.546496 L298.316518,105.546496 C295.759199,105.546496 293.373729,103.995427 292.564187,101.568389 C291.929577,99.6672411 291.970806,97.5690771 292.723706,95.681038 C293.211512,94.4565307 294.438347,93.6838881 295.755731,93.6838881 C299.52794,93.6838881 302.896342,90.9245056 303.254298,87.1673193 C303.665041,82.8568685 300.288933,79.2307692 296.065907,79.2307692 L190.523028,79.2307692 C186.751203,79.2307692 183.382416,81.9897662 183.024461,85.7473381 C182.613718,90.0577889 185.990211,93.6838881 190.212851,93.6838881 L264.921481,93.6838881 C268.192399,93.6838881 271.012502,96.2439412 271.061436,99.516491 C271.062207,99.5635281 271.062592,99.6105652 271.062592,99.6579879 C271.057583,102.952128 268.213977,105.546496 264.921096,105.546496 L213.235274,105.546496 C209.463065,105.546496 206.094277,108.305878 205.736322,112.06345 C205.325579,116.373901 208.701687,120 212.924712,120 L318.778154,120 C323.000794,120 326.376517,116.373901 325.966159,112.06345 C325.607818,108.305878 322.239416,105.546496 318.467592,105.546496" id="Fill-28"></path>
                        <path d="M139.847253,90.3856957 L119.046144,90.3856957 C116.40633,90.3856957 113.94391,88.7760965 113.108254,86.2574719 C112.453173,84.2845826 112.495731,82.1072426 113.272919,80.1479567 C113.77646,78.8772416 115.042871,78.0754427 116.402751,78.0754427 C120.296644,78.0754427 123.773705,75.2119326 124.143207,71.3129656 C124.5672,66.8398563 121.082185,63.0769231 116.722933,63.0769231 L7.77544432,63.0769231 C3.88194829,63.0769231 0.404490343,65.9400331 0.0349880636,69.8394002 C-0.389004864,74.3125095 3.09640792,78.0754427 7.45526204,78.0754427 L84.5738481,78.0754427 C87.9502796,78.0754427 90.861353,80.7321016 90.9118663,84.1281438 C90.9126617,84.1769559 90.9130595,84.225768 90.9130595,84.2749802 C90.9078888,87.693428 87.9725532,90.3856957 84.5734504,90.3856957 L31.2203441,90.3856957 C27.3264503,90.3856957 23.8489924,93.2492058 23.4794901,97.1485728 C23.0554971,101.621682 26.5405122,105.384615 30.8997641,105.384615 L140.167833,105.384615 C144.526687,105.384615 148.011304,101.621682 147.587709,97.1485728 C147.217809,93.2492058 143.740749,90.3856957 139.847253,90.3856957" id="Fill-28-Copy" transform="translate(73.811321, 84.230769) scale(-1, 1) translate(-73.811321, -84.230769) "></path>
                        <path d="M228.581424,131.637074 L142.920971,131.637074 C142.10085,131.637074 141.286867,131.390534 140.634759,130.891685 C137.559497,128.537825 136.584021,124.456263 137.912019,121.047013 C138.206618,120.290086 138.955007,119.80316 139.765155,119.80316 C143.221324,119.80316 146.398238,117.482377 147.076814,114.084665 C148.002806,109.450408 144.492934,105.384615 140.035971,105.384615 L120.483871,105.384615 C117.028085,105.384615 113.850788,107.705398 113.172596,111.103494 C112.24737,115.737752 115.756476,119.80316 120.213439,119.80316 L122.80499,119.80316 C124.480139,119.80316 125.996865,120.880858 126.478273,122.489714 C127.428432,125.664347 126.716101,130.195527 123.675746,131.56515 C123.608617,131.59592 123.54494,131.637074 123.471291,131.637074 C120.418661,131.637074 117.608077,133.535546 116.667892,136.447486 C115.054118,141.445207 118.725483,146.055234 123.471291,146.055234 L143.286151,146.055234 C144.710431,146.055234 146.078322,146.815238 146.685933,148.107169 C147.878139,150.643337 147.752704,153.660662 146.304642,156.09183 C145.627601,157.229144 144.364814,157.889533 143.044104,157.889533 L140.703806,157.889533 C136.732855,157.889533 133.513746,161.116859 133.513746,165.09842 C133.513746,169.080366 136.732855,172.307692 140.703422,172.307692 L175.65293,172.307692 C179.623497,172.307692 182.84299,169.080366 182.84299,165.09842 C182.84299,161.116859 179.623497,157.889533 175.65293,157.889533 L163.938011,157.889533 C162.943355,157.889533 161.955604,157.53453 161.268206,156.814142 C159.234015,154.682591 158.510176,151.657574 159.190285,148.895635 C159.605716,147.207163 161.173076,146.055234 162.907298,146.055234 L228.85224,146.055234 C233.30882,146.055234 236.818692,141.989826 235.893467,137.355568 C235.214508,133.957857 232.037594,131.637074 228.581424,131.637074" id="Fill-31"></path>
                    </g>
                    <g id="Group-6" transform="translate(89.000000, 10.000000)">
                        <path d="M160.166562,32.636604 L155.65067,32.636604 C155.089355,32.636604 154.634921,32.180764 154.634921,31.619434 L154.634921,27.097224 C154.634921,26.535124 154.180486,26.079284 153.618403,26.079284 C153.057857,26.079284 152.602654,26.535124 152.602654,27.097224 L152.602654,31.619434 C152.602654,32.180764 152.14822,32.636604 151.586905,32.636604 L147.071012,32.636604 C146.509698,32.636604 146.054494,33.092444 146.054494,33.653774 C146.054494,34.215874 146.509698,34.671714 147.071012,34.671714 L151.586905,34.671714 C152.14822,34.671714 152.602654,35.126784 152.602654,35.688884 L152.602654,40.211094 C152.602654,40.772424 153.057857,41.228264 153.618403,41.228264 C154.180486,41.228264 154.634921,40.772424 154.634921,40.211094 L154.634921,35.688884 C154.634921,35.126784 155.089355,34.671714 155.65067,34.671714 L160.166562,34.671714 C160.727877,34.671714 161.182311,34.215874 161.182311,33.653774 C161.182311,33.092444 160.727877,32.636604 160.166562,32.636604" id="Fill-5" fill="#10ADE4"></path>
                        <path d="M19.4568359,156.655301 L14.9409434,156.655301 C14.3788598,156.655301 13.9251944,156.199461 13.9251944,155.638131 L13.9251944,151.115921 C13.9251944,150.553051 13.4699912,150.097981 12.9086765,150.097981 C12.3473618,150.097981 11.8929275,150.553051 11.8929275,151.115921 L11.8929275,155.638131 C11.8929275,156.199461 11.4377243,156.655301 10.8764096,156.655301 L6.36051713,156.655301 C5.79920239,156.655301 5.3439992,157.110371 5.3439992,157.672471 C5.3439992,158.234571 5.79920239,158.690411 6.36051713,158.690411 L10.8764096,158.690411 C11.4377243,158.690411 11.8929275,159.145481 11.8929275,159.707581 L11.8929275,164.229791 C11.8929275,164.791121 12.3473618,165.246961 12.9086765,165.246961 C13.4699912,165.246961 13.9251944,164.791121 13.9251944,164.229791 L13.9251944,159.707581 C13.9251944,159.145481 14.3788598,158.690411 14.9409434,158.690411 L19.4568359,158.690411 C20.0173817,158.690411 20.4725849,158.234571 20.4725849,157.672471 C20.4725849,157.110371 20.0173817,156.655301 19.4568359,156.655301" id="Fill-7" fill="#10ADE4"></path>
                        <path d="M94.7117076,74.833548 C94.7117076,76.687708 93.2107673,78.189978 91.3591976,78.189978 C89.5076279,78.189978 88.0066876,76.687708 88.0066876,74.833548 C88.0066876,72.979388 89.5076279,71.477118 91.3591976,71.477118 C93.2107673,71.477118 94.7117076,72.979388 94.7117076,74.833548" id="Fill-9" fill="#B2D5E5"></path>
                        <path d="M97.7988813,10.343487 C95.9473116,10.343487 94.4471402,8.841217 94.4471402,6.987057 C94.4471402,5.132897 95.9473116,3.629857 97.7988813,3.629857 C99.6496821,3.629857 101.150622,5.132897 101.150622,6.987057 C101.150622,8.841217 99.6496821,10.343487 97.7988813,10.343487 M97.7988813,0.769307 C94.3702478,0.769307 91.5905865,3.553627 91.5905865,6.987057 C91.5905865,10.420487 94.3702478,13.204037 97.7988813,13.204037 C101.227515,13.204037 104.007176,10.420487 104.007176,6.987057 C104.007176,3.553627 101.227515,0.769307 97.7988813,0.769307" id="Fill-11" fill="#799EB2"></path>
                        <path d="M187.39099,110.92931 C185.54019,110.92931 184.039249,109.42704 184.039249,107.57288 C184.039249,105.71872 185.54019,104.21568 187.39099,104.21568 C189.24256,104.21568 190.7435,105.71872 190.7435,107.57288 C190.7435,109.42704 189.24256,110.92931 187.39099,110.92931 M187.39099,101.35513 C183.962357,101.35513 181.182696,104.13945 181.182696,107.57288 C181.182696,111.00631 183.962357,113.78986 187.39099,113.78986 C190.820393,113.78986 193.599285,111.00631 193.599285,107.57288 C193.599285,104.13945 190.820393,101.35513 187.39099,101.35513" id="Fill-14" fill="#799EB2"></path>
                        <path d="M7.21067888,33.654005 C7.21067888,35.507395 5.71050757,37.010435 3.85893785,37.010435 C2.0065992,37.010435 0.506427888,35.507395 0.506427888,33.654005 C0.506427888,31.799845 2.0065992,30.297575 3.85893785,30.297575 C5.71050757,30.297575 7.21067888,31.799845 7.21067888,33.654005" id="Fill-16" fill="#B2D5E5"></path>
                        <path d="M61.4080633,45.137641 C54.4377645,44.476211 48.7707924,38.871381 48.0326251,31.899031 C47.4974538,26.837051 49.4935813,22.223211 52.9037606,19.155531 C51.2505733,25.856071 53.7380434,30.342091 55.4327526,32.472681 C56.0509677,33.250381 56.9390753,33.794001 57.9286809,33.877931 C59.3104378,33.994971 59.6049359,34.737251 59.6295414,35.285491 C59.6533781,35.839121 59.745649,36.398141 60.0324578,36.872461 C63.2088841,42.106921 73.6255016,40.347471 73.906159,40.299731 C70.8773661,43.639991 66.3660873,45.608111 61.4080633,45.137641 M79.0571829,34.211341 C77.9937606,34.759581 76.8957367,35.362491 76.8280713,35.541131 C72.2268283,38.158361 67.8770235,37.255151 65.4087765,36.310361 C64.2846092,35.880701 63.4610912,34.921281 63.1735135,33.751651 C62.6498761,31.621061 60.8182984,30.901111 59.4542267,30.664721 C58.3223701,30.468371 57.30739,29.803861 56.7999,28.772061 C53.8003263,22.675201 57.0590275,16.501341 57.0590275,16.501341 L57.6826251,14.301451 C57.9256052,13.449831 57.0874777,12.696001 56.261653,13.013241 C48.9414936,15.825281 43.8658243,23.174161 44.4671231,31.622601 C45.0999478,40.503011 52.1871231,47.798761 61.0374418,48.651151 C70.2060952,49.534341 78.1652307,43.690811 80.5704259,35.469521 C80.8349359,34.567081 79.8922347,33.780911 79.0571829,34.211341" id="Fill-18" fill="#10ADE4"></path>
                    </g>
                </g>
                <g id="Page-1" transform="translate(189.332739, 140.332739) rotate(-101.000000) translate(-189.332739, -140.332739) translate(111.832739, 62.832739)">
                    <g id="Group-30">
                        <polygon id="Fill-13" stroke="#799EB2" stroke-width="2" fill="#B2D5E5" points="75.5059459 101.590135 83.5045946 110.045541 87.6275676 106.033378 80.832973 98.2401351"></polygon>
                        <polygon id="Fill-15" stroke="#799EB2" stroke-width="2" fill="#B2D5E5" points="56.8536486 75.9989189 48.8563514 67.5448649 44.7333784 71.5556757 51.527973 79.3489189"></polygon>
                        <polygon id="Fill-1" stroke="#799EB2" stroke-width="2" fill="#B2D5E5" points="70.3579478 60 96 85.1207274 56.4341327 124 31 98.468429"></polygon>
                        <path d="M31.2241892,98.2406757 L56.8539189,123.571757 L53.3268919,127.071757 C50.4755405,129.902838 45.8687838,129.879865 43.0458108,127.020405 L27.9404054,111.724459 C25.135,108.882568 25.1512162,104.306892 27.9768919,101.48527 L31.2241892,98.2406757 Z" id="Fill-2" stroke="#799EB2" stroke-width="2" fill="#B2D5E5"></path>
                        <path d="M115.157432,72.1578378 C106.116892,80.7010811 91.8628378,80.2983784 83.3182432,71.2578378 C74.775,62.2172973 75.1790541,47.9632432 84.2182432,39.42 L115.157432,72.1578378 Z" id="Fill-4" stroke="#799EB2" stroke-width="2" fill="#B2D5E5" transform="translate(96.161599, 58.865401) rotate(-4.000000) translate(-96.161599, -58.865401) "></path>
                        <path d="M113.360405,46.6648649 C113.360405,49.4364865 111.113108,51.6824324 108.341486,51.6824324 C105.569865,51.6824324 103.322568,49.4364865 103.322568,46.6648649 C103.322568,43.8932432 105.569865,41.6459459 108.341486,41.6459459 C111.113108,41.6459459 113.360405,43.8932432 113.360405,46.6648649" id="Fill-6" stroke="#799EB2" stroke-width="2" fill="#B2D5E5"></path>
                        <path d="M151.507027,51.1855405 C152.346216,51.7341892 153.486757,51.3193243 153.766486,50.3558108 C156.619189,40.5693243 152.886757,27.417973 143.089459,16.3882432 C131.789459,3.67202703 115.95027,-2.24959459 104.332703,0.957162162 C103.735405,1.12202703 103.348919,1.69905405 103.386757,2.31662162 C103.436757,3.15175676 104.238108,3.73148649 105.044865,3.51121622 C115.389459,0.692297297 129.911081,6.41527027 140.471892,18.3017568 C149.613784,28.5895946 153.294865,40.6868919 150.896216,49.5031081 C150.721892,50.1436486 150.951622,50.822027 151.507027,51.1855405" id="Fill-8" fill="#799EB2"></path>
                        <path d="M126.137568,57.5028378 C126.626757,58.0960811 127.536216,58.1244595 128.053784,57.5541892 C132.938919,52.1663514 131.655135,41.7677027 124.818649,33.4663514 C117.971351,25.1501351 107.987568,21.8960811 101.764595,25.6906757 C101.126757,26.0798649 100.983514,26.9501351 101.456486,27.5258108 C101.84027,27.9906757 102.507838,28.1122973 103.02,27.7947297 C108.217297,24.5595946 116.876757,27.5852703 122.94973,34.9595946 C129.010541,42.3217568 130.322703,51.3825676 126.175405,55.8704054 C125.755135,56.3271622 125.744324,57.0244595 126.137568,57.5028378" id="Fill-11" fill="#799EB2"></path>
                        <polygon id="Fill-17" stroke="#799EB2" stroke-width="2" fill="#B2D5E5" points="97.1751351 98.2406757 76.0197297 119.367703 87.6278378 131.456892 109.264324 110.04473"></polygon>
                        <polygon id="Fill-19" stroke="#799EB2" stroke-width="2" fill-opacity="0.3" fill="#B2D5E5" points="108.882027 109.946892 87.7252703 131.073919 99.3347297 143.163108 120.969865 121.750946"></polygon>
                        <polygon id="Fill-21" stroke="#799EB2" stroke-width="2" fill="#B2D5E5" points="120.718243 121.784459 99.5628378 142.910135 111.170946 155.000676 132.807432 133.588514"></polygon>
                        <polygon id="Fill-24" stroke="#799EB2" stroke-width="2" fill="#B2D5E5" points="21.1563514 22.5235135 0.000945945946 43.6505405 11.6090541 55.7397297 33.2441892 34.3275676"></polygon>
                        <polygon id="Fill-26" stroke="#799EB2" stroke-width="2" fill-opacity="0.3" fill="#B2D5E5" points="32.8618919 34.2297297 11.7064865 55.3567568 23.3145946 67.4459459 44.9510811 46.0337838"></polygon>
                        <polygon id="Fill-28" stroke="#799EB2" stroke-width="2" fill="#B2D5E5" points="44.6993243 46.0671622 23.5439189 67.1941892 35.152027 79.2833784 56.7885135 57.8712162"></polygon>
                    </g>
                </g>
            </g>
        </g>
    </g>
</svg>