<?xml version="1.0" encoding="UTF-8"?>
<svg width="325px" height="241px" viewBox="0 0 325 241" version="1.1" xmlns="http://www.w3.org/2000/svg" xmlns:xlink="http://www.w3.org/1999/xlink">
    <!-- Generator: Sketch 49.3 (51167) - http://www.bohemiancoding.com/sketch -->
    <title>Group 8 Copy</title>
    <desc>Created with Sketch.</desc>
    <defs></defs>
    <g id="Design-Final" stroke="none" stroke-width="1" fill="none" fill-rule="evenodd">
        <g id="FAQ-Empty-search" transform="translate(-1027.000000, -294.000000)">
            <g id="Group-8-Copy" transform="translate(1027.000000, 294.000000)">
                <g id="Group-4" opacity="0.5" fill="#B2D5E5" fill-opacity="0.599999964">
                    <path d="M246.178999,27.7869254 L232.080233,27.7869254 C228.844729,27.7869254 225.944956,25.5325809 225.373712,22.3319542 C225.364847,22.2808247 225.356367,22.2289205 225.347887,22.1777911 C224.699167,18.1226825 228.059944,14.5203796 232.146917,14.5203796 C235.920515,14.5203796 239.290158,11.7481557 239.64863,7.97348452 C240.059139,3.6429741 236.681402,0 232.457208,0 L194.235164,0 C190.461566,0 187.091923,2.77222389 186.733451,6.54689508 C186.322556,10.8774055 189.700293,14.5203796 193.924873,14.5203796 L198.940791,14.5203796 C200.382005,14.7140518 201.749598,15.4174692 202.598368,16.6046798 C203.253641,17.521524 203.705779,18.5429512 203.954782,19.6038875 C204.943473,23.8108351 201.527961,27.7869254 197.22629,27.7869254 L140.908319,27.7869254 C137.134721,27.7869254 133.764693,30.5591493 133.406606,34.3338204 C132.995326,38.6643309 136.373448,42.3076923 140.597643,42.3076923 L246.489675,42.3076923 C250.714255,42.3076923 254.091607,38.6643309 253.680712,34.3338204 C253.32224,30.5591493 249.952597,27.7869254 246.178999,27.7869254" id="Fill-26"></path>
                    <path d="M190.990319,185.479233 L176.891554,185.479233 C173.65605,185.479233 170.756276,183.224889 170.185033,180.024262 C170.176167,179.973132 170.167687,179.921228 170.159207,179.870099 C169.510488,175.81499 172.871265,172.212687 176.958238,172.212687 C180.731836,172.212687 184.101478,169.440463 184.459951,165.665792 C184.87046,161.335282 181.492723,157.692308 177.268528,157.692308 L139.046485,157.692308 C135.272886,157.692308 131.903244,160.464532 131.544771,164.239203 C131.133877,168.569713 134.511614,172.212687 138.736194,172.212687 L143.752112,172.212687 C145.193326,172.406359 146.560918,173.109777 147.409689,174.296988 C148.064961,175.213832 148.517099,176.235259 148.766103,177.296195 C149.754794,181.503143 146.339282,185.479233 142.037611,185.479233 L85.7196401,185.479233 C81.9460416,185.479233 78.5760138,188.251457 78.2179266,192.026128 C77.8066468,196.356639 81.1847691,200 85.4089639,200 L191.300996,200 C195.525576,200 198.902927,196.356639 198.492033,192.026128 C198.13356,188.251457 194.763918,185.479233 190.990319,185.479233" id="Fill-26-Copy"></path>
                    <path d="M317.490698,105.546496 L297.401436,105.546496 C294.851962,105.546496 292.473809,103.995427 291.666751,101.568389 C291.034088,99.6672411 291.07519,97.5690771 291.825781,95.681038 C292.31209,94.4565307 293.535162,93.6838881 294.848505,93.6838881 C298.609143,93.6838881 301.967212,90.9245056 302.32407,87.1673193 C302.733553,82.8568685 299.367801,79.2307692 295.15773,79.2307692 L189.938601,79.2307692 C186.178347,79.2307692 182.819893,81.9897662 182.463036,85.7473381 C182.053553,90.0577889 185.419689,93.6838881 189.629376,93.6838881 L264.108839,93.6838881 C267.369723,93.6838881 270.181175,96.2439412 270.22996,99.516491 C270.230728,99.5635281 270.231112,99.6105652 270.231112,99.6579879 C270.226118,102.952128 267.391235,105.546496 264.108455,105.546496 L212.581178,105.546496 C208.82054,105.546496 205.462086,108.305878 205.105229,112.06345 C204.695746,116.373901 208.061498,120 212.271569,120 L317.800307,120 C322.009994,120 325.375362,116.373901 324.966263,112.06345 C324.609021,108.305878 321.250952,105.546496 317.490698,105.546496" id="Fill-28"></path>
                    <path d="M139.418273,90.3856957 L118.680971,90.3856957 C116.049256,90.3856957 113.594389,88.7760965 112.761296,86.2574719 C112.108225,84.2845826 112.150652,82.1072426 112.925456,80.1479567 C113.427453,78.8772416 114.689979,78.0754427 116.045687,78.0754427 C119.927636,78.0754427 123.394031,75.2119326 123.7624,71.3129656 C124.185092,66.8398563 120.710767,63.0769231 116.364887,63.0769231 L7.75159326,63.0769231 C3.87004047,63.0769231 0.403249575,65.9400331 0.0348807383,69.8394002 C-0.387811598,74.3125095 3.08690974,78.0754427 7.43239314,78.0754427 L84.3144192,78.0754427 C87.6804935,78.0754427 90.5826372,80.7321016 90.6329955,84.1281438 C90.6337885,84.1769559 90.6341851,84.225768 90.6341851,84.2749802 C90.6290303,87.693428 87.7026987,90.3856957 84.3140226,90.3856957 L31.1245761,90.3856957 C27.2426268,90.3856957 23.7758359,93.2492058 23.4074671,97.1485728 C22.9847748,101.621682 26.4590996,105.384615 30.8049795,105.384615 L139.73787,105.384615 C144.083353,105.384615 147.557282,101.621682 147.134986,97.1485728 C146.766221,93.2492058 143.299826,90.3856957 139.418273,90.3856957" id="Fill-28-Copy" transform="translate(73.584906, 84.230769) scale(-1, 1) translate(-73.584906, -84.230769) "></path>
                    <path d="M227.880254,131.637074 L142.482563,131.637074 C141.664958,131.637074 140.853471,131.390534 140.203364,130.891685 C137.137535,128.537825 136.165052,124.456263 137.488976,121.047013 C137.782671,120.290086 138.528765,119.80316 139.336427,119.80316 C142.781995,119.80316 145.949164,117.482377 146.625658,114.084665 C147.54881,109.450408 144.049704,105.384615 139.606413,105.384615 L120.114289,105.384615 C116.669103,105.384615 113.501552,107.705398 112.825441,111.103494 C111.903053,115.737752 115.401395,119.80316 119.844686,119.80316 L122.428288,119.80316 C124.098298,119.80316 125.610371,120.880858 126.090303,122.489714 C127.037547,125.664347 126.327401,130.195527 123.296372,131.56515 C123.229449,131.59592 123.165968,131.637074 123.092544,131.637074 C120.049278,131.637074 117.247316,133.535546 116.310015,136.447486 C114.701191,141.445207 118.361294,146.055234 123.092544,146.055234 L142.846623,146.055234 C144.266534,146.055234 145.630229,146.815238 146.235976,148.107169 C147.424525,150.643337 147.299475,153.660662 145.855854,156.09183 C145.18089,157.229144 143.921977,157.889533 142.605319,157.889533 L140.272199,157.889533 C136.313429,157.889533 133.104194,161.116859 133.104194,165.09842 C133.104194,169.080366 136.313429,172.307692 140.271817,172.307692 L175.114117,172.307692 C179.072505,172.307692 182.282122,169.080366 182.282122,165.09842 C182.282122,161.116859 179.072505,157.889533 175.114117,157.889533 L163.435134,157.889533 C162.443529,157.889533 161.458808,157.53453 160.773519,156.814142 C158.745567,154.682591 158.023948,151.657574 158.701971,148.895635 C159.116128,147.207163 160.67868,146.055234 162.407582,146.055234 L228.15024,146.055234 C232.593148,146.055234 236.092254,141.989826 235.169867,137.355568 C234.492991,133.957857 231.325822,131.637074 227.880254,131.637074" id="Fill-31"></path>
                </g>
                <g id="Group-6" transform="translate(78.757669, 10.000000)">
                    <path d="M145.071857,102.267473 C101.2427,90.481853 57.9355745,78.836373 14.4375739,67.140843 C11.0240571,79.968273 7.78685042,92.131963 4.44692393,104.684503 C48.1618626,116.444713 91.4728213,128.097123 135.058977,139.822683 C138.435699,127.160803 141.680571,114.987103 145.071857,102.267473" id="Fill-1" fill="#B2D5E5"></path>
                    <path d="M98.7125738,132.87274 C94.5938166,131.78088 90.8989702,130.80067 86.9718545,129.75886 C86.6276665,133.42791 88.2374543,135.46225 90.9357654,136.34698 C93.9629331,137.33951 96.6704429,136.57721 98.7125738,132.87274 M167.115525,133.29624 C173.770082,135.07263 180.087349,136.75893 186.667549,138.5153 C187.531468,135.2351 188.264305,132.45078 189.092962,129.30379 C182.537293,127.52894 176.325812,125.84726 169.760943,124.06933 C168.901623,127.06617 168.102862,129.85126 167.115525,133.29624 M162.874118,137.73298 C164.685512,130.95236 166.354326,124.71074 168.125092,118.08797 C161.145512,116.19531 152.878102,113.86606 146.005074,112.16436 C146.005074,112.16436 145.368825,113.46951 145.154186,114.20717 C143.497638,119.90363 142.051895,125.66323 140.464338,131.69387 C148.006577,133.7259 155.202329,135.66553 162.874118,137.73298 M145.072164,102.26755 C101.243007,90.48193 57.9358812,78.83645 14.4378805,67.14092 C11.0235972,79.96835 7.78715705,92.13204 4.44646399,104.68458 C48.1621693,116.44479 91.4731279,128.0972 135.059284,139.82276 C138.435239,127.16088 141.680878,114.98641 145.072164,102.26755 M16.1266246,60.60747 C15.8107996,61.78326 15.5585995,63.29323 15.2412413,64.51214 C24.1234374,66.91223 33.1834767,69.36853 42.2465822,71.80712 C76.0797233,80.91006 109.8983,90.06382 143.768236,99.02354 C147.437019,99.99374 148.763178,100.70368 147.438552,105.0588 C146.891224,106.58725 146.571566,107.64292 146.172186,109.27301 C153.086608,111.17414 159.64611,113.2131 166.325196,114.7223 C170.070636,115.56853 171.68579,116.26538 170.11433,121.29887 C176.537384,123.06063 182.591719,124.91633 188.746475,126.32851 C191.698519,127.00534 192.307172,128.3128 191.606531,130.7845 C190.851464,133.44485 190.062668,136.10289 189.453248,138.80174 C188.931217,141.11405 187.941581,141.80243 185.551429,141.09403 C179.343781,139.25373 173.044144,137.72605 166.863325,136.09673 C164.752204,142.17434 164.214841,140.85687 158.778358,139.42467 C152.410497,137.74607 146.044169,136.06054 139.549825,134.34344 C139.118249,135.63473 138.815455,136.45632 138.566321,137.29485 C136.811653,143.19536 138.300323,143.46024 130.865403,141.52215 C122.11199,139.24141 113.378508,136.87982 104.672622,134.42198 C102.714046,133.86835 101.489841,133.94997 100.119222,135.75023 L100.080893,135.80028 C97.5711575,139.06662 97.5044663,143.60346 99.9183815,146.94141 C104.562236,153.36167 109.23982,159.83121 113.925069,166.29459 C124.97128,181.53674 136.025923,196.77273 147.075967,212.0118 C147.451584,212.53001 147.975915,213.00972 148.144559,213.59184 C148.360731,214.33489 148.285607,215.16341 148.3362,215.95497 C147.594165,215.73167 146.66892,215.71088 146.149955,215.23964 C145.315165,214.47965 144.747907,213.42475 144.071029,212.49151 C127.993848,190.30165 111.918967,168.11102 95.8371861,145.92347 C95.8149557,145.89344 95.7919587,145.86264 95.7697283,145.83184 C94.8299188,144.54594 92.7985199,145.22046 92.7985199,146.8159 L92.7985199,230.14915 C92.1891002,230.22307 91.5804471,230.29622 90.971794,230.37014 C90.6935306,229.00339 90.1760988,227.63664 90.1714994,226.26912 C90.1032751,204.96707 90.0994423,183.66502 90.0825778,162.36374 C90.078745,157.4111 90.0802781,152.45846 89.6870299,147.37877 C89.5666791,145.84262 87.6142365,145.27667 86.7104556,146.52176 C69.7164619,169.89665 52.7224683,193.27154 35.727708,216.6472 C35.2148756,216.41004 34.7012766,216.17365 34.1876777,215.93649 C34.7219739,214.62056 35.0217011,213.13215 35.8273616,212.01334 C45.4071324,198.7139 55.0650928,185.47067 64.6969901,172.20896 C71.1890345,163.27003 77.6772461,154.32648 83.9960466,145.61932 C86.6276665,141.99185 86.9841195,137.18397 84.9189917,133.20384 L84.8553667,133.08141 C83.3337339,130.14848 80.6622527,127.99248 77.4825384,127.13778 C53.6469464,120.72599 28.7465948,114.02699 3.97195986,107.36264 C3.7412236,107.62906 3.35487452,108.77944 3.01145311,109.78352 C2.74468827,110.56507 1.88613476,110.99473 1.1042378,110.73832 L1.06820922,110.72677 C0.269447823,110.46497 -0.184359036,109.60642 0.0716738876,108.80254 C0.230352975,108.30435 0.421227819,107.80154 0.586805997,107.17091 C4.51162207,92.21751 8.53762481,77.29183 12.5766592,62.36923 C12.8058623,61.52377 12.9714405,60.69294 13.3048965,59.87982 C13.5808601,59.20607 14.4049182,58.79104 15.1124583,58.95043 L15.1408212,58.95736 C15.8790239,59.12368 16.323632,59.87289 16.1266246,60.60747" id="Fill-3" fill="#799EB2"></path>
                    <path d="M169.644579,32.636604 L165.142539,32.636604 C164.582946,32.636604 164.129906,32.180764 164.129906,31.619434 L164.129906,27.097224 C164.129906,26.535124 163.676865,26.079284 163.116506,26.079284 C162.557679,26.079284 162.103873,26.535124 162.103873,27.097224 L162.103873,31.619434 C162.103873,32.180764 161.650832,32.636604 161.091239,32.636604 L156.589199,32.636604 C156.029607,32.636604 155.5758,33.092444 155.5758,33.653774 C155.5758,34.215874 156.029607,34.671714 156.589199,34.671714 L161.091239,34.671714 C161.650832,34.671714 162.103873,35.126784 162.103873,35.688884 L162.103873,40.211094 C162.103873,40.772424 162.557679,41.228264 163.116506,41.228264 C163.676865,41.228264 164.129906,40.772424 164.129906,40.211094 L164.129906,35.688884 C164.129906,35.126784 164.582946,34.671714 165.142539,34.671714 L169.644579,34.671714 C170.204172,34.671714 170.657212,34.215874 170.657212,33.653774 C170.657212,33.092444 170.204172,32.636604 169.644579,32.636604" id="Fill-5" fill="#10ADE4"></path>
                    <path d="M109.121079,46.655301 L104.619039,46.655301 C104.058679,46.655301 103.606405,46.199461 103.606405,45.638131 L103.606405,41.115921 C103.606405,40.553051 103.152599,40.097981 102.593006,40.097981 C102.033413,40.097981 101.580372,40.553051 101.580372,41.115921 L101.580372,45.638131 C101.580372,46.199461 101.126566,46.655301 100.566973,46.655301 L96.0649327,46.655301 C95.5053398,46.655301 95.0515329,47.110371 95.0515329,47.672471 C95.0515329,48.234571 95.5053398,48.690411 96.0649327,48.690411 L100.566973,48.690411 C101.126566,48.690411 101.580372,49.145481 101.580372,49.707581 L101.580372,54.229791 C101.580372,54.791121 102.033413,55.246961 102.593006,55.246961 C103.152599,55.246961 103.606405,54.791121 103.606405,54.229791 L103.606405,49.707581 C103.606405,49.145481 104.058679,48.690411 104.619039,48.690411 L109.121079,48.690411 C109.679905,48.690411 110.133712,48.234571 110.133712,47.672471 C110.133712,47.110371 109.679905,46.655301 109.121079,46.655301" id="Fill-7" fill="#10ADE4"></path>
                    <path d="M144.267807,54.833548 C144.267807,56.687708 142.77147,58.189978 140.92558,58.189978 C139.07969,58.189978 137.583354,56.687708 137.583354,54.833548 C137.583354,52.979388 139.07969,51.477118 140.92558,51.477118 C142.77147,51.477118 144.267807,52.979388 144.267807,54.833548" id="Fill-9" fill="#B2D5E5"></path>
                    <path d="M107.46821,10.343487 C105.62232,10.343487 104.12675,8.841217 104.12675,6.987057 C104.12675,5.132897 105.62232,3.629857 107.46821,3.629857 C109.313333,3.629857 110.809669,5.132897 110.809669,6.987057 C110.809669,8.841217 109.313333,10.343487 107.46821,10.343487 M107.46821,0.769307 C104.050094,0.769307 101.278959,3.553627 101.278959,6.987057 C101.278959,10.420487 104.050094,13.204037 107.46821,13.204037 C110.886326,13.204037 113.657461,10.420487 113.657461,6.987057 C113.657461,3.553627 110.886326,0.769307 107.46821,0.769307" id="Fill-11" fill="#799EB2"></path>
                    <path d="M176.846846,80.92931 C175.001723,80.92931 173.505387,79.42704 173.505387,77.57288 C173.505387,75.71872 175.001723,74.21568 176.846846,74.21568 C178.692736,74.21568 180.189072,75.71872 180.189072,77.57288 C180.189072,79.42704 178.692736,80.92931 176.846846,80.92931 M176.846846,71.35513 C173.42873,71.35513 170.657595,74.13945 170.657595,77.57288 C170.657595,81.00631 173.42873,83.78986 176.846846,83.78986 C180.265729,83.78986 183.036097,81.00631 183.036097,77.57288 C183.036097,74.13945 180.265729,71.35513 176.846846,71.35513" id="Fill-14" fill="#799EB2"></path>
                    <path d="M17.1578854,33.654005 C17.1578854,35.507395 15.6623158,37.010435 13.8164258,37.010435 C11.9697691,37.010435 10.4741996,35.507395 10.4741996,33.654005 C10.4741996,31.799845 11.9697691,30.297575 13.8164258,30.297575 C15.6623158,30.297575 17.1578854,31.799845 17.1578854,33.654005" id="Fill-16" fill="#B2D5E5"></path>
                    <path d="M61.2196951,35.137641 C54.2707775,34.476211 48.6211888,28.871381 47.8852858,21.899031 C47.3517561,16.837051 49.3417605,12.223211 52.7414791,9.155531 C51.093363,15.856071 53.5732028,20.342091 55.2627135,22.472681 C55.8790322,23.250381 56.7644156,23.794001 57.7509855,23.877931 C59.128504,23.994971 59.4220986,24.737251 59.4466287,25.285491 C59.4703923,25.839121 59.5623801,26.398141 59.8483091,26.872461 C63.0149918,32.106921 73.3996565,30.347471 73.679453,30.299731 C70.6599509,33.639991 66.1625103,35.608111 61.2196951,35.137641 M78.8146762,24.211341 C77.7545159,24.759581 76.6598602,25.362491 76.5924024,25.541131 C72.0052736,28.158361 67.6688118,27.255151 65.2081361,26.310361 C64.0874171,25.880701 63.2664253,24.921281 62.9797298,23.751651 C62.4576986,21.621061 60.6317392,20.901111 59.2718518,20.664721 C58.1434671,20.468371 57.1316005,19.803861 56.6256672,18.772061 C53.6352946,12.675201 56.8839998,6.501341 56.8839998,6.501341 L57.5056845,4.301451 C57.7479193,3.449831 56.9123627,2.696001 56.0890712,3.013241 C48.7913663,5.825281 43.7312666,13.174161 44.3307209,21.622601 C44.9616044,30.503011 52.0270399,37.798761 60.8502104,38.651151 C69.9907391,39.534341 77.92546,33.690811 80.3232774,25.469521 C80.5869759,24.567081 79.6471665,23.780911 78.8146762,24.211341" id="Fill-18" fill="#10ADE4"></path>
                    <path d="M98.7125738,132.87274 C94.5938166,131.78088 90.8989702,130.80067 86.9718545,129.75886 C86.6276665,133.42791 88.2374543,135.46225 90.9357654,136.34698 C93.9629331,137.33951 96.6704429,136.57721 98.7125738,132.87274" id="Fill-33" fill="#B2D5E5"></path>
                    <path d="M162.874271,137.732595 C164.685666,130.951975 166.354479,124.711125 168.125246,118.087585 C161.145666,116.194925 152.878255,113.866445 146.005228,112.164745 C146.005228,112.164745 145.368978,113.469125 145.15434,114.206785 C143.497791,119.904015 142.052049,125.662845 140.464491,131.693485 C148.005964,133.726285 155.202482,135.665145 162.874271,137.732595" id="Fill-35" fill="#B2D5E5"></path>
                    <path d="M167.115832,133.296086 C173.770388,135.073246 180.087656,136.758776 186.667855,138.515146 C187.531775,135.235716 188.264612,132.450626 189.093269,129.303636 C182.536833,127.528786 176.326118,125.847106 169.760484,124.069946 C168.90193,127.066016 168.103169,129.851106 167.115832,133.296086" id="Fill-37" fill="#B2D5E5"></path>
                    <path d="M30.6124922,80.859394 L117.324864,104.727854" id="Stroke-22" stroke="#799EB2" stroke-width="4" stroke-dasharray="6.015000000000001,6.015"></path>
                </g>
            </g>
        </g>
    </g>
</svg>