<svg width="40" height="40" viewBox="0 0 40 40" fill="none" xmlns="http://www.w3.org/2000/svg">
<circle cx="20" cy="20" r="20" fill="#ECF5FE"/>
<path d="M28.25 9.5H11.75C10.5074 9.5 9.5 10.5074 9.5 11.75V28.25C9.5 29.4926 10.5074 30.5 11.75 30.5H28.25C29.4926 30.5 30.5 29.4926 30.5 28.25V11.75C30.5 10.5074 29.4926 9.5 28.25 9.5Z" fill="white" stroke="#0C6CF2" stroke-width="2" stroke-linecap="round" stroke-linejoin="round"/>
<path d="M28.25 13.25L30.5 12.5V27.5C30.5 29.1569 29.1569 30.5 27.5 30.5H12.5C10.8431 30.5 9.5 29.1569 9.5 27.5V26.75L11.75 21.5L14.75 22.25L20 16.25L25.25 15.5L28.25 13.25Z" fill="#0C6CF2" fill-opacity="0.36" stroke="#0C6CF2" stroke-width="2" stroke-linecap="round" stroke-linejoin="round"/>
<path d="M20 20V30.5" stroke="#0C6CF2" stroke-width="2" stroke-linecap="round"/>
<path d="M14.75 24.5V30.5" stroke="#0C6CF2" stroke-width="2" stroke-linecap="round"/>
<path d="M20 9.5V12.5" stroke="#0C6CF2" stroke-width="2" stroke-linecap="round"/>
<path d="M25.25 18.5V30.5" stroke="#0C6CF2" stroke-width="2" stroke-linecap="round"/>
<path d="M20 17.75C20.8284 17.75 21.5 17.0784 21.5 16.25C21.5 15.4216 20.8284 14.75 20 14.75C19.1716 14.75 18.5 15.4216 18.5 16.25C18.5 17.0784 19.1716 17.75 20 17.75Z" fill="white" stroke="#0C6CF2" stroke-width="2"/>
</svg>
