<svg fill="none" height="40" viewBox="0 0 197 40" width="197" xmlns="http://www.w3.org/2000/svg"><g fill="#00b6c7"><path d="m0 30.9132h20.2264v-4.6943h-14.6264v-8.4378h13.4642v-4.6943h-13.4642v-8.39246h14.5057v-4.69434h-20.1057z"/><path d="m30.0453 7.7283h-5.7962l6.883 11.5925-7.0642 11.5924h5.7963l4.8603-8.3472 4.9057 8.3472h5.7509l-7.1094-11.5924 6.9887-11.5925h-5.7811l-4.7548 8.5585z"/><path d="m58.7283 31.366c5.8264 0 9.5396-3.4566 9.9321-8.3773h-5.2227c-.4679 2.4905-2.2641 3.9245-4.6641 3.9245-3.4113 0-5.6151-2.8528-5.6151-7.5924 0-4.6793 2.2491-7.4868 5.6151-7.4868 2.6264 0 4.2415 1.6905 4.6641 3.9245h5.2227c-.3774-5.0264-4.3019-8.33208-9.9623-8.33208-6.7924 0-11.0792 4.90568-11.0792 11.98488 0 7.0189 4.1811 11.9547 11.1094 11.9547z"/><path d="m78.6113 17.3283c0-3.3509 2.0831-5.283 5.0114-5.283 2.8679 0 4.5584 1.8264 4.5584 4.9509v13.917h5.4642v-14.7623c0-5.6-3.1698-8.72448-7.9849-8.72448-3.5623 0-5.8264 1.61509-6.8981 4.24148h-.2717v-11.6679h-5.3434v30.9132h5.4641z"/><path d="m105.887 31.3811c3.638 0 5.811-1.7056 6.807-3.6528h.181v3.1849h5.253v-15.517c0-6.12828-4.996-7.96978-9.419-7.96978-4.875 0-8.618 2.17358-9.826 6.39998l5.102.7245c.543-1.5849 2.083-2.9434 4.755-2.9434 2.535 0 3.924 1.2982 3.924 3.5774v.0906c0 1.5698-1.645 1.6453-5.736 2.083-4.498.483-8.7997 1.8264-8.7997 7.049 0 4.5585 3.3357 6.9736 7.7587 6.9736zm1.419-4.0151c-2.28 0-3.91-1.0415-3.91-3.049 0-2.0981 1.827-2.9736 4.272-3.3208 1.434-.1962 4.302-.5585 5.011-1.132v2.732c0 2.5812-2.083 4.7698-5.373 4.7698z"/><path d="m129.087 17.3283c0-3.3509 2.022-5.283 4.905-5.283 2.823 0 4.514 1.8566 4.514 4.9509v13.917h5.464v-14.7623c.015-5.5547-3.155-8.72448-7.94-8.72448-3.472 0-5.856 1.66037-6.913 4.24148h-.272v-3.9396h-5.222v23.1849h5.464z"/><path d="m159.608 40c6.264 0 10.883-2.8679 10.883-8.7094v-23.5623h-5.389v3.834h-.302c-.83-1.67551-2.566-4.13588-6.657-4.13588-5.358 0-9.569 4.19618-9.569 11.81888 0 7.5622 4.211 11.3358 9.554 11.3358 3.97 0 5.827-2.1283 6.672-3.8339h.272v4.3924c0 3.3208-2.264 4.7246-5.374 4.7246-3.29 0-4.74-1.5548-5.404-2.8227l-4.92 1.1925c.996 3.1547 4.332 5.766 10.234 5.766zm.045-13.7057c-3.608 0-5.51-2.8075-5.51-7.0792 0-4.2113 1.872-7.3057 5.51-7.3057 3.517 0 5.449 2.9132 5.449 7.3057 0 4.4226-1.962 7.0792-5.449 7.0792z"/><path d="m186.355 31.366c5.404 0 9.117-2.6415 10.083-6.6717l-5.102-.5735c-.74 1.9622-2.551 2.9886-4.906 2.9886-3.532 0-5.872-2.3245-5.917-6.2943h16.151v-1.6755c0-8.1358-4.89-11.71318-10.596-11.71318-6.642 0-10.974 4.87548-10.974 12.03018 0 7.2755 4.272 11.9094 11.261 11.9094zm-5.827-14.2339c.166-2.9585 2.355-5.4491 5.615-5.4491 3.14 0 5.253 2.2944 5.283 5.4491z"/></g></svg>