<svg width="159" height="94" viewBox="0 0 159 94" fill="none" xmlns="http://www.w3.org/2000/svg">
<rect width="1.6621" height="34.9041" transform="translate(156.415 21.4567) rotate(-180)" fill="#78FFD6"/>
<rect width="4.9863" height="14.9589" transform="translate(158.077 18.1325) rotate(-180)" fill="#78FFD6"/>
<rect width="1.6621" height="34.9041" transform="translate(149.768 50.5435) rotate(-180)" fill="#F45B69"/>
<rect width="4.9863" height="26.5936" transform="translate(151.43 47.2193) rotate(-180)" fill="#F45B69"/>
<rect width="1.24658" height="9.9726" transform="translate(142.911 48.05) rotate(-180)" fill="#78FFD6"/>
<rect width="4.9863" height="3.3242" transform="translate(144.781 45.5568) rotate(-180)" fill="#78FFD6"/>
<rect width="1.24658" height="49.863" transform="translate(136.262 43.8947) rotate(-180)" fill="#F45B69"/>
<rect width="4.9863" height="29.9178" transform="translate(138.131 34.7531) rotate(-180)" fill="#F45B69"/>
<rect width="1.24658" height="34.9041" transform="translate(129.615 4.00455) rotate(-180)" fill="#F45B69"/>
<rect width="4.9863" height="8.3105" transform="translate(131.484 0.680359) rotate(-180)" fill="#F45B69"/>
<rect width="1.24658" height="18.2831" transform="translate(122.965 8.99109) rotate(-180)" fill="#78FFD6"/>
<rect width="4.9863" height="11.6347" transform="translate(124.835 13.9774) rotate(-180)" fill="#78FFD6"/>
<rect width="1.24658" height="7.47945" transform="translate(116.318 20.6255) rotate(-180)" fill="#78FFD6"/>
<rect width="4.9863" height="4.15525" transform="translate(118.188 18.9635) rotate(-180)" fill="#78FFD6"/>
<rect width="1.24658" height="30.7489" transform="translate(109.669 37.2466) rotate(-180)" fill="#78FFD6"/>
<rect width="4.9863" height="17.4521" transform="translate(111.539 33.9224) rotate(-180)" fill="#78FFD6"/>
<rect width="1.24658" height="23.2694" transform="translate(103.02 9.82214) rotate(-180)" fill="#F45B69"/>
<rect width="4.9863" height="16.621" transform="translate(104.889 13.9774) rotate(-180)" fill="#F45B69"/>
<rect width="1.24658" height="14.1279" transform="translate(76.4269 0.68042) rotate(-180)" fill="#78FFD6"/>
<rect width="1.24658" height="24.9315" transform="translate(69.7776 0.680511) rotate(-180)" fill="#F45B69"/>
<rect width="1.24658" height="19.9452" transform="translate(63.1306 10.6527) rotate(-180)" fill="#78FFD6"/>
<rect width="4.9863" height="13.2968" transform="translate(65.0005 8.15958) rotate(-180)" fill="#78FFD6"/>
<rect width="1.24658" height="34.9041" transform="translate(56.4812 40.5706) rotate(-180)" fill="#78FFD6"/>
<rect width="4.9863" height="14.9589" transform="translate(58.3511 24.7807) rotate(-180)" fill="#78FFD6"/>
<rect width="1.24658" height="34.9041" transform="translate(49.8342 33.9225) rotate(-180)" fill="#F45B69"/>
<rect width="4.9863" height="14.9589" transform="translate(51.7041 27.2741) rotate(-180)" fill="#F45B69"/>
<rect width="1.24658" height="22.4384" transform="translate(43.1849 28.105) rotate(-180)" fill="#78FFD6"/>
<rect width="4.9863" height="68.9772" transform="translate(45.0548 78.7991) rotate(-180)" fill="#78FFD6"/>
<rect width="1.24658" height="14.9589" transform="translate(36.5355 73.8126) rotate(-180)" fill="#78FFD6"/>
<rect width="4.9863" height="1.6621" transform="translate(38.4054 67.1642) rotate(-180)" fill="#78FFD6"/>
<rect width="1.24658" height="35.7352" transform="translate(29.8887 70.4885) rotate(-180)" fill="#F45B69"/>
<rect width="4.9863" height="9.14155" transform="translate(31.7585 68.8265) rotate(-180)" fill="#F45B69"/>
<rect width="1.24658" height="34.9041" transform="translate(23.2393 73.8126) rotate(-180)" fill="#78FFD6"/>
<rect width="4.9863" height="8.3105" transform="translate(25.1091 67.1642) rotate(-180)" fill="#78FFD6"/>
<rect width="1.24658" height="29.9178" transform="translate(16.5923 68.8262) rotate(-180)" fill="#F45B69"/>
<rect width="4.9863" height="16.621" transform="translate(18.4622 68.8262) rotate(-180)" fill="#F45B69"/>
<rect width="1.24658" height="33.242" transform="translate(9.94287 88.7719) rotate(-180)" fill="#78FFD6"/>
<rect width="4.9863" height="33.242" transform="translate(11.8127 82.1235) rotate(-180)" fill="#78FFD6"/>
<rect width="1.24658" height="9.9726" transform="translate(3.29358 93.7577) rotate(-180)" fill="#78FFD6"/>
<rect width="4.9863" height="3.3242" transform="translate(5.16345 87.1093) rotate(-180)" fill="#78FFD6"/>
</svg>
