<svg fill="none" height="64" viewBox="0 0 64 64" width="64" xmlns="http://www.w3.org/2000/svg"><circle cx="32" cy="32" fill="#ecf5fe" r="32"/><g stroke="#0c6cf2" stroke-width="2"><path d="m45.75 14.5h-27.5c-2.0711 0-3.75 1.6789-3.75 3.75v27.5c0 2.0711 1.6789 3.75 3.75 3.75h27.5c2.0711 0 3.75-1.6789 3.75-3.75v-27.5c0-2.0711-1.6789-3.75-3.75-3.75z" fill="#fff" stroke-linecap="round" stroke-linejoin="round"/><path d="m45.75 20.75 3.75-1.25v27c0 1.6569-1.3431 3-3 3h-29c-1.6569 0-3-1.3431-3-3v-3.25l3.75-8.75 5 1.25 8.75-10 8.75-1.25z" fill="#0c6cf2" fill-opacity=".36" stroke-linecap="round" stroke-linejoin="round"/><path d="m32 32v17.5" stroke-linecap="round"/><path d="m23.25 39.5v10" stroke-linecap="round"/><path d="m32 14.5v5" stroke-linecap="round"/><path d="m40.75 29.5v20" stroke-linecap="round"/><path d="m32 28.25c1.3807 0 2.5-1.1193 2.5-2.5s-1.1193-2.5-2.5-2.5-2.5 1.1193-2.5 2.5 1.1193 2.5 2.5 2.5z" fill="#fff"/></g></svg>