<svg width="64" height="64" viewBox="0 0 64 64" fill="none" xmlns="http://www.w3.org/2000/svg">
<circle cx="32" cy="32" r="32" fill="#ECF5FE"/>
<path d="M45.75 14.5H18.25C16.1789 14.5 14.5 16.1789 14.5 18.25V45.75C14.5 47.8211 16.1789 49.5 18.25 49.5H45.75C47.8211 49.5 49.5 47.8211 49.5 45.75V18.25C49.5 16.1789 47.8211 14.5 45.75 14.5Z" fill="white" stroke="#0C6CF2" stroke-width="2" stroke-linecap="round" stroke-linejoin="round"/>
<path d="M45.75 20.75L49.5 19.5V46.5C49.5 48.1569 48.1569 49.5 46.5 49.5H17.5C15.8431 49.5 14.5 48.1569 14.5 46.5V43.25L18.25 34.5L23.25 35.75L32 25.75L40.75 24.5L45.75 20.75Z" fill="#0C6CF2" fill-opacity="0.36" stroke="#0C6CF2" stroke-width="2" stroke-linecap="round" stroke-linejoin="round"/>
<path d="M32 32V49.5" stroke="#0C6CF2" stroke-width="2" stroke-linecap="round"/>
<path d="M23.25 39.5V49.5" stroke="#0C6CF2" stroke-width="2" stroke-linecap="round"/>
<path d="M32 14.5V19.5" stroke="#0C6CF2" stroke-width="2" stroke-linecap="round"/>
<path d="M40.75 29.5V49.5" stroke="#0C6CF2" stroke-width="2" stroke-linecap="round"/>
<path d="M32 28.25C33.3807 28.25 34.5 27.1307 34.5 25.75C34.5 24.3693 33.3807 23.25 32 23.25C30.6193 23.25 29.5 24.3693 29.5 25.75C29.5 27.1307 30.6193 28.25 32 28.25Z" fill="white" stroke="#0C6CF2" stroke-width="2"/>
</svg>
