<svg fill="none" height="32" viewBox="0 0 33 32" width="33" xmlns="http://www.w3.org/2000/svg"><g stroke="#98a1b2" stroke-width="2"><g stroke-linecap="round"><path d="m27.5 2h-22c-1.65685 0-3 1.34315-3 3v22c0 1.6569 1.34315 3 3 3h22c1.6569 0 3-1.3431 3-3v-22c0-1.65685-1.3431-3-3-3z" fill="#fff" stroke-linejoin="round"/><path d="m27.5 7 3-1v21c0 1.6569-1.3431 3-3 3h-22c-1.65685 0-3-1.3431-3-3v-2l3-7 4 1 7-8 7-1z" fill="#98a1b2" fill-opacity=".36" stroke-linejoin="round"/><path d="m16.5 16v14"/><path d="m9.5 22v8"/><path d="m16.5 2v4"/><path d="m23.5 14v16"/></g><path d="m16.5 13c1.1046 0 2-.8954 2-2 0-1.10457-.8954-2-2-2s-2 .89543-2 2c0 1.1046.8954 2 2 2z" fill="#fff"/></g></svg>