<svg fill="none" height="48" viewBox="0 0 48 48" width="48" xmlns="http://www.w3.org/2000/svg" xmlns:xlink="http://www.w3.org/1999/xlink"><clipPath id="a"><path d="m9 8.99976h30v30h-30z"/></clipPath><circle cx="24" cy="24" fill="#fff2e5" r="24"/><g clip-path="url(#a)"><path d="m33.5899 15.1232 4.081 11.7266-13.6707 2.775-13.6706-2.775 4.0809-11.7266c.6899-1.9824 2.5589-3.3109 4.6578-3.3109 2.7238 0 4.9319 2.208 4.9319 4.9318 0-2.7238 2.2081-4.9318 4.9319-4.9318 2.0989 0 3.9679 1.3285 4.6578 3.3109z" fill="#f5a250" fill-opacity=".36"/><g stroke="#f5a250" stroke-width="2"><path d="m24.0002 29.6248 13.6707-2.775-4.081-11.7266c-.6899-1.9824-2.5589-3.3109-4.6578-3.3109-2.7238 0-4.9319 2.208-4.9319 4.9318m0 12.8807v-12.8807zm0 0-13.6706-2.775 4.0809-11.7266c.6899-1.9824 2.5589-3.3109 4.6578-3.3109 2.7238 0 4.9319 2.208 4.9319 4.9318z" stroke-linecap="round" stroke-linejoin="round"/><path d="m16.9688 36.1873c3.8832 0 7.0312-3.148 7.0312-7.0313 0-3.8832-3.148-7.0312-7.0312-7.0312-3.8833 0-7.0313 3.148-7.0313 7.0312 0 3.8833 3.148 7.0313 7.0313 7.0313z" fill="#fff"/><path d="m31.0312 36.1873c3.8833 0 7.0313-3.148 7.0313-7.0313 0-3.8832-3.148-7.0312-7.0313-7.0312-3.8832 0-7.0312 3.148-7.0312 7.0312 0 3.8833 3.148 7.0313 7.0312 7.0313z" fill="#fff"/></g><path d="m19.3125 29.156c0 .5178.4197.9375.9375.9375s.9375-.4197.9375-.9375zm-2.3437-4.2187c-.5178 0-.9376.4197-.9376.9375 0 .5177.4198.9375.9376.9375zm0 1.875c1.2944 0 2.3437 1.0493 2.3437 2.3437h1.875c0-2.33-1.8888-4.2187-4.2187-4.2187z" fill="#f5a250"/><path d="m33.375 29.156c0 .5178.4197.9375.9375.9375s.9375-.4197.9375-.9375zm-2.3438-4.2187c-.5177 0-.9374.4197-.9374.9375 0 .5177.4197.9375.9374.9375zm0 1.875c1.2945 0 2.3438 1.0493 2.3438 2.3437h1.875c0-2.33-1.8888-4.2187-4.2188-4.2187z" fill="#f5a250"/></g></svg>