<svg xmlns="http://www.w3.org/2000/svg" viewBox="0 0 24.21 24.21"><defs><style>.cls-1{fill:#fff;}.cls-2{fill:#094b7c;}</style></defs><title>Asset 83</title><g id="Layer_2" data-name="Layer 2"><g id="Layer_1-2" data-name="Layer 1"><circle class="cls-1" cx="12.1" cy="12.1" r="12.1"/><g id="ApSTdd"><path class="cls-2" d="M15.43,5s0,.09,0,.14c0,.73,0,1.47,0,2.2,0,.1,0,.13-.13.13H14.1a2.46,2.46,0,0,0-.41,0,.54.54,0,0,0-.45.53c0,.52,0,1,0,1.55,0,.09.06.08.12.08h2.1l-.26,2.46h-2c0,.06,0,.11,0,.15q0,3.43,0,6.86s0,.08,0,.13H10.55s0-.08,0-.13q0-3.42,0-6.84c0-.05,0-.1,0-.17H8.78s0-.09,0-.12c0-.74,0-1.47,0-2.21,0-.1,0-.13.13-.13h1.53c.11,0,.13,0,.13-.14,0-.66,0-1.32,0-2a3.25,3.25,0,0,1,.34-1.38,1.87,1.87,0,0,1,1.13-1c.28-.09.58-.13.87-.19L13,5Z"/></g></g></g></svg>