<svg fill="none" height="32" viewBox="0 0 32 32" width="32" xmlns="http://www.w3.org/2000/svg" xmlns:xlink="http://www.w3.org/1999/xlink"><clipPath id="a"><path d="m0 0h32v32h-32z"/></clipPath><g clip-path="url(#a)"><g fill="#333f50"><path d="m8.11268 22.3099h-6.53521c-.901412 0-1.57747.6761-1.57747 1.5775v6.5352c0 .9014.676058 1.5775 1.57747 1.5775h6.53521c.9014 0 1.57746-.6761 1.57746-1.5775v-6.5352c0-.9014-.67606-1.5775-1.57746-1.5775z"/><path d="m1.57747 20.7324h17.57743c.9014 0 1.5775-.676 1.5775-1.5774v-6.5352c0-.9014-.6761-1.5775-1.5775-1.5775h-17.57743c-.901412 0-1.57747.6761-1.57747 1.5775v6.5352c0 .9014.676058 1.5774 1.57747 1.5774z"/><path d="m30.4225 0h-28.84503c-.901412 0-1.57747.676058-1.57747 1.57747v6.53521c0 .9014.676058 1.57746 1.57747 1.57746h28.84503c.9014 0 1.5775-.67606 1.5775-1.57746v-6.53521c0-.901412-.6761-1.57747-1.5775-1.57747z"/></g><path d="m30.4226 11.2676h-6.5352c-.9014 0-1.5775.676-1.5775 1.5774v6.5353c0 .9014.6761 1.5774 1.5775 1.5774h6.5352c.9014 0 1.5775-.676 1.5775-1.5774v-6.5353c0-.9014-.6761-1.5774-1.5775-1.5774z" fill="#23b6bd"/><path d="m30.4225 22.3099h-17.5774c-.9014 0-1.5775.6761-1.5775 1.5775v6.5352c0 .9014.6761 1.5775 1.5775 1.5775h17.5774c.9014 0 1.5775-.6761 1.5775-1.5775v-6.5352c0-.9014-.6761-1.5775-1.5775-1.5775z" fill="#23b6bd"/></g></svg>