<svg width="32" height="32" viewBox="0 0 32 32" fill="none" xmlns="http://www.w3.org/2000/svg">
<g clip-path="url(#clip0)">
<path d="M8.11268 22.3099H1.57747C0.676058 22.3099 0 22.986 0 23.8874V30.4226C0 31.324 0.676058 32.0001 1.57747 32.0001H8.11268C9.01408 32.0001 9.69014 31.324 9.69014 30.4226V23.8874C9.69014 22.986 9.01408 22.3099 8.11268 22.3099Z" fill="#333F50"/>
<path d="M1.57747 20.7324H19.1549C20.0563 20.7324 20.7324 20.0564 20.7324 19.155V12.6198C20.7324 11.7184 20.0563 11.0423 19.1549 11.0423H1.57747C0.676058 11.0423 0 11.7184 0 12.6198V19.155C0 20.0564 0.676058 20.7324 1.57747 20.7324Z" fill="#333F50"/>
<path d="M30.4225 0H1.57747C0.676058 0 0 0.676058 0 1.57747V8.11268C0 9.01408 0.676058 9.69014 1.57747 9.69014H30.4225C31.3239 9.69014 32 9.01408 32 8.11268V1.57747C32 0.676058 31.3239 0 30.4225 0Z" fill="#333F50"/>
<path d="M30.4226 11.2676H23.8874C22.986 11.2676 22.3099 11.9436 22.3099 12.845V19.3803C22.3099 20.2817 22.986 20.9577 23.8874 20.9577H30.4226C31.324 20.9577 32.0001 20.2817 32.0001 19.3803V12.845C32.0001 11.9436 31.324 11.2676 30.4226 11.2676Z" fill="#23B6BD"/>
<path d="M30.4225 22.3099H12.8451C11.9437 22.3099 11.2676 22.986 11.2676 23.8874V30.4226C11.2676 31.324 11.9437 32.0001 12.8451 32.0001H30.4225C31.3239 32.0001 32 31.324 32 30.4226V23.8874C32 22.986 31.3239 22.3099 30.4225 22.3099Z" fill="#23B6BD"/>
</g>
<defs>
<clipPath id="clip0">
<rect width="32" height="32" fill="white"/>
</clipPath>
</defs>
</svg>
