<svg width="16" height="16" viewBox="0 0 16 16" fill="none" xmlns="http://www.w3.org/2000/svg">
<path fill-rule="evenodd" clip-rule="evenodd" d="M2 3.33337C2 2.2288 2.89543 1.33337 4 1.33337H8C9.10457 1.33337 10 2.2288 10 3.33337V7.33337H10.6667C11.403 7.33337 12 7.93033 12 8.66671V11.6667C12 11.8508 12.1492 12 12.3333 12C12.5174 12 12.6667 11.8508 12.6667 11.6667L12.6667 6.66671C11.9303 6.66671 11.3333 6.06975 11.3333 5.33337C11.3333 4.86528 11.5745 4.45353 11.9394 4.21563L10.8619 3.13811C10.6016 2.87776 10.6016 2.45565 10.8619 2.1953C11.1223 1.93495 11.5444 1.93495 11.8047 2.1953L13.4142 3.80478C13.7893 4.17985 14 4.68856 14 5.21899V5.33337V11.6667C14 12.5872 13.2538 13.3334 12.3333 13.3334C11.4129 13.3334 10.6667 12.5872 10.6667 11.6667V8.66671H10V13.6667C10 14.219 9.55228 14.6667 9 14.6667H3C2.44772 14.6667 2 14.219 2 13.6667V3.33337ZM3.33333 3.66671C3.33333 3.11442 3.78105 2.66671 4.33333 2.66671H7.66667C8.21895 2.66671 8.66667 3.11442 8.66667 3.66671V5.66671C8.66667 6.21899 8.21895 6.66671 7.66667 6.66671H4.33333C3.78105 6.66671 3.33333 6.21899 3.33333 5.66671V3.66671Z" fill="#98A1B2"/>
</svg>
