<svg fill="none" height="32" viewBox="0 0 32 32" width="32" xmlns="http://www.w3.org/2000/svg" xmlns:xlink="http://www.w3.org/1999/xlink"><clipPath id="a"><path d="m0 0h32v32h-32z"/></clipPath><g clip-path="url(#a)"><path d="m16 0c-8.832 0-16 7.168-16 16s7.168 16 16 16 16-7.168 16-16-7.168-16-16-16zm-1.6 28.688c-6.32-.784-11.2-6.16-11.2-12.688 0-.992.20005-3 2.00005-3s3 5.4 4.2 6.6c1.19995 1.2 2.99995.04 2.99995 1.8s.24 4.2 2 4.2 0 3.088 0 3.088zm11.04-4.064c-.416-1.296-1.6-2.224-3.04-2.224 0 0-1.0072.1976-1.6 0-1.7783-.5928 0-3.92 0-4.8s-.72-1.6-1.6-1.6c0 0-7.4144 4.1567-8.6.6-.3951-1.1855-1.88366-2.9163-1-3.8.8837-.8837 3.2 0 3.2 0 .88 0 1.6-.72 1.6-1.6 0 0-.8837-2.31634 0-3.2s1.44 0 3.2 0 3.2-1.44 3.2-3.2v-.656c4.688 1.904 8 6.496 8 11.856 0 3.328-1.28 6.352-3.36 8.624z" fill="#0c6cf2"/></g></svg>