<svg width="32" height="32" viewBox="0 0 32 32" fill="none" xmlns="http://www.w3.org/2000/svg">
<g clip-path="url(#clip0_6989_68645)">
<path d="M16.0006 32.0013C24.8376 32.0013 32.0013 24.8376 32.0013 16.0006C32.0013 7.16373 24.8376 0 16.0006 0C7.16373 0 0 7.16373 0 16.0006C0 24.8376 7.16373 32.0013 16.0006 32.0013Z" fill="#616161"/>
<path d="M16.0006 26.1825C10.3766 26.1825 5.81877 21.6247 5.81877 16.0006C5.81877 10.3766 10.3766 5.81877 16.0006 5.81877C18.8114 5.81877 21.3565 6.95854 23.2003 8.801L27.3146 4.68673C24.4187 1.79089 20.4179 0 16.0006 0C7.16354 0 0 7.16354 0 16.0006C0 24.8377 7.16354 32.0013 16.0006 32.0013C20.4192 32.0013 24.4187 30.2104 27.3159 27.3158L23.2016 23.2016C21.3565 25.0427 18.8114 26.1825 16.0006 26.1825Z" fill="#9E9E9E"/>
<path d="M26.1826 16.0006H21.0911C21.0911 13.1899 18.8115 10.9091 15.9995 10.9091C13.1874 10.9091 10.9092 13.1886 10.9092 16.0006C10.9092 17.3699 11.4507 18.6115 12.3313 19.5283L12.3274 19.5321L18.631 25.8357L18.6323 25.837C22.9799 24.6766 26.1826 20.7132 26.1826 16.0006Z" fill="#424242"/>
<path d="M31.9999 16.0007H26.1811C26.1811 20.7132 22.9771 24.6766 18.6321 25.837L23.1254 30.3303C28.3859 27.7091 31.9999 22.2772 31.9999 16.0007Z" fill="#616161"/>
<path d="M16.0006 31.8182C7.19449 31.8182 0.0515734 24.7037 0.00128934 15.9091C0.00128934 15.9401 0 15.9697 0 16.0007C0 24.8378 7.16354 32.0013 16.0006 32.0013C24.8377 32.0013 32.0013 24.8378 32.0013 16.0007C32.0013 15.9697 32 15.9401 32 15.9091C31.9497 24.7037 24.8055 31.8182 16.0006 31.8182Z" fill="#212121" fill-opacity="0.1"/>
<path d="M18.6335 25.837L18.7754 25.9788C23.0482 24.772 26.1826 20.8447 26.1826 16.1825V16.0007C26.1826 20.7132 22.9786 24.6766 18.6335 25.837Z" fill="white" fill-opacity="0.05"/>
<path d="M29.0919 14.5457H16C15.1968 14.5457 14.5457 15.1968 14.5457 16.0001C14.5457 16.8034 15.1968 17.4545 16 17.4545H29.0906C29.8938 17.4545 30.5449 16.8034 30.5449 16.0001C30.5462 15.1968 29.8951 14.5457 29.0919 14.5457Z" fill="#9E9E9E"/>
<path opacity="0.5" d="M29.0919 14.5457H16C15.1968 14.5457 14.5457 15.1968 14.5457 16.0001C14.5457 16.8034 15.1968 17.4545 16 17.4545H29.0906C29.8938 17.4545 30.5449 16.8034 30.5449 16.0001C30.5462 15.1968 29.8951 14.5457 29.0919 14.5457Z" fill="#BDBDBD"/>
<path d="M2.90865 17.0915C3.51107 17.0915 3.99943 16.6031 3.99943 16.0007C3.99943 15.3983 3.51107 14.9099 2.90865 14.9099C2.30623 14.9099 1.81787 15.3983 1.81787 16.0007C1.81787 16.6031 2.30623 17.0915 2.90865 17.0915Z" fill="#BDBDBD"/>
<path d="M16.0004 3.99955C16.6029 3.99955 17.0912 3.51119 17.0912 2.90877C17.0912 2.30635 16.6029 1.81799 16.0004 1.81799C15.398 1.81799 14.9097 2.30635 14.9097 2.90877C14.9097 3.51119 15.398 3.99955 16.0004 3.99955Z" fill="#BDBDBD"/>
<path d="M16.0004 30.182C16.6029 30.182 17.0912 29.6937 17.0912 29.0913C17.0912 28.4888 16.6029 28.0005 16.0004 28.0005C15.398 28.0005 14.9097 28.4888 14.9097 29.0913C14.9097 29.6937 15.398 30.182 16.0004 30.182Z" fill="#BDBDBD"/>
<path d="M6.72774 7.83402C7.33016 7.83402 7.81852 7.34566 7.81852 6.74324C7.81852 6.14082 7.33016 5.65247 6.72774 5.65247C6.12532 5.65247 5.63696 6.14082 5.63696 6.74324C5.63696 7.34566 6.12532 7.83402 6.72774 7.83402Z" fill="#BDBDBD"/>
<path d="M6.72774 26.3644C7.33016 26.3644 7.81852 25.876 7.81852 25.2736C7.81852 24.6712 7.33016 24.1828 6.72774 24.1828C6.12532 24.1828 5.63696 24.6712 5.63696 25.2736C5.63696 25.876 6.12532 26.3644 6.72774 26.3644Z" fill="#BDBDBD"/>
<path d="M25.2736 26.3644C25.8761 26.3644 26.3644 25.876 26.3644 25.2736C26.3644 24.6712 25.8761 24.1828 25.2736 24.1828C24.6712 24.1828 24.1829 24.6712 24.1829 25.2736C24.1829 25.876 24.6712 26.3644 25.2736 26.3644Z" fill="#757575"/>
<path d="M16.0008 14.7281H29.0914C29.8637 14.7281 30.4955 15.3315 30.5406 16.0922C30.5419 16.0612 30.5457 16.0316 30.5457 16.0006C30.5457 15.1974 29.8946 14.5463 29.0914 14.5463H16.0008C15.1975 14.5463 14.5464 15.1974 14.5464 16.0006C14.5464 16.0316 14.5477 16.0612 14.5515 16.0922C14.5967 15.3315 15.2272 14.7281 16.0008 14.7281Z" fill="white" fill-opacity="0.2"/>
<path d="M30.5406 16.0909C30.4929 16.8503 29.8624 17.455 29.0914 17.455H16.0008C15.2284 17.455 14.5967 16.8516 14.5515 16.0909C14.5477 16.1218 14.5464 16.1515 14.5464 16.1811C14.5464 16.9844 15.1975 17.6355 16.0008 17.6355H29.0914C29.8946 17.6355 30.5457 16.9844 30.5457 16.1811C30.5457 16.1515 30.5445 16.1218 30.5406 16.0909Z" fill="#212121" fill-opacity="0.2"/>
<path d="M16.0007 6.00055C18.8115 6.00055 21.3566 7.14032 23.2003 8.98278L27.4036 4.77697C27.3726 4.74602 27.343 4.71508 27.3133 4.68542L23.2003 8.79969C21.3566 6.95723 18.8115 5.81746 16.0007 5.81746C10.3766 5.81746 5.81885 10.3753 5.81885 15.9993C5.81885 16.0303 5.82014 16.0599 5.82014 16.0909C5.86913 10.5093 10.4076 6.00055 16.0007 6.00055Z" fill="#212121" fill-opacity="0.1"/>
<path d="M16.0006 32.0013C24.8376 32.0013 32.0013 24.8376 32.0013 16.0006C32.0013 7.16373 24.8376 0 16.0006 0C7.16373 0 0 7.16373 0 16.0006C0 24.8376 7.16373 32.0013 16.0006 32.0013Z" fill="url(#paint0_radial_6989_68645)"/>
</g>
<defs>
<radialGradient id="paint0_radial_6989_68645" cx="0" cy="0" r="1" gradientUnits="userSpaceOnUse" gradientTransform="translate(4.69229 4.65585) scale(31.946)">
<stop stop-color="white" stop-opacity="0.1"/>
<stop offset="1" stop-color="white" stop-opacity="0"/>
</radialGradient>
<clipPath id="clip0_6989_68645">
<rect width="32" height="32" fill="white"/>
</clipPath>
</defs>
</svg>
