<svg width="480" height="164" viewBox="0 0 480 164" fill="none" xmlns="http://www.w3.org/2000/svg">
<rect width="480.469" height="164" fill="white"/>
<mask id="mask0" mask-type="alpha" maskUnits="userSpaceOnUse" x="0" y="0" width="481" height="164">
<rect x="0.640625" y="0.640625" width="479.188" height="162.719" rx="0.640625" fill="#C4C4C4" stroke="#339F7B" stroke-width="1.28125"/>
</mask>
<g mask="url(#mask0)">
<path d="M9.42383 107.141L7.49713 110.196C6.52123 111.744 4.81971 112.682 2.99026 112.682C0.0475368 112.682 -2.33801 115.068 -2.33801 118.01V148.625C-2.33801 157.116 4.54563 164 13.037 164H483.976V57.7105L466.688 19.7629C464.163 14.2213 457.267 12.2717 452.215 15.671L450.892 16.561C448.022 18.4917 444.22 18.2855 441.576 16.0557L440.207 14.9008C438.22 13.2257 435.335 13.1619 433.277 14.7476C431.572 16.0606 429.26 16.2641 427.353 15.2691L415.904 9.29749C415.249 8.95603 414.561 8.68413 413.849 8.48625C410.829 7.64616 407.592 8.19035 405.013 9.97172L401.286 12.5456C397.375 15.2471 392.332 15.6953 388.005 13.7258L385.912 12.7729C384.849 12.2889 383.953 11.5012 383.336 10.5089L382.861 9.74357C380.289 5.60224 374.007 6.56909 372.799 11.2921C372.674 11.7822 372.482 12.2528 372.228 12.6907L364.102 26.7476C362.867 28.8835 360.192 29.7031 357.973 28.6254C354.848 27.108 351.212 29.3842 351.212 32.8583V78.6861C351.212 83.9805 348.16 88.8004 343.374 91.0638C340.877 92.2446 338.081 92.6427 335.354 92.2057L318.6 89.5212C316.377 89.165 314.103 89.3013 311.938 89.9207L298.587 93.7409C296.102 94.4519 293.478 94.525 290.958 93.9535L272.306 89.7241C270.144 89.2341 267.902 89.217 265.734 89.6742L255.901 91.7472C252.437 92.4776 248.827 91.99 245.68 90.3668L239.413 87.1331C233.559 84.1135 226.373 85.954 222.692 91.4154C221.196 93.6339 219.052 95.3364 216.553 96.29L206.379 100.171C200.461 102.429 193.763 100.826 189.508 96.1339L184.274 90.3608C181.936 87.7827 177.765 88.2301 176.027 91.2453C172.607 97.1789 165.004 99.1827 159.104 95.705L156.557 94.2036C153.796 92.5762 151.618 90.1201 150.333 87.1843L139.193 61.733C137.252 57.2971 130.809 57.7796 129.55 62.4551L119.926 98.1859C118.644 102.947 112.472 104.194 109.442 100.305C107.357 97.6296 103.467 97.2231 100.875 99.4095L91.6223 107.213C89.6414 108.884 87.2703 110.027 84.7293 110.536L76.3564 112.213C74.8229 112.52 73.2348 112.407 71.7602 111.886L68.7616 110.826C66.9674 110.192 64.9693 110.797 63.8286 112.32C62.6613 113.879 60.6006 114.472 58.7832 113.773L34.4991 104.43C33.6102 104.088 32.6915 103.829 31.7547 103.657L21.6139 101.795C16.8399 100.919 12.013 103.036 9.42383 107.141Z" fill="url(#paint0_linear)"/>
<path d="M482.807 57.6149L466.351 19.2285C463.812 13.3048 456.432 11.2687 451.215 15.0525L449.687 16.16C446.858 18.2122 442.995 18.0787 440.314 15.8359L439.039 14.7694C437.048 13.1045 434.17 13.041 432.108 14.6164V14.6164C430.401 15.9204 428.095 16.1227 426.188 15.1358L414.737 9.21234C414.081 8.87279 413.391 8.60255 412.679 8.406V8.406C409.658 7.57244 406.423 8.11341 403.837 9.88457L400.11 12.4378C396.199 15.1168 391.174 15.5615 386.853 13.6108L384.745 12.6591C383.68 12.1784 382.782 11.3936 382.162 10.4035L381.675 9.62562C379.097 5.50911 372.845 6.47673 371.632 11.1798V11.1798C371.505 11.6722 371.311 12.1447 371.055 12.584L362.939 26.5089C361.698 28.6367 359.031 29.4535 356.812 28.3849V28.3849C353.678 26.8755 350.043 29.1593 350.043 32.638V77.9424C350.043 83.2457 346.977 88.0707 342.175 90.3228V90.3228C339.697 91.4854 336.926 91.8772 334.222 91.4475L317.405 88.7748C315.199 88.4242 312.943 88.5585 310.794 89.1683L297.39 92.9724C294.923 93.6724 292.32 93.7444 289.819 93.1818L271.111 88.9746C268.966 88.4922 266.743 88.4755 264.591 88.9255L254.692 90.9954C251.252 91.7147 247.67 91.2339 244.541 89.6331L238.189 86.3827C232.356 83.3982 225.214 85.2256 221.532 90.6446V90.6446C220.03 92.8538 217.884 94.5463 215.386 95.4916L205.17 99.3573C199.27 101.59 192.606 99.9922 188.36 95.3279L182.865 89.2931C180.726 86.9428 176.885 87.5193 175.529 90.3941V90.3941C171.954 97.9772 162.367 100.446 155.574 95.5324L154.43 94.7044C152.278 93.1483 150.593 91.0334 149.557 88.5886L137.971 61.2531C136.07 56.7683 129.574 57.215 128.305 61.9179L118.968 96.5166C117.547 101.784 110.826 103.337 107.238 99.2266V99.2266C105.669 97.4296 102.979 97.149 101.073 98.5837L90.2399 106.74C88.3928 108.13 86.2559 109.086 83.9883 109.537L75.1838 111.286C73.6521 111.59 72.0669 111.478 70.5932 110.962L67.5797 109.905C65.7908 109.278 63.8017 109.879 62.6594 111.392V111.392C61.4906 112.94 59.4394 113.529 57.6272 112.838L33.3221 103.563C32.4385 103.226 31.5256 102.971 30.5951 102.801L20.3966 100.944C15.6472 100.079 10.8473 102.178 8.25702 106.251L6.33281 109.278C5.35343 110.818 3.65477 111.751 1.8295 111.751V111.751C-1.11781 111.751 -3.50708 114.14 -3.50708 117.087V211.406" stroke="#00B26B" stroke-width="2.5625"/>
</g>
<circle cx="133.25" cy="58.9375" r="6.40625" fill="white" stroke="#00B26B" stroke-width="2.5625"/>
<circle cx="33.3125" cy="103.781" r="6.40625" fill="white" stroke="#00B26B" stroke-width="2.5625"/>
<circle cx="239.594" cy="87.125" r="6.40625" fill="white" stroke="#00B26B" stroke-width="2.5625"/>
<circle cx="335.688" cy="90.9688" r="6.40625" fill="white" stroke="#00B26B" stroke-width="2.5625"/>
<circle cx="440.75" cy="15.375" r="6.40625" fill="white" stroke="#00B26B" stroke-width="2.5625"/>
<defs>
<linearGradient id="paint0_linear" x1="240.819" y1="-1.28105" x2="240.819" y2="185.736" gradientUnits="userSpaceOnUse">
<stop stop-color="#00B26B" stop-opacity="0.1"/>
<stop offset="1" stop-color="#00B26B" stop-opacity="0"/>
</linearGradient>
</defs>
</svg>
