<svg width="480" height="164" viewBox="0 0 480 164" fill="none" xmlns="http://www.w3.org/2000/svg">
<rect width="480.469" height="164" fill="white"/>
<mask id="mask0" mask-type="alpha" maskUnits="userSpaceOnUse" x="0" y="0" width="481" height="164">
<rect x="0.640625" y="0.640625" width="479.188" height="162.719" rx="0.640625" fill="#C4C4C4" stroke="#339F7B" stroke-width="1.28125"/>
</mask>
<g mask="url(#mask0)">
<path d="M9.42395 107.141L7.49725 110.196C6.52136 111.744 4.81983 112.682 2.99038 112.682C0.0476589 112.682 -2.33789 115.068 -2.33789 118.01V148.625C-2.33789 157.116 4.54576 164 13.0371 164H483.976V57.7105L466.688 19.7629C464.163 14.2213 457.267 12.2717 452.215 15.671L450.892 16.561C448.022 18.4917 444.22 18.2855 441.576 16.0557L440.207 14.9008C438.221 13.2257 435.335 13.1619 433.277 14.7476C431.572 16.0606 429.261 16.2641 427.353 15.2691L415.904 9.29749C415.249 8.95603 414.561 8.68413 413.85 8.48625C410.83 7.64616 407.593 8.19035 405.013 9.97172L401.287 12.5456C397.375 15.2471 392.332 15.6953 388.005 13.7258L385.912 12.7729C384.849 12.2889 383.953 11.5012 383.337 10.5089L382.861 9.74357C380.289 5.60224 374.007 6.56909 372.799 11.2921C372.674 11.7822 372.482 12.2528 372.229 12.6907L364.102 26.7476C362.867 28.8835 360.193 29.7031 357.973 28.6254C354.848 27.108 351.212 29.3842 351.212 32.8583V78.6861C351.212 83.9805 348.16 88.8004 343.374 91.0638C340.877 92.2446 338.081 92.6427 335.354 92.2057L318.601 89.5212C316.377 89.165 314.103 89.3013 311.938 89.9207L298.587 93.7409C296.103 94.4519 293.479 94.525 290.958 93.9535L272.306 89.7241C270.144 89.2341 267.902 89.217 265.734 89.6742L255.902 91.7472C252.437 92.4776 248.827 91.99 245.681 90.3668L239.413 87.1331C233.56 84.1135 226.373 85.954 222.692 91.4154C221.196 93.6339 219.052 95.3364 216.553 96.29L206.379 100.171C200.461 102.429 193.763 100.826 189.509 96.1339L184.274 90.3608C181.936 87.7827 177.765 88.2301 176.027 91.2453C172.607 97.1789 165.004 99.1827 159.104 95.705L156.557 94.2036C153.796 92.5762 151.618 90.1201 150.333 87.1843L139.193 61.733C137.252 57.2971 130.809 57.7796 129.55 62.4551L119.926 98.1859C118.644 102.947 112.472 104.194 109.442 100.305C107.358 97.6296 103.467 97.2231 100.875 99.4095L91.6225 107.213C89.6415 108.884 87.2704 110.027 84.7295 110.536L76.3565 112.213C74.823 112.52 73.2349 112.407 71.7603 111.886L68.7617 110.826C66.9676 110.192 64.9694 110.797 63.8287 112.32C62.6615 113.879 60.6008 114.472 58.7833 113.773L34.4993 104.43C33.6104 104.088 32.6916 103.829 31.7548 103.657L21.614 101.795C16.84 100.919 12.0131 103.036 9.42395 107.141Z" fill="url(#paint0_linear)"/>
<path d="M482.807 57.6149L466.352 19.2285C463.812 13.3048 456.432 11.2687 451.215 15.0525L449.688 16.16C446.858 18.2122 442.995 18.0787 440.314 15.8359L439.039 14.7694C437.048 13.1045 434.17 13.041 432.108 14.6164V14.6164C430.401 15.9204 428.095 16.1227 426.188 15.1358L414.738 9.21234C414.081 8.87279 413.391 8.60255 412.679 8.406V8.406C409.658 7.57244 406.423 8.11341 403.837 9.88457L400.11 12.4378C396.199 15.1168 391.174 15.5615 386.853 13.6108L384.745 12.6591C383.681 12.1784 382.782 11.3936 382.162 10.4035L381.675 9.62562C379.097 5.50911 372.845 6.47673 371.633 11.1798V11.1798C371.506 11.6722 371.311 12.1447 371.055 12.584L362.939 26.5089C361.699 28.6367 359.031 29.4535 356.812 28.3849V28.3849C353.678 26.8755 350.043 29.1593 350.043 32.638V77.9424C350.043 83.2457 346.977 88.0707 342.176 90.3228V90.3228C339.697 91.4854 336.926 91.8772 334.222 91.4475L317.405 88.7748C315.199 88.4242 312.943 88.5585 310.794 89.1683L297.39 92.9724C294.923 93.6724 292.32 93.7444 289.819 93.1818L271.111 88.9746C268.966 88.4922 266.743 88.4755 264.591 88.9255L254.692 90.9954C251.252 91.7147 247.67 91.2339 244.542 89.6331L238.189 86.3827C232.357 83.3982 225.214 85.2256 221.532 90.6446V90.6446C220.03 92.8538 217.885 94.5463 215.386 95.4916L205.17 99.3573C199.271 101.59 192.606 99.9922 188.36 95.3279L182.866 89.2931C180.726 86.9428 176.885 87.5193 175.529 90.3941V90.3941C171.954 97.9772 162.368 100.446 155.575 95.5324L154.43 94.7044C152.278 93.1483 150.593 91.0334 149.557 88.5886L137.971 61.2531C136.071 56.7683 129.574 57.215 128.305 61.9179L118.969 96.5166C117.547 101.784 110.826 103.337 107.238 99.2266V99.2266C105.669 97.4296 102.979 97.149 101.074 98.5837L90.2401 106.74C88.3931 108.13 86.2562 109.086 83.9885 109.537L75.184 111.286C73.6524 111.59 72.0671 111.478 70.5935 110.962L67.5799 109.905C65.791 109.278 63.802 109.879 62.6597 111.392V111.392C61.4908 112.94 59.4397 113.529 57.6274 112.838L33.3224 103.563C32.4387 103.226 31.5259 102.971 30.5954 102.801L20.3969 100.944C15.6475 100.079 10.8475 102.178 8.25727 106.251L6.33305 109.278C5.35367 110.818 3.65501 111.751 1.82975 111.751V111.751C-1.11757 111.751 -3.50684 114.14 -3.50684 117.087V211.406" stroke="#00B26B" stroke-width="2.5625"/>
</g>
<circle cx="133.25" cy="58.9375" r="6.40625" fill="#00B26B" stroke="#00B26B" stroke-width="2.5625"/>
<circle cx="33.3125" cy="103.781" r="6.40625" fill="white" stroke="#00B26B" stroke-width="2.5625"/>
<circle cx="239.594" cy="87.125" r="6.40625" fill="white" stroke="#00B26B" stroke-width="2.5625"/>
<circle cx="335.688" cy="90.9688" r="6.40625" fill="white" stroke="#00B26B" stroke-width="2.5625"/>
<circle cx="440.75" cy="15.375" r="6.40625" fill="#00B26B" stroke="#00B26B" stroke-width="2.5625"/>
<defs>
<linearGradient id="paint0_linear" x1="240.819" y1="-1.28105" x2="240.819" y2="185.736" gradientUnits="userSpaceOnUse">
<stop stop-color="#00B26B" stop-opacity="0.1"/>
<stop offset="1" stop-color="#00B26B" stop-opacity="0"/>
</linearGradient>
</defs>
</svg>
