<?xml version="1.0" encoding="UTF-8"?>
<svg width="35px" height="63px" viewBox="0 0 35 63" version="1.1" xmlns="http://www.w3.org/2000/svg" xmlns:xlink="http://www.w3.org/1999/xlink">
    <!-- Generator: Sketch 48.2 (47327) - http://www.bohemiancoding.com/sketch -->
    <title>bitcoin</title>
    <desc>Created with Sketch.</desc>
    <defs>
        <rect id="path-1" x="0" y="0" width="42" height="76"></rect>
    </defs>
    <g id="Page-1" stroke="none" stroke-width="1" fill="none" fill-rule="evenodd">
        <g id="Group-5" transform="translate(0.000000, -8.000000)">
            <mask id="mask-2" fill="white">
                <use xlink:href="#path-1"></use>
            </mask>
            <g id="Mask" transform="translate(21.000000, 38.000000) scale(-1, 1) translate(-21.000000, -38.000000) "></g>
            <g mask="url(#mask-2)" id="Group-4">
                <g transform="translate(-20.000000, 14.000000)">
                    <g>
                        <path d="M19,13 L20.5780248,13 C23.0924477,13 24.0332785,13 26.5477014,13 C29.4366835,13 31.6674166,13.3102127 32.6492494,15.6368084 C33.3573659,17.3125655 33.0914066,19.648285 30.9404613,21.0057192 C30.2168306,21.4629282 28.8283018,21.9404125 27.2691158,21.9404125 C23.6332315,22.0407755 22.742268,21.9840045 19,21.9840045 L19,13 Z M34.9999871,30.8622467 C35.0055749,34.0162273 33.1917885,35.3133968 29.6603253,35.8010846 C28.5058944,35.9599828 27.3212897,35.976972 26.148978,35.9859662 C23.067888,36.0109502 22.1503781,35.9949604 19,35.9949604 L19,25 C23.32716,25 24.2837843,25.0619603 28.442194,25.0619603 C33.2186098,25.0619603 34.9943994,27.7302519 34.9999871,30.8622467 Z M16.6682899,39.7567378 C17.6697747,39.7687384 18.4680104,39.7587379 19.6012099,39.7587379 C19.6012099,40.2447622 19.5989389,40.6317816 19.6012099,41.0188009 C19.6080227,42.0058503 19.6012099,42.7828891 19.6012099,43.7589379 C19.6012099,44.2289614 20.0599399,45 21.0387154,45 C21.9243823,45 22.4966594,44.2679634 22.4966594,43.7589379 C22.4966594,42.5518776 22.4921175,41.0388019 22.4921175,39.839742 L24.6324792,39.839742 L24.6324792,43.7589379 C24.6324792,44.2989649 25.3784832,45 26.2141894,45 C27.2190807,45 27.569941,44.1949597 27.569941,43.7589379 C27.569941,42.4518726 27.5812957,41.1678084 27.5812957,39.7967398 C33.5459217,39.8707435 37.5870608,38.1756588 38.8292654,32.60038 C39.5480181,29.3742187 38.0741776,25.5890295 32.9418514,23.499925 C35.8690941,21.160808 37.0772346,18.4026701 35.7725791,15.1045052 C34.3714086,11.560328 32.0232559,10.2152608 27.5790248,10.2152608 C27.5790248,8.86819341 27.5744829,7.62613131 27.5812957,6.3860693 C27.5847022,5.59902995 26.978361,5 25.9734697,5 C25.1377635,5 24.6165826,5.65503275 24.6324792,6.39706985 C24.6608659,7.63813191 24.6404274,8.96219811 24.6404274,10.2152608 L22.5023367,10.2152608 C22.5023367,8.99619981 22.4966594,7.76613831 22.4966594,6.61908095 C22.4966594,5.73303665 21.9539045,5 21.0693731,5 C20.1121715,5 19.6012099,5.67303365 19.6012099,6.61308065 C19.6012099,7.95214761 19.558062,8.76218811 19.558062,10.2072604 C18.3805792,10.2072604 17.6005111,10.1922596 16.5638266,10.2112606 C15.4499301,10.2312616 15.0070967,10.6112806 15.0059612,11.6023301 C14.9980129,20.519776 14.9980129,29.4382219 15.0059612,38.3566678 C15.0070967,39.3847192 15.456743,39.7417371 16.6682899,39.7567378 Z" id="btc-copy" fill="#231F20"></path>
                        <circle id="Oval-3" stroke="#231F20" stroke-width="3" cx="25.5" cy="25.5" r="25.5"></circle>
                    </g>
                </g>
            </g>
        </g>
        <g id="bitcoin"></g>
    </g>
</svg>
