<?xml version="1.0" encoding="utf-8"?>
<!-- Generator: Adobe Illustrator 21.0.1, SVG Export Plug-In . SVG Version: 6.00 Build 0)  -->
<svg version="1.1" id="Layer_1" xmlns="http://www.w3.org/2000/svg" xmlns:xlink="http://www.w3.org/1999/xlink" x="0px" y="0px"
	 viewBox="0 0 106.3 167" style="enable-background:new 0 0 106.3 167;" xml:space="preserve">
<style type="text/css">
	.st0{fill:#FFFFFF;}
	.st1{fill:#B2D5E5;}
</style>
<g>
	<path id="path-1" class="st0" d="M33.5,77.7c8.6-3,18.9,3.3,21.9,11.7c3,8.5-1.3,19.2-9.4,23.5c-2.6,1.4-5.4,2.5-8.2,3.5
		c-7.4,2.7-16.3,5.8-23.8,8.5c-4-11.4-8.7-25-12.6-36C11.7,85.2,23.5,81.2,33.5,77.7z M34.6,69.6c-1.3,1.8-2.8,3.8-6.5,5.1
		C19.4,78.1,9,81.7,0,84.9c-3.3-9.6-7.4-21.2-10.7-30.7c2.2-0.8,5.7-2,7.8-2.8c6.1-2.2,12.2-4.3,18.2-6.5c7-2.5,14.4-0.1,18.6,5.6
		C37.9,55.8,38.6,64.1,34.6,69.6z M39.1,120.3c1.3,3.7,2.5,7.1,3.7,10.6c0.4,1.2,1.2,3.3-1.2,4.2c-2,0.7-2.8-1.6-3.1-2.6
		c-1.2-3.5-2.4-6.8-3.7-10.5c-1.8,0.6-4.9,1.7-7,2.5c1.1,3.2,2.6,7.3,3.7,10.5c0.5,1.4,1.2,3.3-0.9,4.1c-2.3,0.8-3-1.2-3.5-2.5
		c-0.9-2.6-1.6-4.7-2.6-7.3c-0.4-1-0.7-2.1-1.2-3.4c-2.7,0.9-5.7,2-8,2.8c-2.9,1-4.3,0.4-5.2-2.4C1.6,102.3-6.8,78.5-15.2,54.6
		c-0.9-2.7-0.2-4,2.4-5c2.4-0.9,5.5-2,8.3-2.9c-1.4-3.9-2-6.1-3.3-9.7c-0.3-0.9-1.6-4.3,0.7-5.1c2.1-0.7,3.2,2.6,3.6,3.6
		c1.1,3.1,2.3,6.4,3.4,9.6c1.9-0.7,5-1.8,7-2.5c-1.2-3.4-2.4-6.9-3.6-10.2c-0.7-2-1.3-3.7,0.7-4.4c2.4-0.8,2.9,0.8,3.7,2.9
		c1.2,3.3,2.3,6.6,3.6,10.2c10.5-3.7,19.2-2.7,25.9,5.6c6.2,7.7,5.9,16.1,1.2,24.8C52.3,72.8,59.4,81.8,60.7,91
		C63.1,106.9,53.2,115.5,39.1,120.3 M22.7,0c-46.1,0-83.4,37.4-83.4,83.4c0,46.1,37.4,83.4,83.4,83.4s83.4-37.4,83.4-83.4
		C106.2,37.4,68.8,0,22.7,0"/>
</g>
<title>Fill 5</title>
<desc>Created with Sketch.</desc>
<g id="Design-Final">
	<g id="Fill-5">
		<g>
			<path id="path-1_1_" class="st1" d="M33.5,77.7c8.6-3,18.9,3.3,21.9,11.7c3,8.5-1.3,19.2-9.4,23.5c-2.6,1.4-5.4,2.5-8.2,3.5
				c-7.4,2.7-16.3,5.8-23.8,8.5c-4-11.4-8.7-25-12.6-36C11.7,85.2,23.5,81.2,33.5,77.7z M34.6,69.6c-1.3,1.8-2.8,3.8-6.5,5.1
				C19.4,78.1,9,81.7,0,84.9c-3.3-9.6-7.4-21.2-10.7-30.7c2.2-0.8,5.7-2,7.8-2.8c6.1-2.2,12.2-4.3,18.2-6.5c7-2.5,14.4-0.1,18.6,5.6
				C37.9,55.8,38.6,64.1,34.6,69.6z M39.1,120.3c1.3,3.7,2.5,7.1,3.7,10.6c0.4,1.2,1.2,3.3-1.2,4.2c-2,0.7-2.8-1.6-3.1-2.6
				c-1.2-3.5-2.4-6.8-3.7-10.5c-1.8,0.6-4.9,1.7-7,2.5c1.1,3.2,2.6,7.3,3.7,10.5c0.5,1.4,1.2,3.3-0.9,4.1c-2.3,0.8-3-1.2-3.5-2.5
				c-0.9-2.6-1.6-4.7-2.6-7.3c-0.4-1-0.7-2.1-1.2-3.4c-2.7,0.9-5.7,2-8,2.8c-2.9,1-4.3,0.4-5.2-2.4C1.6,102.3-6.8,78.5-15.2,54.6
				c-0.9-2.7-0.2-4,2.4-5c2.4-0.9,5.5-2,8.3-2.9c-1.4-3.9-2-6.1-3.3-9.7c-0.3-0.9-1.6-4.3,0.7-5.1c2.1-0.7,3.2,2.6,3.6,3.6
				c1.1,3.1,2.3,6.4,3.4,9.6c1.9-0.7,5-1.8,7-2.5c-1.2-3.4-2.4-6.9-3.6-10.2c-0.7-2-1.3-3.7,0.7-4.4c2.4-0.8,2.9,0.8,3.7,2.9
				c1.2,3.3,2.3,6.6,3.6,10.2c10.5-3.7,19.2-2.7,25.9,5.6c6.2,7.7,5.9,16.1,1.2,24.8C52.3,72.8,59.4,81.8,60.7,91
				C63.1,106.9,53.2,115.5,39.1,120.3 M22.7,0c-46.1,0-83.4,37.4-83.4,83.4c0,46.1,37.4,83.4,83.4,83.4s83.4-37.4,83.4-83.4
				C106.2,37.4,68.8,0,22.7,0"/>
		</g>
	</g>
</g>
</svg>
