<svg xmlns="http://www.w3.org/2000/svg" viewBox="0 0 42.44 131.01"><defs><style>.cls-1{fill:#13ace4;}</style></defs><title>Asset 69</title><g id="Layer_2" data-name="Layer 2"><g id="Layer_1-2" data-name="Layer 1"><path class="cls-1" d="M42.07,68.54C28.28,45.61,14.23,22.82.25,0c-.33.55-.33,130.55,0,131C14,112.08,27.75,93.19,41.33,74.15,42.32,72.76,42.85,69.84,42.07,68.54ZM2.24,121.28c0-7.7-.07-15.41.06-23.11,0-1.18.43-2.93,1.26-3.43,9.3-5.6,18.61-11.1,28-16.55C33,77.37,33.81,76.81,35,76,24.91,90,12.18,107.5,2.24,121.28Zm.3-31V11.46L38.07,69.74Z"/></g></g></svg>