<?xml version="1.0" encoding="UTF-8"?>
<svg width="35px" height="62px" viewBox="0 0 35 62" version="1.1" xmlns="http://www.w3.org/2000/svg" xmlns:xlink="http://www.w3.org/1999/xlink">
    <!-- Generator: Sketch 48.2 (47327) - http://www.bohemiancoding.com/sketch -->
    <title>Artboard</title>
    <desc>Created with Sketch.</desc>
    <defs>
        <path d="M33.7961439,29.2526259 C30.9389125,29.3305867 30.2392939,29.2860377 27.2987094,29.2860377 L27.2987094,22.2992594 L28.5380728,22.2992594 C30.5139488,22.2992594 31.2531943,22.2980219 33.2290702,22.2992594 C35.5000978,22.2992594 37.2518772,22.5393293 38.0239173,24.3497538 C38.578693,25.6540514 38.3709937,27.4706633 36.6807042,28.5262286 C36.1122641,28.8813837 35.0204765,29.2526259 33.7961439,29.2526259 Z M34.9707374,33.3543104 C38.8523504,33.3543104 40.294418,35.7793683 40.2986929,38.6278491 C40.3043928,41.4948636 38.8295509,42.6738894 35.9610902,43.1186972 C35.0234612,43.2626895 34.0601828,43.2783718 33.1083042,43.2869258 C30.6046353,43.3083108 29.859377,43.2940542 27.2987094,43.2940542 L27.2987094,33.2987094 C30.8155306,33.2987094 31.5921381,33.3543104 34.9707374,33.3543104 Z M42.1707554,38.4500415 C41.239248,43.3278223 38.2081736,44.8109313 33.7350668,44.7463886 C33.7350668,45.9466083 33.7270481,47.0685529 33.7270481,48.2124694 C33.7270481,48.5956059 33.463767,49.2987094 32.7100077,49.2987094 C32.0832115,49.2987094 31.5232379,48.6862403 31.5232379,48.2124694 L31.5232379,44.7834663 L29.9181583,44.7834663 C29.9181583,45.8326287 29.9208312,47.157814 29.9208312,48.2124694 C29.9208312,48.6587753 29.4931664,49.2987094 28.827613,49.2987094 C28.0939006,49.2987094 27.7490958,48.6244441 27.7490958,48.2124694 C27.7490958,47.3596817 27.7544416,46.6785501 27.7504323,45.8147764 C27.7477594,45.4769571 27.7490958,45.1377646 27.7490958,44.7134306 C26.9004484,44.7134306 26.3003812,44.7216701 25.5492949,44.7120574 C24.6418436,44.6983249 24.3037211,44.3852241 24.3037211,43.4871192 C24.2970388,35.6829445 24.2970388,27.8801431 24.3037211,20.0759684 C24.3037211,19.208075 24.6364978,18.8757487 25.4717806,18.8578964 C26.249596,18.8427907 26.8349623,18.8537767 27.7170209,18.8537767 C27.7170209,17.5903875 27.7490958,16.881791 27.7490958,15.7090362 C27.7490958,14.8878333 28.1326577,14.2987094 28.8503327,14.2987094 C29.5145496,14.2987094 29.9208312,14.9400167 29.9208312,15.7145292 C29.9208312,16.7183743 29.926177,17.7950016 29.926177,18.8620162 L31.5299201,18.8620162 C31.5299201,17.7647901 31.5446211,16.6071412 31.5232379,15.5209011 C31.5112098,14.8713543 31.9014539,14.2987094 32.5295866,14.2987094 C33.2833459,14.2987094 33.7377398,14.8219173 33.7350668,15.5112884 C33.729721,16.5975284 33.7337304,17.6823952 33.7337304,18.8620162 C37.0668431,18.8620162 38.8282876,20.0402639 39.8787393,23.1410604 C40.8570226,26.0262568 39.9509077,28.4390555 37.7551162,30.4865699 C41.605436,32.3143644 42.7093458,35.6266413 42.1707554,38.4500415 M32.2980293,7.2987094 C18.4911353,7.2987094 7.2987094,18.4924956 7.2987094,32.2993895 C7.2987094,46.1062835 18.4911353,57.2987094 32.2980293,57.2987094 C46.1049232,57.2987094 57.2987094,46.1062835 57.2987094,32.2993895 C57.2987094,18.4924956 46.1049232,7.2987094 32.2980293,7.2987094" id="path-1"></path>
    </defs>
    <g id="Page-1" stroke="none" stroke-width="1" fill="none" fill-rule="evenodd">
        <g id="Rectangle" transform="translate(-25.000000, -2.000000)">
            <mask id="mask-2" fill="white">
                <use xlink:href="#path-1"></use>
            </mask>
            <use id="Mask" fill="#231F20" transform="translate(32.298709, 32.298709) rotate(-21.000000) translate(-32.298709, -32.298709) " xlink:href="#path-1"></use>
        </g>
        <g id="Artboard"></g>
    </g>
</svg>
