<svg fill="none" height="24" viewBox="0 0 24 24" width="24" xmlns="http://www.w3.org/2000/svg"><path d="m19.9663 4.19921-8.7705-3.19219c-.6646-.241081-1.39777-.208671-2.03854.09012-.64076.2988-1.13684.83957-1.37937 1.50368l-5.0163 13.78218c-.24108.6646-.20867 1.3977.09012 2.0385.2988.6408.83957 1.1368 1.50368 1.3794l8.77051 3.1922c.6646.2411 1.3977.2086 2.0385-.0902.6407-.2987 1.1368-.8395 1.3794-1.5036l5.0162-13.78219c.2411-.66463.2087-1.39776-.0901-2.03852-.2988-.64077-.8395-1.13684-1.5036-1.37938zm-5.1781 10.02129c.1799.4277.1682.9108-.0341 1.3595-.4021.8939-1.3746 1.3864-2.1675 1.0978-.7928-.2886-1.2224-1.2914-.9551-2.2343.1359-.4782.4365-.857.8467-1.0665.4101-.2094.8798-.2318 1.334-.0665.217.0755.4159.1954.5839.3521.1681.1567.3016.3467.3921.5579zm-2.6251-10.02359c.0605-.16615.1845-.30147.3447-.37619.1603-.07472.3436-.08273.5098-.02226l3.7588 1.36808c.1661.06048.3014.18448.3762.34472.0747.16025.0827.34361.0222.50976s-.1845.30147-.3447.37619c-.1602.07473-.3436.08273-.5098.02226l-3.7587-1.36808c-.1662-.06048-.3015-.18447-.3762-.34472-.0747-.16024-.0828-.34361-.0223-.50976zm2.2152 16.93879c-.0641.0358-.1353.0571-.2086.0623-.0732.0053-.1467-.0055-.2153-.0317l-5.30068-1.9293c-.06941-.024-.1327-.063-.18541-.1141-.05272-.0511-.09357-.1132-.11969-.1819-.02759-.0764-.03764-.158-.02941-.2388s.03454-.1588.07697-.2281c.37749-.6412.98432-1.0743 1.75512-1.2527.6846-.1583 1.4584-.1011 2.1788.1612.7204.2622 1.35.7157 1.7726 1.277.4759.6321.6623 1.354.5393 2.0878-.012.0804-.042.157-.0876.2242-.0457.0672-.1058.1233-.1761.1641z" fill="#5322e5"/></svg>