<?xml version="1.0" encoding="UTF-8"?>
<svg width="235px" height="139px" viewBox="0 0 235 139" version="1.1" xmlns="http://www.w3.org/2000/svg" xmlns:xlink="http://www.w3.org/1999/xlink">
    <!-- Generator: Sketch 51.1 (57501) - http://www.bohemiancoding.com/sketch -->
    <title>Artboard</title>
    <desc>Created with Sketch.</desc>
    <defs>
        <rect id="path-1" x="0" y="0" width="280" height="150"></rect>
        <rect id="path-3" x="0" y="0" width="26.1940104" height="29.8069774"></rect>
    </defs>
    <g id="Artboard" stroke="none" stroke-width="1" fill="none" fill-rule="evenodd">
        <g id="Group-4-Copy" transform="translate(-17.000000, -11.000000)">
            <mask id="mask-2" fill="white">
                <use xlink:href="#path-1"></use>
            </mask>
            <g id="Mask"></g>
            <g id="Group-4" mask="url(#mask-2)">
                <g transform="translate(-31.000000, 12.000000)">
                    <g id="Idcard_illustration" stroke="none" fill-rule="evenodd">
                        <path d="M172.3,73.1 L172.3,105.6" id="Shape" stroke="#FFFFFF" stroke-linecap="round"></path>
                        <g id="Group-3" transform="translate(57.305990, 0.742188)">
                            <g id="Group" transform="translate(0.494792, 0.000000)">
                                <path d="M53.2,4.1 C57.8,5.9 61.4,11.7 63.8,16 C67.7,22.8 64.2,32.1 68.2,38.9 C69.6,41.3 72,43.3 72.6,46 C73.6,50.5 69.5,54.8 69.6,59.4 C69.7,62.2 71.2,64.7 72.4,67.2 C73.6,69.7 74.3,72.8 72.8,75.2 C71.9,76.7 70.2,77.7 69.7,79.3 C68.9,81.7 70.9,84.2 70.8,86.7 C70.7,88.9 69.1,90.7 67.1,91.6 C65.1,92.5 62.9,92.5 60.7,92.3 C55.9,91.9 51.1,90.5 46.8,88.3 C46.7,82.7 46.6,77.1 46.5,71.4 C46.5,69.8 46.4,68.1 45.4,66.8 C44.3,65.4 42,63.9 43.1,62.4 C39,62.7 35.2,65.5 33.6,69.2 C31.6,73.8 32.2,80.3 26.4,81.8 C24.9,82.2 23.4,82 21.9,81.6 L8.2,78.2 C0.9,66.5 8,61.7 3.6,55.6 C3.1,54.8 2.4,54.1 2.3,53.1 C2.1,50.8 5,49.6 6.4,47.6 C9.5,43.2 3.3,36.7 5.9,32 C7,30.1 9.2,29.2 10.7,27.7 C13.1,25.4 13.9,21.8 13.8,18.4 C13.7,10.7 19,-1.2 30.2,0.1 C40.3,1.5 43.8,0.5 53.2,4.1 Z" id="Shape" fill="#0E2336" fill-rule="nonzero"></path>
                                <polyline id="Shape" fill="#FFBD9C" fill-rule="nonzero" points="45.3 87.7 45.3 58 34.1 58 34.1 87.7"></polyline>
                                <polygon id="Shape" fill="#E3B9A5" fill-rule="nonzero" opacity="0.52" points="34.1 62.3 45.3 66.2 45.3 58 34.1 58"></polygon>
                                <path d="M29.4,83.7 L52.4,83.7" id="Shape" fill="#E49D76" fill-rule="nonzero"></path>
                                <path d="M21.1,30.3 L21.1,22.2 C21.1,13.6 31.1,9.1 38.9,9.1 C46.8,9.1 56.7,13.6 56.7,22.2 L56.7,30.3 C56.7,30.3 59.2,36.7 57.6,43.8 C57.4,44.6 57.3,45.5 57.2,46.4 C56.5,52 52.1,57.9 42.7,60 C40.2,60.6 38,60.2 35.6,59.5 C26.4,56.7 20.7,47.7 20.7,41.5" id="Shape" fill="#FFBD9C" fill-rule="nonzero"></path>
                                <circle id="Oval" fill="#DB9F28" fill-rule="nonzero" cx="43" cy="86.8" r="5"></circle>
                                <path d="M79.8,31 C81.5,32.7 82.4,34.9 82.8,37.2 C83.2,39.5 83,41.9 82.5,44.2" id="Shape" stroke="#FFFFFF" stroke-width="0.9493" opacity="0.48" stroke-linecap="round"></path>
                                <g transform="translate(104.000000, 52.000000)" fill-rule="nonzero">
                                    <path d="M22.4,17.9 C21.5,19.3 20.5,20.6 19.2,21.6 C17.9,22.6 16.3,23.3 14.7,23.1 C13.4,23 12.3,22.4 11.1,21.8 C9.7,21.1 8.2,20.2 7.8,18.7 C7.5,17.4 8.1,16 8.6,14.8 C9.1,13.5 9.4,11.9 8.5,10.9 C10,10.6 11.7,11 13.2,11.5 C14.7,12 16.2,12.3 17.6,13 C19,13.7 20.3,14.7 21,16 C21.3,16.8 21.8,17.5 22.4,17.9 Z" id="Shape" fill="#FFBD9C"></path>
                                    <path d="M27.1,26.3 L1,15.7 C0.7,15.6 0.6,15.3 0.7,15.1 L6.5,0.8 C6.6,0.5 6.9,0.4 7.1,0.5 L33.3,11.1 C33.6,11.2 33.7,11.5 33.6,11.7 L27.8,26 C27.7,26.3 27.4,26.4 27.1,26.3 Z" id="Shape" fill="#F9F7F8"></path>
                                    <path d="M32.7,12.6 L6.5,2 C6.2,1.9 6.1,1.6 6.2,1.4 L6.4,0.8 C6.5,0.5 6.8,0.4 7,0.5 L33.2,11.1 C33.5,11.2 33.6,11.5 33.5,11.7 L33.3,12.3 C33.2,12.6 32.9,12.7 32.7,12.6 Z" id="Shape" fill="#FFCB5B"></path>
                                    <rect id="Rectangle-path" fill="#BAC3DD" transform="translate(9.763925, 11.748475) rotate(22.117411) translate(-9.763925, -11.748475) " x="6.61397349" y="8.59852349" width="6.29990301" height="6.29990301"></rect>
                                    <g transform="translate(12.000000, 3.000000)" id="Shape">
                                        <g transform="translate(7.000000, 3.000000)">
                                            <path d="M4.1,0.2 L0.9,5.7 C0.7,6.1 2.3,7.4 3.1,7.1 C3.7,6.9 5.2,4.8 6.1,3.5 C6.7,2.6 6.5,1.4 5.7,0.8 C4.9,0.3 4.1,0.2 4.1,0.2 Z" fill="#E49D76"></path>
                                            <path d="M5.6,0.8 C4.9,0.3 4.1,0.2 4.1,0.2 L1,5.4 C1,5.4 3.6,1.9 4.3,1.2 C4.7,0.8 5.2,0.8 5.6,0.8 Z" fill="#E3B9A5" opacity="0.52"></path>
                                        </g>
                                        <g transform="translate(5.000000, 1.000000)">
                                            <path d="M2.7,0.8 C2.7,0.8 -0.4,6.3 0.2,7.5 C0.7,8.4 2.3,8.5 2.6,8.3 C2.9,8.1 6,2.2 6,2.2 C5.1,0.7 2.7,0.8 2.7,0.8 Z" fill="#E49D76"></path>
                                            <path d="M3.2,1.8 C3.6,1.5 4.3,1.3 4.8,1.1 C3.8,0.7 2.7,0.7 2.7,0.7 C2.7,0.7 0.6,4.5 0.2,6.5 C0.2,6.6 2.4,2.5 3.2,1.8 Z" fill="#E3B9A5" opacity="0.52"></path>
                                        </g>
                                        <g transform="translate(2.000000, 1.000000)">
                                            <path d="M2.7,0.2 C2.7,0.2 0.5,4.9 0.8,5.8 C1.1,6.7 2.3,6.9 3.1,6.6 C3.1,6.6 4.5,3.1 5.7,0.9 C5.7,0.9 4.6,-0.5 2.7,0.2 Z" fill="#E49D76"></path>
                                            <path d="M3,1.2 C3.3,0.8 3.8,0.3 4.1,0.1 C3.7,0.1 3.2,0.1 2.7,0.3 C2.7,0.3 0.9,4.3 0.8,5.6 L0.8,5.7 C0.8,5.6 2.3,2.1 3,1.2 Z" fill="#E3B9A5" opacity="0.52"></path>
                                        </g>
                                        <path d="M4.8,1.3 C4.8,1.3 3.3,0.5 2.4,0.7 C1.4,0.9 0.4,5.1 1,5.7 C1.9,6.6 2.9,5.9 2.9,5.9 C2.9,5.9 4.2,2.3 4.8,1.3 Z" fill="#E49D76"></path>
                                    </g>
                                    <g transform="translate(13.000000, 11.000000)" fill="#BAC3DD" id="Rectangle-path">
                                        <rect transform="translate(7.227000, 5.009525) rotate(22.117411) translate(-7.227000, -5.009525) " x="1.37709006" y="4.5095327" width="11.6998199" height="1"></rect>
                                        <rect transform="translate(7.933180, 3.206755) rotate(22.117411) translate(-7.933180, -3.206755) " x="2.08327006" y="2.7067627" width="11.6998199" height="1"></rect>
                                        <rect transform="translate(6.443980, 6.992225) rotate(22.117411) translate(-6.443980, -6.992225) " x="0.594070061" y="6.4922327" width="11.6998199" height="1"></rect>
                                    </g>
                                    <g transform="translate(7.000000, 10.000000)" fill="#FFFFFF" id="Shape">
                                        <path d="M3.4,0.3 C2.8,0.1 2.2,0.4 2,0.9 C1.8,1.5 2.1,2.1 2.6,2.3 C3.2,2.5 3.8,2.2 4,1.7 C4.3,1.1 4,0.5 3.4,0.3 Z"></path>
                                        <path d="M4.1,4.7 C4,4.7 4,4.7 4.1,4.7 C2.7,4.2 1.4,3.6 0,3.1 C0,3.1 0,3.1 0,3.1 C0,3.1 0,3.1 0,3.1 C0.1,2.9 0.1,2.8 0.2,2.6 C0.3,2.4 0.5,2.3 0.7,2.2 C1,2.1 1.2,2.1 1.5,2.2 C2.2,2.5 2.9,2.7 3.5,3 C3.8,3.1 3.9,3.3 4.1,3.5 C4.2,3.7 4.2,3.9 4.2,4 C4.2,4.1 4.2,4.2 4.2,4.3 C4.2,4.3 4.2,4.3 4.2,4.3 C4.2,4.5 4.1,4.6 4.1,4.7 Z"></path>
                                        <path d="M3.4,0.3 C4,0.5 4.2,1.2 4,1.7 C3.8,2.3 3.1,2.6 2.6,2.3 C2,2.1 1.7,1.4 2,0.9 C2.2,0.3 2.8,0.1 3.4,0.3 Z"></path>
                                    </g>
                                </g>
                                <path d="M71,83.5 L82.2,102 C83.4,104 86.3,104.2 87.8,102.3 L113.5,71.6 L118.5,74 L89.2,118.5 C87.3,121.4 83,121.6 80.9,118.8 L60.1,90.9" id="Shape" fill="#FFBD9C"></path>
                                <path d="M5,86.2 L4.1,103.2 L1.4,154.9 L6.1,155.1 L15.1,108.1 C15.3,107.2 15.4,106.2 15.5,105.3 L17.3,87.3 L5,86.2 Z" id="Shape" fill="#FFBD9C" fill-rule="nonzero"></path>
                                <path d="M64.1,116.2 C62.8,109.9 62.4,103.5 62.7,97 C62.9,93.7 62.7,90.5 62.7,90.5 C65.1,87.4 73.4,87.3 73.4,87.3 C74.2,86.5 72.4,80.6 69.3,74.9 C68.5,73.4 67.2,72.3 65.8,71.4 C60.5,68.2 52.3,69.1 50.5,69.2 C50.5,69.2 50.5,69.2 50.5,69.2 L45.2,66.1 C45.2,66.1 45.2,66.1 45.2,66.1 L34.2,65.9 C34.2,65.9 34.2,65.9 34.2,65.9 L30.4,68.6 C30.4,68.6 30.4,68.6 30.4,68.6 C29.1,68.5 16.2,68.2 11.1,73.6 C7.5,77.4 4.3,85.4 5.1,86.2 C5.1,86.2 14.1,87.3 16.5,90.4 C16.5,90.4 16.5,90.4 16.5,90.4 C16.5,90.4 16.3,93.7 16.5,97 C16.9,103.5 16.4,110 15,116.4 C9.1,143.9 -0.8,176.5 1,198.4 C3,222.4 1.4,220.2 2.7,224.3 C3.9,228.3 50.7,231.2 69,226.6 C74.2,225.3 74,222.2 75.4,210.2 C75.6,208.1 75.9,205.8 76.2,203 C79.2,175.8 70.1,145.5 64.1,116.2 Z" id="Shape" fill="#66C4AC"></path>
                                <path d="M58.3,14.4 C57.7,13.6 57.1,12.9 56.5,12.2 L54,7.3 L34.3,2.3 L27.5,8.2 C23.1,9.3 19.8,11.3 21.2,14.9 C23.8,21.6 34.8,26.4 41.1,28.4 C49.5,31 56.6,31 65.4,29.9 C63.1,24.3 62,19.2 58.3,14.4 Z" id="Shape" fill="#0E2336"></path>
                            </g>
                            <g id="Group" transform="translate(28.494792, 33.000000)">
                                <path d="M4.7,5.5 C4.7,6.4 3.9,7.1 3.5,7.1 C3.1,7.1 2.8,6.4 2.8,5.5 C2.8,4.6 3.1,3.9 3.5,3.9 C3.9,3.9 4.7,4.6 4.7,5.5 Z" id="Shape" fill="#814B2D" fill-rule="nonzero"></path>
                                <path d="M0.3,1.7 C1,0.7 2.3,0.2 3.6,0.3 C4.8,0.3 6.1,0.9 6.8,2 C5.7,1.6 4.7,1.3 3.6,1.3 C2.5,1.2 1.5,1.4 0.3,1.7 Z" id="Shape" fill="#814B2D" fill-rule="nonzero"></path>
                                <path d="M16.7,1.7 C17.4,0.7 18.7,0.2 20,0.3 C21.2,0.3 22.5,0.9 23.2,2 C22.1,1.6 21.1,1.3 20,1.3 C18.9,1.2 17.8,1.4 16.7,1.7 Z" id="Shape" fill="#814B2D" fill-rule="nonzero"></path>
                                <path d="M11.2,8.2 C11,9.5 10.8,10.8 10.6,12 C10.6,12.1 10.6,12.2 10.6,12.4 C10.7,12.6 10.9,12.6 11.1,12.7 C11.7,12.8 12.4,12.9 13,13.1" id="Shape" stroke="#B5795B" stroke-width="0.7722" opacity="0.61" stroke-linecap="round"></path>
                                <path d="M20.6,5.6 C20.6,6.5 19.8,7.2 19.4,7.2 C19,7.2 18.7,6.5 18.7,5.6 C18.7,4.7 19,4 19.4,4 C19.8,4 20.6,4.7 20.6,5.6 Z" id="Shape" fill="#814B2D" fill-rule="nonzero"></path>
                                <path d="M15.8,18 C15.8,18 12.8,20 9.2,18.4" id="Shape" stroke="#B5795B" stroke-width="0.7722" stroke-linecap="round"></path>
                            </g>
                        </g>
                    </g>
                    <g id="Idcard_illustration" stroke="none" fill-rule="evenodd" transform="translate(200.080729, 8.500000)">
                        <g id="Group" fill-rule="nonzero">
                            <path d="M0.6,4 L0.6,52.7 C0.6,53.2 0.930216648,53.6 1.34298746,53.6 L72.2570125,53.6 C72.6697834,53.6 73,53.2 73,52.7 L73,4 L0.6,4 Z" id="Shape" fill="#F9F7F8"></path>
                            <path d="M72.2570125,0.5 L1.34298746,0.5 C0.930216648,0.5 0.6,0.9 0.6,1.4 L0.6,4 L73,4 L73,1.3 C73,0.9 72.6697834,0.5 72.2570125,0.5 Z" id="Shape" fill="#DCDCDC"></path>
                            <rect id="Rectangle-path" fill="#E9E9E9" x="0.6" y="4" width="72.4" height="7.1"></rect>
                            <path d="M64.4,22.3 L35.3,22.3 C35.1,22.3 34.9,22.1 34.9,21.9 L34.9,21.4 C34.9,21.2 35.1,21 35.3,21 L64.4,21 C64.6,21 64.8,21.2 64.8,21.4 L64.8,21.9 C64.8,22.1 64.6,22.3 64.4,22.3 Z" id="Shape" fill="#BAC3DD"></path>
                            <circle id="Oval" fill="#FFFFFF" cx="9.1" cy="2.2" r="1"></circle>
                            <circle id="Oval" fill="#FFFFFF" cx="6.5" cy="2.2" r="1"></circle>
                            <circle id="Oval" fill="#FFFFFF" cx="3.8" cy="2.2" r="1"></circle>
                            <path d="M64.4,26.9 L45.3,26.9 C45.1,26.9 44.9,26.7 44.9,26.5 L44.9,26 C44.9,25.8 45.1,25.6 45.3,25.6 L64.4,25.6 C64.6,25.6 64.8,25.8 64.8,26 L64.8,26.5 C64.8,26.7 64.6,26.9 64.4,26.9 Z" id="Shape" fill="#BAC3DD"></path>
                            <path d="M64.4,31.4 L45.3,31.4 C45.1,31.4 44.9,31.2 44.9,31 L44.9,30.5 C44.9,30.3 45.1,30.1 45.3,30.1 L64.4,30.1 C64.6,30.1 64.8,30.3 64.8,30.5 L64.8,31 C64.8,31.2 64.6,31.4 64.4,31.4 Z" id="Shape" fill="#BAC3DD"></path>
                        </g>
                        <g id="Group" transform="translate(17.000000, 27.000000)">
                            <path d="M1.9,1.7 C1.9,2 1.7,2.2 1.5,2.2 C1.4,2.2 1.3,2 1.3,1.7 C1.3,1.4 1.4,1.2 1.5,1.2 C1.7,1.2 1.9,1.5 1.9,1.7 Z" id="Shape" fill="#814B2D" fill-rule="nonzero"></path>
                            <path d="M0.6,0.6 C1.1,5.55111512e-17 2.1,5.55111512e-17 2.5,0.7 C1.9,0.4 1.3,0.4 0.6,0.6 Z" id="Shape" fill="#814B2D" fill-rule="nonzero"></path>
                            <path d="M5.5,0.6 C6,5.55111512e-17 7,5.55111512e-17 7.4,0.7 C6.8,0.4 6.2,0.4 5.5,0.6 Z" id="Shape" fill="#814B2D" fill-rule="nonzero"></path>
                            <path d="M3.9,2.5 C3.8,2.9 3.8,3.3 3.7,3.6 C3.7,3.6 3.7,3.7 3.7,3.7 C3.7,3.7 3.8,3.8 3.8,3.8 C4,3.8 4.2,3.9 4.4,3.9" id="Shape" stroke="#B5795B" stroke-width="0.2317" opacity="0.61" stroke-linecap="round"></path>
                            <path d="M6.7,1.7 C6.7,2 6.5,2.2 6.3,2.2 C6.1,2.2 6.1,2 6.1,1.7 C6.1,1.4 6.2,1.2 6.3,1.2 C6.4,1.2 6.7,1.5 6.7,1.7 Z" id="Shape" fill="#814B2D" fill-rule="nonzero"></path>
                            <path d="M5.3,5.5 C5.3,5.5 4.4,6.1 3.3,5.6" id="Shape" stroke="#B5795B" stroke-width="0.2317" stroke-linecap="round"></path>
                        </g>
                    </g>
                    <g id="Group-2" stroke="none" fill-rule="evenodd" transform="translate(205.080729, 24.096511)">
                        <mask id="mask-4" fill="white">
                            <use xlink:href="#path-3"></use>
                        </mask>
                        <use id="Mask" fill="#FFFFFF" xlink:href="#path-3"></use>
                        <g mask="url(#mask-4)" id="Group">
                            <g transform="translate(1.806483, 1.806483)">
                                <g>
                                    <g>
                                        <path d="M16.2583513,1.44518678 C17.6132139,1.98713182 18.697104,3.70329113 19.3293732,4.96782956 C20.5035875,6.95496139 19.4196974,9.6646866 20.5939116,11.7421426 C21.0455325,12.464736 21.6778017,13.006681 21.8584501,13.8195986 C22.1294226,15.1744612 20.9552083,16.4389996 20.9552083,17.7938622 C20.9552083,18.6067798 21.4068292,19.3293732 21.7681259,20.0519666 C22.1294226,20.77456 22.3100709,21.6778017 21.8584501,22.4003951 C21.5874776,22.852016 21.1358567,23.1229885 20.9552083,23.5746094 C20.6842358,24.2972028 21.316505,25.0197962 21.316505,25.7423895 C21.316505,26.3746588 20.77456,26.9166038 20.2326149,27.1875763 C19.6906699,27.4585489 18.9680765,27.4585489 18.3358073,27.3682247 C16.8906205,27.2779005 15.5357579,26.8262796 14.2712195,26.1940104 C14.2712195,24.5681753 14.1808953,22.852016 14.1808953,21.2261809 C14.1808953,20.77456 14.1808953,20.2326149 13.8195986,19.8713182 C13.4583019,19.4196974 12.8260327,19.0584007 13.1873294,18.6067798 C12.0131151,18.697104 10.8389009,19.5100216 10.38728,20.5939116 C9.75501078,21.9487742 10.0259833,23.8455819 8.30982399,24.2972028 C7.85820313,24.3875269 7.40658226,24.3875269 7.04528556,24.2068786 L2.70972522,22.9423402 C1.26453843,20.3229391 2.98069774,18.3358073 1.62583513,16.5293238 C1.44518678,16.3486755 1.26453843,16.0777029 1.26453843,15.8067304 C1.17421426,15.084137 2.077456,14.7228403 2.43875269,14.1808953 C3.34199443,12.9163569 1.53551096,10.929225 2.25810435,9.57436243 C2.52907687,9.03241739 3.25167026,8.76144486 3.70329113,8.30982399 C4.42588452,7.5872306 4.60653287,6.59366469 4.60653287,5.60009878 C4.60653287,3.34199443 6.14204382,-0.180648348 9.39371408,0.270972522 C12.464736,0.722593391 13.4583019,0.451620869 16.2583513,1.44518678 Z" id="Shape" fill="#0E2336" fill-rule="nonzero"></path>
                                        <path d="M20.4132633,24.2068786 C20.77456,24.1165544 21.316505,24.2972028 21.4068292,24.6584995 L21.5874776,28.9940598 L22.3100709,42.8136584 C22.3100709,43.1749551 22.0390984,43.5362518 21.6778017,43.5362518 C21.316505,43.5362518 21.0455325,43.2652793 20.9552083,42.9943068 L18.5164556,30.4392466 C18.4261315,30.1682741 18.4261315,29.8973015 18.4261315,29.5360048 L17.9745106,25.2004445 C17.9745106,24.8391478 18.2454831,24.4778511 18.6067798,24.3875269 L20.4132633,24.2068786 Z" id="Shape" fill="#FFBD9C" fill-rule="nonzero"></path>
                                        <polyline id="Shape" fill="#FFBD9C" fill-rule="nonzero" points="13.3679777 24.8391478 13.3679777 16.5293238 10.2066316 16.5293238 10.2066316 24.8391478"></polyline>
                                        <polygon id="Shape" fill="#E3B9A5" fill-rule="nonzero" opacity="0.52" points="10.2066316 17.7035381 13.3679777 18.8777523 13.3679777 16.5293238 10.2066316 16.5293238"></polygon>
                                        <path d="M8.85176904,23.7552577 L15.3551096,23.7552577" id="Shape" fill="#E49D76" fill-rule="nonzero"></path>
                                        <path d="M6.59366469,8.76144486 L6.59366469,6.50334052 C6.59366469,4.06458782 9.39371408,2.80004939 11.5614943,2.80004939 C13.7292744,2.80004939 16.5293238,4.06458782 16.5293238,6.50334052 L16.5293238,8.76144486 C16.5293238,8.76144486 17.2519172,10.5679283 16.8002963,12.5550602 C16.7099722,12.8260327 16.7099722,13.006681 16.7099722,13.2776536 C16.5293238,14.9034887 15.2647854,16.5293238 12.6453843,17.0712689 C11.9227909,17.2519172 11.3808459,17.161593 10.6582525,16.8906205 C8.03885147,16.0777029 6.50334052,13.5486261 6.50334052,11.8324668" id="Shape" fill="#FFBD9C" fill-rule="nonzero"></path>
                                        <circle id="Oval" fill="#DB9F28" fill-rule="nonzero" cx="12.7357085" cy="24.6584995" r="1.35486261"></circle>
                                        <path d="M2.077456,24.4778511 L1.80648348,29.2650323 L1.08389009,43.8072243 L2.43875269,43.8975485 L4.96782956,30.7102191 C5.05815374,30.4392466 5.05815374,30.1682741 5.05815374,29.8973015 L5.5097746,24.8391478 L2.077456,24.4778511 Z" id="Shape" fill="#FFBD9C" fill-rule="nonzero"></path>
                                        <path d="M18.6067798,32.8779993 C18.2454831,31.0715158 18.1551589,29.2650323 18.2454831,27.4585489 C18.3358073,26.5553071 18.2454831,25.6520654 18.2454831,25.6520654 C18.8777523,24.7488236 21.4068292,24.8391478 21.4068292,24.8391478 C21.5874776,24.6584995 20.9552083,22.852016 20.0519666,21.316505 C19.7809941,20.8648842 19.5100216,20.5939116 19.0584007,20.3229391 C17.5228897,19.4196974 15.2647854,19.6906699 14.7228403,19.6906699 C14.7228403,19.6906699 14.7228403,19.6906699 14.7228403,19.6906699 L13.2776536,18.7874282 C13.2776536,18.7874282 13.2776536,18.7874282 13.2776536,18.7874282 L10.2066316,18.697104 C10.2066316,18.697104 10.2066316,18.697104 10.2066316,18.697104 L9.12274156,19.4196974 C9.12274156,19.4196974 9.12274156,19.4196974 9.12274156,19.4196974 C8.76144486,19.4196974 5.14847791,19.3293732 3.70329113,20.8648842 C2.70972522,21.9487742 1.80648348,24.2068786 1.98713182,24.3875269 C1.98713182,24.3875269 4.51620869,24.6584995 5.14847791,25.5617412 C5.14847791,25.5617412 5.14847791,25.5617412 5.14847791,25.5617412 C5.14847791,25.5617412 5.05815374,26.4649829 5.14847791,27.3682247 C5.23880208,29.1747082 5.14847791,30.9811916 4.69685704,32.7876751 C3.07102191,40.4652299 0.270972522,49.5879714 0.722593391,55.8203394 C1.26453843,62.5946525 0.812917565,61.9623833 1.17421426,63.0462733 C1.53551096,64.2204876 14.6325162,64.943081 19.7809941,63.6785426 C21.2261809,63.3172459 21.2261809,62.4140041 21.5874776,59.0720097 C21.6778017,58.5300647 21.7681259,57.8074713 21.8584501,57.0848779 C22.852016,49.5879714 20.3229391,41.0974991 18.6067798,32.8779993 Z" id="Shape" fill="#66C4AC"></path>
                                        <path d="M16.9809447,4.33556034 C16.8002963,4.154912 16.619648,3.88393948 16.4389996,3.70329113 L15.7164063,2.34842852 L10.2066316,0.903241739 L8.30982399,2.52907687 C7.04528556,2.80004939 6.14204382,3.43231861 6.50334052,4.42588452 C7.22593391,6.32269217 10.2969558,7.67755478 12.1034393,8.21949982 C14.4518678,8.94209321 16.9809447,9.03241739 19.4196974,8.76144486 C18.8777523,7.13560973 18.0648348,5.69042295 16.9809447,4.33556034 Z" id="Shape" fill="#0E2336"></path>
                                    </g>
                                    <path d="M11.6518184,19.0584007 L11.6518184,28.1811422" id="Shape" stroke="#FFFFFF" stroke-width="0.3104" stroke-linecap="round"></path>
                                </g>
                                <g transform="translate(8.129176, 9.935659)">
                                    <path d="M1.7161593,1.53551096 C1.7161593,1.80648348 1.53551096,1.98713182 1.35486261,1.98713182 C1.26453843,1.98713182 1.17421426,1.80648348 1.17421426,1.53551096 C1.17421426,1.26453843 1.26453843,1.08389009 1.35486261,1.08389009 C1.53551096,1.08389009 1.7161593,1.35486261 1.7161593,1.53551096 Z" id="Shape" fill="#814B2D" fill-rule="nonzero"></path>
                                    <path d="M0.541945043,0.541945043 C0.993565912,4.16333634e-16 1.89680765,4.16333634e-16 2.25810435,0.632269217 C1.7161593,0.361296695 1.17421426,0.361296695 0.541945043,0.541945043 Z" id="Shape" fill="#814B2D" fill-rule="nonzero"></path>
                                    <path d="M4.96782956,0.541945043 C5.41945043,4.16333634e-16 6.32269217,4.16333634e-16 6.68398886,0.632269217 C6.14204382,0.361296695 5.60009878,0.361296695 4.96782956,0.541945043 Z" id="Shape" fill="#814B2D" fill-rule="nonzero"></path>
                                    <path d="M3.52264278,2.25810435 C3.43231861,2.61940104 3.43231861,2.98069774 3.34199443,3.25167026 C3.34199443,3.25167026 3.34199443,3.34199443 3.34199443,3.34199443 C3.34199443,3.34199443 3.43231861,3.43231861 3.43231861,3.43231861 C3.61296695,3.43231861 3.7936153,3.52264278 3.97426365,3.52264278" id="Shape" stroke="#B5795B" stroke-width="0.2317" opacity="0.61" stroke-linecap="round"></path>
                                    <path d="M6.05171965,1.53551096 C6.05171965,1.80648348 5.8710713,1.98713182 5.69042295,1.98713182 C5.5097746,1.98713182 5.5097746,1.80648348 5.5097746,1.53551096 C5.5097746,1.26453843 5.60009878,1.08389009 5.69042295,1.08389009 C5.78074713,1.08389009 6.05171965,1.35486261 6.05171965,1.53551096 Z" id="Shape" fill="#814B2D" fill-rule="nonzero"></path>
                                    <path d="M4.78718121,4.96782956 C4.78718121,4.96782956 3.97426365,5.5097746 2.98069774,5.05815374" id="Shape" stroke="#B5795B" stroke-width="0.2317" stroke-linecap="round"></path>
                                </g>
                            </g>
                        </g>
                    </g>
                    <path d="M97.5,70.5 L97.5,155.711502" id="Line" stroke="#FFFFFF" stroke-linecap="square"></path>
                </g>
            </g>
        </g>
    </g>
</svg>