<svg width="88" height="88" viewBox="0 0 88 88" fill="none" xmlns="http://www.w3.org/2000/svg">
<path d="M44 88C68.3005 88 88 68.3005 88 44C88 19.6995 68.3005 0 44 0C19.6995 0 0 19.6995 0 44C0 68.3005 19.6995 88 44 88Z" fill="white"/>
<path fill-rule="evenodd" clip-rule="evenodd" d="M43.2845 16.9587L43.2876 16.9598L61.164 23.4663C63.285 24.2411 64.9246 25.8916 65.775 27.9677C66.6209 30.033 66.6293 32.364 65.8675 34.4633L54.6216 65.3612C53.8557 67.459 52.35 69.2418 50.3745 70.2801C48.3886 71.3239 46.0717 71.5343 43.9488 70.7645L26.0693 64.2569C23.9483 63.4821 22.3087 61.8316 21.4583 59.7555C20.6124 57.6902 20.604 55.3592 21.3658 53.2599L32.6117 22.362C33.3776 20.2642 34.8833 18.4814 36.8588 17.4431C38.8447 16.3993 41.1616 16.1889 43.2845 16.9587ZM41.4603 27.1734C41.9797 25.7462 43.5578 25.0103 44.985 25.5298L54.3472 28.9373C55.7744 29.4568 56.5103 31.0349 55.9908 32.462C55.4714 33.8892 53.8933 34.6251 52.4661 34.1056L43.1039 30.6981C41.6767 30.1786 40.9408 28.6006 41.4603 27.1734ZM44.303 56.6151C46.2053 58.0785 47.3598 60.2123 47.3578 62.5248C47.361 62.6584 47.3333 62.789 47.2831 62.9069C47.2347 63.0704 47.131 63.2146 46.9868 63.3127C46.7882 63.4477 46.5367 63.4791 46.311 63.3969L33.6721 58.7967C33.4463 58.7146 33.2739 58.5289 33.2086 58.2978C33.1615 58.1311 33.1742 57.9555 33.2409 57.7999C33.2709 57.7007 33.3207 57.6075 33.3915 57.5272C34.904 55.6787 37.3082 54.8403 39.7062 54.942C38.6745 53.6241 38.3355 51.7872 38.9413 50.1228C39.8775 47.5506 42.6503 46.1609 45.1712 47.0784C47.692 47.9959 48.997 50.8698 48.0607 53.442C47.455 55.1064 45.9404 56.2686 44.303 56.6151Z" fill="#121D33"/>
</svg>
