<svg width="40" height="40" viewBox="0 0 40 40" fill="none" xmlns="http://www.w3.org/2000/svg">
<circle cx="20" cy="20" r="20" fill="#0C6CF2"/>
<path fill-rule="evenodd" clip-rule="evenodd" d="M19.2399 10.1668L19.2411 10.1672L25.7416 12.5332C26.5128 12.815 27.1091 13.4151 27.4183 14.1701C27.7259 14.9211 27.729 15.7687 27.452 16.5321L23.3625 27.7677C23.084 28.5305 22.5365 29.1788 21.8181 29.5564C21.096 29.936 20.2535 30.0125 19.4815 29.7326L12.9799 27.3662C12.2086 27.0844 11.6124 26.4842 11.3032 25.7293C10.9956 24.9783 10.9925 24.1306 11.2695 23.3672L15.3589 12.1317C15.6374 11.3688 16.185 10.7205 16.9033 10.3429C17.6255 9.96339 18.468 9.88687 19.2399 10.1668ZM18.5766 13.8812C18.7655 13.3622 19.3393 13.0947 19.8583 13.2836L23.2628 14.5227C23.7817 14.7116 24.0493 15.2854 23.8604 15.8044C23.6715 16.3234 23.0977 16.5909 22.5787 16.4021L19.1743 15.1629C18.6553 14.974 18.3877 14.4002 18.5766 13.8812ZM19.6103 24.5873C20.302 25.1195 20.7219 25.8954 20.7211 26.7363C20.7223 26.7849 20.7123 26.8324 20.694 26.8752C20.6764 26.9347 20.6387 26.9871 20.5862 27.0228C20.514 27.0719 20.4226 27.0833 20.3405 27.0534L15.7445 25.3806C15.6624 25.3508 15.5997 25.2832 15.576 25.1992C15.5588 25.1386 15.5635 25.0747 15.5877 25.0181C15.5987 24.9821 15.6168 24.9482 15.6425 24.919C16.1925 24.2468 17.0668 23.9419 17.9387 23.9789C17.5636 23.4997 17.4403 22.8317 17.6606 22.2265C18.001 21.2911 19.0093 20.7858 19.926 21.1194C20.8427 21.453 21.3172 22.4981 20.9768 23.4335C20.7565 24.0387 20.2057 24.4613 19.6103 24.5873Z" fill="white"/>
</svg>
