<svg width="94" height="94" viewBox="0 0 94 94" fill="none" xmlns="http://www.w3.org/2000/svg">
<mask id="mask0_1921_2600" style="mask-type:alpha" maskUnits="userSpaceOnUse" x="0" y="0" width="94" height="94">
<path fill-rule="evenodd" clip-rule="evenodd" d="M93.5 0H0V93.5H54.9973C48.3194 88.4827 44 80.4958 44 71.5C44 56.3122 56.3122 44 71.5 44C80.4958 44 88.4827 48.3194 93.5 54.9973V0ZM93.5 88.0027C91.9362 90.084 90.084 91.9362 88.0027 93.5H93.5V88.0027Z" fill="#D9D9D9"/>
</mask>
<g mask="url(#mask0_1921_2600)">
<path d="M44 88C68.3005 88 88 68.3005 88 44C88 19.6995 68.3005 0 44 0C19.6995 0 0 19.6995 0 44C0 68.3005 19.6995 88 44 88Z" fill="white"/>
<path fill-rule="evenodd" clip-rule="evenodd" d="M55.0966 51.4818C60.0292 47.9961 63.25 42.2492 63.25 35.75C63.25 25.1185 54.6315 16.5 44 16.5C33.3685 16.5 24.75 25.1185 24.75 35.75C24.75 42.1789 27.9015 47.8717 32.7439 51.3678C22.7323 55.0278 18.2034 63.1937 16.6411 67.8804C16.3616 68.719 16.5022 69.6408 17.0191 70.358C17.536 71.0751 18.3661 71.5 19.25 71.5H68.75C69.634 71.5 70.4641 71.0751 70.9809 70.358C71.4978 69.6408 71.6384 68.719 71.3589 67.8804C69.7936 63.1846 64.7011 55.1805 55.0966 51.4818Z" fill="#121D33"/>
</g>
<g clip-path="url(#clip0_1921_2600)">
<path fill-rule="evenodd" clip-rule="evenodd" d="M71.5 93.5C83.6503 93.5 93.5 83.6503 93.5 71.5C93.5 59.3497 83.6503 49.5 71.5 49.5C59.3497 49.5 49.5 59.3497 49.5 71.5C49.5 83.6503 59.3497 93.5 71.5 93.5ZM71.5 60.5C71.5 59.4875 70.6792 58.6667 69.6667 58.6667C68.6541 58.6667 67.8333 59.4875 67.8333 60.5V70.6189C67.8333 71.7327 68.3397 72.7862 69.2095 73.482L77.6881 80.2649C78.4787 80.8974 79.6324 80.7693 80.2649 79.9786C80.8974 79.188 80.7693 78.0343 79.9786 77.4017L71.5 70.6189V60.5Z" fill="#98A1B2"/>
</g>
<defs>
<clipPath id="clip0_1921_2600">
<rect width="44" height="44" fill="white" transform="translate(49.5 49.5)"/>
</clipPath>
</defs>
</svg>
