<svg width="32" height="32" viewBox="0 0 32 32" fill="none" xmlns="http://www.w3.org/2000/svg">
<path d="M15.9948 5.34206C19.4667 5.34206 19.8742 5.35754 21.2464 5.41944C22.5155 5.47619 23.2016 5.6877 23.6607 5.86825C24.2694 6.10555 24.7028 6.38412 25.1567 6.83809C25.6107 7.29206 25.8944 7.72539 26.1266 8.33412C26.302 8.79325 26.5187 9.47936 26.5754 10.7484C26.6373 12.1206 26.6528 12.5282 26.6528 16C26.6528 19.4718 26.6373 19.8793 26.5754 21.2516C26.5187 22.5206 26.3071 23.2067 26.1266 23.6659C25.8893 24.2746 25.6107 24.7079 25.1567 25.1619C24.7028 25.6159 24.2694 25.8996 23.6607 26.1317C23.2016 26.3071 22.5155 26.5238 21.2464 26.5805C19.8742 26.6424 19.4667 26.6579 15.9948 26.6579C12.523 26.6579 12.1155 26.6424 10.7433 26.5805C9.47421 26.5238 8.7881 26.3123 8.32897 26.1317C7.72024 25.8944 7.2869 25.6159 6.83294 25.1619C6.37897 24.7079 6.09524 24.2746 5.8631 23.6659C5.6877 23.2067 5.47103 22.5206 5.41429 21.2516C5.35238 19.8793 5.3369 19.4718 5.3369 16C5.3369 12.5282 5.35238 12.1206 5.41429 10.7484C5.47103 9.47936 5.68254 8.79325 5.8631 8.33412C6.1004 7.72539 6.37897 7.29206 6.83294 6.83809C7.2869 6.38412 7.72024 6.10039 8.32897 5.86825C8.7881 5.69285 9.47421 5.47619 10.7433 5.41944C12.1155 5.35238 12.5282 5.34206 15.9948 5.34206ZM15.9948 3C12.4663 3 12.0226 3.01548 10.6349 3.07738C9.25238 3.13929 8.30833 3.36111 7.48294 3.68095C6.62659 4.01111 5.90437 4.45992 5.18214 5.18214C4.45992 5.90436 4.01627 6.63174 3.68095 7.48293C3.36111 8.30833 3.13929 9.25238 3.07738 10.6401C3.01548 12.0226 3 12.4663 3 15.9948C3 19.5234 3.01548 19.967 3.07738 21.3547C3.13929 22.7373 3.36111 23.6813 3.68095 24.5119C4.01111 25.3682 4.45992 26.0905 5.18214 26.8127C5.90437 27.5349 6.63175 27.9785 7.48294 28.3139C8.30833 28.6337 9.25238 28.8555 10.6401 28.9174C12.0278 28.9793 12.4663 28.9948 16 28.9948C19.5337 28.9948 19.9722 28.9793 21.3599 28.9174C22.7425 28.8555 23.6865 28.6337 24.5171 28.3139C25.3734 27.9837 26.0956 27.5349 26.8179 26.8127C27.5401 26.0905 27.9837 25.3631 28.319 24.5119C28.6389 23.6865 28.8607 22.7424 28.9226 21.3547C28.9845 19.967 29 19.5286 29 15.9948C29 12.4611 28.9845 12.0226 28.9226 10.6349C28.8607 9.25237 28.6389 8.30833 28.319 7.47777C27.9889 6.62143 27.5401 5.8992 26.8179 5.17698C26.0956 4.45476 25.3683 4.01111 24.5171 3.67579C23.6917 3.35595 22.7476 3.13413 21.3599 3.07222C19.9671 3.01548 19.5234 3 15.9948 3Z" fill="#121D33"/>
<path d="M15.9947 9.32458C12.3114 9.32458 9.31934 12.3115 9.31934 16C9.31934 19.6885 12.3062 22.6754 15.9947 22.6754C19.6832 22.6754 22.6701 19.6885 22.6701 16C22.6701 12.3115 19.6832 9.32458 15.9947 9.32458ZM15.9947 20.3281C13.6011 20.3281 11.6614 18.3885 11.6614 15.9948C11.6614 13.6012 13.6011 11.6615 15.9947 11.6615C18.3884 11.6615 20.3281 13.6012 20.3281 15.9948C20.3281 18.3885 18.3884 20.3281 15.9947 20.3281Z" fill="#121D33"/>
<path d="M22.9334 10.6143C23.7938 10.6143 24.4914 9.91677 24.4914 9.05635C24.4914 8.19592 23.7938 7.49841 22.9334 7.49841C22.073 7.49841 21.3755 8.19592 21.3755 9.05635C21.3755 9.91677 22.073 10.6143 22.9334 10.6143Z" fill="#121D33"/>
</svg>
