<svg xmlns="http://www.w3.org/2000/svg" viewBox="0 0 24.21 24.21"><defs><style>.cls-1{fill:#fff;}.cls-2{fill:#094b7c;}</style></defs><title>Asset 86</title><g id="Layer_2" data-name="Layer 2"><g id="Layer_1-2" data-name="Layer 1"><circle class="cls-1" cx="12.1" cy="12.1" r="12.1"/><g id="_4u71bq.tif" data-name="4u71bq.tif"><path class="cls-2" d="M12.82,11.18c.12-.15.23-.3.35-.43A2.33,2.33,0,0,1,14.58,10a3.15,3.15,0,0,1,1.77.19,2.62,2.62,0,0,1,1.49,1.72A5,5,0,0,1,18,13.43q0,2.12,0,4.24v.11H15.5s0-.09,0-.13c0-1.36,0-2.72,0-4.08a2.19,2.19,0,0,0-.21-1A1.13,1.13,0,0,0,14.14,12a1.29,1.29,0,0,0-.88.38,1.37,1.37,0,0,0-.43.95q0,.29,0,.58,0,1.89,0,3.78v.12H10.28V10.12h2.43c.09,0,.12,0,.11.11C12.82,10.54,12.82,10.85,12.82,11.18Z"/><path class="cls-2" d="M8.85,10.13v7.66H6.42c-.09,0-.11,0-.11-.12q0-3.72,0-7.44v-.1Z"/><path class="cls-2" d="M7.58,9.07a1.36,1.36,0,0,1-1.21-.61,1.3,1.3,0,0,1,.72-2,1.56,1.56,0,0,1,1.4.19A1.24,1.24,0,0,1,9,7.93a1.2,1.2,0,0,1-.83,1,4.64,4.64,0,0,1-.59.13Z"/></g></g></g></svg>