<svg width="25" height="24" viewBox="0 0 25 24" fill="none" xmlns="http://www.w3.org/2000/svg">
<path fill-rule="evenodd" clip-rule="evenodd" d="M17.5913 8H18.5913C19.6913 8 20.5913 8.9 20.5913 10V20C20.5913 21.1 19.6913 22 18.5913 22H6.59131C5.49131 22 4.59131 21.1 4.59131 20V10C4.59131 8.9 5.49131 8 6.59131 8H7.59131L7.59131 8.00247H9.48875L9.49131 7.93541V8H15.6913V6C15.6913 4.29 14.3013 2.9 12.5913 2.9C11.1412 2.9 9.92121 3.8996 9.58387 5.24627L7.79698 4.577C8.41034 2.5095 10.3256 1 12.5913 1C15.3513 1 17.5913 3.24 17.5913 6V8ZM10.5913 15C10.5913 16.1 11.4913 17 12.5913 17C13.6913 17 14.5913 16.1 14.5913 15C14.5913 13.9 13.6913 13 12.5913 13C11.4913 13 10.5913 13.9 10.5913 15Z" fill="#0C6CF2"/>
</svg>
