<?xml version="1.0" encoding="UTF-8"?>
<svg width="45px" height="19px" viewBox="0 0 45 19" version="1.1" xmlns="http://www.w3.org/2000/svg" xmlns:xlink="http://www.w3.org/1999/xlink">
    <!-- Generator: Sketch 51.1 (57501) - http://www.bohemiancoding.com/sketch -->
    <title>carbon</title>
    <desc>Created with Sketch.</desc>
    <defs></defs>
    <g id="Page-2" stroke="none" stroke-width="1" fill="none" fill-rule="evenodd">
        <g id="2" transform="translate(-773.000000, -371.000000)" fill-rule="nonzero">
            <g id="modal" transform="translate(570.000000, 235.000000)">
                <g id="Group-8">
                    <g id="connect" transform="translate(61.000000, 82.000000)">
                        <g id="carbon" transform="translate(164.284271, 63.284271) rotate(-135.000000) translate(-164.284271, -63.284271) translate(144.284271, 43.284271)">
                            <polygon id="Shape" fill="#B9BBBC" points="32.7960105 15.0166529 39.5893578 8.22357577 31.365455 0 24.5727048 6.79239485"></polygon>
                            <rect id="Rectangle-path" fill="#444242" transform="translate(28.668156, 11.262490) rotate(-135.000000) translate(-28.668156, -11.262490) " x="21.1598292" y="10.238627" width="15.0166529" height="2.0477254"></rect>
                            <path d="M29.0621079,13.5094388 C31.8597781,16.3083333 34.1287567,18.5766692 34.1287567,18.5766692 L14.6834041,38.0208656 C12.3178187,40.3871719 8.13155439,40.0360833 5.33320145,37.2377862 L2.35144929,34.2548135 C-0.446647628,31.4566017 -0.797828547,27.2698236 1.56843958,24.9048828 L21.0124267,5.46060107 C21.0124267,5.46060107 23.280808,7.72893704 26.079673,10.5264661 L29.0621079,13.5094388 Z" id="Shape" fill="#59595A"></path>
                            <polygon id="Shape" fill="#59595A" points="32.0472028 4.77802594 30.0333059 2.76369896 31.4316118 1.36515027 33.4461816 3.38014958"></polygon>
                            <polygon id="Shape" fill="#59595A" points="36.8253349 10.238627 34.8113318 8.22481577 36.2102045 6.82575134 38.2242075 8.84015166"></polygon>
                            <polygon id="Shape" fill="#FFFFFF" points="29.3361165 10.9212021 28.7523732 10.3300138 29.6776931 9.39315741 28.6681556 8.3710335 31.1428311 5.86558852 32.152286 6.88762883 34.9101636 4.0954508 35.493907 4.68663918 32.152286 8.069922 31.1428311 7.04779808 29.83589 8.3710335 30.8453449 9.39315741"></polygon>
                            <path d="M33.0683494,16.9751673 L34.2787217,15.75546 L33.2104191,14.678918 L39.5893578,8.25069575 L35.4659148,4.0954508 L4.0954508,35.708031 L5.58962048,37.2143278 C8.39415019,40.0404873 12.5898683,40.3951687 14.9607475,38.0052284 L34.449616,18.3668283 C34.4495304,18.3669145 33.9241034,17.8375213 33.0683494,16.9751673 Z" id="Shape" fill="#5B5B5F" opacity="0.3"></path>
                        </g>
                    </g>
                </g>
            </g>
        </g>
    </g>
</svg>