<svg fill="none" height="24" viewBox="0 0 32 24" width="32" xmlns="http://www.w3.org/2000/svg"><rect fill="#fff" height="24" rx="4" width="32"/><path d="m19.1664 6.51562h-6.3311v10.34048h6.3311z" fill="#ff5f00"/><path d="m13.4875 11.6863c-.0008-.9957.2249-1.97857.6601-2.87416.4351-.89559 1.0682-1.68046 1.8515-2.29522-.9701-.76239-2.1351-1.23648-3.3619-1.36808s-2.4659.08461-3.57559.6239c-1.10973.53929-2.04535 1.37991-2.69992 2.42579-.65458 1.04588-1.0017 2.25477-1.0017 3.48867 0 1.2338.34712 2.4427 1.0017 3.4886.65457 1.0459 1.59019 1.8865 2.69992 2.4258 1.10969.5393 2.34879.7555 3.57559.6239s2.3918-.6057 3.3619-1.3681c-.7835-.6149-1.4168-1.4001-1.8519-2.296-.4352-.8959-.6608-1.8791-.6597-2.8751z" fill="#eb001b"/><g fill="#f79e1b"><path d="m26.0108 15.7616v-.2119h.0913v-.0438h-.2173v.0438h.0858v.2119zm.422 0v-.2557h-.0658l-.0767.1826-.0767-.1826h-.0658v.2557h.0475v-.1936l.0712.1662h.0494l.0712-.1662v.1936z"/><path d="m26.6391 11.6869c0 1.2339-.3472 2.4429-1.0019 3.4888-.6547 1.046-1.5905 1.8866-2.7003 2.4258-1.1099.5392-2.3491.7553-3.576.6235-1.2268-.1318-2.3919-.6061-3.3619-1.3688.783-.6153 1.4159-1.4004 1.8512-2.296.4352-.8956.6614-1.8784.6614-2.8742s-.2262-1.9786-.6614-2.87424c-.4353-.89564-1.0682-1.68073-1.8512-2.29603.97-.76264 2.1351-1.23695 3.3619-1.36874 1.2269-.13179 2.4661.08428 3.576.62349 1.1098.53922 2.0456 1.37982 2.7003 2.42574.6547 1.04591 1.0019 2.25488 1.0019 3.48888z"/></g></svg>