<svg viewBox="0 0 42.74 42.75" xmlns="http://www.w3.org/2000/svg"><path d="m41.64 28.13a21.37 21.37 0 0 0 -39.64-15.79z" fill="#fed09f"/><path d="m41.63 28.17-39.63-15.79a21.37 21.37 0 1 0 39.63 15.79z" fill="#fcbb76"/><g stroke="#f7941f" stroke-miterlimit="10"><circle cx="21.37" cy="21.37" fill="none" r="18.08" stroke-width="2"/><path d="m23.35 24.1a4 4 0 0 1 -3.1 4.1c-2.72.59-4.32-1-5.3-3.4l-1.79.77c-.2.08-.56.24-.73-.16s.23-.5.42-.57l1.76-.76-.5-1.18-1.77.76c-.23.1-.56.24-.71-.11s.18-.54.39-.63l1.24-.53.56-.24-.58-1.36c-.2-.48-.11-.73.35-.93l12.05-5.19a.59.59 0 0 1 .9.35l.6 1.4 1.63-.68c.15-.07.72-.32.88.06s-.42.59-.58.66l-1.62.7.55 1.17 1.72-.74c.33-.15.63-.27.77.06s-.1.52-.45.67l-1.73.74c.76 1.77.7 3.29-.66 4.53a3.6 3.6 0 0 1 -4.3.51zm-3.35-6.1-6 2.58c.54 1.27 1.18 2.77 1.72 4a11.16 11.16 0 0 0 .7 1.38 3.48 3.48 0 0 0 4.13 1.34 3.19 3.19 0 0 0 1.75-3.9c-.71-1.7-1.53-3.69-2.3-5.4zm.72-.33c.65 1.52 1.37 3.27 2.05 4.73a2.13 2.13 0 0 0 .95 1.07 2.9 2.9 0 0 0 3.28-.38 2.82 2.82 0 0 0 .73-3.27l-1.32-3.06-.57-1.32z" fill="#f79521" stroke-width=".5"/></g></svg>