<svg xmlns="http://www.w3.org/2000/svg" viewBox="0 0 42.74 42.75"><defs><style>.cls-1{fill:#fed09f;}.cls-2{fill:#fcbb76;}.cls-3{fill:none;stroke-width:2px;}.cls-3,.cls-4{stroke:#f7941f;stroke-miterlimit:10;}.cls-4{fill:#f79521;stroke-width:0.5px;}</style></defs><title>Asset 8</title><g id="Layer_2" data-name="Layer 2"><g id="Layer_1-2" data-name="Layer 1"><path class="cls-1" d="M41.64,28.13A21.37,21.37,0,0,0,2,12.34Z"/><path class="cls-2" d="M41.63,28.17,2,12.38A21.37,21.37,0,1,0,41.63,28.17Z"/><circle class="cls-3" cx="21.37" cy="21.37" r="18.08"/><g id="_65Mtmg.tif" data-name="65Mtmg.tif"><path class="cls-4" d="M23.35,24.1a4,4,0,0,1-3.1,4.1c-2.72.59-4.32-1-5.3-3.4l-1.79.77c-.2.08-.56.24-.73-.16s.23-.5.42-.57l1.76-.76-.5-1.18-1.77.76c-.23.1-.56.24-.71-.11s.18-.54.39-.63l1.24-.53.56-.24-.58-1.36c-.2-.48-.11-.73.35-.93l12.05-5.19a.59.59,0,0,1,.9.35l.6,1.4,1.63-.68c.15-.07.72-.32.88.06s-.42.59-.58.66l-1.62.7L28,18.33l1.72-.74c.33-.15.63-.27.77.06s-.1.52-.45.67l-1.73.74c.76,1.77.7,3.29-.66,4.53A3.6,3.6,0,0,1,23.35,24.1ZM20,18l-6,2.58c.54,1.27,1.18,2.77,1.72,4a11.16,11.16,0,0,0,.7,1.38,3.48,3.48,0,0,0,4.13,1.34,3.19,3.19,0,0,0,1.75-3.9C21.59,21.7,20.77,19.71,20,18Zm.72-.33c.65,1.52,1.37,3.27,2.05,4.73a2.13,2.13,0,0,0,.95,1.07A2.9,2.9,0,0,0,27,23.09a2.82,2.82,0,0,0,.73-3.27l-1.32-3.06-.57-1.32Z"/></g></g></g></svg>