<svg viewBox="0 0 28.17 43.9" xmlns="http://www.w3.org/2000/svg"><g fill="#fff"><path d="m0 23.81 12.44 20.09.88-11z"/><path d="m27.93 26.06-15.49 17.84.88-11z" opacity=".65"/><path d="m27.93 26.06-15.49 17.84.88-11z"/><path d="m13.57 29.85 14.6-6.78-13.49-7.05-14.44 4.8z" opacity=".65"/><path d="m15.97 0-2.4 29.85-13.33-9.03z"/><path d="m13.57 29.85 1.11-13.83 13.49 7.05z" opacity=".65"/><path d="m15.97 0-2.4 29.85 14.6-6.78z" opacity=".65"/><path d="m15.97 0-2.4 29.85 14.6-6.78z"/></g><path d="m0 23.81 12.44 20.09.88-11z" fill="#6f59a6" opacity=".65"/><path d="m27.93 26.06-15.49 17.84.88-11z" fill="#6f59a6" opacity=".65"/><path d="m27.93 26.06-15.49 17.84.88-11z" fill="#6f59a6" opacity=".65"/><path d="m13.57 29.85 14.6-6.78-13.49-7.05-14.44 4.8z" fill="#6f59a6" opacity=".65"/><path d="m15.97 0-2.4 29.85-13.33-9.03z" fill="#6f59a6" opacity=".65"/><path d="m13.57 29.85 1.11-13.83 13.49 7.05z" fill="#6f59a6" opacity=".65"/><path d="m15.97 0-2.4 29.85 14.6-6.78z" fill="#6f59a6" opacity=".65"/><path d="m15.97 0-2.4 29.85 14.6-6.78z" fill="#6f59a6" opacity=".65"/></svg>