<svg xmlns="http://www.w3.org/2000/svg" viewBox="0 0 76.34 53.3"><defs><style>.cls-1{fill:#b1d396;}.cls-2{fill:#98c877;}.cls-3{fill:none;stroke:#80be56;stroke-width:2px;}.cls-3,.cls-4{stroke-miterlimit:10;}.cls-4,.cls-5{fill:#69a342;}.cls-4{stroke:#6aa342;stroke-width:0.5px;}</style></defs><title>Asset 9</title><g id="Layer_2" data-name="Layer 2"><g id="Layer_1-2" data-name="Layer 1"><path class="cls-1" d="M47.52,8.15A20.68,20.68,0,0,0,26.89,43.93Z"/><path class="cls-2" d="M47.56,8.17,26.92,44A20.69,20.69,0,1,0,47.56,8.17Z"/><circle class="cls-3" cx="38.23" cy="26.63" r="17.51"/><g id="_65Mtmg.tif" data-name="65Mtmg.tif"><path class="cls-4" d="M41.12,25.12a3.87,3.87,0,0,1,3.5,3.54c.18,2.69-1.58,4-4,4.61l.49,1.82c0,.2.15.56-.25.67s-.45-.29-.5-.48l-.48-1.79-1.2.32.49,1.8c.06.23.15.56-.21.66s-.49-.25-.54-.46l-.34-1.26c0-.18-.1-.35-.16-.58l-1.37.37c-.5.13-.72,0-.85-.46q-1.65-6.14-3.29-12.27c-.13-.45,0-.68.45-.81l1.42-.38c-.17-.66-.26-1-.42-1.65,0-.16-.21-.74.18-.84s.51.48.55.64c.15.53.3,1.09.45,1.65l1.19-.32c-.15-.57-.31-1.18-.47-1.75-.1-.34-.17-.64.17-.73s.48.16.58.52c.15.57.3,1.14.47,1.76,1.79-.48,3.24-.21,4.25,1.26A3.51,3.51,0,0,1,41.12,25.12Zm-6.34,2.34,1.64,6.12c1.3-.35,2.82-.75,4.08-1.1A9.84,9.84,0,0,0,41.92,32a3.38,3.38,0,0,0,1.86-3.78A3.09,3.09,0,0,0,40.28,26C38.58,26.47,36.55,27,34.78,27.46Zm-.21-.73c1.55-.42,3.32-.87,4.81-1.32a2,2,0,0,0,1.16-.76,2.8,2.8,0,0,0,.12-3.18,2.73,2.73,0,0,0-3-1.15l-3.12.84-1.34.36Z"/></g><path class="cls-5" d="M47.87,5.09a22.07,22.07,0,0,1,9.49,35.37l19-5.09L66.85,0Z"/><path class="cls-5" d="M28.47,48.21A22.07,22.07,0,0,1,19,12.84L0,17.93,9.49,53.3Z"/></g></g></svg>