<svg width="30" height="30" viewBox="0 0 30 30" fill="none" xmlns="http://www.w3.org/2000/svg">
<path fill-rule="evenodd" clip-rule="evenodd" d="M6.25 6.25C6.25 4.17893 7.92893 2.5 10 2.5H20C22.0711 2.5 23.75 4.17893 23.75 6.25V23.75C23.75 25.8211 22.0711 27.5 20 27.5H10C7.92893 27.5 6.25 25.8211 6.25 23.75V6.25ZM10 6.25C10 5.55964 10.5596 5 11.25 5H18.75C19.4404 5 20 5.55964 20 6.25C20 6.94036 19.4404 7.5 18.75 7.5H11.25C10.5596 7.5 10 6.94036 10 6.25ZM11.875 23.75C11.5298 23.75 11.25 24.0298 11.25 24.375C11.25 24.7202 11.5298 25 11.875 25H18.125C18.4702 25 18.75 24.7202 18.75 24.375C18.75 24.0298 18.4702 23.75 18.125 23.75H11.875Z" fill="white"/>
</svg>
