<svg width="96" height="96" viewBox="0 0 96 96" fill="none" xmlns="http://www.w3.org/2000/svg">
<mask id="mask0_1906_17460" style="mask-type:alpha" maskUnits="userSpaceOnUse" x="0" y="0" width="89" height="88">
<path fill-rule="evenodd" clip-rule="evenodd" d="M88.5 0H0.5V88H48.4243C45.9284 83.6855 44.5 78.6762 44.5 73.3333C44.5 57.133 57.633 44 73.8333 44C79.1762 44 84.1855 45.4284 88.5 47.9243V0Z" fill="#D9D9D9"/>
</mask>
<g mask="url(#mask0_1906_17460)">
<path d="M44.5 88C68.8005 88 88.5 68.3005 88.5 44C88.5 19.6995 68.8005 0 44.5 0C20.1995 0 0.5 19.6995 0.5 44C0.5 68.3005 20.1995 88 44.5 88Z" fill="white"/>
<path fill-rule="evenodd" clip-rule="evenodd" d="M49.389 26.0976C48.3338 25.8866 47.0677 25.8866 46.0125 25.8866C35.2499 25.8866 26.3866 34.7499 26.3866 45.5125C26.3866 46.0401 26.4394 46.6204 26.4921 47.2007C26.5449 47.7811 26.5976 48.3614 26.5976 48.889C22.588 45.9346 20.0557 41.0808 20.0557 35.8051C20.0557 26.7307 27.4418 19.5557 36.3051 19.5557C41.7919 19.5557 46.4346 22.088 49.389 26.0976ZM68.9448 49.6223C68.9448 60.0175 60.5178 68.4445 50.1226 68.4445C39.7273 68.4445 31.3003 60.0175 31.3003 49.6223C31.3003 39.227 39.7273 30.8 50.1226 30.8C60.5178 30.8 68.9448 39.227 68.9448 49.6223Z" fill="#121D33"/>
</g>
<g clip-path="url(#clip0_1906_17460)">
<path fill-rule="evenodd" clip-rule="evenodd" d="M73.833 95.3333C85.9833 95.3333 95.833 85.4835 95.833 73.3333C95.833 61.183 85.9833 51.3333 73.833 51.3333C61.6827 51.3333 51.833 61.183 51.833 73.3333C51.833 85.4835 61.6827 95.3333 73.833 95.3333ZM84.4226 67.1561C85.0611 66.3702 84.9416 65.2156 84.1558 64.5771C83.37 63.9386 82.2153 64.0581 81.5768 64.8439L71.0311 77.8232L66.0461 72.1261C65.3793 71.3641 64.2211 71.2868 63.4591 71.9536C62.6971 72.6203 62.6199 73.7786 63.2866 74.5406L68.2717 80.2377C69.7681 81.948 72.4439 81.8991 73.8769 80.1354L84.4226 67.1561Z" fill="#00B083"/>
</g>
<defs>
<clipPath id="clip0_1906_17460">
<rect width="44" height="44" fill="white" transform="translate(51.833 51.3333)"/>
</clipPath>
</defs>
</svg>
