<svg width="40" height="40" viewBox="0 0 40 40" fill="none" xmlns="http://www.w3.org/2000/svg">
<g id="Offline">
<path id="Subtract" fill-rule="evenodd" clip-rule="evenodd" d="M4.84796 10.9987C4.06904 10.6216 3.11945 10.9049 2.67987 11.6663C2.21963 12.4634 2.49276 13.4827 3.28991 13.943L6.3468 15.7079C4.49514 17.3848 3.33338 19.8082 3.33338 22.4999C3.33338 27.5579 7.44207 31.6666 12.5 31.6666H28.75C30.0759 31.6666 31.3258 31.3402 32.424 30.7635L35.0442 32.2763C35.8413 32.7366 36.8606 32.4634 37.3209 31.6663C37.7595 30.9065 37.532 29.945 36.8196 29.458C36.783 29.4402 36.7467 29.421 36.7109 29.4003L4.9566 11.067C4.91923 11.0454 4.88301 11.0226 4.84796 10.9987ZM36.4893 25.4234C36.6055 24.8839 36.6667 24.324 36.6667 23.7499C36.6667 19.9841 34.0389 16.8693 30.528 16.0681C29.1234 11.5796 24.9455 8.33325 20 8.33325C17.0073 8.33325 14.2935 9.52735 12.3068 11.4616L36.4893 25.4234Z" fill="#CF1726"/>
</g>
</svg>
