<svg width="32" height="32" viewBox="0 0 32 32" fill="none" xmlns="http://www.w3.org/2000/svg">
<g clip-path="url(#clip0_1245_81364)">
<rect width="32" height="32" rx="16" fill="#0C6CF2"/>
<path d="M11.3333 9.81818C10.4965 9.81818 9.81818 10.4965 9.81818 11.3333C9.81818 12.1701 10.4965 12.8485 11.3333 12.8485C12.1701 12.8485 12.8485 12.1701 12.8485 11.3333C12.8485 10.4965 12.1701 9.81818 11.3333 9.81818Z" fill="#ECF5FE"/>
<path d="M20.6667 19.1515C19.8299 19.1515 19.1515 19.8299 19.1515 20.6667C19.1515 21.5035 19.8299 22.1818 20.6667 22.1818C21.5035 22.1818 22.1818 21.5035 22.1818 20.6667C22.1818 19.8299 21.5035 19.1515 20.6667 19.1515Z" fill="#ECF5FE"/>
<path fill-rule="evenodd" clip-rule="evenodd" d="M16 32C24.8366 32 32 24.8366 32 16C32 7.16344 24.8366 0 16 0C7.16344 0 0 7.16344 0 16C0 24.8366 7.16344 32 16 32ZM8 11.3333C8 9.49238 9.49238 8 11.3333 8C13.1743 8 14.6667 9.49238 14.6667 11.3333C14.6667 13.1743 13.1743 14.6667 11.3333 14.6667C9.49238 14.6667 8 13.1743 8 11.3333ZM17.3333 20.6667C17.3333 18.8257 18.8257 17.3333 20.6667 17.3333C22.5076 17.3333 24 18.8257 24 20.6667C24 22.5076 22.5076 24 20.6667 24C18.8257 24 17.3333 22.5076 17.3333 20.6667ZM24 9.6L9.6 24L8 22.4L22.4 8L24 9.6Z" fill="#ECF5FE"/>
</g>
<defs>
<clipPath id="clip0_1245_81364">
<rect width="32" height="32" rx="16" fill="white"/>
</clipPath>
</defs>
</svg>
