<svg fill="none" height="25" viewBox="0 0 25 25" width="25" xmlns="http://www.w3.org/2000/svg"><circle cx="12.6875" cy="12.4999" fill="#fff" r="12"/><path clip-rule="evenodd" d="m8.9375 9.68738c.51777 0 .9375-.41974.9375-.9375 0-.51777-.41973-.9375-.9375-.9375s-.9375.41973-.9375.9375c0 .51776.41973.9375.9375.9375zm0 1.56252c1.3807 0 2.5-1.1193 2.5-2.50002 0-1.38071-1.1193-2.5-2.5-2.5-1.38071 0-2.5 1.11929-2.5 2.5 0 1.38072 1.11929 2.50002 2.5 2.50002zm9.4993-4.04985-.243-.24307c-.3906-.39052-1.0237-.39052-1.4143 0l-9.63429 9.63432c-.39052.3905-.39052 1.0237 0 1.4142l.24307.2431c.39052.3905 1.02369.3905 1.41421 0l9.63431-9.63433c.3905-.39053.3905-1.02369 0-1.41422zm-1.0618 9.04985c0 .5177-.4197.9375-.9375.9375s-.9375-.4198-.9375-.9375c0-.5178.4197-.9375.9375-.9375s.9375.4197.9375.9375zm1.5625 0c0 1.3807-1.1193 2.5-2.5 2.5s-2.5-1.1193-2.5-2.5 1.1193-2.5 2.5-2.5 2.5 1.1193 2.5 2.5z" fill="#0c6cf2" fill-rule="evenodd"/></svg>