<?xml version="1.0" encoding="UTF-8"?>
<svg width="79px" height="44px" viewBox="0 0 79 44" version="1.1" xmlns="http://www.w3.org/2000/svg" xmlns:xlink="http://www.w3.org/1999/xlink">
    <!-- Generator: Sketch 52.5 (67469) - http://www.bohemiancoding.com/sketch -->
    <title>pb_plaid</title>
    <desc>Created with Sketch.</desc>
    <g id="Landers" stroke="none" stroke-width="1" fill="none" fill-rule="evenodd">
        <g id="Lander---SFOX" transform="translate(-1086.000000, -465.000000)">
            <g id="Group-7" transform="translate(539.000000, 208.000000)">
                <g id="pb_plaid" transform="translate(547.000000, 257.000000)">
                    <path d="M41.4636675,24.3320769 C40.8031711,23.7636203 39.6758904,23.4797117 38.0812008,23.4797117 L34.4844007,23.4797117 L34.4844007,34.8539591 L37.1738773,34.8539591 L37.1738773,31.289116 L38.3786429,31.289116 C39.8408583,31.289116 40.9131497,30.9598076 41.5955169,30.3005514 C42.3641173,29.5620055 42.7509171,28.5785564 42.7509171,27.3508436 C42.7509171,26.077731 42.3216256,25.0712623 41.4636675,24.3320769 Z M38.3117809,28.7153952 L37.1738773,28.7153952 L37.1738773,26.0534325 L38.1961784,26.0534325 C39.4396864,26.0534325 40.0614404,26.4997573 40.0614404,27.3924068 C40.0614404,28.2735465 39.477804,28.7147558 38.3117809,28.7147558 L38.3117809,28.7153952 Z M47.3531465,23.4790723 L44.5486922,23.4790723 L44.5486922,34.8533197 L50.6037639,34.8533197 L50.6037639,32.2789594 L47.3531465,32.2789594 L47.3531465,23.4790723 Z M56.0983197,23.4790723 L51.692927,34.8533197 L54.7123394,34.8533197 L55.2897271,33.199744 L59.1177322,33.199744 L59.6457544,34.8533197 L62.6989103,34.8533197 L58.3247615,23.4790723 L56.0983197,23.4790723 Z M56.0652012,30.8971431 L57.2206014,27.009386 L58.35788,30.8971431 L56.0645763,30.8971431 L56.0652012,30.8971431 Z M64.2494544,34.6782803 L64.2494544,23.4373644 L67.0640084,23.4373644 L67.0640084,34.6782803 L64.2494544,34.6782803 Z M77.9911745,25.5442462 L77.9905475,25.5442462 C78.6633069,26.4997367 79,27.6568155 79,29.0154825 C79,30.7236113 78.5259962,32.0949171 77.5767347,33.128136 C76.6274732,34.1619868 75.3697331,34.6782803 73.8022603,34.6782803 L69.4647497,34.6782803 L69.4647497,23.4379963 L73.1727633,23.4379963 C74.6405448,23.4379963 75.7998476,23.707202 76.6494179,24.2468772 C77.1792015,24.5833203 77.6356782,25.0246959 77.9911745,25.5442462 Z M73.4875118,32.1334653 C75.2869705,32.1334653 76.1866999,31.1223643 76.1866999,29.1001622 C76.1866999,28.1054915 75.9547139,27.3370547 75.490742,26.7954837 C75.0267701,26.2539128 74.3652965,25.9821793 73.5044405,25.9821793 L72.2793038,25.9821793 L72.2793038,32.1334653 L73.4875118,32.1334653 Z M11.6851959,14 L14.8289193,17.2519537 L18.0228018,14.0524509 L27.1053659,16.6099046 L29.4709958,25.8956038 L26.2764863,29.0951067 L29.4195827,32.3470604 L26.9066104,41.5923156 L17.7857999,44 L14.6420765,40.7474143 L11.4469401,43.9475491 L2.36562989,41.3900954 L0,32.1050281 L3.19450948,28.9055252 L0.0507861174,25.6523076 L2.56438543,16.4076844 L11.6851959,14 Z M6.08806419,18.1859583 L9.92962643,22.1595854 L12.9937222,19.0908938 L10.8926817,16.9170265 L6.08806419,18.1859583 Z M16.6352749,19.1199629 L19.6498385,22.2392097 L23.5540996,18.3294083 L18.7701728,16.9821162 L16.6352749,19.1199629 Z M2.92929309,24.8933499 L2.92929309,24.892718 L5.02970658,27.0665852 L8.09317534,23.9978935 L4.25286709,20.0242664 L2.92929309,24.8933499 Z M21.4549401,24.1078508 L24.4701307,27.2264656 L26.6044016,25.0879869 L25.3592013,20.1967855 L21.4549401,24.1078508 Z M11.735355,24.0275946 L14.7499187,27.1468414 L17.8133874,24.0781497 L14.7994508,20.958903 L11.735355,24.0275946 Z M6.83606219,28.9345944 L9.8506258,32.0538411 L12.9153485,28.9851495 L9.89953095,25.8659027 L6.83606219,28.9345944 Z M16.5562743,29.0148505 L19.5702109,32.1340973 L22.6343066,29.0654056 L19.619743,25.9461589 L16.5562743,29.0148505 Z M2.8653402,32.9120131 L4.11179454,37.8019506 L8.0148017,33.8927812 L5.00086509,30.7729025 L2.8653402,32.9120131 Z M11.6563544,33.9218503 L14.671545,37.041097 L17.7350138,33.9724054 L14.7204502,30.8531586 L11.6563544,33.9218503 Z M21.3759395,34.0027384 L25.2181287,37.9763655 L26.5410757,33.107282 L24.4400352,30.9340467 L21.3759395,34.0027384 Z M5.91689617,39.6712236 L5.91689617,39.6705917 L10.700823,41.0185158 L12.8363479,38.8794051 L9.82053032,35.7601584 L5.91689617,39.6712236 Z M16.4772736,38.9091062 L18.5776871,41.0829735 L23.3816776,39.8146736 L19.5407424,35.8404146 L16.4772736,38.9091062 Z" id="Combined-Shape" fill="#000000"></path>
                    <path d="M2.304,0.336 C2.78933576,0.336 3.2119982,0.4159992 3.572,0.576 C3.9320018,0.7360008 4.20799904,0.96533184 4.4,1.264 C4.59200096,1.56266816 4.688,1.91733128 4.688,2.328 C4.688,2.73333536 4.59200096,3.08666516 4.4,3.388 C4.20799904,3.68933484 3.9320018,3.9199992 3.572,4.08 C3.2119982,4.2400008 2.78933576,4.32 2.304,4.32 L1.04,4.32 L1.04,5.936 L0,5.936 L0,0.336 L2.304,0.336 Z M2.256,3.44 C2.7093356,3.44 3.05333216,3.34400096 3.288,3.152 C3.52266784,2.95999904 3.64,2.68533512 3.64,2.328 C3.64,1.97066488 3.52266784,1.69600096 3.288,1.504 C3.05333216,1.31199904 2.7093356,1.216 2.256,1.216 L1.04,1.216 L1.04,3.44 L2.256,3.44 Z M7.536,5.992 C7.10399784,5.992 6.7146684,5.8986676 6.368,5.712 C6.0213316,5.5253324 5.75066764,5.265335 5.556,4.932 C5.36133236,4.598665 5.264,4.22133544 5.264,3.8 C5.264,3.37866456 5.36133236,3.00266832 5.556,2.672 C5.75066764,2.34133168 6.0213316,2.0826676 6.368,1.896 C6.7146684,1.7093324 7.10399784,1.616 7.536,1.616 C7.97333552,1.616 8.3653316,1.7093324 8.712,1.896 C9.0586684,2.0826676 9.32933236,2.34133168 9.524,2.672 C9.71866764,3.00266832 9.816,3.37866456 9.816,3.8 C9.816,4.22133544 9.71866764,4.598665 9.524,4.932 C9.32933236,5.265335 9.0586684,5.5253324 8.712,5.712 C8.3653316,5.8986676 7.97333552,5.992 7.536,5.992 Z M7.536,5.136 C7.90400184,5.136 8.2079988,5.01333456 8.448,4.768 C8.6880012,4.52266544 8.808,4.200002 8.808,3.8 C8.808,3.399998 8.6880012,3.07733456 8.448,2.832 C8.2079988,2.58666544 7.90400184,2.464 7.536,2.464 C7.16799816,2.464 6.86533452,2.58666544 6.628,2.832 C6.39066548,3.07733456 6.272,3.399998 6.272,3.8 C6.272,4.200002 6.39066548,4.52266544 6.628,4.768 C6.86533452,5.01333456 7.16799816,5.136 7.536,5.136 Z M17.32,1.664 L15.744,5.936 L14.784,5.936 L13.68,2.992 L12.56,5.936 L11.6,5.936 L10.032,1.664 L10.976,1.664 L12.104,4.816 L13.28,1.664 L14.12,1.664 L15.272,4.832 L16.432,1.664 L17.32,1.664 Z M21.904,3.824 C21.904,3.89333368 21.8986667,3.99199936 21.888,4.12 L18.536,4.12 C18.594667,4.43466824 18.7479988,4.68399908 18.996,4.868 C19.2440012,5.05200092 19.5519982,5.144 19.92,5.144 C20.3893357,5.144 20.7759985,4.98933488 21.08,4.68 L21.616,5.296 C21.423999,5.52533448 21.1813348,5.69866608 20.888,5.816 C20.5946652,5.93333392 20.2640018,5.992 19.896,5.992 C19.4266643,5.992 19.0133351,5.8986676 18.656,5.712 C18.2986649,5.5253324 18.0226676,5.265335 17.828,4.932 C17.6333324,4.598665 17.536,4.22133544 17.536,3.8 C17.536,3.38399792 17.6306657,3.009335 17.82,2.676 C18.0093343,2.342665 18.2719983,2.0826676 18.608,1.896 C18.9440017,1.7093324 19.3226646,1.616 19.744,1.616 C20.1600021,1.616 20.5319984,1.70799908 20.86,1.892 C21.1880016,2.07600092 21.4439991,2.334665 21.628,2.668 C21.8120009,3.001335 21.904,3.38666448 21.904,3.824 Z M19.744,2.416 C19.4239984,2.416 19.1533344,2.51066572 18.932,2.7 C18.7106656,2.88933428 18.5760002,3.14133176 18.528,3.456 L20.952,3.456 C20.9093331,3.14666512 20.7786678,2.89600096 20.56,2.704 C20.3413322,2.51199904 20.069335,2.416 19.744,2.416 Z M23.816,2.288 C24.1040014,1.83999776 24.610663,1.616 25.336,1.616 L25.336,2.568 C25.2506662,2.55199992 25.1733337,2.544 25.104,2.544 C24.7146647,2.544 24.4106678,2.6573322 24.192,2.884 C23.9733322,3.1106678 23.864,3.4373312 23.864,3.864 L23.864,5.936 L22.864,5.936 L22.864,1.664 L23.816,1.664 L23.816,2.288 Z M30.16,3.824 C30.16,3.89333368 30.1546667,3.99199936 30.144,4.12 L26.792,4.12 C26.850667,4.43466824 27.0039988,4.68399908 27.252,4.868 C27.5000012,5.05200092 27.8079982,5.144 28.176,5.144 C28.6453357,5.144 29.0319985,4.98933488 29.336,4.68 L29.872,5.296 C29.679999,5.52533448 29.4373348,5.69866608 29.144,5.816 C28.8506652,5.93333392 28.5200018,5.992 28.152,5.992 C27.6826643,5.992 27.2693351,5.8986676 26.912,5.712 C26.5546649,5.5253324 26.2786676,5.265335 26.084,4.932 C25.8893324,4.598665 25.792,4.22133544 25.792,3.8 C25.792,3.38399792 25.8866657,3.009335 26.076,2.676 C26.2653343,2.342665 26.5279983,2.0826676 26.864,1.896 C27.2000017,1.7093324 27.5786646,1.616 28,1.616 C28.4160021,1.616 28.7879984,1.70799908 29.116,1.892 C29.4440016,2.07600092 29.6999991,2.334665 29.884,2.668 C30.0680009,3.001335 30.16,3.38666448 30.16,3.824 Z M28,2.416 C27.6799984,2.416 27.4093344,2.51066572 27.188,2.7 C26.9666656,2.88933428 26.8320002,3.14133176 26.784,3.456 L29.208,3.456 C29.1653331,3.14666512 29.0346678,2.89600096 28.816,2.704 C28.5973322,2.51199904 28.325335,2.416 28,2.416 Z M35.304,0 L35.304,5.936 L34.344,5.936 L34.344,5.384 C34.1786658,5.58666768 33.9746679,5.73866616 33.732,5.84 C33.4893321,5.94133384 33.2213348,5.992 32.928,5.992 C32.5173313,5.992 32.1480016,5.90133424 31.82,5.72 C31.4919984,5.53866576 31.2346676,5.281335 31.048,4.948 C30.8613324,4.614665 30.768,4.23200216 30.768,3.8 C30.768,3.36799784 30.8613324,2.98666832 31.048,2.656 C31.2346676,2.32533168 31.4919984,2.06933424 31.82,1.888 C32.1480016,1.70666576 32.5173313,1.616 32.928,1.616 C33.2106681,1.616 33.4693322,1.66399952 33.704,1.76 C33.9386678,1.85600048 34.1386658,1.99999904 34.304,2.192 L34.304,0 L35.304,0 Z M33.048,5.136 C33.2880012,5.136 33.503999,5.08133388 33.696,4.972 C33.888001,4.86266612 34.0399994,4.70666768 34.152,4.504 C34.2640006,4.30133232 34.32,4.066668 34.32,3.8 C34.32,3.533332 34.2640006,3.29866768 34.152,3.096 C34.0399994,2.89333232 33.888001,2.73733388 33.696,2.628 C33.503999,2.51866612 33.2880012,2.464 33.048,2.464 C32.8079988,2.464 32.592001,2.51866612 32.4,2.628 C32.207999,2.73733388 32.0560006,2.89333232 31.944,3.096 C31.8319994,3.29866768 31.776,3.533332 31.776,3.8 C31.776,4.066668 31.8319994,4.30133232 31.944,4.504 C32.0560006,4.70666768 32.207999,4.86266612 32.4,4.972 C32.592001,5.08133388 32.8079988,5.136 33.048,5.136 Z M41.192,1.616 C41.6080021,1.616 41.9799984,1.70666576 42.308,1.888 C42.6360016,2.06933424 42.8933324,2.32533168 43.08,2.656 C43.2666676,2.98666832 43.36,3.36799784 43.36,3.8 C43.36,4.23200216 43.2666676,4.614665 43.08,4.948 C42.8933324,5.281335 42.6360016,5.53866576 42.308,5.72 C41.9799984,5.90133424 41.6080021,5.992 41.192,5.992 C40.8986652,5.992 40.6306679,5.94133384 40.388,5.84 C40.1453321,5.73866616 39.9413342,5.58666768 39.776,5.384 L39.776,5.936 L38.824,5.936 L38.824,0 L39.824,0 L39.824,2.184 C39.9946675,1.9973324 40.1959988,1.85600048 40.428,1.76 C40.6600012,1.66399952 40.9146653,1.616 41.192,1.616 Z M41.08,5.136 C41.4480018,5.136 41.7506655,5.01333456 41.988,4.768 C42.2253345,4.52266544 42.344,4.200002 42.344,3.8 C42.344,3.399998 42.2253345,3.07733456 41.988,2.832 C41.7506655,2.58666544 41.4480018,2.464 41.08,2.464 C40.8399988,2.464 40.624001,2.51866612 40.432,2.628 C40.239999,2.73733388 40.0880006,2.89333232 39.976,3.096 C39.8639994,3.29866768 39.808,3.533332 39.808,3.8 C39.808,4.066668 39.8639994,4.30133232 39.976,4.504 C40.0880006,4.70666768 40.239999,4.86266612 40.432,4.972 C40.624001,5.08133388 40.8399988,5.136 41.08,5.136 Z M48.192,1.664 L46.192,6.28 C46.0053324,6.74400232 45.778668,7.07066572 45.512,7.26 C45.245332,7.44933428 44.9226686,7.544 44.544,7.544 C44.3306656,7.544 44.120001,7.50933368 43.912,7.44 C43.703999,7.37066632 43.533334,7.27466728 43.4,7.152 L43.8,6.416 C43.8960005,6.50666712 44.0093327,6.5786664 44.14,6.632 C44.2706673,6.6853336 44.402666,6.712 44.536,6.712 C44.7120009,6.712 44.8573328,6.66666712 44.972,6.576 C45.0866672,6.48533288 45.1919995,6.3333344 45.288,6.12 L45.36,5.952 L43.496,1.664 L44.536,1.664 L45.88,4.824 L47.232,1.664 L48.192,1.664 Z" id="Powered-by" fill="#123962"></path>
                </g>
            </g>
        </g>
    </g>
</svg>