<?xml version="1.0" encoding="UTF-8"?>
<svg width="98px" height="37px" viewBox="0 0 98 37" version="1.1" xmlns="http://www.w3.org/2000/svg" xmlns:xlink="http://www.w3.org/1999/xlink">
    <!-- Generator: Sketch 52.5 (67469) - http://www.bohemiancoding.com/sketch -->
    <title>pb_coinify</title>
    <desc>Created with Sketch.</desc>
    <g id="Landers" stroke="none" stroke-width="1" fill="none" fill-rule="evenodd">
        <g id="Lander---Coinify" transform="translate(-1067.000000, -557.000000)" fill="#123962">
            <g id="pb_coinify" transform="translate(1067.000000, 557.000000)">
                <g id="Group" transform="translate(0.000000, 5.000000)">
                    <g id="Group-19">
                        <path d="M21.6751232,6.50754958 C19.8945221,5.24368403 17.7390577,4.49074286 15.3961615,4.47729748 C13.0666533,4.47729748 10.9111888,5.23023866 9.1305877,6.50754958 L15.4095495,-1.34453784e-05 L21.6751232,6.50754958 Z M30.8191525,16 L24.5401907,22.4941176 C25.4104093,21.1764706 26.0262563,19.6705882 26.3074038,18.0302521 L18.877076,17.4386555 C18.3281689,18.8638655 16.989371,19.8722689 15.4095896,19.8722689 C13.334453,19.8722689 11.6609557,18.1243697 11.6609557,15.9865546 C11.6609557,13.8352941 13.347841,12.1008403 15.4095896,12.1008403 C16.9759831,12.1008403 18.3281689,13.1092437 18.877076,14.5344538 L26.3074038,13.9428571 C26.0262563,12.3159664 25.4104093,10.7966387 24.5401907,9.4789916 L30.8191525,16 Z M8.8817842e-14,16 L6.26557377,9.4789916 C5.04726776,11.3344538 4.32431694,13.5798319 4.32431694,16 C4.32431694,18.4201681 5.04726776,20.6521008 6.26557377,22.507563 L8.8817842e-14,16 Z M9.13062787,25.4923832 C10.9246169,26.7696941 13.0800814,27.5091899 15.3962016,27.5091899 C17.7257098,27.5091899 19.8811743,26.7696941 21.6617754,25.4923832 L15.3962016,31.9999462 L9.13062787,25.4923832 Z M44.7827869,17.4386824 L47.4871585,18.3260773 C47.0721311,19.8857412 46.3893443,21.0553546 45.4254098,21.8084303 C44.4614754,22.5748168 43.2297814,22.9512874 41.7571038,22.9512874 C39.9229508,22.9512874 38.4101093,22.3059092 37.2319672,21.0017076 C36.0538251,19.6975059 35.4647541,17.922716 35.4647541,15.6638924 C35.4647541,13.2706151 36.0672131,11.4285983 37.2453552,10.0975059 C38.4368852,8.77985882 39.9898907,8.12103529 41.9311475,8.12103529 C43.6180328,8.12103529 44.9836066,8.63195966 46.0412568,9.68069916 C46.6704918,10.2991866 47.139071,11.1731361 47.4469945,12.3294387 L44.689071,13.0151529 C44.5284153,12.2756571 44.1803279,11.6840605 43.6715847,11.2538084 C43.1494536,10.8235563 42.5202186,10.6084303 41.7838798,10.6084303 C40.7663934,10.6084303 39.9229508,10.9849008 39.2937158,11.7512874 C38.6644809,12.5176739 38.3431694,13.7546487 38.3431694,15.4622118 C38.3431694,17.2773378 38.6510929,18.5679597 39.2803279,19.3344807 C39.9095628,20.1141782 40.7262295,20.4907832 41.7303279,20.4907832 C42.4666667,20.4907832 43.1092896,20.2486319 43.6448087,19.7512874 C44.1669399,19.2538084 44.5418033,18.4874218 44.7827869,17.4386824 Z M51.6106557,17.5193008 C51.6106557,18.554595 51.8516393,19.3344269 52.3202186,19.8858218 C52.7887978,20.4369479 53.3778689,20.7058555 54.0606557,20.7058555 C54.7568306,20.7058555 55.3325137,20.4369479 55.8010929,19.8858218 C56.2696721,19.3344269 56.4972678,18.541284 56.4972678,17.4924101 C56.4972678,16.4705613 56.2562842,15.6907294 55.8010929,15.1394689 C55.3325137,14.5882084 54.7568306,14.3193008 54.0606557,14.3193008 C53.3644809,14.3193008 52.7887978,14.5882084 52.3202186,15.1394689 C51.8382514,15.7041748 51.6106557,16.4840067 51.6106557,17.5193008 Z M48.8928962,17.3714017 C48.8928962,16.4572504 49.1071038,15.5831664 49.5489071,14.7226622 C49.9773224,13.862158 50.5931694,13.2167798 51.3830601,12.7730824 C52.1729508,12.3159395 53.0699454,12.1008134 54.0472678,12.1008134 C55.5601093,12.1008134 56.8051913,12.6117378 57.7691257,13.6335866 C58.7330601,14.6554353 59.2150273,15.9461916 59.2150273,17.5058555 C59.2150273,19.0790992 58.7196721,20.3831664 57.7423497,21.4184605 C56.7650273,22.4537546 55.5333333,22.964679 54.0606557,22.964679 C53.1502732,22.964679 52.2666667,22.7495529 51.436612,22.3193008 C50.6065574,21.8890487 49.9639344,21.257116 49.5355191,20.423637 C49.1071038,19.5764437 48.8928962,18.5680403 48.8928962,17.3714017 Z M61.0224044,22.7226891 L61.0224044,12.3294118 L63.673224,12.3294118 L63.673224,22.7226891 L61.0224044,22.7226891 Z M61.0224044,10.9176471 L61.0224044,8.37647059 L63.673224,8.37647059 L63.673224,10.9176471 L61.0224044,10.9176471 Z M75.1466945,22.7092975 L72.4958749,22.7092975 L72.4958749,17.4118185 C72.4958749,16.2958521 72.442323,15.5696672 72.3218311,15.2335328 C72.2013393,14.8973983 72.0272956,14.6420706 71.772924,14.4672807 C71.5185525,14.2790454 71.2107628,14.1849277 70.8625415,14.1849277 C70.4074842,14.1849277 69.992323,14.3193815 69.6308475,14.5748437 C69.269506,14.8301714 69.0150005,15.1798857 68.8811208,15.6101378 C68.747241,16.0402555 68.6803011,16.8336672 68.6803011,18.0034151 L68.6803011,22.7092975 L66.0294814,22.7092975 L66.0294814,12.3294655 L68.4928694,12.3294655 L68.4928694,13.8487933 C69.363088,12.6789109 70.4609022,12.0874487 71.786312,12.0874487 C72.3753831,12.0874487 72.9109022,12.1950118 73.3928694,12.4100034 C73.8748366,12.6252639 74.236312,12.9076168 74.4908175,13.2437513 C74.7450552,13.5798857 74.9057109,13.9698017 75.0128148,14.4000538 C75.1065306,14.8301714 75.1602164,15.4487933 75.1602164,16.255516 L75.1602164,22.7092975 L75.1466945,22.7092975 Z M77.2887978,22.7226891 L77.2887978,12.3294118 L79.9396175,12.3294118 L79.9396175,22.7226891 L77.2887978,22.7226891 Z M77.2887978,10.9176471 L77.2887978,8.37647059 L79.9396175,8.37647059 L79.9396175,10.9176471 L77.2887978,10.9176471 Z M95.094782,12.3294387 L95.094782,12.3025479 L97.8794814,12.3025479 L94.3450552,22.3059092 L93.7158202,24.1210353 C93.4748366,24.7260773 93.260629,25.1832202 93.0464213,25.5059092 C92.8323475,25.8284639 92.5912301,26.0840605 92.3234705,26.2857412 C92.0557109,26.4874218 91.7210115,26.6487664 91.3193721,26.7563294 C90.9177328,26.8638924 90.4625415,26.9176739 89.9671863,26.9176739 C89.4584432,26.9176739 88.963088,26.8638924 88.4677328,26.7563294 L88.2267492,24.6050689 C88.6417765,24.6856067 89.0167738,24.7260773 89.3514732,24.7260773 C89.9671863,24.7260773 90.4225115,24.537842 90.7169131,24.1613714 C91.0249705,23.7983462 91.2390443,23.3143126 91.3997,22.7360269 L88.3874049,14.4941445 L87.5841262,14.4941445 L85.6028393,14.4941445 L85.6028393,22.722716 L82.9518858,22.722716 L82.9518858,14.4941445 L81.6398639,14.4941445 L81.6398639,12.3294387 L82.9518858,12.3294387 L82.9518858,11.5496067 C82.9518858,10.6756571 83.0456016,10.0168336 83.2196454,9.58658151 C83.407077,9.15632941 83.7285224,8.80674958 84.2103557,8.53784202 C84.692323,8.26893445 85.294782,8.13448067 86.0311208,8.13448067 C86.7808475,8.13448067 87.5171863,8.2420437 88.2401372,8.4840605 L87.8787956,10.4067496 C87.4502464,10.2991866 87.0486071,10.245405 86.6603557,10.245405 C86.2722383,10.245405 86.0044787,10.3395227 85.8303011,10.527758 C85.6562574,10.7159933 85.5759295,11.0790185 85.5759295,11.6033882 L85.5759295,12.3294387 L87.5573503,12.3294387 L90.3688257,12.3294387 L92.7518858,19.7108168 L95.094782,12.3294387 Z" id="Combined-Shape"></path>
                    </g>
                </g>
                <path d="M38.304,0.336 C38.7893358,0.336 39.2119982,0.4159992 39.572,0.576 C39.9320018,0.7360008 40.207999,0.96533184 40.4,1.264 C40.592001,1.56266816 40.688,1.91733128 40.688,2.328 C40.688,2.73333536 40.592001,3.08666516 40.4,3.388 C40.207999,3.68933484 39.9320018,3.9199992 39.572,4.08 C39.2119982,4.2400008 38.7893358,4.32 38.304,4.32 L37.04,4.32 L37.04,5.936 L36,5.936 L36,0.336 L38.304,0.336 Z M38.256,3.44 C38.7093356,3.44 39.0533322,3.34400096 39.288,3.152 C39.5226678,2.95999904 39.64,2.68533512 39.64,2.328 C39.64,1.97066488 39.5226678,1.69600096 39.288,1.504 C39.0533322,1.31199904 38.7093356,1.216 38.256,1.216 L37.04,1.216 L37.04,3.44 L38.256,3.44 Z M43.536,5.992 C43.1039978,5.992 42.7146684,5.8986676 42.368,5.712 C42.0213316,5.5253324 41.7506676,5.265335 41.556,4.932 C41.3613324,4.598665 41.264,4.22133544 41.264,3.8 C41.264,3.37866456 41.3613324,3.00266832 41.556,2.672 C41.7506676,2.34133168 42.0213316,2.0826676 42.368,1.896 C42.7146684,1.7093324 43.1039978,1.616 43.536,1.616 C43.9733355,1.616 44.3653316,1.7093324 44.712,1.896 C45.0586684,2.0826676 45.3293324,2.34133168 45.524,2.672 C45.7186676,3.00266832 45.816,3.37866456 45.816,3.8 C45.816,4.22133544 45.7186676,4.598665 45.524,4.932 C45.3293324,5.265335 45.0586684,5.5253324 44.712,5.712 C44.3653316,5.8986676 43.9733355,5.992 43.536,5.992 Z M43.536,5.136 C43.9040018,5.136 44.2079988,5.01333456 44.448,4.768 C44.6880012,4.52266544 44.808,4.200002 44.808,3.8 C44.808,3.399998 44.6880012,3.07733456 44.448,2.832 C44.2079988,2.58666544 43.9040018,2.464 43.536,2.464 C43.1679982,2.464 42.8653345,2.58666544 42.628,2.832 C42.3906655,3.07733456 42.272,3.399998 42.272,3.8 C42.272,4.200002 42.3906655,4.52266544 42.628,4.768 C42.8653345,5.01333456 43.1679982,5.136 43.536,5.136 Z M53.32,1.664 L51.744,5.936 L50.784,5.936 L49.68,2.992 L48.56,5.936 L47.6,5.936 L46.032,1.664 L46.976,1.664 L48.104,4.816 L49.28,1.664 L50.12,1.664 L51.272,4.832 L52.432,1.664 L53.32,1.664 Z M57.904,3.824 C57.904,3.89333368 57.8986667,3.99199936 57.888,4.12 L54.536,4.12 C54.594667,4.43466824 54.7479988,4.68399908 54.996,4.868 C55.2440012,5.05200092 55.5519982,5.144 55.92,5.144 C56.3893357,5.144 56.7759985,4.98933488 57.08,4.68 L57.616,5.296 C57.423999,5.52533448 57.1813348,5.69866608 56.888,5.816 C56.5946652,5.93333392 56.2640018,5.992 55.896,5.992 C55.4266643,5.992 55.0133351,5.8986676 54.656,5.712 C54.2986649,5.5253324 54.0226676,5.265335 53.828,4.932 C53.6333324,4.598665 53.536,4.22133544 53.536,3.8 C53.536,3.38399792 53.6306657,3.009335 53.82,2.676 C54.0093343,2.342665 54.2719983,2.0826676 54.608,1.896 C54.9440017,1.7093324 55.3226646,1.616 55.744,1.616 C56.1600021,1.616 56.5319984,1.70799908 56.86,1.892 C57.1880016,2.07600092 57.4439991,2.334665 57.628,2.668 C57.8120009,3.001335 57.904,3.38666448 57.904,3.824 Z M55.744,2.416 C55.4239984,2.416 55.1533344,2.51066572 54.932,2.7 C54.7106656,2.88933428 54.5760002,3.14133176 54.528,3.456 L56.952,3.456 C56.9093331,3.14666512 56.7786678,2.89600096 56.56,2.704 C56.3413322,2.51199904 56.069335,2.416 55.744,2.416 Z M59.816,2.288 C60.1040014,1.83999776 60.610663,1.616 61.336,1.616 L61.336,2.568 C61.2506662,2.55199992 61.1733337,2.544 61.104,2.544 C60.7146647,2.544 60.4106678,2.6573322 60.192,2.884 C59.9733322,3.1106678 59.864,3.4373312 59.864,3.864 L59.864,5.936 L58.864,5.936 L58.864,1.664 L59.816,1.664 L59.816,2.288 Z M66.16,3.824 C66.16,3.89333368 66.1546667,3.99199936 66.144,4.12 L62.792,4.12 C62.850667,4.43466824 63.0039988,4.68399908 63.252,4.868 C63.5000012,5.05200092 63.8079982,5.144 64.176,5.144 C64.6453357,5.144 65.0319985,4.98933488 65.336,4.68 L65.872,5.296 C65.679999,5.52533448 65.4373348,5.69866608 65.144,5.816 C64.8506652,5.93333392 64.5200018,5.992 64.152,5.992 C63.6826643,5.992 63.2693351,5.8986676 62.912,5.712 C62.5546649,5.5253324 62.2786676,5.265335 62.084,4.932 C61.8893324,4.598665 61.792,4.22133544 61.792,3.8 C61.792,3.38399792 61.8866657,3.009335 62.076,2.676 C62.2653343,2.342665 62.5279983,2.0826676 62.864,1.896 C63.2000017,1.7093324 63.5786646,1.616 64,1.616 C64.4160021,1.616 64.7879984,1.70799908 65.116,1.892 C65.4440016,2.07600092 65.6999991,2.334665 65.884,2.668 C66.0680009,3.001335 66.16,3.38666448 66.16,3.824 Z M64,2.416 C63.6799984,2.416 63.4093344,2.51066572 63.188,2.7 C62.9666656,2.88933428 62.8320002,3.14133176 62.784,3.456 L65.208,3.456 C65.1653331,3.14666512 65.0346678,2.89600096 64.816,2.704 C64.5973322,2.51199904 64.325335,2.416 64,2.416 Z M71.304,-5.68434189e-14 L71.304,5.936 L70.344,5.936 L70.344,5.384 C70.1786658,5.58666768 69.9746679,5.73866616 69.732,5.84 C69.4893321,5.94133384 69.2213348,5.992 68.928,5.992 C68.5173313,5.992 68.1480016,5.90133424 67.82,5.72 C67.4919984,5.53866576 67.2346676,5.281335 67.048,4.948 C66.8613324,4.614665 66.768,4.23200216 66.768,3.8 C66.768,3.36799784 66.8613324,2.98666832 67.048,2.656 C67.2346676,2.32533168 67.4919984,2.06933424 67.82,1.888 C68.1480016,1.70666576 68.5173313,1.616 68.928,1.616 C69.2106681,1.616 69.4693322,1.66399952 69.704,1.76 C69.9386678,1.85600048 70.1386658,1.99999904 70.304,2.192 L70.304,-5.68434189e-14 L71.304,-5.68434189e-14 Z M69.048,5.136 C69.2880012,5.136 69.503999,5.08133388 69.696,4.972 C69.888001,4.86266612 70.0399994,4.70666768 70.152,4.504 C70.2640006,4.30133232 70.32,4.066668 70.32,3.8 C70.32,3.533332 70.2640006,3.29866768 70.152,3.096 C70.0399994,2.89333232 69.888001,2.73733388 69.696,2.628 C69.503999,2.51866612 69.2880012,2.464 69.048,2.464 C68.8079988,2.464 68.592001,2.51866612 68.4,2.628 C68.207999,2.73733388 68.0560006,2.89333232 67.944,3.096 C67.8319994,3.29866768 67.776,3.533332 67.776,3.8 C67.776,4.066668 67.8319994,4.30133232 67.944,4.504 C68.0560006,4.70666768 68.207999,4.86266612 68.4,4.972 C68.592001,5.08133388 68.8079988,5.136 69.048,5.136 Z M77.192,1.616 C77.6080021,1.616 77.9799984,1.70666576 78.308,1.888 C78.6360016,2.06933424 78.8933324,2.32533168 79.08,2.656 C79.2666676,2.98666832 79.36,3.36799784 79.36,3.8 C79.36,4.23200216 79.2666676,4.614665 79.08,4.948 C78.8933324,5.281335 78.6360016,5.53866576 78.308,5.72 C77.9799984,5.90133424 77.6080021,5.992 77.192,5.992 C76.8986652,5.992 76.6306679,5.94133384 76.388,5.84 C76.1453321,5.73866616 75.9413342,5.58666768 75.776,5.384 L75.776,5.936 L74.824,5.936 L74.824,-5.68434189e-14 L75.824,-5.68434189e-14 L75.824,2.184 C75.9946675,1.9973324 76.1959988,1.85600048 76.428,1.76 C76.6600012,1.66399952 76.9146653,1.616 77.192,1.616 Z M77.08,5.136 C77.4480018,5.136 77.7506655,5.01333456 77.988,4.768 C78.2253345,4.52266544 78.344,4.200002 78.344,3.8 C78.344,3.399998 78.2253345,3.07733456 77.988,2.832 C77.7506655,2.58666544 77.4480018,2.464 77.08,2.464 C76.8399988,2.464 76.624001,2.51866612 76.432,2.628 C76.239999,2.73733388 76.0880006,2.89333232 75.976,3.096 C75.8639994,3.29866768 75.808,3.533332 75.808,3.8 C75.808,4.066668 75.8639994,4.30133232 75.976,4.504 C76.0880006,4.70666768 76.239999,4.86266612 76.432,4.972 C76.624001,5.08133388 76.8399988,5.136 77.08,5.136 Z M84.192,1.664 L82.192,6.28 C82.0053324,6.74400232 81.778668,7.07066572 81.512,7.26 C81.245332,7.44933428 80.9226686,7.544 80.544,7.544 C80.3306656,7.544 80.120001,7.50933368 79.912,7.44 C79.703999,7.37066632 79.533334,7.27466728 79.4,7.152 L79.8,6.416 C79.8960005,6.50666712 80.0093327,6.5786664 80.14,6.632 C80.2706673,6.6853336 80.402666,6.712 80.536,6.712 C80.7120009,6.712 80.8573328,6.66666712 80.972,6.576 C81.0866672,6.48533288 81.1919995,6.3333344 81.288,6.12 L81.36,5.952 L79.496,1.664 L80.536,1.664 L81.88,4.824 L83.232,1.664 L84.192,1.664 Z" id="Powered-by"></path>
            </g>
        </g>
    </g>
</svg>