<?xml version="1.0" encoding="UTF-8"?>
<svg width="79px" height="28px" viewBox="0 0 79 28" version="1.1" xmlns="http://www.w3.org/2000/svg" xmlns:xlink="http://www.w3.org/1999/xlink">
    <!-- Generator: Sketch 52.5 (67469) - http://www.bohemiancoding.com/sketch -->
    <title>pb_plaid</title>
    <desc>Created with Sketch.</desc>
    <g id="Landers" stroke="none" stroke-width="1" fill="none" fill-rule="evenodd">
        <g id="Lander---SFOX-Copy" transform="translate(-1085.000000, -569.000000)">
            <g id="pb_plaid" transform="translate(1085.000000, 569.000000)">
                <path d="M28.304,0.336 C28.7893358,0.336 29.2119982,0.4159992 29.572,0.576 C29.9320018,0.7360008 30.207999,0.96533184 30.4,1.264 C30.592001,1.56266816 30.688,1.91733128 30.688,2.328 C30.688,2.73333536 30.592001,3.08666516 30.4,3.388 C30.207999,3.68933484 29.9320018,3.9199992 29.572,4.08 C29.2119982,4.2400008 28.7893358,4.32 28.304,4.32 L27.04,4.32 L27.04,5.936 L26,5.936 L26,0.336 L28.304,0.336 Z M28.256,3.44 C28.7093356,3.44 29.0533322,3.34400096 29.288,3.152 C29.5226678,2.95999904 29.64,2.68533512 29.64,2.328 C29.64,1.97066488 29.5226678,1.69600096 29.288,1.504 C29.0533322,1.31199904 28.7093356,1.216 28.256,1.216 L27.04,1.216 L27.04,3.44 L28.256,3.44 Z M33.536,5.992 C33.1039978,5.992 32.7146684,5.8986676 32.368,5.712 C32.0213316,5.5253324 31.7506676,5.265335 31.556,4.932 C31.3613324,4.598665 31.264,4.22133544 31.264,3.8 C31.264,3.37866456 31.3613324,3.00266832 31.556,2.672 C31.7506676,2.34133168 32.0213316,2.0826676 32.368,1.896 C32.7146684,1.7093324 33.1039978,1.616 33.536,1.616 C33.9733355,1.616 34.3653316,1.7093324 34.712,1.896 C35.0586684,2.0826676 35.3293324,2.34133168 35.524,2.672 C35.7186676,3.00266832 35.816,3.37866456 35.816,3.8 C35.816,4.22133544 35.7186676,4.598665 35.524,4.932 C35.3293324,5.265335 35.0586684,5.5253324 34.712,5.712 C34.3653316,5.8986676 33.9733355,5.992 33.536,5.992 Z M33.536,5.136 C33.9040018,5.136 34.2079988,5.01333456 34.448,4.768 C34.6880012,4.52266544 34.808,4.200002 34.808,3.8 C34.808,3.399998 34.6880012,3.07733456 34.448,2.832 C34.2079988,2.58666544 33.9040018,2.464 33.536,2.464 C33.1679982,2.464 32.8653345,2.58666544 32.628,2.832 C32.3906655,3.07733456 32.272,3.399998 32.272,3.8 C32.272,4.200002 32.3906655,4.52266544 32.628,4.768 C32.8653345,5.01333456 33.1679982,5.136 33.536,5.136 Z M43.32,1.664 L41.744,5.936 L40.784,5.936 L39.68,2.992 L38.56,5.936 L37.6,5.936 L36.032,1.664 L36.976,1.664 L38.104,4.816 L39.28,1.664 L40.12,1.664 L41.272,4.832 L42.432,1.664 L43.32,1.664 Z M47.904,3.824 C47.904,3.89333368 47.8986667,3.99199936 47.888,4.12 L44.536,4.12 C44.594667,4.43466824 44.7479988,4.68399908 44.996,4.868 C45.2440012,5.05200092 45.5519982,5.144 45.92,5.144 C46.3893357,5.144 46.7759985,4.98933488 47.08,4.68 L47.616,5.296 C47.423999,5.52533448 47.1813348,5.69866608 46.888,5.816 C46.5946652,5.93333392 46.2640018,5.992 45.896,5.992 C45.4266643,5.992 45.0133351,5.8986676 44.656,5.712 C44.2986649,5.5253324 44.0226676,5.265335 43.828,4.932 C43.6333324,4.598665 43.536,4.22133544 43.536,3.8 C43.536,3.38399792 43.6306657,3.009335 43.82,2.676 C44.0093343,2.342665 44.2719983,2.0826676 44.608,1.896 C44.9440017,1.7093324 45.3226646,1.616 45.744,1.616 C46.1600021,1.616 46.5319984,1.70799908 46.86,1.892 C47.1880016,2.07600092 47.4439991,2.334665 47.628,2.668 C47.8120009,3.001335 47.904,3.38666448 47.904,3.824 Z M45.744,2.416 C45.4239984,2.416 45.1533344,2.51066572 44.932,2.7 C44.7106656,2.88933428 44.5760002,3.14133176 44.528,3.456 L46.952,3.456 C46.9093331,3.14666512 46.7786678,2.89600096 46.56,2.704 C46.3413322,2.51199904 46.069335,2.416 45.744,2.416 Z M49.816,2.288 C50.1040014,1.83999776 50.610663,1.616 51.336,1.616 L51.336,2.568 C51.2506662,2.55199992 51.1733337,2.544 51.104,2.544 C50.7146647,2.544 50.4106678,2.6573322 50.192,2.884 C49.9733322,3.1106678 49.864,3.4373312 49.864,3.864 L49.864,5.936 L48.864,5.936 L48.864,1.664 L49.816,1.664 L49.816,2.288 Z M56.16,3.824 C56.16,3.89333368 56.1546667,3.99199936 56.144,4.12 L52.792,4.12 C52.850667,4.43466824 53.0039988,4.68399908 53.252,4.868 C53.5000012,5.05200092 53.8079982,5.144 54.176,5.144 C54.6453357,5.144 55.0319985,4.98933488 55.336,4.68 L55.872,5.296 C55.679999,5.52533448 55.4373348,5.69866608 55.144,5.816 C54.8506652,5.93333392 54.5200018,5.992 54.152,5.992 C53.6826643,5.992 53.2693351,5.8986676 52.912,5.712 C52.5546649,5.5253324 52.2786676,5.265335 52.084,4.932 C51.8893324,4.598665 51.792,4.22133544 51.792,3.8 C51.792,3.38399792 51.8866657,3.009335 52.076,2.676 C52.2653343,2.342665 52.5279983,2.0826676 52.864,1.896 C53.2000017,1.7093324 53.5786646,1.616 54,1.616 C54.4160021,1.616 54.7879984,1.70799908 55.116,1.892 C55.4440016,2.07600092 55.6999991,2.334665 55.884,2.668 C56.0680009,3.001335 56.16,3.38666448 56.16,3.824 Z M54,2.416 C53.6799984,2.416 53.4093344,2.51066572 53.188,2.7 C52.9666656,2.88933428 52.8320002,3.14133176 52.784,3.456 L55.208,3.456 C55.1653331,3.14666512 55.0346678,2.89600096 54.816,2.704 C54.5973322,2.51199904 54.325335,2.416 54,2.416 Z M61.304,0 L61.304,5.936 L60.344,5.936 L60.344,5.384 C60.1786658,5.58666768 59.9746679,5.73866616 59.732,5.84 C59.4893321,5.94133384 59.2213348,5.992 58.928,5.992 C58.5173313,5.992 58.1480016,5.90133424 57.82,5.72 C57.4919984,5.53866576 57.2346676,5.281335 57.048,4.948 C56.8613324,4.614665 56.768,4.23200216 56.768,3.8 C56.768,3.36799784 56.8613324,2.98666832 57.048,2.656 C57.2346676,2.32533168 57.4919984,2.06933424 57.82,1.888 C58.1480016,1.70666576 58.5173313,1.616 58.928,1.616 C59.2106681,1.616 59.4693322,1.66399952 59.704,1.76 C59.9386678,1.85600048 60.1386658,1.99999904 60.304,2.192 L60.304,0 L61.304,0 Z M59.048,5.136 C59.2880012,5.136 59.503999,5.08133388 59.696,4.972 C59.888001,4.86266612 60.0399994,4.70666768 60.152,4.504 C60.2640006,4.30133232 60.32,4.066668 60.32,3.8 C60.32,3.533332 60.2640006,3.29866768 60.152,3.096 C60.0399994,2.89333232 59.888001,2.73733388 59.696,2.628 C59.503999,2.51866612 59.2880012,2.464 59.048,2.464 C58.8079988,2.464 58.592001,2.51866612 58.4,2.628 C58.207999,2.73733388 58.0560006,2.89333232 57.944,3.096 C57.8319994,3.29866768 57.776,3.533332 57.776,3.8 C57.776,4.066668 57.8319994,4.30133232 57.944,4.504 C58.0560006,4.70666768 58.207999,4.86266612 58.4,4.972 C58.592001,5.08133388 58.8079988,5.136 59.048,5.136 Z M67.192,1.616 C67.6080021,1.616 67.9799984,1.70666576 68.308,1.888 C68.6360016,2.06933424 68.8933324,2.32533168 69.08,2.656 C69.2666676,2.98666832 69.36,3.36799784 69.36,3.8 C69.36,4.23200216 69.2666676,4.614665 69.08,4.948 C68.8933324,5.281335 68.6360016,5.53866576 68.308,5.72 C67.9799984,5.90133424 67.6080021,5.992 67.192,5.992 C66.8986652,5.992 66.6306679,5.94133384 66.388,5.84 C66.1453321,5.73866616 65.9413342,5.58666768 65.776,5.384 L65.776,5.936 L64.824,5.936 L64.824,0 L65.824,0 L65.824,2.184 C65.9946675,1.9973324 66.1959988,1.85600048 66.428,1.76 C66.6600012,1.66399952 66.9146653,1.616 67.192,1.616 Z M67.08,5.136 C67.4480018,5.136 67.7506655,5.01333456 67.988,4.768 C68.2253345,4.52266544 68.344,4.200002 68.344,3.8 C68.344,3.399998 68.2253345,3.07733456 67.988,2.832 C67.7506655,2.58666544 67.4480018,2.464 67.08,2.464 C66.8399988,2.464 66.624001,2.51866612 66.432,2.628 C66.239999,2.73733388 66.0880006,2.89333232 65.976,3.096 C65.8639994,3.29866768 65.808,3.533332 65.808,3.8 C65.808,4.066668 65.8639994,4.30133232 65.976,4.504 C66.0880006,4.70666768 66.239999,4.86266612 66.432,4.972 C66.624001,5.08133388 66.8399988,5.136 67.08,5.136 Z M74.192,1.664 L72.192,6.28 C72.0053324,6.74400232 71.778668,7.07066572 71.512,7.26 C71.245332,7.44933428 70.9226686,7.544 70.544,7.544 C70.3306656,7.544 70.120001,7.50933368 69.912,7.44 C69.703999,7.37066632 69.533334,7.27466728 69.4,7.152 L69.8,6.416 C69.8960005,6.50666712 70.0093327,6.5786664 70.14,6.632 C70.2706673,6.6853336 70.402666,6.712 70.536,6.712 C70.7120009,6.712 70.8573328,6.66666712 70.972,6.576 C71.0866672,6.48533288 71.1919995,6.3333344 71.288,6.12 L71.36,5.952 L69.496,1.664 L70.536,1.664 L71.88,4.824 L73.232,1.664 L74.192,1.664 Z" id="Powered-by" fill="#123962"></path>
                <path d="M13.6206675,10.061154 C11.8404959,10.2067024 10.302492,11.5340286 9.86915191,13.4123265 C9.7243736,14.0532266 9.6848886,14.7423666 9.64540361,15.4797464 C9.56643362,16.8442435 9.71121193,18.2914374 9.61249945,19.9178077 C9.60591861,19.9936131 9.52036779,20.0280701 9.46772113,19.9729389 L8.1647163,18.6153332 C8.1449738,18.594659 8.13839297,18.5739848 8.13839297,18.5464192 C8.13181214,17.1130081 8.00019549,15.8449905 8.00019549,14.7906064 L8.00019549,13.4950233 C7.99236755,12.1177722 8.21969083,10.7501443 8.6714404,9.45666312 C8.917757,8.65418711 9.33908086,7.92277401 9.90205608,7.32032924 C9.05970952,5.39762876 10.494331,2.28960755 12.3764491,1.01469862 C12.4008937,0.997892205 12.4318423,0.995324757 12.4585089,1.00789106 C12.4851756,1.02045737 12.5038658,1.04641642 12.5080657,1.07672122 C12.7153081,2.3473652 13.3111707,3.51310079 14.2059205,4.39837582 C14.8632756,5.07970707 15.6181972,5.64936685 16.4434036,6.08676872 C17.8578008,6.82218163 19.3713771,7.32650173 20.9315313,7.58220243 C20.9644355,7.58909383 20.9973397,7.62355083 20.9973397,7.65800782 C21.0170821,7.98190361 20.9775972,9.33950932 19.0230899,9.85636429 C16.7921877,10.4421333 14.9363929,10.1389117 14.4428305,10.0768891 L14.4296688,10.0768891 C14.3565551,10.06809 14.2836221,10.0613202 14.2109247,10.0565398 C14.2118856,10.059776 14.2126639,10.06312 14.2132422,10.0665632 C14.3203,10.4782067 14.5411068,10.8632925 14.8488981,11.1753449 L20.931121,17.2703245 C21.3325878,19.2355903 19.9609094,22.0838977 17.2911548,22.8075936 C16.2256755,23.094544 15.0981824,23.059871 14.0526555,22.7080024 C14.0325821,22.701363 14.0191999,22.6814448 14.0191999,22.6681659 C14.0191999,22.6548871 14.025891,22.6349689 14.0459644,22.6283295 C14.8488981,22.1104554 14.9827204,20.9684766 14.3002267,20.2912567 L12.9820772,18.9633744 C12.8456886,19.8003313 12.6306346,20.6227805 12.3397302,21.4199566 C12.3306134,21.4495467 12.3062315,21.4720305 12.275824,21.4788879 C12.2454164,21.4857453 12.213636,21.475927 12.1925257,21.4531537 L11.0282718,20.2978961 C11.0060529,20.2777261 10.9959285,20.2475875 11.0015074,20.2182231 C11.4698854,18.0404962 11.2223141,16.2744128 11.2223141,14.6676752 C11.2223141,11.1281344 12.7525822,10.2653107 13.6206675,10.061154 Z M14.6534171,7.20317545 C14.9034888,7.20317545 15.1009137,6.98954206 15.1009137,6.73456028 C15.1009137,6.4657957 14.9034888,6.25216231 14.6534171,6.25216231 C14.4033455,6.25216231 14.2059205,6.4657957 14.2059205,6.72766888 C14.2058945,6.98761602 14.4052108,7.1994081 14.6534171,7.20317545 Z M6.28690845,21.7665329 C5.76932062,22.0948416 5.31185511,22.5003007 4.93243378,22.9670256 C4.91689283,22.9866247 4.8928889,22.9986756 4.86695719,22.9998974 C4.84102548,23.0011191 4.81586557,22.9913846 4.79832738,22.973344 L2.71967814,20.9893719 C1.78763864,20.1047984 0.734903379,20.1300719 0.131424567,20.4017624 C0.0956260197,20.4216406 0.0499139765,20.4149456 0.0222073932,20.3857663 C-0.00549919006,20.3565871 -0.00749700655,20.3130364 0.0174341244,20.2817131 C0.513627814,19.5930095 1.82787056,18.0765977 3.86628788,18.0070955 C4.43624009,17.981822 4.95254974,18.0260507 5.40851151,18.1081896 C6.38820905,18.2931265 7.28438197,18.7561454 7.97664912,19.4350499 C8.02358637,19.485597 7.99676508,19.5677359 7.92300656,19.5740543 C7.30611711,19.6372381 6.11257013,19.9721124 5.09336147,21.5517079 C5.07324551,21.5769815 5.09336147,21.6148918 5.12688807,21.6148918 L6.23997121,21.6148918 C6.33384569,21.6148918 6.36066697,21.7286227 6.28690845,21.7665329 Z M20.2714489,26.4469472 C18.0843038,27.8612439 15.4479485,28.334164 12.9273528,27.764361 C10.3276837,27.2241138 7.94632106,25.8859408 6.09468409,23.9248395 L6.02649378,23.8614346 C5.9855796,23.8121197 5.99921766,23.7909847 6.01967475,23.7487147 C6.80386328,22.5017509 7.6971563,21.7761165 8.8973057,21.7549815 C8.93140085,21.7549815 8.95185795,21.7127116 8.93821988,21.6845316 C8.59726835,21.1420671 7.84035594,20.9025373 6.85841553,20.8814023 C6.78340619,20.8814023 6.74249201,20.7898174 6.79022522,20.7264125 C7.34537369,20.084269 8.12634531,19.6986045 8.95867698,19.6555735 C8.97913407,19.6555735 9.00641019,19.6696635 9.02686728,19.6907984 L11.0657575,21.8113415 C11.0657575,21.8113415 14.7071198,25.5099631 18.1916445,23.9811995 C21.6488931,22.4665259 21.8398259,18.9933441 21.8739211,18.049315 C21.8739211,18.021135 21.8875591,18 21.9148353,18 C22.3571438,18.4703692 22.6701871,19.053978 22.8217663,19.6907984 C23.8241639,24.2489093 20.2714489,26.4539922 20.2714489,26.4539922 L20.2714489,26.4469472 Z M38,20.4940926 L38,20.5833165 C37.9651066,21.7249315 37.4746811,22.80614 36.6364373,23.5894725 C35.5793873,24.5425804 34.1881155,25.0475978 32.76032,24.9964633 C31.4911393,25.0322979 30.240885,24.6852694 29.1749115,24.0012747 C28.7526916,23.7267399 28.3443149,23.2806208 28.095136,23.0266762 L26.6139054,21.5441882 C26.0601744,20.9951186 25.437227,21.0088454 25.0773018,21.1804296 C25.0288503,21.2010197 24.9803989,21.1461128 25.0080854,21.1049326 C25.3057159,20.6725403 26.0809393,19.7322586 27.292226,19.684215 C27.6383079,19.6704882 27.9359383,19.6979417 28.2128038,19.7528487 C28.6834752,19.8352091 29.050322,20.0273835 29.3341092,20.2332846 C29.6455829,20.4597758 29.8393888,20.686267 29.8947619,20.7480373 L30.580004,21.4343743 L30.6492204,21.503008 C31.1129702,21.9491271 31.8120556,22.2579787 32.7810849,22.2579787 C34.0961962,22.2579787 34.9267927,21.6471388 34.9267927,20.6725403 C34.9267927,19.9175696 34.3246102,19.3410465 33.334816,19.1420088 L31.3621491,18.7439333 C28.974184,18.2634974 27.5483266,16.6986491 27.5483266,14.5572776 C27.5483266,12.0452842 29.8117022,10 32.6011223,10 C36.719497,10 37.6193099,12.8894787 37.7923509,13.7748535 L37.7992725,13.8297604 C37.8061941,13.8915308 37.7785076,13.9189842 37.7300561,13.9395743 L35.2244232,14.7014084 C35.1857392,14.7139763 35.1434375,14.7090242 35.1087687,14.6878691 C35.0740999,14.6667141 35.0505786,14.6315007 35.0444606,14.5915945 C34.7260652,12.8071183 32.9679692,12.7178945 32.6218873,12.7178945 C31.6113281,12.7178945 30.5592391,13.3355978 30.5592391,14.3651033 C30.5592391,15.120074 31.0645187,15.6348267 31.9712533,15.806411 L33.9439201,16.1907597 C36.4357098,16.6711956 38,18.3184044 38,20.4872293 L38,20.4940926 Z M41.0001211,23.8064823 L41.0001211,10.1267874 C41.0001211,10.0600572 41.0542965,10 41.1220156,10 L49.8103863,10 C49.9119651,10 50,10.0867493 50,10.1868446 L50,12.6291706 C50,12.735939 49.9119651,12.8160152 49.8103863,12.8160152 L43.9729931,12.8160152 L43.9729931,15.9189704 L48.4424589,15.9189704 C48.5508096,15.9189704 48.6320726,16.0057197 48.6320726,16.105815 L48.6320726,18.4680648 C48.6320726,18.5748332 48.5508096,18.6615824 48.4424589,18.6615824 L43.9865369,18.6615824 L43.9865369,23.8064823 C43.9865369,23.9132507 43.9052739,24 43.7969232,24 L41.1897348,24 C41.1382505,24.0000323 41.0889662,23.9794336 41.0532055,23.9429366 C41.0174448,23.9064396 40.9982824,23.8571824 41.0001211,23.8064823 Z M63.7297632,12.0116979 L63.7297632,12.0185626 C65.210949,13.4052318 65.9971708,15.3067535 65.9971708,17.510322 C66.0546938,19.5654764 65.2328957,21.550931 63.7297632,22.988352 C62.3468552,24.2857801 60.4865982,24.9997088 58.4929644,24.9997088 C56.5512498,25.0166296 54.6787005,24.2954849 53.2702052,22.988352 C51.7819996,21.594818 51.0027976,19.700161 51.0027976,17.5034573 C50.9456189,15.4443309 51.7670596,13.454766 53.2702052,12.0116979 C54.6460933,10.7142697 56.4993305,10.000341 58.4929644,10.000341 C60.4391118,9.98201254 62.3165575,10.7031045 63.7297632,12.0116979 Z M58.4929644,22.0410235 C61.4623557,22.0410235 62.8171843,19.6864316 62.8171843,17.4897279 C62.8171843,15.2998888 61.4623557,12.945297 58.4929644,12.945297 C55.5305929,12.945297 54.1827841,15.2998888 54.1827841,17.4897279 C54.1827841,19.6795669 55.5305929,22.0410235 58.4929644,22.0410235 Z M75.3910134,23.9398966 L72.4630714,19.3822377 L69.5143147,23.9398966 C69.4915031,23.9779231 69.4489377,24.0009508 69.4033027,23.9999536 L66.1353864,23.9999536 C66.0854394,24.001251 66.0390225,23.9752787 66.0155094,23.9328772 C65.9919964,23.8904758 65.9954289,23.8389335 66.0243744,23.7997636 L70.6313731,16.9933038 L66.0451891,10.186844 C66.0239792,10.1493245 66.0238338,10.1040563 66.0448023,10.0664115 C66.0657708,10.0287667 66.1050354,10.0038039 66.1492629,10 L69.5073765,10 C69.549006,10 69.5906355,10.020019 69.6114502,10.060057 L72.5255157,14.6110429 L75.4950872,10.060057 C75.5159019,10.020019 75.5575315,10 75.599161,10 L78.8532008,10 C78.9572745,10 79.0127805,10.106768 78.9572745,10.193517 L74.3780288,17.0066498 L78.9780893,23.8064366 C79.0335953,23.8865126 78.9780893,23.9999536 78.8740155,23.9999536 L75.5020254,23.9999536 C75.4548936,23.9996394 75.4119603,23.9738319 75.3910134,23.9332236 L75.3910134,23.9398966 Z" id="Combined-Shape" fill="#37587A" fill-rule="nonzero"></path>
            </g>
        </g>
    </g>
</svg>