<?xml version="1.0" encoding="UTF-8"?>
<svg width="46px" height="49px" viewBox="0 0 46 49" version="1.1" xmlns="http://www.w3.org/2000/svg" xmlns:xlink="http://www.w3.org/1999/xlink">
    <!-- Generator: Sketch 48.2 (47327) - http://www.bohemiancoding.com/sketch -->
    <title>Printer</title>
    <desc>Created with Sketch.</desc>
    <defs></defs>
    <g id="Page-1" stroke="none" stroke-width="1" fill="none" fill-rule="evenodd">
        <g id="Printer" fill-rule="nonzero">
            <g id="Printer-Copy" transform="translate(2.000000, 2.000000)">
                <path d="M37.8413732,11.412 L33.4330207,11.412 L33.4330207,0 L8.5669793,0 L8.5669793,11.412 L4.15862679,11.412 C1.86551053,11.412 0,13.2945 0,15.608 L0,32.991 C0,35.305 1.86551053,37.187 4.15862679,37.187 L8.5669793,37.187 L8.5669793,45 L33.4330207,45 L33.4330207,37.187 L37.8413732,37.187 C40.1344895,37.187 42,35.3045 42,32.991 L42,15.608 C42,13.2945 40.1344895,11.412 37.8413732,11.412 Z M9.57926031,1.0215 L32.4212352,1.0215 L32.4212352,11.412 L9.57926031,11.412 L9.57926031,1.0215 Z M32.4212352,43.9785 L9.57926031,43.9785 L9.57926031,28.863 L32.4212352,28.863 L32.4212352,43.9785 Z M40.4818262,32.991 C40.4818262,34.46 39.2971156,35.6555 37.8413732,35.6555 L33.4330207,35.6555 L33.4330207,27.3145 L8.5669793,27.3145 L8.5669793,35.655 L4.15862679,35.655 C2.70238896,35.655 1.51817377,34.4595 1.51817377,32.9905 L1.51817377,15.608 C1.51817377,14.139 2.70288445,12.9435 4.15862679,12.9435 L37.8408777,12.9435 C39.2971156,12.9435 40.4813307,14.139 40.4813307,15.608 L40.4813307,32.991 L40.4818262,32.991 Z" id="Shape" fill="#5F5F5F"></path>
                <circle id="Oval" fill="#4A4A4A" cx="5.5" cy="16.5" r="1.5"></circle>
            </g>
        </g>
    </g>
</svg>