<svg height="49" viewBox="0 0 46 49" width="46" xmlns="http://www.w3.org/2000/svg"><g fill="none" transform="translate(2 2)"><path d="m37.8413732 11.412h-4.4083525v-11.412h-24.8660414v11.412h-4.40835251c-2.29311626 0-4.15862679 1.8825-4.15862679 4.196v17.383c0 2.314 1.86551053 4.196 4.15862679 4.196h4.40835251v7.813h24.8660414v-7.813h4.4083525c2.2931163 0 4.1586268-1.8825 4.1586268-4.196v-17.383c0-2.3135-1.8655105-4.196-4.1586268-4.196zm-28.26211289-10.3905h22.84197489v10.3905h-22.84197489zm22.84197489 42.957h-22.84197489v-15.1155h22.84197489zm8.060591-10.9875c0 1.469-1.1847106 2.6645-2.640453 2.6645h-4.4083525v-8.341h-24.8660414v8.3405h-4.40835251c-1.45623783 0-2.64045302-1.1955-2.64045302-2.6645v-17.3825c0-1.469 1.18471068-2.6645 2.64045302-2.6645h33.68225091c1.4562379 0 2.640453 1.1955 2.640453 2.6645v17.383z" fill="#5f5f5f"/><circle cx="5.5" cy="16.5" fill="#4a4a4a" r="1.5"/></g></svg>