<svg fill="none" height="48" viewBox="0 0 48 48" width="48" xmlns="http://www.w3.org/2000/svg" xmlns:xlink="http://www.w3.org/1999/xlink"><clipPath id="a"><path d="m8 8h32v32h-32z"/></clipPath><circle cx="24" cy="24" fill="#fff" r="24"/><g clip-path="url(#a)"><path d="m10.7381 19.6294-1.46002 1.46c-.4041.3882-.7256.854-.94522 1.3696-.21963.5155-.33283 1.0701-.33283 1.6304 0 .5604.1132 1.1149.33283 1.6304.21962.5156.54112.9814.94522 1.3696l11.76192 11.8781c.2788.2851.6033.5217.96.7v-14.3981z" fill="#3d89f5"/><path d="m37.262 19.6294 1.46 1.46c.4041.3882.7256.854.9452 1.3696.2196.5155.3328 1.0701.3328 1.6304 0 .5604-.1132 1.1149-.3328 1.6304-.2196.5156-.5411.9814-.9452 1.3696l-11.762 11.8781c-.2788.2851-.6032.5217-.96.7v-14.3981z" fill="#1656b9"/><path d="m34.4381 16.6493-7.36-7.38003c-.3896-.40159-.8559-.72087-1.3713-.9389-.5153-.21803-1.0691-.33037-1.6287-.33037-.5595 0-1.1134.11234-1.6287.33037-.5154.21803-.9816.53731-1.3713.9389l-7.38 7.38003 10.34 5.16z" fill="#85b5f8"/></g></svg>