<?xml version="1.0" encoding="utf-8"?>
<!-- Generator: Adobe Illustrator 19.2.1, SVG Export Plug-In . SVG Version: 6.00 Build 0)  -->
<svg version="1.1" id="Layer_1" xmlns="http://www.w3.org/2000/svg" xmlns:xlink="http://www.w3.org/1999/xlink" x="0px" y="0px"
	 viewBox="0 0 79.6 90" style="enable-background:new 0 0 79.6 90;" xml:space="preserve">
<style type="text/css">
	.st0{fill:#FCFCFC;}
</style>
<path class="st0" d="M79.6,50.5C79.6,72.3,61.7,90,39.8,90C17.9,90,0,72.3,0,50.5c0-19.7,15.1-36.6,34.6-39.1
	c0.2-5.8,0.6-10.7,1.3-11.2L36.3,0c2.5,0,25.4,14.5,25.4,17.2c0,0.4-0.3,1-1.1,1.7c-4,4.1-21.5,15.4-24.3,15.4l-0.4-0.1
	c-0.4-0.2-0.8-0.8-1.1-4.9c-0.1-1.6-0.2-4-0.2-6.6c-13.4,2.5-23.3,14.1-23.3,27.8c0,15.6,12.8,28.3,28.5,28.3
	c15.7,0,28.5-12.7,28.5-28.3c0-3.1,2.5-5.6,5.6-5.6C77.1,44.9,79.6,47.4,79.6,50.5z"/>
</svg>
