<?xml version="1.0" encoding="UTF-8"?>
<svg width="63px" height="63px" viewBox="0 0 63 63" version="1.1" xmlns="http://www.w3.org/2000/svg" xmlns:xlink="http://www.w3.org/1999/xlink">
    <!-- Generator: Sketch 51.2 (57519) - http://www.bohemiancoding.com/sketch -->
    <title>restore</title>
    <desc>Created with Sketch.</desc>
    <defs>
        <rect id="path-1" x="0" y="0" width="63" height="63"></rect>
    </defs>
    <g id="Lockbox-v3" stroke="none" stroke-width="1" fill="none" fill-rule="evenodd">
        <g id="o2" transform="translate(-810.000000, -384.000000)">
            <g id="connect_select" transform="translate(456.000000, 257.000000)">
                <g id="get-started">
                    <g id="restore" transform="translate(284.000000, 127.000000)">
                        <g transform="translate(70.000000, 0.000000)">
                            <mask id="mask-2" fill="white">
                                <use xlink:href="#path-1"></use>
                            </mask>
                            <g id="Mask" fill-rule="nonzero"></g>
                            <path d="M60.3980749,2.6019254 L53.7722795,9.22772177 C48.0724315,3.52685685 40.1987027,0 31.5001313,0 C14.1419824,0 -0.0126930696,14.1654738 8.54160859e-06,31.523498 C0.0127101528,48.9097198 14.1108635,63 31.5000043,63 C39.6196362,63 47.0216272,59.9278609 52.6072877,54.8826532 C53.2567211,54.2960927 53.2872049,53.2872036 52.6685095,52.668381 L50.1614655,50.1613367 C49.590147,49.5900181 48.6686451,49.5535645 48.0655726,50.0912238 C43.6664966,54.0131008 37.8641466,56.3951613 31.5000043,56.3951613 C17.741492,56.3951613 6.60484636,45.2606734 6.60484636,31.5 C6.60484636,17.7414859 17.7393327,6.60483871 31.5000043,6.60483871 C38.3795779,6.60483871 44.6026053,9.38941331 49.1062156,13.8937863 L42.2310875,20.7690423 C41.2708457,21.7292843 41.95089,23.3709677 43.3088192,23.3709677 L61.4758067,23.3709677 C62.3175424,23.3709677 63,22.6885101 63,21.8467742 L63,3.67978427 C63,2.32185484 61.3581897,1.64181048 60.3980749,2.6019254 Z" id="Shape" fill="#5C6670" fill-rule="nonzero" mask="url(#mask-2)"></path>
                        </g>
                    </g>
                </g>
            </g>
        </g>
    </g>
</svg>