<svg width="544" height="284" viewBox="0 0 544 284" fill="none" xmlns="http://www.w3.org/2000/svg">
<rect width="544" height="284" rx="24" fill="#F0F2F7"/>
<path d="M16.5568 127.864H19.7038V136.5H21.5334V127.864H24.6804V126.318H16.5568V127.864ZM25.3739 136.5H27.1737V132.011C27.1737 131.041 27.9045 130.355 28.8938 130.355C29.1971 130.355 29.5749 130.41 29.729 130.46V128.804C29.565 128.774 29.2816 128.754 29.0827 128.754C28.2077 128.754 27.4769 129.251 27.1985 130.136H27.119V128.864H25.3739V136.5ZM30.9247 136.5H32.7244V128.864H30.9247V136.5ZM31.8295 127.78C32.4013 127.78 32.8686 127.342 32.8686 126.805C32.8686 126.263 32.4013 125.826 31.8295 125.826C31.2528 125.826 30.7855 126.263 30.7855 126.805C30.7855 127.342 31.2528 127.78 31.8295 127.78ZM37.8961 139.523C39.9593 139.523 41.4806 138.578 41.4806 136.624V128.864H39.7058V130.126H39.6064C39.3329 129.575 38.7612 128.764 37.4139 128.764C35.649 128.764 34.2619 130.146 34.2619 132.657C34.2619 135.148 35.649 136.391 37.4089 136.391C38.7164 136.391 39.3279 135.69 39.6064 135.128H39.6958V136.575C39.6958 137.698 38.9501 138.161 37.926 138.161C36.8422 138.161 36.3649 137.648 36.1461 137.201L34.5254 137.594C34.8535 138.663 35.9522 139.523 37.8961 139.523ZM37.911 134.979C36.7228 134.979 36.0964 134.054 36.0964 132.647C36.0964 131.26 36.7129 130.241 37.911 130.241C39.0694 130.241 39.7058 131.2 39.7058 132.647C39.7058 134.104 39.0595 134.979 37.911 134.979ZM46.6461 139.523C48.7093 139.523 50.2306 138.578 50.2306 136.624V128.864H48.4558V130.126H48.3564C48.0829 129.575 47.5112 128.764 46.1639 128.764C44.399 128.764 43.0119 130.146 43.0119 132.657C43.0119 135.148 44.399 136.391 46.1589 136.391C47.4664 136.391 48.0779 135.69 48.3564 135.128H48.4458V136.575C48.4458 137.698 47.7001 138.161 46.676 138.161C45.5922 138.161 45.1149 137.648 44.8961 137.201L43.2754 137.594C43.6035 138.663 44.7022 139.523 46.6461 139.523ZM46.661 134.979C45.4728 134.979 44.8464 134.054 44.8464 132.647C44.8464 131.26 45.4629 130.241 46.661 130.241C47.8194 130.241 48.4558 131.2 48.4558 132.647C48.4558 134.104 47.8095 134.979 46.661 134.979ZM55.4558 136.649C57.2356 136.649 58.4586 135.779 58.7768 134.452L57.0964 134.263C56.8528 134.909 56.2562 135.247 55.4806 135.247C54.3173 135.247 53.5467 134.482 53.5318 133.174H58.8514V132.622C58.8514 129.942 57.2406 128.764 55.3613 128.764C53.1738 128.764 51.747 130.37 51.747 132.727C51.747 135.123 53.1539 136.649 55.4558 136.649ZM53.5368 131.961C53.5914 130.987 54.3123 130.166 55.3862 130.166C56.4203 130.166 57.1163 130.922 57.1262 131.961H53.5368ZM60.3739 136.5H62.1737V132.011C62.1737 131.041 62.9045 130.355 63.8938 130.355C64.1971 130.355 64.5749 130.41 64.729 130.46V128.804C64.565 128.774 64.2816 128.754 64.0827 128.754C63.2077 128.754 62.4769 129.251 62.1985 130.136H62.119V128.864H60.3739V136.5ZM69.3974 139.364H71.1971V135.297H71.2717C71.555 135.854 72.1467 136.634 73.4592 136.634C75.2589 136.634 76.6062 135.207 76.6062 132.692C76.6062 130.146 75.2191 128.764 73.4542 128.764C72.1069 128.764 71.5451 129.575 71.2717 130.126H71.1673V128.864H69.3974V139.364ZM71.1623 132.682C71.1623 131.2 71.7987 130.241 72.957 130.241C74.1552 130.241 74.7717 131.26 74.7717 132.682C74.7717 134.114 74.1452 135.158 72.957 135.158C71.8086 135.158 71.1623 134.163 71.1623 132.682ZM78.1474 136.5H79.9471V132.011C79.9471 131.041 80.6779 130.355 81.6673 130.355C81.9705 130.355 82.3484 130.41 82.5025 130.46V128.804C82.3384 128.774 82.055 128.754 81.8562 128.754C80.9812 128.754 80.2504 129.251 79.9719 130.136H79.8924V128.864H78.1474V136.5ZM83.6982 136.5H85.4979V128.864H83.6982V136.5ZM84.603 127.78C85.1747 127.78 85.642 127.342 85.642 126.805C85.642 126.263 85.1747 125.826 84.603 125.826C84.0263 125.826 83.5589 126.263 83.5589 126.805C83.5589 127.342 84.0263 127.78 84.603 127.78ZM90.6795 136.649C92.5985 136.649 93.8216 135.511 93.9508 133.89H92.2306C92.0765 134.71 91.4849 135.183 90.6944 135.183C89.5708 135.183 88.845 134.243 88.845 132.682C88.845 131.141 89.5858 130.216 90.6944 130.216C91.5595 130.216 92.0914 130.773 92.2306 131.509H93.9508C93.8265 129.853 92.5339 128.764 90.6696 128.764C88.4324 128.764 87.0204 130.38 87.0204 132.712C87.0204 135.023 88.3975 136.649 90.6795 136.649ZM98.8093 136.649C100.589 136.649 101.812 135.779 102.13 134.452L100.45 134.263C100.206 134.909 99.6097 135.247 98.8342 135.247C97.6708 135.247 96.9002 134.482 96.8853 133.174H102.205V132.622C102.205 129.942 100.594 128.764 98.7148 128.764C96.5273 128.764 95.1005 130.37 95.1005 132.727C95.1005 135.123 96.5075 136.649 98.8093 136.649ZM96.8903 131.961C96.945 130.987 97.6658 130.166 98.7397 130.166C99.7738 130.166 100.47 130.922 100.48 131.961H96.8903Z" fill="#121D33"/>
<path d="M19.5327 159.591H20.2315V158.632C22.0639 158.517 23.108 157.482 23.108 156.088C23.108 154.516 21.706 153.906 20.598 153.634L20.2315 153.54V150.808C21.0625 150.898 21.6335 151.349 21.7188 152.065H22.9886C22.9503 150.744 21.8466 149.768 20.2315 149.662V148.682H19.5327V149.67C17.9858 149.815 16.848 150.774 16.848 152.159C16.848 153.374 17.7173 154.085 19.1193 154.464L19.5327 154.575V157.473C18.6761 157.384 18.0028 156.932 17.9347 156.088H16.6136C16.6946 157.575 17.777 158.526 19.5327 158.636V159.591ZM20.2315 157.469V154.767C21.1264 155.01 21.804 155.321 21.804 156.075C21.804 156.834 21.1605 157.362 20.2315 157.469ZM19.5327 153.352C18.8892 153.169 18.1562 152.832 18.1605 152.082C18.1605 151.43 18.6804 150.932 19.5327 150.817V153.352ZM24.5621 158.5H30.3065V157.371H26.3775V157.307L28.1119 155.491C29.7099 153.876 30.1658 153.105 30.1658 152.129C30.1658 150.727 29.0238 149.653 27.3789 149.653C25.7468 149.653 24.5536 150.71 24.5536 152.304H25.8107C25.8065 151.366 26.4116 150.753 27.3533 150.753C28.2397 150.753 28.913 151.298 28.913 152.168C28.913 152.939 28.4528 153.493 27.5153 154.486L24.5621 157.545V158.5ZM31.9215 158.5H37.6658V157.371H33.7369V157.307L35.4712 155.491C37.0692 153.876 37.5252 153.105 37.5252 152.129C37.5252 150.727 36.3832 149.653 34.7383 149.653C33.1062 149.653 31.913 150.71 31.913 152.304H33.1701C33.1658 151.366 33.771 150.753 34.7127 150.753C35.5991 150.753 36.2724 151.298 36.2724 152.168C36.2724 152.939 35.8121 153.493 34.8746 154.486L31.9215 157.545V158.5ZM40.9556 157.307H39.7283L39.6857 157.784C39.5877 158.939 39.315 160.102 39.1999 160.631H40.1033C40.3079 160.072 40.7596 158.794 40.8917 157.771L40.9556 157.307ZM45.4482 158.641C47.4638 158.641 48.6442 156.996 48.6442 154.136C48.6442 151.298 47.4467 149.649 45.4482 149.649C43.4453 149.649 42.2521 151.294 42.2479 154.136C42.2479 156.991 43.4283 158.636 45.4482 158.641ZM45.4482 157.503C45.0263 157.503 44.6641 157.354 44.3743 157.06L46.9567 151.882C47.2038 152.44 47.3359 153.199 47.3359 154.136C47.3359 156.318 46.6243 157.503 45.4482 157.503ZM46.4964 151.192L43.9268 156.369C43.6839 155.815 43.5561 155.065 43.5561 154.136C43.5604 151.963 44.272 150.766 45.4482 150.766C45.8572 150.766 46.2109 150.911 46.4964 151.192ZM53.1942 158.641C55.2099 158.641 56.3903 156.996 56.3903 154.136C56.3903 151.298 55.1928 149.649 53.1942 149.649C51.1914 149.649 49.9982 151.294 49.994 154.136C49.994 156.991 51.1744 158.636 53.1942 158.641ZM53.1942 157.503C52.7724 157.503 52.4102 157.354 52.1204 157.06L54.7028 151.882C54.9499 152.44 55.082 153.199 55.082 154.136C55.082 156.318 54.3704 157.503 53.1942 157.503ZM54.2425 151.192L51.6729 156.369C51.43 155.815 51.3022 155.065 51.3022 154.136C51.3065 151.963 52.0181 150.766 53.1942 150.766C53.6033 150.766 53.957 150.911 54.2425 151.192ZM60.9403 158.641C62.956 158.641 64.1364 156.996 64.1364 154.136C64.1364 151.298 62.9389 149.649 60.9403 149.649C58.9375 149.649 57.7443 151.294 57.7401 154.136C57.7401 156.991 58.9205 158.636 60.9403 158.641ZM60.9403 157.503C60.5185 157.503 60.1562 157.354 59.8665 157.06L62.4489 151.882C62.696 152.44 62.8281 153.199 62.8281 154.136C62.8281 156.318 62.1165 157.503 60.9403 157.503ZM61.9886 151.192L59.419 156.369C59.1761 155.815 59.0483 155.065 59.0483 154.136C59.0526 151.963 59.7642 150.766 60.9403 150.766C61.3494 150.766 61.7031 150.911 61.9886 151.192Z" fill="#677184"/>
<path d="M111 102.917L122.264 82.5586C124.227 79.0109 128.783 77.8669 132.189 80.0667L134.163 81.3415C135.775 82.3827 137.895 82.1607 139.256 80.808V80.808C141.446 78.6327 145.164 79.5789 146.047 82.5361L152.968 105.715C153.665 108.049 154.814 110.223 156.351 112.113L161.431 118.363C163.945 121.455 168.109 122.671 171.892 121.418V121.418C176.492 119.895 181.506 122.041 183.579 126.421L195.783 152.209C198.057 157.014 203.633 159.275 208.611 157.411V157.411C211.1 156.479 213.854 156.553 216.29 157.617L226.886 162.246C233.041 164.934 240.222 162.334 243.23 156.329L247.507 147.788C249.047 144.713 253.078 143.924 255.664 146.192V146.192C258.155 148.377 262.023 147.736 263.676 144.864L267.539 138.153C269.351 135.004 273.521 134.169 276.407 136.377V136.377C278.15 137.712 280.483 137.99 282.491 137.103L287.976 134.681C291.282 133.221 295.157 134.154 297.437 136.958V136.958C299.716 139.763 303.591 140.696 306.897 139.235L313.958 136.117C319.048 133.87 325.017 135.678 328.003 140.373L328.895 141.774C331.88 146.467 338.192 147.69 342.711 144.448V144.448C347.194 141.231 353.458 142.4 356.474 147.02L376.46 177.644C384.316 189.681 401.291 191.361 411.355 181.099L411.848 180.595C412.427 180.005 413.056 179.466 413.728 178.984L420.3 174.267C422.284 172.844 425.01 173.083 426.715 174.831V174.831C429.061 177.236 433.072 176.648 434.628 173.67L435.268 172.444C436.816 169.483 440.499 168.379 443.42 170.002L447.686 172.372C452.07 174.808 457.559 173.871 460.886 170.118L470.628 159.133C474.45 154.822 481.363 155.48 484.303 160.435L489.672 169.481C490.314 170.563 491.861 170.619 492.58 169.587V169.587C493.355 168.475 495.048 168.644 495.588 169.887L504.173 189.678C508.126 198.789 520.131 200.846 526.89 193.57L528 192.375" stroke="#0C6CF2" stroke-width="4" stroke-linecap="round"/>
<path d="M528 142L128 142" stroke="#DFE3EB" stroke-width="2" stroke-linecap="round" stroke-linejoin="round" stroke-dasharray="4 4"/>
<g clip-path="url(#clip0_1883_122538)">
<path fill-rule="evenodd" clip-rule="evenodd" d="M207.012 167H210.992V161.985H215.985V158.005H210.992V153H207.012V158.005H202V161.985H207.012V167Z" fill="black"/>
<path fill-rule="evenodd" clip-rule="evenodd" d="M208 166H209.969V161H214.983V159.031H209.969V154.014H208V159.031H203.016V161H208V166Z" fill="white"/>
</g>
<g filter="url(#filter0_d_1883_122538)">
<g filter="url(#filter1_b_1883_122538)">
<rect x="232" y="130" width="120" height="60" rx="8" fill="white" fill-opacity="0.25"/>
<path d="M253.719 148.254C253.406 145.991 251.666 144.679 249.409 144.679C246.749 144.679 244.746 146.618 244.746 149.909C244.746 153.195 246.724 155.139 249.409 155.139C251.83 155.139 253.436 153.573 253.719 151.629L251.86 151.619C251.626 152.812 250.652 153.484 249.434 153.484C247.783 153.484 246.6 152.246 246.6 149.909C246.6 147.612 247.773 146.335 249.439 146.335C250.677 146.335 251.646 147.036 251.86 148.254H253.719ZM260.196 151.788C260.196 152.952 259.366 153.528 258.57 153.528C257.705 153.528 257.129 152.917 257.129 151.947V147.364H255.329V152.226C255.329 154.06 256.373 155.099 257.874 155.099C259.018 155.099 259.823 154.498 260.171 153.643H260.251V155H261.996V147.364H260.196V151.788ZM263.847 155H265.646V150.511C265.646 149.541 266.377 148.855 267.366 148.855C267.67 148.855 268.048 148.91 268.202 148.96V147.304C268.038 147.274 267.754 147.254 267.555 147.254C266.68 147.254 265.95 147.751 265.671 148.636H265.592V147.364H263.847V155ZM269.397 155H271.197V150.511C271.197 149.541 271.928 148.855 272.917 148.855C273.221 148.855 273.598 148.91 273.752 148.96V147.304C273.588 147.274 273.305 147.254 273.106 147.254C272.231 147.254 271.5 147.751 271.222 148.636H271.142V147.364H269.397V155ZM278.014 155.149C279.794 155.149 281.017 154.279 281.335 152.952L279.655 152.763C279.411 153.409 278.815 153.747 278.039 153.747C276.876 153.747 276.105 152.982 276.09 151.674H281.41V151.122C281.41 148.442 279.799 147.264 277.92 147.264C275.732 147.264 274.306 148.87 274.306 151.227C274.306 153.623 275.713 155.149 278.014 155.149ZM276.095 150.461C276.15 149.487 276.871 148.666 277.945 148.666C278.979 148.666 279.675 149.422 279.685 150.461H276.095ZM284.732 150.526C284.732 149.422 285.398 148.786 286.348 148.786C287.278 148.786 287.835 149.397 287.835 150.416V155H289.634V150.138C289.639 148.308 288.595 147.264 287.019 147.264C285.876 147.264 285.09 147.811 284.742 148.661H284.653V147.364H282.933V155H284.732V150.526ZM295.277 147.364H293.771V145.534H291.971V147.364H290.887V148.756H291.971V153.001C291.961 154.438 293.005 155.144 294.357 155.104C294.869 155.089 295.222 154.99 295.416 154.925L295.113 153.518C295.013 153.543 294.81 153.588 294.586 153.588C294.134 153.588 293.771 153.429 293.771 152.703V148.756H295.277V147.364ZM300.255 157.864H302.055V153.797H302.129C302.412 154.354 303.004 155.134 304.317 155.134C306.116 155.134 307.464 153.707 307.464 151.192C307.464 148.646 306.077 147.264 304.312 147.264C302.964 147.264 302.403 148.075 302.129 148.626H302.025V147.364H300.255V157.864ZM302.02 151.182C302.02 149.7 302.656 148.741 303.814 148.741C305.013 148.741 305.629 149.76 305.629 151.182C305.629 152.614 305.003 153.658 303.814 153.658C302.666 153.658 302.02 152.663 302.02 151.182ZM309.005 155H310.805V150.511C310.805 149.541 311.535 148.855 312.525 148.855C312.828 148.855 313.206 148.91 313.36 148.96V147.304C313.196 147.274 312.912 147.254 312.714 147.254C311.839 147.254 311.108 147.751 310.829 148.636H310.75V147.364H309.005V155ZM314.556 155H316.355V147.364H314.556V155ZM315.46 146.28C316.032 146.28 316.499 145.842 316.499 145.305C316.499 144.763 316.032 144.326 315.46 144.326C314.884 144.326 314.416 144.763 314.416 145.305C314.416 145.842 314.884 146.28 315.46 146.28ZM321.537 155.149C323.456 155.149 324.679 154.011 324.808 152.39H323.088C322.934 153.21 322.342 153.683 321.552 153.683C320.428 153.683 319.702 152.743 319.702 151.182C319.702 149.641 320.443 148.716 321.552 148.716C322.417 148.716 322.949 149.273 323.088 150.009H324.808C324.684 148.353 323.391 147.264 321.527 147.264C319.29 147.264 317.878 148.88 317.878 151.212C317.878 153.523 319.255 155.149 321.537 155.149ZM329.667 155.149C331.447 155.149 332.67 154.279 332.988 152.952L331.307 152.763C331.064 153.409 330.467 153.747 329.692 153.747C328.528 153.747 327.758 152.982 327.743 151.674H333.062V151.122C333.062 148.442 331.452 147.264 329.572 147.264C327.385 147.264 325.958 148.87 325.958 151.227C325.958 153.623 327.365 155.149 329.667 155.149ZM327.748 150.461C327.802 149.487 328.523 148.666 329.597 148.666C330.631 148.666 331.327 149.422 331.337 150.461H327.748Z" fill="#121D33"/>
<path d="M248.121 177.273H248.937V176.154C251.075 176.02 252.293 174.812 252.293 173.186C252.293 171.352 250.657 170.641 249.364 170.322L248.937 170.213V167.026C249.906 167.131 250.572 167.658 250.672 168.493H252.153C252.109 166.952 250.821 165.813 248.937 165.689V164.545H248.121V165.699C246.317 165.868 244.989 166.987 244.989 168.602C244.989 170.019 246.004 170.849 247.639 171.292L248.121 171.421V174.802C247.122 174.697 246.337 174.17 246.257 173.186H244.716C244.81 174.921 246.073 176.03 248.121 176.159V177.273ZM248.937 174.797V171.645C249.981 171.928 250.771 172.291 250.771 173.171C250.771 174.056 250.021 174.673 248.937 174.797ZM248.121 169.994C247.371 169.781 246.516 169.388 246.521 168.513C246.521 167.752 247.127 167.17 248.121 167.036V169.994ZM253.989 176H260.691V174.683H256.107V174.608L258.131 172.49C259.995 170.606 260.527 169.706 260.527 168.567C260.527 166.932 259.194 165.679 257.275 165.679C255.371 165.679 253.979 166.912 253.979 168.771H255.446C255.441 167.678 256.147 166.962 257.246 166.962C258.28 166.962 259.065 167.598 259.065 168.612C259.065 169.512 258.528 170.158 257.434 171.317L253.989 174.886V176ZM266.12 176.164C268.471 176.164 269.849 174.245 269.849 170.909C269.849 167.598 268.452 165.674 266.12 165.674C263.783 165.674 262.391 167.593 262.386 170.909C262.386 174.24 263.763 176.159 266.12 176.164ZM266.12 174.837C265.628 174.837 265.205 174.663 264.867 174.32L267.88 168.279C268.168 168.93 268.322 169.815 268.322 170.909C268.322 173.455 267.492 174.837 266.12 174.837ZM267.343 167.474L264.345 173.514C264.062 172.868 263.912 171.993 263.912 170.909C263.917 168.374 264.748 166.977 266.12 166.977C266.597 166.977 267.01 167.146 267.343 167.474ZM273.183 174.608H271.751L271.702 175.165C271.587 176.512 271.269 177.869 271.135 178.486H272.189C272.428 177.835 272.955 176.343 273.109 175.15L273.183 174.608ZM278.452 176.139C280.53 176.139 282.056 174.896 282.051 173.206C282.056 171.918 281.276 170.994 279.923 170.785V170.705C280.987 170.432 281.678 169.597 281.673 168.453C281.678 166.957 280.45 165.679 278.492 165.679C276.622 165.679 275.121 166.808 275.071 168.463H276.558C276.593 167.528 277.472 166.962 278.472 166.962C279.511 166.962 280.192 167.593 280.187 168.533C280.192 169.517 279.401 170.163 278.273 170.163H277.413V171.416H278.273C279.685 171.416 280.5 172.132 280.5 173.156C280.5 174.146 279.64 174.817 278.442 174.817C277.338 174.817 276.478 174.25 276.419 173.345H274.857C274.922 175.006 276.394 176.139 278.452 176.139ZM287.371 176.139C289.489 176.139 290.985 174.936 290.995 173.286C290.985 172.003 290.085 170.924 288.947 170.72V170.661C289.936 170.422 290.607 169.492 290.617 168.393C290.607 166.837 289.235 165.679 287.371 165.679C285.487 165.679 284.115 166.837 284.124 168.393C284.115 169.487 284.786 170.422 285.795 170.661V170.72C284.637 170.924 283.737 172.003 283.747 173.286C283.737 174.936 285.233 176.139 287.371 176.139ZM287.371 174.881C286.098 174.881 285.293 174.205 285.303 173.186C285.293 172.127 286.168 171.371 287.371 171.371C288.554 171.371 289.429 172.127 289.439 173.186C289.429 174.205 288.629 174.881 287.371 174.881ZM287.371 170.143C286.342 170.143 285.611 169.492 285.621 168.523C285.611 167.568 286.317 166.937 287.371 166.937C288.405 166.937 289.111 167.568 289.121 168.523C289.111 169.492 288.385 170.143 287.371 170.143ZM296.321 176.139C298.399 176.139 299.925 174.896 299.92 173.206C299.925 171.918 299.145 170.994 297.793 170.785V170.705C298.857 170.432 299.548 169.597 299.543 168.453C299.548 166.957 298.32 165.679 296.361 165.679C294.491 165.679 292.99 166.808 292.94 168.463H294.427C294.462 167.528 295.342 166.962 296.341 166.962C297.38 166.962 298.061 167.593 298.056 168.533C298.061 169.517 297.271 170.163 296.142 170.163H295.282V171.416H296.142C297.554 171.416 298.369 172.132 298.369 173.156C298.369 174.146 297.509 174.817 296.311 174.817C295.207 174.817 294.347 174.25 294.288 173.345H292.727C292.791 175.006 294.263 176.139 296.321 176.139Z" fill="#121D33"/>
<rect x="232.5" y="130.5" width="119" height="59" rx="7.5" stroke="#F0F2F7"/>
</g>
</g>
<g clip-path="url(#clip1_1883_122538)">
<path fill-rule="evenodd" clip-rule="evenodd" d="M368.012 177H371.992V171.985H376.985V168.005H371.992V163H368.012V168.005H363V171.985H368.012V177Z" fill="black"/>
<path fill-rule="evenodd" clip-rule="evenodd" d="M369 176H370.969V171H375.983V169.031H370.969V164.014H369V169.031H364.016V171H369V176Z" fill="white"/>
</g>
<g filter="url(#filter2_d_1883_122538)">
<g filter="url(#filter3_b_1883_122538)">
<rect x="393" y="140" width="120" height="60" rx="8" fill="white" fill-opacity="0.25"/>
<path d="M406.004 154.818V165H407.774V157.99H407.869L410.683 164.97H412.005L414.819 158.005H414.913V165H416.683V154.818H414.426L411.403 162.196H411.284L408.261 154.818H406.004ZM420.81 165.154C422.008 165.154 422.724 164.592 423.052 163.951H423.112V165H424.842V159.889C424.842 157.871 423.196 157.264 421.739 157.264C420.134 157.264 418.901 157.98 418.503 159.372L420.183 159.611C420.362 159.089 420.869 158.641 421.749 158.641C422.585 158.641 423.042 159.069 423.042 159.82V159.849C423.042 160.366 422.5 160.391 421.153 160.536C419.671 160.695 418.254 161.137 418.254 162.857C418.254 164.359 419.353 165.154 420.81 165.154ZM421.277 163.832C420.526 163.832 419.989 163.489 419.989 162.827C419.989 162.136 420.591 161.848 421.396 161.734C421.869 161.669 422.813 161.55 423.047 161.361V162.261C423.047 163.111 422.361 163.832 421.277 163.832ZM426.651 165H428.451V160.511C428.451 159.541 429.182 158.855 430.171 158.855C430.474 158.855 430.852 158.91 431.006 158.96V157.304C430.842 157.274 430.559 157.254 430.36 157.254C429.485 157.254 428.754 157.751 428.476 158.636H428.396V157.364H426.651V165ZM432.202 165H434.002V162.435L434.658 161.734L436.995 165H439.147L436.015 160.66L438.973 157.364H436.87L434.126 160.431H434.002V154.818H432.202V165ZM443.239 165.149C445.019 165.149 446.242 164.279 446.56 162.952L444.88 162.763C444.636 163.409 444.039 163.747 443.264 163.747C442.1 163.747 441.33 162.982 441.315 161.674H446.635V161.122C446.635 158.442 445.024 157.264 443.145 157.264C440.957 157.264 439.53 158.87 439.53 161.227C439.53 163.623 440.937 165.149 443.239 165.149ZM441.32 160.461C441.375 159.487 442.096 158.666 443.169 158.666C444.203 158.666 444.9 159.422 444.909 160.461H441.32ZM451.97 157.364H450.464V155.534H448.664V157.364H447.58V158.756H448.664V163.001C448.654 164.438 449.698 165.144 451.051 165.104C451.563 165.089 451.916 164.99 452.11 164.925L451.806 163.518C451.707 163.543 451.503 163.588 451.279 163.588C450.827 163.588 450.464 163.429 450.464 162.703V158.756H451.97V157.364ZM456.948 167.864H458.748V163.797H458.822C459.106 164.354 459.697 165.134 461.01 165.134C462.81 165.134 464.157 163.707 464.157 161.192C464.157 158.646 462.77 157.264 461.005 157.264C459.658 157.264 459.096 158.075 458.822 158.626H458.718V157.364H456.948V167.864ZM458.713 161.182C458.713 159.7 459.349 158.741 460.508 158.741C461.706 158.741 462.322 159.76 462.322 161.182C462.322 162.614 461.696 163.658 460.508 163.658C459.359 163.658 458.713 162.663 458.713 161.182ZM465.698 165H467.498V160.511C467.498 159.541 468.229 158.855 469.218 158.855C469.521 158.855 469.899 158.91 470.053 158.96V157.304C469.889 157.274 469.606 157.254 469.407 157.254C468.532 157.254 467.801 157.751 467.523 158.636H467.443V157.364H465.698V165ZM471.249 165H473.049V157.364H471.249V165ZM472.154 156.28C472.725 156.28 473.193 155.842 473.193 155.305C473.193 154.763 472.725 154.326 472.154 154.326C471.577 154.326 471.11 154.763 471.11 155.305C471.11 155.842 471.577 156.28 472.154 156.28ZM478.23 165.149C480.149 165.149 481.372 164.011 481.502 162.39H479.781C479.627 163.21 479.036 163.683 478.245 163.683C477.122 163.683 476.396 162.743 476.396 161.182C476.396 159.641 477.137 158.716 478.245 158.716C479.11 158.716 479.642 159.273 479.781 160.009H481.502C481.377 158.353 480.085 157.264 478.22 157.264C475.983 157.264 474.571 158.88 474.571 161.212C474.571 163.523 475.948 165.149 478.23 165.149ZM486.36 165.149C488.14 165.149 489.363 164.279 489.681 162.952L488.001 162.763C487.757 163.409 487.161 163.747 486.385 163.747C485.222 163.747 484.451 162.982 484.436 161.674H489.756V161.122C489.756 158.442 488.145 157.264 486.266 157.264C484.078 157.264 482.651 158.87 482.651 161.227C482.651 163.623 484.058 165.149 486.36 165.149ZM484.441 160.461C484.496 159.487 485.217 158.666 486.29 158.666C487.325 158.666 488.021 159.422 488.031 160.461H484.441Z" fill="#121D33"/>
<path d="M409.121 187.273H409.937V186.154C412.075 186.02 413.293 184.812 413.293 183.186C413.293 181.352 411.657 180.641 410.364 180.322L409.937 180.213V177.026C410.906 177.131 411.572 177.658 411.672 178.493H413.153C413.109 176.952 411.821 175.813 409.937 175.689V174.545H409.121V175.699C407.317 175.868 405.989 176.987 405.989 178.602C405.989 180.019 407.004 180.849 408.639 181.292L409.121 181.421V184.802C408.122 184.697 407.337 184.17 407.257 183.186H405.716C405.81 184.921 407.073 186.03 409.121 186.159V187.273ZM409.937 184.797V181.645C410.981 181.928 411.771 182.291 411.771 183.171C411.771 184.056 411.021 184.673 409.937 184.797ZM409.121 179.994C408.371 179.781 407.516 179.388 407.521 178.513C407.521 177.752 408.127 177.17 409.121 177.036V179.994ZM418.852 175.818H417.356L414.815 177.479V178.95L417.251 177.359H417.311V186H418.852V175.818ZM425.047 186.139C427.165 186.139 428.661 184.936 428.671 183.286C428.661 182.003 427.761 180.924 426.623 180.72V180.661C427.612 180.422 428.283 179.492 428.293 178.393C428.283 176.837 426.911 175.679 425.047 175.679C423.162 175.679 421.79 176.837 421.8 178.393C421.79 179.487 422.461 180.422 423.471 180.661V180.72C422.312 180.924 421.412 182.003 421.422 183.286C421.412 184.936 422.909 186.139 425.047 186.139ZM425.047 184.881C423.774 184.881 422.969 184.205 422.979 183.186C422.969 182.127 423.844 181.371 425.047 181.371C426.23 181.371 427.105 182.127 427.115 183.186C427.105 184.205 426.305 184.881 425.047 184.881ZM425.047 180.143C424.018 180.143 423.287 179.492 423.297 178.523C423.287 177.568 423.993 176.937 425.047 176.937C426.081 176.937 426.787 177.568 426.797 178.523C426.787 179.492 426.061 180.143 425.047 180.143ZM432.091 184.608H430.66L430.61 185.165C430.496 186.512 430.177 187.869 430.043 188.486H431.097C431.336 187.835 431.863 186.343 432.017 185.15L432.091 184.608ZM437.333 186.164C439.684 186.164 441.061 184.245 441.061 180.909C441.061 177.598 439.664 175.674 437.333 175.674C434.996 175.674 433.604 177.593 433.599 180.909C433.599 184.24 434.976 186.159 437.333 186.164ZM437.333 184.837C436.841 184.837 436.418 184.663 436.08 184.32L439.093 178.279C439.381 178.93 439.535 179.815 439.535 180.909C439.535 183.455 438.705 184.837 437.333 184.837ZM438.556 177.474L435.558 183.514C435.275 182.868 435.125 181.993 435.125 180.909C435.13 178.374 435.961 176.977 437.333 176.977C437.81 176.977 438.223 177.146 438.556 177.474ZM446.37 186.164C448.721 186.164 450.099 184.245 450.099 180.909C450.099 177.598 448.702 175.674 446.37 175.674C444.033 175.674 442.641 177.593 442.636 180.909C442.636 184.24 444.013 186.159 446.37 186.164ZM446.37 184.837C445.878 184.837 445.455 184.663 445.117 184.32L448.13 178.279C448.418 178.93 448.572 179.815 448.572 180.909C448.572 183.455 447.742 184.837 446.37 184.837ZM447.593 177.474L444.595 183.514C444.312 182.868 444.162 181.993 444.162 180.909C444.167 178.374 444.998 176.977 446.37 176.977C446.847 176.977 447.26 177.146 447.593 177.474ZM455.407 186.164C457.759 186.164 459.136 184.245 459.136 180.909C459.136 177.598 457.739 175.674 455.407 175.674C453.07 175.674 451.678 177.593 451.673 180.909C451.673 184.24 453.05 186.159 455.407 186.164ZM455.407 184.837C454.915 184.837 454.492 184.663 454.154 184.32L457.167 178.279C457.455 178.93 457.609 179.815 457.609 180.909C457.609 183.455 456.779 184.837 455.407 184.837ZM456.63 177.474L453.632 183.514C453.349 182.868 453.2 181.993 453.2 180.909C453.205 178.374 454.035 176.977 455.407 176.977C455.884 176.977 456.297 177.146 456.63 177.474Z" fill="#121D33"/>
<rect x="393.5" y="140.5" width="119" height="59" rx="7.5" stroke="#F0F2F7"/>
</g>
</g>
<path d="M17.0043 32H21.1257C23.4574 32 24.6009 30.8118 24.6009 29.2259C24.6009 27.6847 23.5071 26.7798 22.4233 26.7251V26.6257C23.4176 26.392 24.2031 25.696 24.2031 24.4581C24.2031 22.9418 23.1094 21.8182 20.902 21.8182H17.0043V32ZM18.8487 30.4588V27.4759H20.8821C22.0206 27.4759 22.7266 28.1719 22.7266 29.0817C22.7266 29.892 22.1697 30.4588 20.8324 30.4588H18.8487ZM18.8487 26.1484V23.3395H20.7131C21.7969 23.3395 22.3587 23.9112 22.3587 24.6967C22.3587 25.5916 21.6328 26.1484 20.6733 26.1484H18.8487ZM25.758 23.3643H28.905V32H30.7346V23.3643H33.8816V21.8182H25.758V23.3643ZM43.7253 25.2536C43.4121 22.9915 41.6721 21.679 39.415 21.679C36.7551 21.679 34.7516 23.6179 34.7516 26.9091C34.7516 30.1953 36.7303 32.1392 39.415 32.1392C41.8361 32.1392 43.4419 30.5732 43.7253 28.6293L41.8659 28.6193C41.6323 29.8125 40.6578 30.4837 39.4398 30.4837C37.7892 30.4837 36.606 29.2457 36.606 26.9091C36.606 24.6122 37.7793 23.3345 39.4448 23.3345C40.6827 23.3345 41.6522 24.0355 41.8659 25.2536H43.7253Z" fill="#677184"/>
<path d="M21.0462 258.818H19.2912L16.7607 260.444V262.134L19.142 260.613H19.2017V269H21.0462V258.818ZM28.2425 271.864C29.6445 271.864 30.4549 271.143 30.8874 269.925L33.945 261.364H32.0309L30.266 267.131H30.1864L28.4265 261.364H26.5174L29.2866 269.159L29.1325 269.572C28.7994 270.442 28.2724 270.501 27.4869 270.273L27.0692 271.675C27.3129 271.774 27.7504 271.864 28.2425 271.864ZM38.3113 269.149C40.0911 269.149 41.3141 268.279 41.6323 266.952L39.9519 266.763C39.7083 267.409 39.1117 267.747 38.3361 267.747C37.1728 267.747 36.4022 266.982 36.3873 265.674H41.7069V265.122C41.7069 262.442 40.0961 261.264 38.2168 261.264C36.0293 261.264 34.6025 262.87 34.6025 265.227C34.6025 267.623 36.0094 269.149 38.3113 269.149ZM36.3922 264.461C36.4469 263.487 37.1678 262.666 38.2417 262.666C39.2757 262.666 39.9718 263.422 39.9817 264.461H36.3922ZM45.4268 269.154C46.625 269.154 47.3409 268.592 47.669 267.951H47.7287V269H49.4588V263.889C49.4588 261.871 47.8132 261.264 46.3565 261.264C44.7507 261.264 43.5178 261.98 43.12 263.372L44.8004 263.611C44.9794 263.089 45.4865 262.641 46.3665 262.641C47.2017 262.641 47.6591 263.069 47.6591 263.82V263.849C47.6591 264.366 47.1172 264.391 45.7699 264.536C44.2884 264.695 42.8714 265.137 42.8714 266.857C42.8714 268.359 43.9702 269.154 45.4268 269.154ZM45.8942 267.832C45.1435 267.832 44.6065 267.489 44.6065 266.827C44.6065 266.136 45.2081 265.848 46.0135 265.734C46.4858 265.669 47.4304 265.55 47.6641 265.361V266.261C47.6641 267.111 46.978 267.832 45.8942 267.832ZM51.2685 269H53.0682V264.511C53.0682 263.541 53.799 262.855 54.7884 262.855C55.0916 262.855 55.4695 262.91 55.6236 262.96V261.304C55.4595 261.274 55.1761 261.254 54.9773 261.254C54.1023 261.254 53.3714 261.751 53.093 262.636H53.0135V261.364H51.2685V269ZM67.1129 261.364H65.1989L63.4389 267.036H63.3594L61.6044 261.364H59.6854L62.4048 269H64.3935L67.1129 261.364ZM68.3583 269H70.158V261.364H68.3583V269ZM69.2631 260.28C69.8349 260.28 70.3022 259.842 70.3022 259.305C70.3022 258.763 69.8349 258.326 69.2631 258.326C68.6864 258.326 68.2191 258.763 68.2191 259.305C68.2191 259.842 68.6864 260.28 69.2631 260.28ZM75.3894 269.149C77.1692 269.149 78.3922 268.279 78.7104 266.952L77.03 266.763C76.7864 267.409 76.1898 267.747 75.4142 267.747C74.2509 267.747 73.4803 266.982 73.4654 265.674H78.785V265.122C78.785 262.442 77.1742 261.264 75.2949 261.264C73.1074 261.264 71.6806 262.87 71.6806 265.227C71.6806 267.623 73.0875 269.149 75.3894 269.149ZM73.4703 264.461C73.525 263.487 74.2459 262.666 75.3198 262.666C76.3539 262.666 77.0499 263.422 77.0598 264.461H73.4703ZM81.8425 269H83.7218L85.1536 263.839H85.258L86.6898 269H88.5641L90.7267 261.364H88.8873L87.5648 266.703H87.4902L86.1181 261.364H84.3034L82.9313 266.733H82.8617L81.5194 261.364H79.6848L81.8425 269Z" fill="#677184"/>
<defs>
<filter id="filter0_d_1883_122538" x="216" y="118" width="152" height="92" filterUnits="userSpaceOnUse" color-interpolation-filters="sRGB">
<feFlood flood-opacity="0" result="BackgroundImageFix"/>
<feColorMatrix in="SourceAlpha" type="matrix" values="0 0 0 0 0 0 0 0 0 0 0 0 0 0 0 0 0 0 127 0" result="hardAlpha"/>
<feOffset dy="4"/>
<feGaussianBlur stdDeviation="8"/>
<feColorMatrix type="matrix" values="0 0 0 0 0.0196078 0 0 0 0 0.0941176 0 0 0 0 0.239216 0 0 0 0.08 0"/>
<feBlend mode="normal" in2="BackgroundImageFix" result="effect1_dropShadow_1883_122538"/>
<feBlend mode="normal" in="SourceGraphic" in2="effect1_dropShadow_1883_122538" result="shape"/>
</filter>
<filter id="filter1_b_1883_122538" x="208" y="106" width="168" height="108" filterUnits="userSpaceOnUse" color-interpolation-filters="sRGB">
<feFlood flood-opacity="0" result="BackgroundImageFix"/>
<feGaussianBlur in="BackgroundImageFix" stdDeviation="12"/>
<feComposite in2="SourceAlpha" operator="in" result="effect1_backgroundBlur_1883_122538"/>
<feBlend mode="normal" in="SourceGraphic" in2="effect1_backgroundBlur_1883_122538" result="shape"/>
</filter>
<filter id="filter2_d_1883_122538" x="377" y="128" width="152" height="92" filterUnits="userSpaceOnUse" color-interpolation-filters="sRGB">
<feFlood flood-opacity="0" result="BackgroundImageFix"/>
<feColorMatrix in="SourceAlpha" type="matrix" values="0 0 0 0 0 0 0 0 0 0 0 0 0 0 0 0 0 0 127 0" result="hardAlpha"/>
<feOffset dy="4"/>
<feGaussianBlur stdDeviation="8"/>
<feColorMatrix type="matrix" values="0 0 0 0 0.0196078 0 0 0 0 0.0941176 0 0 0 0 0.239216 0 0 0 0.08 0"/>
<feBlend mode="normal" in2="BackgroundImageFix" result="effect1_dropShadow_1883_122538"/>
<feBlend mode="normal" in="SourceGraphic" in2="effect1_dropShadow_1883_122538" result="shape"/>
</filter>
<filter id="filter3_b_1883_122538" x="369" y="116" width="168" height="108" filterUnits="userSpaceOnUse" color-interpolation-filters="sRGB">
<feFlood flood-opacity="0" result="BackgroundImageFix"/>
<feGaussianBlur in="BackgroundImageFix" stdDeviation="12"/>
<feComposite in2="SourceAlpha" operator="in" result="effect1_backgroundBlur_1883_122538"/>
<feBlend mode="normal" in="SourceGraphic" in2="effect1_backgroundBlur_1883_122538" result="shape"/>
</filter>
<clipPath id="clip0_1883_122538">
<rect width="14" height="14" fill="white" transform="translate(202 153)"/>
</clipPath>
<clipPath id="clip1_1883_122538">
<rect width="14" height="14" fill="white" transform="translate(363 163)"/>
</clipPath>
</defs>
</svg>
