<svg width="558" height="284" viewBox="0 0 558 284" fill="none" xmlns="http://www.w3.org/2000/svg">
<rect width="544" height="284" rx="24" fill="#F0F2F7"/>
<path d="M26.5568 127.864H29.7038V136.5H31.5334V127.864H34.6804V126.318H26.5568V127.864ZM35.3739 136.5H37.1737V132.011C37.1737 131.041 37.9045 130.355 38.8938 130.355C39.1971 130.355 39.5749 130.41 39.729 130.46V128.804C39.565 128.774 39.2816 128.754 39.0827 128.754C38.2077 128.754 37.4769 129.251 37.1985 130.136H37.119V128.864H35.3739V136.5ZM40.9247 136.5H42.7244V128.864H40.9247V136.5ZM41.8295 127.78C42.4013 127.78 42.8686 127.342 42.8686 126.805C42.8686 126.263 42.4013 125.826 41.8295 125.826C41.2528 125.826 40.7855 126.263 40.7855 126.805C40.7855 127.342 41.2528 127.78 41.8295 127.78ZM47.8961 139.523C49.9593 139.523 51.4806 138.578 51.4806 136.624V128.864H49.7058V130.126H49.6064C49.3329 129.575 48.7612 128.764 47.4139 128.764C45.649 128.764 44.2619 130.146 44.2619 132.657C44.2619 135.148 45.649 136.391 47.4089 136.391C48.7164 136.391 49.3279 135.69 49.6064 135.128H49.6958V136.575C49.6958 137.698 48.9501 138.161 47.926 138.161C46.8422 138.161 46.3649 137.648 46.1461 137.201L44.5254 137.594C44.8535 138.663 45.9522 139.523 47.8961 139.523ZM47.911 134.979C46.7228 134.979 46.0964 134.054 46.0964 132.647C46.0964 131.26 46.7129 130.241 47.911 130.241C49.0694 130.241 49.7058 131.2 49.7058 132.647C49.7058 134.104 49.0595 134.979 47.911 134.979ZM56.6461 139.523C58.7093 139.523 60.2306 138.578 60.2306 136.624V128.864H58.4558V130.126H58.3564C58.0829 129.575 57.5112 128.764 56.1639 128.764C54.399 128.764 53.0119 130.146 53.0119 132.657C53.0119 135.148 54.399 136.391 56.1589 136.391C57.4664 136.391 58.0779 135.69 58.3564 135.128H58.4458V136.575C58.4458 137.698 57.7001 138.161 56.676 138.161C55.5922 138.161 55.1149 137.648 54.8961 137.201L53.2754 137.594C53.6035 138.663 54.7022 139.523 56.6461 139.523ZM56.661 134.979C55.4728 134.979 54.8464 134.054 54.8464 132.647C54.8464 131.26 55.4629 130.241 56.661 130.241C57.8194 130.241 58.4558 131.2 58.4558 132.647C58.4558 134.104 57.8095 134.979 56.661 134.979ZM65.4558 136.649C67.2356 136.649 68.4586 135.779 68.7768 134.452L67.0964 134.263C66.8528 134.909 66.2562 135.247 65.4806 135.247C64.3173 135.247 63.5467 134.482 63.5318 133.174H68.8514V132.622C68.8514 129.942 67.2406 128.764 65.3613 128.764C63.1738 128.764 61.747 130.37 61.747 132.727C61.747 135.123 63.1539 136.649 65.4558 136.649ZM63.5368 131.961C63.5914 130.987 64.3123 130.166 65.3862 130.166C66.4203 130.166 67.1163 130.922 67.1262 131.961H63.5368ZM70.3739 136.5H72.1737V132.011C72.1737 131.041 72.9045 130.355 73.8938 130.355C74.1971 130.355 74.5749 130.41 74.729 130.46V128.804C74.565 128.774 74.2816 128.754 74.0827 128.754C73.2077 128.754 72.4769 129.251 72.1985 130.136H72.119V128.864H70.3739V136.5ZM79.3974 139.364H81.1971V135.297H81.2717C81.555 135.854 82.1467 136.634 83.4592 136.634C85.2589 136.634 86.6062 135.207 86.6062 132.692C86.6062 130.146 85.2191 128.764 83.4542 128.764C82.1069 128.764 81.5451 129.575 81.2717 130.126H81.1673V128.864H79.3974V139.364ZM81.1623 132.682C81.1623 131.2 81.7987 130.241 82.957 130.241C84.1552 130.241 84.7717 131.26 84.7717 132.682C84.7717 134.114 84.1452 135.158 82.957 135.158C81.8086 135.158 81.1623 134.163 81.1623 132.682ZM88.1474 136.5H89.9471V132.011C89.9471 131.041 90.6779 130.355 91.6673 130.355C91.9705 130.355 92.3484 130.41 92.5025 130.46V128.804C92.3384 128.774 92.055 128.754 91.8562 128.754C90.9812 128.754 90.2504 129.251 89.9719 130.136H89.8924V128.864H88.1474V136.5ZM93.6982 136.5H95.4979V128.864H93.6982V136.5ZM94.603 127.78C95.1747 127.78 95.642 127.342 95.642 126.805C95.642 126.263 95.1747 125.826 94.603 125.826C94.0263 125.826 93.5589 126.263 93.5589 126.805C93.5589 127.342 94.0263 127.78 94.603 127.78ZM100.68 136.649C102.599 136.649 103.822 135.511 103.951 133.89H102.231C102.077 134.71 101.485 135.183 100.694 135.183C99.5708 135.183 98.845 134.243 98.845 132.682C98.845 131.141 99.5858 130.216 100.694 130.216C101.559 130.216 102.091 130.773 102.231 131.509H103.951C103.827 129.853 102.534 128.764 100.67 128.764C98.4324 128.764 97.0204 130.38 97.0204 132.712C97.0204 135.023 98.3975 136.649 100.68 136.649ZM108.809 136.649C110.589 136.649 111.812 135.779 112.13 134.452L110.45 134.263C110.206 134.909 109.61 135.247 108.834 135.247C107.671 135.247 106.9 134.482 106.885 133.174H112.205V132.622C112.205 129.942 110.594 128.764 108.715 128.764C106.527 128.764 105.1 130.37 105.1 132.727C105.1 135.123 106.507 136.649 108.809 136.649ZM106.89 131.961C106.945 130.987 107.666 130.166 108.74 130.166C109.774 130.166 110.47 130.922 110.48 131.961H106.89Z" fill="#121D33"/>
<path d="M29.5327 159.591H30.2315V158.632C32.0639 158.517 33.108 157.482 33.108 156.088C33.108 154.516 31.706 153.906 30.598 153.634L30.2315 153.54V150.808C31.0625 150.898 31.6335 151.349 31.7188 152.065H32.9886C32.9503 150.744 31.8466 149.768 30.2315 149.662V148.682H29.5327V149.67C27.9858 149.815 26.848 150.774 26.848 152.159C26.848 153.374 27.7173 154.085 29.1193 154.464L29.5327 154.575V157.473C28.6761 157.384 28.0028 156.932 27.9347 156.088H26.6136C26.6946 157.575 27.777 158.526 29.5327 158.636V159.591ZM30.2315 157.469V154.767C31.1264 155.01 31.804 155.321 31.804 156.075C31.804 156.834 31.1605 157.362 30.2315 157.469ZM29.5327 153.352C28.8892 153.169 28.1562 152.832 28.1605 152.082C28.1605 151.43 28.6804 150.932 29.5327 150.817V153.352ZM34.5621 158.5H40.3065V157.371H36.3775V157.307L38.1119 155.491C39.7099 153.876 40.1658 153.105 40.1658 152.129C40.1658 150.727 39.0238 149.653 37.3789 149.653C35.7468 149.653 34.5536 150.71 34.5536 152.304H35.8107C35.8065 151.366 36.4116 150.753 37.3533 150.753C38.2397 150.753 38.913 151.298 38.913 152.168C38.913 152.939 38.4528 153.493 37.5153 154.486L34.5621 157.545V158.5ZM41.9215 158.5H47.6658V157.371H43.7369V157.307L45.4712 155.491C47.0692 153.876 47.5252 153.105 47.5252 152.129C47.5252 150.727 46.3832 149.653 44.7383 149.653C43.1062 149.653 41.913 150.71 41.913 152.304H43.1701C43.1658 151.366 43.771 150.753 44.7127 150.753C45.5991 150.753 46.2724 151.298 46.2724 152.168C46.2724 152.939 45.8121 153.493 44.8746 154.486L41.9215 157.545V158.5ZM50.9556 157.307H49.7283L49.6857 157.784C49.5877 158.939 49.315 160.102 49.1999 160.631H50.1033C50.3079 160.072 50.7596 158.794 50.8917 157.771L50.9556 157.307ZM55.4482 158.641C57.4638 158.641 58.6442 156.996 58.6442 154.136C58.6442 151.298 57.4467 149.649 55.4482 149.649C53.4453 149.649 52.2521 151.294 52.2479 154.136C52.2479 156.991 53.4283 158.636 55.4482 158.641ZM55.4482 157.503C55.0263 157.503 54.6641 157.354 54.3743 157.06L56.9567 151.882C57.2038 152.44 57.3359 153.199 57.3359 154.136C57.3359 156.318 56.6243 157.503 55.4482 157.503ZM56.4964 151.192L53.9268 156.369C53.6839 155.815 53.5561 155.065 53.5561 154.136C53.5604 151.963 54.272 150.766 55.4482 150.766C55.8572 150.766 56.2109 150.911 56.4964 151.192ZM63.1942 158.641C65.2099 158.641 66.3903 156.996 66.3903 154.136C66.3903 151.298 65.1928 149.649 63.1942 149.649C61.1914 149.649 59.9982 151.294 59.994 154.136C59.994 156.991 61.1744 158.636 63.1942 158.641ZM63.1942 157.503C62.7724 157.503 62.4102 157.354 62.1204 157.06L64.7028 151.882C64.9499 152.44 65.082 153.199 65.082 154.136C65.082 156.318 64.3704 157.503 63.1942 157.503ZM64.2425 151.192L61.6729 156.369C61.43 155.815 61.3022 155.065 61.3022 154.136C61.3065 151.963 62.0181 150.766 63.1942 150.766C63.6033 150.766 63.957 150.911 64.2425 151.192ZM70.9403 158.641C72.956 158.641 74.1364 156.996 74.1364 154.136C74.1364 151.298 72.9389 149.649 70.9403 149.649C68.9375 149.649 67.7443 151.294 67.7401 154.136C67.7401 156.991 68.9205 158.636 70.9403 158.641ZM70.9403 157.503C70.5185 157.503 70.1562 157.354 69.8665 157.06L72.4489 151.882C72.696 152.44 72.8281 153.199 72.8281 154.136C72.8281 156.318 72.1165 157.503 70.9403 157.503ZM71.9886 151.192L69.419 156.369C69.1761 155.815 69.0483 155.065 69.0483 154.136C69.0526 151.963 69.7642 150.766 70.9403 150.766C71.3494 150.766 71.7031 150.911 71.9886 151.192Z" fill="#677184"/>
<path d="M131 182.083L141.809 202.604C143.606 206.015 147.97 207.106 151.161 204.942L153.017 203.682C154.555 202.639 156.622 202.857 157.908 204.2V204.2C159.945 206.325 163.521 205.437 164.326 202.605L171.018 179.065C171.64 176.875 172.676 174.825 174.069 173.025L179.095 166.531C181.421 163.525 185.407 162.341 188.996 163.59V163.59C193.324 165.096 198.085 163.047 199.967 158.87L211.862 132.47C213.925 127.89 219.219 125.736 223.894 127.575V127.575C226.277 128.512 228.94 128.438 231.268 127.37L241.043 122.885C246.998 120.152 254.045 122.708 256.865 128.622L261.012 137.321C262.426 140.287 266.307 141.036 268.723 138.81V138.81C271.055 136.662 274.785 137.273 276.309 140.054L280.094 146.962C281.76 150.002 285.768 150.798 288.469 148.626V148.626C290.12 147.299 292.382 147.023 294.304 147.914L299.37 150.264C302.558 151.743 306.344 150.821 308.495 148.042V148.042C310.645 145.263 314.432 144.34 317.619 145.819L324.015 148.786C328.931 151.066 334.775 149.284 337.582 144.649L338.539 143.069C341.289 138.528 347.358 137.357 351.597 140.552V140.552C355.803 143.723 361.828 142.602 364.609 138.128L383.825 107.201C391.118 95.4626 407.568 93.8528 416.999 103.955L417.457 104.445C417.983 105.008 418.557 105.525 419.172 105.989L425.435 110.709C427.318 112.129 429.97 111.894 431.575 110.166V110.166C433.763 107.81 437.633 108.368 439.065 111.248L439.725 112.575C441.175 115.488 444.786 116.568 447.597 114.928L451.517 112.64C455.659 110.223 460.94 111.133 464.035 114.798L473.318 125.794C476.914 130.054 483.654 129.422 486.397 124.569L491.514 115.513C492.11 114.458 493.61 114.405 494.279 115.414V115.414C494.998 116.498 496.636 116.339 497.132 115.137L505.324 95.3028C509.004 86.3938 520.746 84.4235 527.132 91.6437L528 92.625" stroke="#0C6CF2" stroke-width="4" stroke-linecap="round"/>
<path d="M528 142H144" stroke="#DFE3EB" stroke-width="2" stroke-linecap="round" stroke-linejoin="round" stroke-dasharray="4 4"/>
<g clip-path="url(#clip0_1883_122573)">
<path fill-rule="evenodd" clip-rule="evenodd" d="M196.012 172H199.992V166.985H204.985V163.005H199.992V158H196.012V163.005H191V166.985H196.012V172Z" fill="black"/>
<path fill-rule="evenodd" clip-rule="evenodd" d="M197 171H198.969V166H203.983V164.031H198.969V159.014H197V164.031H192.016V166H197V171Z" fill="white"/>
</g>
<g filter="url(#filter0_d_1883_122573)">
<g filter="url(#filter1_b_1883_122573)">
<rect x="221" y="135" width="120" height="60" rx="8" fill="white" fill-opacity="0.25"/>
<path d="M242.719 153.254C242.406 150.991 240.666 149.679 238.409 149.679C235.749 149.679 233.746 151.618 233.746 154.909C233.746 158.195 235.724 160.139 238.409 160.139C240.83 160.139 242.436 158.573 242.719 156.629L240.86 156.619C240.626 157.812 239.652 158.484 238.434 158.484C236.783 158.484 235.6 157.246 235.6 154.909C235.6 152.612 236.773 151.335 238.439 151.335C239.677 151.335 240.646 152.036 240.86 153.254H242.719ZM249.196 156.788C249.196 157.952 248.366 158.528 247.57 158.528C246.705 158.528 246.129 157.917 246.129 156.947V152.364H244.329V157.226C244.329 159.06 245.373 160.099 246.874 160.099C248.018 160.099 248.823 159.498 249.171 158.643H249.251V160H250.996V152.364H249.196V156.788ZM252.847 160H254.646V155.511C254.646 154.541 255.377 153.855 256.366 153.855C256.67 153.855 257.048 153.91 257.202 153.96V152.304C257.038 152.274 256.754 152.254 256.555 152.254C255.68 152.254 254.95 152.751 254.671 153.636H254.592V152.364H252.847V160ZM258.397 160H260.197V155.511C260.197 154.541 260.928 153.855 261.917 153.855C262.221 153.855 262.598 153.91 262.752 153.96V152.304C262.588 152.274 262.305 152.254 262.106 152.254C261.231 152.254 260.5 152.751 260.222 153.636H260.142V152.364H258.397V160ZM267.014 160.149C268.794 160.149 270.017 159.279 270.335 157.952L268.655 157.763C268.411 158.409 267.815 158.747 267.039 158.747C265.876 158.747 265.105 157.982 265.09 156.674H270.41V156.122C270.41 153.442 268.799 152.264 266.92 152.264C264.732 152.264 263.306 153.87 263.306 156.227C263.306 158.623 264.713 160.149 267.014 160.149ZM265.095 155.461C265.15 154.487 265.871 153.666 266.945 153.666C267.979 153.666 268.675 154.422 268.685 155.461H265.095ZM273.732 155.526C273.732 154.422 274.398 153.786 275.348 153.786C276.278 153.786 276.835 154.397 276.835 155.416V160H278.634V155.138C278.639 153.308 277.595 152.264 276.019 152.264C274.876 152.264 274.09 152.811 273.742 153.661H273.653V152.364H271.933V160H273.732V155.526ZM284.277 152.364H282.771V150.534H280.971V152.364H279.887V153.756H280.971V158.001C280.961 159.438 282.005 160.144 283.357 160.104C283.869 160.089 284.222 159.99 284.416 159.925L284.113 158.518C284.013 158.543 283.81 158.588 283.586 158.588C283.134 158.588 282.771 158.429 282.771 157.703V153.756H284.277V152.364ZM289.255 162.864H291.055V158.797H291.129C291.412 159.354 292.004 160.134 293.317 160.134C295.116 160.134 296.464 158.707 296.464 156.192C296.464 153.646 295.077 152.264 293.312 152.264C291.964 152.264 291.403 153.075 291.129 153.626H291.025V152.364H289.255V162.864ZM291.02 156.182C291.02 154.7 291.656 153.741 292.814 153.741C294.013 153.741 294.629 154.76 294.629 156.182C294.629 157.614 294.003 158.658 292.814 158.658C291.666 158.658 291.02 157.663 291.02 156.182ZM298.005 160H299.805V155.511C299.805 154.541 300.535 153.855 301.525 153.855C301.828 153.855 302.206 153.91 302.36 153.96V152.304C302.196 152.274 301.912 152.254 301.714 152.254C300.839 152.254 300.108 152.751 299.829 153.636H299.75V152.364H298.005V160ZM303.556 160H305.355V152.364H303.556V160ZM304.46 151.28C305.032 151.28 305.499 150.842 305.499 150.305C305.499 149.763 305.032 149.326 304.46 149.326C303.884 149.326 303.416 149.763 303.416 150.305C303.416 150.842 303.884 151.28 304.46 151.28ZM310.537 160.149C312.456 160.149 313.679 159.011 313.808 157.39H312.088C311.934 158.21 311.342 158.683 310.552 158.683C309.428 158.683 308.702 157.743 308.702 156.182C308.702 154.641 309.443 153.716 310.552 153.716C311.417 153.716 311.949 154.273 312.088 155.009H313.808C313.684 153.353 312.391 152.264 310.527 152.264C308.29 152.264 306.878 153.88 306.878 156.212C306.878 158.523 308.255 160.149 310.537 160.149ZM318.667 160.149C320.447 160.149 321.67 159.279 321.988 157.952L320.307 157.763C320.064 158.409 319.467 158.747 318.692 158.747C317.528 158.747 316.758 157.982 316.743 156.674H322.062V156.122C322.062 153.442 320.452 152.264 318.572 152.264C316.385 152.264 314.958 153.87 314.958 156.227C314.958 158.623 316.365 160.149 318.667 160.149ZM316.748 155.461C316.802 154.487 317.523 153.666 318.597 153.666C319.631 153.666 320.327 154.422 320.337 155.461H316.748Z" fill="#121D33"/>
<path d="M237.121 182.273H237.937V181.154C240.075 181.02 241.293 179.812 241.293 178.186C241.293 176.352 239.657 175.641 238.364 175.322L237.937 175.213V172.026C238.906 172.131 239.572 172.658 239.672 173.493H241.153C241.109 171.952 239.821 170.813 237.937 170.689V169.545H237.121V170.699C235.317 170.868 233.989 171.987 233.989 173.602C233.989 175.019 235.004 175.849 236.639 176.292L237.121 176.421V179.802C236.122 179.697 235.337 179.17 235.257 178.186H233.716C233.81 179.921 235.073 181.03 237.121 181.159V182.273ZM237.937 179.797V176.645C238.981 176.928 239.771 177.291 239.771 178.171C239.771 179.056 239.021 179.673 237.937 179.797ZM237.121 174.994C236.371 174.781 235.516 174.388 235.521 173.513C235.521 172.752 236.127 172.17 237.121 172.036V174.994ZM242.989 181H249.691V179.683H245.107V179.608L247.131 177.49C248.995 175.606 249.527 174.706 249.527 173.567C249.527 171.932 248.194 170.679 246.275 170.679C244.371 170.679 242.979 171.912 242.979 173.771H244.446C244.441 172.678 245.147 171.962 246.246 171.962C247.28 171.962 248.065 172.598 248.065 173.612C248.065 174.512 247.528 175.158 246.434 176.317L242.989 179.886V181ZM255.12 181.164C257.471 181.164 258.849 179.245 258.849 175.909C258.849 172.598 257.452 170.674 255.12 170.674C252.783 170.674 251.391 172.593 251.386 175.909C251.386 179.24 252.763 181.159 255.12 181.164ZM255.12 179.837C254.628 179.837 254.205 179.663 253.867 179.32L256.88 173.279C257.168 173.93 257.322 174.815 257.322 175.909C257.322 178.455 256.492 179.837 255.12 179.837ZM256.343 172.474L253.345 178.514C253.062 177.868 252.912 176.993 252.912 175.909C252.917 173.374 253.748 171.977 255.12 171.977C255.597 171.977 256.01 172.146 256.343 172.474ZM262.183 179.608H260.751L260.702 180.165C260.587 181.512 260.269 182.869 260.135 183.486H261.189C261.428 182.835 261.955 181.343 262.109 180.15L262.183 179.608ZM267.452 181.139C269.53 181.139 271.056 179.896 271.051 178.206C271.056 176.918 270.276 175.994 268.923 175.785V175.705C269.987 175.432 270.678 174.597 270.673 173.453C270.678 171.957 269.45 170.679 267.492 170.679C265.622 170.679 264.121 171.808 264.071 173.463H265.558C265.593 172.528 266.472 171.962 267.472 171.962C268.511 171.962 269.192 172.593 269.187 173.533C269.192 174.517 268.401 175.163 267.273 175.163H266.413V176.416H267.273C268.685 176.416 269.5 177.132 269.5 178.156C269.5 179.146 268.64 179.817 267.442 179.817C266.338 179.817 265.478 179.25 265.419 178.345H263.857C263.922 180.006 265.394 181.139 267.452 181.139ZM276.371 181.139C278.489 181.139 279.985 179.936 279.995 178.286C279.985 177.003 279.085 175.924 277.947 175.72V175.661C278.936 175.422 279.607 174.492 279.617 173.393C279.607 171.837 278.235 170.679 276.371 170.679C274.487 170.679 273.115 171.837 273.124 173.393C273.115 174.487 273.786 175.422 274.795 175.661V175.72C273.637 175.924 272.737 177.003 272.747 178.286C272.737 179.936 274.233 181.139 276.371 181.139ZM276.371 179.881C275.098 179.881 274.293 179.205 274.303 178.186C274.293 177.127 275.168 176.371 276.371 176.371C277.554 176.371 278.429 177.127 278.439 178.186C278.429 179.205 277.629 179.881 276.371 179.881ZM276.371 175.143C275.342 175.143 274.611 174.492 274.621 173.523C274.611 172.568 275.317 171.937 276.371 171.937C277.405 171.937 278.111 172.568 278.121 173.523C278.111 174.492 277.385 175.143 276.371 175.143ZM285.321 181.139C287.399 181.139 288.925 179.896 288.92 178.206C288.925 176.918 288.145 175.994 286.793 175.785V175.705C287.857 175.432 288.548 174.597 288.543 173.453C288.548 171.957 287.32 170.679 285.361 170.679C283.491 170.679 281.99 171.808 281.94 173.463H283.427C283.462 172.528 284.342 171.962 285.341 171.962C286.38 171.962 287.061 172.593 287.056 173.533C287.061 174.517 286.271 175.163 285.142 175.163H284.282V176.416H285.142C286.554 176.416 287.369 177.132 287.369 178.156C287.369 179.146 286.509 179.817 285.311 179.817C284.207 179.817 283.347 179.25 283.288 178.345H281.727C281.791 180.006 283.263 181.139 285.321 181.139Z" fill="#121D33"/>
<rect x="221.5" y="135.5" width="119" height="59" rx="7.5" stroke="white"/>
</g>
</g>
<g clip-path="url(#clip1_1883_122573)">
<path fill-rule="evenodd" clip-rule="evenodd" d="M397.012 106H400.992V100.985H405.985V97.005H400.992V92H397.012V97.005H392V100.985H397.012V106Z" fill="black"/>
<path fill-rule="evenodd" clip-rule="evenodd" d="M398 105H399.969V100H404.983V98.031H399.969V93.014H398V98.031H393.016V100H398V105Z" fill="white"/>
</g>
<g filter="url(#filter2_d_1883_122573)">
<g filter="url(#filter3_b_1883_122573)">
<rect x="422" y="69" width="120" height="60" rx="8" fill="white" fill-opacity="0.25"/>
<path d="M435.004 83.8182V94H436.774V86.9901H436.869L439.683 93.9702H441.005L443.819 87.005H443.913V94H445.683V83.8182H443.426L440.403 91.196H440.284L437.261 83.8182H435.004ZM449.81 94.1541C451.008 94.1541 451.724 93.5923 452.052 92.951H452.112V94H453.842V88.8892C453.842 86.8707 452.196 86.2642 450.739 86.2642C449.134 86.2642 447.901 86.9801 447.503 88.3722L449.183 88.6108C449.362 88.0888 449.869 87.6413 450.749 87.6413C451.585 87.6413 452.042 88.0689 452.042 88.8196V88.8494C452.042 89.3665 451.5 89.3913 450.153 89.5355C448.671 89.6946 447.254 90.1371 447.254 91.8572C447.254 93.3587 448.353 94.1541 449.81 94.1541ZM450.277 92.8317C449.526 92.8317 448.989 92.4886 448.989 91.8274C448.989 91.1364 449.591 90.848 450.396 90.7337C450.869 90.669 451.813 90.5497 452.047 90.3608V91.2607C452.047 92.1108 451.361 92.8317 450.277 92.8317ZM455.651 94H457.451V89.5107C457.451 88.5412 458.182 87.8551 459.171 87.8551C459.474 87.8551 459.852 87.9098 460.006 87.9595V86.304C459.842 86.2741 459.559 86.2543 459.36 86.2543C458.485 86.2543 457.754 86.7514 457.476 87.6364H457.396V86.3636H455.651V94ZM461.202 94H463.002V91.4347L463.658 90.7337L465.995 94H468.147L465.015 89.6598L467.973 86.3636H465.87L463.126 89.4311H463.002V83.8182H461.202V94ZM472.239 94.1491C474.019 94.1491 475.242 93.2791 475.56 91.9517L473.88 91.7628C473.636 92.4091 473.039 92.7472 472.264 92.7472C471.1 92.7472 470.33 91.9815 470.315 90.674H475.635V90.1222C475.635 87.4425 474.024 86.2642 472.145 86.2642C469.957 86.2642 468.53 87.87 468.53 90.2266C468.53 92.6229 469.937 94.1491 472.239 94.1491ZM470.32 89.4609C470.375 88.4865 471.096 87.6662 472.169 87.6662C473.203 87.6662 473.9 88.4219 473.909 89.4609H470.32ZM480.97 86.3636H479.464V84.5341H477.664V86.3636H476.58V87.7557H477.664V92.0014C477.654 93.4382 478.698 94.1442 480.051 94.1044C480.563 94.0895 480.916 93.9901 481.11 93.9254L480.806 92.5185C480.707 92.5433 480.503 92.5881 480.279 92.5881C479.827 92.5881 479.464 92.429 479.464 91.7031V87.7557H480.97V86.3636ZM485.948 96.8636H487.748V92.7969H487.822C488.106 93.3537 488.697 94.1342 490.01 94.1342C491.81 94.1342 493.157 92.7074 493.157 90.1918C493.157 87.6463 491.77 86.2642 490.005 86.2642C488.658 86.2642 488.096 87.0746 487.822 87.6264H487.718V86.3636H485.948V96.8636ZM487.713 90.1818C487.713 88.7003 488.349 87.7408 489.508 87.7408C490.706 87.7408 491.322 88.7599 491.322 90.1818C491.322 91.6136 490.696 92.6577 489.508 92.6577C488.359 92.6577 487.713 91.6634 487.713 90.1818ZM494.698 94H496.498V89.5107C496.498 88.5412 497.229 87.8551 498.218 87.8551C498.521 87.8551 498.899 87.9098 499.053 87.9595V86.304C498.889 86.2741 498.606 86.2543 498.407 86.2543C497.532 86.2543 496.801 86.7514 496.523 87.6364H496.443V86.3636H494.698V94ZM500.249 94H502.049V86.3636H500.249V94ZM501.154 85.2798C501.725 85.2798 502.193 84.8423 502.193 84.3054C502.193 83.7635 501.725 83.326 501.154 83.326C500.577 83.326 500.11 83.7635 500.11 84.3054C500.11 84.8423 500.577 85.2798 501.154 85.2798ZM507.23 94.1491C509.149 94.1491 510.372 93.0107 510.502 91.3899H508.781C508.627 92.2102 508.036 92.6825 507.245 92.6825C506.122 92.6825 505.396 91.7429 505.396 90.1818C505.396 88.6406 506.137 87.7159 507.245 87.7159C508.11 87.7159 508.642 88.2727 508.781 89.0085H510.502C510.377 87.353 509.085 86.2642 507.22 86.2642C504.983 86.2642 503.571 87.88 503.571 90.2116C503.571 92.5234 504.948 94.1491 507.23 94.1491ZM515.36 94.1491C517.14 94.1491 518.363 93.2791 518.681 91.9517L517.001 91.7628C516.757 92.4091 516.161 92.7472 515.385 92.7472C514.222 92.7472 513.451 91.9815 513.436 90.674H518.756V90.1222C518.756 87.4425 517.145 86.2642 515.266 86.2642C513.078 86.2642 511.651 87.87 511.651 90.2266C511.651 92.6229 513.058 94.1491 515.36 94.1491ZM513.441 89.4609C513.496 88.4865 514.217 87.6662 515.29 87.6662C516.325 87.6662 517.021 88.4219 517.031 89.4609H513.441Z" fill="#121D33"/>
<path d="M438.121 116.273H438.937V115.154C441.075 115.02 442.293 113.812 442.293 112.186C442.293 110.352 440.657 109.641 439.364 109.322L438.937 109.213V106.026C439.906 106.131 440.572 106.658 440.672 107.493H442.153C442.109 105.952 440.821 104.813 438.937 104.689V103.545H438.121V104.699C436.317 104.868 434.989 105.987 434.989 107.602C434.989 109.019 436.004 109.849 437.639 110.292L438.121 110.421V113.802C437.122 113.697 436.337 113.17 436.257 112.186H434.716C434.81 113.921 436.073 115.03 438.121 115.159V116.273ZM438.937 113.797V110.645C439.981 110.928 440.771 111.291 440.771 112.171C440.771 113.056 440.021 113.673 438.937 113.797ZM438.121 108.994C437.371 108.781 436.516 108.388 436.521 107.513C436.521 106.752 437.127 106.17 438.121 106.036V108.994ZM443.989 115H450.691V113.683H446.107V113.608L448.131 111.49C449.995 109.606 450.527 108.706 450.527 107.567C450.527 105.932 449.194 104.679 447.275 104.679C445.371 104.679 443.979 105.912 443.979 107.771H445.446C445.441 106.678 446.147 105.962 447.246 105.962C448.28 105.962 449.065 106.598 449.065 107.612C449.065 108.512 448.528 109.158 447.434 110.317L443.989 113.886V115ZM455.936 115.139C457.984 115.139 459.446 113.692 459.441 111.709C459.446 109.74 458.074 108.308 456.219 108.308C455.464 108.308 454.763 108.597 454.365 108.984H454.305L454.628 106.136H458.949V104.818H453.351L452.779 109.949L454.186 110.158C454.569 109.815 455.255 109.581 455.871 109.581C457.079 109.591 457.954 110.496 457.954 111.739C457.954 112.962 457.104 113.847 455.936 113.847C454.952 113.847 454.171 113.22 454.091 112.345H452.6C452.66 113.966 454.067 115.139 455.936 115.139ZM462.855 113.608H461.423L461.374 114.165C461.259 115.512 460.941 116.869 460.807 117.486H461.861C462.099 116.835 462.626 115.343 462.781 114.15L462.855 113.608ZM468.096 115.164C470.448 115.164 471.825 113.245 471.825 109.909C471.825 106.598 470.428 104.674 468.096 104.674C465.76 104.674 464.368 106.593 464.363 109.909C464.363 113.24 465.74 115.159 468.096 115.164ZM468.096 113.837C467.604 113.837 467.182 113.663 466.844 113.32L469.856 107.279C470.145 107.93 470.299 108.815 470.299 109.909C470.299 112.455 469.469 113.837 468.096 113.837ZM469.319 106.474L466.322 112.514C466.038 111.868 465.889 110.993 465.889 109.909C465.894 107.374 466.724 105.977 468.096 105.977C468.574 105.977 468.986 106.146 469.319 106.474ZM477.134 115.164C479.485 115.164 480.862 113.245 480.862 109.909C480.862 106.598 479.465 104.674 477.134 104.674C474.797 104.674 473.405 106.593 473.4 109.909C473.4 113.24 474.777 115.159 477.134 115.164ZM477.134 113.837C476.641 113.837 476.219 113.663 475.881 113.32L478.893 107.279C479.182 107.93 479.336 108.815 479.336 109.909C479.336 112.455 478.506 113.837 477.134 113.837ZM478.357 106.474L475.359 112.514C475.075 111.868 474.926 110.993 474.926 109.909C474.931 107.374 475.761 105.977 477.134 105.977C477.611 105.977 478.023 106.146 478.357 106.474ZM486.171 115.164C488.522 115.164 489.899 113.245 489.899 109.909C489.899 106.598 488.502 104.674 486.171 104.674C483.834 104.674 482.442 106.593 482.437 109.909C482.437 113.24 483.814 115.159 486.171 115.164ZM486.171 113.837C485.678 113.837 485.256 113.663 484.918 113.32L487.931 107.279C488.219 107.93 488.373 108.815 488.373 109.909C488.373 112.455 487.543 113.837 486.171 113.837ZM487.394 106.474L484.396 112.514C484.112 111.868 483.963 110.993 483.963 109.909C483.968 107.374 484.798 105.977 486.171 105.977C486.648 105.977 487.061 106.146 487.394 106.474Z" fill="#121D33"/>
<rect x="422.5" y="69.5" width="119" height="59" rx="7.5" stroke="white"/>
</g>
</g>
<path d="M17.0043 32H21.1257C23.4574 32 24.6009 30.8118 24.6009 29.2259C24.6009 27.6847 23.5071 26.7798 22.4233 26.7251V26.6257C23.4176 26.392 24.2031 25.696 24.2031 24.4581C24.2031 22.9418 23.1094 21.8182 20.902 21.8182H17.0043V32ZM18.8487 30.4588V27.4759H20.8821C22.0206 27.4759 22.7266 28.1719 22.7266 29.0817C22.7266 29.892 22.1697 30.4588 20.8324 30.4588H18.8487ZM18.8487 26.1484V23.3395H20.7131C21.7969 23.3395 22.3587 23.9112 22.3587 24.6967C22.3587 25.5916 21.6328 26.1484 20.6733 26.1484H18.8487ZM25.758 23.3643H28.905V32H30.7346V23.3643H33.8816V21.8182H25.758V23.3643ZM43.7253 25.2536C43.4121 22.9915 41.6721 21.679 39.415 21.679C36.7551 21.679 34.7516 23.6179 34.7516 26.9091C34.7516 30.1953 36.7303 32.1392 39.415 32.1392C41.8361 32.1392 43.4419 30.5732 43.7253 28.6293L41.8659 28.6193C41.6323 29.8125 40.6578 30.4837 39.4398 30.4837C37.7892 30.4837 36.606 29.2457 36.606 26.9091C36.606 24.6122 37.7793 23.3345 39.4448 23.3345C40.6827 23.3345 41.6522 24.0355 41.8659 25.2536H43.7253Z" fill="#677184"/>
<path d="M21.0462 258.818H19.2912L16.7607 260.444V262.134L19.142 260.613H19.2017V269H21.0462V258.818ZM28.2425 271.864C29.6445 271.864 30.4549 271.143 30.8874 269.925L33.945 261.364H32.0309L30.266 267.131H30.1864L28.4265 261.364H26.5174L29.2866 269.159L29.1325 269.572C28.7994 270.442 28.2724 270.501 27.4869 270.273L27.0692 271.675C27.3129 271.774 27.7504 271.864 28.2425 271.864ZM38.3113 269.149C40.0911 269.149 41.3141 268.279 41.6323 266.952L39.9519 266.763C39.7083 267.409 39.1117 267.747 38.3361 267.747C37.1728 267.747 36.4022 266.982 36.3873 265.674H41.7069V265.122C41.7069 262.442 40.0961 261.264 38.2168 261.264C36.0293 261.264 34.6025 262.87 34.6025 265.227C34.6025 267.623 36.0094 269.149 38.3113 269.149ZM36.3922 264.461C36.4469 263.487 37.1678 262.666 38.2417 262.666C39.2757 262.666 39.9718 263.422 39.9817 264.461H36.3922ZM45.4268 269.154C46.625 269.154 47.3409 268.592 47.669 267.951H47.7287V269H49.4588V263.889C49.4588 261.871 47.8132 261.264 46.3565 261.264C44.7507 261.264 43.5178 261.98 43.12 263.372L44.8004 263.611C44.9794 263.089 45.4865 262.641 46.3665 262.641C47.2017 262.641 47.6591 263.069 47.6591 263.82V263.849C47.6591 264.366 47.1172 264.391 45.7699 264.536C44.2884 264.695 42.8714 265.137 42.8714 266.857C42.8714 268.359 43.9702 269.154 45.4268 269.154ZM45.8942 267.832C45.1435 267.832 44.6065 267.489 44.6065 266.827C44.6065 266.136 45.2081 265.848 46.0135 265.734C46.4858 265.669 47.4304 265.55 47.6641 265.361V266.261C47.6641 267.111 46.978 267.832 45.8942 267.832ZM51.2685 269H53.0682V264.511C53.0682 263.541 53.799 262.855 54.7884 262.855C55.0916 262.855 55.4695 262.91 55.6236 262.96V261.304C55.4595 261.274 55.1761 261.254 54.9773 261.254C54.1023 261.254 53.3714 261.751 53.093 262.636H53.0135V261.364H51.2685V269ZM67.1129 261.364H65.1989L63.4389 267.036H63.3594L61.6044 261.364H59.6854L62.4048 269H64.3935L67.1129 261.364ZM68.3583 269H70.158V261.364H68.3583V269ZM69.2631 260.28C69.8349 260.28 70.3022 259.842 70.3022 259.305C70.3022 258.763 69.8349 258.326 69.2631 258.326C68.6864 258.326 68.2191 258.763 68.2191 259.305C68.2191 259.842 68.6864 260.28 69.2631 260.28ZM75.3894 269.149C77.1692 269.149 78.3922 268.279 78.7104 266.952L77.03 266.763C76.7864 267.409 76.1898 267.747 75.4142 267.747C74.2509 267.747 73.4803 266.982 73.4654 265.674H78.785V265.122C78.785 262.442 77.1742 261.264 75.2949 261.264C73.1074 261.264 71.6806 262.87 71.6806 265.227C71.6806 267.623 73.0875 269.149 75.3894 269.149ZM73.4703 264.461C73.525 263.487 74.2459 262.666 75.3198 262.666C76.3539 262.666 77.0499 263.422 77.0598 264.461H73.4703ZM81.8425 269H83.7218L85.1536 263.839H85.258L86.6898 269H88.5641L90.7267 261.364H88.8873L87.5648 266.703H87.4902L86.1181 261.364H84.3034L82.9313 266.733H82.8617L81.5194 261.364H79.6848L81.8425 269Z" fill="#677184"/>
<defs>
<filter id="filter0_d_1883_122573" x="205" y="123" width="152" height="92" filterUnits="userSpaceOnUse" color-interpolation-filters="sRGB">
<feFlood flood-opacity="0" result="BackgroundImageFix"/>
<feColorMatrix in="SourceAlpha" type="matrix" values="0 0 0 0 0 0 0 0 0 0 0 0 0 0 0 0 0 0 127 0" result="hardAlpha"/>
<feOffset dy="4"/>
<feGaussianBlur stdDeviation="8"/>
<feColorMatrix type="matrix" values="0 0 0 0 0.0196078 0 0 0 0 0.0941176 0 0 0 0 0.239216 0 0 0 0.08 0"/>
<feBlend mode="normal" in2="BackgroundImageFix" result="effect1_dropShadow_1883_122573"/>
<feBlend mode="normal" in="SourceGraphic" in2="effect1_dropShadow_1883_122573" result="shape"/>
</filter>
<filter id="filter1_b_1883_122573" x="197" y="111" width="168" height="108" filterUnits="userSpaceOnUse" color-interpolation-filters="sRGB">
<feFlood flood-opacity="0" result="BackgroundImageFix"/>
<feGaussianBlur in="BackgroundImageFix" stdDeviation="12"/>
<feComposite in2="SourceAlpha" operator="in" result="effect1_backgroundBlur_1883_122573"/>
<feBlend mode="normal" in="SourceGraphic" in2="effect1_backgroundBlur_1883_122573" result="shape"/>
</filter>
<filter id="filter2_d_1883_122573" x="406" y="57" width="152" height="92" filterUnits="userSpaceOnUse" color-interpolation-filters="sRGB">
<feFlood flood-opacity="0" result="BackgroundImageFix"/>
<feColorMatrix in="SourceAlpha" type="matrix" values="0 0 0 0 0 0 0 0 0 0 0 0 0 0 0 0 0 0 127 0" result="hardAlpha"/>
<feOffset dy="4"/>
<feGaussianBlur stdDeviation="8"/>
<feColorMatrix type="matrix" values="0 0 0 0 0.0196078 0 0 0 0 0.0941176 0 0 0 0 0.239216 0 0 0 0.08 0"/>
<feBlend mode="normal" in2="BackgroundImageFix" result="effect1_dropShadow_1883_122573"/>
<feBlend mode="normal" in="SourceGraphic" in2="effect1_dropShadow_1883_122573" result="shape"/>
</filter>
<filter id="filter3_b_1883_122573" x="398" y="45" width="168" height="108" filterUnits="userSpaceOnUse" color-interpolation-filters="sRGB">
<feFlood flood-opacity="0" result="BackgroundImageFix"/>
<feGaussianBlur in="BackgroundImageFix" stdDeviation="12"/>
<feComposite in2="SourceAlpha" operator="in" result="effect1_backgroundBlur_1883_122573"/>
<feBlend mode="normal" in="SourceGraphic" in2="effect1_backgroundBlur_1883_122573" result="shape"/>
</filter>
<clipPath id="clip0_1883_122573">
<rect width="14" height="14" fill="white" transform="translate(191 158)"/>
</clipPath>
<clipPath id="clip1_1883_122573">
<rect width="14" height="14" fill="white" transform="translate(392 92)"/>
</clipPath>
</defs>
</svg>
