<svg fill="none" height="63" viewBox="0 0 61 63" width="61" xmlns="http://www.w3.org/2000/svg" xmlns:xlink="http://www.w3.org/1999/xlink"><clipPath id="a"><path d="m0 15.1335h47.8664v47.8664h-47.8664z"/></clipPath><g clip-path="url(#a)"><path d="m23.9332 63c13.218 0 23.9332-10.7153 23.9332-23.9332 0-13.218-10.7152-23.9333-23.9332-23.9333-13.2179 0-23.9332 10.7153-23.9332 23.9333 0 13.2179 10.7153 23.9332 23.9332 23.9332z" fill="#dbe2f0"/></g><path d="m24.5284 50.9846c-1.728 0-3.4026-.2454-5.024-.736-1.6-.4907-2.8693-1.1414-3.808-1.952l1.44-3.232c.9174.7253 2.0374 1.3226 3.36 1.792 1.344.448 2.688.672 4.032.672 1.664 0 2.9014-.2667 3.712-.8.832-.5334 1.248-1.2374 1.248-2.112 0-.64-.2346-1.1627-.704-1.568-.448-.4267-1.024-.7574-1.728-.992-.704-.2347-1.664-.5014-2.88-.8-1.7066-.4054-3.0933-.8107-4.16-1.216-1.0453-.4054-1.952-1.0347-2.72-1.8881-.7466-.8746-1.12-2.0479-1.12-3.52 0-1.2373.3307-2.3573.992-3.3599.6827-1.0241 1.696-1.8347 3.04-2.4321 1.3654-.5973 3.0294-.896 4.992-.896 1.3654 0 2.7094.1707 4.032.5121 1.3227.3413 2.464.832 3.424 1.472l-1.312 3.2319c-.9813-.5759-2.0053-1.0133-3.072-1.3119-1.0666-.2987-2.1013-.4481-3.104-.4481-1.6426 0-2.8693.2774-3.68.832-.7893.5547-1.184 1.2907-1.184 2.208 0 .64.224 1.1627.672 1.568.4694.4054 1.056.7254 1.76.96.704.2347 1.664.5014 2.88.8 1.664.3841 3.0294.7894 4.096 1.2161 1.0667.4053 1.9734 1.0346 2.72 1.888.768.8533 1.152 2.0053 1.152 3.456 0 1.2373-.3413 2.3573-1.024 3.36-.6613 1.0026-1.6746 1.8026-3.04 2.4-1.3653.5973-3.0293.896-4.992.896z" fill="#121d33"/><circle cx="46" cy="15" fill="#fff" r="13" stroke="#1a1835" stroke-width="4"/><path clip-rule="evenodd" d="m46 27c6.6274 0 12-5.3726 12-12 0-6.62742-5.3726-12-12-12s-12 5.37258-12 12c0 6.6274 5.3726 12 12 12zm-7.3431-11.3431 2.1213-2.1214 3 3 7.8787-7.87864 2.1213 2.12134-10 10z" fill="#59cd93" fill-rule="evenodd"/></svg>