<svg width="32" height="33" viewBox="0 0 32 33" fill="none" xmlns="http://www.w3.org/2000/svg">
<path fill-rule="evenodd" clip-rule="evenodd" d="M24 7.17799C24 4.43442 21.3009 2.50522 18.7051 3.39339L5.37178 7.95539C3.75379 8.50899 2.66669 10.0299 2.66669 11.74V25.834C2.66669 28.0431 4.45755 29.834 6.66669 29.834H25.3334C27.5425 29.834 29.3334 28.0431 29.3334 25.834V13.834C29.3334 11.6248 27.5425 9.83396 25.3334 9.83396H10.7182L22.8069 8.55582C23.4852 8.4841 24 7.91198 24 7.22987V7.17799ZM22 21.8337C23.1046 21.8337 24 20.9382 24 19.8337C24 18.7291 23.1046 17.8337 22 17.8337C20.8955 17.8337 20 18.7291 20 19.8337C20 20.9382 20.8955 21.8337 22 21.8337Z" fill="url(#paint0_linear_7886_6014)"/>
<defs>
<linearGradient id="paint0_linear_7886_6014" x1="2.66669" y1="16.5044" x2="29.3334" y2="16.5044" gradientUnits="userSpaceOnUse">
<stop stop-color="#FF0196"/>
<stop offset="1" stop-color="#7C33B9"/>
</linearGradient>
</defs>
</svg>
