<svg fill="none" height="25" viewBox="0 0 25 25" width="25" xmlns="http://www.w3.org/2000/svg"><circle cx="12.6875" cy="12.4999" fill="#fff" r="12"/><path d="m10.3939 7.37153c-.2929-.2929-.76775-.2929-1.06064-.00001l-4.59797 4.59798c-.29289.2929-.29289.7678.00001 1.0606l4.59796 4.598c.29289.2929.76774.2929 1.06064 0l.3553-.3553c.2929-.2929.2929-.7678 0-1.0607l-2.71248-2.7125h9.30688l-2.7125 2.7125c-.2929.2929-.2929.7678 0 1.0607l.3554.3554c.2928.2929.7677.2929 1.0606 0l4.598-4.598c.2929-.2929.2929-.7678 0-1.0607l-4.598-4.59793c-.2929-.29289-.7678-.29289-1.0606 0l-.3554.35532c-.2929.2929-.2929.76777 0 1.06066l2.7096 2.70955h-9.30098l2.70958-2.70955c.2929-.29289.2929-.76777 0-1.06066z" fill="#0c6cf2"/></svg>