<svg fill="none" height="87" viewBox="0 0 87 87" width="87" xmlns="http://www.w3.org/2000/svg" xmlns:xlink="http://www.w3.org/1999/xlink"><clipPath id="a"><path d="m47 0h40v40h-40z"/></clipPath><circle cx="36" cy="51" fill="#0c6cf2" r="36"/><path d="m29.1114 35.6149c-.8786-.8787-2.3033-.8787-3.1819 0l-13.7939 13.7939c-.8787.8787-.8787 2.3033 0 3.182l13.7939 13.7939c.8786.8786 2.3033.8786 3.1819 0l1.066-1.066c.8787-.8787.8787-2.3033 0-3.182l-8.1376-8.1375h27.9207l-8.1375 8.1375c-.8787.8787-.8787 2.3033 0 3.182l1.066 1.0661c.8787.8787 2.3034.8787 3.182 0l13.7939-13.7939c.8787-.8787.8787-2.3033 0-3.182l-13.7939-13.7938c-.8786-.8787-2.3033-.8787-3.1819 0l-1.066 1.0659c-.8787.8787-.8787 2.3033 0 3.182l8.1287 8.1287h-27.903l8.1287-8.1287c.8787-.8787.8787-2.3033 0-3.182z" fill="#fff"/><g clip-path="url(#a)"><circle cx="67" cy="20" fill="#fff" r="20"/><path clip-rule="evenodd" d="m67 36c8.8366 0 16-7.1634 16-16s-7.1634-16-16-16-16 7.1634-16 16 7.1634 16 16 16zm-9.7909-15.1242 2.8285-2.8284 4 4 10.5049-10.5049 2.8284 2.8284-13.3333 13.3333z" fill="#17cf73" fill-rule="evenodd"/></g></svg>