<svg fill="none" height="215" viewBox="0 0 440 215" width="440" xmlns="http://www.w3.org/2000/svg" xmlns:xlink="http://www.w3.org/1999/xlink"><clipPath id="a"><path d="m0 0h440v215h-440z"/></clipPath><clipPath id="b"><path d="m0 0h72.9519v72.9519h-72.9519z" transform="matrix(.5 -.8660254 .8660254 .5 142 19.1782)"/></clipPath><clipPath id="c"><path d="m0 0h88.2925v88.2925h-88.2925z" transform="matrix(.94342539 .33158489 -.33158489 .94342539 388.276 132)"/></clipPath><clipPath id="d"><path d="m0 0h62.326v62.326h-62.326z" transform="matrix(.94342539 .33158489 -.33158489 .94342539 401.667 5)"/></clipPath><clipPath id="e"><path d="m0 0h72.9583v72.9583h-72.9583z" transform="matrix(.91158418 -.41111346 .41111346 .91158418 26 177.994)"/></clipPath><g clip-path="url(#a)"><path d="m440 0h-440v215h440z" fill="#0d0d42"/><g clip-path="url(#b)"><path d="m223.416 24.0651c10.073-17.44621 4.095-39.7546-13.351-49.8271-17.446-10.0726-39.754-4.0951-49.827 13.3511s-4.095 39.7545 13.351 49.8271 39.755 4.0951 49.827-13.3511z" fill="#ff9b22"/><path d="m196.112-10.6233c-3.78-3.0091-7.825-1.1408-11.797 2.30998l-4.8-4.63508-2.819 2.9215 4.673 4.51403c-.743.76639-1.483 1.5656-2.223 2.36283l-4.702-4.54442-2.821 2.92034 4.798 4.63392c-.598.644314-1.186 1.27906-1.771 1.88328l-.016-.01421-3.892 4.02855 3.12 3.0124s2.043-2.19793 2.048-2.12411c1.143-1.18254 2.201-.90354 2.904-.44261l5.468 5.2788c.078-.0811.185-.183.318-.2904l-.298.31 7.66 7.3969c.32.4114.703 1.2035-.095 2.033.07-.0071-2.049 2.1229-2.049 2.1229l2.927 3.9487 3.672-3.8028c.684-.7056 1.368-1.3896 2.031-2.0679l4.855 4.6854 2.818-2.9195-4.8-4.6351c.789-.7871 1.544-1.5568 2.275-2.3137l4.779 4.6175 2.819-2.9215-4.844-4.6785c4.462-5.18428 6.544-9.81584 2.344-14.69679-3.38-3.93085-6.725-3.78542-10.086-1.64313.774-2.52735.276-5.05244-2.496-7.25028zm6.432 14.11114c3.631 3.49962-2.782 9.31336-4.692 11.29556l-6.43-6.21279c1.915-1.97992 7.34-8.73745 11.122-5.08277zm-10.385-7.40422c3.3 3.187671-2.089 7.99453-3.68 9.6425l-5.831-5.6304775c1.591-1.6479725 6.068-7.3368925 9.511-4.0120225z" fill="#fff"/></g><g clip-path="url(#c)"><path d="m400.649 229.936c23.002 8.084 48.202-4.009 56.287-27.011 8.084-23.002-4.009-48.202-27.011-56.287-23.002-8.084-48.202 4.009-56.287 27.011-8.084 23.002 4.009 48.202 27.011 56.287z" fill="#8dc351"/><path d="m433.842 178.823c-.216-5.844-5.119-8.087-11.42-9.015l.473-8.061-4.905-.288-.461 7.852c-1.289-.079-2.611-.128-3.923-.18l.467-7.902-4.903-.29-.478 8.059c-1.062-.04-2.107-.08-3.124-.139l.001-.029-6.767-.399-.308 5.244s3.629.141 3.563.206c1.989.117 2.567 1.308 2.695 2.316l-.536 9.182c.134.009.313.025.516.064l-.519-.03-.758 12.865c-.124.62-.549 1.596-1.937 1.518.058.059-3.57-.213-3.57-.213l-1.317 5.804 6.385.373c1.187.075 2.355.163 3.502.236l-.476 8.153 4.9.289.474-8.066c1.306.103 2.612.192 3.919.266l-.476 8.03 4.908.29.479-8.138c8.276.011 14.172-1.728 15.345-9.434.945-6.202-1.823-9.158-6.44-10.558 2.93-1.281 4.857-3.727 4.69-8.003zm-7.886 17.028c-.358 6.094-10.749 4.788-14.074 4.596l.635-10.803c3.324.195 13.809-.147 13.435 6.208zm-1.387-15.374c-.329 5.543-8.991 4.385-11.761 4.222l.577-9.797c2.768.163 11.522-.205 11.183 5.577z" fill="#fff"/></g><g clip-path="url(#d)"><path d="m410.4 74.1331c16.237 5.7069 34.026-2.8296 39.733-19.0667 5.707-16.2372-2.829-34.0263-19.067-39.7332-16.237-5.70687-34.026 2.8296-39.733 19.0668-5.707 16.2371 2.83 34.0263 19.067 39.7331z" fill="#000"/><g fill="#fff"><path d="m437.982 37.8139-5.217.6992-25.193 3.3736c.121-.5765.28-1.1445.475-1.7004.782-2.2166 2.13-4.1904 3.91-5.7258s3.93-2.5792 6.238-3.028c2.307-.4487 4.692-.2869 6.917.4695 2.226.7564 4.215 2.0812 5.771 3.843l2.987-.4003.445-.06c-1.728-2.4995-4.114-4.4725-6.893-5.7009-2.78-1.2285-5.845-1.6645-8.857-1.2598-3.011.4046-5.853 1.6341-8.21 3.5525-2.356 1.9185-4.137 4.4512-5.144 7.3183-.139.396-.263.7956-.371 1.1991-.153.5711-.472 1.0841-.917 1.4744-.444.3903-.994.6405-1.58.719l-1.575.2116-1.116 3.1766 4.636-.6222 1.502-.2023 1.48-.1981 26.56-3.5604 2.984-.3993 6.17-.8277 1.115-3.1749z"/><path d="m441.865 43.3469-34.201 4.5748-2.986.4024-6.141.8234-1.115 3.1734 6.099-.8173 5.217-.6993 25.221-3.3815c-.123.5802-.283 1.1518-.479 1.7113-.782 2.2197-2.131 4.1964-3.913 5.7338-1.781 1.5374-3.934 2.582-6.245 3.0302-2.31.4481-4.697.2842-6.925-.4755-2.227-.7597-4.217-2.0888-5.772-3.8553l-.184.0277-3.238.4343c1.728 2.4994 4.113 4.4725 6.892 5.7013s5.843 1.6655 8.855 1.2618c3.011-.4038 5.853-1.6322 8.21-3.5496 2.357-1.9173 4.138-4.449 5.146-7.3152.141-.3996.266-.8047.375-1.21.153-.5709.472-1.0837.916-1.4741.444-.3903.993-.6408 1.579-.7199l1.577-.2111z"/></g></g><g clip-rule="evenodd" fill-rule="evenodd"><path d="m-14.6271 60.9159c.5978-1.9565 1.1793-3.6584 1.7984-5.1431-18.365 7.5755-7.1499 18.3845-7.005 34.444.1676 18.4952 10.41101 20.9522 22.54907 17.6832-2.408939-1.158-4.65111-2.713-6.66394-4.577-11.52983-5.9964-16.22263-24.2784-10.67853-42.4071z" fill="#a2d900"/><path d="m36.3397 57.7123c.4716 5.5396-.2006 12.2974-2.1892 19.5471-1.5508 5.6494-3.8765 10.5966-6.7267 14.7051-3.1877 4.9869-8.0077 9.2555-14.2741 12.0815-3.50775 1.582-7.04506 2.941-10.43495 3.854 2.86677 1.376 5.96598 2.194 9.18415 2.289 19.9606.594 14.3131-14.6859 28.2365-30.0109 7.8185-8.6062 4.1327-16.8743-3.7957-22.4658z" fill="#3d9ccc"/><path d="m9.1361 51.4294c2.6135-.6453 5.2645-.8782 7.8417-.6355 6.9089.6547 14.077 3.1915 19.3615 6.9182-.8254-9.6968-5.1651-15.6557-12.1528-13.9376-7.6779 1.8907-13.4095 3.9704-20.42564 2.6248-8.64138-1.6578-13.70447 2.4577-16.58976 9.3746.357-.148.7237-.2939 1.1035-.4392 7.10784-2.7111 14.32659-4.3319 20.8615-3.9053z" fill="#ffd919"/><path d="m-14.6271 60.916c-5.5441 18.1287-.8513 36.4107 10.67856 42.407-6.80596-6.3033-10.95846-16.1215-9.81526-25.9711 1.5212-13.1141 11.88391-23.2059 22.90099-25.9217-6.53572-.4284-13.75366 1.1942-20.86049 3.9027-.3816.1461-.7475.2938-1.1054.44-.6191 1.4847-1.2005 3.1866-1.7984 5.1431z" fill="#62b247"/><path d="m16.9779 50.7947c-2.5781-.2445-5.2283-.0098-7.84173.6355 8.60533.5617 16.02103 4.6824 20.42523 14.5866 3.8197 8.5936 2.842 18.1518-2.138 25.9483 2.8503-4.1084 5.1777-9.0565 6.7267-14.705 1.9905-7.2505 2.6608-14.0076 2.1893-19.5471-5.2845-3.7268-12.4535-6.2654-19.3615-6.9183z" fill="#009367"/><path d="m24.1579 87.7846c-5.5479 8.6077-17.01663 11.0568-25.61852 5.4698-8.60188-5.587-10.67068-16.8436-5.53362-25.704 5.7453-9.9066 17.71124-12.4172 25.61854-5.4697 7.7107 6.7738 11.0798 17.0971 5.5336 25.7039zm-15.02103-36.3554c-11.01627 2.7176-21.37977 12.8076-22.90097 25.9217-1.1432 9.8497 3.0083 19.6705 9.81523 25.9711 2.01283 1.864 4.25403 3.422 6.66476 4.579 3.38989-.913 6.92639-2.274 10.43231-3.855 6.2682-2.827 11.0882-7.0949 14.2741-12.081 4.9826-7.7956 5.9595-17.3556 2.138-25.9484-4.4024-9.9049-11.8199-14.0249-20.42343-14.5874z" fill="#00522c"/></g><g clip-path="url(#e)"><path d="m89.2479 229.505c18.3651-8.283 26.5391-29.886 18.2571-48.251-8.283-18.366-29.8856-26.54-48.2512-18.257s-26.5394 29.885-18.2567 48.251c8.2826 18.366 29.8853 26.539 48.2508 18.257z" fill="#473bcb"/><g fill="#fff"><path d="m64.8769 175.468 6.9297 15.365 15.6045-.053z"/><path d="m64.8769 175.468-3.442 27.027 10.3717-11.662z"/><path d="m78.9145 206.594 4.7087 10.441 4.8872-23.841z"/><path d="m83.6232 217.035-4.7087-10.441-16.3889-1.681z"/><path d="m77.8247 204.177 9.5864-13.397-15.6029.057z"/><path d="m61.4349 202.495 16.3898 1.682-6.0165-13.34z"/></g></g></g></svg>