<svg width="32" height="32" viewBox="0 0 32 32" fill="none" xmlns="http://www.w3.org/2000/svg">
<path fill-rule="evenodd" clip-rule="evenodd" d="M16 31.9998C24.8377 31.9998 32 24.84 32 16.0055C32.0112 7.15977 24.8377 0 16 0C7.16233 0 0 7.15977 0 15.9943C0 24.8288 7.16233 32.0448 16 31.9998ZM26.6029 26.5934C23.7695 29.4259 20.0028 30.9882 16 30.9882C15.3703 30.9882 14.7519 30.9545 14.1335 30.8758L15.3478 16.9384C15.0443 16.7361 14.8531 16.3877 14.8531 15.9943C14.8531 15.3648 15.3703 14.8478 16 14.8478C16.6296 14.8478 17.1469 15.3648 17.1469 15.9943C17.1469 16.4439 16.877 16.8373 16.4947 17.0171L15.8876 23.9858H17.5966C22.0154 23.9858 25.9171 20.4003 26.2994 15.983C26.6816 11.5658 23.4209 7.98028 19.0021 7.98028H6.99367L5.37456 26.571C2.55235 23.7385 1.01195 19.9844 1.01195 15.9943C1.01195 11.9929 2.5636 8.22755 5.39705 5.39512C8.2305 2.56268 11.9972 1.01158 16 1.01158C20.0028 1.01158 23.7695 2.57392 26.6029 5.40636C29.4364 8.23879 30.9993 12.0041 30.9993 16.0055C30.9993 20.0069 29.4364 23.761 26.6029 26.5934Z" fill="#0A0D10"/>
</svg>
