<svg width="1159" height="284" viewBox="0 0 1159 284" fill="none" xmlns="http://www.w3.org/2000/svg">
<path fill-rule="evenodd" clip-rule="evenodd" d="M284 142.049C284 220.455 220.434 283.998 142 283.998C63.5657 284.397 0 220.355 0 141.949C0 63.543 63.5657 0 142 0C220.434 0 284.1 63.543 284 142.049ZM142 275.02C177.525 275.02 210.954 261.155 236.101 236.017C261.248 210.879 275.119 177.561 275.119 142.049C275.119 106.537 261.248 73.1193 236.101 47.9814C210.954 22.8435 177.525 8.97781 142 8.97781C106.475 8.97781 73.0456 22.7438 47.8988 47.8817C22.7519 73.0195 8.98102 106.437 8.98102 141.949C8.98102 177.362 22.6521 210.679 47.6992 235.817L62.0688 70.825H168.644C207.861 70.825 236.8 102.646 233.407 141.849C230.014 181.053 195.387 212.874 156.17 212.874H141.002L146.391 151.027C149.783 149.431 152.178 145.939 152.178 141.949C152.178 136.363 147.588 131.774 142 131.774C136.412 131.774 131.821 136.363 131.821 141.949C131.821 145.441 133.518 148.533 136.212 150.328L125.435 274.023C130.923 274.721 136.412 275.02 142 275.02ZM458.9 71.3H330.7L327 113.84H362.5L353.8 213.3H410.8L419.5 113.84H455.1L458.9 71.3ZM815.4 71.3H889.3C915.6 71.3 935 92.5701 933 118.633C930.6 144.896 907.5 166.166 881.2 166.166H871L874.4 127.321C876.8 126.123 878.5 123.726 878.5 120.93C878.5 117.036 875.4 113.84 871.4 113.84C867.5 113.84 864.3 117.036 864.3 120.93C864.3 123.626 865.6 125.723 867.6 127.022L860 213.3H803L815.4 71.3ZM941.3 213.3H998.1L1010.5 71.3H953.7L941.3 213.3ZM1030.3 71.3L1026.6 113.84H1062.2L1053.4 213.3H1110.3L1119 113.84H1154.6L1158.3 71.3H1030.3ZM617.5 213.3L630 71.3H637.8H736.1L732.4 113.84H683.1L682.4 122.029H731.6L728 162.571H678.9L678.2 170.76H727.4L723.7 213.3H625.3H617.5ZM527.6 162.571H545.2L540.7 213.3H597.7L610.2 71.3H553.2L548.7 122.029H531.2L535.6 71.3H478.7L466.2 213.3H523.2L527.6 162.571Z" fill="white"/>
</svg>
