<svg width="214" height="37" viewBox="0 0 214 37" fill="none" xmlns="http://www.w3.org/2000/svg">
    <path fill-rule="evenodd" clip-rule="evenodd" d="M144.665 -1.84811e-05H125.652L122.462 36.5843H137.127L139.082 14.3558C138.568 14.0214 138.233 13.4811 138.233 12.7865C138.233 11.7831 139.056 10.9598 140.06 10.9598C141.089 10.9598 141.886 11.7831 141.886 12.7865C141.886 13.5068 141.449 14.1243 140.832 14.433L139.957 24.441H142.581C149.347 24.441 155.29 18.961 155.908 12.1948C156.422 5.47991 151.431 -1.84811e-05 144.665 -1.84811e-05ZM172.656 36.5843H158.043L161.233 -1.84811e-05H175.872L172.656 36.5843ZM179.989 10.9598L180.966 -1.84811e-05H213.872L212.92 10.9598H203.761L201.522 36.5843H186.909L189.148 10.9598H179.989ZM0.951916 0H33.9344L32.9568 10.9599H23.7978L21.5595 36.5843H6.89493L9.15894 10.9599H0L0.951916 0ZM77.9539 -1.84811e-05L74.738 36.5843H76.7705H102.06L103.012 25.6244H90.3545L90.5346 23.5148H103.167L104.093 13.0695H91.4351L91.6152 10.9598H104.299L105.251 -1.84811e-05H79.9607H77.9539ZM56.1371 23.5148H51.6348L50.4771 36.5843H35.8125L39.0284 -1.84811e-05H53.6673L52.5353 13.0695H57.0376L58.1953 -1.84811e-05H72.8599L69.644 36.5843H55.0051L56.1371 23.5148Z" fill="white"/>
</svg>
