<svg fill="none" height="32" viewBox="0 0 32 32" width="32" xmlns="http://www.w3.org/2000/svg" xmlns:xlink="http://www.w3.org/1999/xlink"><mask id="a" height="32" maskUnits="userSpaceOnUse" width="28" x="2" y="0"><path d="m14.0154 1.13403c1.2298-.702702 2.7394-.702701 3.9692 0l10 5.71429c1.2463.71217 2.0154 2.03754 2.0154 3.47298v11.3574c0 1.4354-.7691 2.7608-2.0154 3.473l-10 5.7143c-1.2298.7027-2.7394.7027-3.9692 0l-9.99996-5.7143c-1.2463-.7122-2.01544-2.0376-2.01544-3.473v-11.3574c0-1.43544.76914-2.76081 2.01544-3.47298z" fill="#f5b73d"/></mask><g mask="url(#a)"><path d="m16 0 14 8v16l-14 8-14-8v-16z" fill="#f5b73d"/><path d="m16 32 14-8c-8.6751-4.9572-19.3249-4.9572-28 0z" fill="#05183d" fill-opacity=".1"/><path d="m16-.00000122-14 8.00000122c8.6751 4.9572 19.3249 4.9572 28 0z" fill="#fff" fill-opacity=".4"/></g></svg>