<svg height="19" viewBox="0 0 23 19" width="23" xmlns="http://www.w3.org/2000/svg"><path d="m22.4443 2.834c-.814.363-1.5.375-2.228.016.939-.562.982-.956 1.321-2.019-.878.521-1.851.9-2.886 1.105-.828-.883-2.01-1.436-3.316-1.436-2.51 0-4.544 2.036-4.544 4.544 0 .357.04.704.117 1.036-3.777-.189-7.125-1.999-9.366-4.749-.391.672-.616 1.453-.616 2.286 0 1.577.803 2.967 2.022 3.782-.745-.024-1.445-.228-2.058-.568-.001.019-.001.037-.001.057 0 2.202 1.567 4.038 3.646 4.456-.666.181-1.368.209-2.053.078.579 1.805 2.257 3.119 4.245 3.156-1.944 1.524-4.355 2.159-6.727 1.881 2.011 1.289 4.399 2.041 6.965 2.041 8.359 0 12.928-6.924 12.928-12.929 0-.198-.003-.392-.012-.588.887-.64 1.954-1.237 2.563-2.149" fill="#fff" fill-rule="evenodd"/></svg>