<svg xmlns="http://www.w3.org/2000/svg" viewBox="0 0 24.21 24.21"><defs><style>.cls-1{fill:#fff;}.cls-2{fill:#094b7c;}</style></defs><title>Asset 82</title><g id="Layer_2" data-name="Layer 2"><g id="Layer_1-2" data-name="Layer 1"><circle class="cls-1" cx="12.1" cy="12.1" r="12.1"/><g id="AB1iG0.tif"><path class="cls-2" d="M9.57,15a5.42,5.42,0,0,1-3.83,1.1,7.28,7.28,0,0,0,3.38,1.14,7.85,7.85,0,0,0,2.15-.12,6.84,6.84,0,0,0,3.55-1.82A7.6,7.6,0,0,0,17.18,9.6a.19.19,0,0,1,.09-.18,5.09,5.09,0,0,0,.92-.88c.1-.12.19-.25.28-.37a6.38,6.38,0,0,1-1.39.36c.21-.2.43-.4.62-.62a1.65,1.65,0,0,0,.4-.78c-.23.11-.47.23-.71.33s-.51.16-.76.24a.26.26,0,0,1-.29-.07A2.55,2.55,0,0,0,13.72,7a2.6,2.6,0,0,0-1.79,2.69c0,.13,0,.26,0,.4A7.52,7.52,0,0,1,6.57,7.37a2.69,2.69,0,0,0,.78,3.51,2.76,2.76,0,0,1-1.15-.33,2.69,2.69,0,0,0,2.07,2.62,2.57,2.57,0,0,1-1.11,0,2.25,2.25,0,0,0,.58,1A2.63,2.63,0,0,0,9.57,15Z"/><path class="cls-2" d="M9.57,15a2.63,2.63,0,0,1-1.84-.81,2.25,2.25,0,0,1-.58-1,2.57,2.57,0,0,0,1.11,0,2.69,2.69,0,0,1-2.07-2.62,2.76,2.76,0,0,0,1.15.33,2.69,2.69,0,0,1-.78-3.51A7.52,7.52,0,0,0,12,10.13c0-.14,0-.27,0-.4A2.6,2.6,0,0,1,13.72,7a2.55,2.55,0,0,1,2.62.58.26.26,0,0,0,.29.07c.25-.08.51-.15.76-.24s.48-.22.71-.33a1.65,1.65,0,0,1-.4.78c-.19.23-.42.42-.62.62a6.38,6.38,0,0,0,1.39-.36c-.09.12-.18.25-.28.37a5.09,5.09,0,0,1-.92.88.19.19,0,0,0-.09.18,7.6,7.6,0,0,1-2.37,5.74,6.84,6.84,0,0,1-3.55,1.82,7.85,7.85,0,0,1-2.15.12,7.28,7.28,0,0,1-3.38-1.14A5.42,5.42,0,0,0,9.57,15Z"/></g></g></g></svg>