<svg fill="none" height="13" viewBox="0 0 17 13" width="17" xmlns="http://www.w3.org/2000/svg"><path clip-rule="evenodd" d="m16.25 1.54517c-.5981.24922-1.1963.4486-1.8941.49844.6978-.39875 1.1963-1.046725 1.4455-1.794389-.648.398754-1.3458.647975-2.0935.797509-.5981-.647976-1.4454-1.04673-2.3426-1.04673-1.79443 0-3.28975 1.44548-3.28975 3.28972 0 .24922.04984.49844.09968.74766-2.74143-.14953-5.13395-1.44548-6.77881-3.439249-.29907.498439-.448601 1.046729-.448601 1.644859 0 1.14642.598131 2.1433 1.445481 2.74143-.54828 0-1.04673-.14953-1.495325-.39875v.04984c0 1.59502 1.146415 2.89097 2.641745 3.19004-.29907.04984-.54829.09968-.84735.09968-.19938 0-.39876 0-.59813-.04984.39875 1.29595 1.64486 2.24301 3.0405 2.29281-1.09658.8972-2.54206 1.3957-4.08723 1.3957-.249223 0-.548289 0-.79751-.0499 1.49533.8972 3.23988 1.4455 5.08411 1.4455 6.03119 0 9.32089-4.98442 9.32089-9.32087 0-.14953 0-.29907 0-.39875.5981-.49845 1.1464-1.04673 1.595-1.69471z" fill="#fff" fill-rule="evenodd"/></svg>