<svg fill="none" height="24" viewBox="0 0 24 24" width="24" xmlns="http://www.w3.org/2000/svg" xmlns:xlink="http://www.w3.org/1999/xlink"><clipPath id="a"><path d="m0 0h24v24h-24z"/></clipPath><g clip-path="url(#a)"><path d="m23.9474 13.1224h-23.8927125v.0004h23.8927125z" fill="#c42126"/><path d="m22.7018 6.57158h-21.40297v.00035h21.40297z" fill="#c42126"/><path d="m23.5526 8.75473h-23.104358v.00036h23.104358z" fill="#c42126"/><path d="m5.15799 21.8558h13.68501l.0007-.0007h-13.68647z" fill="#c42126"/><path d="m12.0005 0c-.2357 0-.4696.00851213-.7017.021787h1.4035c-.2323-.01327487-.4661-.021787-.7018-.021787z" fill="#c42126"/><path d="m23.9501 10.9386h-23.9002953v.0004h23.9002953z" fill="#c42126"/><path d="m15.5467 4.38831h5.73c-.6806-.82857-1.4716-1.56203-2.3479-2.18296h-4.3028c.356.6264.6622 1.36554.9207 2.18296z" fill="#e7e7e7"/><path d="m14.6258 2.20539h4.3028c-1.7788-1.260551-3.9144-2.04995-6.2271-2.1835089h-.3695c1.0886.1370049 1.5886.9426169 2.2938 2.1835089z" fill="#dc3027"/><path d="m23.5527 8.75505c-.2133-.76092-.4994-1.49099-.8511-2.18295h-6.5922c.1335.70088.2389 1.43297.317 2.18295z" fill="#e7e7e7"/><path d="m15.7383 6.57162h6.9628c-.3968-.78043-.8734-1.51278-1.4244-2.18331h-6.0824c.2145.67889.3966 1.41124.544 2.18331z" fill="#dc3027"/><path d="m16.6787 13.1219h7.2673c.0345-.3693.054-.7435.054-1.1217 0-.3579-.0187-.7113-.0494-1.0614h-7.2702c.0237.726.0233 1.4574-.0017 2.1831z" fill="#e7e7e7"/><path d="m23.9497 10.9383c-.0657-.7498-.2008-1.47923-.3981-2.18294h-7.4325c.0747.71486.124 1.44624.148 2.18294z" fill="#dc3027"/><path d="m15.9844 17.4887h6.6861c.3566-.6912.6473-1.4218.8652-2.1833h-7.2281c-.0796.7511-.1876 1.483-.3232 2.1833z" fill="#e7e7e7"/><path d="m23.5355 15.3053c.2014-.7035.3412-1.4329.4107-2.1829h-7.4939c-.0256.7372-.0763 1.4684-.1525 2.1829z" fill="#dc3027"/><path d="m18.8429 21.8551c.889-.6184 1.6912-1.3526 2.3827-2.1829h-5.6303c-.2631.8208-.5756 1.5588-.9381 2.1829z" fill="#e7e7e7"/><path d="m15.3838 19.6722h5.842c.5575-.6698 1.0414-1.4021 1.444-2.1833h-6.7352c-.1495.7726-.3334 1.5053-.5508 2.1833z" fill="#dc3027"/><path d="m11.5649 23.9918c-.0242-.0008-.0484-.0019-.0727-.0027.0243.0007.0485.0019.0727.0027z" fill="#dc3027"/><path d="m11.999 24.0002c2.5441 0 4.9013-.7942 6.8427-2.1441h-4.3429c-.7709 1.328-1.2794 2.1441-2.4998 2.1441z" fill="#dc3027"/><path d="m12.0003 23.9998c-.1458 0-.2905-.0034-.4349-.0085.1459.0049.2908.0085.4349.0085z" fill="#c42126"/><path d="m15.0228 2.20535h-9.95196c-.8765.62093-1.66737 1.35434-2.34818 2.18296h13.22064c-.2585-.81742-.5645-1.55656-.9205-2.18296z" fill="#f3f4f5"/><path d="m5.07129 2.20539h9.95191c-.7054-1.240892-1.6025-2.046504-2.6911-2.1835089h-1.0339c-2.31275.1335589-4.44833.9229579-6.22691 2.1835089z" fill="#e73625"/><path d="m.448242 8.75505h16.356958c-.0781-.75013-.1834-1.48207-.317-2.18295h-15.18885c-.351679.69201-.637747 1.42203-.851108 2.18295z" fill="#f3f4f5"/><path d="m2.72309 4.38805c-.5506.67053-1.02769 1.40283-1.42426 2.18331h15.18867c-.1472-.77192-.3293-1.50422-.5438-2.18331z" fill="#e73625"/><path d="m0 12c0 .3782.0197096.7524.0540115 1.1217h16.8970885c.0251-.7257.0254-1.4569.0018-2.183h-16.9034486c-.0307044.35-.0494514.7034-.0494514 1.0613z" fill="#f3f4f5"/><path d="m.0498047 10.9383h16.9031953c-.024-.7368-.0735-1.46803-.148-2.18294h-16.357304c-.197248.70387-.332328 1.43314-.3978913 2.18294z" fill="#e73625"/><path d="m16.7987 15.3051h-16.333856c.21792.7616.508752 1.4921.865146 2.1833h15.14551c.1356-.7002.2434-1.4321.3232-2.1833z" fill="#f3f4f5"/><path d="m.465448 15.3053h16.333852c.076-.7145.1269-1.4459.1525-2.1829h-16.8971125c.0695155.7501.2095605 1.4794.4107605 2.1829z" fill="#e73625"/><path d="m5.15705 21.8551h9.82995c.3625-.6243.6751-1.3621.9381-2.1829h-13.15069c.69141.8303 1.49343 1.5645 2.38264 2.1829z" fill="#f3f4f5"/><path d="m1.33008 17.4884c.40265.7812.88653 1.5136 1.44397 2.1833h13.15065c.2172-.6779.4012-1.4106.5506-2.1833z" fill="#e73625"/><path d="m11.4919 23.9887c.0243.0008.0485.0019.0728.0026.1444.0052.2891.0086.4348.0086 1.2204 0 2.2155-.8161 2.9865-2.1441h-9.82877c1.81121 1.2597 3.98524 2.035 6.33467 2.1329z" fill="#e73625"/><path d="m11.7516.00614929c-6.14939.12509771-11.161413 4.87309071-11.7008188 10.91265071h11.7010188v-10.91265071z" fill="#283991"/><g fill="#efefef"><path d="m2.40114 6.79852.18281.56292h.5923l-.47916.34808.18301.56333-.47896-.34829-.47881.34829.18266-.56333-.47901-.34808h.5923z"/><path d="m2.40114 8.78772.18281.56327h.5923l-.47916.34808.18301.56333-.47896-.34829-.47881.34829.18266-.56333-.47901-.34808h.5923z"/><path d="m4.3906 3.81497.18286.56312h.5921l-.47901.34829.18285.56291-.4788-.34788-.47901.34788.18286-.56291-.47922-.34829h.59231z"/><path d="m4.3906 5.80386.18286.56312h.5921l-.47901.34788.18285.56332-.4788-.34788-.47901.34788.18286-.56332-.47922-.34788h.59231z"/><path d="m4.3906 7.79305.18286.56332h.5921l-.47901.34768.18285.56332-.4788-.34824-.47901.34824.18286-.56332-.47922-.34768h.59231z"/><path d="m.891414 9.26756-.183011-.56332.479007-.34789h-.591945l-.013275-.04109c-.065006.20105-.12373.40453-.177893.61029l.00836-.00623z"/><path d="m1.92251 6.28369.47881-.34823.47901.34823-.18302-.56332.47901-.34824h-.5923l-.18286-.56291-.18286.56291h-.21827c-.04053.06141-.07975.12318-.11917.1855l.22435.16274z"/><path d="m4.39055 2.95217.47881.34788-.18286-.56291.47881-.34824h-.34201c-.29048.21716-.57072.44699-.83997.68948l-.0722.22167z"/><path d="m5.90039 2.30582.47901-.34824.47881.34824-.18286-.56332.47881-.34788h-.5921l-.02483-.0758c-.20064.1025-.39921.20915-.59327.32265l.13909.10098z"/><path d="m6.37981 2.82059.18285.56276h.5921l-.47901.34824.18286.56332-.4788-.34829-.47901.34829.18285-.56332-.47916-.34824h.59225z"/><path d="m6.37981 4.80948.18285.56276h.5921l-.47901.34824.18286.56332-.4788-.34829-.47901.34829.18285-.56332-.47916-.34824h.59225z"/><path d="m6.37981 6.79852.18285.56292h.5921l-.47901.34808.18286.56333-.4788-.34829-.47901.34829.18285-.56333-.47916-.34808h.59225z"/><path d="m6.37981 8.78772.18285.56327h.5921l-.47901.34808.18286.56333-.4788-.34829-.47901.34829.18285-.56333-.47916-.34808h.59225z"/><path d="m8.36906 1.82591.18286.56312h.5921l-.4788.34829.18265.56292-.47881-.34789-.47916.34789.18301-.56292-.47916-.34829h.59225z"/><path d="m8.36906 3.81497.18286.56312h.5921l-.4788.34829.18265.56291-.47881-.34788-.47916.34788.18301-.56291-.47916-.34829h.59225z"/><path d="m8.36906 5.80386.18286.56312h.5921l-.4788.34788.18265.56332-.47881-.34788-.47916.34788.18301-.56332-.47916-.34788h.59225z"/><path d="m8.36906 7.79305.18286.56332h.5921l-.4788.34768.18265.56332-.47881-.34824-.47916.34824.18301-.56332-.47916-.34768h.59225z"/><path d="m10.3583.831406.1829.563114h.5921l-.479.34789.1828.56332-.4788-.34829-.47914.34829.18304-.56332-.47919-.34789h.59209z"/><path d="m10.3583 2.82059.1829.56276h.5921l-.479.34824.1828.56332-.4788-.34829-.47914.34829.18304-.56332-.47919-.34824h.59209z"/><path d="m10.3583 4.80948.1829.56276h.5921l-.479.34824.1828.56332-.4788-.34829-.47914.34829.18304-.56332-.47919-.34824h.59209z"/><path d="m10.3583 6.79852.1829.56292h.5921l-.479.34808.1828.56333-.4788-.34829-.47914.34829.18304-.56333-.47919-.34808h.59209z"/><path d="m10.3583 8.78772.1829.56327h.5921l-.479.34808.1828.56333-.4788-.34829-.47914.34829.18304-.56333-.47919-.34808h.59209z"/></g></g></svg>