<svg width="24" height="24" viewBox="0 0 24 24" fill="none" xmlns="http://www.w3.org/2000/svg">
<g clip-path="url(#clip0)">
<path d="M23.9474 13.1224H0.0546875V13.1228H23.9474V13.1224Z" fill="#C42126"/>
<path d="M22.7018 6.57158H1.29883V6.57193H22.7018V6.57158Z" fill="#C42126"/>
<path d="M23.5526 8.75473H0.448242V8.75509H23.5526V8.75473Z" fill="#C42126"/>
<path d="M5.15799 21.8558H18.843L18.8437 21.8551H5.15723L5.15799 21.8558Z" fill="#C42126"/>
<path d="M12.0005 0C11.7648 0 11.5309 0.00851213 11.2988 0.021787H12.7023C12.47 0.00851213 12.2362 0 12.0005 0Z" fill="#C42126"/>
<path d="M23.9501 10.9386H0.0498047V10.939H23.9501V10.9386Z" fill="#C42126"/>
<path d="M15.5467 4.38831H21.2767C20.5961 3.55974 19.8051 2.82628 18.9288 2.20535H14.626C14.982 2.83175 15.2882 3.57089 15.5467 4.38831Z" fill="#E7E7E7"/>
<path d="M14.6258 2.20539H18.9286C17.1498 0.944839 15.0142 0.15544 12.7015 0.0218811H12.332C13.4206 0.158886 13.9206 0.964498 14.6258 2.20539Z" fill="#DC3027"/>
<path d="M23.5527 8.75505C23.3394 7.99413 23.0533 7.26406 22.7016 6.5721H16.1094C16.2429 7.27298 16.3483 8.00507 16.4264 8.75505H23.5527Z" fill="#E7E7E7"/>
<path d="M15.7383 6.57162H22.7011C22.3043 5.79119 21.8277 5.05884 21.2767 4.38831H15.1943C15.4088 5.0672 15.5909 5.79955 15.7383 6.57162Z" fill="#DC3027"/>
<path d="M16.6787 13.1219H23.946C23.9805 12.7526 24 12.3784 24 12.0002C24 11.6423 23.9813 11.2889 23.9506 10.9388H16.6804C16.7041 11.6648 16.7037 12.3962 16.6787 13.1219Z" fill="#E7E7E7"/>
<path d="M23.9497 10.9383C23.884 10.1885 23.7489 9.45907 23.5516 8.75536H16.1191C16.1938 9.47022 16.2431 10.2016 16.2671 10.9383H23.9497Z" fill="#DC3027"/>
<path d="M15.9844 17.4887H22.6705C23.0271 16.7975 23.3178 16.0669 23.5357 15.3054H16.3076C16.228 16.0565 16.12 16.7884 15.9844 17.4887Z" fill="#E7E7E7"/>
<path d="M23.5355 15.3053C23.7369 14.6018 23.8767 13.8724 23.9462 13.1224H16.4523C16.4267 13.8596 16.376 14.5908 16.2998 15.3053H23.5355Z" fill="#DC3027"/>
<path d="M18.8429 21.8551C19.7319 21.2367 20.5341 20.5025 21.2256 19.6722H15.5953C15.3322 20.493 15.0197 21.231 14.6572 21.8551H18.8429Z" fill="#E7E7E7"/>
<path d="M15.3838 19.6722H21.2258C21.7833 19.0024 22.2672 18.2701 22.6698 17.4889H15.9346C15.7851 18.2615 15.6012 18.9942 15.3838 19.6722Z" fill="#DC3027"/>
<path d="M11.5649 23.9918C11.5407 23.991 11.5165 23.9899 11.4922 23.9891C11.5165 23.9898 11.5407 23.991 11.5649 23.9918Z" fill="#DC3027"/>
<path d="M11.999 24.0002C14.5431 24.0002 16.9003 23.206 18.8417 21.8561H14.4988C13.7279 23.1841 13.2194 24.0002 11.999 24.0002Z" fill="#DC3027"/>
<path d="M12.0003 23.9998C11.8545 23.9998 11.7098 23.9964 11.5654 23.9913C11.7113 23.9962 11.8562 23.9998 12.0003 23.9998Z" fill="#C42126"/>
<path d="M15.0228 2.20535H5.07084C4.19434 2.82628 3.40347 3.55969 2.72266 4.38831H15.9433C15.6848 3.57089 15.3788 2.83175 15.0228 2.20535Z" fill="#F3F4F5"/>
<path d="M5.07129 2.20539H15.0232C14.3178 0.964498 13.4207 0.158886 12.3321 0.0218811H11.2982C8.98545 0.15544 6.84987 0.944839 5.07129 2.20539Z" fill="#E73625"/>
<path d="M0.448242 8.75505H16.8052C16.7271 8.00492 16.6218 7.27298 16.4882 6.5721H1.29935C0.947671 7.26411 0.661603 7.99413 0.448242 8.75505Z" fill="#F3F4F5"/>
<path d="M2.72309 4.38805C2.17249 5.05858 1.6954 5.79088 1.29883 6.57136H16.4875C16.3403 5.79944 16.1582 5.06714 15.9437 4.38805C15.9437 4.38805 2.72309 4.38805 2.72309 4.38805Z" fill="#E73625"/>
<path d="M0 12C0 12.3782 0.0197096 12.7524 0.0540115 13.1217H16.9511C16.9762 12.396 16.9765 11.6648 16.9529 10.9387H0.0494514C0.018747 11.2887 0 11.6421 0 12Z" fill="#F3F4F5"/>
<path d="M0.0498047 10.9383H16.953C16.929 10.2015 16.8795 9.47027 16.805 8.75536H0.447696C0.250448 9.45923 0.115368 10.1885 0.0498047 10.9383Z" fill="#E73625"/>
<path d="M16.7987 15.3051H0.464844C0.682764 16.0667 0.973596 16.7972 1.32999 17.4884H16.4755C16.6111 16.7882 16.7189 16.0563 16.7987 15.3051Z" fill="#F3F4F5"/>
<path d="M0.465448 15.3053H16.7993C16.8753 14.5908 16.9262 13.8594 16.9518 13.1224H0.0546875C0.124203 13.8725 0.264248 14.6018 0.465448 15.3053Z" fill="#E73625"/>
<path d="M5.15705 21.8551H14.987C15.3495 21.2308 15.6621 20.493 15.9251 19.6722H2.77441C3.46582 20.5025 4.26784 21.2367 5.15705 21.8551Z" fill="#F3F4F5"/>
<path d="M1.33008 17.4884C1.73273 18.2696 2.21661 19.002 2.77405 19.6717H15.9247C16.1419 18.9938 16.3259 18.2611 16.4753 17.4884H1.33008Z" fill="#E73625"/>
<path d="M11.4919 23.9887C11.5162 23.9895 11.5404 23.9906 11.5647 23.9913C11.7091 23.9965 11.8538 23.9999 11.9995 23.9999C13.2199 23.9999 14.215 23.1838 14.986 21.8558H5.15723C6.96844 23.1155 9.14247 23.8908 11.4919 23.9887Z" fill="#E73625"/>
<path d="M11.7516 0.00614929C5.60221 0.131247 0.590187 4.87924 0.0507812 10.9188H11.7518V0.00614929H11.7516Z" fill="#283991"/>
<path d="M2.40114 6.79852L2.58395 7.36144H3.17625L2.69709 7.70952L2.8801 8.27285L2.40114 7.92456L1.92233 8.27285L2.10499 7.70952L1.62598 7.36144H2.21828L2.40114 6.79852Z" fill="#EFEFEF"/>
<path d="M2.40114 8.78772L2.58395 9.35099H3.17625L2.69709 9.69907L2.8801 10.2624L2.40114 9.91411L1.92233 10.2624L2.10499 9.69907L1.62598 9.35099H2.21828L2.40114 8.78772Z" fill="#EFEFEF"/>
<path d="M4.3906 3.81497L4.57346 4.37809H5.16556L4.68655 4.72638L4.8694 5.28929L4.3906 4.94141L3.91159 5.28929L4.09445 4.72638L3.61523 4.37809H4.20754L4.3906 3.81497Z" fill="#EFEFEF"/>
<path d="M4.3906 5.80386L4.57346 6.36698H5.16556L4.68655 6.71486L4.8694 7.27818L4.3906 6.9303L3.91159 7.27818L4.09445 6.71486L3.61523 6.36698H4.20754L4.3906 5.80386Z" fill="#EFEFEF"/>
<path d="M4.3906 7.79305L4.57346 8.35637H5.16556L4.68655 8.70405L4.8694 9.26737L4.3906 8.91913L3.91159 9.26737L4.09445 8.70405L3.61523 8.35637H4.20754L4.3906 7.79305Z" fill="#EFEFEF"/>
<path d="M0.891414 9.26756L0.708403 8.70424L1.18741 8.35635H0.595465L0.58219 8.31526C0.517184 8.51631 0.45846 8.71979 0.404297 8.92555L0.412657 8.91932L0.891414 9.26756Z" fill="#EFEFEF"/>
<path d="M1.92251 6.28369L2.40132 5.93546L2.88033 6.28369L2.69731 5.72037L3.17632 5.37213H2.58402L2.40116 4.80922L2.2183 5.37213H2.00003C1.9595 5.43354 1.92028 5.49531 1.88086 5.55763L2.10521 5.72037L1.92251 6.28369Z" fill="#EFEFEF"/>
<path d="M4.39055 2.95217L4.86936 3.30005L4.6865 2.73714L5.16531 2.3889H4.8233C4.53282 2.60606 4.25258 2.83589 3.98333 3.07838L3.91113 3.30005L4.39055 2.95217Z" fill="#EFEFEF"/>
<path d="M5.90039 2.30582L6.3794 1.95758L6.85821 2.30582L6.67535 1.7425L7.15416 1.39462H6.56206L6.53723 1.31882C6.33659 1.42132 6.13802 1.52797 5.94396 1.64147L6.08305 1.74245L5.90039 2.30582Z" fill="#EFEFEF"/>
<path d="M6.37981 2.82059L6.56266 3.38335H7.15476L6.67575 3.73159L6.85861 4.29491L6.37981 3.94662L5.9008 4.29491L6.08365 3.73159L5.60449 3.38335H6.19674L6.37981 2.82059Z" fill="#EFEFEF"/>
<path d="M6.37981 4.80948L6.56266 5.37224H7.15476L6.67575 5.72048L6.85861 6.2838L6.37981 5.93551L5.9008 6.2838L6.08365 5.72048L5.60449 5.37224H6.19674L6.37981 4.80948Z" fill="#EFEFEF"/>
<path d="M6.37981 6.79852L6.56266 7.36144H7.15476L6.67575 7.70952L6.85861 8.27285L6.37981 7.92456L5.9008 8.27285L6.08365 7.70952L5.60449 7.36144H6.19674L6.37981 6.79852Z" fill="#EFEFEF"/>
<path d="M6.37981 8.78772L6.56266 9.35099H7.15476L6.67575 9.69907L6.85861 10.2624L6.37981 9.91411L5.9008 10.2624L6.08365 9.69907L5.60449 9.35099H6.19674L6.37981 8.78772Z" fill="#EFEFEF"/>
<path d="M8.36906 1.82591L8.55192 2.38903H9.14402L8.66522 2.73732L8.84787 3.30024L8.36906 2.95235L7.8899 3.30024L8.07291 2.73732L7.59375 2.38903H8.186L8.36906 1.82591Z" fill="#EFEFEF"/>
<path d="M8.36906 3.81497L8.55192 4.37809H9.14402L8.66522 4.72638L8.84787 5.28929L8.36906 4.94141L7.8899 5.28929L8.07291 4.72638L7.59375 4.37809H8.186L8.36906 3.81497Z" fill="#EFEFEF"/>
<path d="M8.36906 5.80386L8.55192 6.36698H9.14402L8.66522 6.71486L8.84787 7.27818L8.36906 6.9303L7.8899 7.27818L8.07291 6.71486L7.59375 6.36698H8.186L8.36906 5.80386Z" fill="#EFEFEF"/>
<path d="M8.36906 7.79305L8.55192 8.35637H9.14402L8.66522 8.70405L8.84787 9.26737L8.36906 8.91913L7.8899 9.26737L8.07291 8.70405L7.59375 8.35637H8.186L8.36906 7.79305Z" fill="#EFEFEF"/>
<path d="M10.3583 0.831406L10.5412 1.39452H11.1333L10.6543 1.74241L10.8371 2.30573L10.3583 1.95744L9.87916 2.30573L10.0622 1.74241L9.58301 1.39452H10.1751L10.3583 0.831406Z" fill="#EFEFEF"/>
<path d="M10.3583 2.82059L10.5412 3.38335H11.1333L10.6543 3.73159L10.8371 4.29491L10.3583 3.94662L9.87916 4.29491L10.0622 3.73159L9.58301 3.38335H10.1751L10.3583 2.82059Z" fill="#EFEFEF"/>
<path d="M10.3583 4.80948L10.5412 5.37224H11.1333L10.6543 5.72048L10.8371 6.2838L10.3583 5.93551L9.87916 6.2838L10.0622 5.72048L9.58301 5.37224H10.1751L10.3583 4.80948Z" fill="#EFEFEF"/>
<path d="M10.3583 6.79852L10.5412 7.36144H11.1333L10.6543 7.70952L10.8371 8.27285L10.3583 7.92456L9.87916 8.27285L10.0622 7.70952L9.58301 7.36144H10.1751L10.3583 6.79852Z" fill="#EFEFEF"/>
<path d="M10.3583 8.78772L10.5412 9.35099H11.1333L10.6543 9.69907L10.8371 10.2624L10.3583 9.91411L9.87916 10.2624L10.0622 9.69907L9.58301 9.35099H10.1751L10.3583 8.78772Z" fill="#EFEFEF"/>
</g>
<defs>
<clipPath id="clip0">
<rect width="24" height="24" fill="white"/>
</clipPath>
</defs>
</svg>
