<?xml version="1.0" encoding="utf-8"?>
<!-- Generator: Adobe Illustrator 24.0.3, SVG Export Plug-In . SVG Version: 6.00 Build 0)  -->
<svg version="1.1" id="Layer_1" xmlns="http://www.w3.org/2000/svg" xmlns:xlink="http://www.w3.org/1999/xlink" x="0px" y="0px"
	 viewBox="0 0 600 400" style="enable-background:new 0 0 600 400;" xml:space="preserve">
<style type="text/css">
	.st0{fill:none;}
	.st1{fill:#00994C;}
	.st2{fill:#004D26;}
	.st3{fill:#CCD2DE;}
	.st4{fill:#DFE3EB;}
	.st5{fill:#84D0D3;}
	.st6{fill:#00BABC;}
	.st7{fill:#006633;}
	.st8{fill:#FFFFFF;}
</style>
<g>
	<path class="st0" d="M422.9,135.5C422.9,135.5,422.9,135.5,422.9,135.5c0-0.2-0.1-0.3-0.1-0.5c0,0,0,0,0,0
		C422.9,135.2,422.9,135.3,422.9,135.5z"/>
	<path class="st0" d="M325.6,89.8C325.6,89.8,325.6,89.8,325.6,89.8c-0.1-0.1-0.1-0.2-0.2-0.3c0,0,0,0,0,0
		C325.5,89.6,325.5,89.7,325.6,89.8z"/>
	<path class="st0" d="M422.7,134.5c0-0.1-0.1-0.2-0.1-0.3c0,0,0,0,0,0C422.6,134.3,422.7,134.4,422.7,134.5z"/>
	<path class="st0" d="M325.8,90.4C325.8,90.4,325.8,90.4,325.8,90.4c0-0.1-0.1-0.2-0.1-0.3c0,0,0,0,0,0
		C325.7,90.2,325.8,90.3,325.8,90.4z"/>
	<path class="st0" d="M421.7,132C421.7,132,421.7,132,421.7,132c-0.1-0.1-0.2-0.3-0.2-0.4c0,0,0,0,0,0
		C421.6,131.8,421.7,131.9,421.7,132z"/>
	<path class="st0" d="M423,136.4C423,136.4,423,136.4,423,136.4c0-0.2,0-0.3-0.1-0.5c0,0,0,0,0,0C423,136.1,423,136.2,423,136.4z"/>
	<path class="st0" d="M324.1,88.1c-0.1,0-0.1-0.1-0.2-0.2c0,0,0,0,0,0C324,88,324.1,88.1,324.1,88.1z"/>
	<path class="st0" d="M323.8,87.8c-0.1-0.1-0.2-0.1-0.3-0.2C323.6,87.7,323.7,87.7,323.8,87.8C323.8,87.8,323.8,87.8,323.8,87.8z"/>
	<path class="st0" d="M325.9,90.7C325.9,90.7,325.9,90.6,325.9,90.7C325.9,90.6,325.9,90.6,325.9,90.7
		C325.9,90.6,325.9,90.7,325.9,90.7z"/>
	<path class="st0" d="M324.8,88.7c-0.1-0.1-0.2-0.2-0.3-0.3c0,0,0,0,0,0C324.7,88.6,324.7,88.6,324.8,88.7z"/>
	<path class="st0" d="M432.1,121.7C432.1,121.7,432.1,121.7,432.1,121.7c-0.3-0.2-0.5-0.4-0.8-0.7c0,0,0.1,0.1,0.1,0.1
		C431.7,121.3,431.9,121.5,432.1,121.7z"/>
	<path class="st0" d="M422.4,115.5C422.4,115.5,422.4,115.5,422.4,115.5c-1-0.5-2-0.9-3-1.3c0,0,0,0,0,0
		C420.4,114.6,421.5,115,422.4,115.5z"/>
	<path class="st0" d="M362.4,130.3C362.4,130.3,362.4,130.3,362.4,130.3c-0.1,0.1-0.2,0.3-0.3,0.4c0,0,0,0,0,0
		C362.2,130.6,362.3,130.4,362.4,130.3z"/>
	<path class="st0" d="M361.9,131.2C361.9,131.2,361.9,131.2,361.9,131.2c-0.1,0.1-0.1,0.3-0.2,0.4c0,0,0,0,0,0
		C361.7,131.4,361.8,131.3,361.9,131.2z"/>
	<path class="st0" d="M361.4,132c-0.1,0.1-0.1,0.2-0.2,0.3C361.3,132.2,361.3,132.1,361.4,132C361.4,132,361.4,132,361.4,132z"/>
	<path class="st0" d="M361,132.8c0,0.1-0.1,0.2-0.1,0.3C360.9,133.1,361,132.9,361,132.8C361,132.8,361,132.8,361,132.8z"/>
	<path class="st0" d="M308.3,87.8C308.3,87.8,308.3,87.8,308.3,87.8c-0.1,0-0.1,0.1-0.2,0.1c0,0,0,0,0,0
		C308.2,87.9,308.2,87.8,308.3,87.8z"/>
	<path class="st0" d="M427.5,118.3c-0.5-0.3-1.1-0.7-1.6-1c0.3,0.2,0.6,0.4,0.9,0.6C427.1,118,427.3,118.1,427.5,118.3z"/>
	<path class="st0" d="M428.7,119.1c-0.2-0.1-0.3-0.2-0.5-0.3c0.1,0.1,0.2,0.1,0.2,0.2C428.5,118.9,428.6,119,428.7,119.1z"/>
	<path class="st0" d="M420.7,130.4C420.7,130.4,420.7,130.4,420.7,130.4c-0.1-0.1-0.2-0.3-0.3-0.4c0,0,0,0,0,0
		C420.5,130.1,420.6,130.2,420.7,130.4z"/>
	<path class="st0" d="M425.9,117.3C425.9,117.3,425.9,117.3,425.9,117.3c-1-0.6-2-1.1-3-1.6c0,0,0,0,0,0
		C423.9,116.2,424.9,116.7,425.9,117.3z"/>
	<path class="st0" d="M349.2,145.2C349.2,145.2,349.2,145.2,349.2,145.2c0.1,0.2,0.2,0.4,0.3,0.6c0,0,0,0,0,0
		C349.4,145.5,349.3,145.3,349.2,145.2z"/>
	<path class="st0" d="M438,128.8c-0.1-0.1-0.1-0.2-0.2-0.3c0,0,0,0,0,0C437.9,128.6,437.9,128.7,438,128.8z"/>
	<path class="st0" d="M437.5,127.9C437.5,127.9,437.5,127.9,437.5,127.9c-0.1-0.2-0.3-0.5-0.4-0.7c0,0,0,0,0,0
		C437.2,127.5,437.3,127.7,437.5,127.9z"/>
	<path class="st0" d="M436.6,126.6C436.6,126.6,436.6,126.6,436.6,126.6c-0.2-0.2-0.3-0.5-0.5-0.7c0,0,0,0,0,0
		C436.3,126.2,436.5,126.4,436.6,126.6z"/>
	<path class="st0" d="M438.8,130.5C438.8,130.5,438.8,130.5,438.8,130.5c-0.1-0.2-0.2-0.5-0.3-0.7c0,0,0,0,0,0
		C438.6,130.1,438.7,130.3,438.8,130.5z"/>
	<path class="st0" d="M434.6,124.1C434.6,124.1,434.6,124.1,434.6,124.1c-0.2-0.2-0.4-0.4-0.6-0.7c0,0,0,0,0,0
		C434.2,123.7,434.4,123.9,434.6,124.1z"/>
	<path class="st0" d="M439.9,134.3c0-0.1-0.1-0.3-0.1-0.4c0,0,0,0,0,0C439.9,134,439.9,134.1,439.9,134.3z"/>
	<path class="st0" d="M438.5,144.6c0.1-0.2,0.2-0.5,0.3-0.7c0,0,0,0,0,0C438.8,144.2,438.6,144.4,438.5,144.6
		C438.5,144.6,438.5,144.6,438.5,144.6z"/>
	<path class="st0" d="M440.2,135.9c0-0.1,0-0.3-0.1-0.4C440.1,135.6,440.2,135.8,440.2,135.9C440.2,135.9,440.2,135.9,440.2,135.9z"
		/>
	<path class="st0" d="M433.1,122.6c-0.1-0.1-0.2-0.2-0.3-0.3c0,0,0,0,0.1,0.1C432.9,122.4,433,122.5,433.1,122.6z"/>
	<path class="st0" d="M437.9,145.9c0.1-0.1,0.2-0.3,0.2-0.4C438,145.7,438,145.8,437.9,145.9C437.9,145.9,437.9,145.9,437.9,145.9z"
		/>
	<path class="st0" d="M439.6,132.9c0-0.1-0.1-0.2-0.1-0.3c0,0,0,0,0,0C439.6,132.6,439.6,132.7,439.6,132.9z"/>
	<path class="st0" d="M348.2,143.2L348.2,143.2c0,0,0,0.1,0.1,0.1c0,0,0,0,0,0C348.2,143.3,348.2,143.2,348.2,143.2z"/>
	<path class="st0" d="M326,91.2c0,0.1,0,0.2,0,0.3C326,91.3,326,91.3,326,91.2C326,91.2,326,91.2,326,91.2z"/>
	<path class="st0" d="M306.4,90C306.4,90,306.4,90,306.4,90C306.4,90,306.4,90,306.4,90C306.4,90,306.4,90,306.4,90z"/>
	<path class="st0" d="M356.6,153.2c0.2,0.1,0.3,0.2,0.5,0.3c0,0,0,0,0,0C356.9,153.4,356.7,153.3,356.6,153.2z"/>
	<path class="st0" d="M423.3,155.5c0.5-0.3,1-0.6,1.4-0.9c0,0,0,0,0,0C424.2,154.9,423.7,155.2,423.3,155.5
		C423.3,155.5,423.3,155.5,423.3,155.5z"/>
	<polygon class="st0" points="307.2,88.8 307.2,88.8 307.2,88.8 	"/>
	<path class="st0" d="M353.8,150.9C353.8,150.9,353.8,150.9,353.8,150.9c0.2,0.2,0.4,0.3,0.5,0.5c0,0,0,0,0,0
		C354.2,151.3,354,151.1,353.8,150.9z"/>
	<path class="st0" d="M307.7,88.3C307.7,88.3,307.6,88.3,307.7,88.3C307.6,88.3,307.7,88.3,307.7,88.3
		C307.7,88.3,307.7,88.3,307.7,88.3z"/>
	<path class="st0" d="M349.9,146.4c0,0.1,0.1,0.1,0.1,0.2C350,146.5,349.9,146.4,349.9,146.4C349.9,146.4,349.9,146.4,349.9,146.4z"
		/>
	<path class="st0" d="M348.6,143.9C348.6,144,348.6,144,348.6,143.9c0.1,0.2,0.2,0.4,0.3,0.6c0,0,0,0,0,0
		C348.7,144.3,348.6,144.1,348.6,143.9z"/>
	<path class="st0" d="M360.7,133.8c0,0.1-0.1,0.2-0.1,0.3c0,0,0,0,0,0C360.6,134,360.6,133.9,360.7,133.8z"/>
	<path class="st0" d="M437.1,147.2c0.1-0.2,0.3-0.4,0.4-0.7c0,0,0,0,0,0C437.4,146.8,437.2,147,437.1,147.2
		C437.1,147.2,437.1,147.2,437.1,147.2z"/>
	<path class="st0" d="M426.4,153.4c0.4-0.3,0.8-0.6,1.2-0.9c0,0,0,0,0,0C427.3,152.8,426.9,153.1,426.4,153.4
		C426.4,153.4,426.4,153.4,426.4,153.4z"/>
	<path class="st0" d="M425.1,154.4C425.1,154.4,425.1,154.4,425.1,154.4c0.3-0.2,0.7-0.4,1-0.7c0,0,0,0,0,0
		C425.7,153.9,425.4,154.1,425.1,154.4z"/>
	<path class="st0" d="M427.7,152.5C427.7,152.5,427.7,152.5,427.7,152.5c0.4-0.3,0.8-0.6,1.1-0.9c0,0,0,0,0,0
		C428.5,151.9,428.1,152.2,427.7,152.5z"/>
	<path class="st0" d="M432.3,147.9c0.2-0.3,0.4-0.5,0.6-0.8c0,0,0,0,0,0C432.7,147.4,432.5,147.6,432.3,147.9
		C432.3,147.9,432.3,147.9,432.3,147.9z"/>
	<path class="st0" d="M433.1,146.8c0.2-0.3,0.5-0.7,0.7-1.1c0,0,0,0,0,0c0.2-0.4,0.4-0.7,0.6-1.1c0,0,0,0,0,0
		C434,145.4,433.6,146.1,433.1,146.8C433.1,146.8,433.1,146.8,433.1,146.8z"/>
	<path class="st0" d="M423,136.8c0,0.1,0,0.3,0,0.4C423.1,137.1,423,136.9,423,136.8C423,136.8,423,136.8,423,136.8z"/>
	<path class="st0" d="M411.5,111.5C411.5,111.5,411.5,111.5,411.5,111.5c-1.1-0.3-2.3-0.6-3.5-0.8c0,0,0,0,0,0
		C409.2,111,410.4,111.2,411.5,111.5z"/>
	<path class="st0" d="M430.2,150.2C430.2,150.2,430.2,150.2,430.2,150.2c0.3-0.3,0.7-0.7,1-1c0,0,0,0,0,0c0.3-0.3,0.6-0.7,0.9-1
		c0,0,0,0,0,0C431.5,148.9,430.9,149.6,430.2,150.2z"/>
	<path class="st0" d="M434.5,144.4c0.1-0.3,0.3-0.5,0.4-0.8c0,0,0,0,0,0C434.8,143.8,434.6,144.1,434.5,144.4
		C434.5,144.4,434.5,144.4,434.5,144.4z"/>
	<path class="st0" d="M398.2,109.3c-0.8-0.1-1.6-0.1-2.5-0.2c0,0,0,0,0,0C396.6,109.2,397.4,109.3,398.2,109.3z"/>
	<path class="st0" d="M407.7,110.6C407.7,110.6,407.7,110.6,407.7,110.6c-1.2-0.2-2.4-0.4-3.6-0.6c0,0,0,0,0,0
		C405.3,110.2,406.5,110.4,407.7,110.6z"/>
	<path class="st0" d="M429.1,151.3C429.1,151.3,429.1,151.3,429.1,151.3c0.3-0.2,0.5-0.5,0.8-0.7c0,0,0,0,0,0
		C429.7,150.8,429.4,151,429.1,151.3z"/>
	<polygon class="st0" points="461.3,179.2 461.3,179.2 461.3,179.2 	"/>
	<path class="st0" d="M371.2,111.6C371.2,111.6,371.2,111.6,371.2,111.6c-1.1,0.3-2.2,0.6-3.3,1c0,0,0,0,0,0
		C368.9,112.2,370,111.9,371.2,111.6z"/>
	<path class="st0" d="M367.3,112.8c-0.9,0.3-1.7,0.6-2.5,0.9C365.6,113.4,366.4,113,367.3,112.8
		C367.3,112.8,367.3,112.8,367.3,112.8z"/>
	<path class="st0" d="M395.3,109.1c-0.3,0-0.6,0-0.9,0C394.7,109.1,395,109.1,395.3,109.1C395.3,109.1,395.3,109.1,395.3,109.1z"/>
	<path class="st0" d="M378.8,110c-0.6,0.1-1.2,0.2-1.7,0.3C377.6,110.2,378.2,110.1,378.8,110C378.8,110,378.8,110,378.8,110z"/>
	<path class="st0" d="M461,179.8C461,179.9,461,179.9,461,179.8C461,179.9,461,179.9,461,179.8C461,179.9,461,179.9,461,179.8z"/>
	<path class="st0" d="M460.9,180.3C460.9,180.3,460.9,180.3,460.9,180.3c0,0.1,0,0.2,0,0.2c0,0,0,0,0,0
		C460.9,180.4,460.9,180.3,460.9,180.3z"/>
	<path class="st0" d="M390.4,109.1c-0.9,0-1.8,0-2.7,0.1c0,0,0,0,0,0C388.6,109.1,389.5,109.1,390.4,109.1z"/>
	<path class="st0" d="M385.4,109.3c-0.6,0-1.2,0.1-1.9,0.1c0,0,0,0,0,0C384.2,109.3,384.8,109.3,385.4,109.3z"/>
	<path class="st0" d="M415.2,112.6c-0.3-0.1-0.6-0.2-0.9-0.3C414.6,112.4,414.9,112.5,415.2,112.6
		C415.2,112.6,415.2,112.6,415.2,112.6z"/>
	<path class="st0" d="M461.2,179.3C461.2,179.3,461.2,179.3,461.2,179.3C461.2,179.4,461.2,179.4,461.2,179.3
		C461.2,179.3,461.2,179.3,461.2,179.3z"/>
	<path class="st0" d="M382.9,109.5C382.9,109.5,382.9,109.5,382.9,109.5c-1.2,0.1-2.4,0.3-3.5,0.4c0,0,0,0,0,0
		C380.5,109.7,381.7,109.6,382.9,109.5z"/>
	<path class="st0" d="M372.7,111.2c-0.4,0.1-0.8,0.2-1.2,0.3c0,0,0,0,0,0C371.9,111.4,372.3,111.3,372.7,111.2z"/>
	<path class="st0" d="M360.2,136.3c0,0,0,0.1,0,0.1C360.1,136.4,360.1,136.3,360.2,136.3C360.2,136.3,360.2,136.3,360.2,136.3z"/>
	<path class="st0" d="M360.4,134.6c0,0.1-0.1,0.3-0.1,0.4C360.4,134.8,360.4,134.7,360.4,134.6C360.4,134.6,360.4,134.6,360.4,134.6
		z"/>
	<path class="st0" d="M418.9,113.9c-0.9-0.3-1.8-0.7-2.7-1C417.1,113.3,418,113.6,418.9,113.9C418.9,113.9,418.9,113.9,418.9,113.9z
		"/>
	<path class="st1" d="M16.4,298.1c0,0.3,0,0.5,0,0.8c0,0.3,0,0.5,0.1,0.8c0,0.3,0.1,0.5,0.1,0.8c0,0.3,0.1,0.5,0.1,0.8
		c0,0.3,0.1,0.5,0.1,0.8c0,0.3,0.1,0.5,0.1,0.8c0,0.3,0.1,0.5,0.1,0.8c0,0.3,0.1,0.5,0.1,0.8c0.1,0.3,0.1,0.5,0.2,0.8
		c0.1,0.3,0.1,0.5,0.2,0.8c0.1,0.3,0.1,0.5,0.2,0.8c0.1,0.3,0.1,0.5,0.2,0.8c0.1,0.3,0.2,0.5,0.2,0.8c0.1,0.3,0.2,0.5,0.2,0.8
		c0.1,0.3,0.2,0.5,0.3,0.8c0.1,0.3,0.2,0.5,0.3,0.8c0.1,0.3,0.2,0.5,0.3,0.8c0.1,0.2,0.2,0.5,0.3,0.7c0.1,0.3,0.2,0.5,0.3,0.8
		c0.1,0.2,0.2,0.5,0.3,0.7c0.1,0.3,0.2,0.5,0.4,0.8c0.1,0.3,0.2,0.5,0.4,0.8c0.1,0.3,0.3,0.5,0.4,0.8c0.1,0.2,0.3,0.5,0.4,0.7
		c0.1,0.3,0.3,0.5,0.4,0.8c0.1,0.2,0.3,0.5,0.4,0.7c0.2,0.3,0.3,0.5,0.5,0.8c0.2,0.2,0.3,0.5,0.5,0.7c0.2,0.3,0.3,0.5,0.5,0.7
		c0.2,0.2,0.3,0.5,0.5,0.7c0.2,0.3,0.4,0.5,0.5,0.8c0.2,0.2,0.3,0.5,0.5,0.7c0.2,0.2,0.4,0.5,0.6,0.7c0.2,0.2,0.4,0.5,0.6,0.7
		c0.2,0.2,0.4,0.5,0.6,0.7c0.2,0.2,0.4,0.5,0.6,0.7c0.2,0.2,0.4,0.5,0.7,0.7c0.2,0.2,0.4,0.5,0.6,0.7c0.2,0.2,0.5,0.5,0.7,0.7
		c0.2,0.2,0.4,0.5,0.6,0.7c0.2,0.2,0.5,0.5,0.7,0.7c0.2,0.2,0.4,0.4,0.7,0.7c0.2,0.2,0.5,0.5,0.8,0.7c0.2,0.2,0.5,0.4,0.7,0.7
		c0.3,0.2,0.5,0.5,0.8,0.7c0.2,0.2,0.5,0.4,0.7,0.6c0.3,0.2,0.6,0.5,0.8,0.7c0.2,0.2,0.5,0.4,0.7,0.6c0.3,0.2,0.6,0.5,0.9,0.7
		c0.2,0.2,0.5,0.4,0.7,0.6c0.3,0.2,0.6,0.5,1,0.7c0.3,0.2,0.5,0.4,0.8,0.6c0.3,0.2,0.7,0.5,1,0.7c0.3,0.2,0.5,0.4,0.8,0.6
		c0.3,0.2,0.7,0.5,1,0.7c0.3,0.2,0.5,0.4,0.8,0.6c0.4,0.3,0.8,0.5,1.2,0.8c0.2,0.2,0.5,0.3,0.7,0.5c0.4,0.3,0.9,0.5,1.3,0.8
		c0.2,0.1,0.4,0.3,0.7,0.4c0.7,0.4,1.3,0.8,2,1.2c1.3,0.8,2.7,1.5,4,2.2c0.5,0.2,0.9,0.5,1.4,0.7c0.9,0.5,1.8,0.9,2.8,1.4
		c0.6,0.3,1.1,0.5,1.7,0.8c0.9,0.4,1.7,0.8,2.6,1.2c0.6,0.3,1.2,0.5,1.9,0.8c0.9,0.4,1.8,0.7,2.7,1.1c0.4,0.2,0.8,0.3,1.2,0.4
		c1.2,0.4,2.3,0.9,3.5,1.3c0.3,0.1,0.5,0.2,0.8,0.3c1.4,0.5,2.8,0.9,4.3,1.4c0.4,0.1,0.7,0.2,1.1,0.3c1,0.3,1.9,0.6,2.9,0.8
		c1.1,0.3,2.3,0.6,3.4,0.9c0.7,0.2,1.4,0.4,2.1,0.5c1.3,0.3,2.5,0.6,3.8,0.9c0.6,0.1,1.2,0.3,1.8,0.4c1.1,0.2,2.3,0.4,3.5,0.7
		c0.6,0.1,1.3,0.2,1.9,0.4c1.5,0.3,3,0.5,4.6,0.7c0.3,0,0.6,0.1,0.9,0.1c1.8,0.3,3.6,0.5,5.4,0.7c0.4,0,0.8,0.1,1.3,0.1
		c1.4,0.1,2.8,0.3,4.1,0.4c0.7,0.1,1.3,0.1,2,0.1c1.1,0.1,2.3,0.2,3.5,0.2c0.7,0,1.5,0.1,2.3,0.1c1.1,0,2.1,0.1,3.2,0.1
		c0.7,0,1.4,0,2.1,0c1.2,0,2.3,0,3.5,0c0.8,0,1.5,0,2.3,0c1.1,0,2.2,0,3.3-0.1c0.7,0,1.4-0.1,2.1-0.1c1.3-0.1,2.5-0.1,3.8-0.2
		c0.8,0,1.5-0.1,2.3-0.2c1.2-0.1,2.4-0.2,3.6-0.3c1-0.1,1.9-0.2,2.9-0.3c0.4,0,0.8-0.1,1.2-0.1c1.6-0.2,3.1-0.4,4.7-0.6
		c0.2,0,0.4-0.1,0.7-0.1c1.4-0.2,2.7-0.4,4.1-0.6c0.4-0.1,0.8-0.1,1.2-0.2c0.9-0.2,1.7-0.3,2.6-0.5c1-0.2,2-0.4,2.9-0.6
		c0.8-0.2,1.6-0.3,2.4-0.5c1-0.2,1.9-0.4,2.9-0.7c0.8-0.2,1.6-0.4,2.4-0.6c0.9-0.2,1.9-0.5,2.8-0.7c0.8-0.2,1.6-0.4,2.3-0.7
		c0.9-0.3,1.8-0.5,2.7-0.8c1-0.3,1.9-0.6,2.9-0.9c0.3-0.1,0.7-0.2,1-0.3c1.4-0.5,2.8-1,4.2-1.5c0.3-0.1,0.5-0.2,0.7-0.3
		c1.2-0.5,2.3-0.9,3.4-1.4c0.3-0.1,0.7-0.3,1-0.4c1.3-0.6,2.7-1.2,3.9-1.8c0.2-0.1,0.3-0.1,0.5-0.2c1.2-0.6,2.3-1.1,3.4-1.7
		c0.3-0.2,0.7-0.3,1-0.5c1.3-0.7,2.5-1.3,3.7-2.1c0.7-0.4,1.4-0.8,2-1.2c0.2-0.1,0.4-0.3,0.7-0.4c0.4-0.3,0.9-0.5,1.3-0.8
		c0.2-0.2,0.5-0.3,0.7-0.5c0,0,0,0,0,0c0.4-0.3,0.8-0.5,1.2-0.8c0.2-0.2,0.5-0.3,0.7-0.5c0,0,0,0,0,0c0.4-0.3,0.7-0.5,1.1-0.8
		c0.2-0.2,0.5-0.3,0.7-0.5c0,0,0,0,0,0c0.3-0.3,0.7-0.5,1-0.8c0.2-0.2,0.5-0.4,0.7-0.5c0,0,0,0,0,0c0.3-0.3,0.7-0.5,1-0.8
		c0.2-0.2,0.5-0.4,0.7-0.6c0,0,0,0,0,0c0.3-0.2,0.6-0.5,0.9-0.7c0.2-0.2,0.5-0.4,0.7-0.6c0,0,0,0,0,0c0.3-0.2,0.6-0.5,0.9-0.7
		c0.2-0.2,0.5-0.4,0.7-0.6c0,0,0,0,0,0c0.3-0.2,0.5-0.5,0.8-0.7c0.2-0.2,0.4-0.4,0.7-0.6c0.3-0.2,0.5-0.5,0.8-0.7
		c0,0,0.1-0.1,0.1-0.1c0,0,0,0,0,0c0.1-0.1,0.3-0.3,0.4-0.4c0,0,0,0,0,0c0,0,0.1-0.1,0.1-0.1c0.2-0.2,0.5-0.5,0.7-0.7
		c0.1-0.2,0.3-0.3,0.4-0.5c0,0,0,0,0,0c0.3-0.3,0.6-0.6,0.9-0.9c0.2-0.2,0.4-0.5,0.6-0.7c0.2-0.2,0.4-0.5,0.6-0.7
		c0.2-0.2,0.4-0.5,0.6-0.7c0.2-0.2,0.4-0.5,0.6-0.7c0,0,0.1-0.1,0.1-0.1c0,0,0,0,0-0.1c0.1-0.2,0.3-0.3,0.4-0.5c0,0,0,0,0,0
		c0.2-0.2,0.4-0.5,0.6-0.7c0.1-0.1,0.1-0.2,0.2-0.2c0,0,0,0,0-0.1c0.3-0.4,0.6-0.8,0.8-1.2c0.1-0.1,0.2-0.2,0.2-0.4c0,0,0,0,0-0.1
		c0.2-0.3,0.5-0.7,0.7-1c0.1-0.2,0.2-0.3,0.3-0.5c0,0,0,0,0,0c0.2-0.3,0.4-0.6,0.6-0.9c0.1-0.2,0.3-0.5,0.4-0.7c0,0,0,0,0,0
		c0.1-0.3,0.3-0.5,0.4-0.8c0.1-0.2,0.3-0.5,0.4-0.7c0,0,0,0,0,0c0.1-0.3,0.3-0.5,0.4-0.8c0.1-0.2,0.2-0.5,0.4-0.7
		c0.1-0.3,0.3-0.5,0.4-0.8c0.1-0.2,0.2-0.5,0.3-0.7c0.1-0.3,0.2-0.5,0.3-0.8c0,0,0-0.1,0-0.1c0.1-0.2,0.2-0.4,0.3-0.6
		c0.1-0.3,0.2-0.6,0.3-0.8c0.1-0.2,0.1-0.3,0.2-0.5c0-0.1,0-0.1,0.1-0.2c0.1-0.3,0.2-0.6,0.3-0.9c0.1-0.2,0.1-0.4,0.2-0.6
		c0,0,0-0.1,0-0.1c0.1-0.3,0.2-0.6,0.3-0.9c0.1-0.2,0.1-0.4,0.2-0.6c0,0,0-0.1,0-0.1c0.1-0.3,0.2-0.6,0.2-0.9c0-0.2,0.1-0.4,0.1-0.6
		c0,0,0,0,0,0c0.1-0.3,0.1-0.5,0.2-0.8c0,0,0,0,0,0c0,0,0-0.1,0-0.1c0-0.2,0.1-0.3,0.1-0.5c0,0,0-0.1,0-0.1c0,0,0,0,0,0
		c0-0.3,0.1-0.5,0.1-0.8c0,0,0,0,0,0c0,0,0-0.1,0-0.1c0.1-0.5,0.1-0.9,0.2-1.4c0,0,0-0.1,0-0.1c0,0,0-0.1,0-0.1
		c0.1-0.4,0.1-0.9,0.1-1.3c0,0,0-0.1,0-0.1c0,0,0-0.1,0-0.1c0-0.4,0.1-0.9,0.1-1.3c0,0,0-0.1,0-0.1c0,0,0-0.1,0-0.1
		c0.5-17.1-10.5-34.4-33.1-47.4c-44-25.4-115.1-25.4-158.8,0c-21.7,12.7-32.6,29.3-32.6,45.9c0,0.3,0,0.5,0,0.8
		C16.4,297.6,16.4,297.8,16.4,298.1z M80.6,283.5l14.3,8.2c-7.5,5-4.4,11.4,4.7,16.6c9.5,5.5,20.3,6.7,27,2.9
		c5.9-3.5,2.8-8.3-3.7-14.5l-6.9-6.6c-9.9-9.5-11.7-17.9-0.7-24.3c11.6-6.8,29.2-6.3,44.6,0.1l11.8-6.9l12.3,7.1l-11.6,6.8
		c12.3,9.1,12.9,19.4,1.6,26.3l-14-8.1c5.8-4.2,4-9.8-4.7-14.8c-9.1-5.2-18.7-5.9-24.5-2.6c-6.5,3.7-2.1,9.3,3,14l5.7,5.4
		c9.3,8.5,14.7,18.7,1.4,26.5c-12.2,7-29.7,6.9-47-1.1l-11.6,6.7L70,318.1l11.7-6.8C68.6,301.7,67.7,291.6,80.6,283.5z"/>
	<path class="st2" d="M240.9,298.1c0,0,0,0.1,0,0.1c0,0,0,0.1,0,0.1c0,0.4,0,0.9-0.1,1.3c0,0,0,0.1,0,0.1c0,0,0,0.1,0,0.1
		c0,0.4-0.1,0.9-0.1,1.3c0,0,0,0.1,0,0.1c0,0,0,0.1,0,0.1c-0.1,0.5-0.1,0.9-0.2,1.4c0,0,0,0.1,0,0.1c0,0,0,0,0,0
		c0,0.3-0.1,0.5-0.1,0.8c0,0,0,0,0,0c0,0,0,0.1,0,0.1c0,0.2-0.1,0.3-0.1,0.5c0,0,0,0.1,0,0.1c0,0,0,0,0,0c-0.1,0.3-0.1,0.5-0.2,0.8
		c0,0,0,0,0,0c0,0.2-0.1,0.4-0.1,0.6c-0.1,0.3-0.2,0.6-0.2,0.9c0,0,0,0.1,0,0.1c-0.1,0.2-0.1,0.4-0.2,0.6c-0.1,0.3-0.2,0.6-0.3,0.9
		c0,0,0,0.1,0,0.1c-0.1,0.2-0.1,0.4-0.2,0.6c-0.1,0.3-0.2,0.6-0.3,0.9c0,0.1,0,0.1-0.1,0.2c-0.1,0.2-0.1,0.4-0.2,0.5
		c-0.1,0.3-0.2,0.6-0.3,0.8c-0.1,0.2-0.2,0.4-0.3,0.6c0,0,0,0.1,0,0.1c-0.1,0.3-0.2,0.5-0.3,0.8c-0.1,0.2-0.2,0.5-0.3,0.7
		c-0.1,0.3-0.2,0.5-0.4,0.8c-0.1,0.2-0.2,0.5-0.4,0.7c-0.1,0.3-0.3,0.5-0.4,0.8c0,0,0,0,0,0c-0.1,0.2-0.2,0.5-0.4,0.7
		c-0.1,0.3-0.3,0.5-0.4,0.8c0,0,0,0,0,0c-0.1,0.2-0.3,0.5-0.4,0.7c-0.2,0.3-0.4,0.6-0.6,0.9c0,0,0,0,0,0c-0.1,0.2-0.2,0.3-0.3,0.5
		c-0.2,0.3-0.5,0.7-0.7,1c0,0,0,0,0,0.1c-0.1,0.1-0.2,0.2-0.2,0.4c-0.3,0.4-0.5,0.8-0.8,1.2c0,0,0,0,0,0.1c-0.1,0.1-0.1,0.2-0.2,0.2
		c-0.2,0.2-0.4,0.5-0.6,0.7c0,0,0,0,0,0c-0.1,0.2-0.3,0.3-0.4,0.5c0,0,0,0,0,0.1c0,0-0.1,0.1-0.1,0.1c-0.2,0.2-0.4,0.5-0.6,0.7
		c-0.2,0.2-0.4,0.5-0.6,0.7c-0.2,0.2-0.4,0.5-0.6,0.7c-0.2,0.2-0.4,0.5-0.6,0.7c-0.3,0.3-0.6,0.6-0.9,0.9c0,0,0,0,0,0
		c-0.1,0.2-0.3,0.3-0.4,0.5c-0.2,0.2-0.5,0.5-0.7,0.7c0,0-0.1,0.1-0.1,0.1c0,0,0,0,0,0c-0.1,0.1-0.2,0.3-0.4,0.4c0,0,0,0,0,0
		c0,0-0.1,0.1-0.1,0.1c-0.2,0.2-0.5,0.5-0.8,0.7c-0.2,0.2-0.4,0.4-0.7,0.6c-0.3,0.2-0.5,0.5-0.8,0.7c0,0,0,0,0,0
		c-0.2,0.2-0.5,0.4-0.7,0.6c-0.3,0.2-0.6,0.5-0.9,0.7c0,0,0,0,0,0c-0.2,0.2-0.5,0.4-0.7,0.6c-0.3,0.3-0.6,0.5-0.9,0.7c0,0,0,0,0,0
		c-0.2,0.2-0.5,0.4-0.7,0.6c-0.3,0.3-0.7,0.5-1,0.8c0,0,0,0,0,0c-0.2,0.2-0.5,0.4-0.7,0.5c-0.3,0.3-0.7,0.5-1,0.8c0,0,0,0,0,0
		c-0.2,0.2-0.5,0.3-0.7,0.5c-0.4,0.3-0.7,0.5-1.1,0.8c0,0,0,0,0,0c-0.2,0.2-0.5,0.3-0.7,0.5c-0.4,0.3-0.8,0.5-1.2,0.8c0,0,0,0,0,0
		c-0.2,0.2-0.5,0.3-0.7,0.5c-0.4,0.3-0.9,0.5-1.3,0.8c-0.2,0.1-0.4,0.3-0.7,0.4c-0.7,0.4-1.3,0.8-2,1.2c-1.2,0.7-2.5,1.4-3.7,2.1
		c-0.3,0.2-0.7,0.3-1,0.5c-1.1,0.6-2.3,1.2-3.4,1.7c-0.2,0.1-0.3,0.1-0.5,0.2c-1.3,0.6-2.6,1.2-3.9,1.8c-0.3,0.1-0.7,0.3-1,0.4
		c-1.1,0.5-2.3,0.9-3.4,1.4c-0.2,0.1-0.5,0.2-0.7,0.3c-1.4,0.5-2.8,1-4.2,1.5c-0.3,0.1-0.7,0.2-1,0.3c-0.9,0.3-1.9,0.6-2.9,0.9
		c-0.9,0.3-1.8,0.6-2.7,0.8c-0.8,0.2-1.5,0.5-2.3,0.7c-0.9,0.3-1.9,0.5-2.8,0.7c-0.8,0.2-1.6,0.4-2.4,0.6c-1,0.2-1.9,0.4-2.9,0.7
		c-0.8,0.2-1.6,0.4-2.4,0.5c-1,0.2-2,0.4-2.9,0.6c-0.9,0.2-1.7,0.3-2.6,0.5c-0.4,0.1-0.8,0.1-1.2,0.2c-1.3,0.2-2.7,0.4-4.1,0.6
		c-0.2,0-0.4,0.1-0.7,0.1c-1.5,0.2-3.1,0.4-4.7,0.6c-0.4,0-0.8,0.1-1.2,0.1c-1,0.1-1.9,0.2-2.9,0.3c-1.2,0.1-2.4,0.2-3.6,0.3
		c-0.8,0.1-1.5,0.1-2.3,0.2c-1.3,0.1-2.5,0.1-3.8,0.2c-0.7,0-1.4,0.1-2.1,0.1c-1.1,0-2.2,0-3.3,0.1c-0.8,0-1.5,0-2.3,0
		c-1.2,0-2.3,0-3.5,0c-0.7,0-1.4,0-2.1,0c-1.1,0-2.1-0.1-3.2-0.1c-0.8,0-1.5-0.1-2.3-0.1c-1.2-0.1-2.3-0.2-3.5-0.2
		c-0.7,0-1.3-0.1-2-0.1c-1.4-0.1-2.8-0.3-4.1-0.4c-0.4,0-0.8-0.1-1.3-0.1c-1.8-0.2-3.6-0.4-5.4-0.7c-0.3,0-0.6-0.1-0.9-0.1
		c-1.5-0.2-3-0.5-4.6-0.7c-0.6-0.1-1.3-0.2-1.9-0.4c-1.2-0.2-2.3-0.4-3.5-0.7c-0.6-0.1-1.2-0.3-1.8-0.4c-1.3-0.3-2.5-0.6-3.8-0.9
		c-0.7-0.2-1.4-0.3-2.1-0.5c-1.1-0.3-2.3-0.6-3.4-0.9c-1-0.3-1.9-0.5-2.9-0.8c-0.4-0.1-0.7-0.2-1.1-0.3c-1.4-0.4-2.9-0.9-4.3-1.4
		c-0.3-0.1-0.5-0.2-0.8-0.3c-1.2-0.4-2.3-0.8-3.5-1.3c-0.4-0.1-0.8-0.3-1.2-0.4c-0.9-0.4-1.8-0.7-2.7-1.1c-0.6-0.3-1.2-0.5-1.9-0.8
		c-0.9-0.4-1.7-0.8-2.6-1.2c-0.6-0.3-1.1-0.5-1.7-0.8c-0.9-0.4-1.9-0.9-2.8-1.4c-0.5-0.2-0.9-0.5-1.4-0.7c-1.4-0.7-2.7-1.5-4-2.2
		c-0.7-0.4-1.4-0.8-2-1.2c-0.2-0.1-0.4-0.3-0.7-0.4c-0.4-0.3-0.9-0.5-1.3-0.8c-0.2-0.2-0.5-0.3-0.7-0.5c-0.4-0.3-0.8-0.5-1.2-0.8
		c-0.3-0.2-0.5-0.4-0.8-0.6c-0.3-0.2-0.7-0.5-1-0.7c-0.3-0.2-0.5-0.4-0.8-0.6c-0.3-0.2-0.7-0.5-1-0.7c-0.3-0.2-0.5-0.4-0.8-0.6
		c-0.3-0.2-0.6-0.5-1-0.7c-0.3-0.2-0.5-0.4-0.7-0.6c-0.3-0.2-0.6-0.5-0.9-0.7c-0.3-0.2-0.5-0.4-0.7-0.6c-0.3-0.2-0.6-0.5-0.8-0.7
		c-0.2-0.2-0.5-0.4-0.7-0.6c-0.3-0.2-0.5-0.5-0.8-0.7c-0.2-0.2-0.5-0.4-0.7-0.7c-0.3-0.2-0.5-0.5-0.8-0.7c-0.2-0.2-0.4-0.4-0.7-0.7
		c-0.2-0.2-0.5-0.5-0.7-0.7c-0.2-0.2-0.4-0.4-0.6-0.7c-0.2-0.2-0.5-0.5-0.7-0.7c-0.2-0.2-0.4-0.5-0.6-0.7c-0.2-0.2-0.4-0.5-0.7-0.7
		c-0.2-0.2-0.4-0.5-0.6-0.7c-0.2-0.2-0.4-0.5-0.6-0.7c-0.2-0.2-0.4-0.5-0.6-0.7c-0.2-0.2-0.4-0.5-0.6-0.7c-0.2-0.2-0.3-0.5-0.5-0.7
		c-0.2-0.3-0.4-0.5-0.5-0.8c-0.2-0.2-0.3-0.5-0.5-0.7c-0.2-0.2-0.3-0.5-0.5-0.7c-0.2-0.2-0.3-0.5-0.5-0.7c-0.2-0.3-0.3-0.5-0.5-0.8
		c-0.1-0.2-0.3-0.5-0.4-0.7c-0.1-0.3-0.3-0.5-0.4-0.8c-0.1-0.2-0.3-0.5-0.4-0.7c-0.1-0.3-0.3-0.5-0.4-0.8c-0.1-0.3-0.2-0.5-0.4-0.8
		c-0.1-0.3-0.3-0.5-0.4-0.8c-0.1-0.2-0.2-0.5-0.3-0.7c-0.1-0.3-0.2-0.5-0.3-0.8c-0.1-0.2-0.2-0.5-0.3-0.7c-0.1-0.3-0.2-0.5-0.3-0.8
		c-0.1-0.3-0.2-0.5-0.3-0.8c-0.1-0.3-0.2-0.5-0.3-0.8c-0.1-0.3-0.2-0.5-0.2-0.8c-0.1-0.3-0.2-0.5-0.2-0.8c-0.1-0.3-0.1-0.5-0.2-0.8
		c-0.1-0.3-0.1-0.5-0.2-0.8c-0.1-0.3-0.1-0.5-0.2-0.8c-0.1-0.3-0.1-0.5-0.2-0.8c-0.1-0.3-0.1-0.5-0.1-0.8c0-0.3-0.1-0.5-0.1-0.8
		c0-0.3-0.1-0.5-0.1-0.8c0-0.3-0.1-0.5-0.1-0.8c0-0.3-0.1-0.5-0.1-0.8c0-0.3-0.1-0.5-0.1-0.8c0-0.3,0-0.5-0.1-0.8c0-0.3,0-0.5,0-0.8
		c0-0.3,0-0.5,0-0.8c0-0.3,0-0.5,0-0.8c0-0.1,0-0.1,0-0.2l0,12.2c0,16.7,11,33.5,33.1,46.3c1.3,0.8,2.7,1.5,4,2.2
		c0.5,0.2,0.9,0.5,1.4,0.7c0.9,0.5,1.8,0.9,2.8,1.4c0.6,0.3,1.1,0.5,1.7,0.8c0.9,0.4,1.7,0.8,2.6,1.2c0.6,0.3,1.2,0.5,1.9,0.8
		c0.6,0.2,1.2,0.5,1.8,0.7c0.3,0.1,0.6,0.3,0.9,0.4c0.4,0.2,0.8,0.3,1.2,0.4c1.2,0.4,2.3,0.9,3.5,1.3c0.3,0.1,0.5,0.2,0.8,0.3
		c1.4,0.5,2.8,0.9,4.3,1.4c0.4,0.1,0.7,0.2,1.1,0.3c0.6,0.2,1.2,0.4,1.8,0.5c0.3,0.1,0.7,0.2,1,0.3c1.1,0.3,2.3,0.6,3.4,0.9
		c0.7,0.2,1.4,0.4,2.1,0.5c1.3,0.3,2.5,0.6,3.8,0.9c0.5,0.1,0.9,0.2,1.4,0.3c0.1,0,0.3,0.1,0.4,0.1c1.1,0.2,2.3,0.4,3.5,0.7
		c0.6,0.1,1.3,0.2,1.9,0.4c1.5,0.3,3,0.5,4.6,0.7c0.3,0,0.5,0.1,0.8,0.1c0,0,0,0,0,0c1.8,0.3,3.6,0.5,5.4,0.7c0.4,0,0.8,0.1,1.2,0.1
		c1.4,0.1,2.8,0.3,4.2,0.4c0,0,0.1,0,0.1,0c0.6,0.1,1.2,0.1,1.8,0.1c1.2,0.1,2.3,0.2,3.5,0.2c0.7,0,1.5,0.1,2.2,0.1
		c1.1,0,2.2,0.1,3.2,0.1c0.1,0,0.2,0,0.3,0c0.6,0,1.2,0,1.8,0c1.2,0,2.3,0,3.5,0c0.8,0,1.5,0,2.3,0c1.1,0,2.2,0,3.3-0.1
		c0.2,0,0.4,0,0.6,0c0.5,0,1,0,1.5-0.1c1.3-0.1,2.5-0.1,3.8-0.2c0.8,0,1.5-0.1,2.3-0.2c1.2-0.1,2.4-0.2,3.6-0.3
		c0.4,0,0.8-0.1,1.3-0.1c0.5-0.1,1.1-0.1,1.6-0.2c0.4,0,0.8-0.1,1.2-0.1c1.6-0.2,3.1-0.4,4.7-0.6c0.2,0,0.4-0.1,0.7-0.1
		c1.4-0.2,2.7-0.4,4.1-0.6c0.4-0.1,0.8-0.1,1.2-0.2c0.3-0.1,0.6-0.1,1-0.2c0.6-0.1,1.1-0.2,1.7-0.3c1-0.2,2-0.4,2.9-0.6
		c0.8-0.2,1.6-0.3,2.4-0.5c1-0.2,1.9-0.4,2.9-0.7c0.8-0.2,1.6-0.4,2.4-0.6c0.9-0.2,1.9-0.5,2.8-0.7c0.8-0.2,1.6-0.4,2.3-0.7
		c0.9-0.3,1.8-0.5,2.7-0.8c0.4-0.1,0.8-0.3,1.2-0.4c0.6-0.2,1.1-0.3,1.7-0.5c0.3-0.1,0.7-0.2,1-0.3c1.4-0.5,2.8-1,4.2-1.5
		c0.3-0.1,0.5-0.2,0.7-0.3c1.2-0.5,2.3-0.9,3.4-1.4c0.3-0.1,0.7-0.3,1-0.4c1.3-0.6,2.7-1.2,3.9-1.8c0.2-0.1,0.3-0.1,0.5-0.2
		c1.2-0.6,2.3-1.1,3.4-1.7c0.3-0.2,0.7-0.3,1-0.5c1.3-0.7,2.5-1.3,3.7-2.1c0.5-0.3,0.9-0.5,1.4-0.8c0.1-0.1,0.2-0.1,0.3-0.2
		c0.3-0.2,0.7-0.4,1-0.6c0.3-0.2,0.6-0.4,0.9-0.6c0.3-0.2,0.7-0.4,1-0.7c0.3-0.2,0.6-0.4,0.9-0.6c0.3-0.2,0.6-0.4,1-0.7
		c0.3-0.2,0.6-0.4,0.9-0.6c0.3-0.2,0.6-0.5,0.9-0.7c0.3-0.2,0.6-0.4,0.8-0.6c0.3-0.2,0.6-0.5,0.9-0.7c0.3-0.2,0.5-0.4,0.8-0.6
		c0.3-0.2,0.6-0.5,0.9-0.7c0.3-0.2,0.5-0.4,0.8-0.6c0.3-0.2,0.6-0.5,0.9-0.7c0.2-0.2,0.5-0.4,0.7-0.6c0.3-0.2,0.6-0.5,0.8-0.8
		c0.2-0.2,0.4-0.4,0.6-0.5c0,0,0,0,0.1-0.1c0.6-0.5,1.2-1.1,1.7-1.6c0.1-0.1,0.3-0.3,0.4-0.4c0.4-0.4,0.8-0.8,1.2-1.3
		c0.2-0.2,0.3-0.3,0.5-0.5c0.4-0.5,0.9-0.9,1.3-1.4c0.1-0.1,0.2-0.2,0.3-0.3c0.5-0.6,1-1.1,1.4-1.7c0,0,0.1-0.1,0.1-0.1
		c0.1-0.1,0.2-0.3,0.3-0.4c0.3-0.3,0.5-0.7,0.7-1c0.2-0.2,0.3-0.4,0.5-0.6c0.2-0.3,0.5-0.6,0.7-1c0.1-0.2,0.3-0.4,0.4-0.6
		c0.2-0.3,0.4-0.6,0.6-1c0.1-0.2,0.3-0.4,0.4-0.6c0.2-0.4,0.4-0.7,0.6-1.1c0.1-0.1,0.2-0.3,0.3-0.4c0,0,0-0.1,0.1-0.1
		c0.2-0.3,0.3-0.6,0.5-0.9c0.1-0.2,0.2-0.4,0.3-0.6c0.2-0.3,0.3-0.7,0.5-1.1c0.1-0.2,0.2-0.3,0.2-0.5c0.2-0.5,0.5-1,0.7-1.6
		c0-0.1,0.1-0.1,0.1-0.2c0.2-0.5,0.4-0.9,0.5-1.4c0,0,0,0,0-0.1c0.1-0.2,0.1-0.4,0.2-0.6c0.1-0.3,0.2-0.6,0.3-0.9
		c0.1-0.2,0.1-0.5,0.2-0.7c0.1-0.3,0.2-0.6,0.3-0.9c0.1-0.2,0.1-0.5,0.2-0.7c0.1-0.3,0.2-0.6,0.2-0.9c0.1-0.2,0.1-0.5,0.2-0.7
		c0.1-0.3,0.1-0.6,0.2-0.8c0-0.1,0-0.1,0-0.2c0-0.2,0.1-0.4,0.1-0.5c0.1-0.3,0.1-0.6,0.2-0.9c0-0.2,0.1-0.5,0.1-0.7
		c0-0.3,0.1-0.6,0.1-0.9c0-0.2,0.1-0.5,0.1-0.7c0-0.3,0.1-0.6,0.1-0.8c0-0.2,0-0.5,0-0.7c0-0.3,0-0.6,0-0.8c0-0.2,0-0.4,0-0.6
		c0-0.2,0-0.4,0-0.6l0-12.2c0,0.3,0,0.7,0,1C240.9,298,240.9,298,240.9,298.1z"/>
	<polygon class="st3" points="277.3,186.3 277.3,192.5 282.6,189.4 	"/>
	<polygon class="st3" points="311.3,206.1 306,203 251.9,234.2 257.2,237.3 223.1,237.3 223.1,248.8 257.2,248.8 257.2,242.7 
		306,214.4 311.4,217.5 311.5,197.8 311.4,186.3 	"/>
	<polygon class="st4" points="251.9,234.2 306,203 311.3,206.1 311.4,186.3 277.3,186.3 282.6,189.4 277.3,192.5 228.5,220.6 
		223.2,217.5 223.1,237.3 257.2,237.3 	"/>
	<polygon class="st5" points="312.3,59.8 326.4,51.6 386,86 386,86 326.4,51.6 312.3,59.8 320.3,64.4 	"/>
	<path class="st5" d="M306.7,89.5c-0.1,0.1-0.1,0.2-0.2,0.3c0,0,0,0,0,0C306.5,89.7,306.6,89.6,306.7,89.5
		C306.7,89.5,306.7,89.5,306.7,89.5z"/>
	<path class="st5" d="M307.5,88.4C307.5,88.4,307.5,88.5,307.5,88.4c-0.1,0.1-0.2,0.2-0.3,0.3c0,0,0,0,0,0
		C307.3,88.6,307.4,88.5,307.5,88.4z"/>
	<path class="st5" d="M323.2,87.4C323.1,87.4,323.1,87.4,323.2,87.4C323.1,87.4,323.1,87.4,323.2,87.4
		C323.1,87.4,323.1,87.4,323.2,87.4C323.1,87.4,323.1,87.4,323.2,87.4z"/>
	<path class="st5" d="M309,87.4c1-0.6,2.1-1,3.3-1.3c0,0,0,0,0,0C311.1,86.4,309.9,86.8,309,87.4c-0.2,0.1-0.5,0.3-0.7,0.4
		c0,0,0,0,0,0C308.5,87.6,308.7,87.5,309,87.4z"/>
	<path class="st5" d="M308.2,87.9C308.1,87.9,308.1,87.9,308.2,87.9c-0.2,0.1-0.3,0.2-0.5,0.4c0,0,0,0,0,0
		C307.8,88.1,308,88,308.2,87.9z"/>
	<path class="st5" d="M306.4,90c0,0.1-0.1,0.2-0.1,0.3c0,0,0,0,0,0C306.3,90.2,306.3,90.1,306.4,90C306.4,90,306.4,90,306.4,90z"/>
	<path class="st5" d="M307,89c-0.1,0.1-0.2,0.2-0.2,0.3c0,0,0,0,0,0C306.9,89.2,306.9,89.1,307,89C307,89,307,89,307,89z"/>
	<path class="st5" d="M325.1,93.9c0.1-0.1,0.1-0.2,0.2-0.2C325.2,93.7,325.1,93.8,325.1,93.9C325.1,93.9,325.1,93.9,325.1,93.9z"/>
	<path class="st5" d="M324,94.9C324,94.9,324,94.9,324,94.9c0.1-0.1,0.3-0.2,0.4-0.3c0,0,0,0,0,0C324.3,94.7,324.1,94.8,324,94.9z"
		/>
	<path class="st5" d="M325.9,92.3C325.9,92.3,325.9,92.3,325.9,92.3c0-0.1,0.1-0.2,0.1-0.3c0,0,0,0,0,0
		C325.9,92.1,325.9,92.2,325.9,92.3z"/>
	<path class="st5" d="M326,91.7c0-0.1,0-0.2,0-0.3C326,91.6,326,91.7,326,91.7C326,91.7,326,91.7,326,91.7z"/>
	<path class="st5" d="M324.6,94.4C324.6,94.4,324.6,94.4,324.6,94.4c0.1-0.1,0.2-0.2,0.3-0.3c0,0,0,0,0,0
		C324.8,94.2,324.7,94.3,324.6,94.4z"/>
	<path class="st5" d="M325.4,93.4c0.1-0.1,0.1-0.2,0.2-0.3v0C325.5,93.2,325.5,93.3,325.4,93.4C325.4,93.4,325.4,93.4,325.4,93.4z"
		/>
	<path class="st5" d="M325.7,92.8c0-0.1,0.1-0.2,0.1-0.3v0C325.8,92.7,325.7,92.7,325.7,92.8C325.7,92.8,325.7,92.8,325.7,92.8z"/>
	<path class="st5" d="M324,88C324,88,324,88,324,88c-0.1-0.1-0.2-0.1-0.2-0.2c0,0,0,0,0,0C323.8,87.9,323.9,87.9,324,88z"/>
	<path class="st5" d="M325.4,89.5c0-0.1-0.1-0.2-0.1-0.2l0,0C325.3,89.4,325.4,89.4,325.4,89.5C325.4,89.5,325.4,89.5,325.4,89.5z"
		/>
	<path class="st5" d="M325.7,90.1C325.7,90.1,325.7,90.1,325.7,90.1c0-0.1-0.1-0.2-0.1-0.3c0,0,0,0,0,0
		C325.6,89.9,325.7,90,325.7,90.1z"/>
	<path class="st5" d="M325.9,90.6C325.9,90.6,325.9,90.6,325.9,90.6c0-0.1,0-0.2-0.1-0.3c0,0,0,0,0,0
		C325.8,90.4,325.9,90.5,325.9,90.6z"/>
	<path class="st5" d="M326,91.2c0-0.1,0-0.2,0-0.3c0,0,0,0,0,0C326,91,326,91.1,326,91.2C326,91.2,326,91.2,326,91.2z"/>
	<path class="st5" d="M324.9,88.8C324.9,88.8,324.9,88.8,324.9,88.8c0,0,0.1,0.1,0.1,0.1C324.9,88.9,324.9,88.8,324.9,88.8z"/>
	<path class="st5" d="M324.6,88.5c-0.1-0.1-0.1-0.1-0.2-0.2C324.4,88.4,324.5,88.4,324.6,88.5C324.6,88.5,324.6,88.5,324.6,88.5z"/>
	<polygon class="st5" points="226.5,102.5 462.6,238.8 462.6,238.8 226.5,102.5 	"/>
	<polygon class="st6" points="216,96.4 320.5,35.6 216,96.4 226.5,102.5 226.5,102.5 	"/>
	<polygon class="st5" points="243.6,99.7 243.6,99.7 257.6,91.5 317.2,125.9 317.2,125.9 257.6,91.5 	"/>
	<path class="st5" d="M352.9,124.2c-0.1,0.1-0.2,0.2-0.3,0.3c0,0,0,0,0,0C352.7,124.4,352.8,124.3,352.9,124.2z"/>
	<path class="st5" d="M351,126.4c-0.1,0.1-0.2,0.3-0.3,0.4c0,0,0,0,0,0C350.8,126.7,350.9,126.5,351,126.4z"/>
	<path class="st5" d="M354.1,123.1c-0.1,0.1-0.3,0.3-0.4,0.4c0,0,0,0,0,0C353.9,123.3,354,123.2,354.1,123.1z"/>
	<path class="st5" d="M358.3,119.9C358.3,119.9,358.3,119.9,358.3,119.9c-0.2,0.1-0.3,0.2-0.5,0.3c0,0,0,0,0,0
		C358.1,120.1,358.2,120,358.3,119.9z"/>
	<path class="st5" d="M350.2,127.4C350.2,127.4,350.2,127.4,350.2,127.4c-0.1,0.2-0.2,0.4-0.4,0.5c0,0,0,0,0,0
		C350,127.8,350.1,127.6,350.2,127.4z"/>
	<path class="st5" d="M349.4,128.6c-0.1,0.1-0.1,0.2-0.2,0.3C349.3,128.8,349.4,128.7,349.4,128.6
		C349.4,128.6,349.4,128.6,349.4,128.6z"/>
	<path class="st5" d="M347.2,134.7c0,0.1,0,0.3,0,0.4C347.1,134.9,347.1,134.8,347.2,134.7C347.2,134.7,347.2,134.7,347.2,134.7z"/>
	<path class="st5" d="M347,135.9c0,0.2,0,0.4,0,0.5C347,136.3,347,136.1,347,135.9C347,135.9,347,135.9,347,135.9z"/>
	<path class="st5" d="M347.4,133.4C347.4,133.4,347.4,133.4,347.4,133.4c0,0.2-0.1,0.4-0.1,0.6c0,0,0,0,0,0
		C347.3,133.8,347.4,133.6,347.4,133.4z"/>
	<path class="st5" d="M348.6,130.1c0,0.1-0.1,0.2-0.1,0.2c0,0,0,0,0,0C348.6,130.3,348.6,130.2,348.6,130.1z"/>
	<path class="st5" d="M348.2,131.1c-0.1,0.1-0.1,0.3-0.2,0.4c0,0,0,0,0,0C348.1,131.4,348.1,131.3,348.2,131.1z"/>
	<path class="st5" d="M351.8,125.4c-0.1,0.1-0.1,0.2-0.2,0.2c0,0,0,0,0,0C351.7,125.6,351.7,125.5,351.8,125.4z"/>
	<path class="st5" d="M364.1,113.9c-0.1,0-0.1,0.1-0.2,0.1C364,114,364.1,113.9,364.1,113.9C364.1,113.9,364.1,113.9,364.1,113.9z"
		/>
	<path class="st5" d="M371.5,111.5C371.5,111.5,371.5,111.5,371.5,111.5c-0.1,0-0.2,0.1-0.4,0.1c0,0,0,0,0,0
		C371.3,111.6,371.4,111.5,371.5,111.5z"/>
	<path class="st5" d="M379.4,109.9C379.4,109.9,379.4,109.9,379.4,109.9c-0.2,0-0.4,0.1-0.6,0.1c0,0,0,0,0,0
		C379,110,379.2,109.9,379.4,109.9z"/>
	<path class="st5" d="M428.2,118.7c-0.2-0.1-0.4-0.3-0.6-0.4c0,0,0,0,0,0c0.3,0.2,0.5,0.4,0.8,0.5
		C428.3,118.8,428.3,118.8,428.2,118.7z"/>
	<path class="st5" d="M391.5,109C391.5,109,391.5,109,391.5,109C391.5,109,391.5,109,391.5,109C391.5,109,391.5,109,391.5,109
		C391.5,109,391.5,109,391.5,109z"/>
	<path class="st5" d="M429.8,119.9c-0.2-0.1-0.4-0.3-0.6-0.5c0,0,0,0,0,0c0.3,0.2,0.5,0.4,0.7,0.6
		C429.9,119.9,429.9,119.9,429.8,119.9z"/>
	<path class="st5" d="M387.7,109.1c-0.2,0-0.3,0-0.5,0c0,0,0,0,0,0C387.3,109.1,387.5,109.1,387.7,109.1
		C387.7,109.1,387.7,109.1,387.7,109.1z"/>
	<path class="st5" d="M431.3,121c-0.2-0.2-0.4-0.3-0.6-0.5c0,0,0,0,0,0c0.2,0.2,0.5,0.4,0.7,0.6C431.4,121.1,431.4,121.1,431.3,121z
		"/>
	<path class="st5" d="M440.1,135.2c0-0.2,0-0.4-0.1-0.7c0,0,0,0,0,0C440,134.8,440.1,135,440.1,135.2
		C440.1,135.2,440.1,135.2,440.1,135.2z"/>
	<path class="st5" d="M383.6,109.4C383.6,109.4,383.6,109.4,383.6,109.4c-0.2,0-0.4,0-0.6,0.1c0,0,0,0,0,0
		C383.1,109.4,383.3,109.4,383.6,109.4z"/>
	<path class="st5" d="M367.8,112.6C367.8,112.6,367.8,112.6,367.8,112.6c-0.2,0.1-0.4,0.1-0.6,0.2c0,0,0,0,0,0
		C367.4,112.7,367.6,112.6,367.8,112.6z"/>
	<path class="st5" d="M425.9,117.3c0.3,0.2,0.6,0.4,0.9,0.6C426.5,117.7,426.2,117.5,425.9,117.3
		C425.9,117.3,425.9,117.3,425.9,117.3C425.9,117.3,425.9,117.3,425.9,117.3z"/>
	<path class="st5" d="M439.5,132.5c-0.1-0.2-0.1-0.4-0.2-0.6c0,0,0,0,0,0C439.4,132.1,439.5,132.3,439.5,132.5
		C439.5,132.5,439.5,132.5,439.5,132.5z"/>
	<path class="st5" d="M439.9,133.9c0-0.2-0.1-0.4-0.1-0.6c0,0,0,0,0,0C439.8,133.4,439.8,133.7,439.9,133.9
		C439.9,133.9,439.9,133.9,439.9,133.9z"/>
	<path class="st5" d="M435.1,124.7C435.1,124.7,435.1,124.7,435.1,124.7c-0.2-0.2-0.3-0.4-0.5-0.6c0,0,0,0,0,0
		C434.8,124.3,435,124.5,435.1,124.7z"/>
	<path class="st5" d="M440.2,136.6C440.2,136.6,440.2,136.6,440.2,136.6c0-0.2,0-0.4,0-0.7c0,0,0,0,0,0
		C440.2,136.1,440.2,136.4,440.2,136.6z"/>
	<path class="st5" d="M436.1,126c-0.1-0.2-0.3-0.4-0.4-0.6c0,0,0,0,0,0C435.8,125.6,436,125.8,436.1,126
		C436.1,126,436.1,126,436.1,126z"/>
	<path class="st5" d="M438.5,129.9c-0.1-0.2-0.2-0.4-0.3-0.6c0,0,0,0,0,0C438.3,129.4,438.4,129.7,438.5,129.9
		C438.5,129.9,438.5,129.9,438.5,129.9z"/>
	<path class="st5" d="M437,127.3C437,127.3,437,127.2,437,127.3c-0.2-0.2-0.3-0.4-0.4-0.6c0,0,0,0,0,0
		C436.8,126.8,436.9,127.1,437,127.3z"/>
	<path class="st5" d="M439.1,131.2C439.1,131.2,439.1,131.2,439.1,131.2c-0.1-0.2-0.2-0.4-0.2-0.6c0,0,0,0,0,0
		C438.9,130.8,439,131,439.1,131.2z"/>
	<path class="st5" d="M437.8,128.6C437.8,128.6,437.8,128.5,437.8,128.6c-0.1-0.2-0.2-0.4-0.4-0.6c0,0,0,0,0,0
		C437.6,128.1,437.7,128.3,437.8,128.6z"/>
	<path class="st5" d="M434,123.5c-0.2-0.2-0.3-0.4-0.5-0.6c0,0,0,0,0,0C433.6,123.1,433.8,123.3,434,123.5
		C434,123.5,434,123.5,434,123.5z"/>
	<path class="st5" d="M440.2,138c0-0.2,0-0.5,0-0.7c0,0,0,0,0,0C440.2,137.5,440.2,137.7,440.2,138C440.2,138,440.2,138,440.2,138z"
		/>
	<path class="st5" d="M432.8,122.3C432.8,122.3,432.7,122.3,432.8,122.3c-0.2-0.2-0.4-0.4-0.6-0.6c0,0,0,0,0,0
		C432.4,121.9,432.6,122.1,432.8,122.3z"/>
	<path class="st5" d="M440.1,139.3C440.1,139.3,440.1,139.3,440.1,139.3c0-0.2,0.1-0.5,0.1-0.7c0,0,0,0,0,0
		C440.2,138.9,440.1,139.1,440.1,139.3z"/>
	<path class="st5" d="M439.1,143.3c0.1-0.2,0.2-0.5,0.3-0.7c0,0,0,0,0,0C439.3,142.9,439.2,143.1,439.1,143.3
		C439.1,143.3,439.1,143.3,439.1,143.3z"/>
	<path class="st5" d="M439.5,142c0.1-0.2,0.1-0.5,0.2-0.7c0,0,0,0,0,0C439.7,141.5,439.6,141.8,439.5,142
		C439.5,142,439.5,142,439.5,142z"/>
	<path class="st5" d="M439.9,140.7c0-0.2,0.1-0.5,0.1-0.7c0,0,0,0,0,0C440,140.2,439.9,140.4,439.9,140.7
		C439.9,140.7,439.9,140.7,439.9,140.7z"/>
	<path class="st5" d="M404.1,110c-0.2,0-0.4-0.1-0.6-0.1c0,0,0,0,0,0C403.7,109.9,404,110,404.1,110C404.2,110,404.1,110,404.1,110z
		"/>
	<path class="st5" d="M433.7,128.6c-0.1-0.2-0.3-0.4-0.4-0.6c0,0,0,0,0,0C433.4,128.3,433.5,128.4,433.7,128.6z"/>
	<path class="st5" d="M422.9,115.7C422.9,115.7,422.9,115.7,422.9,115.7c-0.1-0.1-0.3-0.1-0.4-0.2c0,0,0,0,0,0
		C422.6,115.6,422.7,115.6,422.9,115.7z"/>
	<path class="st5" d="M432.9,127.5C432.9,127.5,432.9,127.5,432.9,127.5c-0.1-0.2-0.3-0.4-0.5-0.6c0,0,0,0,0,0
		C432.6,127.1,432.8,127.3,432.9,127.5z"/>
	<path class="st5" d="M432,126.3c-0.1-0.1-0.2-0.2-0.2-0.3C431.9,126.1,432,126.2,432,126.3C432,126.3,432,126.3,432,126.3z"/>
	<path class="st5" d="M431,125.2c-0.2-0.2-0.4-0.4-0.6-0.6c0,0,0,0,0,0C430.7,124.8,430.9,125,431,125.2z"/>
	<path class="st5" d="M408,110.7C408,110.7,408,110.7,408,110.7c-0.1,0-0.2-0.1-0.3-0.1c0,0,0,0,0,0
		C407.8,110.7,407.9,110.7,408,110.7z"/>
	<path class="st5" d="M415.7,112.8C415.7,112.8,415.7,112.8,415.7,112.8c-0.2-0.1-0.4-0.1-0.5-0.2c0,0,0,0,0,0
		C415.3,112.7,415.5,112.7,415.7,112.8z"/>
	<path class="st5" d="M411.8,111.6C411.8,111.6,411.8,111.6,411.8,111.6c-0.1,0-0.2,0-0.3-0.1c0,0,0,0,0,0
		C411.6,111.6,411.7,111.6,411.8,111.6z"/>
	<path class="st5" d="M400,109.5c-0.2,0-0.4,0-0.6-0.1c0,0,0,0,0,0C399.6,109.4,399.8,109.5,400,109.5
		C400,109.5,400,109.5,400,109.5z"/>
	<path class="st5" d="M419.4,114.2C419.4,114.2,419.4,114.2,419.4,114.2c-0.2-0.1-0.4-0.2-0.6-0.2c0,0,0,0,0,0
		C419,114,419.2,114.1,419.4,114.2z"/>
	<path class="st5" d="M395.8,109.1C395.8,109.1,395.8,109.1,395.8,109.1c-0.2,0-0.3,0-0.5,0c0,0,0,0,0,0
		C395.4,109.1,395.6,109.1,395.8,109.1z"/>
	<path class="st5" d="M427.1,121.6c-0.1-0.1-0.3-0.2-0.4-0.3c0,0,0,0,0,0C426.8,121.4,426.9,121.5,427.1,121.6z"/>
	<path class="st5" d="M428.8,123c-0.2-0.2-0.5-0.4-0.7-0.6c0,0,0,0,0,0C428.3,122.6,428.6,122.8,428.8,123z"/>
	<path class="st5" d="M430,124.1C430,124.1,430,124.1,430,124.1C430,124.1,430,124.1,430,124.1L430,124.1z"/>
	<path class="st6" d="M347.1,139c0,0.2,0,0.4,0.1,0.6c0,0,0,0,0,0C347.1,139.4,347.1,139.2,347.1,139C347.1,139,347.1,139,347.1,139
		z"/>
	<path class="st6" d="M348.1,143c0,0.1,0.1,0.1,0.1,0.2v0C348.2,143.1,348.2,143,348.1,143z"/>
	<path class="st6" d="M347.3,140.3c0,0.2,0.1,0.3,0.1,0.5C347.4,140.6,347.3,140.4,347.3,140.3C347.3,140.3,347.3,140.3,347.3,140.3
		z"/>
	<path class="st6" d="M365,127.4c0,0-0.1,0.1-0.1,0.1C364.9,127.5,364.9,127.5,365,127.4C365,127.4,365,127.4,365,127.4z"/>
	<path class="st6" d="M347.6,141.5c0,0.1,0.1,0.2,0.1,0.3C347.7,141.7,347.7,141.6,347.6,141.5C347.6,141.5,347.6,141.5,347.6,141.5
		z"/>
	<path class="st6" d="M367,125.8c-0.1,0.1-0.2,0.1-0.3,0.2c0,0,0.1-0.1,0.1-0.1C366.9,125.8,367,125.8,367,125.8z"/>
	<path class="st6" d="M419.9,129.3c-0.1-0.1-0.1-0.1-0.2-0.2c0,0,0,0,0,0C419.8,129.2,419.9,129.3,419.9,129.3z"/>
	<path class="st6" d="M366.2,126.4c-0.1,0.1-0.2,0.1-0.3,0.2C366,126.6,366.1,126.5,366.2,126.4
		C366.2,126.4,366.2,126.4,366.2,126.4z"/>
	<path class="st6" d="M435,143.2c0.1-0.2,0.1-0.4,0.2-0.6C435.2,142.8,435.1,143,435,143.2C435,143.2,435,143.2,435,143.2z"/>
	<path class="st6" d="M363.6,128.8c-0.1,0.1-0.2,0.2-0.3,0.3c0,0,0,0,0,0C363.5,129,363.6,128.9,363.6,128.8z"/>
	<path class="st6" d="M364.4,127.9c-0.1,0.1-0.2,0.2-0.3,0.3C364.3,128.1,364.3,128,364.4,127.9
		C364.4,127.9,364.4,127.9,364.4,127.9z"/>
	<path class="st6" d="M417.8,127.2C417.8,127.2,417.8,127.2,417.8,127.2c-0.2-0.1-0.3-0.3-0.5-0.4c0,0,0.1,0.1,0.1,0.1
		C417.6,127,417.7,127.1,417.8,127.2z"/>
	<path class="st6" d="M419.4,128.7C419.4,128.7,419.4,128.7,419.4,128.7C419.4,128.7,419.4,128.7,419.4,128.7
		C419.4,128.7,419.4,128.7,419.4,128.7z"/>
	<path class="st6" d="M347,137.8c0,0.2,0,0.3,0,0.5C347,138.1,347,138,347,137.8C347,137.8,347,137.8,347,137.8z"/>
	<path class="st6" d="M416.9,126.4c0,0-0.1-0.1-0.2-0.1C416.8,126.4,416.9,126.4,416.9,126.4C416.9,126.4,416.9,126.4,416.9,126.4z"
		/>
	<path class="st6" d="M353.7,123.4c-0.2,0.2-0.4,0.4-0.7,0.6c0,0,0,0,0,0C353.3,123.8,353.5,123.6,353.7,123.4
		C353.7,123.4,353.7,123.4,353.7,123.4z"/>
	<path class="st6" d="M352.6,124.5c-0.2,0.2-0.4,0.4-0.6,0.6c0,0,0,0,0,0C352.2,124.9,352.4,124.7,352.6,124.5
		C352.6,124.5,352.6,124.5,352.6,124.5z"/>
	<path class="st6" d="M357.9,120.2c-0.2,0.1-0.4,0.2-0.5,0.4C357.5,120.4,357.7,120.3,357.9,120.2
		C357.9,120.2,357.9,120.2,357.9,120.2z"/>
	<path class="st6" d="M351.6,125.7c-0.2,0.2-0.4,0.4-0.5,0.6c0,0,0,0,0,0C351.2,126.1,351.4,125.9,351.6,125.7
		C351.6,125.7,351.6,125.7,351.6,125.7z"/>
	<path class="st6" d="M359.9,118.9c0.9-0.5,1.8-1,2.7-1.4C361.7,117.9,360.8,118.4,359.9,118.9c-0.5,0.3-1.1,0.6-1.6,1c0,0,0,0,0,0
		C358.9,119.6,359.4,119.2,359.9,118.9z"/>
	<path class="st6" d="M355.5,121.9C355.5,121.9,355.5,121.9,355.5,121.9c0.2-0.1,0.4-0.3,0.6-0.4
		C355.9,121.6,355.7,121.8,355.5,121.9z"/>
	<path class="st6" d="M355,122.3c-0.2,0.1-0.3,0.3-0.5,0.4C354.6,122.6,354.8,122.5,355,122.3C355,122.3,355,122.3,355,122.3z"/>
	<path class="st6" d="M347.1,135.3C347.1,135.3,347.1,135.3,347.1,135.3c0,0.2-0.1,0.4-0.1,0.6c0,0,0,0,0,0
		C347,135.7,347.1,135.5,347.1,135.3z"/>
	<path class="st6" d="M347.6,132.8C347.6,132.8,347.6,132.8,347.6,132.8c-0.1,0.2-0.1,0.4-0.2,0.6c0,0,0,0,0,0
		C347.5,133.2,347.5,133,347.6,132.8z"/>
	<path class="st6" d="M347.3,134C347.3,134,347.3,134,347.3,134c0,0.2-0.1,0.4-0.1,0.6c0,0,0,0,0,0
		C347.2,134.5,347.3,134.2,347.3,134z"/>
	<path class="st6" d="M348,131.6c-0.1,0.2-0.2,0.4-0.2,0.6c0,0,0,0,0,0C347.8,132,347.9,131.8,348,131.6
		C348,131.6,348,131.6,348,131.6z"/>
	<path class="st6" d="M350.7,126.8C350.7,126.8,350.7,126.8,350.7,126.8c-0.2,0.2-0.3,0.4-0.5,0.6c0,0,0,0,0,0
		C350.3,127.2,350.5,127,350.7,126.8z"/>
	<path class="st6" d="M347,136.5c0,0.2,0,0.4,0,0.6c0,0,0,0,0,0C347,136.9,347,136.7,347,136.5C347,136.5,347,136.5,347,136.5z"/>
	<path class="st6" d="M349.8,128C349.8,128,349.8,128,349.8,128c-0.1,0.2-0.3,0.4-0.4,0.6c0,0,0,0,0,0
		C349.6,128.4,349.7,128.2,349.8,128z"/>
	<path class="st6" d="M348.5,130.4c-0.1,0.2-0.2,0.4-0.3,0.6c0,0,0,0,0,0C348.3,130.8,348.4,130.6,348.5,130.4
		C348.5,130.4,348.5,130.4,348.5,130.4z"/>
	<path class="st6" d="M349.1,129.2c-0.1,0.1-0.1,0.2-0.2,0.3C349,129.4,349.1,129.3,349.1,129.2
		C349.1,129.2,349.1,129.2,349.1,129.2z"/>
	<path class="st6" d="M432.5,126.9C432.5,126.9,432.5,126.9,432.5,126.9c-0.1-0.2-0.3-0.4-0.4-0.5c0,0,0,0,0,0
		C432.2,126.5,432.3,126.7,432.5,126.9z"/>
	<path class="st6" d="M430.5,124.6C430.5,124.6,430.5,124.6,430.5,124.6c-0.2-0.2-0.3-0.3-0.5-0.5h0
		C430.2,124.2,430.3,124.4,430.5,124.6z"/>
	<path class="st6" d="M428.1,122.4c-0.1-0.1-0.2-0.2-0.4-0.3C427.8,122.2,428,122.3,428.1,122.4
		C428.1,122.4,428.1,122.4,428.1,122.4z"/>
	<path class="st6" d="M433.3,128.1C433.3,128.1,433.3,128.1,433.3,128.1c-0.1-0.2-0.2-0.4-0.4-0.6c0,0,0,0,0,0
		C433,127.7,433.2,127.9,433.3,128.1z"/>
	<path class="st6" d="M426.7,121.3c-0.1-0.1-0.1-0.1-0.2-0.2C426.6,121.2,426.6,121.3,426.7,121.3
		C426.7,121.3,426.7,121.3,426.7,121.3z"/>
	<path class="st5" d="M421,130.8C421,130.8,421,130.8,421,130.8c-0.1-0.2-0.2-0.3-0.3-0.4c0,0,0,0,0,0
		C420.8,130.5,420.9,130.7,421,130.8z"/>
	<path class="st5" d="M422.8,139.4C422.8,139.4,422.8,139.4,422.8,139.4c0-0.2,0.1-0.3,0.1-0.5c0,0,0,0,0,0
		C422.9,139.1,422.9,139.3,422.8,139.4z"/>
	<path class="st5" d="M422.8,135c0-0.1-0.1-0.3-0.1-0.4c0,0,0,0,0,0C422.8,134.8,422.8,134.9,422.8,135
		C422.8,135.1,422.8,135,422.8,135z"/>
	<path class="st5" d="M422.6,140.2c0-0.1,0.1-0.2,0.1-0.3c0,0,0,0,0,0C422.7,140,422.7,140.1,422.6,140.2z"/>
	<path class="st5" d="M423,136.8C423,136.8,423,136.8,423,136.8c0-0.1,0-0.3,0-0.4c0,0,0,0,0,0C423,136.5,423,136.7,423,136.8z"/>
	<path class="st5" d="M423,135.9C423,135.9,423,135.9,423,135.9c0-0.2,0-0.3-0.1-0.4c0,0,0,0,0,0C422.9,135.6,423,135.8,423,135.9z"
		/>
	<path class="st5" d="M423,137.7c0-0.1,0-0.3,0-0.4C423.1,137.4,423,137.5,423,137.7C423,137.7,423,137.7,423,137.7z"/>
	<path class="st5" d="M423,138.6c0-0.1,0-0.3,0.1-0.4c0,0,0,0,0,0C423,138.3,423,138.4,423,138.6z"/>
	<path class="st5" d="M360.2,135.8C360.2,135.8,360.2,135.8,360.2,135.8c0,0.2,0,0.3-0.1,0.5c0,0,0,0,0,0
		C360.2,136.1,360.2,136,360.2,135.8z"/>
	<path class="st5" d="M361.7,131.5C361.7,131.5,361.6,131.5,361.7,131.5c-0.1,0.2-0.2,0.3-0.3,0.5c0,0,0,0,0,0
		C361.5,131.8,361.6,131.7,361.7,131.5z"/>
	<path class="st5" d="M361.2,132.4C361.2,132.4,361.2,132.4,361.2,132.4c-0.1,0.2-0.1,0.3-0.2,0.5c0,0,0,0,0,0
		C361.1,132.7,361.1,132.5,361.2,132.4z"/>
	<path class="st5" d="M363.4,129.1c-0.1,0.1-0.3,0.3-0.4,0.4c0,0,0,0,0,0C363.1,129.4,363.3,129.2,363.4,129.1
		C363.4,129.1,363.4,129.1,363.4,129.1z"/>
	<path class="st5" d="M362.2,130.7C362.2,130.7,362.2,130.7,362.2,130.7c-0.1,0.2-0.2,0.3-0.3,0.5c0,0,0,0,0,0
		C362,131,362.1,130.8,362.2,130.7z"/>
	<path class="st5" d="M360.3,135c0,0.1-0.1,0.3-0.1,0.4c0,0,0,0,0,0C360.3,135.3,360.3,135.1,360.3,135
		C360.4,135,360.4,135,360.3,135z"/>
	<path class="st5" d="M360.6,134.1C360.6,134.1,360.6,134.1,360.6,134.1c0,0.2-0.1,0.3-0.1,0.5c0,0,0,0,0,0
		C360.5,134.4,360.5,134.2,360.6,134.1z"/>
	<path class="st5" d="M360.9,133.2c-0.1,0.1-0.1,0.3-0.2,0.4c0,0,0,0,0,0C360.7,133.5,360.8,133.4,360.9,133.2
		C360.9,133.2,360.9,133.2,360.9,133.2z"/>
	<path class="st5" d="M362.7,129.9C362.7,129.9,362.7,129.9,362.7,129.9c-0.1,0.2-0.2,0.3-0.3,0.5c0,0,0,0,0,0
		C362.5,130.2,362.6,130,362.7,129.9z"/>
	<path class="st5" d="M422.6,134.2c0-0.1-0.1-0.3-0.1-0.4c0,0,0,0,0,0C422.5,133.9,422.6,134,422.6,134.2
		C422.6,134.2,422.6,134.2,422.6,134.2z"/>
	<path class="st5" d="M421.5,131.6c-0.1-0.1-0.1-0.3-0.2-0.4c0,0,0,0,0,0C421.4,131.3,421.4,131.5,421.5,131.6
		C421.5,131.6,421.5,131.6,421.5,131.6z"/>
	<path class="st5" d="M422,132.5C421.9,132.5,421.9,132.5,422,132.5c-0.1-0.2-0.1-0.3-0.2-0.4c0,0,0,0,0,0
		C421.8,132.2,421.9,132.3,422,132.5z"/>
	<path class="st5" d="M422.3,133.3c-0.1-0.1-0.1-0.3-0.2-0.4c0,0,0,0,0,0C422.2,133,422.3,133.2,422.3,133.3
		C422.3,133.3,422.3,133.3,422.3,133.3z"/>
	<path class="st5" d="M364.1,128.3c-0.1,0.1-0.3,0.3-0.4,0.4c0,0,0,0,0,0C363.8,128.6,364,128.4,364.1,128.3
		C364.1,128.3,364.1,128.3,364.1,128.3z"/>
	<path class="st5" d="M416.4,126c-0.1-0.1-0.3-0.2-0.4-0.3c0,0,0,0,0,0c0.2,0.1,0.4,0.3,0.6,0.4C416.5,126.1,416.4,126.1,416.4,126z
		"/>
	<path class="st5" d="M417.5,126.9c0,0-0.1-0.1-0.1-0.1c-0.1-0.1-0.3-0.2-0.4-0.3c0,0,0,0,0,0C417.1,126.6,417.3,126.7,417.5,126.9z
		"/>
	<path class="st5" d="M365,127.5C364.9,127.5,364.9,127.5,365,127.5c-0.2,0.2-0.4,0.3-0.5,0.5c0,0,0,0,0,0
		C364.6,127.8,364.8,127.6,365,127.5z"/>
	<path class="st5" d="M367.8,125.2c-0.2,0.2-0.5,0.3-0.7,0.5c0,0,0,0,0,0c0.3-0.2,0.6-0.4,0.9-0.6
		C367.9,125.1,367.9,125.2,367.8,125.2z"/>
	<path class="st5" d="M418.3,127.6C418.3,127.6,418.2,127.6,418.3,127.6c-0.2-0.2-0.3-0.3-0.5-0.4c0,0,0,0,0,0
		C418,127.3,418.1,127.5,418.3,127.6z"/>
	<path class="st5" d="M366.9,125.9c0,0-0.1,0.1-0.1,0.1c-0.2,0.1-0.4,0.3-0.6,0.4c0,0,0,0,0,0C366.4,126.2,366.6,126.1,366.9,125.9z
		"/>
	<path class="st5" d="M365.8,126.7c-0.2,0.1-0.3,0.3-0.5,0.4c0,0,0,0,0,0C365.4,127,365.6,126.9,365.8,126.7
		C365.8,126.7,365.8,126.7,365.8,126.7z"/>
	<path class="st5" d="M420.4,129.9c-0.1-0.1-0.2-0.3-0.3-0.4c0,0,0,0,0,0C420.2,129.7,420.3,129.8,420.4,129.9
		C420.4,130,420.4,129.9,420.4,129.9z"/>
	<path class="st5" d="M419,128.3c-0.1-0.1-0.2-0.2-0.4-0.4c0,0,0,0,0,0C418.8,128.1,418.9,128.2,419,128.3
		C419,128.3,419,128.3,419,128.3z"/>
	<path class="st5" d="M419.8,129.2C419.8,129.1,419.8,129.1,419.8,129.2c-0.1-0.2-0.3-0.3-0.4-0.4c0,0,0,0,0,0
		C419.6,128.9,419.7,129,419.8,129.2z"/>
	<path class="st5" d="M413.8,124.3c0.1,0,0.1,0.1,0.2,0.1C413.9,124.4,413.8,124.4,413.8,124.3c-12.3-7.1-32.3-7.1-44.5,0
		c-0.4,0.2-0.8,0.4-1.1,0.7c0,0,0,0,0,0c0.4-0.2,0.7-0.5,1.1-0.7C381.5,117.2,401.4,117.2,413.8,124.3z"/>
	<path class="st5" d="M415.3,125.3c-0.1-0.1-0.3-0.2-0.4-0.3c0,0-0.1-0.1-0.1-0.1c0.3,0.2,0.6,0.4,0.9,0.6
		C415.5,125.4,415.4,125.3,415.3,125.3z"/>
	<polygon class="st5" points="539.6,174.7 539.6,174.7 480.1,140.3 466,148.5 466,148.5 480.1,140.3 	"/>
	<path class="st6" d="M422.7,139.9c0-0.1,0-0.2,0-0.2C422.8,139.7,422.8,139.8,422.7,139.9C422.7,139.9,422.7,139.9,422.7,139.9z"/>
	<path class="st6" d="M422.9,139c0-0.1,0-0.1,0-0.2C422.9,138.9,422.9,138.9,422.9,139C422.9,139,422.9,139,422.9,139z"/>
	<path class="st6" d="M423,138.1C423,138.1,423,138.1,423,138.1c0-0.1,0-0.3,0-0.4c0,0,0,0,0,0C423,137.8,423,138,423,138.1z"/>
	<path class="st5" d="M429.9,150.5c0.1-0.1,0.1-0.1,0.2-0.2C430.1,150.4,430,150.5,429.9,150.5C429.9,150.5,429.9,150.5,429.9,150.5
		z"/>
	<path class="st5" d="M430.2,150.3C430.2,150.3,430.2,150.3,430.2,150.3C430.2,150.2,430.2,150.2,430.2,150.3
		C430.2,150.3,430.2,150.3,430.2,150.3z"/>
	<path class="st5" d="M428.8,151.5C428.8,151.5,428.8,151.5,428.8,151.5c0.1-0.1,0.2-0.2,0.3-0.3c0,0,0,0,0,0
		C429,151.4,428.9,151.4,428.8,151.5z"/>
	<path class="st5" d="M426.4,153.4c-0.1,0.1-0.3,0.2-0.4,0.3c0,0,0,0,0,0C426.2,153.6,426.3,153.5,426.4,153.4
		C426.4,153.4,426.4,153.4,426.4,153.4z"/>
	<path class="st5" d="M432,148.2c0-0.1,0.1-0.1,0.1-0.2C432.1,148.1,432.1,148.2,432,148.2C432,148.2,432,148.2,432,148.2z"/>
	<path class="st5" d="M434.1,151C434.1,151,434.1,151,434.1,151c0.2-0.2,0.4-0.4,0.6-0.6c0,0,0,0,0,0
		C434.5,150.5,434.3,150.8,434.1,151z"/>
	<path class="st5" d="M435.2,149.8c0.1-0.1,0.1-0.2,0.2-0.2C435.3,149.6,435.3,149.7,435.2,149.8
		C435.2,149.8,435.2,149.8,435.2,149.8z"/>
	<path class="st5" d="M353.2,150.3c0.2,0.2,0.4,0.4,0.6,0.6c0,0,0,0,0,0C353.6,150.7,353.4,150.5,353.2,150.3z"/>
	<path class="st5" d="M349.5,145.7C349.5,145.7,349.5,145.7,349.5,145.7c0.1,0.2,0.3,0.4,0.4,0.6c0,0,0,0,0,0
		C349.8,146.1,349.6,145.9,349.5,145.7z"/>
	<path class="st5" d="M417.5,158.3c2-0.8,4-1.8,5.8-2.8c0,0,0,0,0,0c0,0,0,0,0,0C421.4,156.5,419.5,157.5,417.5,158.3z"/>
	<path class="st5" d="M348.3,143.3C348.3,143.3,348.3,143.3,348.3,143.3c0.1,0.2,0.2,0.4,0.3,0.6c0,0,0,0,0,0
		C348.5,143.7,348.3,143.5,348.3,143.3z"/>
	<path class="st5" d="M348.8,144.5C348.8,144.5,348.8,144.5,348.8,144.5c0.1,0.2,0.2,0.4,0.4,0.6c0,0,0,0,0,0
		C349.1,144.9,348.9,144.7,348.8,144.5z"/>
	<path class="st5" d="M354.4,151.4c0.1,0.1,0.2,0.2,0.3,0.2C354.6,151.6,354.5,151.5,354.4,151.4
		C354.4,151.4,354.4,151.4,354.4,151.4z"/>
	<path class="st5" d="M357,153.5c0.2,0.2,0.5,0.3,0.7,0.5C357.5,153.9,357.3,153.7,357,153.5C357,153.5,357,153.5,357,153.5z"/>
	<path class="st5" d="M347.3,140c0,0.1,0,0.2,0.1,0.3c0,0,0,0,0,0C347.3,140.2,347.3,140.1,347.3,140z"/>
	<path class="st5" d="M347.4,140.9c0.1,0.2,0.1,0.4,0.2,0.6c0,0,0,0,0,0C347.6,141.3,347.5,141.1,347.4,140.9z"/>
	<path class="st5" d="M347.1,138.7c0,0.1,0,0.2,0,0.3c0,0,0,0,0,0C347.1,138.9,347.1,138.8,347.1,138.7z"/>
	<path class="st5" d="M434.9,143.5c0-0.1,0.1-0.2,0.1-0.2c0,0,0,0,0,0C435,143.3,435,143.4,434.9,143.5z"/>
	<path class="st5" d="M376.5,161.5c-2.4-0.5-4.7-1.1-6.9-1.8C371.9,160.4,374.2,161,376.5,161.5z"/>
	<path class="st6" d="M439.1,143.4C439.1,143.4,439.1,143.3,439.1,143.4C439.1,143.3,439.1,143.3,439.1,143.4
		C439.1,143.4,439.1,143.4,439.1,143.4z"/>
	<path class="st6" d="M440,139.7c0-0.1,0-0.3,0.1-0.4c0,0,0,0,0,0C440.1,139.4,440.1,139.6,440,139.7z"/>
	<path class="st6" d="M440.2,138.6C440.2,138.6,440.2,138.6,440.2,138.6C440.2,138.6,440.2,138.6,440.2,138.6
		C440.2,138.6,440.2,138.6,440.2,138.6z"/>
	<path class="st6" d="M434.7,150.3C434.7,150.3,434.7,150.3,434.7,150.3c0.2-0.2,0.3-0.4,0.5-0.6c0,0,0,0,0,0
		C435,150,434.9,150.1,434.7,150.3z"/>
	<path class="st6" d="M433.6,151.5c0.2-0.2,0.3-0.4,0.5-0.5c0,0,0,0,0,0C433.9,151.2,433.8,151.3,433.6,151.5z"/>
	<path class="st5" d="M478.6,177.2C478.6,177.2,478.6,177.2,478.6,177.2c0.1,0.1,0.2,0.1,0.3,0.2
		C478.8,177.4,478.7,177.3,478.6,177.2z"/>
	<path class="st5" d="M477.9,176.7C477.9,176.7,477.9,176.7,477.9,176.7c-0.2-0.1-0.5-0.3-0.8-0.4
		C477.4,176.5,477.6,176.6,477.9,176.7C477.9,176.7,477.9,176.7,477.9,176.7z"/>
	<path class="st5" d="M479.5,178c-0.1-0.1-0.1-0.1-0.2-0.2C479.4,177.9,479.4,177.9,479.5,178C479.5,178,479.5,178,479.5,178z"/>
	<path class="st7" d="M199.6,96.4c0,0.1,0,0.1,0.1,0.2c0,0.1,0,0.1,0,0.2c0,0.1,0.1,0.1,0.1,0.2c0,0.1,0,0.1,0.1,0.2
		c0,0.1,0.1,0.1,0.1,0.2c0,0.1,0.1,0.1,0.1,0.2c0,0.1,0.1,0.1,0.2,0.2c0,0.1,0.1,0.1,0.1,0.2c0.1,0.1,0.2,0.1,0.2,0.2
		c0.1,0,0.1,0.1,0.2,0.1c0.1,0.1,0.2,0.2,0.3,0.2c0,0,0.1,0.1,0.1,0.1c0.2,0.1,0.3,0.2,0.5,0.3l128.2,74l128.2,74
		c0.7,0.4,1.6,0.7,2.5,1s1.9,0.3,2.8,0.3c1.9,0,3.8-0.4,5.3-1.3l109.9-63.9l1-0.6l1.8-1.1c0,0,0.1,0,0.1-0.1
		c0.1-0.1,0.3-0.2,0.4-0.3c0.1,0,0.1-0.1,0.2-0.2c0.1-0.1,0.2-0.1,0.2-0.2c0.1-0.1,0.1-0.1,0.2-0.2c0.1-0.1,0.1-0.1,0.2-0.2
		c0.1-0.1,0.1-0.1,0.1-0.2c0.1-0.1,0.1-0.1,0.2-0.2c0-0.1,0.1-0.1,0.1-0.2c0-0.1,0.1-0.2,0.1-0.2c0-0.1,0.1-0.1,0.1-0.2
		c0-0.1,0.1-0.2,0.1-0.2c0-0.1,0-0.1,0-0.2c0-0.1,0-0.1,0.1-0.2c0-0.1,0-0.1,0-0.2c0.1-1.2-0.6-2.4-2.2-3.3l-256.4-148
		c-2.9-1.7-7.7-1.7-10.6,0L201.7,92.9c-1.5,0.8-2.2,2-2.2,3.1c0,0.1,0,0.2,0,0.2C199.5,96.2,199.5,96.3,199.6,96.4z"/>
	<polygon class="st5" points="462.6,177.5 462.6,177.5 462.6,177.5 	"/>
	<path class="st5" d="M463.8,176.7c-0.2,0.1-0.4,0.3-0.6,0.4C463.3,177,463.6,176.9,463.8,176.7L463.8,176.7z"/>
	<path class="st5" d="M461.6,178.7C461.6,178.7,461.6,178.7,461.6,178.7c-0.1,0.2-0.2,0.3-0.3,0.5v0
		C461.4,179,461.5,178.8,461.6,178.7z"/>
	<path class="st5" d="M460.9,180.5C460.9,180.5,460.9,180.5,460.9,180.5c0,0.1,0,0.2,0,0.3c0,0,0,0,0,0
		C460.9,180.7,460.9,180.6,460.9,180.5z"/>
	<path class="st5" d="M461,179.9C461,179.9,461,179.9,461,179.9c0,0.1-0.1,0.2-0.1,0.3c0,0,0,0,0,0C460.9,180.1,461,180,461,179.9z"
		/>
	<path class="st5" d="M461.2,179.4c0,0.1-0.1,0.1-0.1,0.2C461.1,179.5,461.2,179.4,461.2,179.4C461.2,179.4,461.2,179.4,461.2,179.4
		z"/>
	<path class="st5" d="M480.4,179.2C480.4,179.2,480.4,179.2,480.4,179.2c0,0,0,0.1,0.1,0.1C480.4,179.3,480.4,179.2,480.4,179.2z"/>
	<polygon class="st5" points="470.9,214.6 470.9,214.6 411.3,180.3 397.2,188.5 397.2,188.5 411.3,180.3 	"/>
	<path class="st6" d="M329.9,173l128.2,74c0.7,0.4,1.6,0.7,2.5,1c-0.9-0.2-1.8-0.5-2.5-1L329.9,173z"/>
	<polygon class="st7" points="243.6,99.7 303.1,134.1 317.2,125.9 257.6,91.5 	"/>
	<polygon class="st7" points="312.3,59.8 320.3,64.4 371.8,94.1 386,86 326.4,51.6 	"/>
	<path class="st1" d="M320.5,35.6L320.5,35.6L216,96.4l10.5,6.1l236.1,136.3h0L567.2,178L320.5,35.6z M326.4,51.6L386,86l0,0
		l-14.1,8.2l-51.6-29.8l-8-4.6L326.4,51.6z M317.2,125.9l-14.1,8.2l-59.5-34.4l0,0l14.1-8.2L317.2,125.9L317.2,125.9z M326,91.5
		c0,0.1,0,0.2,0,0.3c0,0.1,0,0.2,0,0.3c0,0.1,0,0.2-0.1,0.3c0,0.1,0,0.2-0.1,0.3c0,0,0,0,0,0c0,0,0,0,0,0c0,0.1-0.1,0.2-0.1,0.3
		c0,0.1-0.1,0.2-0.1,0.3l0,0c0,0,0,0,0,0c0,0.1-0.1,0.2-0.2,0.3c0,0,0,0,0,0c0,0.1-0.1,0.2-0.1,0.2l0,0c0,0,0,0,0,0
		c-0.1,0.1-0.1,0.2-0.2,0.2c-0.1,0.1-0.1,0.2-0.2,0.2c-0.1,0.1-0.2,0.2-0.3,0.3c-0.1,0.1-0.1,0.1-0.2,0.2c-0.1,0.1-0.2,0.2-0.4,0.3
		c0,0,0,0-0.1,0c-0.3,0.2-0.5,0.4-0.8,0.6c-0.4,0.2-0.8,0.4-1.2,0.6c-0.9,0.4-1.9,0.7-3,0.9c-3.4,0.6-7.2,0.1-9.9-1.5
		c-2.4-1.4-3.3-3.2-2.8-5c0-0.1,0-0.1,0-0.2l0,0c0,0,0,0,0,0c0-0.1,0.1-0.2,0.1-0.3c0,0,0,0,0-0.1c0-0.1,0-0.1,0.1-0.2c0,0,0,0,0,0
		s0,0,0,0c0.1-0.1,0.1-0.2,0.2-0.3c0,0,0,0,0,0c0,0,0,0,0,0c0-0.1,0.1-0.1,0.1-0.2l0,0c0,0,0,0,0,0c0.1-0.1,0.2-0.2,0.2-0.3
		c0,0,0,0,0,0c0,0,0,0,0,0c0.1-0.1,0.1-0.1,0.2-0.2c0,0,0,0,0,0c0.1-0.1,0.2-0.2,0.3-0.3c0,0,0,0,0,0c0,0,0,0,0,0
		c0,0,0.1-0.1,0.1-0.1c0,0,0.1-0.1,0.1-0.1c0.1-0.1,0.3-0.2,0.4-0.3c0.1,0,0.1-0.1,0.2-0.1c0.2-0.2,0.4-0.3,0.7-0.4
		c1-0.6,2.1-1,3.3-1.3c0,0,0,0,0,0c0.4-0.1,0.8-0.2,1.2-0.2c0.1,0,0.2,0,0.3,0c0.4-0.1,0.8-0.1,1.3-0.1c0,0,0,0,0,0
		c0.4,0,0.8,0,1.3,0c0.1,0,0.2,0,0.3,0c0.4,0,0.8,0,1.3,0.1c0,0,0,0,0,0c0.4,0,0.8,0.1,1.2,0.2c0.1,0,0.2,0,0.3,0.1
		c0.4,0.1,0.8,0.2,1.2,0.3c0,0,0,0,0,0c0.4,0.1,0.8,0.3,1.1,0.4c0.1,0,0.2,0.1,0.3,0.1c0.4,0.2,0.7,0.3,1,0.5c0,0,0,0,0,0
		c0,0,0.1,0,0.1,0.1c0,0,0,0,0,0c0.1,0.1,0.2,0.1,0.3,0.2c0.1,0.1,0.2,0.1,0.3,0.2c0.1,0,0.1,0.1,0.2,0.1c0.1,0,0.1,0.1,0.2,0.2
		c0.1,0.1,0.1,0.1,0.2,0.2c0,0,0,0,0,0c0.1,0.1,0.1,0.1,0.2,0.2c0.1,0.1,0.2,0.2,0.3,0.3c0,0,0,0,0,0c0,0,0,0,0,0
		c0,0,0.1,0.1,0.1,0.1c0,0,0,0,0.1,0.1c0,0,0,0,0,0c0.1,0.1,0.2,0.2,0.2,0.3c0,0,0,0,0,0l0,0c0.1,0.1,0.1,0.2,0.1,0.2
		c0.1,0.1,0.1,0.2,0.2,0.3c0,0.1,0.1,0.2,0.1,0.2c0,0.1,0.1,0.2,0.1,0.3c0,0.1,0,0.2,0.1,0.3c0,0,0,0.1,0,0.1c0,0.1,0,0.1,0.1,0.2
		c0,0,0,0,0,0c0,0,0,0,0,0c0,0.1,0,0.2,0,0.3C326,91.3,326,91.3,326,91.5C326,91.5,326,91.5,326,91.5z M357.3,157.1
		c-19.1-11-19.2-28.8-0.2-39.8c2-1.2,4.2-2.2,6.4-3.1c0,0,0,0,0.1,0c0.1,0,0.2-0.1,0.3-0.1c0.1,0,0.1-0.1,0.2-0.1c0,0,0,0,0,0
		c0,0,0,0,0,0c0.2-0.1,0.4-0.1,0.6-0.2c0.8-0.3,1.7-0.6,2.5-0.9c0.2-0.1,0.4-0.1,0.6-0.2c1.1-0.4,2.2-0.7,3.3-1
		c0.1,0,0.2-0.1,0.4-0.1c0.4-0.1,0.8-0.2,1.2-0.3c0.8-0.2,1.5-0.4,2.3-0.5c0,0,0,0,0,0c0.1,0,0.2,0,0.2-0.1c0,0,0,0,0,0
		c0.6-0.1,1.2-0.2,1.8-0.3c0.6-0.1,1.2-0.2,1.7-0.3c0.2,0,0.4-0.1,0.6-0.1c1.2-0.2,2.3-0.3,3.5-0.4c0.2,0,0.4,0,0.6-0.1
		c0.6-0.1,1.2-0.1,1.9-0.1c0.6,0,1.2-0.1,1.7-0.1c0,0,0,0,0,0c0,0,0,0,0,0c0.2,0,0.3,0,0.5,0c0.9,0,1.8-0.1,2.7-0.1
		c0.4,0,0.7,0,1.1,0c0,0,0,0,0,0c0,0,0,0,0,0c0,0,0,0,0.1,0c0,0,0,0,0,0c0,0,0,0,0,0c1,0,1.9,0,2.9,0.1c0.3,0,0.6,0,0.9,0
		c0.2,0,0.3,0,0.5,0c0.8,0,1.6,0.1,2.5,0.2c0.4,0,0.8,0,1.2,0.1c0,0,0,0,0,0c0,0,0,0,0,0c0.2,0,0.4,0,0.6,0.1c0,0,0,0,0,0
		c0,0,0,0,0,0c1.2,0.1,2.4,0.3,3.5,0.4c0,0,0,0,0,0c0,0,0,0,0,0c0.2,0,0.4,0.1,0.6,0.1c1.2,0.2,2.4,0.4,3.6,0.6c0.1,0,0.2,0,0.3,0.1
		c1.2,0.2,2.3,0.5,3.5,0.8c0.1,0,0.2,0,0.3,0.1c0,0,0,0,0,0c0,0,0,0,0,0c0.9,0.2,1.7,0.5,2.5,0.7c0.3,0.1,0.6,0.2,0.9,0.3
		c0.2,0.1,0.4,0.1,0.5,0.2c0,0,0,0,0,0c0,0,0,0,0,0c0.2,0.1,0.3,0.1,0.5,0.2c0.9,0.3,1.8,0.6,2.7,1c0.2,0.1,0.4,0.1,0.6,0.2
		c1,0.4,2,0.9,3,1.3c0.1,0.1,0.3,0.1,0.4,0.2c1,0.5,2,1,3,1.6c0.6,0.3,1.1,0.7,1.6,1c0,0,0.1,0,0.1,0.1l0,0c0,0,0,0,0,0
		c0.2,0.1,0.4,0.3,0.6,0.4c0.2,0.1,0.3,0.2,0.5,0.3c0.2,0.1,0.4,0.2,0.6,0.4c0,0,0,0,0,0c0,0,0,0,0,0c0.2,0.1,0.4,0.3,0.6,0.5
		c0,0,0.1,0.1,0.1,0.1c0,0,0,0,0,0c0.3,0.2,0.5,0.4,0.8,0.6c0,0,0,0,0,0c0,0,0,0,0,0c0.2,0.2,0.4,0.3,0.6,0.5
		c0.3,0.2,0.6,0.4,0.8,0.7c0.2,0.2,0.4,0.3,0.6,0.5c0.1,0.1,0.2,0.2,0.3,0.3c0.1,0.1,0.3,0.2,0.4,0.3l0,0c0,0,0,0,0,0
		c0.2,0.2,0.4,0.4,0.5,0.6c0.2,0.2,0.4,0.4,0.6,0.7c0.2,0.2,0.3,0.4,0.5,0.6c0,0,0,0,0,0c0,0,0,0,0,0c0.2,0.2,0.4,0.4,0.5,0.6
		c0,0,0,0,0,0c0,0,0,0,0,0c0.2,0.2,0.3,0.4,0.4,0.6c0.2,0.2,0.3,0.5,0.5,0.7c0.1,0.2,0.3,0.4,0.4,0.6c0.1,0.2,0.3,0.5,0.4,0.7
		c0.1,0.2,0.2,0.4,0.3,0.6c0.1,0.1,0.1,0.2,0.2,0.3c0.1,0.1,0.2,0.3,0.2,0.4c0,0,0,0,0,0c0,0,0,0,0,0c0.1,0.2,0.2,0.4,0.3,0.6
		c0.1,0.2,0.2,0.5,0.3,0.7c0.1,0.2,0.2,0.4,0.2,0.6c0,0,0,0,0,0c0,0,0,0,0,0c0.1,0.2,0.2,0.5,0.3,0.7c0,0,0,0,0,0c0,0,0,0,0,0
		c0.1,0.2,0.1,0.4,0.2,0.6c0,0.1,0.1,0.2,0.1,0.3c0,0.1,0.1,0.2,0.1,0.4c0,0,0,0,0,0c0,0,0,0,0,0c0.1,0.2,0.1,0.4,0.1,0.6
		c0,0.1,0.1,0.3,0.1,0.4c0,0.1,0,0.2,0.1,0.3c0,0,0,0,0,0c0,0,0,0,0,0c0,0.2,0.1,0.4,0.1,0.7c0,0,0,0,0,0c0,0,0,0,0,0
		c0,0.1,0,0.2,0,0.3c0,0.1,0,0.3,0.1,0.4c0,0.2,0,0.4,0,0.7c0,0,0,0,0,0c0,0.2,0,0.5,0,0.7c0,0,0,0,0,0s0,0,0,0c0,0.2,0,0.5,0,0.7
		c0,0,0,0,0,0c0,0,0,0,0,0c0,0.2,0,0.4,0,0.6c0,0,0,0,0,0c0,0.2-0.1,0.5-0.1,0.7c0,0.1,0,0.3-0.1,0.4c0,0.1,0,0.2,0,0.3c0,0,0,0,0,0
		c0,0,0,0,0,0c0,0.2-0.1,0.5-0.1,0.7c0,0,0,0,0,0c0,0,0,0,0,0c0,0.2-0.1,0.4-0.1,0.6c0,0,0,0,0,0c0,0,0,0,0,0
		c-0.1,0.2-0.1,0.5-0.2,0.7c0,0,0,0,0,0c0,0,0,0,0,0c-0.1,0.2-0.1,0.4-0.2,0.6c0,0,0,0,0,0c0,0,0,0,0,0c-0.1,0.2-0.2,0.5-0.3,0.7
		c0,0,0,0.1,0,0.1c-0.1,0.2-0.1,0.4-0.2,0.5c0,0,0,0,0,0c0,0,0,0,0,0c-0.1,0.2-0.2,0.5-0.3,0.7c0,0,0,0,0,0c0,0,0,0,0,0c0,0,0,0,0,0
		c-0.1,0.2-0.2,0.4-0.3,0.6c0,0.1-0.1,0.2-0.1,0.2c-0.1,0.1-0.2,0.3-0.2,0.4c0,0,0,0,0,0c0,0,0,0,0,0c-0.1,0.2-0.2,0.4-0.3,0.6
		c0,0,0,0,0,0c0,0,0,0,0,0c-0.1,0.2-0.3,0.4-0.4,0.7c0,0,0,0,0,0c0,0,0,0,0,0c-0.1,0.2-0.3,0.4-0.4,0.6c-0.2,0.2-0.3,0.4-0.5,0.7
		c-0.1,0.2-0.3,0.4-0.4,0.6c-0.1,0.1-0.2,0.3-0.4,0.4v0c-0.1,0.1-0.1,0.2-0.2,0.2c-0.2,0.2-0.3,0.4-0.5,0.6
		c-0.2,0.2-0.4,0.4-0.6,0.6c-0.2,0.2-0.3,0.4-0.5,0.5c-2,2-4.5,3.9-7.5,5.6C407.2,168.1,376.4,168.1,357.3,157.1z M456.8,222.8
		l-59.5-34.4l0,0l14.1-8.2l59.5,34.4h0l0,0L456.8,222.8z M477.9,184.9c-3.9,2.3-10.2,2.3-14.1,0c-2-1.1-2.9-2.6-2.9-4.1c0,0,0,0,0,0
		c0-0.1,0-0.2,0-0.3c0-0.1,0-0.2,0-0.2c0-0.1,0-0.2,0.1-0.3c0,0,0-0.1,0-0.1c0,0,0-0.1,0-0.1c0,0,0-0.1,0.1-0.1
		c0-0.1,0.1-0.1,0.1-0.2c0,0,0,0,0,0c0-0.1,0-0.1,0.1-0.2c0,0,0,0,0,0c0.1-0.2,0.2-0.3,0.3-0.5c0,0,0,0,0,0c0,0,0,0,0,0c0,0,0,0,0,0
		c0.1-0.2,0.2-0.3,0.4-0.5c0,0,0,0,0,0c0.2-0.2,0.3-0.3,0.5-0.5c0,0,0,0,0,0l0,0c0,0,0.1-0.1,0.1-0.1c0,0,0,0,0,0c0,0,0,0,0,0
		c0.2-0.1,0.3-0.3,0.5-0.4c0.2-0.1,0.4-0.3,0.6-0.4c0.2-0.1,0.5-0.3,0.8-0.4c1.8-0.9,4-1.3,6.3-1.3c0,0,0,0,0,0
		c2.2,0,4.4,0.4,6.3,1.3c0.3,0.1,0.5,0.3,0.8,0.4c0,0,0,0,0,0c0.3,0.2,0.5,0.3,0.7,0.5c0,0,0,0,0,0c0.1,0.1,0.2,0.1,0.3,0.2
		c0,0,0,0,0,0c0.1,0.1,0.2,0.2,0.3,0.3c0,0,0.1,0.1,0.1,0.1c0.1,0.1,0.1,0.1,0.2,0.2c0,0,0,0,0,0c0.1,0.1,0.1,0.1,0.2,0.2
		c0.1,0.1,0.2,0.2,0.3,0.3c0,0,0.1,0.1,0.1,0.1c0,0,0,0,0.1,0.1c0,0,0,0,0,0c0.1,0.2,0.2,0.3,0.3,0.5v0c0,0,0,0,0,0
		c0,0,0,0.1,0.1,0.1c0,0,0,0,0,0c0,0.1,0.1,0.2,0.1,0.3C481.3,181.5,480.4,183.5,477.9,184.9z M466,148.5L466,148.5l14.1-8.2
		l59.5,34.4h0l0,0l-14.1,8.2L466,148.5z"/>
	<path class="st7" d="M326,90.9C326,90.9,326,90.9,326,90.9c0-0.1,0-0.1-0.1-0.2c0,0,0,0,0-0.1c0-0.1,0-0.2-0.1-0.3
		c0-0.1-0.1-0.2-0.1-0.3c0-0.1-0.1-0.2-0.1-0.3c-0.1-0.1-0.1-0.2-0.2-0.3c0-0.1-0.1-0.2-0.1-0.2c0,0,0,0,0,0
		c-0.1-0.1-0.2-0.2-0.2-0.3c0,0,0,0,0,0c0,0,0,0-0.1-0.1c0-0.1-0.1-0.1-0.1-0.1c0,0,0,0,0,0c-0.1-0.1-0.2-0.2-0.3-0.2
		c-0.1-0.1-0.1-0.1-0.2-0.2c0,0,0,0,0,0c-0.1-0.1-0.1-0.1-0.2-0.2c-0.1,0-0.1-0.1-0.2-0.1c-0.1-0.1-0.1-0.1-0.2-0.2
		c-0.1-0.1-0.2-0.1-0.3-0.2c-0.1-0.1-0.2-0.1-0.3-0.2c0,0,0,0,0,0c0,0-0.1,0-0.1-0.1c0,0,0,0,0,0c-0.3-0.2-0.7-0.4-1-0.5
		c-0.1,0-0.2-0.1-0.3-0.1c-0.4-0.1-0.7-0.3-1.1-0.4c0,0,0,0,0,0c-0.4-0.1-0.8-0.2-1.2-0.3c-0.1,0-0.2,0-0.3-0.1
		c-0.4-0.1-0.8-0.1-1.2-0.2c0,0,0,0,0,0c-0.4,0-0.8-0.1-1.3-0.1c-0.1,0-0.2,0-0.3,0c-0.4,0-0.8,0-1.3,0c0,0,0,0,0,0
		c-0.4,0-0.8,0.1-1.3,0.1c-0.1,0-0.2,0-0.3,0c-0.4,0.1-0.8,0.1-1.2,0.2c-1.2,0.3-2.3,0.7-3.3,1.3c-0.2,0.1-0.5,0.3-0.7,0.4
		c0,0-0.1,0.1-0.1,0.1c-0.2,0.1-0.3,0.2-0.5,0.4c0,0-0.1,0.1-0.1,0.1c0,0-0.1,0.1-0.1,0.1c0,0,0,0,0,0c-0.1,0.1-0.2,0.2-0.3,0.3
		c0,0,0,0,0,0c-0.1,0.1-0.1,0.1-0.2,0.2c0,0,0,0,0,0c-0.1,0.1-0.2,0.2-0.2,0.3l0,0c-0.1,0.1-0.1,0.1-0.1,0.2c0,0,0,0,0,0
		c-0.1,0.1-0.1,0.2-0.2,0.3c0,0,0,0,0,0c0,0.1,0,0.1-0.1,0.2c0,0,0,0,0,0.1c0,0.1-0.1,0.2-0.1,0.3l0,0c0,0.1,0,0.1,0,0.2
		c-0.5,1.8,0.4,3.6,2.8,5c2.7,1.5,6.5,2,9.9,1.5c1.1-0.2,2.1-0.5,3-0.9c0.4-0.2,0.8-0.4,1.2-0.6c0.3-0.2,0.6-0.4,0.8-0.6
		c0,0,0,0,0.1,0c0,0,0,0,0,0c0.1-0.1,0.3-0.2,0.4-0.3c0,0,0,0,0,0c0.1-0.1,0.1-0.1,0.2-0.2c0,0,0,0,0,0c0.1-0.1,0.2-0.2,0.3-0.3
		c0,0,0,0,0,0c0.1-0.1,0.1-0.2,0.2-0.2c0,0,0,0,0,0c0.1-0.1,0.1-0.2,0.2-0.2c0,0,0,0,0,0l0,0c0.1-0.1,0.1-0.2,0.1-0.2
		c0.1-0.1,0.1-0.2,0.2-0.3c0-0.1,0.1-0.2,0.1-0.3c0,0,0,0,0,0c0-0.1,0.1-0.2,0.1-0.3c0-0.1,0-0.2,0.1-0.3c0,0,0,0,0,0
		c0-0.1,0.1-0.2,0.1-0.3c0,0,0,0,0,0c0-0.1,0-0.2,0-0.3c0,0,0,0,0,0c0-0.1,0-0.2,0-0.3c0,0,0,0,0,0c0-0.1,0-0.2,0-0.3
		C326,91.1,326,91,326,90.9z"/>
	<polygon class="st7" points="325.6,93.1 325.6,93.1 325.6,93.1 	"/>
	<polygon class="st7" points="325.8,92.6 325.8,92.6 325.8,92.6 	"/>
	<path class="st7" d="M433.6,151.5c0.2-0.2,0.3-0.4,0.5-0.5c0.2-0.2,0.4-0.4,0.6-0.6c0.2-0.2,0.3-0.4,0.5-0.6
		c0.1-0.1,0.1-0.2,0.2-0.2v0c0.1-0.1,0.2-0.3,0.4-0.4c0.2-0.2,0.3-0.4,0.4-0.6c0.2-0.2,0.3-0.4,0.5-0.7c0.1-0.2,0.3-0.4,0.4-0.6
		c0,0,0,0,0,0c0.1-0.2,0.3-0.4,0.4-0.7c0,0,0,0,0,0c0.1-0.2,0.2-0.4,0.3-0.6c0,0,0,0,0,0c0.1-0.1,0.2-0.3,0.2-0.4
		c0-0.1,0.1-0.2,0.1-0.2c0.1-0.2,0.2-0.4,0.3-0.6c0,0,0,0,0,0c0,0,0,0,0,0c0.1-0.2,0.2-0.5,0.3-0.7c0,0,0,0,0,0
		c0.1-0.2,0.1-0.4,0.2-0.5c0,0,0-0.1,0-0.1c0.1-0.2,0.2-0.5,0.3-0.7c0,0,0,0,0,0c0.1-0.2,0.1-0.4,0.2-0.6c0,0,0,0,0,0
		c0.1-0.2,0.1-0.5,0.2-0.7c0,0,0,0,0,0c0.1-0.2,0.1-0.4,0.1-0.6c0,0,0,0,0,0c0-0.2,0.1-0.5,0.1-0.7c0,0,0,0,0,0c0-0.1,0-0.2,0-0.3
		c0-0.1,0-0.3,0-0.4c0-0.2,0.1-0.5,0.1-0.7c0,0,0,0,0,0c0-0.2,0-0.4,0-0.6c0,0,0,0,0,0c0-0.2,0-0.5,0-0.7c0,0,0,0,0,0
		c0-0.2,0-0.5,0-0.7c0-0.2,0-0.4,0-0.7c0-0.1,0-0.3-0.1-0.4c0-0.1,0-0.2,0-0.3c0,0,0,0,0,0c0-0.2,0-0.4-0.1-0.7c0,0,0,0,0,0
		c0-0.1,0-0.2-0.1-0.3c0-0.1-0.1-0.3-0.1-0.4c0-0.2-0.1-0.4-0.1-0.7c0,0,0,0,0,0c0-0.1-0.1-0.2-0.1-0.4c0-0.1-0.1-0.2-0.1-0.3
		c-0.1-0.2-0.1-0.4-0.2-0.7c0,0,0,0,0,0c-0.1-0.2-0.2-0.5-0.3-0.7c0,0,0,0,0,0c-0.1-0.2-0.2-0.4-0.2-0.6c-0.1-0.2-0.2-0.5-0.3-0.7
		c-0.1-0.2-0.2-0.4-0.3-0.6c0,0,0,0,0,0c-0.1-0.1-0.1-0.3-0.2-0.4c0-0.1-0.1-0.2-0.1-0.3c-0.1-0.2-0.2-0.4-0.4-0.6
		c-0.1-0.2-0.3-0.4-0.4-0.6c-0.1-0.2-0.3-0.4-0.4-0.6c-0.2-0.2-0.3-0.4-0.5-0.6c-0.2-0.2-0.3-0.4-0.5-0.6c0,0,0,0,0,0
		c-0.2-0.2-0.4-0.4-0.5-0.6c0,0,0,0,0,0c-0.2-0.2-0.3-0.4-0.5-0.6c-0.2-0.2-0.4-0.4-0.6-0.6c-0.2-0.2-0.4-0.4-0.6-0.6l0,0
		c-0.1-0.1-0.2-0.2-0.4-0.3c-0.1-0.1-0.2-0.2-0.3-0.3c-0.2-0.2-0.4-0.4-0.6-0.6c-0.2-0.2-0.5-0.4-0.7-0.6c-0.2-0.2-0.5-0.4-0.7-0.6
		c0,0,0,0,0,0c-0.2-0.2-0.5-0.4-0.8-0.6c0,0,0,0,0,0c-0.2-0.2-0.5-0.4-0.7-0.6c0,0,0,0,0,0c-0.2-0.1-0.4-0.3-0.6-0.4
		c-0.1-0.1-0.2-0.1-0.3-0.2c-0.3-0.2-0.5-0.4-0.8-0.5l0,0c0,0-0.1,0-0.1-0.1c-0.2-0.1-0.5-0.3-0.7-0.4c-0.3-0.2-0.6-0.4-0.9-0.6
		c0,0,0,0,0,0c-1-0.6-2-1.1-3-1.6c-0.1-0.1-0.3-0.1-0.4-0.2c-1-0.5-2-0.9-3-1.3c-0.2-0.1-0.4-0.2-0.6-0.2c-0.9-0.3-1.8-0.7-2.7-1
		c-0.2-0.1-0.3-0.1-0.5-0.2c0,0,0,0,0,0c-0.2-0.1-0.4-0.1-0.6-0.2c-0.3-0.1-0.6-0.2-0.8-0.3c-0.8-0.3-1.7-0.5-2.5-0.7c0,0,0,0,0,0
		c-0.1,0-0.2,0-0.3-0.1c-1.1-0.3-2.3-0.6-3.4-0.8c-0.1,0-0.2-0.1-0.3-0.1c-1.2-0.2-2.4-0.4-3.5-0.6c-0.2,0-0.4-0.1-0.6-0.1
		c0,0,0,0,0,0c-1.2-0.2-2.3-0.3-3.5-0.4c0,0,0,0,0,0c-0.2,0-0.4,0-0.6-0.1c0,0,0,0,0,0c-0.4,0-0.8-0.1-1.2-0.1
		c-0.8-0.1-1.6-0.1-2.4-0.2c-0.2,0-0.3,0-0.5,0c-0.3,0-0.6,0-0.9,0c-0.9,0-1.9-0.1-2.9-0.1c0,0,0,0,0,0c0,0-0.1,0-0.1,0c0,0,0,0,0,0
		c-0.4,0-0.7,0-1.1,0c-0.9,0-1.8,0-2.7,0.1c-0.2,0-0.4,0-0.5,0c0,0,0,0,0,0c-0.6,0-1.2,0.1-1.7,0.1c-0.6,0-1.2,0.1-1.9,0.1
		c-0.2,0-0.4,0-0.7,0.1c-1.2,0.1-2.4,0.3-3.5,0.4c-0.2,0-0.4,0.1-0.6,0.1c-0.6,0.1-1.2,0.2-1.7,0.3c-0.6,0.1-1.2,0.2-1.8,0.3
		c0,0,0,0,0,0c-0.1,0-0.2,0-0.2,0.1c0,0,0,0,0,0c-0.8,0.2-1.5,0.4-2.3,0.5c-0.4,0.1-0.8,0.2-1.2,0.3c-0.1,0-0.2,0.1-0.4,0.1
		c-1.1,0.3-2.2,0.6-3.3,1c-0.2,0.1-0.4,0.1-0.6,0.2c-0.9,0.3-1.7,0.6-2.5,0.9c-0.2,0.1-0.4,0.1-0.6,0.2c0,0,0,0,0,0
		c-0.1,0-0.1,0.1-0.2,0.1c-0.1,0-0.2,0.1-0.3,0.1c0,0,0,0-0.1,0c-2.3,0.9-4.4,2-6.4,3.1c-18.9,11-18.8,28.8,0.2,39.8
		c19.1,11,49.9,11,68.8,0C429.1,155.4,431.5,153.5,433.6,151.5z M425.1,154.4C425.1,154.4,425.1,154.4,425.1,154.4
		C425.1,154.4,425.1,154.4,425.1,154.4c-0.1,0.1-0.3,0.2-0.4,0.3c0,0,0,0,0,0c0,0,0,0,0,0c-0.5,0.3-0.9,0.6-1.4,0.9c0,0,0,0,0,0
		c-1.8,1.1-3.8,2-5.8,2.8c-0.7,0.3-1.4,0.5-2.1,0.8c-0.9,0.3-1.9,0.7-2.8,0.9c-1.5,0.5-3.1,0.9-4.7,1.2c-0.8,0.2-1.6,0.3-2.4,0.5
		c-0.9,0.2-1.9,0.3-2.8,0.5c-1.5,0.2-3,0.4-4.6,0.5c-1.3,0.1-2.7,0.2-4,0.2c-0.9,0-1.9,0-2.8,0c-1.8,0-3.6-0.1-5.3-0.2
		c-0.9-0.1-1.8-0.2-2.7-0.2c-1.3-0.1-2.6-0.3-3.9-0.5c-0.9-0.2-1.9-0.3-2.8-0.5c-2.4-0.5-4.7-1.1-6.9-1.8c-0.6-0.2-1.1-0.4-1.7-0.6
		c-2.2-0.8-4.2-1.7-6.2-2.7c-0.6-0.3-1.1-0.6-1.7-0.9c-0.8-0.5-1.6-1-2.3-1.5c-0.2-0.2-0.5-0.3-0.7-0.5c-0.2-0.1-0.3-0.2-0.5-0.3
		c-0.7-0.5-1.3-1-1.9-1.5c-0.1-0.1-0.2-0.2-0.3-0.2c-0.2-0.2-0.4-0.3-0.5-0.5c-0.2-0.2-0.4-0.4-0.6-0.6c-1.3-1.2-2.3-2.5-3.2-3.8
		c0-0.1-0.1-0.1-0.1-0.2c-0.1-0.2-0.3-0.4-0.4-0.6c-0.1-0.2-0.2-0.4-0.3-0.6c-0.1-0.2-0.2-0.4-0.4-0.6c-0.1-0.2-0.2-0.4-0.3-0.6
		c-0.1-0.2-0.2-0.4-0.3-0.6c0,0,0-0.1-0.1-0.1c0-0.1-0.1-0.1-0.1-0.2c0-0.1-0.1-0.2-0.1-0.2c-0.1-0.2-0.2-0.4-0.2-0.6
		c0-0.1-0.1-0.2-0.1-0.3c0-0.1-0.1-0.2-0.1-0.3c-0.1-0.2-0.1-0.4-0.2-0.6c0,0,0,0,0-0.1c0,0,0-0.1,0-0.1c0-0.2-0.1-0.3-0.1-0.5
		c0-0.1,0-0.2-0.1-0.3c0-0.1-0.1-0.3-0.1-0.4v0c0,0,0,0,0,0c0-0.2-0.1-0.4-0.1-0.6c0-0.1,0-0.2,0-0.3c0-0.1,0-0.2,0-0.3c0,0,0,0,0,0
		c0,0,0-0.1,0-0.1c0-0.2,0-0.3,0-0.5c0,0,0,0,0,0c0,0,0,0,0,0c0-0.2,0-0.4,0-0.6c0,0,0,0,0,0s0,0,0,0c0-0.2,0-0.4,0-0.6c0,0,0,0,0,0
		c0,0,0,0,0,0c0,0,0,0,0-0.1c0-0.2,0-0.4,0-0.5c0-0.2,0-0.4,0.1-0.6c0,0,0,0,0,0c0,0,0,0,0,0c0-0.1,0-0.1,0-0.2c0-0.1,0-0.3,0-0.4
		c0-0.2,0.1-0.4,0.1-0.6c0-0.2,0.1-0.4,0.1-0.6c0.1-0.2,0.1-0.4,0.2-0.6c0,0,0,0,0,0c0,0,0,0,0,0c0.1-0.2,0.1-0.4,0.2-0.6
		c0,0,0,0,0,0c0,0,0,0,0,0c0.1-0.2,0.2-0.4,0.2-0.6c0.1-0.1,0.1-0.3,0.2-0.4c0,0,0-0.1,0.1-0.1c0,0,0,0,0,0c0,0,0,0,0,0
		c0.1-0.2,0.2-0.4,0.3-0.6c0-0.1,0.1-0.2,0.1-0.2c0.1-0.1,0.1-0.2,0.2-0.3c0.1-0.1,0.1-0.2,0.2-0.3c0.1-0.1,0.1-0.2,0.2-0.3
		c0,0,0,0,0,0c0,0,0,0,0,0c0-0.1,0.1-0.2,0.1-0.2c0.1-0.1,0.1-0.2,0.2-0.3c0.1-0.2,0.3-0.4,0.4-0.6c0.1-0.2,0.2-0.4,0.4-0.5
		c0.1-0.2,0.3-0.4,0.5-0.6c0.1-0.1,0.2-0.3,0.3-0.4c0,0,0.1-0.1,0.1-0.1c0,0,0,0,0,0c0.2-0.2,0.3-0.4,0.5-0.6
		c0.1-0.1,0.1-0.2,0.2-0.2c0.1-0.1,0.2-0.2,0.2-0.3c0,0,0,0,0,0c0,0,0,0,0,0c0.2-0.2,0.4-0.4,0.6-0.6c0.1-0.1,0.2-0.2,0.3-0.3
		c0.1-0.1,0.1-0.1,0.2-0.2c0,0,0,0,0,0c0,0,0,0,0,0c0.2-0.2,0.4-0.4,0.7-0.6c0.1-0.1,0.3-0.3,0.4-0.4c0.1-0.1,0.2-0.2,0.3-0.3
		c0.2-0.1,0.3-0.3,0.5-0.4c0,0,0,0,0,0c0,0,0,0,0,0c0.2-0.1,0.3-0.3,0.5-0.4c0,0,0,0,0,0c0.2-0.2,0.4-0.3,0.6-0.4
		c0.1-0.1,0.2-0.1,0.2-0.2c0,0,0,0,0.1-0.1c0.3-0.2,0.6-0.4,0.9-0.7c0.2-0.1,0.3-0.2,0.5-0.4c0.2-0.1,0.3-0.2,0.5-0.3
		c0.5-0.3,1-0.6,1.6-1c0.9-0.5,1.8-1,2.7-1.4c2.8-1.4,5.7-2.5,8.9-3.4c0.7-0.2,1.4-0.4,2.2-0.6c1.1-0.3,2.3-0.5,3.4-0.8
		c1.8-0.4,3.7-0.7,5.6-0.9c0.2,0,0.3,0,0.5-0.1c14-1.5,29.1,0.8,39.9,7.1c1.2,0.7,2.4,1.5,3.4,2.2c0.1,0.1,0.1,0.1,0.2,0.2
		c0.1,0.1,0.3,0.2,0.4,0.3c0.2,0.1,0.3,0.2,0.5,0.3c0,0,0,0,0,0c0.1,0,0.1,0.1,0.2,0.2c0.1,0.1,0.2,0.2,0.4,0.3
		c0.2,0.2,0.5,0.4,0.7,0.6c0.4,0.4,0.8,0.7,1.2,1.1c0,0,0,0,0,0c0.2,0.2,0.3,0.3,0.5,0.5c0.2,0.2,0.4,0.4,0.6,0.6c0,0,0,0,0,0
		c0.2,0.2,0.3,0.3,0.4,0.5c0.1,0.1,0.2,0.2,0.3,0.3c0.1,0.1,0.2,0.2,0.2,0.3c0.1,0.2,0.3,0.4,0.4,0.5c0.2,0.2,0.3,0.4,0.5,0.6
		c0.1,0.2,0.2,0.4,0.4,0.6c0.1,0.2,0.3,0.4,0.4,0.6c2.3,3.9,3.1,8,2.2,12c0,0,0,0.1,0,0.1c-0.1,0.2-0.1,0.4-0.2,0.7
		c-0.1,0.4-0.2,0.8-0.4,1.2c-0.1,0.2-0.1,0.4-0.2,0.6c0,0.1-0.1,0.2-0.1,0.2c0,0,0,0.1,0,0.1c0,0,0,0,0,0c0,0,0,0,0,0
		c-0.1,0.3-0.2,0.5-0.4,0.8c0,0,0,0,0,0c0,0,0,0,0,0c-0.1,0.1-0.1,0.2-0.2,0.3c0,0,0,0,0,0c0,0,0,0,0,0c-0.2,0.4-0.4,0.7-0.6,1.1
		c0,0,0,0,0,0c-0.2,0.4-0.4,0.7-0.7,1.1c0,0,0,0,0,0c0,0,0,0,0,0c-0.1,0.1-0.1,0.2-0.2,0.3c0,0,0,0,0,0c0,0,0,0,0,0
		c-0.2,0.3-0.4,0.5-0.6,0.8c0,0,0,0,0,0c0,0,0,0,0,0c0,0-0.1,0.1-0.1,0.1c0,0.1-0.1,0.1-0.1,0.2c-0.3,0.3-0.6,0.7-0.9,1c0,0,0,0,0,0
		c-0.3,0.3-0.6,0.7-1,1c0,0,0,0-0.1,0.1c0,0,0,0,0,0c-0.1,0.1-0.1,0.1-0.2,0.2c-0.3,0.2-0.5,0.5-0.8,0.7c-0.1,0.1-0.2,0.2-0.3,0.3
		c-0.4,0.3-0.7,0.6-1.1,0.9c0,0,0,0,0,0s0,0,0,0c0,0,0,0,0,0c0,0,0,0,0,0s0,0,0,0c-0.4,0.3-0.8,0.6-1.2,0.9
		c-0.1,0.1-0.3,0.2-0.4,0.3C425.7,153.9,425.4,154.1,425.1,154.4z"/>
	<path class="st1" d="M426.4,153.4c0.4-0.3,0.8-0.6,1.2-0.9c0,0,0,0,0,0c0,0,0,0,0,0c0,0,0,0,0,0c0.4-0.3,0.8-0.6,1.1-1
		c0.1-0.1,0.2-0.2,0.3-0.3c0.3-0.2,0.5-0.5,0.8-0.7c0.1-0.1,0.1-0.1,0.2-0.2c0,0,0,0,0,0c0,0,0,0,0.1-0.1c0.7-0.7,1.3-1.3,1.8-2
		c0-0.1,0.1-0.1,0.1-0.2c0,0,0.1-0.1,0.1-0.1c0,0,0,0,0,0c0.2-0.3,0.4-0.5,0.6-0.8c0,0,0,0,0,0c0.1-0.1,0.1-0.2,0.2-0.3c0,0,0,0,0,0
		c0.5-0.7,0.9-1.4,1.3-2.1c0,0,0,0,0,0c0.1-0.1,0.1-0.2,0.2-0.3c0,0,0,0,0,0c0.1-0.3,0.3-0.5,0.4-0.8c0,0,0,0,0,0c0,0,0-0.1,0-0.1
		c0-0.1,0.1-0.2,0.1-0.2c0.1-0.2,0.1-0.4,0.2-0.6c0.1-0.4,0.3-0.8,0.4-1.2c0.1-0.2,0.1-0.4,0.2-0.7c0,0,0-0.1,0-0.1
		c0.9-4,0.2-8.1-2.2-12c-0.1-0.2-0.3-0.4-0.4-0.6c-0.1-0.2-0.2-0.4-0.4-0.6c-0.1-0.2-0.3-0.4-0.5-0.6c-0.1-0.2-0.3-0.4-0.4-0.5
		c-0.1-0.1-0.2-0.2-0.2-0.3c-0.1-0.1-0.2-0.2-0.3-0.3c-0.2-0.2-0.3-0.4-0.4-0.5c0,0,0,0,0,0c-0.2-0.2-0.4-0.4-0.6-0.6
		c-0.2-0.2-0.3-0.3-0.5-0.5c0,0,0,0,0,0c-0.4-0.4-0.8-0.7-1.2-1.1c-0.2-0.2-0.5-0.4-0.7-0.6c-0.1-0.1-0.3-0.2-0.4-0.3
		c-0.1-0.1-0.1-0.1-0.2-0.2c0,0,0,0,0,0c-0.1-0.1-0.3-0.2-0.5-0.3c-0.1-0.1-0.2-0.2-0.4-0.3c-0.1-0.1-0.1-0.1-0.2-0.2
		c-1.1-0.8-2.2-1.5-3.4-2.2c-10.9-6.3-25.9-8.6-39.9-7.1c-0.2,0-0.3,0-0.5,0.1c-1.9,0.2-3.8,0.5-5.6,0.9c-1.2,0.2-2.3,0.5-3.4,0.8
		c-0.7,0.2-1.5,0.4-2.2,0.6c-3.1,0.9-6.1,2-8.9,3.4c-0.9,0.5-1.8,0.9-2.7,1.4c-0.5,0.3-1.1,0.6-1.6,1c-0.2,0.1-0.3,0.2-0.4,0.3
		c-0.2,0.1-0.4,0.3-0.6,0.4c-0.3,0.2-0.6,0.4-0.9,0.7c0,0,0,0-0.1,0.1c-0.1,0.1-0.2,0.1-0.2,0.2c-0.2,0.1-0.4,0.3-0.6,0.4
		c-0.2,0.1-0.3,0.3-0.5,0.4c0,0,0,0,0,0c-0.2,0.1-0.3,0.3-0.5,0.4c-0.1,0.1-0.2,0.2-0.3,0.3c-0.1,0.1-0.3,0.2-0.4,0.4
		c-0.2,0.2-0.5,0.4-0.7,0.6c0,0,0,0,0,0c-0.1,0.1-0.1,0.1-0.2,0.2c-0.1,0.1-0.2,0.2-0.3,0.3c-0.2,0.2-0.4,0.4-0.6,0.6c0,0,0,0,0,0
		c-0.1,0.1-0.2,0.2-0.2,0.3c-0.1,0.1-0.1,0.1-0.2,0.2c-0.2,0.2-0.4,0.4-0.5,0.6c0,0-0.1,0.1-0.1,0.1c-0.1,0.1-0.2,0.3-0.3,0.4
		c-0.2,0.2-0.3,0.4-0.5,0.6c-0.1,0.2-0.2,0.4-0.3,0.5c-0.1,0.2-0.3,0.4-0.4,0.6c-0.1,0.1-0.1,0.2-0.2,0.3c0,0.1-0.1,0.2-0.1,0.2
		c0,0,0,0,0,0c-0.1,0.1-0.1,0.2-0.2,0.3c-0.1,0.1-0.1,0.2-0.2,0.3c-0.1,0.1-0.1,0.2-0.2,0.3c0,0.1-0.1,0.1-0.1,0.2
		c-0.1,0.2-0.2,0.4-0.3,0.6c0,0,0,0,0,0c0,0,0,0.1-0.1,0.1c-0.1,0.1-0.1,0.3-0.2,0.4c-0.1,0.2-0.2,0.4-0.2,0.6c0,0,0,0,0,0
		c-0.1,0.2-0.1,0.4-0.2,0.6c0,0,0,0,0,0c-0.1,0.2-0.1,0.4-0.2,0.6c0,0.2-0.1,0.4-0.1,0.6c0,0.2-0.1,0.4-0.1,0.6c0,0.1,0,0.3,0,0.4
		c0,0.1,0,0.1,0,0.2c0,0,0,0,0,0c0,0.2-0.1,0.4-0.1,0.6c0,0.2,0,0.4,0,0.5c0,0,0,0,0,0.1c0,0,0,0,0,0c0,0.2,0,0.4,0,0.6c0,0,0,0,0,0
		c0,0.2,0,0.4,0,0.6c0,0,0,0,0,0c0,0.2,0,0.3,0,0.5c0,0,0,0.1,0,0.1c0,0,0,0,0,0c0,0.1,0,0.2,0,0.3c0,0.1,0,0.2,0,0.3
		c0,0.2,0,0.4,0.1,0.6v0c0,0.1,0.1,0.3,0.1,0.4c0,0.1,0,0.2,0.1,0.2c0,0.2,0.1,0.3,0.1,0.5c0,0,0,0.1,0,0.1c0,0,0,0,0,0.1
		c0.1,0.2,0.1,0.4,0.2,0.6c0,0.1,0.1,0.2,0.1,0.3c0,0.1,0,0.2,0.1,0.3c0.1,0.2,0.2,0.4,0.2,0.6c0,0.1,0.1,0.2,0.1,0.2
		c0,0.1,0.1,0.1,0.1,0.2c0,0,0,0.1,0.1,0.1c0.1,0.2,0.2,0.4,0.3,0.6c0.1,0.2,0.2,0.4,0.3,0.6c0.1,0.2,0.2,0.4,0.3,0.6
		c0.1,0.2,0.2,0.4,0.3,0.6c0.1,0.2,0.3,0.4,0.4,0.6c0,0.1,0.1,0.1,0.1,0.2c0.9,1.3,1.9,2.6,3.2,3.8c0.2,0.2,0.4,0.4,0.6,0.6
		c0.2,0.2,0.4,0.3,0.5,0.5c0.1,0.1,0.2,0.2,0.3,0.2c0.6,0.5,1.2,1,1.9,1.5c0.2,0.1,0.3,0.2,0.5,0.3c0.2,0.2,0.5,0.3,0.7,0.5
		c0.7,0.5,1.5,1,2.3,1.5c0.5,0.3,1.1,0.6,1.7,0.9c1.9,1,4,1.9,6.2,2.7c0.6,0.2,1.1,0.4,1.7,0.6c2.2,0.7,4.5,1.3,6.9,1.8
		c0.9,0.2,1.8,0.4,2.8,0.5c1.3,0.2,2.6,0.4,3.9,0.5c0.9,0.1,1.8,0.2,2.7,0.2c1.8,0.1,3.6,0.2,5.3,0.2c0.9,0,1.9,0,2.8,0
		c1.3,0,2.7-0.1,4-0.2c1.5-0.1,3.1-0.3,4.6-0.5c0.9-0.1,1.9-0.3,2.8-0.5c0.8-0.2,1.6-0.3,2.4-0.5c1.6-0.4,3.2-0.8,4.7-1.2
		c1-0.3,1.9-0.6,2.8-0.9c0.7-0.3,1.4-0.5,2.1-0.8c2-0.8,4-1.8,5.8-2.8c0.5-0.3,1-0.6,1.4-0.9c0,0,0,0,0,0c0.1-0.1,0.3-0.2,0.4-0.3
		c0,0,0,0,0,0c0.3-0.2,0.7-0.4,1-0.7C426.2,153.6,426.3,153.5,426.4,153.4z M423.1,137.3c0,0.1,0,0.3,0,0.4c0,0.1,0,0.3,0,0.4
		c0,0.1,0,0.3-0.1,0.4c0,0.1,0,0.2,0,0.2c0,0.1,0,0.1,0,0.2c0,0.1-0.1,0.3-0.1,0.4c0,0,0,0,0,0c0,0.1,0,0.1,0,0.2c0,0.1,0,0.2,0,0.2
		c0,0.1-0.1,0.2-0.1,0.3c-0.1,0.4-0.2,0.8-0.4,1.1c0,0.1-0.1,0.2-0.1,0.2c0,0,0,0,0,0c-1.3,3.1-4.1,6.1-8.2,8.5
		c-12.2,7.1-32.2,7.1-44.5,0c-6.2-3.6-9.3-8.2-9.3-12.9c0,0,0,0,0,0c0-0.2,0-0.3,0-0.5c0-0.1,0-0.2,0-0.3c0,0,0-0.1,0-0.1
		c0-0.2,0-0.3,0.1-0.5c0,0,0,0,0,0c0-0.1,0-0.3,0-0.4c0,0,0,0,0,0c0,0,0,0,0,0c0-0.1,0.1-0.3,0.1-0.4c0,0,0,0,0,0c0,0,0,0,0,0
		c0-0.1,0-0.3,0.1-0.4c0-0.1,0.1-0.3,0.1-0.4c0-0.1,0.1-0.2,0.1-0.3c0,0,0-0.1,0-0.1c0,0,0,0,0,0c0-0.1,0.1-0.3,0.2-0.4c0,0,0,0,0,0
		c0,0,0,0,0-0.1c0-0.1,0.1-0.2,0.1-0.3c0.1-0.1,0.1-0.3,0.2-0.4c0,0,0,0,0,0c0,0,0,0,0-0.1c0.1-0.1,0.1-0.2,0.2-0.3
		c0.1-0.1,0.2-0.3,0.2-0.4c0.1-0.1,0.1-0.3,0.2-0.4c0.1-0.1,0.2-0.3,0.3-0.4c0.1-0.1,0.2-0.3,0.3-0.4c0.1-0.1,0.2-0.3,0.3-0.4
		c0,0,0,0,0,0c0.1-0.1,0.2-0.2,0.3-0.3c0,0,0,0,0,0c0.1-0.1,0.2-0.3,0.4-0.4c0.1-0.1,0.2-0.2,0.3-0.3c0,0,0,0,0.1-0.1c0,0,0,0,0,0
		c0.1-0.1,0.3-0.3,0.4-0.4c0,0,0,0,0,0c0,0,0,0,0-0.1c0.1-0.1,0.2-0.2,0.3-0.3c0.1-0.1,0.3-0.3,0.5-0.4c0,0,0.1-0.1,0.1-0.1
		c0.1-0.1,0.2-0.2,0.3-0.2c0,0,0,0,0,0c0.2-0.1,0.3-0.3,0.5-0.4c0,0,0,0,0.1-0.1c0,0,0,0,0.1-0.1c0.1-0.1,0.2-0.1,0.3-0.2
		c0.2-0.2,0.4-0.3,0.6-0.4c0.1-0.1,0.2-0.1,0.3-0.2c0,0,0.1-0.1,0.1-0.1c0,0,0,0,0,0c0.2-0.2,0.5-0.3,0.7-0.5c0.1,0,0.1-0.1,0.2-0.1
		c0.1,0,0.1-0.1,0.2-0.1c0,0,0,0,0,0c0,0,0,0,0,0c0.4-0.2,0.7-0.5,1.1-0.7c12.3-7.1,32.2-7.1,44.5,0c0.1,0,0.1,0.1,0.2,0.1
		c0.3,0.2,0.5,0.3,0.8,0.5c0,0,0.1,0.1,0.1,0.1c0.1,0.1,0.3,0.2,0.4,0.3c0.1,0.1,0.2,0.2,0.4,0.2c0.1,0.1,0.2,0.1,0.3,0.2
		c0,0,0,0,0,0c0.1,0.1,0.3,0.2,0.4,0.3c0.1,0,0.1,0.1,0.2,0.1c0.1,0.1,0.2,0.1,0.2,0.2c0.1,0,0.1,0.1,0.2,0.1
		c0.1,0.1,0.3,0.2,0.4,0.3c0.2,0.1,0.3,0.3,0.5,0.4c0.1,0.1,0.3,0.2,0.4,0.4c0,0,0.1,0.1,0.1,0.1c0,0,0,0,0.1,0.1
		c0.1,0.1,0.2,0.2,0.3,0.3c0,0,0,0,0,0c0.1,0.1,0.2,0.2,0.4,0.4c0,0,0,0,0,0c0.1,0.1,0.2,0.2,0.3,0.3c0,0,0,0,0.1,0.1
		c0.1,0.1,0.2,0.2,0.3,0.4c0.1,0.1,0.1,0.1,0.2,0.2c0.1,0.1,0.1,0.2,0.2,0.2c0,0,0,0,0,0c0.1,0.1,0.2,0.3,0.3,0.4
		c0.1,0.1,0.2,0.3,0.3,0.4c0.1,0.1,0.2,0.3,0.3,0.4c0,0,0,0,0,0c0.1,0.1,0.2,0.3,0.3,0.4c0,0,0,0,0,0c0.1,0.1,0.2,0.3,0.2,0.4
		c0.1,0.1,0.2,0.3,0.2,0.4c0.1,0.1,0.1,0.3,0.2,0.4c0,0,0,0,0,0c0.1,0.1,0.1,0.3,0.2,0.4c0,0,0,0,0,0c0.1,0.1,0.1,0.3,0.2,0.4
		c0,0,0,0,0,0c0.1,0.1,0.1,0.3,0.2,0.4c0,0,0,0,0,0c0,0.1,0.1,0.3,0.1,0.4c0,0.1,0.1,0.2,0.1,0.3c0,0,0,0.1,0,0.1c0,0,0,0,0,0
		c0,0.1,0.1,0.3,0.1,0.4c0,0.2,0.1,0.3,0.1,0.5c0,0.1,0,0.3,0.1,0.4c0,0.2,0,0.3,0.1,0.5c0,0.1,0,0.3,0,0.4
		C423,136.9,423.1,137.1,423.1,137.3C423.1,137.2,423.1,137.2,423.1,137.3z"/>
	<polygon class="st7" points="539.6,174.7 480.1,140.3 466,148.5 525.5,182.9 539.6,174.7 	"/>
	<path class="st7" d="M480.5,179.4C480.5,179.4,480.5,179.3,480.5,179.4c0-0.1-0.1-0.1-0.1-0.2v0c-0.1-0.2-0.2-0.3-0.3-0.5
		c0,0,0,0,0,0c0,0,0,0-0.1-0.1c0,0-0.1-0.1-0.1-0.1c-0.1-0.1-0.2-0.2-0.3-0.3c-0.1-0.1-0.1-0.1-0.2-0.2c-0.1-0.1-0.1-0.1-0.2-0.2
		c0,0-0.1-0.1-0.1-0.1c-0.1-0.1-0.2-0.2-0.3-0.3c0,0,0,0,0,0c-0.1-0.1-0.2-0.1-0.3-0.2c-0.2-0.2-0.5-0.3-0.7-0.5c0,0,0,0,0,0
		c-0.2-0.1-0.5-0.3-0.8-0.4c-1.8-0.9-4-1.3-6.3-1.3c0,0,0,0,0,0c-2.2,0-4.5,0.4-6.3,1.3c-0.3,0.1-0.5,0.3-0.8,0.4l0,0
		c-0.2,0.1-0.4,0.3-0.6,0.4c-0.2,0.1-0.4,0.3-0.5,0.4c0,0,0,0,0,0c0,0-0.1,0.1-0.1,0.1l0,0c0,0,0,0,0,0c-0.2,0.2-0.4,0.3-0.5,0.5
		c0,0,0,0,0,0c-0.1,0.2-0.3,0.3-0.4,0.5c0,0,0,0,0,0c0,0,0,0,0,0c-0.1,0.2-0.2,0.3-0.3,0.5c0,0,0,0,0,0c0,0.1,0,0.1-0.1,0.2
		c0,0,0,0,0,0c0,0.1-0.1,0.1-0.1,0.2c0,0,0,0.1-0.1,0.1c0,0,0,0.1,0,0.1c0,0,0,0.1,0,0.1c0,0.1-0.1,0.2-0.1,0.3c0,0.1,0,0.2,0,0.2
		c0,0.1,0,0.2,0,0.3c0,0,0,0,0,0c0,0,0,0,0,0c0,1.5,1,3,2.9,4.1c3.9,2.3,10.2,2.3,14.1,0c2.5-1.4,3.3-3.4,2.7-5.3
		C480.5,179.5,480.5,179.5,480.5,179.4z"/>
	<polygon class="st7" points="411.3,180.3 397.2,188.5 456.8,222.8 470.9,214.6 470.9,214.6 	"/>
	<path class="st2" d="M583.6,178.7c0,0.1,0,0.1,0,0.2c0,0.1,0,0.1-0.1,0.2c0,0.1,0,0.1,0,0.2c0,0.1-0.1,0.2-0.1,0.2
		c0,0.1,0,0.1-0.1,0.2c0,0.1-0.1,0.2-0.1,0.2c0,0.1-0.1,0.1-0.1,0.2c-0.1,0.1-0.1,0.1-0.2,0.2c0,0.1-0.1,0.1-0.1,0.2
		c-0.1,0.1-0.1,0.1-0.2,0.2c-0.1,0.1-0.1,0.1-0.2,0.2c-0.1,0.1-0.2,0.1-0.2,0.2c-0.1,0.1-0.1,0.1-0.2,0.2c-0.1,0.1-0.3,0.2-0.4,0.3
		c0,0-0.1,0-0.1,0.1l-1.8,1.1l-1,0.6l-109.9,63.9c-1.5,0.8-3.4,1.3-5.3,1.3c-1,0-1.9-0.1-2.8-0.3s-1.8-0.5-2.5-1l-128.2-74L201.7,99
		c-0.2-0.1-0.4-0.2-0.5-0.3c-0.1,0-0.1-0.1-0.1-0.1c-0.1-0.1-0.2-0.2-0.3-0.2c-0.1,0-0.1-0.1-0.2-0.1c-0.1-0.1-0.2-0.1-0.2-0.2
		c-0.1-0.1-0.1-0.1-0.1-0.2c-0.1-0.1-0.1-0.1-0.2-0.2c0-0.1-0.1-0.1-0.1-0.2c0-0.1-0.1-0.1-0.1-0.2c0-0.1-0.1-0.1-0.1-0.2
		c0-0.1-0.1-0.1-0.1-0.2c0-0.1,0-0.1,0-0.2c0-0.1,0-0.1-0.1-0.2c0-0.1,0-0.1,0-0.2c0-0.1,0-0.2,0-0.2c0,0,0,0,0,0l0,12.2
		c0,1.1,0.7,2.2,2.2,3.1l256.4,148c2.9,1.7,7.7,1.7,10.6,0l112.7-65.5c1.5-0.8,2.2-1.9,2.2-3.1l0-12.2
		C583.7,178.5,583.6,178.6,583.6,178.7z"/>
	<path class="st8" d="M82.3,325.2l11.6-6.7c17.3,8,34.9,8.2,47,1.1c13.3-7.8,7.9-17.9-1.4-26.5l-5.7-5.4c-5.1-4.7-9.5-10.3-3-14
		c5.8-3.3,15.5-2.7,24.5,2.6c8.6,5,10.5,10.5,4.7,14.8l14,8.1c11.3-6.9,10.7-17.2-1.6-26.3l11.6-6.8l-12.3-7.1l-11.8,6.9
		c-15.4-6.4-33-6.9-44.6-0.1c-11.1,6.4-9.2,14.8,0.7,24.3l6.9,6.6c6.5,6.2,9.7,11,3.7,14.5c-6.6,3.8-17.5,2.6-27-2.9
		c-9.1-5.2-12.2-11.6-4.7-16.6l-14.3-8.2c-12.9,8.1-12,18.2,1.1,27.9L70,318.1L82.3,325.2z"/>
</g>
<path class="st5" d="M406.5,128.4c-0.2-0.1-0.5-0.1-0.8-0.1v0C406,128.4,406.3,128.4,406.5,128.4z"/>
<polygon class="st6" points="405.7,128.4 396.5,128.4 405.7,128.4 "/>
<path class="st6" d="M407.1,128.7c-0.2-0.1-0.4-0.2-0.6-0.2s-0.5-0.1-0.8-0.1C406.3,128.4,406.8,128.5,407.1,128.7z"/>
<path class="st8" d="M407.1,128.7c-0.4-0.2-0.9-0.3-1.4-0.3l-9.3,0c-0.3,0-0.5,0-0.8,0.1c-0.5,0.1-0.9,0.3-1.1,0.6
	c-0.1,0.1-0.2,0.3-0.2,0.4c0,0.3,0.2,0.6,0.6,0.8c0.4,0.2,0.9,0.3,1.4,0.3l4.4,0l-24,13.9c-0.3,0.2-0.5,0.4-0.5,0.6
	c0,0.1,0,0.1,0,0.2c0,0.3,0.2,0.6,0.6,0.8c0.8,0.5,2.1,0.5,2.8,0l27.4-15.9c0.3-0.2,0.5-0.4,0.5-0.6s0-0.5-0.1-0.7
	C407.5,128.9,407.3,128.8,407.1,128.7z"/>
</svg>
