<svg fill="none" height="89" viewBox="0 0 89 89" width="89" xmlns="http://www.w3.org/2000/svg" xmlns:xlink="http://www.w3.org/1999/xlink"><clipPath id="a"><path d="m.023438 15.2625h72v72h-72z"/></clipPath><clipPath id="b"><path d="m47.0234.262451h40v40h-40z"/></clipPath><clipPath id="c"><path d="m51.0234 4.26245h32v32h-32z"/></clipPath><g clip-path="url(#a)"><path clip-rule="evenodd" d="m64.038 43.3969 7.9854 9.0982-7.9854 9.0981 1.1127 12.0437-11.8145 2.6836-6.1855 10.4073-11.1273-4.7782-11.1272 4.8109-6.1855-10.4073-11.81454-2.6836 1.11273-12.0764-7.9854525-9.0981 7.9854525-9.131-1.11273-12.0436 11.81454-2.6509 6.1855-10.4073 11.1272 4.7782 11.1273-4.7782 6.1855 10.4073 11.8145 2.6836zm-40.0301 5.8988 6.8655 6.8655 17.4454-17.4289 4.9256 4.9255-22.3716 22.3716-11.8167-11.8167z" fill="#0c6cf2" fill-rule="evenodd"/></g><g clip-path="url(#b)"><circle cx="67.0234" cy="20.2625" fill="#fff" r="20"/><g clip-path="url(#c)"><path d="m67.0234 4.26245c-8.832 0-16 7.16805-16 16.00005s7.168 16 16 16 16-7.168 16-16-7.168-16.00005-16-16.00005zm1.6 24.00005h-3.2v-9.6h3.2zm0-12.8h-3.2v-3.2h3.2z" fill="#ffa133"/></g></g></svg>