<svg width="89" height="89" viewBox="0 0 89 89" fill="none" xmlns="http://www.w3.org/2000/svg">
<g clip-path="url(#clip0_777_10826)">
<path fill-rule="evenodd" clip-rule="evenodd" d="M64.038 43.3969L72.0234 52.4951L64.038 61.5932L65.1507 73.6369L53.3362 76.3205L47.1507 86.7278L36.0234 81.9496L24.8962 86.7605L18.7107 76.3532L6.89616 73.6696L8.00889 61.5932L0.0234375 52.4951L8.00889 43.3641L6.89616 31.3205L18.7107 28.6696L24.8962 18.2623L36.0234 23.0405L47.1507 18.2623L53.3362 28.6696L65.1507 31.3532L64.038 43.3969ZM24.0079 49.2957L30.8734 56.1612L48.3188 38.7323L53.2444 43.6578L30.8728 66.0294L19.0561 54.2127L24.0079 49.2957Z" fill="#0C6CF2"/>
</g>
<g clip-path="url(#clip1_777_10826)">
<circle cx="67.0234" cy="20.2625" r="20" fill="white"/>
<g clip-path="url(#clip2_777_10826)">
<path d="M67.0234 4.26245C58.1914 4.26245 51.0234 11.4305 51.0234 20.2625C51.0234 29.0945 58.1914 36.2625 67.0234 36.2625C75.8554 36.2625 83.0234 29.0945 83.0234 20.2625C83.0234 11.4305 75.8554 4.26245 67.0234 4.26245ZM68.6234 28.2625H65.4234V18.6625H68.6234V28.2625ZM68.6234 15.4625H65.4234V12.2625H68.6234V15.4625Z" fill="#FFA133"/>
</g>
</g>
<defs>
<clipPath id="clip0_777_10826">
<rect width="72" height="72" fill="white" transform="translate(0.0234375 15.2625)"/>
</clipPath>
<clipPath id="clip1_777_10826">
<rect width="40" height="40" fill="white" transform="translate(47.0234 0.262451)"/>
</clipPath>
<clipPath id="clip2_777_10826">
<rect width="32" height="32" fill="white" transform="translate(51.0234 4.26245)"/>
</clipPath>
</defs>
</svg>
