<svg fill="none" height="32" viewBox="0 0 32 32" width="32" xmlns="http://www.w3.org/2000/svg"><path d="m0 10c0-2.20914 1.79086-4 4-4h24c2.2091 0 4 1.79086 4 4v12c0 2.2091-1.7909 4-4 4h-24c-2.20914 0-4-1.7909-4-4z" fill="#f0f2f7"/><g fill="#15195a"><path d="m21.4477 12.5701c-.3834-.1521-.9917-.3201-1.7437-.3201-1.92 0-3.272 1.0238-3.2803 2.4875-.0159 1.08.968 1.6798 1.7039 2.0399.7522.3679 1.0079.6081 1.0079.9361-.0077.5037-.6078.7359-1.1675.7359-.7762 0-1.1921-.1197-1.8242-.4l-.256-.1201-.272 1.6878c.4559.2078 1.296.3921 2.1682.4002 2.04 0 3.3681-1.008 3.3838-2.5678.0078-.8559-.5118-1.5118-1.6319-2.0477-.68-.344-1.0964-.576-1.0964-.928.0079-.32.3522-.6478 1.1198-.6478.632-.0161 1.0964.1359 1.4482.2879l.1758.0798z"/><path d="m14.4 19.9053h-1.9442l1.216-7.519h1.9441z"/><path clip-rule="evenodd" d="m24.9277 12.3863h1.5038l1.5685 7.5189h-1.8001s-.1762-.864-.232-1.1279h-2.4961l-.4081 1.1279h-2.0399l2.8878-6.895c.2001-.488.5524-.6239 1.0161-.6239zm-.1198 2.7515s-.6161 1.6718-.7762 2.1038h1.616c-.08-.376-.4481-2.1758-.4481-2.1758l-.1359-.6478c-.0572.1667-.1398.3959-.1957.5506l-.0003.0009c-.0377.1045-.063.1748-.0598.1683z" fill-rule="evenodd"/><path d="m10.8319 12.3863-1.90393 5.1272-.20806-1.0398c-.00005-.0002.00005.0001 0 0l-.67997-3.4554c-.11195-.4802-.45598-.6162-.87996-.632h-3.12798l-.032.1519c.76289.1951 1.44523.4762 2.0431.8258l1.73285 6.5333h2.0559l3.05585-7.511z"/></g></svg>