<svg width="33" height="32" viewBox="0 0 33 32" fill="none" xmlns="http://www.w3.org/2000/svg">
<path d="M3.16797 21.3333V6.66667C3.16797 5.19391 4.36187 4 5.83463 4H27.168C28.6407 4 29.8346 5.19391 29.8346 6.66667V21.3333C29.8346 22.8061 28.6407 24 27.168 24H5.83464C4.36188 24 3.16797 22.8061 3.16797 21.3333Z" fill="white"/>
<path d="M3.16797 21.3333V6.66667C3.16797 5.19391 4.36187 4 5.83463 4H27.168C28.6407 4 29.8346 5.19391 29.8346 6.66667V21.3333C29.8346 22.8061 28.6407 24 27.168 24H5.83464C4.36188 24 3.16797 22.8061 3.16797 21.3333Z" fill="#5322E5" fill-opacity="0.36"/>
<path d="M3.16797 21.3333V6.66667C3.16797 5.19391 4.36187 4 5.83463 4H27.168C28.6407 4 29.8346 5.19391 29.8346 6.66667V21.3333C29.8346 22.8061 28.6407 24 27.168 24H5.83464C4.36188 24 3.16797 22.8061 3.16797 21.3333V21.3333Z" stroke="#7349F2" stroke-width="2" stroke-linecap="round" stroke-linejoin="round"/>
<path d="M3.16797 21.3335V13.3335H29.8346V21.3335C29.8346 22.8063 28.6407 24.0002 27.168 24.0002H5.83464C4.36188 24.0002 3.16797 22.8063 3.16797 21.3335Z" fill="white" stroke="#7349F2" stroke-width="2" stroke-linecap="round" stroke-linejoin="round"/>
<path d="M3.16797 22.5585V6.77485C3.16797 5.40974 4.50536 4.4458 5.80042 4.87748L21.3446 10.0589C22.4335 10.4218 23.168 11.4409 23.168 12.5887V26.9669C23.168 28.787 21.3848 30.0723 19.658 29.4967L4.53551 24.4558C3.71883 24.1836 3.16797 23.4193 3.16797 22.5585Z" fill="white"/>
<path d="M3.16797 22.5585V6.77485C3.16797 5.40974 4.50536 4.4458 5.80042 4.87748L21.3446 10.0589C22.4335 10.4218 23.168 11.4409 23.168 12.5887V26.9669C23.168 28.787 21.3848 30.0723 19.658 29.4967L4.53551 24.4558C3.71883 24.1836 3.16797 23.4193 3.16797 22.5585Z" fill="#5322E5" fill-opacity="0.36"/>
<path d="M3.16797 22.5585V6.77485C3.16797 5.40974 4.50536 4.4458 5.80042 4.87748L21.3446 10.0589C22.4335 10.4218 23.168 11.4409 23.168 12.5887V26.9669C23.168 28.787 21.3848 30.0723 19.658 29.4967L4.53551 24.4558C3.71883 24.1836 3.16797 23.4193 3.16797 22.5585V22.5585Z" stroke="#7349F2" stroke-width="2" stroke-linecap="round" stroke-linejoin="round"/>
<path d="M17.168 21.3335C18.2725 21.3335 19.168 20.4381 19.168 19.3335C19.168 18.2289 18.2725 17.3335 17.168 17.3335C16.0634 17.3335 15.168 18.2289 15.168 19.3335C15.168 20.4381 16.0634 21.3335 17.168 21.3335Z" fill="white" stroke="#7349F2" stroke-width="2"/>
</svg>
