<svg width="40" height="40" viewBox="0 0 40 40" fill="none" xmlns="http://www.w3.org/2000/svg">
<circle cx="20" cy="20" r="20" fill="#EFECFE"/>
<path d="M10.001 24V13C10.001 11.8954 10.8964 11 12.001 11H28.001C29.1055 11 30.0009 11.8954 30.0009 13V24C30.0009 25.1046 29.1055 26 28.001 26H12.001C10.8964 26 10.001 25.1046 10.001 24Z" fill="white"/>
<path d="M10.001 24V13C10.001 11.8954 10.8964 11 12.001 11H28.001C29.1055 11 30.0009 11.8954 30.0009 13V24C30.0009 25.1046 29.1055 26 28.001 26H12.001C10.8964 26 10.001 25.1046 10.001 24Z" fill="#5322E5" fill-opacity="0.36"/>
<path d="M10.001 24V13C10.001 11.8954 10.8964 11 12.001 11H28.001C29.1055 11 30.001 11.8954 30.001 13V24C30.001 25.1046 29.1055 26 28.001 26H12.001C10.8964 26 10.001 25.1046 10.001 24V24Z" stroke="#7349F2" stroke-width="2" stroke-linecap="round" stroke-linejoin="round"/>
<path d="M10.001 24V18H30.0009V24C30.0009 25.1046 29.1055 26 28.001 26H12.001C10.8964 26 10.001 25.1046 10.001 24Z" fill="white" stroke="#7349F2" stroke-width="2" stroke-linecap="round" stroke-linejoin="round"/>
<path d="M10.001 24.919V13.0812C10.001 12.0574 11.004 11.3344 11.9753 11.6582L23.6334 15.5443C24.4501 15.8164 25.001 16.5808 25.001 17.4416V28.2253C25.001 29.5903 23.6636 30.5543 22.3685 30.1226L11.0266 26.3419C10.4141 26.1378 10.001 25.5646 10.001 24.919Z" fill="white"/>
<path d="M10.001 24.919V13.0812C10.001 12.0574 11.004 11.3344 11.9753 11.6582L23.6334 15.5443C24.4501 15.8164 25.001 16.5808 25.001 17.4416V28.2253C25.001 29.5903 23.6636 30.5543 22.3685 30.1226L11.0266 26.3419C10.4141 26.1378 10.001 25.5646 10.001 24.919Z" fill="#5322E5" fill-opacity="0.36"/>
<path d="M10.001 24.919V13.0812C10.001 12.0574 11.004 11.3344 11.9753 11.6582L23.6334 15.5443C24.4501 15.8164 25.001 16.5808 25.001 17.4416V28.2253C25.001 29.5903 23.6636 30.5543 22.3685 30.1226L11.0266 26.3419C10.4141 26.1378 10.001 25.5646 10.001 24.919V24.919Z" stroke="#7349F2" stroke-width="2" stroke-linecap="round" stroke-linejoin="round"/>
<path d="M20.501 24C21.3294 24 22.001 23.3284 22.001 22.5C22.001 21.6716 21.3294 21 20.501 21C19.6725 21 19.001 21.6716 19.001 22.5C19.001 23.3284 19.6725 24 20.501 24Z" fill="white" stroke="#7349F2" stroke-width="2"/>
</svg>
