<svg width="64" height="64" viewBox="0 0 64 64" fill="none" xmlns="http://www.w3.org/2000/svg">
<circle cx="32" cy="32" r="32" fill="#EFECFE"/>
<path d="M15.335 38.6666V20.3333C15.335 18.4924 16.8273 17 18.6683 17H45.335C47.1759 17 48.6683 18.4924 48.6683 20.3333V38.6666C48.6683 40.5076 47.1759 42 45.335 42H18.6683C16.8273 42 15.335 40.5076 15.335 38.6666Z" fill="white"/>
<path d="M15.335 38.6666V20.3333C15.335 18.4924 16.8273 17 18.6683 17H45.335C47.1759 17 48.6683 18.4924 48.6683 20.3333V38.6666C48.6683 40.5076 47.1759 42 45.335 42H18.6683C16.8273 42 15.335 40.5076 15.335 38.6666Z" fill="#5322E5" fill-opacity="0.36"/>
<path d="M15.335 38.6666V20.3333C15.335 18.4924 16.8273 17 18.6683 17H45.335C47.1759 17 48.6683 18.4924 48.6683 20.3333V38.6666C48.6683 40.5076 47.1759 42 45.335 42H18.6683C16.8273 42 15.335 40.5076 15.335 38.6666V38.6666Z" stroke="#7349F2" stroke-width="2" stroke-linecap="round" stroke-linejoin="round"/>
<path d="M15.335 38.667V28.667H48.6683V38.667C48.6683 40.508 47.1759 42.0004 45.335 42.0004H18.6683C16.8273 42.0004 15.335 40.508 15.335 38.667Z" fill="white" stroke="#7349F2" stroke-width="2" stroke-linecap="round" stroke-linejoin="round"/>
<path d="M15.335 40.1983V20.4687C15.335 18.7623 17.0067 17.5574 18.6255 18.097L38.0557 24.5738C39.4169 25.0274 40.335 26.3013 40.335 27.736V45.7088C40.335 47.9839 38.106 49.5905 35.9475 48.871L17.0444 42.5699C16.0235 42.2296 15.335 41.2743 15.335 40.1983Z" fill="white"/>
<path d="M15.335 40.1983V20.4687C15.335 18.7623 17.0067 17.5574 18.6255 18.097L38.0557 24.5738C39.4169 25.0274 40.335 26.3013 40.335 27.736V45.7088C40.335 47.9839 38.106 49.5905 35.9475 48.871L17.0444 42.5699C16.0235 42.2296 15.335 41.2743 15.335 40.1983Z" fill="#5322E5" fill-opacity="0.36"/>
<path d="M15.335 40.1983V20.4687C15.335 18.7623 17.0067 17.5574 18.6255 18.097L38.0557 24.5738C39.4169 25.0274 40.335 26.3013 40.335 27.736V45.7088C40.335 47.9839 38.106 49.5905 35.9475 48.871L17.0444 42.5699C16.0235 42.2296 15.335 41.2743 15.335 40.1983V40.1983Z" stroke="#7349F2" stroke-width="2" stroke-linecap="round" stroke-linejoin="round"/>
<path d="M32.835 38.667C34.2157 38.667 35.335 37.5477 35.335 36.167C35.335 34.7863 34.2157 33.667 32.835 33.667C31.4542 33.667 30.335 34.7863 30.335 36.167C30.335 37.5477 31.4542 38.667 32.835 38.667Z" fill="white" stroke="#7349F2" stroke-width="2"/>
</svg>
