<svg fill="none" height="64" viewBox="0 0 64 64" width="64" xmlns="http://www.w3.org/2000/svg"><circle cx="32" cy="32" fill="#efecfe" r="32"/><path d="m15.335 38.6666v-18.3333c0-1.8409 1.4923-3.3333 3.3333-3.3333h26.6667c1.8409 0 3.3333 1.4924 3.3333 3.3333v18.3333c0 1.841-1.4924 3.3334-3.3333 3.3334h-26.6667c-1.841 0-3.3333-1.4924-3.3333-3.3334z" fill="#fff"/><path d="m15.335 38.6666v-18.3333c0-1.8409 1.4923-3.3333 3.3333-3.3333h26.6667c1.8409 0 3.3333 1.4924 3.3333 3.3333v18.3333c0 1.841-1.4924 3.3334-3.3333 3.3334h-26.6667c-1.841 0-3.3333-1.4924-3.3333-3.3334z" fill="#5322e5" fill-opacity=".36"/><path d="m15.335 38.6666v-18.3333c0-1.8409 1.4923-3.3333 3.3333-3.3333h26.6667c1.8409 0 3.3333 1.4924 3.3333 3.3333v18.3333c0 1.841-1.4924 3.3334-3.3333 3.3334h-26.6667c-1.841 0-3.3333-1.4924-3.3333-3.3334z" stroke="#7349f2" stroke-linecap="round" stroke-linejoin="round" stroke-width="2"/><path d="m15.335 38.667v-10h33.3333v10c0 1.841-1.4924 3.3334-3.3333 3.3334h-26.6667c-1.841 0-3.3333-1.4924-3.3333-3.3334z" fill="#fff" stroke="#7349f2" stroke-linecap="round" stroke-linejoin="round" stroke-width="2"/><path d="m15.335 40.1983v-19.7296c0-1.7064 1.6717-2.9113 3.2905-2.3717l19.4302 6.4768c1.3612.4536 2.2793 1.7275 2.2793 3.1622v17.9728c0 2.2751-2.229 3.8817-4.3875 3.1622l-18.9031-6.3011c-1.0209-.3403-1.7094-1.2956-1.7094-2.3716z" fill="#fff"/><path d="m15.335 40.1983v-19.7296c0-1.7064 1.6717-2.9113 3.2905-2.3717l19.4302 6.4768c1.3612.4536 2.2793 1.7275 2.2793 3.1622v17.9728c0 2.2751-2.229 3.8817-4.3875 3.1622l-18.9031-6.3011c-1.0209-.3403-1.7094-1.2956-1.7094-2.3716z" fill="#5322e5" fill-opacity=".36"/><g stroke="#7349f2" stroke-width="2"><path d="m15.335 40.1983v-19.7296c0-1.7064 1.6717-2.9113 3.2905-2.3717l19.4302 6.4768c1.3612.4536 2.2793 1.7275 2.2793 3.1622v17.9728c0 2.2751-2.229 3.8817-4.3875 3.1622l-18.9031-6.3011c-1.0209-.3403-1.7094-1.2956-1.7094-2.3716z" stroke-linecap="round" stroke-linejoin="round"/><path d="m32.835 38.667c1.3807 0 2.5-1.1193 2.5-2.5s-1.1193-2.5-2.5-2.5c-1.3808 0-2.5 1.1193-2.5 2.5s1.1192 2.5 2.5 2.5z" fill="#fff"/></g></svg>