<svg fill="none" height="32" viewBox="0 0 33 32" width="33" xmlns="http://www.w3.org/2000/svg"><path d="m3.16797 21.3333v-14.66663c0-1.47276 1.1939-2.66667 2.66666-2.66667h21.33337c1.4727 0 2.6666 1.19391 2.6666 2.66667v14.66663c0 1.4728-1.1939 2.6667-2.6666 2.6667h-21.33336c-1.47276 0-2.66667-1.1939-2.66667-2.6667z" fill="#fff"/><path d="m3.16797 21.3333v-14.66663c0-1.47276 1.1939-2.66667 2.66666-2.66667h21.33337c1.4727 0 2.6666 1.19391 2.6666 2.66667v14.66663c0 1.4728-1.1939 2.6667-2.6666 2.6667h-21.33336c-1.47276 0-2.66667-1.1939-2.66667-2.6667z" fill="#98a1b2" fill-opacity=".36"/><path d="m3.16797 21.3333v-14.66663c0-1.47276 1.1939-2.66667 2.66666-2.66667h21.33337c1.4727 0 2.6666 1.19391 2.6666 2.66667v14.66663c0 1.4728-1.1939 2.6667-2.6666 2.6667h-21.33336c-1.47276 0-2.66667-1.1939-2.66667-2.6667z" stroke="#98a1b2" stroke-linecap="round" stroke-linejoin="round" stroke-width="2"/><path d="m3.16797 21.3335v-8h26.66663v8c0 1.4728-1.1939 2.6667-2.6666 2.6667h-21.33336c-1.47276 0-2.66667-1.1939-2.66667-2.6667z" fill="#fff" stroke="#98a1b2" stroke-linecap="round" stroke-linejoin="round" stroke-width="2"/><path d="m3.16797 22.5586v-15.78363c0-1.36511 1.33739-2.32905 2.63245-1.89737l15.54418 5.1814c1.0889.3629 1.8234 1.382 1.8234 2.5298v14.3782c0 1.8201-1.7832 3.1054-3.51 2.5298l-15.12249-5.0409c-.81668-.2722-1.36754-1.0365-1.36754-1.8973z" fill="#fff"/><path d="m3.16797 22.5586v-15.78363c0-1.36511 1.33739-2.32905 2.63245-1.89737l15.54418 5.1814c1.0889.3629 1.8234 1.382 1.8234 2.5298v14.3782c0 1.8201-1.7832 3.1054-3.51 2.5298l-15.12249-5.0409c-.81668-.2722-1.36754-1.0365-1.36754-1.8973z" fill="#98a1b2" fill-opacity=".36"/><g stroke="#98a1b2" stroke-width="2"><path d="m3.16797 22.5586v-15.78363c0-1.36511 1.33739-2.32905 2.63245-1.89737l15.54418 5.1814c1.0889.3629 1.8234 1.382 1.8234 2.5298v14.3782c0 1.8201-1.7832 3.1054-3.51 2.5298l-15.12249-5.0409c-.81668-.2722-1.36754-1.0365-1.36754-1.8973z" stroke-linecap="round" stroke-linejoin="round"/><path d="m17.168 21.3335c1.1046 0 2-.8954 2-2s-.8954-2-2-2-2 .8954-2 2 .8954 2 2 2z" fill="#fff"/></g></svg>