<svg width="64" height="64" viewBox="0 0 64 64" fill="none" xmlns="http://www.w3.org/2000/svg">
<g clip-path="url(#clip0)">
<path d="M32 64C49.6731 64 64 49.6731 64 32C64 14.3269 49.6731 0 32 0C14.3269 0 0 14.3269 0 32C0 49.6731 14.3269 64 32 64Z" fill="#FFE738"/>
<path d="M43.2914 39.3769L41.7103 38.9533C42.0189 38.2644 42.2864 37.5232 42.4965 36.7391L43.3438 33.5769L32.6617 30.7146L31.6628 34.4424L37.7301 36.0682C37.5554 36.6689 37.3267 37.2138 37.057 37.7064L31.2082 36.1392L30.6226 38.3245L35.4174 39.6092C33.9132 40.7493 31.8709 41.07 29.5442 40.4466C25.1351 39.2652 22.9995 35.1521 24.5977 29.1876C26.1856 23.2617 30.1395 20.7941 34.3944 21.9342C37.5695 22.785 39.2744 25.0604 39.3753 28.0772L44.2343 29.3792C44.8091 23.9946 41.3002 19.1967 35.4771 17.6364C28.5871 15.7903 22.0625 19.4703 19.7892 27.9543C17.5572 36.284 21.1087 42.7742 28.3716 44.7203C33.3077 46.0429 37.8339 44.6793 40.5206 40.9766L42.7059 41.5622L43.2914 39.3769Z" fill="black"/>
<path d="M29.995 4C16.0901 4.98134 4.98134 16.0901 4 29.995H8.02192C8.98624 18.306 18.306 8.98624 29.995 8.02192V4Z" fill="#A39424"/>
<path d="M34.005 8.02192C45.694 8.98624 55.0138 18.306 55.9781 29.995H60C59.0187 16.0901 47.9099 4.98134 34.005 4V8.02192Z" fill="#A39424"/>
<path d="M60 34.005H55.9781C55.0138 45.694 45.694 55.0138 34.005 55.9781V60C47.9099 59.0187 59.0187 47.9099 60 34.005Z" fill="#A39424"/>
<path d="M29.995 60V55.9781C18.306 55.0138 8.98624 45.694 8.02192 34.005H4C4.98134 47.9099 16.0901 59.0187 29.995 60Z" fill="#A39424"/>
</g>
<defs>
<clipPath id="clip0">
<rect width="64" height="64" fill="white"/>
</clipPath>
</defs>
</svg>
