<svg width="25" height="25" viewBox="0 0 25 25" fill="none" xmlns="http://www.w3.org/2000/svg">
<g clip-path="url(#clip0_364_10615)">
<path fill-rule="evenodd" clip-rule="evenodd" d="M22.0257 9.87806L24.6875 12.9108L22.0257 15.9435L22.3966 19.9581L18.4584 20.8526L16.3966 24.3217L12.6875 22.729L8.97841 24.3326L6.91659 20.8635L2.97841 19.969L3.34932 15.9435L0.6875 12.9108L3.34932 9.86715L2.97841 5.85261L6.91659 4.96897L8.97841 1.49988L12.6875 3.09261L16.3966 1.49988L18.4584 4.96897L22.3966 5.86351L22.0257 9.87806ZM8.68233 11.8443L10.9708 14.1328L16.7859 8.32319L18.4278 9.96505L10.9706 17.4222L7.03171 13.4833L8.68233 11.8443Z" fill="white"/>
</g>
<defs>
<clipPath id="clip0_364_10615">
<rect width="24" height="24" fill="white" transform="translate(0.6875 0.499878)"/>
</clipPath>
</defs>
</svg>
