<svg fill="none" height="24" viewBox="0 0 24 24" width="24" xmlns="http://www.w3.org/2000/svg"><circle cx="12" cy="12" fill="#d8ebfd" r="12"/><path d="m17.2263 10.0676c.2928.2929.2928.7678 0 1.0607l-.3554.3554c-.2929.2928-.7678.2928-1.0607 0l-2.7052-2.7053v9.4096c0 .4142-.3358.75-.75.75h-.5025c-.4142 0-.75-.3358-.75-.75v-9.42121l-2.71685 2.71681c-.29289.2929-.76777.2929-1.06066 0l-.35532-.3553c-.29289-.2929-.29289-.7678 0-1.0607l4.59793-4.59793c.2929-.29289.7678-.29289 1.0607 0z" fill="#0c6cf2"/></svg>