<svg fill="none" height="104" viewBox="0 0 287 104" width="287" xmlns="http://www.w3.org/2000/svg" xmlns:xlink="http://www.w3.org/1999/xlink"><filter id="a" color-interpolation-filters="sRGB" filterUnits="userSpaceOnUse" height="109.823" width="109.823" x="89.0884" y="0"><feFlood flood-opacity="0" result="BackgroundImageFix"/><feColorMatrix in="SourceAlpha" type="matrix" values="0 0 0 0 0 0 0 0 0 0 0 0 0 0 0 0 0 0 127 0"/><feOffset dy="4"/><feGaussianBlur stdDeviation="2"/><feColorMatrix type="matrix" values="0 0 0 0 0 0 0 0 0 0 0 0 0 0 0 0 0 0 0.25 0"/><feBlend in2="BackgroundImageFix" mode="normal" result="effect1_dropShadow"/><feBlend in="SourceGraphic" in2="effect1_dropShadow" mode="normal" result="shape"/></filter><filter id="b" color-interpolation-filters="sRGB" filterUnits="userSpaceOnUse" height="64" width="64" x="223" y="23"><feFlood flood-opacity="0" result="BackgroundImageFix"/><feColorMatrix in="SourceAlpha" type="matrix" values="0 0 0 0 0 0 0 0 0 0 0 0 0 0 0 0 0 0 127 0"/><feOffset dy="4"/><feGaussianBlur stdDeviation="2"/><feColorMatrix type="matrix" values="0 0 0 0 0 0 0 0 0 0 0 0 0 0 0 0 0 0 0.25 0"/><feBlend in2="BackgroundImageFix" mode="normal" result="effect1_dropShadow"/><feBlend in="SourceGraphic" in2="effect1_dropShadow" mode="normal" result="shape"/></filter><filter id="c" color-interpolation-filters="sRGB" filterUnits="userSpaceOnUse" height="64" width="64" x="0" y="23"><feFlood flood-opacity="0" result="BackgroundImageFix"/><feColorMatrix in="SourceAlpha" type="matrix" values="0 0 0 0 0 0 0 0 0 0 0 0 0 0 0 0 0 0 127 0"/><feOffset dy="4"/><feGaussianBlur stdDeviation="2"/><feColorMatrix type="matrix" values="0 0 0 0 0 0 0 0 0 0 0 0 0 0 0 0 0 0 0.25 0"/><feBlend in2="BackgroundImageFix" mode="normal" result="effect1_dropShadow"/><feBlend in="SourceGraphic" in2="effect1_dropShadow" mode="normal" result="shape"/></filter><clipPath id="d"><path d="m130 28h28v46.6783h-28z"/></clipPath><clipPath id="e"><path d="m237 33h36v36h-36z"/></clipPath><rect fill="#0c6cf2" height="2" rx="1" width="171" x="58" y="50"/><g filter="url(#a)"><rect fill="#0074bd" height="72" rx="16" transform="matrix(.70710678 .70710678 -.70710678 .70710678 42.176624 -101.823376)" width="72" x="144"/><g clip-path="url(#d)" fill="#fff"><path d="m143.511 40.3591 1.851-.5935 10.404-3.3865-25.766-8.3791v7.9601z"/><path d="m130 38.2644v6.4938l9.985-3.2469z"/><path d="m145.781 51.3216-3.527 1.187-12.219 3.9452h-.035v7.9601l12.499-4.0499 11.975-3.9102 3.526-1.1521v-7.9252l-12.185 3.9451z"/><path d="m158 37.1123-12.219 3.9801-3.527 1.1521-.104.0349h-.035l-12.08 3.9102-.035.0349v2.3043 5.6209l8.693-2.793v-.0349l3.561-1.1521 12.22-3.9452.035-.0349 3.491-1.1172v-.0349z"/><path d="m145.815 61.586-15.815 5.1322v7.9601l28-9.1122v-7.9252z"/></g></g><g filter="url(#b)"><rect fill="#fff" height="56" rx="8" width="56" x="227" y="23"/><g clip-path="url(#e)"><path d="m246 48.1875v8.3125h3.375v-8.3125zm6.75 0v8.3125h3.375v-8.3125zm-9 14.25h21.375v-3.5625h-21.375zm15.75-14.25v8.3125h3.375v-8.3125zm-5.062-10.6875-10.688 5.9375v2.375h21.375v-2.375z" fill="#121d33"/></g><rect height="54" rx="7" stroke="#f0f2f7" stroke-width="2" width="54" x="228" y="24"/></g><g filter="url(#c)"><rect fill="#fff" height="56" rx="8" width="56" x="4" y="23"/><path d="m18.738 46.6292-1.46 1.46c-.4041.3882-.7256.854-.9452 1.3695s-.3328 1.0701-.3328 1.6305c0 .5603.1132 1.1149.3328 1.6304s.5411.9814.9452 1.3696l11.762 11.878c.2788.2852.6032.5218.96.7v-14.398z" fill="#3d89f5"/><path d="m45.262 46.6292 1.46 1.46c.4041.3882.7256.854.9452 1.3695s.3328 1.0701.3328 1.6305c0 .5603-.1132 1.1149-.3328 1.6304s-.5411.9814-.9452 1.3696l-11.762 11.878c-.2788.2852-.6032.5218-.96.7v-14.398z" fill="#1656b9"/><path d="m42.4382 43.6493-7.36-7.38c-.3896-.4016-.8559-.7209-1.3712-.9389-.5154-.2181-1.0692-.3304-1.6288-.3304-.5595 0-1.1134.1123-1.6287.3304-.5153.218-.9816.5373-1.3713.9389l-7.38 7.38 10.34 5.16z" fill="#85b5f8"/><rect height="54" rx="7" stroke="#f0f2f7" stroke-width="2" width="54" x="5" y="24"/></g></svg>