<svg fill="none" height="64" viewBox="0 0 438 64" width="438" xmlns="http://www.w3.org/2000/svg"><path d="m4.10706 25.6934-2.18999 2.19c-.60615.5823-1.088401 1.281-1.417833 2.0543-.329431.7733-.499237 1.6051-.499237 2.4457 0 .8405.169806 1.6724.499237 2.4456.329432.7733.811683 1.4721 1.417833 2.0544l17.64293 17.817c.4182.4278.9049.7827 1.44 1.05v-21.597z" fill="#3d89f5"/><path d="m43.8929 25.6934 2.19 2.19c.6062.5823 1.0884 1.281 1.4179 2.0543.3294.7733.4992 1.6051.4992 2.4457 0 .8405-.1698 1.6724-.4992 2.4456-.3295.7733-.8117 1.4721-1.4179 2.0544l-17.6429 17.817c-.4182.4278-.9049.7827-1.44 1.05v-21.597z" fill="#1656b9"/><path d="m39.6569 21.2234-11.04-11.07c-.5845-.60237-1.2839-1.0813-2.0569-1.40834s-1.6038-.49555-2.4431-.49555-1.6702.16851-2.4431.49555c-.773.32704-1.4725.80597-2.0569 1.40834l-11.07002 11.07 15.51002 7.74z" fill="#85b5f8"/><path d="m67.1605 50h15.5362c8.1676 0 12.5178-4.2614 12.5178-10.0497 0-5.38-3.853-8.6293-7.9901-8.8246v-.3551c3.782-.8523 6.5696-3.5334 6.5696-7.8125 0-5.451-4.0483-9.3217-12.0738-9.3217h-14.5597zm7.6882-6.2855v-9.6591h6.4453c3.6932 0 5.9837 2.1307 5.9837 5.1314 0 2.7344-1.8643 4.5277-6.1612 4.5277zm0-14.8615v-9.0021h5.8416c3.4091 0 5.3445 1.7578 5.3445 4.3856 0 2.8764-2.3437 4.6165-5.4865 4.6165zm31.5403-15.2166h-7.5639v36.3636h7.5639zm17.132 36.8963c8.274 0 13.423-5.6641 13.423-14.0625 0-8.4517-5.149-14.098-13.423-14.098-8.275 0-13.424 5.6463-13.424 14.098 0 8.3984 5.149 14.0625 13.424 14.0625zm.035-5.8594c-3.817 0-5.77-3.4979-5.77-8.2564s1.953-8.2741 5.77-8.2741c3.747 0 5.7 3.5156 5.7 8.2741s-1.953 8.2564-5.7 8.2564zm29.379 5.8594c7.262 0 11.825-4.2614 12.18-10.5291h-7.138c-.444 2.9119-2.361 4.5454-4.954 4.5454-3.533 0-5.823-2.9652-5.823-8.1854 0-5.1491 2.308-8.0966 5.823-8.0966 2.77 0 4.546 1.8289 4.954 4.5455h7.138c-.32-6.3033-5.096-10.4403-12.216-10.4403-8.274 0-13.388 5.735-13.388 14.098 0 8.2919 5.025 14.0625 13.424 14.0625zm15.773-.5327h7.564v-8.6648l2.042-2.326 7.439 10.9908h8.86l-10.635-15.4652 10.121-11.8075h-8.683l-8.736 10.3515h-.408v-19.4424h-7.564zm39.051.5327c7.262 0 11.825-4.2614 12.18-10.5291h-7.138c-.443 2.9119-2.361 4.5454-4.953 4.5454-3.534 0-5.824-2.9652-5.824-8.1854 0-5.1491 2.308-8.0966 5.824-8.0966 2.77 0 4.545 1.8289 4.953 4.5455h7.138c-.319-6.3033-5.096-10.4403-12.216-10.4403-8.274 0-13.387 5.735-13.387 14.098 0 8.2919 5.024 14.0625 13.423 14.0625zm23.337-16.2997c.018-3.5157 2.166-5.5753 5.256-5.5753 3.071 0 4.883 1.9709 4.865 5.3267v16.0156h7.564v-17.3651c.017-6.392-3.747-10.2627-9.429-10.2627-4.137 0-6.907 1.9531-8.149 5.1669h-.32v-13.9027h-7.351v36.3636h7.564zm30.164 16.2819c4.031 0 6.641-1.7578 7.973-4.2969h.213v3.782h7.173v-18.3949c0-6.4986-5.504-9.2329-11.577-9.2329-6.534 0-10.831 3.125-11.878 8.0966l6.995.5681c.515-1.811 2.131-3.1427 4.848-3.1427 2.574 0 4.048 1.2961 4.048 3.5334v.1065c0 1.7578-1.864 1.9886-6.605 2.4503-5.398.4971-10.245 2.3082-10.245 8.3984 0 5.3977 3.853 8.1321 9.055 8.1321zm2.166-5.2202c-2.326 0-3.995-1.0831-3.995-3.1605 0-2.1306 1.758-3.1782 4.422-3.5511 1.651-.2308 4.35-.6215 5.255-1.2251v2.8941c0 2.8587-2.361 5.0426-5.682 5.0426zm17.811 4.7053h7.564v-27.2727h-7.564zm3.8-30.7884c2.255 0 4.101-1.7223 4.101-3.8352 0-2.0952-1.846-3.8175-4.101-3.8175-2.237 0-4.084 1.7223-4.084 3.8175 0 2.1129 1.847 3.8352 4.084 3.8352zm16.137 15.0214c.018-3.5157 2.113-5.5753 5.167-5.5753 3.036 0 4.865 1.9886 4.847 5.3267v16.0156h7.564v-17.3651c0-6.3565-3.728-10.2627-9.41-10.2627-4.048 0-6.978 1.9886-8.203 5.1669h-.32v-4.8118h-7.209v27.2727h7.564z" fill="#fff"/><path d="m327.885 50.4616c2.273 0 4.244-1.8998 4.261-4.2613-.017-2.326-1.988-4.2259-4.261-4.2259-2.344 0-4.279 1.8999-4.261 4.2259-.018 2.3615 1.917 4.2613 4.261 4.2613zm21.544.0711c7.262 0 11.825-4.2614 12.18-10.5291h-7.138c-.443 2.9119-2.361 4.5454-4.953 4.5454-3.534 0-5.824-2.9652-5.824-8.1854 0-5.1491 2.308-8.0966 5.824-8.0966 2.769 0 4.545 1.8289 4.953 4.5455h7.138c-.319-6.3033-5.096-10.4403-12.216-10.4403-8.274 0-13.387 5.735-13.387 14.098 0 8.2919 5.024 14.0625 13.423 14.0625zm28.096 0c8.274 0 13.423-5.6641 13.423-14.0625 0-8.4517-5.149-14.098-13.423-14.098-8.275 0-13.424 5.6463-13.424 14.098 0 8.3984 5.149 14.0625 13.424 14.0625zm.035-5.8594c-3.817 0-5.771-3.4979-5.771-8.2564s1.954-8.2741 5.771-8.2741c3.746 0 5.7 3.5156 5.7 8.2741s-1.954 8.2564-5.7 8.2564zm17.056 5.3267h7.564v-16.3707c0-3.0185 1.918-5.0249 4.439-5.0249 2.486 0 4.155 1.7045 4.155 4.3857v17.0099h7.333v-16.6548c0-2.8232 1.616-4.7408 4.368-4.7408 2.415 0 4.226 1.5092 4.226 4.5455v16.8501h7.546v-18.3416c0-5.9127-3.516-9.2862-8.594-9.2862-3.995 0-7.102 2.0419-8.221 5.1669h-.284c-.87-3.1605-3.658-5.1669-7.404-5.1669-3.675 0-6.463 1.9531-7.599 5.1669h-.32v-4.8118h-7.209z" fill="#b1b8c7"/></svg>