<svg width="21" height="24" viewBox="0 0 21 24" fill="none" xmlns="http://www.w3.org/2000/svg">
<path d="M2.16663 12C2.16663 10.3431 3.28591 9 4.66663 9H7.16663C8.54734 9 9.66663 10.3431 9.66663 12V19C9.66663 20.6569 8.54734 22 7.16663 22H4.66663C3.28591 22 2.16663 20.6569 2.16663 19V12Z" fill="#0C6CF2"/>
<path fill-rule="evenodd" clip-rule="evenodd" d="M11.3334 5C11.3334 3.34315 12.4527 2 13.8334 2H16.3334C17.7141 2 18.8334 3.34315 18.8334 5V19C18.8334 20.6569 17.7141 22 16.3334 22H13.8334C12.4527 22 11.3334 20.6569 11.3334 19V5Z" fill="#0C6CF2"/>
</svg>
