<svg width="68" height="68" viewBox="0 0 68 68" fill="none" xmlns="http://www.w3.org/2000/svg">
<g clip-path="url(#clip0_1780_137786)">
<path d="M28 68C43.464 68 56 55.464 56 40C56 24.536 43.464 12 28 12C12.536 12 0 24.536 0 40C0 55.464 12.536 68 28 68Z" fill="#FF9B22"/>
<path d="M40.5807 36.535C41.1302 32.867 38.3355 30.8947 34.517 29.5787L35.756 24.6087L32.732 23.8563L31.5245 28.695C30.73 28.4955 29.9145 28.31 29.1007 28.1245L30.317 23.2543L27.293 22.5L26.054 27.4682C25.396 27.3177 24.7485 27.1708 24.122 27.0133L24.1255 26.9975L19.9535 25.9562L19.1485 29.1867C19.1485 29.1867 21.3938 29.7013 21.3465 29.7327C22.5715 30.039 22.792 30.8492 22.7553 31.4932L19.362 45.1065C19.2115 45.4775 18.8318 46.0357 17.9743 45.824C18.0058 45.8677 15.7763 45.2762 15.7763 45.2762L14.2747 48.7377L18.2122 49.7195C18.9437 49.9032 19.6612 50.0957 20.3665 50.276L19.1153 55.302L22.1375 56.0545L23.3765 51.0845C24.2025 51.3067 25.004 51.5132 25.788 51.7092L24.5525 56.6582L27.5765 57.4107L28.8277 52.3952C33.9867 53.3717 37.8647 52.978 39.4975 48.3125C40.8135 44.557 39.4328 42.3888 36.7185 40.9765C38.696 40.5215 40.1835 39.2213 40.5807 36.535ZM33.6683 46.2265C32.7355 49.9837 26.4093 47.952 24.3582 47.4427L26.0208 40.784C28.0718 41.2967 34.6465 42.31 33.6683 46.2265ZM34.6045 36.4808C33.7523 39.8985 28.4883 38.1607 26.782 37.7355L28.287 31.698C29.9932 32.1232 35.4935 32.916 34.6045 36.4808Z" fill="white"/>
</g>
<g clip-path="url(#clip1_1780_137786)">
<circle cx="52.1113" cy="15.8891" r="15.5556" fill="#0C6CF2"/>
<path d="M44.5 16C44.5 14.7574 45.5074 13.75 46.75 13.75H49C50.2426 13.75 51.25 14.7574 51.25 16V21.25C51.25 22.4926 50.2426 23.5 49 23.5H46.75C45.5074 23.5 44.5 22.4926 44.5 21.25V16Z" fill="white"/>
<path fill-rule="evenodd" clip-rule="evenodd" d="M52.75 10.75C52.75 9.50736 53.7574 8.5 55 8.5H57.25C58.4926 8.5 59.5 9.50736 59.5 10.75V21.25C59.5 22.4926 58.4926 23.5 57.25 23.5H55C53.7574 23.5 52.75 22.4926 52.75 21.25V10.75Z" fill="white"/>
</g>
<rect x="37.5555" y="1.3335" width="29.1111" height="29.1111" rx="14.5556" stroke="white" stroke-width="2"/>
<defs>
<clipPath id="clip0_1780_137786">
<rect width="56" height="56" fill="white" transform="translate(0 12)"/>
</clipPath>
<clipPath id="clip1_1780_137786">
<rect x="36.5555" y="0.333496" width="31.1111" height="31.1111" rx="15.5556" fill="white"/>
</clipPath>
</defs>
</svg>
