<svg width="37" height="37" viewBox="0 0 37 37" fill="none" xmlns="http://www.w3.org/2000/svg">
<g clip-path="url(#clip0_3770_9696)">
<path fill-rule="evenodd" clip-rule="evenodd" d="M18.5 36.5C28.4411 36.5 36.5 28.4411 36.5 18.5C36.5 8.55887 28.4411 0.5 18.5 0.5C8.55887 0.5 0.5 8.55887 0.5 18.5C0.5 28.4411 8.55887 36.5 18.5 36.5ZM18.5 9.5C18.5 8.67157 17.8284 8 17 8C16.1716 8 15.5 8.67157 15.5 9.5V17.7791C15.5 18.6904 15.9143 19.5524 16.6259 20.1217L23.563 25.6713C24.2099 26.1888 25.1538 26.0839 25.6713 25.437C26.1888 24.7901 26.0839 23.8462 25.437 23.3287L18.5 17.7791V9.5Z" fill="#98A1B2"/>
</g>
<defs>
<clipPath id="clip0_3770_9696">
<rect width="36" height="36" fill="white" transform="translate(0.5 0.5)"/>
</clipPath>
</defs>
</svg>
