<svg width="125" height="98" viewBox="0 0 125 98" fill="none" xmlns="http://www.w3.org/2000/svg">
<path d="M95.6927 1H25.0503C21.0381 1 17.7856 4.14723 17.7856 8.02954V23.0582C17.7856 26.9405 21.0381 30.0877 25.0503 30.0877H95.6927C99.7049 30.0877 102.957 26.9405 102.957 23.0582V8.02954C102.957 4.14723 99.7049 1 95.6927 1Z" fill="white" stroke="#DFE3EB" stroke-width="0.498905"/>
<path d="M36.9628 3.19922H27.4836C23.3505 3.19922 20 6.54973 20 10.6828V20.162C20 24.2951 23.3505 27.6456 27.4836 27.6456H36.9628C41.0958 27.6456 44.4463 24.2951 44.4463 20.162V10.6828C44.4463 6.54973 41.0958 3.19922 36.9628 3.19922Z" fill="#0C6CF2"/>
<rect x="24.2407" y="7.43945" width="15.965" height="15.965" rx="1.99562" fill="#0C6CF2"/>
<path fill-rule="evenodd" clip-rule="evenodd" d="M35.466 16.9952C35.466 18.2774 34.4253 19.1285 32.8886 19.2568V20.4107H31.836V19.2453C30.7966 19.1281 29.809 18.7289 28.9802 18.0908L29.7545 17.0301C30.4445 17.5665 31.0976 17.9162 31.8844 18.0329V15.748C30.1177 15.3049 29.295 14.6638 29.295 13.3467C29.295 12.088 30.3233 11.2254 31.836 11.1086V10.4326H32.8886V11.1321C33.7114 11.2235 34.4958 11.529 35.1637 12.0181L34.4856 13.1137C33.9533 12.7291 33.409 12.4841 32.8403 12.3679V14.5825C34.6797 15.0255 35.466 15.7365 35.466 16.9952ZM31.8839 14.3375V12.286C31.122 12.3444 30.7229 12.7525 30.7229 13.2654C30.7229 13.7543 30.9524 14.0696 31.8844 14.338L31.8839 14.3375ZM34.0381 17.0765C34.0381 16.5527 33.7837 16.2379 32.8403 15.9695V18.0798C33.6026 18.021 34.0381 17.6363 34.0381 17.077V17.0765Z" fill="white"/>
<path d="M92.3111 7.54492H49.4747C48.7138 7.54492 48.0969 8.14181 48.0969 8.87811C48.0969 9.61441 48.7138 10.2113 49.4747 10.2113H92.3111C93.072 10.2113 93.6888 9.61441 93.6888 8.87811C93.6888 8.14181 93.072 7.54492 92.3111 7.54492Z" fill="#F0F2F7"/>
<path d="M92.3111 14.0898H49.4747C48.7138 14.0898 48.0969 14.6867 48.0969 15.423C48.0969 16.1593 48.7138 16.7562 49.4747 16.7562H92.3111C93.072 16.7562 93.6888 16.1593 93.6888 15.423C93.6888 14.6867 93.072 14.0898 92.3111 14.0898Z" fill="#F0F2F7"/>
<path d="M92.3111 20.6338H49.4747C48.7138 20.6338 48.0969 21.2307 48.0969 21.967C48.0969 22.7033 48.7138 23.3002 49.4747 23.3002H92.3111C93.072 23.3002 93.6888 22.7033 93.6888 21.967C93.6888 21.2307 93.072 20.6338 92.3111 20.6338Z" fill="#F0F2F7"/>
<path d="M95.693 67.8916H25.0506C21.0325 67.8916 17.7751 71.0435 17.7751 74.9316V89.9602C17.7751 93.8483 21.0325 97.0002 25.0506 97.0002H95.693C99.7111 97.0002 102.968 93.8483 102.968 89.9602V74.9316C102.968 71.0435 99.7111 67.8916 95.693 67.8916Z" fill="white" stroke="#DFE3EB" stroke-width="0.477452"/>
<path d="M36.9628 70.1016H27.4836C23.3505 70.1016 20 73.4521 20 77.5851V87.0643C20 91.1974 23.3505 94.5479 27.4836 94.5479H36.9628C41.0958 94.5479 44.4463 91.1974 44.4463 87.0643V77.5851C44.4463 73.4521 41.0958 70.1016 36.9628 70.1016Z" fill="#0C6CF2"/>
<path d="M35.3405 82.4175L32.2229 77.3359L29.105 82.4175L32.2229 84.2277L35.3405 82.4175Z" fill="white"/>
<path d="M32.2229 87.314L35.3426 82.998L32.2229 84.8078L29.105 82.998L32.2229 87.314Z" fill="white"/>
<path d="M92.3111 74.4463H49.4747C48.7138 74.4463 48.0969 75.0432 48.0969 75.7795C48.0969 76.5158 48.7138 77.1127 49.4747 77.1127H92.3111C93.072 77.1127 93.6888 76.5158 93.6888 75.7795C93.6888 75.0432 93.072 74.4463 92.3111 74.4463Z" fill="#F0F2F7"/>
<path d="M92.3111 80.9912H49.4747C48.7138 80.9912 48.0969 81.5881 48.0969 82.3244C48.0969 83.0607 48.7138 83.6576 49.4747 83.6576H92.3111C93.072 83.6576 93.6888 83.0607 93.6888 82.3244C93.6888 81.5881 93.072 80.9912 92.3111 80.9912Z" fill="#F0F2F7"/>
<path d="M92.3111 87.5361H49.4747C48.7138 87.5361 48.0969 88.133 48.0969 88.8693C48.0969 89.6056 48.7138 90.2025 49.4747 90.2025H92.3111C93.072 90.2025 93.6888 89.6056 93.6888 88.8693C93.6888 88.133 93.072 87.5361 92.3111 87.5361Z" fill="#F0F2F7"/>
<path d="M116.735 34.4512H46.0928C42.0806 34.4512 38.8281 37.5984 38.8281 41.4807V56.5094C38.8281 60.3917 42.0806 63.5389 46.0928 63.5389H116.735C120.747 63.5389 124 60.3917 124 56.5094V41.4807C124 37.5984 120.747 34.4512 116.735 34.4512Z" fill="white" stroke="#DFE3EB" stroke-width="0.498905"/>
<path d="M57.8732 36.874H48.394C44.2609 36.874 40.9104 40.2245 40.9104 44.3576V53.8368C40.9104 57.9699 44.2609 61.3204 48.394 61.3204H57.8732C62.0062 61.3204 65.3567 57.9699 65.3567 53.8368V44.3576C65.3567 40.2245 62.0062 36.874 57.8732 36.874Z" fill="#0C6CF2"/>
<path d="M56.7202 48.1086C56.8769 47.0629 56.0801 46.5007 54.9915 46.1255L55.3448 44.7086L54.4827 44.4941L54.1384 45.8735C53.9119 45.8167 53.6794 45.7638 53.4474 45.7109L53.7942 44.3225L52.9321 44.1074L52.5788 45.5238C52.3912 45.4809 52.2066 45.439 52.028 45.3941L52.029 45.3896L50.8397 45.0928L50.6102 46.0137C50.6102 46.0137 51.2502 46.1604 51.2368 46.1694C51.586 46.2567 51.6489 46.4877 51.6384 46.6713L51.2363 48.2853C51.2602 48.2912 51.2912 48.3002 51.3261 48.3137L51.2348 48.2912L50.671 50.5523C50.6281 50.658 50.5199 50.8172 50.2754 50.7568C50.2844 50.7693 49.6488 50.6007 49.6488 50.6007L49.2207 51.5875L50.3432 51.8674C50.5518 51.9198 50.7563 51.9747 50.9574 52.026L50.6007 53.4589L51.4623 53.6734L51.8155 52.2565C52.051 52.3199 52.2795 52.3788 52.503 52.4346L52.1508 53.8455L53.0129 54.0601L53.3696 52.6302C54.8404 52.9086 55.9459 52.7964 56.4114 51.4663C56.7866 50.3956 56.393 49.7775 55.6192 49.3749C56.1829 49.2451 56.607 48.8745 56.7202 48.1086ZM54.7496 50.8716C54.4837 51.9427 52.6801 51.3635 52.0954 51.2183L52.5694 49.32C53.1541 49.4662 55.0285 49.755 54.7496 50.8716ZM55.0165 48.0932C54.7735 49.0675 53.2728 48.5721 52.7864 48.4509L53.2154 46.7297C53.7019 46.8509 55.2699 47.0769 55.0165 48.0932Z" fill="white"/>
<path d="M113.354 40.9961H70.5172C69.7563 40.9961 69.1394 41.593 69.1394 42.3293C69.1394 43.0656 69.7563 43.6625 70.5172 43.6625H113.354C114.114 43.6625 114.731 43.0656 114.731 42.3293C114.731 41.593 114.114 40.9961 113.354 40.9961Z" fill="#F0F2F7"/>
<path d="M113.354 47.54H70.5172C69.7563 47.54 69.1394 48.1369 69.1394 48.8732C69.1394 49.6095 69.7563 50.2064 70.5172 50.2064H113.354C114.114 50.2064 114.731 49.6095 114.731 48.8732C114.731 48.1369 114.114 47.54 113.354 47.54Z" fill="#F0F2F7"/>
<path d="M113.354 54.085H70.5172C69.7563 54.085 69.1394 54.6818 69.1394 55.4181C69.1394 56.1544 69.7563 56.7513 70.5172 56.7513H113.354C114.114 56.7513 114.731 56.1544 114.731 55.4181C114.731 54.6818 114.114 54.085 113.354 54.085Z" fill="#F0F2F7"/>
<path fill-rule="evenodd" clip-rule="evenodd" d="M20.7223 58.3087C15.4808 58.3087 11.231 54.1385 11.231 48.9953C11.231 43.8519 15.4808 39.6816 20.7223 39.6816C25.9639 39.6816 30.2137 43.8519 30.2137 48.9953C30.2137 54.1385 25.9639 58.3087 20.7223 58.3087Z" fill="#0C6CF2"/>
<path d="M24.0641 47.5449L20.0546 51.6841L17.6475 49.201" stroke="white" stroke-width="1.56856" stroke-linecap="round" stroke-linejoin="round"/>
<path fill-rule="evenodd" clip-rule="evenodd" d="M120.632 14.7228H119.985C119.91 14.7228 119.838 14.6939 119.785 14.6427C119.732 14.5914 119.702 14.5219 119.702 14.4494V13.8233C119.702 13.6718 119.83 13.5499 119.985 13.5499H120.632C120.787 13.5499 120.914 13.673 120.914 13.8233V14.4494C120.915 14.4853 120.907 14.5209 120.893 14.5541C120.879 14.5874 120.858 14.6175 120.832 14.643C120.806 14.6684 120.774 14.6885 120.74 14.7022C120.706 14.7159 120.669 14.7229 120.632 14.7228ZM118.388 14.7228H117.741C117.585 14.7228 117.458 14.5997 117.458 14.4494V13.8233C117.458 13.6718 117.585 13.5499 117.741 13.5499H118.388C118.543 13.5499 118.67 13.673 118.67 13.8233V14.4494C118.67 14.5997 118.543 14.7228 118.388 14.7228ZM116.143 14.7228H115.495C115.34 14.7228 115.213 14.5997 115.213 14.4494V13.8233C115.213 13.6718 115.34 13.5499 115.495 13.5499H116.143C116.298 13.5499 116.425 13.673 116.425 13.8233V14.4494C116.425 14.4853 116.418 14.5209 116.404 14.5541C116.389 14.5873 116.369 14.6175 116.342 14.6429C116.316 14.6683 116.285 14.6884 116.251 14.7021C116.216 14.7159 116.18 14.7229 116.143 14.7228ZM113.898 14.7228H113.251C113.176 14.7226 113.104 14.6937 113.051 14.6425C112.999 14.5912 112.969 14.5218 112.968 14.4494V13.8233C112.969 13.7508 112.998 13.6813 113.051 13.6301C113.104 13.5788 113.176 13.55 113.251 13.5499H113.898C114.055 13.5499 114.182 13.673 114.182 13.8233V14.4494C114.181 14.5219 114.151 14.5912 114.098 14.6423C114.045 14.6935 113.973 14.7224 113.898 14.7228ZM111.654 14.7228H111.007C110.932 14.7228 110.86 14.6941 110.807 14.6428C110.754 14.5916 110.723 14.522 110.723 14.4494V13.8233C110.723 13.7873 110.731 13.7517 110.745 13.7184C110.759 13.6852 110.78 13.6551 110.807 13.6297C110.833 13.6043 110.864 13.5841 110.899 13.5705C110.933 13.5568 110.97 13.5498 111.007 13.5499H111.654C111.809 13.5499 111.937 13.673 111.937 13.8233V14.4494C111.937 14.5997 111.809 14.7228 111.654 14.7228ZM118.306 12.3551H117.658C117.503 12.3551 117.376 12.2317 117.376 12.0817V11.4541C117.376 11.3038 117.503 11.1807 117.658 11.1807H118.306C118.462 11.1807 118.588 11.3038 118.588 11.4541V12.0804C118.588 12.1165 118.581 12.1521 118.567 12.1855C118.553 12.2188 118.532 12.2491 118.506 12.2746C118.48 12.3002 118.448 12.3204 118.414 12.3342C118.38 12.348 118.343 12.3551 118.306 12.3551ZM116.061 12.3551H115.414C115.259 12.3551 115.132 12.2317 115.132 12.0817V11.4541C115.132 11.3038 115.259 11.1807 115.414 11.1807H116.061C116.217 11.1807 116.344 11.3038 116.344 11.4541V12.0804C116.344 12.1165 116.337 12.1522 116.323 12.1855C116.309 12.2188 116.288 12.2491 116.262 12.2746C116.235 12.3002 116.204 12.3204 116.17 12.3342C116.135 12.348 116.099 12.3551 116.061 12.3551ZM113.817 12.3551H113.17C113.095 12.355 113.023 12.3262 112.97 12.275C112.917 12.2238 112.887 12.1543 112.886 12.0817V11.4541C112.886 11.3038 113.014 11.1807 113.17 11.1807H113.817C113.972 11.1807 114.1 11.3038 114.1 11.4541V12.0804C114.1 12.2317 113.972 12.3551 113.817 12.3551ZM116.143 17.2665H115.495C115.34 17.2665 115.213 17.1434 115.213 16.9931V16.367C115.213 16.2155 115.34 16.0936 115.495 16.0936H116.143C116.298 16.0936 116.425 16.2167 116.425 16.367V16.9931C116.425 17.029 116.418 17.0646 116.404 17.0978C116.389 17.131 116.369 17.1612 116.342 17.1866C116.316 17.212 116.285 17.2321 116.251 17.2459C116.216 17.2596 116.18 17.2666 116.143 17.2665ZM113.898 17.2665H113.251C113.176 17.2663 113.104 17.2374 113.051 17.1862C112.999 17.135 112.969 17.0656 112.968 16.9931V16.367C112.969 16.2945 112.998 16.2251 113.051 16.1738C113.104 16.1226 113.176 16.0937 113.251 16.0936H113.898C114.055 16.0936 114.182 16.2167 114.182 16.367V16.9931C114.181 17.0656 114.151 17.1349 114.098 17.186C114.045 17.2372 113.973 17.2661 113.898 17.2665ZM120.632 82.8366H119.985C119.91 82.8366 119.838 82.8077 119.785 82.7565C119.732 82.7052 119.702 82.6357 119.702 82.5632V81.9371C119.702 81.7856 119.83 81.6637 119.985 81.6637H120.632C120.787 81.6637 120.914 81.7868 120.914 81.9371V82.5632C120.915 82.5991 120.907 82.6347 120.893 82.668C120.879 82.7012 120.858 82.7313 120.832 82.7568C120.806 82.7822 120.774 82.8023 120.74 82.816C120.706 82.8297 120.669 82.8367 120.632 82.8366ZM118.388 82.8366H117.741C117.585 82.8366 117.458 82.7135 117.458 82.5632V81.9371C117.458 81.7856 117.585 81.6637 117.741 81.6637H118.388C118.543 81.6637 118.67 81.7868 118.67 81.9371V82.5632C118.67 82.7135 118.543 82.8366 118.388 82.8366ZM116.143 82.8366H115.495C115.34 82.8366 115.213 82.7135 115.213 82.5632V81.9371C115.213 81.7856 115.34 81.6637 115.495 81.6637H116.143C116.298 81.6637 116.425 81.7868 116.425 81.9371V82.5632C116.425 82.5991 116.418 82.6347 116.404 82.6679C116.389 82.7011 116.369 82.7313 116.342 82.7567C116.316 82.7821 116.285 82.8022 116.251 82.8159C116.216 82.8297 116.18 82.8367 116.143 82.8366ZM113.898 82.8366H113.251C113.176 82.8364 113.104 82.8075 113.051 82.7563C112.999 82.705 112.969 82.6356 112.968 82.5632V81.9371C112.969 81.8646 112.998 81.7951 113.051 81.7439C113.104 81.6926 113.176 81.6638 113.251 81.6637H113.898C114.055 81.6637 114.182 81.7868 114.182 81.9371V82.5632C114.181 82.6357 114.151 82.705 114.098 82.7561C114.045 82.8073 113.973 82.8362 113.898 82.8366ZM111.654 82.8366H111.007C110.932 82.8366 110.86 82.8079 110.807 82.7566C110.754 82.7054 110.723 82.6358 110.723 82.5632V81.9371C110.723 81.9011 110.731 81.8655 110.745 81.8322C110.759 81.799 110.78 81.7689 110.807 81.7435C110.833 81.7181 110.864 81.6979 110.899 81.6843C110.933 81.6706 110.97 81.6636 111.007 81.6637H111.654C111.809 81.6637 111.937 81.7868 111.937 81.9371V82.5632C111.937 82.7135 111.809 82.8366 111.654 82.8366ZM118.306 80.4689H117.658C117.503 80.4689 117.376 80.3455 117.376 80.1955V79.5679C117.376 79.4176 117.503 79.2945 117.658 79.2945H118.306C118.462 79.2945 118.588 79.4176 118.588 79.5679V80.1943C118.588 80.2303 118.581 80.266 118.567 80.2993C118.553 80.3326 118.532 80.3629 118.506 80.3884C118.48 80.414 118.448 80.4342 118.414 80.448C118.38 80.4618 118.343 80.4689 118.306 80.4689ZM116.061 80.4689H115.414C115.259 80.4689 115.132 80.3455 115.132 80.1955V79.5679C115.132 79.4176 115.259 79.2945 115.414 79.2945H116.061C116.217 79.2945 116.344 79.4176 116.344 79.5679V80.1943C116.344 80.2303 116.337 80.266 116.323 80.2993C116.309 80.3326 116.288 80.3629 116.262 80.3884C116.235 80.414 116.204 80.4342 116.17 80.448C116.135 80.4618 116.099 80.4689 116.061 80.4689ZM113.817 80.4689H113.17C113.095 80.4688 113.023 80.44 112.97 80.3888C112.917 80.3376 112.887 80.2681 112.886 80.1955V79.5679C112.886 79.4176 113.014 79.2945 113.17 79.2945H113.817C113.972 79.2945 114.1 79.4176 114.1 79.5679V80.1943C114.1 80.3455 113.972 80.4689 113.817 80.4689ZM116.143 85.3803H115.495C115.34 85.3803 115.213 85.2572 115.213 85.1069V84.4808C115.213 84.3293 115.34 84.2074 115.495 84.2074H116.143C116.298 84.2074 116.425 84.3305 116.425 84.4808V85.1069C116.425 85.1428 116.418 85.1784 116.404 85.2116C116.389 85.2448 116.369 85.275 116.342 85.3004C116.316 85.3258 116.285 85.3459 116.251 85.3597C116.216 85.3734 116.18 85.3804 116.143 85.3803ZM113.898 85.3803H113.251C113.176 85.3801 113.104 85.3512 113.051 85.3C112.999 85.2488 112.969 85.1794 112.968 85.1069V84.4808C112.969 84.4083 112.998 84.3389 113.051 84.2876C113.104 84.2364 113.176 84.2075 113.251 84.2074H113.898C114.055 84.2074 114.182 84.3305 114.182 84.4808V85.1069C114.181 85.1794 114.151 85.2487 114.098 85.2999C114.045 85.351 113.973 85.3799 113.898 85.3803Z" fill="#DFE3EB"/>
<path d="M13.414 30.0879H13.3902C13.2502 31.9405 11.7737 31.9691 11.7737 31.9691C11.7737 31.9691 13.402 31.9987 13.402 34.1393C13.402 31.9987 15.0303 31.9691 15.0303 31.9691C15.0303 31.9691 13.5541 31.9405 13.414 30.0879ZM2.64984 48.9949H2.61151C2.38506 51.9876 0 52.0336 0 52.0336C0 52.0336 2.6303 52.0816 2.6303 55.5397C2.6303 52.0816 5.26061 52.0336 5.26061 52.0336C5.26061 52.0336 2.87605 51.9876 2.64984 48.9949ZM34.206 58.7255H34.1822C34.0421 60.5782 32.5657 60.6068 32.5657 60.6068C32.5657 60.6068 34.1939 60.6363 34.1939 62.7769C34.1939 60.6363 35.8222 60.6068 35.8222 60.6068C35.8222 60.6068 34.346 60.5782 34.206 58.7255ZM34.206 34.4511H34.1822C34.0421 36.3037 32.5657 36.3323 32.5657 36.3323C32.5657 36.3323 34.1939 36.3619 34.1939 38.5025C34.1939 36.3619 35.8222 36.3323 35.8222 36.3323C35.8222 36.3323 34.346 36.3037 34.206 34.4511ZM11.8847 62.0844H11.8579C11.6986 64.1904 10.0202 64.2228 10.0202 64.2228C10.0202 64.2228 11.8709 64.2565 11.8709 66.69C11.8709 64.2565 13.7219 64.2228 13.7219 64.2228C13.7219 64.2228 12.044 64.1904 11.8847 62.0844Z" fill="#DFE3EB"/>
</svg>
