<svg width="221" height="129" viewBox="0 0 221 129" fill="none" xmlns="http://www.w3.org/2000/svg">
<g clip-path="url(#clip0_3140_178929)" filter="url(#filter0_d_3140_178929)">
<path d="M94.9323 101.612L94.8758 101.651C94.6703 101.794 94.4631 101.936 94.254 102.075L94.1437 102.149C93.9642 102.268 93.7848 102.387 93.6054 102.508L93.4475 102.61C93.2357 102.745 93.0228 102.879 92.8087 103.012L92.7118 103.071C92.5234 103.187 92.3332 103.301 92.143 103.414L91.977 103.511C91.7587 103.64 91.5395 103.767 91.3193 103.891L91.2485 103.931C91.0475 104.044 90.8456 104.156 90.6429 104.265L90.4706 104.355C90.2463 104.476 90.022 104.595 89.795 104.715L89.7582 104.733C89.5417 104.844 89.3243 104.954 89.106 105.061L88.9266 105.151C88.6996 105.262 88.4726 105.371 88.2438 105.479L88.2321 105.485C88.0007 105.593 87.7665 105.7 87.5323 105.805L87.3529 105.885C87.1346 105.981 86.9157 106.076 86.6962 106.17L86.6396 106.194C86.4037 106.294 86.1659 106.391 85.9282 106.487L85.7487 106.559C85.5361 106.649 85.3217 106.728 85.1072 106.808L85.0175 106.844C84.7771 106.933 84.5357 107.023 84.2944 107.113L84.115 107.177C83.9041 107.252 83.6933 107.325 83.4807 107.396L83.3622 107.437C83.1194 107.518 82.8748 107.598 82.6283 107.675L82.4489 107.731C82.239 107.796 82.0281 107.861 81.8164 107.923L81.6764 107.964C81.4288 108.036 81.1803 108.106 80.9309 108.174L80.7514 108.222C80.5406 108.279 80.328 108.334 80.1162 108.388L79.9574 108.429C79.7062 108.492 79.4541 108.552 79.2011 108.609L79.0306 108.647C78.8171 108.696 78.603 108.743 78.3882 108.789L78.2142 108.826C77.9585 108.88 77.7028 108.931 77.4453 108.981L77.2865 109.01C77.0685 109.051 76.8487 109.09 76.6298 109.129L76.4449 109.16C76.186 109.205 75.9255 109.247 75.6635 109.286L75.5208 109.307C75.2965 109.34 75.0717 109.372 74.8462 109.402L74.6506 109.428C74.3868 109.462 74.123 109.495 73.8575 109.524L73.7337 109.537C73.5013 109.563 73.2689 109.586 73.0356 109.609L72.8329 109.628C72.5637 109.651 72.2946 109.673 72.0254 109.693L71.9294 109.7C71.686 109.717 71.4426 109.733 71.1991 109.746L70.991 109.757C70.7218 109.771 70.4455 109.784 70.1718 109.793H70.118C69.8596 109.801 69.6009 109.807 69.3419 109.812H69.1293C68.853 109.812 68.5758 109.818 68.2985 109.812C54.7807 109.753 42.2802 104.098 32.9908 95.0007C23.7013 85.9033 17.6265 73.3694 16.9716 59.5468C16.3166 45.7242 21.2027 33.2334 29.6308 24.2133C29.8847 23.9437 30.1431 23.6741 30.4042 23.4045C30.4876 23.3191 30.572 23.2355 30.6563 23.152C30.8357 22.9722 31.0173 22.7925 31.2009 22.6127C31.2996 22.5169 31.3989 22.4213 31.4988 22.3261C31.6734 22.1595 31.8493 21.9945 32.0263 21.8309L32.3296 21.5523C32.5198 21.3798 32.7118 21.2099 32.9047 21.0401C32.9944 20.9628 33.0841 20.8846 33.1693 20.8082C33.451 20.5644 33.7354 20.3247 34.0225 20.0892L34.045 20.0713C34.3255 19.8412 34.6087 19.6147 34.8946 19.3919C34.9888 19.3182 35.0848 19.2454 35.1799 19.1726C35.3821 19.0174 35.5851 18.8637 35.7891 18.7116C35.8994 18.6289 36.0107 18.548 36.122 18.4671C36.3175 18.3239 36.5143 18.1828 36.7123 18.0438C36.7787 17.9971 36.8433 17.9486 36.9106 17.9019L33.3461 20.3849C30.7052 22.2261 28.2654 24.341 26.0672 26.6946C22.9354 30.0483 20.3157 33.8473 18.2931 37.9685L18.3541 37.8418L18.3344 37.8823L18.3147 37.9218L18.2752 38.0027C18.2626 38.026 18.2474 38.0584 18.2348 38.0827L18.2151 38.1231L18.1756 38.2031L18.1361 38.2831L18.1155 38.3235L18.076 38.4035L18.0563 38.4439L18.0168 38.5239L17.9971 38.5644C17.9845 38.5886 17.9683 38.6201 17.9567 38.6443C14.4487 45.7367 12.6454 53.9013 13.0581 62.6014C13.7067 76.2919 19.7196 88.7099 28.9185 97.7201C38.1173 106.73 50.502 112.329 63.8889 112.389C65.6293 112.398 67.3689 112.31 69.0997 112.128L69.9897 112.038C69.7816 112.061 69.5722 112.081 69.3617 112.1C77.5485 111.344 85.0444 108.505 91.3669 104.102L94.9323 101.612Z" fill="#DFE3EB"/>
<path d="M110.285 83.4204C110.174 83.6441 110.062 83.8697 109.947 84.0881L109.89 84.1959C109.79 84.3871 109.689 84.5776 109.587 84.7675C109.556 84.8259 109.525 84.8834 109.497 84.9409C109.378 85.1614 109.258 85.3804 109.138 85.5979L109.111 85.6446C108.997 85.8486 108.879 86.0508 108.761 86.253L108.659 86.4247C108.54 86.626 108.419 86.8273 108.3 87.0268L108.273 87.0708C108.142 87.2838 108.011 87.4941 107.876 87.6999L107.771 87.8643C107.654 88.0441 107.538 88.2238 107.419 88.4036L107.354 88.5024C107.216 88.7085 107.078 88.9131 106.938 89.1162L106.832 89.2681C106.714 89.437 106.595 89.606 106.473 89.7732L106.383 89.8999C106.24 90.0994 106.093 90.298 105.947 90.4948C105.913 90.5397 105.879 90.5847 105.846 90.6287C105.723 90.7923 105.6 90.954 105.475 91.1158L105.367 91.256C105.215 91.4501 105.062 91.643 104.909 91.8347L104.819 91.9417C104.688 92.1034 104.556 92.2643 104.424 92.4243L104.301 92.5716C104.143 92.7604 103.983 92.9476 103.822 93.1333L103.763 93.2007C103.618 93.367 103.471 93.5323 103.324 93.6968L103.193 93.8424C103.027 94.0221 102.859 94.2099 102.69 94.3906C94.3411 103.324 82.4839 108.821 69.0953 108.763C55.7066 108.706 43.3246 103.102 34.1258 94.0931C24.927 85.0847 18.9051 72.6703 18.2564 58.9789C17.6077 45.2875 22.4462 32.9171 30.7945 23.9833C31.0009 23.7622 31.2108 23.5439 31.4226 23.3273L31.5195 23.2275C31.7216 23.022 31.925 22.818 32.1295 22.6155L32.2471 22.5005C32.4546 22.2986 32.664 22.0982 32.8751 21.8993L32.9648 21.8157C33.1783 21.6162 33.3937 21.4176 33.6108 21.2226L33.6449 21.1911C33.8668 20.9922 34.0905 20.796 34.316 20.6025L34.429 20.5045C34.6473 20.3176 34.8671 20.1328 35.0884 19.95L35.2132 19.8467C35.4392 19.6628 35.6668 19.48 35.8959 19.2985L35.9767 19.2356C36.2039 19.0558 36.4324 18.8803 36.6621 18.709L36.7267 18.6604C36.9618 18.4807 37.1989 18.3066 37.4382 18.1383L37.5665 18.0484C37.8003 17.8813 38.036 17.7162 38.2735 17.5533L38.4026 17.4634C38.6467 17.2974 38.8925 17.1333 39.1401 16.9709L39.202 16.9314C39.4455 16.7732 39.6901 16.6174 39.9359 16.464L40.0257 16.4074C40.2745 16.2529 40.5248 16.1013 40.7766 15.9527L40.9174 15.8691C41.1663 15.7229 41.4166 15.5788 41.6684 15.4369L41.7994 15.3614C42.0623 15.2149 42.3251 15.0702 42.5907 14.9291L42.6257 14.9111C42.8865 14.7721 43.1499 14.6358 43.4161 14.5022L43.5291 14.4447C43.7905 14.3135 44.0531 14.1847 44.3169 14.0583L44.4667 13.9873C44.7305 13.8627 44.9957 13.7398 45.2625 13.6188L45.3881 13.564C45.665 13.44 45.9441 13.3202 46.2252 13.2045L46.2351 13.2C46.5168 13.0814 46.8012 12.9655 47.0856 12.8522L47.2184 12.7992C47.4923 12.6914 47.7668 12.5862 48.042 12.4838L48.199 12.4263C48.4771 12.3238 48.7564 12.2241 49.037 12.127L49.1518 12.0875C49.4341 11.991 49.7176 11.8969 50.0023 11.8053L50.0562 11.7882C50.3462 11.6959 50.6381 11.6061 50.9318 11.5186L51.0807 11.4737C51.3631 11.3886 51.6487 11.3065 51.9375 11.2274L52.0981 11.1843C52.39 11.1064 52.6834 11.0306 52.9783 10.9569L53.0743 10.9336C53.365 10.8629 53.6568 10.7946 53.9499 10.7287L54.0396 10.7089C54.3375 10.6424 54.6381 10.5795 54.9368 10.5193L55.0992 10.4869C55.3944 10.4285 55.6905 10.3737 55.9883 10.3207L56.1471 10.2937C56.4504 10.2389 56.7572 10.1912 57.0658 10.149L57.1367 10.1382C57.4394 10.0933 57.7426 10.0508 58.0465 10.0106L58.1622 9.99534C58.469 9.95669 58.7759 9.92074 59.0845 9.88749L59.1742 9.87671L58.286 9.96927C50.5243 10.7722 43.0972 13.5527 36.7123 18.0457C36.5138 18.1847 36.317 18.3258 36.122 18.469C36.0108 18.5499 35.8995 18.6308 35.7891 18.7135C35.5846 18.865 35.3815 19.0187 35.18 19.1745C35.0849 19.2473 34.9889 19.3201 34.8947 19.3938C34.6094 19.6166 34.3261 19.8431 34.045 20.0732L34.0226 20.0911C33.7355 20.3278 33.4511 20.5674 33.1694 20.8101C33.0797 20.8865 32.9899 20.9646 32.9047 21.0419C32.7118 21.2118 32.5198 21.3816 32.3296 21.5542L32.0264 21.8328C31.8469 21.9963 31.6711 22.1614 31.4988 22.328C31.3995 22.4232 31.3002 22.5188 31.201 22.6146C31.0179 22.7944 30.8364 22.9741 30.6564 23.1538C30.572 23.2374 30.4877 23.321 30.4043 23.4064C30.1432 23.676 29.8848 23.9402 29.6309 24.2152C21.2027 33.2335 16.3194 45.7242 16.9716 59.5469C17.6239 73.3695 23.7005 85.907 32.9855 95.0035C42.2704 104.1 54.7753 109.756 68.2932 109.813C68.5704 109.813 68.8477 109.813 69.124 109.813H69.3366C69.5962 109.809 69.8549 109.802 70.1127 109.794H70.1665C70.4402 109.785 70.7129 109.772 70.9856 109.758L71.1938 109.747C71.4378 109.733 71.6813 109.718 71.9241 109.701L72.0201 109.694C72.2893 109.674 72.5584 109.652 72.8276 109.629L73.0303 109.61C73.2636 109.587 73.496 109.564 73.7283 109.538L73.8521 109.525C74.1213 109.496 74.3815 109.463 74.6453 109.429L74.8408 109.403C75.0657 109.373 75.2906 109.341 75.5155 109.308L75.6582 109.287C75.9202 109.248 76.1806 109.206 76.4396 109.161L76.6244 109.13C76.8434 109.091 77.0632 109.052 77.2812 109.011L77.44 108.982C77.6975 108.932 77.9532 108.881 78.2089 108.827L78.3829 108.79C78.5976 108.745 78.8118 108.697 79.0253 108.648L79.1958 108.61C79.4488 108.55 79.7009 108.49 79.9521 108.43L80.1109 108.389C80.3226 108.335 80.5353 108.28 80.7461 108.223L80.9255 108.175C81.1749 108.107 81.4235 108.037 81.6711 107.965L81.8111 107.924C82.0228 107.864 82.2336 107.8 82.4436 107.732L82.623 107.676C82.8688 107.599 83.1135 107.519 83.3569 107.438L83.4753 107.397C83.688 107.326 83.8988 107.253 84.1096 107.178L84.2891 107.114C84.5304 107.024 84.7718 106.939 85.0122 106.845L85.1019 106.809C85.3164 106.729 85.5308 106.645 85.7434 106.56L85.9228 106.488C86.1606 106.392 86.3984 106.295 86.6343 106.195L86.6908 106.171C86.9109 106.077 87.1299 105.982 87.3476 105.886L87.527 105.806C87.7612 105.701 87.9953 105.594 88.2268 105.486L88.2385 105.48C88.4673 105.372 88.6942 105.263 88.9212 105.152L89.1007 105.062C89.3196 104.955 89.537 104.845 89.7529 104.734L89.7897 104.716C90.0158 104.599 90.2383 104.479 90.4653 104.356L90.6375 104.266C90.8403 104.157 91.0422 104.045 91.2431 103.932L91.314 103.892C91.5347 103.768 91.7539 103.641 91.9717 103.512L92.1376 103.415C92.3278 103.302 92.518 103.188 92.7065 103.072L92.8033 103.013C93.0181 102.88 93.231 102.746 93.4421 102.611L93.6 102.509C93.7795 102.392 93.9589 102.273 94.1384 102.15L94.2487 102.076C94.4577 101.937 94.665 101.795 94.8705 101.652C97.5327 99.8021 99.9916 97.6747 102.206 95.3054C105.304 91.9869 107.901 88.2327 109.914 84.1618C110.048 83.894 110.181 83.6265 110.312 83.3593C110.307 83.3781 110.296 83.3988 110.285 83.4204Z" fill="#F0F2F7"/>
<path d="M115.22 59.3967C114.572 45.7053 108.558 33.2882 99.3592 24.278C90.1603 15.2678 77.7765 9.66816 64.3888 9.60975C62.6171 9.60073 60.8463 9.69074 59.0846 9.87935C58.776 9.9126 58.4691 9.94855 58.1623 9.98719L58.0466 10.0025C57.7421 10.0456 57.4404 10.0893 57.1413 10.1337L57.0704 10.1445C56.7618 10.1912 56.455 10.2424 56.149 10.2954L55.9902 10.3224C55.6924 10.3754 55.3963 10.4302 55.1011 10.4887L54.9387 10.521C54.6382 10.5812 54.3376 10.6441 54.0415 10.7106L53.9518 10.7304C53.6593 10.7957 53.3675 10.864 53.0762 10.9353L52.9802 10.9587C52.6847 11.0318 52.3913 11.1076 52.1 11.186L51.9376 11.2274C51.6505 11.3059 51.3649 11.3864 51.0808 11.4691L50.9319 11.5141C50.6388 11.6003 50.3469 11.6902 50.0562 11.7837L50.0024 11.8007C49.7183 11.8924 49.4348 11.9865 49.1519 12.0829L49.0371 12.1225C48.7565 12.2195 48.4772 12.3193 48.1991 12.4217L48.0421 12.4792C47.7669 12.5817 47.4924 12.6868 47.2185 12.7947L47.0857 12.8477C46.8013 12.9609 46.5169 13.0769 46.2351 13.1955L46.2253 13.2C45.9448 13.3198 45.6657 13.4396 45.3882 13.5595L45.2626 13.6152C44.9964 13.735 44.7312 13.8578 44.4668 13.9836L44.317 14.0546C44.0532 14.181 43.7906 14.3099 43.5292 14.4411L43.4162 14.4986C43.1506 14.6328 42.8872 14.7691 42.6258 14.9075L42.5908 14.9255C42.3216 15.0665 42.0623 15.2112 41.7995 15.3577L41.6694 15.4305C41.417 15.5725 41.1667 15.7166 40.9184 15.8628L40.7776 15.9464C40.5258 16.0955 40.2755 16.2471 40.0266 16.4011L39.9369 16.4577C39.6911 16.6111 39.4465 16.7669 39.203 16.925L39.1411 16.9646C38.8935 17.1263 38.6477 17.2905 38.4036 17.457L38.2744 17.5469C38.0352 17.7099 37.7995 17.8749 37.5675 18.0421L37.4392 18.1319C37.1999 18.3033 36.9628 18.4773 36.7277 18.6541L36.6631 18.7026C36.4334 18.8764 36.2049 19.0519 35.9776 19.2292L35.8969 19.2921C35.6672 19.4719 35.4396 19.6546 35.2141 19.8403L35.0894 19.9437C34.8675 20.1234 34.6477 20.3083 34.43 20.4982L34.317 20.5961C34.0921 20.7903 33.8684 20.9865 33.6459 21.1848L33.6118 21.2162C33.3947 21.4112 33.1793 21.6098 32.9658 21.8094L32.8761 21.8929C32.6655 22.0912 32.4562 22.2916 32.2481 22.4942L32.1305 22.6092C31.926 22.8117 31.7226 23.0157 31.5204 23.2212L31.4235 23.3209C31.2136 23.5375 31.0037 23.7559 30.7955 23.977C22.4517 32.9108 17.6069 45.2811 18.2574 58.9726C18.9078 72.664 24.9199 85.0811 34.1187 94.0913C43.3175 103.101 55.7004 108.703 69.0882 108.761C82.476 108.82 94.334 103.323 102.683 94.3887C102.852 94.209 103.02 94.0248 103.186 93.8405L103.317 93.6949C103.464 93.5305 103.611 93.3651 103.756 93.1989L103.815 93.1315C103.976 92.9451 104.136 92.7579 104.294 92.5698L104.417 92.4224C104.549 92.2624 104.681 92.1016 104.812 91.9398L104.902 91.8329C105.056 91.6417 105.208 91.4488 105.36 91.2541L105.468 91.1139C105.593 90.9522 105.716 90.7904 105.839 90.6268C105.872 90.5819 105.906 90.537 105.94 90.4929C106.086 90.2961 106.232 90.0975 106.376 89.898L106.466 89.7713C106.585 89.6041 106.704 89.4352 106.825 89.2662L106.93 89.1143C107.07 88.9112 107.209 88.7066 107.347 88.5005L107.412 88.4017C107.531 88.222 107.647 88.0422 107.764 87.8625L107.869 87.698C108.004 87.4877 108.138 87.2774 108.266 87.069L108.293 87.0249C108.415 86.8254 108.536 86.6241 108.652 86.4228L108.754 86.2512C108.872 86.049 108.99 85.8467 109.104 85.6427L109.131 85.596C109.254 85.3785 109.374 85.1596 109.49 84.9391C109.522 84.8816 109.553 84.824 109.58 84.7656C109.682 84.5763 109.783 84.3858 109.883 84.1941L109.94 84.0862C110.054 83.8652 110.167 83.6423 110.278 83.4185C113.818 76.3153 115.638 68.1256 115.22 59.3967ZM68.8531 104.637C44.1214 104.637 23.1381 84.1608 21.987 58.9007C20.8359 33.6405 39.954 13.1649 64.6857 13.1649C89.4175 13.1649 110.403 33.6414 111.554 58.9007C112.705 84.1599 93.5876 104.637 68.8531 104.637Z" fill="white"/>
<path d="M68.853 104.637C44.1212 104.637 23.1379 84.1608 21.9868 58.9007C20.8366 33.6414 39.9511 13.1649 64.6856 13.1649C89.42 13.1649 110.402 33.6405 111.553 58.9007C112.705 84.1608 93.5847 104.637 68.853 104.637Z" fill="white"/>
<g clip-path="url(#clip1_3140_178929)">
<path d="M66.5053 104.442C91.5597 105.757 112.037 86.4647 112.243 61.3527C112.449 36.2406 92.3049 14.8178 67.2506 13.5035C42.1963 12.1892 21.7189 31.4811 21.5131 56.5931C21.3073 81.7052 41.451 103.128 66.5053 104.442Z" fill="#473BCB"/>
<path d="M84.5897 60.4293L67.1096 30.5545L49.1529 58.5704L66.7879 69.8108L84.5897 60.4293Z" fill="white"/>
<path d="M66.6438 87.3912L84.5744 63.7366L66.7608 73.1151L49.1258 61.877L66.6438 87.3912Z" fill="white"/>
</g>
</g>
<g clip-path="url(#clip2_3140_178929)" filter="url(#filter1_d_3140_178929)">
<path d="M126.064 101.612L126.12 101.651C126.326 101.794 126.533 101.936 126.742 102.075L126.852 102.149C127.032 102.268 127.211 102.387 127.39 102.508L127.548 102.61C127.76 102.745 127.973 102.879 128.187 103.012L128.284 103.071C128.472 103.187 128.663 103.301 128.853 103.414L129.019 103.511C129.237 103.64 129.456 103.767 129.677 103.891L129.747 103.931C129.948 104.044 130.15 104.156 130.353 104.265L130.525 104.355C130.75 104.476 130.974 104.595 131.201 104.715L131.238 104.733C131.454 104.844 131.672 104.954 131.89 105.061L132.069 105.151C132.296 105.262 132.523 105.371 132.752 105.479L132.764 105.485C132.995 105.593 133.229 105.7 133.464 105.805L133.643 105.885C133.861 105.981 134.08 106.076 134.3 106.17L134.356 106.194C134.592 106.294 134.83 106.391 135.068 106.487L135.247 106.559C135.46 106.649 135.674 106.728 135.889 106.808L135.978 106.844C136.219 106.933 136.46 107.023 136.701 107.113L136.881 107.177C137.092 107.252 137.303 107.325 137.515 107.396L137.634 107.437C137.876 107.518 138.121 107.598 138.368 107.675L138.547 107.731C138.757 107.796 138.968 107.861 139.179 107.923L139.319 107.964C139.567 108.036 139.816 108.106 140.065 108.174L140.244 108.222C140.455 108.279 140.668 108.334 140.88 108.388L141.038 108.429C141.29 108.492 141.542 108.552 141.795 108.609L141.965 108.647C142.179 108.696 142.393 108.743 142.608 108.789L142.782 108.826C143.037 108.88 143.293 108.931 143.551 108.981L143.709 109.01C143.927 109.051 144.147 109.09 144.366 109.129L144.551 109.16C144.81 109.205 145.07 109.247 145.332 109.286L145.475 109.307C145.699 109.34 145.924 109.372 146.15 109.402L146.345 109.428C146.609 109.462 146.873 109.495 147.138 109.524L147.262 109.537C147.495 109.563 147.727 109.586 147.96 109.609L148.163 109.628C148.432 109.651 148.701 109.673 148.97 109.693L149.066 109.7C149.31 109.717 149.553 109.733 149.797 109.746L150.005 109.757C150.274 109.771 150.55 109.784 150.824 109.793H150.878C151.136 109.801 151.395 109.807 151.654 109.812H151.867C152.143 109.812 152.42 109.818 152.697 109.812C166.215 109.753 178.716 104.098 188.005 95.0007C197.295 85.9033 203.369 73.3694 204.024 59.5468C204.679 45.7242 199.793 33.2334 191.365 24.2133C191.111 23.9437 190.853 23.6741 190.592 23.4045C190.508 23.3191 190.424 23.2355 190.34 23.152C190.16 22.9722 189.979 22.7925 189.795 22.6127C189.696 22.5169 189.597 22.4213 189.497 22.3261C189.322 22.1595 189.147 21.9945 188.97 21.8309L188.666 21.5523C188.476 21.3798 188.284 21.2099 188.091 21.0401C188.001 20.9628 187.912 20.8846 187.827 20.8082C187.545 20.5644 187.26 20.3247 186.973 20.0892L186.951 20.0713C186.67 19.8412 186.387 19.6147 186.101 19.3919C186.007 19.3182 185.911 19.2454 185.816 19.1726C185.614 19.0174 185.411 18.8637 185.207 18.7116C185.096 18.6289 184.985 18.548 184.874 18.4671C184.678 18.3239 184.482 18.1828 184.284 18.0438C184.217 17.9971 184.153 17.9486 184.085 17.9019L187.65 20.3849C190.291 22.2261 192.73 24.341 194.929 26.6946C198.06 30.0483 200.68 33.8473 202.703 37.9685L202.642 37.8418L202.661 37.8823L202.681 37.9218L202.721 38.0027C202.733 38.026 202.748 38.0584 202.761 38.0827L202.781 38.1231L202.82 38.2031L202.86 38.2831L202.88 38.3235L202.92 38.4035L202.94 38.4439L202.979 38.5239L202.999 38.5644C203.011 38.5886 203.028 38.6201 203.039 38.6443C206.547 45.7367 208.35 53.9013 207.938 62.6014C207.289 76.2919 201.276 88.7099 192.077 97.7201C182.879 106.73 170.494 112.329 157.107 112.389C155.367 112.398 153.627 112.31 151.896 112.128L151.006 112.038C151.214 112.061 151.424 112.081 151.634 112.1C143.447 111.344 135.951 108.505 129.629 104.102L126.064 101.612Z" fill="#DFE3EB"/>
<path d="M110.711 83.4204C110.822 83.6441 110.934 83.8697 111.049 84.0881L111.106 84.1959C111.206 84.3871 111.307 84.5776 111.409 84.7675C111.439 84.8259 111.471 84.8834 111.499 84.9409C111.618 85.1614 111.738 85.3804 111.857 85.5979L111.884 85.6446C111.999 85.8486 112.117 86.0508 112.235 86.253L112.337 86.4247C112.456 86.626 112.577 86.8273 112.695 87.0268L112.722 87.0708C112.853 87.2838 112.985 87.4941 113.12 87.6999L113.225 87.8643C113.341 88.0441 113.458 88.2238 113.576 88.4036L113.642 88.5024C113.78 88.7085 113.918 88.9131 114.058 89.1162L114.164 89.2681C114.282 89.437 114.401 89.606 114.523 89.7732L114.613 89.8999C114.756 90.0994 114.903 90.298 115.049 90.4948C115.083 90.5397 115.117 90.5847 115.15 90.6287C115.273 90.7923 115.396 90.954 115.521 91.1158L115.629 91.256C115.781 91.4501 115.934 91.643 116.087 91.8347L116.177 91.9417C116.308 92.1034 116.439 92.2643 116.572 92.4243L116.695 92.5716C116.853 92.7604 117.013 92.9476 117.174 93.1333L117.233 93.2007C117.378 93.367 117.525 93.5323 117.672 93.6968L117.803 93.8424C117.969 94.0221 118.137 94.2099 118.306 94.3906C126.655 103.324 138.512 108.821 151.901 108.763C165.289 108.706 177.671 103.102 186.87 94.0931C196.069 85.0847 202.091 72.6703 202.739 58.9789C203.388 45.2875 198.55 32.9171 190.201 23.9833C189.995 23.7622 189.785 23.5439 189.573 23.3273L189.476 23.2275C189.274 23.022 189.071 22.818 188.866 22.6155L188.749 22.5005C188.541 22.2986 188.332 22.0982 188.121 21.8993L188.031 21.8157C187.818 21.6162 187.602 21.4176 187.385 21.2226L187.351 21.1911C187.129 20.9922 186.905 20.796 186.68 20.6025L186.567 20.5045C186.349 20.3176 186.129 20.1328 185.907 19.95L185.783 19.8467C185.557 19.6628 185.329 19.48 185.1 19.2985L185.019 19.2356C184.792 19.0558 184.563 18.8803 184.334 18.709L184.269 18.6604C184.034 18.4807 183.797 18.3066 183.558 18.1383L183.429 18.0484C183.196 17.8813 182.96 17.7162 182.722 17.5533L182.593 17.4634C182.349 17.2974 182.103 17.1333 181.856 16.9709L181.794 16.9314C181.55 16.7732 181.306 16.6174 181.06 16.464L180.97 16.4074C180.721 16.2529 180.471 16.1013 180.219 15.9527L180.078 15.8691C179.83 15.7229 179.579 15.5788 179.327 15.4369L179.196 15.3614C178.934 15.2149 178.671 15.0702 178.405 14.9291L178.37 14.9111C178.109 14.7721 177.846 14.6358 177.58 14.5022L177.467 14.4447C177.205 14.3135 176.943 14.1847 176.679 14.0583L176.529 13.9873C176.265 13.8627 176 13.7398 175.733 13.6188L175.608 13.564C175.331 13.44 175.052 13.3202 174.771 13.2045L174.761 13.2C174.479 13.0814 174.195 12.9655 173.91 12.8522L173.777 12.7992C173.504 12.6914 173.229 12.5862 172.954 12.4838L172.797 12.4263C172.519 12.3238 172.239 12.2241 171.959 12.127L171.844 12.0875C171.562 11.991 171.278 11.8969 170.994 11.8053L170.94 11.7882C170.65 11.6959 170.358 11.6061 170.064 11.5186L169.915 11.4737C169.633 11.3886 169.347 11.3065 169.058 11.2274L168.898 11.1843C168.606 11.1064 168.312 11.0306 168.018 10.9569L167.922 10.9336C167.631 10.8629 167.339 10.7946 167.046 10.7287L166.956 10.7089C166.658 10.6424 166.358 10.5795 166.059 10.5193L165.897 10.4869C165.601 10.4285 165.305 10.3737 165.008 10.3207L164.849 10.2937C164.545 10.2389 164.239 10.1912 163.93 10.149L163.859 10.1382C163.556 10.0933 163.253 10.0508 162.949 10.0106L162.834 9.99534C162.527 9.95669 162.22 9.92074 161.911 9.88749L161.822 9.87671L162.71 9.96927C170.472 10.7722 177.899 13.5527 184.284 18.0457C184.482 18.1847 184.679 18.3258 184.874 18.469C184.985 18.5499 185.096 18.6308 185.207 18.7135C185.411 18.865 185.614 19.0187 185.816 19.1745C185.911 19.2473 186.007 19.3201 186.101 19.3938C186.386 19.6166 186.67 19.8431 186.951 20.0732L186.973 20.0911C187.26 20.3278 187.545 20.5674 187.826 20.8101C187.916 20.8865 188.006 20.9646 188.091 21.0419C188.284 21.2118 188.476 21.3816 188.666 21.5542L188.969 21.8328C189.149 21.9963 189.325 22.1614 189.497 22.328C189.596 22.4232 189.696 22.5188 189.795 22.6146C189.978 22.7944 190.159 22.9741 190.339 23.1538C190.424 23.2374 190.508 23.321 190.592 23.4064C190.853 23.676 191.111 23.9402 191.365 24.2152C199.793 33.2335 204.676 45.7242 204.024 59.5469C203.372 73.3695 197.295 85.907 188.01 95.0035C178.725 104.1 166.221 109.756 152.703 109.813C152.425 109.813 152.148 109.813 151.872 109.813H151.659C151.4 109.809 151.141 109.802 150.883 109.794H150.829C150.556 109.785 150.283 109.772 150.01 109.758L149.802 109.747C149.558 109.733 149.315 109.718 149.072 109.701L148.976 109.694C148.707 109.674 148.437 109.652 148.168 109.629L147.966 109.61C147.732 109.587 147.5 109.564 147.268 109.538L147.144 109.525C146.875 109.496 146.614 109.463 146.351 109.429L146.155 109.403C145.93 109.373 145.705 109.341 145.48 109.308L145.338 109.287C145.076 109.248 144.815 109.206 144.556 109.161L144.371 109.13C144.152 109.091 143.933 109.052 143.715 109.011L143.556 108.982C143.298 108.932 143.043 108.881 142.787 108.827L142.613 108.79C142.398 108.745 142.184 108.697 141.971 108.648L141.8 108.61C141.547 108.55 141.295 108.49 141.044 108.43L140.885 108.389C140.673 108.335 140.461 108.28 140.25 108.223L140.07 108.175C139.821 108.107 139.572 108.037 139.325 107.965L139.185 107.924C138.973 107.864 138.762 107.8 138.552 107.732L138.373 107.676C138.127 107.599 137.882 107.519 137.639 107.438L137.521 107.397C137.308 107.326 137.097 107.253 136.886 107.178L136.707 107.114C136.465 107.024 136.224 106.939 135.984 106.845L135.894 106.809C135.679 106.729 135.465 106.645 135.252 106.56L135.073 106.488C134.835 106.392 134.597 106.295 134.362 106.195L134.305 106.171C134.085 106.077 133.866 105.982 133.648 105.886L133.469 105.806C133.235 105.701 133.001 105.594 132.769 105.486L132.757 105.48C132.529 105.372 132.302 105.263 132.075 105.152L131.895 105.062C131.676 104.955 131.459 104.845 131.243 104.734L131.206 104.716C130.98 104.599 130.758 104.479 130.531 104.356L130.358 104.266C130.156 104.157 129.954 104.045 129.753 103.932L129.682 103.892C129.461 103.768 129.242 103.641 129.024 103.512L128.858 103.415C128.668 103.302 128.478 103.188 128.289 103.072L128.193 103.013C127.978 102.88 127.765 102.746 127.554 102.611L127.396 102.509C127.216 102.392 127.037 102.273 126.857 102.15L126.747 102.076C126.538 101.937 126.331 101.795 126.125 101.652C123.463 99.8021 121.004 97.6747 118.79 95.3054C115.692 91.9869 113.095 88.2327 111.081 84.1618C110.947 83.894 110.815 83.6265 110.684 83.3593C110.688 83.3781 110.7 83.3988 110.711 83.4204Z" fill="#F0F2F7"/>
<path d="M105.776 59.3967C106.424 45.7053 112.438 33.2882 121.637 24.278C130.836 15.2678 143.22 9.66816 156.607 9.60975C158.379 9.60073 160.15 9.69074 161.911 9.87935C162.22 9.9126 162.527 9.94855 162.834 9.98719L162.95 10.0025C163.254 10.0456 163.556 10.0893 163.855 10.1337L163.926 10.1445C164.234 10.1912 164.541 10.2424 164.847 10.2954L165.006 10.3224C165.304 10.3754 165.6 10.4302 165.895 10.4887L166.057 10.521C166.358 10.5812 166.658 10.6441 166.955 10.7106L167.044 10.7304C167.337 10.7957 167.629 10.864 167.92 10.9353L168.016 10.9587C168.311 11.0318 168.605 11.1076 168.896 11.186L169.058 11.2274C169.346 11.3059 169.631 11.3864 169.915 11.4691L170.064 11.5141C170.357 11.6003 170.649 11.6902 170.94 11.7837L170.994 11.8007C171.278 11.8924 171.561 11.9865 171.844 12.0829L171.959 12.1225C172.24 12.2195 172.519 12.3193 172.797 12.4217L172.954 12.4792C173.229 12.5817 173.504 12.6868 173.778 12.7947L173.91 12.8477C174.195 12.9609 174.479 13.0769 174.761 13.1955L174.771 13.2C175.051 13.3198 175.33 13.4396 175.608 13.5595L175.733 13.6152C176 13.735 176.265 13.8578 176.529 13.9836L176.679 14.0546C176.943 14.181 177.205 14.3099 177.467 14.4411L177.58 14.4986C177.845 14.6328 178.109 14.7691 178.37 14.9075L178.405 14.9255C178.674 15.0665 178.934 15.2112 179.197 15.3577L179.327 15.4305C179.579 15.5725 179.829 15.7166 180.078 15.8628L180.219 15.9464C180.47 16.0955 180.721 16.2471 180.969 16.4011L181.059 16.4577C181.305 16.6111 181.55 16.7669 181.793 16.925L181.855 16.9646C182.103 17.1263 182.348 17.2905 182.592 17.457L182.722 17.5469C182.961 17.7099 183.197 17.8749 183.429 18.0421L183.557 18.1319C183.796 18.3033 184.033 18.4773 184.268 18.6541L184.333 18.7026C184.563 18.8764 184.791 19.0519 185.018 19.2292L185.099 19.2921C185.329 19.4719 185.556 19.6546 185.782 19.8403L185.907 19.9437C186.129 20.1234 186.348 20.3083 186.566 20.4982L186.679 20.5961C186.904 20.7903 187.128 20.9865 187.35 21.1848L187.384 21.2162C187.601 21.4112 187.817 21.6098 188.03 21.8094L188.12 21.8929C188.331 22.0912 188.54 22.2916 188.748 22.4942L188.866 22.6092C189.07 22.8117 189.273 23.0157 189.476 23.2212L189.573 23.3209C189.782 23.5375 189.992 23.7559 190.201 23.977C198.544 32.9108 203.389 45.2811 202.739 58.9726C202.088 72.664 196.076 85.0811 186.877 94.0913C177.679 103.101 165.296 108.703 151.908 108.761C138.52 108.82 126.662 103.323 118.313 94.3887C118.144 94.209 117.976 94.0248 117.81 93.8405L117.679 93.6949C117.532 93.5305 117.385 93.3651 117.24 93.1989L117.182 93.1315C117.02 92.9451 116.86 92.7579 116.702 92.5698L116.58 92.4224C116.447 92.2624 116.315 92.1016 116.184 91.9398L116.094 91.8329C115.94 91.6417 115.788 91.4488 115.637 91.2541L115.528 91.1139C115.403 90.9522 115.28 90.7904 115.157 90.6268C115.124 90.5819 115.09 90.537 115.056 90.4929C114.91 90.2961 114.764 90.0975 114.62 89.898L114.53 89.7713C114.411 89.6041 114.292 89.4352 114.171 89.2662L114.066 89.1143C113.926 88.9112 113.787 88.7066 113.649 88.5005L113.584 88.4017C113.465 88.222 113.349 88.0422 113.232 87.8625L113.127 87.698C112.993 87.4877 112.858 87.2774 112.73 87.069L112.703 87.0249C112.581 86.8254 112.46 86.6241 112.344 86.4228L112.243 86.2512C112.124 86.049 112.007 85.8467 111.892 85.6427L111.865 85.596C111.742 85.3785 111.623 85.1596 111.506 84.9391C111.475 84.8816 111.443 84.824 111.416 84.7656C111.314 84.5763 111.213 84.3858 111.113 84.1941L111.056 84.0862C110.942 83.8652 110.829 83.6423 110.718 83.4185C107.178 76.3153 105.358 68.1256 105.776 59.3967ZM152.143 104.637C176.875 104.637 197.858 84.1608 199.009 58.9007C200.16 33.6405 181.042 13.1649 156.31 13.1649C131.579 13.1649 110.593 33.6414 109.442 58.9007C108.291 84.1599 127.409 104.637 152.143 104.637Z" fill="white"/>
<path d="M152.143 104.637C176.875 104.637 197.858 84.1608 199.009 58.9007C200.159 33.6414 181.045 13.1649 156.31 13.1649C131.576 13.1649 110.593 33.6405 109.442 58.9007C108.291 84.1608 127.411 104.637 152.143 104.637Z" fill="#07080D"/>
<g style="mix-blend-mode:screen">
<path style="mix-blend-mode:color-dodge" d="M109.337 63.1824L100.915 58.3335L100.784 58.4096L109.206 63.2585L109.337 63.1824ZM108.683 63.5587L100.261 58.7098L100.129 58.7859L108.551 63.6348L108.683 63.5587ZM107.373 64.3126L98.951 59.4638L98.8193 59.5398L107.241 64.3887L107.373 64.3126ZM104.755 65.8206L96.3333 60.9717L96.2015 61.0478L104.623 65.8966L104.755 65.8206ZM106.065 65.0666L97.6429 60.2177L97.5111 60.2938L105.933 65.1427L106.065 65.0666ZM106.72 64.6903L98.2976 59.8414L98.1659 59.9175L106.588 64.7664L106.72 64.6903ZM108.029 63.9363L99.6072 59.0875L99.4754 59.1636L107.897 64.0124L108.029 63.9363ZM109.992 62.8061L101.57 57.9572L101.438 58.0333L109.86 62.8822L109.992 62.8061ZM111.955 61.6758L103.533 56.827L103.401 56.9031L111.823 61.7519L111.955 61.6758ZM105.41 65.4443L96.9881 60.5954L96.8563 60.6715L105.278 65.5203L105.41 65.4443ZM111.3 62.0521L102.878 57.2033L102.747 57.2793L111.169 62.1282L111.3 62.0521ZM110.646 62.4284L102.224 57.5796L102.092 57.6556L110.514 62.5045L110.646 62.4284ZM155.716 36.4797L147.294 31.6308L147.162 31.7069L155.584 36.5558L155.716 36.4797ZM152.443 38.3639L144.021 33.5151L143.889 33.5911L152.311 38.44L152.443 38.3639ZM153.098 37.9876L144.676 33.1388L144.544 33.2149L152.966 38.0637L153.098 37.9876ZM157.68 35.3495L149.258 30.5006L149.126 30.5767L157.548 35.4255L157.68 35.3495ZM158.335 34.9732L149.913 30.1243L149.781 30.2004L158.203 35.0493L158.335 34.9732ZM157.025 35.7271L148.603 30.8783L148.472 30.9544L156.894 35.8032L157.025 35.7271ZM158.99 34.5969L150.568 29.748L150.436 29.8241L158.858 34.673L158.99 34.5969ZM159.644 34.2206L151.222 29.3717L151.091 29.4478L159.513 34.2967L159.644 34.2206ZM153.754 37.6127L145.332 32.7639L145.2 32.8399L153.622 37.6888L153.754 37.6127ZM155.064 36.8588L146.642 32.0099L146.51 32.086L154.932 36.9349L155.064 36.8588ZM154.409 37.2351L145.987 32.3862L145.855 32.4623L154.277 37.3111L154.409 37.2351ZM156.372 36.1048L147.95 31.2559L147.818 31.332L156.24 36.1809L156.372 36.1048ZM152.447 91.1716L160.869 96.0205L161.001 95.9444L152.579 91.0955L152.447 91.1716ZM151.793 91.5479L160.215 96.3968L160.346 96.3207L151.924 91.4718L151.793 91.5479ZM151.138 91.9242L159.56 96.7731L159.692 96.697L151.27 91.8481L151.138 91.9242ZM153.101 90.7939L161.523 95.6428L161.655 95.5667L153.233 90.7179L153.101 90.7939ZM150.483 92.3019L158.905 97.1507L159.037 97.0747L150.615 92.2258L150.483 92.3019ZM157.028 88.5334L165.45 93.3823L165.582 93.3062L157.16 88.4574L157.028 88.5334ZM156.373 88.9097L164.795 93.7586L164.927 93.6825L156.505 88.8336L156.373 88.9097ZM155.719 89.286L164.141 94.1349L164.272 94.0588L155.85 89.2099L155.719 89.286ZM157.681 88.1558L166.103 93.0046L166.235 92.9286L157.813 88.0797L157.681 88.1558ZM153.754 90.4163L162.176 95.2651L162.308 95.1891L153.886 90.3402L153.754 90.4163ZM155.064 89.6623L163.486 94.5112L163.618 94.4351L155.196 89.5862L155.064 89.6623ZM154.409 90.0386L162.831 94.8875L162.963 94.8114L154.541 89.9625L154.409 90.0386ZM203.405 61.828L211.827 66.6769L211.959 66.6008L203.537 61.7519L203.405 61.828ZM204.06 61.4517L212.482 66.3006L212.614 66.2245L204.192 61.3756L204.06 61.4517ZM205.369 60.6978L213.791 65.5466L213.923 65.4705L205.501 60.6217L205.369 60.6978ZM204.715 61.0741L213.137 65.9229L213.268 65.8468L204.846 60.998L204.715 61.0741ZM202.75 62.2043L211.172 67.0532L211.304 66.9771L202.882 62.1282L202.75 62.2043ZM198.823 64.4648L207.245 69.3137L207.377 69.2376L198.955 64.3887L198.823 64.4648ZM202.096 62.5806L210.518 67.4295L210.649 67.3534L202.227 62.5045L202.096 62.5806ZM199.478 64.0885L207.9 68.9374L208.032 68.8613L199.61 64.0124L199.478 64.0885ZM198.168 64.8425L206.59 69.6913L206.722 69.6153L198.3 64.7664L198.168 64.8425ZM200.131 63.7122L208.553 68.5611L208.685 68.485L200.263 63.6361L200.131 63.7122ZM201.441 62.9583L209.863 67.8071L209.995 67.731L201.573 62.8822L201.441 62.9583ZM200.786 63.3346L209.208 68.1834L209.34 68.1073L200.918 63.2585L200.786 63.3346ZM123.623 88.6912L135.204 82.0231H130.569L124.039 85.7832C123.905 85.739 123.733 85.75 123.619 85.815C123.482 85.8939 123.482 86.0226 123.619 86.1014C123.756 86.1803 123.978 86.1803 124.116 86.1014C124.229 86.0364 124.247 85.9368 124.171 85.8593L130.647 82.131H134.753L123.491 88.6151L123.623 88.6912ZM127.284 89.2196C127.147 89.2985 127.147 89.4271 127.284 89.506C127.421 89.5848 127.643 89.5848 127.781 89.506C127.895 89.441 127.913 89.3414 127.836 89.2639L133.681 85.8994L133.549 85.8233L127.704 89.1878C127.57 89.1435 127.398 89.1546 127.284 89.2196ZM116.246 72.5121L131.74 63.5919L131.608 63.5158L116.114 72.436L116.246 72.5121ZM115.823 68.9028V66.0876H115.635V68.9471L116.906 69.6789L124.826 65.1192L101.966 51.9574L101.834 52.0334L124.562 65.1192L116.906 69.5267L115.823 68.9028ZM115.276 70.6182L116.061 70.1659L114.788 69.4326V66.4265L112.083 67.9842L113.453 68.7741L113.585 68.6981L112.346 67.9842L114.601 66.6866V69.4769L115.796 70.1659L115.276 70.4661L111.629 68.366L111.497 68.4421L115.278 70.6182H115.276ZM125.443 89.4534C125.557 89.387 125.575 89.2888 125.499 89.2113L133.473 84.6212L133.341 84.5451L125.367 89.1352C125.232 89.091 125.06 89.102 124.947 89.1671C124.809 89.2459 124.809 89.3746 124.947 89.4534C125.084 89.5323 125.306 89.5323 125.443 89.4534ZM131.028 92.9548L131.16 93.0309L138.642 88.723V87.0864L140.997 88.4421L132.095 93.5677L132.227 93.6438L141.261 88.4421L138.454 86.8263V88.6773L131.027 92.9535L131.028 92.9548ZM112.848 63.2889L107.698 66.2549L110.829 68.0575L115.979 65.0915L112.848 63.2889ZM115.716 65.0915L110.829 67.9054L107.961 66.2549L112.847 63.4411L115.715 65.0915H115.716ZM142.676 93.6479L142.544 93.5718L139.073 95.5709L139.205 95.647L142.676 93.6479ZM134.741 93.7987L142.66 89.239L149.781 93.3381H146.174L142.493 91.2187L135.252 95.3869L135.384 95.463L142.493 91.3708L146.097 93.446H150.232L142.66 89.0868L134.609 93.7226L134.741 93.7987ZM147.292 92.7999L142.776 90.1991L135.633 94.312L135.764 94.3881L142.776 90.3513L147.159 92.876L147.291 92.7999H147.292ZM143.799 95.0632L139.245 97.6861L139.377 97.7622L143.931 95.1393L143.799 95.0632ZM143.247 98.9921L150.928 94.5693H148.208L141.886 98.2091L142.018 98.2851L148.286 94.6772H150.478L143.114 98.916L143.246 98.9921H143.247ZM121.993 65.1717L117.259 67.8971V64.6322L112.853 62.0964L105.432 66.3684L115.167 71.9726L127.366 64.949L101.884 50.2779L101.752 50.354L127.102 64.949L115.167 71.8204L105.697 66.3684L112.853 62.2486L117.071 64.6778V68.1585L122.257 65.1731L99.069 51.8232L79.3298 63.1893L79.4616 63.2654L99.0717 51.9753L121.995 65.1731L121.993 65.1717ZM152.132 94.5402L142.957 99.8235L143.089 99.8996L152.132 94.6924L159.435 98.8966L169.092 93.3367L152.069 83.5352L151.937 83.6113L168.828 93.3367L159.435 98.7444L152.132 94.5402ZM145.726 95.3274L143.493 94.0408L139.395 96.4009L137.74 95.4478L142.731 92.5744L145.193 93.9924H150.958V93.8845H145.271L142.731 92.4222L137.476 95.4478L139.396 96.5531L143.494 94.193L145.464 95.3274L140.298 98.2907L140.43 98.3668L145.728 95.3274H145.726ZM122.397 87.9842L122.529 88.0603L131.637 82.8158L131.506 82.7397L122.397 87.9842ZM167.843 40.3533L164.063 38.1772L163.931 38.2532L167.578 40.3533L167.058 40.6521L165.862 39.9631H161.015L163.269 38.6655L164.508 39.3793L164.64 39.3033L163.269 38.5133L160.564 40.0711H165.784L167.058 40.8043L167.842 40.3533H167.843ZM160.265 35.99L155.114 38.956L158.245 40.7586L163.396 37.7926L160.265 35.99ZM163.132 37.7926L158.246 40.6064L155.379 38.956L160.265 36.1422L163.132 37.7926ZM156.131 20.2647L137.364 31.0692L140.1 32.6449L158.866 21.8404L156.131 20.2647ZM158.603 21.8404L140.101 32.4927L137.629 31.0692L156.131 20.4169L158.603 21.8404ZM164.942 40.5594H159.976V40.6673H164.865L165.948 41.2912L158.292 45.6988L135.563 32.6131L135.431 32.6892L158.292 45.851L166.212 41.2912L164.941 40.5594H164.942ZM160.464 34.6854L153.044 38.9574L157.45 41.4932H163.121L158.386 44.2185L135.463 31.0208L155.073 19.7321L154.942 19.656L135.2 31.0221L158.388 44.3721L163.573 41.3867H157.529L153.31 38.9574L160.467 34.8376L169.936 40.2896L158.001 47.1611L132.65 32.566L132.518 32.6421L158.001 47.3132L170.2 40.2896L160.466 34.6854H160.464ZM155.929 21.3839L139.307 30.9544L140.299 31.5257L156.921 21.9552L155.929 21.3839ZM156.658 21.9552L140.299 31.3735L139.571 30.9544L155.931 21.5361L156.659 21.9552H156.658ZM177.852 56.4202C177.966 56.3552 177.984 56.2556 177.908 56.1782L185.13 52.0196V48.0257L173.203 54.893L173.335 54.969L184.944 48.2858V51.9767L177.776 56.1034C177.641 56.0592 177.469 56.0702 177.355 56.1353C177.218 56.2141 177.218 56.3428 177.355 56.4216C177.493 56.5005 177.715 56.5005 177.852 56.4216V56.4202ZM183.423 51.2905C183.561 51.2117 183.561 51.083 183.423 51.0042C183.286 50.9253 183.064 50.9253 182.927 51.0042C182.813 51.0692 182.795 51.1688 182.871 51.2463L172.737 57.0801C172.603 57.0359 172.431 57.0469 172.317 57.112C172.18 57.1908 172.18 57.3195 172.317 57.3983C172.454 57.4772 172.676 57.4772 172.814 57.3983C172.927 57.3333 172.945 57.2337 172.869 57.1562L183.003 51.3224C183.137 51.3666 183.309 51.3556 183.423 51.2905ZM173.03 38.5687L180.41 34.3202L180.278 34.2441L172.844 38.5244V41.2788L155.244 51.4123L139.267 42.214V38.855L130.497 33.8056L130.365 33.8817L139.081 38.8993V42.2582L155.244 51.5645L173.03 41.3244V38.57V38.5687ZM155.638 49.831L171.132 40.9108L171 40.8347L155.506 49.755L155.638 49.831ZM153.262 48.6717L153.394 48.5957L141.836 41.9414V39.6546L155.379 47.4516L155.51 47.3755L141.649 39.3946V41.9857L153.262 48.6717ZM166.875 27.5263L159.194 31.949H161.914L168.236 28.3093L168.104 28.2332L161.836 31.8411H159.644L167.008 27.6023L166.876 27.5263H166.875ZM174.738 31.0553L167.629 35.1475L164.025 33.0724H159.89L167.462 37.4315L175.513 32.7957L175.381 32.7196L167.462 37.2793L160.341 33.1803H163.948L167.629 35.2997L174.869 31.1314L174.738 31.0553ZM157.991 31.9781L167.166 26.6948L167.034 26.6187L157.991 31.8259L150.688 27.6217L141.032 33.1816L158.055 42.9831L158.186 42.9071L141.295 33.1816L150.688 27.7739L157.991 31.9781ZM184.324 47.1113C184.186 47.0324 183.964 47.0324 183.827 47.1113C183.713 47.1763 183.695 47.2759 183.771 47.3533L169.319 55.6746L169.451 55.7507L183.903 47.4294C184.038 47.4737 184.21 47.4626 184.324 47.3976C184.461 47.3188 184.461 47.1901 184.324 47.1113ZM162.831 33.7184L167.348 36.3192L174.491 32.2063L174.359 32.1303L167.348 36.1671L162.963 33.6423L162.831 33.7184ZM178.028 32.9492L177.896 32.8731L168.863 38.0748L171.669 39.6906V37.8396L179.096 33.5635L178.965 33.4874L171.483 37.7953V39.4319L169.128 38.0762L178.03 32.9506L178.028 32.9492ZM167.449 32.8704L167.581 32.9465L171.052 30.9474L170.92 30.8713L167.449 32.8704ZM158.866 24.5118L155.175 26.6367L158.206 28.3826L161.897 26.2577L158.866 24.5118ZM161.634 26.2577L158.207 28.2304L155.44 26.6367L158.866 24.664L161.634 26.2577ZM164.399 31.1895L166.632 32.4761L170.73 30.116L172.385 31.0692L167.394 33.9425L164.931 32.5245H159.167V32.6324H164.854L167.394 34.0947L172.648 31.0692L170.729 29.9638L166.631 32.3239L164.662 31.1895L169.828 28.2263L169.696 28.1502L164.399 31.1895ZM159.062 23.4064L153.255 26.7502L158.01 29.4879L163.817 26.1442L159.062 23.4064ZM163.552 26.1442L158.01 29.3358L153.52 26.7502L159.062 23.5586L163.552 26.1442ZM166.324 31.4538L170.878 28.8308L170.747 28.7547L166.192 31.3777L166.324 31.4538ZM159.295 22.0867L150.962 26.8843L157.776 30.8077L166.109 26.01L159.295 22.0867ZM165.844 26.01L157.776 30.6555L151.227 26.8843L159.295 22.2388L165.844 26.01ZM182.598 46.4043C182.484 46.4693 182.466 46.569 182.542 46.6464L168.09 54.9677L168.222 55.0438L182.674 46.7225C182.809 46.7668 182.981 46.7557 183.094 46.6907C183.232 46.6118 183.232 46.4832 183.094 46.4043C182.957 46.3255 182.735 46.3255 182.598 46.4043ZM137.393 57.4011C137.53 57.4799 137.752 57.4799 137.89 57.4011C138.027 57.3222 138.027 57.1936 137.89 57.1147C137.776 57.0497 137.602 57.0386 137.469 57.0829L127.335 51.249C127.412 51.1716 127.394 51.072 127.28 51.0069C127.143 50.9281 126.921 50.9281 126.783 51.0069C126.646 51.0858 126.646 51.2145 126.783 51.2933C126.897 51.3583 127.071 51.3694 127.204 51.3251L137.338 57.159C137.261 57.2365 137.279 57.3361 137.393 57.4011ZM140.887 55.6746L126.435 47.3533C126.511 47.2759 126.493 47.1763 126.38 47.1113C126.242 47.0324 126.02 47.0324 125.883 47.1113C125.746 47.1901 125.746 47.3188 125.883 47.3976C125.997 47.4626 126.17 47.4737 126.303 47.4294L140.756 55.7507L140.887 55.6746ZM181.505 80.5152L169.579 73.6479L169.447 73.724L181.055 80.4073H174.646L167.478 76.2805C167.555 76.2031 167.536 76.1035 167.423 76.0384C167.285 75.9596 167.063 75.9596 166.926 76.0384C166.789 76.1173 166.789 76.246 166.926 76.3248C167.04 76.3898 167.213 76.4009 167.346 76.3566L174.568 80.5152H181.506H181.505ZM118.686 42.8918C118.762 42.8144 118.744 42.7148 118.631 42.6497C118.493 42.5709 118.271 42.5709 118.134 42.6497C117.997 42.7286 117.997 42.8573 118.134 42.9361C118.248 43.0011 118.421 43.0122 118.554 42.9679L124.225 46.2328V47.536L119.184 44.6336L119.052 44.7096L124.413 47.796V46.1885L118.687 42.8918H118.686ZM169.319 70.7815L183.771 79.1027C183.695 79.1802 183.713 79.2798 183.827 79.3448C183.964 79.4237 184.186 79.4237 184.324 79.3448C184.461 79.266 184.461 79.1373 184.324 79.0584C184.21 78.992 184.036 78.9824 183.903 79.0266L169.451 70.7054L169.319 70.7815ZM115.928 45.3419C116.004 45.2644 115.986 45.1648 115.873 45.0998C115.735 45.0209 115.513 45.0209 115.376 45.0998C115.239 45.1786 115.239 45.3073 115.376 45.3861C115.49 45.4512 115.663 45.4622 115.796 45.418L122.272 49.1463V51.5105L111.01 45.0264L110.879 45.1025L122.459 51.7706V49.102L115.93 45.3419H115.928ZM119.783 42.2596L125.508 45.5563H128.3L122.939 42.4699L122.808 42.546L127.849 45.4484H125.586L119.915 42.1835C119.991 42.1061 119.973 42.0065 119.86 41.9414C119.722 41.8626 119.5 41.8626 119.363 41.9414C119.226 42.0203 119.226 42.1489 119.363 42.2278C119.477 42.2928 119.65 42.3039 119.783 42.2596ZM109.884 47.5277L115.728 50.8921L115.86 50.816L110.016 47.4516C110.092 47.3741 110.074 47.2745 109.96 47.2095C109.823 47.1306 109.601 47.1306 109.464 47.2095C109.326 47.2883 109.326 47.417 109.464 47.4958C109.577 47.5609 109.751 47.5719 109.884 47.5277ZM112.102 44.397L111.97 44.4731L121.079 49.7176L121.211 49.6415L112.102 44.397ZM125.078 48.0257V52.0196L132.3 56.1782C132.224 56.2556 132.242 56.3552 132.356 56.4202C132.493 56.4991 132.715 56.4991 132.853 56.4202C132.99 56.3414 132.99 56.2127 132.853 56.1339C132.739 56.0689 132.565 56.0578 132.432 56.1021L125.264 51.9753V48.2844L136.873 54.9677L137.005 54.8916L125.078 48.0243V48.0257ZM165.722 73.1374C165.585 73.0586 165.363 73.0586 165.225 73.1374C165.088 73.2163 165.088 73.3449 165.225 73.4238C165.339 73.4888 165.512 73.4999 165.646 73.4556L175.779 79.2895C175.703 79.3669 175.721 79.4666 175.835 79.5316C175.972 79.6104 176.194 79.6104 176.332 79.5316C176.469 79.4527 176.469 79.3241 176.332 79.2452C176.218 79.1802 176.044 79.1691 175.911 79.2134L165.777 73.3795C165.854 73.3021 165.836 73.2024 165.722 73.1374ZM144.487 53.3159C144.625 53.3947 144.847 53.3947 144.984 53.3159C145.121 53.237 145.121 53.1084 144.984 53.0295C144.87 52.9645 144.697 52.9534 144.564 52.9977L134.43 47.1638C134.506 47.0863 134.488 46.9867 134.374 46.9217C134.237 46.8429 134.015 46.8429 133.878 46.9217C133.74 47.0006 133.74 47.1292 133.878 47.2081C133.991 47.2731 134.165 47.2842 134.298 47.2399L144.432 53.0738C144.356 53.1512 144.374 53.2508 144.487 53.3159ZM126.227 36.2625L126.095 36.3386L133.549 40.63L133.681 40.5539L126.227 36.2625ZM126.492 37.9641L133.342 41.9082L133.474 41.8321L126.624 37.888C126.7 37.8106 126.682 37.7109 126.568 37.6459C126.431 37.5671 126.209 37.5671 126.072 37.6459C125.934 37.7248 125.934 37.8534 126.072 37.9323C126.185 37.9973 126.359 38.0084 126.492 37.9641ZM165.225 53.0295C165.088 53.1084 165.088 53.237 165.225 53.3159C165.363 53.3947 165.585 53.3947 165.722 53.3159C165.836 53.2508 165.854 53.1512 165.777 53.0738L175.911 47.2399C176.046 47.2842 176.218 47.2731 176.332 47.2081C176.469 47.1292 176.469 47.0006 176.332 46.9217C176.194 46.8429 175.972 46.8429 175.835 46.9217C175.721 46.9881 175.703 47.0863 175.779 47.1638L165.646 52.9977C165.511 52.9534 165.339 52.9645 165.225 53.0295ZM167.348 50.0967C167.213 50.0524 167.041 50.0635 166.927 50.1285C166.79 50.2073 166.79 50.336 166.927 50.4148C167.065 50.4937 167.287 50.4937 167.424 50.4148C167.538 50.3498 167.556 50.2502 167.48 50.1727L174.647 46.046H181.057L169.448 52.7293L169.58 52.8054L181.507 45.9381H174.57L167.348 50.0967ZM122.531 38.3916L122.4 38.4677L131.508 43.7122L131.64 43.6361L122.531 38.3916ZM124.041 40.6701L130.571 44.4302H135.205L123.625 37.7621L123.493 37.8382L134.754 44.3223H130.648L124.173 40.594C124.249 40.5165 124.231 40.4169 124.117 40.3519C123.98 40.273 123.758 40.273 123.62 40.3519C123.483 40.4307 123.483 40.5594 123.62 40.6383C123.734 40.7033 123.908 40.7143 124.041 40.6701ZM172.815 69.0536C172.678 68.9747 172.456 68.9747 172.318 69.0536C172.181 69.1324 172.181 69.2611 172.318 69.34C172.432 69.405 172.605 69.416 172.739 69.3718L182.872 75.2056C182.796 75.2831 182.814 75.3827 182.928 75.4477C183.065 75.5266 183.287 75.5266 183.425 75.4477C183.562 75.3689 183.562 75.2402 183.425 75.1614C183.311 75.0963 183.137 75.0853 183.004 75.1295L172.87 69.2957C172.947 69.2182 172.929 69.1186 172.815 69.0536ZM114.066 55.6442H118.038L129.595 62.2984L129.727 62.2223L118.116 55.5362H113.617L127.478 63.5172L127.61 63.4411L114.068 55.6442H114.066ZM185.132 78.4276V74.4337L177.91 70.2751C177.987 70.1977 177.969 70.0981 177.855 70.033C177.717 69.9542 177.496 69.9542 177.358 70.033C177.221 70.1119 177.221 70.2406 177.358 70.3194C177.472 70.3844 177.645 70.3955 177.779 70.3512L184.946 74.478V78.1689L173.338 71.4856L173.206 71.5617L185.132 78.429V78.4276ZM147.193 51.4856C147.116 51.5631 147.134 51.6627 147.248 51.7277C147.385 51.8066 147.607 51.8066 147.745 51.7277C147.882 51.6489 147.882 51.5202 147.745 51.4413C147.631 51.3763 147.457 51.3653 147.324 51.4095L136.569 45.2174H129.919L120.298 39.6782L120.166 39.7543L129.842 45.3253H136.493L147.193 51.4856ZM128.702 45.9395L140.628 52.8068L140.76 52.7307L129.151 46.0474H135.56L142.728 50.1741C142.652 50.2516 142.67 50.3512 142.784 50.4162C142.921 50.4951 143.143 50.4951 143.28 50.4162C143.418 50.3374 143.418 50.2087 143.28 50.1299C143.167 50.0648 142.993 50.0538 142.86 50.098L135.638 45.9395H128.701H128.702ZM211.174 72.3309L227.796 62.7604L226.804 62.1891L210.182 71.7595L211.174 72.3309ZM210.445 71.7595L226.804 62.3413L227.532 62.7604L211.174 72.1787L210.445 71.7595ZM199.292 53.807L206.773 49.499L206.642 49.4229L199.214 53.6991H195.999L198.805 55.3149L207.839 50.1133L207.707 50.0372L198.805 55.1627L196.449 53.807H199.291H199.292ZM179.268 68.2014C179.345 68.1239 179.327 68.0243 179.213 67.9593C179.076 67.8805 178.854 67.8805 178.716 67.9593C178.579 68.0382 178.579 68.1668 178.716 68.2457C178.83 68.3107 179.003 68.3218 179.137 68.2775L190.846 75.0203H195.7L203.017 79.2328L203.148 79.1567L195.777 74.9124H190.923L179.267 68.2014H179.268ZM175.641 63.1561L193.241 53.0226H198.024L205.458 48.7423L205.326 48.6662L197.946 52.9147H193.163L175.377 63.1547L191.54 72.4609H197.373L206.089 77.4786L206.221 77.4025L197.451 72.353H191.618L175.641 63.1547V63.1561ZM194.012 54.085L193.88 54.009L178.386 62.9292L178.518 63.0053L194.012 54.085ZM207.495 60.4806V58.0997L203.891 56.0246L210.999 51.9324L210.867 51.8564L203.627 56.0246L207.307 58.144V60.2205L200.187 56.1214L208.106 51.5617L207.975 51.4856L199.923 56.1214L207.495 60.4806ZM190.282 61.5375L207.305 71.339L216.961 65.779L209.659 61.5749L218.702 56.3677L218.57 56.2916L209.395 61.5749L216.698 65.779L207.305 71.1868L190.414 61.4614L190.282 61.5375ZM210.437 56.8533L214.991 54.2303L214.86 54.1542L210.305 56.7772L210.437 56.8533ZM187.679 88.0645L187.811 87.9884L178.702 82.7439L178.571 82.8199L187.679 88.0645ZM215.91 54.7602L210.764 57.7345L208.795 56.6001L212.892 54.24L210.973 53.1346L205.718 56.1602L208.258 57.6224V60.8956H208.445V57.5768L205.983 56.1588L210.974 53.2854L212.629 54.2386L208.531 56.5987L210.764 57.8853L216.043 54.8349L215.911 54.7588L215.91 54.7602ZM206.506 58.7126L202.122 56.1878L209.133 52.151L209.001 52.0749L201.858 56.1878L206.375 58.7887L206.507 58.7126H206.506ZM215.901 55.7534L215.77 55.6774L209.448 59.3171V60.8831L217.129 56.4604L216.997 56.3843L209.634 60.6231V59.3614L215.901 55.7534ZM134.625 39.8539V42.6484L146.335 49.3911C146.259 49.4686 146.277 49.5682 146.391 49.6332C146.528 49.7121 146.75 49.7121 146.887 49.6332C147.025 49.5544 147.025 49.4257 146.887 49.3468C146.774 49.2818 146.6 49.2708 146.467 49.315L134.811 42.6041V39.8096L127.44 35.5653L127.308 35.6414L134.624 39.8539H134.625ZM190.426 84.1951L184.701 80.8984H181.91L187.27 83.9848L187.402 83.9087L182.361 81.0063H184.623L190.294 84.2711C190.218 84.3486 190.236 84.4482 190.35 84.5133C190.487 84.5921 190.709 84.5921 190.846 84.5133C190.984 84.4344 190.984 84.3057 190.846 84.2269C190.733 84.1619 190.559 84.1508 190.426 84.1951ZM127.534 46.7225L141.986 55.0438L142.118 54.9677L127.666 46.6464C127.742 46.569 127.724 46.4693 127.61 46.4043C127.473 46.3255 127.251 46.3255 127.114 46.4043C126.976 46.4832 126.976 46.6118 127.114 46.6907C127.227 46.7557 127.401 46.7668 127.534 46.7225ZM182.675 79.7335L168.223 71.4123L168.091 71.4884L182.544 79.8096C182.467 79.8871 182.485 79.9867 182.599 80.0517C182.737 80.1306 182.958 80.1306 183.096 80.0517C183.233 79.9729 183.233 79.8442 183.096 79.7654C182.982 79.699 182.809 79.6893 182.675 79.7335ZM186.169 85.7846L179.639 82.0245H175.004L186.585 88.6925L186.717 88.6165L175.455 82.1324H179.561L186.037 85.8607C185.96 85.9382 185.979 86.0378 186.092 86.1028C186.23 86.1816 186.452 86.1816 186.589 86.1028C186.726 86.0239 186.726 85.8953 186.589 85.8164C186.475 85.75 186.302 85.7403 186.169 85.7846ZM163.017 74.9705C163.093 74.893 163.075 74.7934 162.961 74.7284C162.824 74.6495 162.602 74.6495 162.465 74.7284C162.327 74.8072 162.327 74.9359 162.465 75.0147C162.578 75.0797 162.752 75.0908 162.885 75.0465L173.64 81.2387H180.291L189.911 86.7779L190.043 86.7018L180.367 81.1308H173.717L163.017 74.9705ZM191.522 83.5642C191.446 83.6417 191.464 83.7413 191.577 83.8063C191.715 83.8852 191.937 83.8852 192.074 83.8063C192.211 83.7275 192.211 83.5988 192.074 83.52C191.96 83.4549 191.787 83.4439 191.654 83.4881L185.983 80.2233V78.9201L191.024 81.8225L191.156 81.7464L185.795 78.66V80.2675L191.521 83.5642H191.522ZM200.235 80.2731L192.261 75.6829L192.13 75.759L200.103 80.3492C200.027 80.4266 200.045 80.5262 200.159 80.5913C200.296 80.6701 200.518 80.6701 200.656 80.5913C200.793 80.5124 200.793 80.3838 200.656 80.3049C200.542 80.2385 200.368 80.2288 200.235 80.2731ZM175.079 67.4654C174.942 67.5443 174.942 67.6729 175.079 67.7518C175.193 67.8168 175.366 67.8279 175.499 67.7836L186.199 73.944V77.7733L195.875 83.3443L196.007 83.2682L186.386 77.729V73.8997L175.631 67.7075C175.707 67.6301 175.689 67.5304 175.576 67.4654C175.438 67.3866 175.216 67.3866 175.079 67.4654ZM194.281 81.1142C194.205 81.1917 194.223 81.2913 194.337 81.3563C194.474 81.4352 194.696 81.4352 194.833 81.3563C194.971 81.2774 194.971 81.1488 194.833 81.0699C194.72 81.0049 194.546 80.9938 194.413 81.0381L187.937 77.3098V74.9456L199.199 81.4296L199.331 81.3535L187.75 74.6855V77.3541L194.28 81.1142H194.281ZM200.325 78.927L194.481 75.5626L194.349 75.6386L200.194 79.0031C200.117 79.0806 200.135 79.1802 200.249 79.2452C200.386 79.3241 200.608 79.3241 200.746 79.2452C200.883 79.1663 200.883 79.0377 200.746 78.9588C200.632 78.8938 200.459 78.8828 200.325 78.927ZM198.107 82.0577L198.239 81.9816L189.13 76.7371L188.999 76.8132L198.107 82.0577ZM207.713 56.0523L207.844 56.1283L211.315 54.1293L211.183 54.0532L207.713 56.0523ZM187.27 42.4699L181.91 45.5563H184.701L190.426 42.2596C190.561 42.3039 190.733 42.2928 190.846 42.2278C190.984 42.1489 190.984 42.0203 190.846 41.9414C190.709 41.8626 190.487 41.8626 190.35 41.9414C190.236 42.0078 190.218 42.1061 190.294 42.1835L184.623 45.4484H182.361L187.402 42.546L187.27 42.4699ZM196.061 70.8742H192.089L180.532 64.2199L180.4 64.296L192.012 70.9821H196.51L182.649 63.0012L182.517 63.0772L196.06 70.8742H196.061ZM189.13 49.7176L198.239 44.4731L198.107 44.397L188.999 49.6415L189.13 49.7176ZM186.199 52.5107L175.499 58.6711C175.365 58.6268 175.193 58.6379 175.079 58.7029C174.942 58.7817 174.942 58.9104 175.079 58.9893C175.216 59.0681 175.438 59.0681 175.576 58.9893C175.689 58.9228 175.707 58.8246 175.631 58.7472L186.386 52.555V48.7257L196.007 43.1865L195.875 43.1104L186.199 48.6814V52.5107ZM173.639 45.216L162.884 51.4081C162.749 51.3639 162.577 51.3749 162.463 51.44C162.326 51.5188 162.326 51.6475 162.463 51.7263C162.601 51.8052 162.823 51.8052 162.96 51.7263C163.074 51.6599 163.092 51.5617 163.015 51.4842L173.715 45.3239H180.366L190.042 39.7529L189.91 39.6768L180.289 45.216H173.639ZM182.924 37.2337C183.061 37.1548 183.061 37.0262 182.924 36.9473C182.786 36.8685 182.565 36.8685 182.427 36.9473C182.313 37.0123 182.295 37.1119 182.372 37.1894L176.527 40.5539L176.659 40.63L182.503 37.2655C182.638 37.3098 182.81 37.2987 182.924 37.2337ZM175.397 39.8082V42.6027L163.741 49.3136C163.606 49.2694 163.434 49.2804 163.321 49.3455C163.183 49.4243 163.183 49.553 163.321 49.6318C163.458 49.7107 163.68 49.7107 163.817 49.6318C163.931 49.5668 163.949 49.4672 163.873 49.3897L175.583 42.647V39.8525L182.899 35.64L182.767 35.5639L175.395 39.8082H175.397ZM187.937 49.1449L194.413 45.4166C194.548 45.4608 194.72 45.4498 194.833 45.3847C194.971 45.3059 194.971 45.1772 194.833 45.0984C194.696 45.0195 194.474 45.0195 194.337 45.0984C194.223 45.1634 194.205 45.263 194.281 45.3405L187.751 49.1006V51.7692L199.332 45.1011L199.2 45.0251L187.939 51.5091V49.1449H187.937ZM176.867 41.9082L184.841 37.3167C184.976 37.3609 185.148 37.3499 185.261 37.2849C185.399 37.206 185.399 37.0773 185.261 36.9985C185.124 36.9196 184.902 36.9196 184.765 36.9985C184.651 37.0635 184.633 37.1631 184.709 37.2406L176.735 41.8321L176.867 41.9082ZM179.639 44.4288L186.169 40.6687C186.303 40.713 186.475 40.7019 186.589 40.6369C186.726 40.558 186.726 40.4294 186.589 40.3505C186.452 40.2716 186.23 40.2716 186.092 40.3505C185.979 40.4155 185.96 40.5151 186.037 40.5926L179.561 44.3209H175.455L186.717 37.8368L186.585 37.7608L175.004 44.4288H179.639ZM178.701 43.7108L187.81 38.4663L187.678 38.3902L178.569 43.6347L178.701 43.7108ZM191.159 44.7055L191.027 44.6294L185.985 47.5318V46.2286L191.657 42.9638C191.791 43.008 191.963 42.997 192.077 42.932C192.214 42.8531 192.214 42.7244 192.077 42.6456C191.94 42.5667 191.718 42.5667 191.58 42.6456C191.466 42.7106 191.448 42.8102 191.525 42.8877L185.8 46.1844V47.7919L191.16 44.7055H191.159ZM188.132 61.3438L192.866 58.6171V61.882L197.271 64.4178L204.691 60.1458L194.957 54.5416L182.757 61.5652L208.24 76.2363L208.371 76.1602L183.021 61.5652L194.957 54.6937L204.426 60.1458L197.269 64.2656L193.051 61.8363V58.3556L187.865 61.3411L211.053 74.691L230.795 63.3249L230.663 63.2488L211.053 74.5388L188.13 61.3411L188.132 61.3438ZM197.278 63.2267L202.428 60.2606L199.297 58.458L194.147 61.4241L197.278 63.2267ZM194.41 61.4241L199.296 58.6102L202.164 60.2606L197.278 63.0745L194.41 61.4241ZM194.85 55.8987L194.066 56.3497L195.34 57.0829V60.0891L198.045 58.5313L196.674 57.7414L196.542 57.8175L197.781 58.5313L195.527 59.829V57.0386L194.331 56.3497L194.851 56.0509L198.5 58.1509L198.632 58.0748L194.851 55.8987H194.85ZM194.303 57.6141V60.4294H194.491V57.5699L193.22 56.838L185.3 61.3978L208.161 74.5596L208.292 74.4835L185.564 61.3978L193.22 56.9902L194.303 57.6141ZM210.973 73.4473L229.739 62.6428L227.004 61.0671L208.237 71.8716L210.973 73.4473ZM208.5 71.8716L227.002 61.2193L229.474 62.6428L210.973 73.2951L208.5 71.8716ZM199.532 46.7944C199.669 46.7156 199.669 46.5869 199.532 46.5081C199.395 46.4292 199.173 46.4292 199.035 46.5081C198.922 46.5731 198.903 46.6727 198.98 46.7502L192.13 50.6943L192.261 50.7704L199.112 46.8263C199.246 46.8705 199.418 46.8595 199.532 46.7944ZM194.481 50.8907L201.935 46.5994L201.803 46.5233L194.349 50.8147L194.481 50.8907ZM190.846 51.4344L179.137 58.1772C179.002 58.1329 178.83 58.144 178.716 58.209C178.579 58.2879 178.579 58.4165 178.716 58.4954C178.854 58.5742 179.076 58.5742 179.213 58.4954C179.327 58.429 179.345 58.3307 179.268 58.2533L190.924 51.5423H195.778L203.15 47.298L203.018 47.2219L195.702 51.4344H190.848H190.846ZM218.67 63.1934L222.362 61.0685L219.331 59.3227L215.639 61.4476L218.67 63.1934ZM215.903 61.4476L219.329 59.4748L222.097 61.0685L218.67 63.0413L215.903 61.4476ZM218.24 65.6186L226.574 60.8209L219.759 56.8975L211.426 61.6952L218.24 65.6186ZM211.691 61.6952L219.759 57.0497L226.309 60.8209L218.24 65.4664L211.691 61.6952ZM218.475 64.2988L224.282 60.9551L219.526 58.2173L213.719 61.561L218.475 64.2988ZM213.984 61.561L219.526 58.3695L224.017 60.9551L218.475 64.1466L213.984 61.561ZM156.864 77.8466L156.733 77.9227L168.29 84.5769V86.8637L154.747 79.0667L154.616 79.1428L168.477 87.1237V84.5326L156.864 77.8466ZM130.998 67.9565C130.884 68.0216 130.866 68.1212 130.942 68.1986L119.287 74.9096H114.433L107.061 79.1539L107.193 79.23L114.509 75.0175H119.363L131.073 68.2747C131.207 68.319 131.379 68.3079 131.493 68.2429C131.63 68.1641 131.63 68.0354 131.493 67.9565C131.356 67.8777 131.134 67.8777 130.996 67.9565H130.998ZM99.3644 68.7852L101.333 69.9182L97.235 72.2783L99.155 73.3837L104.41 70.3582L101.87 68.8959V65.6227H101.683V68.9415L104.145 70.3595L99.1536 73.2329L97.4986 72.2797L101.597 69.9196L99.3631 68.633L94.0846 71.6835L94.2164 71.7595L99.3617 68.7852H99.3644ZM111.01 81.4268L122.272 74.9428V77.307L115.796 81.0353C115.662 80.9911 115.49 81.0021 115.376 81.0672C115.239 81.146 115.239 81.2747 115.376 81.3535C115.513 81.4324 115.735 81.4324 115.873 81.3535C115.986 81.2871 116.004 81.1889 115.928 81.1114L122.458 77.3513V74.6827L110.877 81.3508L111.009 81.4268H111.01ZM94.2275 70.7663L94.3593 70.8423L100.681 67.2026V65.6366L92.9998 70.0593L93.1315 70.1354L100.495 65.8966V67.1583L94.2275 70.7663ZM112.102 82.0563L121.211 76.8118L121.079 76.7357L111.97 81.9802L112.102 82.0563ZM110.677 79.6561C110.54 79.7349 110.54 79.8636 110.677 79.9424C110.815 80.0213 111.037 80.0213 111.174 79.9424C111.288 79.8774 111.306 79.7778 111.23 79.7003L118.08 75.7562L117.948 75.6801L111.098 79.6243C110.963 79.58 110.791 79.5911 110.677 79.6561ZM102.415 70.4661L102.283 70.39L98.8123 72.389L98.9441 72.4651L102.415 70.4661ZM102.633 66.0391V68.42L106.237 70.4951L99.1286 74.5872L99.2604 74.6633L106.5 70.4951L102.819 68.3757V66.2992L109.939 70.3983L102.02 74.958L102.151 75.0341L110.203 70.3983L102.631 66.0391H102.633ZM93.4298 60.7407L102.823 55.3329L119.714 65.0583L119.846 64.9822L102.823 55.1807L93.1662 60.7407L100.469 64.9448L91.4252 70.152L91.557 70.2281L100.732 64.9448L93.4298 60.7407ZM114.128 72.8192L111.321 71.2034L102.287 76.4051L102.419 76.4811L111.321 71.3556L113.677 72.7113H110.836L103.354 77.0193L103.486 77.0954L110.913 72.8192H114.129H114.128ZM99.6918 69.6664L95.1375 72.2894L95.2693 72.3655L99.8236 69.7425L99.6918 69.6664ZM103.623 67.8071L108.008 70.3319L100.997 74.3687L101.129 74.4448L108.272 70.3319L103.755 67.731L103.623 67.8071ZM142.863 76.3566C142.997 76.4009 143.17 76.3898 143.283 76.3248C143.421 76.246 143.421 76.1173 143.283 76.0384C143.146 75.9596 142.924 75.9596 142.787 76.0384C142.673 76.1035 142.655 76.2031 142.731 76.2805L135.563 80.4073H129.154L140.763 73.724L140.631 73.6479L128.703 80.5152H135.641L142.863 76.3566ZM119.861 84.5133C119.975 84.4482 119.993 84.3486 119.916 84.2711L125.588 81.0063H127.85L122.809 83.9087L122.941 83.9848L128.301 80.8984H125.51L119.785 84.1951C119.65 84.1508 119.478 84.1619 119.364 84.2269C119.227 84.3057 119.227 84.4344 119.364 84.5133C119.502 84.5921 119.724 84.5921 119.861 84.5133ZM108.408 79.93L115.862 75.6386L115.73 75.5626L108.276 79.8539L108.408 79.93ZM147.747 75.0133C147.885 74.9345 147.885 74.8058 147.747 74.727C147.61 74.6481 147.388 74.6481 147.251 74.727C147.137 74.792 147.119 74.8916 147.195 74.9691L136.495 81.1294H129.845L120.169 86.7004L120.301 86.7765L129.921 81.2373H136.572L147.327 75.0452C147.462 75.0894 147.634 75.0784 147.747 75.0133ZM118.557 83.4881C118.422 83.4439 118.25 83.4549 118.137 83.52C117.999 83.5988 117.999 83.7275 118.137 83.8063C118.274 83.8852 118.496 83.8852 118.633 83.8063C118.747 83.7413 118.765 83.6417 118.689 83.5642L124.414 80.2675V78.66L119.054 81.7464L119.185 81.8225L124.227 78.9201V80.2233L118.556 83.4881H118.557ZM144.49 73.1388C144.376 73.2052 144.358 73.3034 144.435 73.3809L134.301 79.2148C134.166 79.1705 133.994 79.1816 133.881 79.2466C133.743 79.3254 133.743 79.4541 133.881 79.533C134.018 79.6118 134.24 79.6118 134.377 79.533C134.491 79.4679 134.509 79.3683 134.433 79.2909L144.566 73.457C144.701 73.5013 144.873 73.4902 144.987 73.4252C145.124 73.3463 145.124 73.2177 144.987 73.1388C144.849 73.06 144.628 73.06 144.49 73.1388ZM126.788 75.1641C126.65 75.243 126.65 75.3716 126.788 75.4505C126.925 75.5294 127.147 75.5294 127.284 75.4505C127.398 75.3855 127.416 75.2859 127.34 75.2084L137.473 69.3745C137.608 69.4188 137.78 69.4077 137.894 69.3427C138.031 69.2639 138.031 69.1352 137.894 69.0564C137.756 68.9775 137.535 68.9775 137.397 69.0564C137.283 69.1214 137.265 69.221 137.342 69.2985L127.208 75.1323C127.073 75.088 126.901 75.0991 126.788 75.1641ZM134.637 67.4654C134.523 67.5304 134.505 67.6301 134.581 67.7075L123.826 73.8997V77.729L114.205 83.2682L114.337 83.3443L124.013 77.7733V73.944L134.713 67.7836C134.847 67.8279 135.019 67.8168 135.133 67.7518C135.271 67.6729 135.271 67.5443 135.133 67.4654C134.996 67.3866 134.774 67.3866 134.637 67.4654ZM132.359 70.0344C132.245 70.0995 132.227 70.1991 132.303 70.2765L125.081 74.4351V78.429L137.007 71.5617L136.876 71.4856L125.267 78.1689V74.478L132.435 70.3512C132.57 70.3955 132.742 70.3844 132.855 70.3194C132.993 70.2406 132.993 70.1119 132.855 70.033C132.718 69.9542 132.496 69.9542 132.359 70.033V70.0344ZM141.989 71.4123L127.537 79.7335C127.402 79.6893 127.23 79.7003 127.116 79.7654C126.979 79.8442 126.979 79.9729 127.116 80.0517C127.254 80.1306 127.476 80.1306 127.613 80.0517C127.727 79.9853 127.745 79.8871 127.668 79.8096L142.121 71.4884L141.989 71.4123ZM140.76 70.7054L126.308 79.0266C126.173 78.9824 126.001 78.9934 125.887 79.0584C125.75 79.1373 125.75 79.266 125.887 79.3448C126.025 79.4237 126.246 79.4237 126.384 79.3448C126.498 79.2798 126.516 79.1802 126.439 79.1027L140.892 70.7815L140.76 70.7054ZM131.075 58.18L119.366 51.4372H114.512L107.195 47.2247L107.064 47.3008L114.435 51.5451H119.289L130.945 58.256C130.869 58.3335 130.887 58.4331 131.001 58.4981C131.138 58.577 131.36 58.577 131.497 58.4981C131.635 58.4193 131.635 58.2906 131.497 58.2118C131.383 58.1468 131.21 58.1357 131.077 58.18H131.075ZM104.039 49.0411L103.908 49.1172L112.678 54.1667H118.511L134.488 63.365L116.888 73.4985H112.105L104.671 77.7788L104.802 77.8549L112.183 73.6064H116.966L134.752 63.3664L118.589 54.0601H112.756L104.039 49.0425V49.0411ZM137.098 87.951L129.717 92.1995L129.849 92.2756L137.283 87.9953V85.2409L154.883 75.1074L170.86 84.3057V87.6647L179.63 92.7141L179.762 92.638L171.046 87.6204V84.2615L154.883 74.9552L137.098 85.1953V87.9497V87.951ZM134.814 83.852L146.47 77.141C146.604 77.1853 146.776 77.1742 146.89 77.1092C147.027 77.0304 147.027 76.9017 146.89 76.8228C146.753 76.744 146.531 76.744 146.393 76.8228C146.28 76.8879 146.262 76.9875 146.338 77.0649L134.627 83.8077V86.6022L127.311 90.8147L127.442 90.8908L134.814 86.6465V83.852ZM149.663 91.8343L157.084 87.5623L152.678 85.0265H147.007L151.741 82.3012L174.664 95.4989L155.054 106.789L155.186 106.865L174.928 95.4989L151.74 82.149L146.554 85.1344H152.599L156.817 87.5637L149.662 91.6835L140.192 86.2314L152.128 79.36L177.479 93.9551L177.611 93.879L152.128 79.2079L139.929 86.2314L149.663 91.8357V91.8343ZM154.489 76.6887L138.995 85.6089L139.127 85.685L154.621 76.7647L154.489 76.6887ZM163.323 76.8228C163.186 76.9017 163.186 77.0304 163.323 77.1092C163.437 77.1756 163.611 77.1853 163.744 77.141L175.399 83.852V86.6465L182.771 90.8908L182.903 90.8147L175.587 86.6022V83.8077L163.876 77.0649C163.952 76.9875 163.934 76.8879 163.82 76.8228C163.683 76.744 163.461 76.744 163.323 76.8228ZM183.985 90.1922L184.117 90.1161L176.663 85.8247L176.531 85.9008L183.985 90.1922ZM109.552 45.8648C109.415 45.9436 109.415 46.0723 109.552 46.1512C109.666 46.2162 109.84 46.2272 109.973 46.183L117.947 50.7731L118.078 50.6971L110.104 46.1069C110.181 46.0294 110.163 45.9298 110.049 45.8648C109.912 45.7859 109.69 45.7859 109.552 45.8648ZM135.13 58.9906C135.268 58.9118 135.268 58.7831 135.13 58.7043C135.017 58.6392 134.843 58.6282 134.71 58.6724L124.01 52.5121V48.6828L114.334 43.1118L114.202 43.1879L123.823 48.7271V52.5564L134.578 58.7485C134.502 58.826 134.52 58.9256 134.634 58.9906C134.771 59.0695 134.993 59.0695 135.13 58.9906ZM149.86 90.5297L155.011 87.5637L151.88 85.7611L146.729 88.7271L149.86 90.5297ZM146.993 88.7271L151.879 85.9133L154.746 87.5637L149.86 90.3775L146.993 88.7271ZM183.717 88.4892L176.867 84.5451L176.735 84.6212L183.586 88.5653C183.509 88.6427 183.527 88.7423 183.641 88.8074C183.778 88.8862 184 88.8862 184.138 88.8074C184.275 88.7285 184.275 88.5999 184.138 88.521C184.024 88.456 183.85 88.4449 183.717 88.4892ZM91.6514 62.2195L85.8443 65.5632L90.5998 68.301L96.4068 64.9573L91.6514 62.2195ZM96.1419 64.9573L90.5998 68.1488L86.1093 65.5632L91.6514 62.3717L96.1419 64.9573ZM151.919 98.1371L148.227 100.262L151.259 102.008L154.95 99.883L151.919 98.1371ZM154.686 99.883L151.26 101.856L148.492 100.262L151.919 98.2893L154.686 99.883ZM91.8858 60.8997L83.5526 65.6974L90.3668 69.6208L98.6999 64.8231L91.8858 60.8997ZM98.435 64.8231L90.3668 69.4686L83.8176 65.6974L91.8858 61.0519L98.435 64.8231ZM98.9538 54.1902L82.3304 63.7593L83.3223 64.3306L99.9443 54.7602L98.9524 54.1888L98.9538 54.1902ZM99.6821 54.7615L83.3237 64.1784L82.5954 63.7593L98.9538 54.341L99.6821 54.7602V54.7615ZM99.155 53.071L80.3869 63.8741L83.1226 65.4498L101.889 54.6453L99.1536 53.0696L99.155 53.071ZM101.627 54.6467L83.1226 65.2976L80.6505 63.8741L99.1522 53.2218L101.624 54.6453L101.627 54.6467ZM91.4571 63.3263L87.7657 65.4512L90.7968 67.197L94.4883 65.0721L91.4571 63.3263ZM94.2247 65.0721L90.7982 67.0449L88.0306 65.4512L91.4571 63.4784L94.2247 65.0721ZM142.283 86.1692L146.063 88.3453L146.195 88.2692L142.547 86.1692L143.067 85.869L144.263 86.5579H149.11L146.855 87.8556L145.617 87.1417L145.485 87.2178L146.855 88.0078L149.561 86.45H144.34L143.067 85.7168L142.282 86.1692H142.283ZM145.184 85.9617H150.15V85.8538H145.26L144.177 85.2299L151.833 80.8223L174.561 93.908L174.693 93.8319L151.833 80.6701L143.913 85.2299L145.184 85.9617ZM170.027 93.8762L151.26 104.681L153.996 106.256L172.762 95.4519L170.027 93.8762ZM172.499 95.4519L153.997 106.104L151.525 104.681L170.027 94.0284L172.499 95.4519ZM152.35 95.7134L144.017 100.511L150.831 104.434L159.164 99.6367L152.35 95.7134ZM158.899 99.6367L150.831 104.282L144.282 100.511L152.35 95.8655L158.899 99.6367ZM152.116 97.0331L146.309 100.377L151.064 103.115L156.871 99.7709L152.116 97.0331ZM156.606 99.7709L151.064 102.962L146.574 100.377L152.116 97.1853L156.606 99.7709ZM169.825 94.9954L153.203 104.566L154.195 105.137L170.817 95.5667L169.825 94.9954ZM170.554 95.5667L154.195 104.985L153.467 104.566L169.825 95.1476L170.554 95.5667Z" fill="url(#paint0_radial_3140_178929)"/>
</g>
<mask id="mask0_3140_178929" style="mask-type:alpha" maskUnits="userSpaceOnUse" x="105" y="9" width="98" height="100">
<path d="M105.776 59.3967C106.424 45.7053 112.438 33.2882 121.637 24.278C130.836 15.2678 143.22 9.66816 156.607 9.60975C158.379 9.60073 160.15 9.69074 161.911 9.87935C162.22 9.9126 162.527 9.94855 162.834 9.98719L162.95 10.0025C163.254 10.0456 163.556 10.0893 163.855 10.1337L163.926 10.1445C164.234 10.1912 164.541 10.2424 164.847 10.2954L165.006 10.3224C165.304 10.3754 165.6 10.4302 165.895 10.4887L166.057 10.521C166.358 10.5812 166.658 10.6441 166.955 10.7106L167.044 10.7304C167.337 10.7957 167.629 10.864 167.92 10.9353L168.016 10.9587C168.311 11.0318 168.605 11.1076 168.896 11.186L169.058 11.2274C169.346 11.3059 169.631 11.3864 169.915 11.4691L170.064 11.5141C170.357 11.6003 170.649 11.6902 170.94 11.7837L170.994 11.8007C171.278 11.8924 171.561 11.9865 171.844 12.0829L171.959 12.1225C172.24 12.2195 172.519 12.3193 172.797 12.4217L172.954 12.4792C173.229 12.5817 173.504 12.6868 173.778 12.7947L173.91 12.8477C174.195 12.9609 174.479 13.0769 174.761 13.1955L174.771 13.2C175.051 13.3198 175.33 13.4396 175.608 13.5595L175.733 13.6152C176 13.735 176.265 13.8578 176.529 13.9836L176.679 14.0546C176.943 14.181 177.205 14.3099 177.467 14.4411L177.58 14.4986C177.845 14.6328 178.109 14.7691 178.37 14.9075L178.405 14.9255C178.674 15.0665 178.934 15.2112 179.197 15.3577L179.327 15.4305C179.579 15.5725 179.829 15.7166 180.078 15.8628L180.219 15.9464C180.47 16.0955 180.721 16.2471 180.969 16.4011L181.059 16.4577C181.305 16.6111 181.55 16.7669 181.793 16.925L181.855 16.9646C182.103 17.1263 182.348 17.2905 182.592 17.457L182.722 17.5469C182.961 17.7099 183.197 17.8749 183.429 18.0421L183.557 18.1319C183.796 18.3033 184.033 18.4773 184.268 18.6541L184.333 18.7026C184.563 18.8764 184.791 19.0519 185.018 19.2292L185.099 19.2921C185.329 19.4719 185.556 19.6546 185.782 19.8403L185.907 19.9437C186.129 20.1234 186.348 20.3083 186.566 20.4982L186.679 20.5961C186.904 20.7903 187.128 20.9865 187.35 21.1848L187.384 21.2162C187.601 21.4112 187.817 21.6098 188.03 21.8094L188.12 21.8929C188.331 22.0912 188.54 22.2916 188.748 22.4942L188.866 22.6092C189.07 22.8117 189.273 23.0157 189.476 23.2212L189.573 23.3209C189.782 23.5375 189.992 23.7559 190.201 23.977C198.544 32.9108 203.389 45.2811 202.739 58.9726C202.088 72.664 196.076 85.0811 186.877 94.0913C177.679 103.101 165.296 108.703 151.908 108.761C138.52 108.82 126.662 103.323 118.313 94.3887C118.144 94.209 117.976 94.0248 117.81 93.8405L117.679 93.6949C117.532 93.5305 117.385 93.3651 117.24 93.1989L117.182 93.1315C117.02 92.9451 116.86 92.7579 116.702 92.5698L116.58 92.4224C116.447 92.2624 116.315 92.1016 116.184 91.9398L116.094 91.8329C115.94 91.6417 115.788 91.4488 115.637 91.2541L115.528 91.1139C115.403 90.9522 115.28 90.7904 115.157 90.6268C115.124 90.5819 115.09 90.537 115.056 90.4929C114.91 90.2961 114.764 90.0975 114.62 89.898L114.53 89.7713C114.411 89.6041 114.292 89.4352 114.171 89.2662L114.066 89.1143C113.926 88.9112 113.787 88.7066 113.649 88.5005L113.584 88.4017C113.465 88.222 113.349 88.0422 113.232 87.8625L113.127 87.698C112.993 87.4877 112.858 87.2774 112.73 87.069L112.703 87.0249C112.581 86.8254 112.46 86.6241 112.344 86.4228L112.243 86.2512C112.124 86.049 112.007 85.8467 111.892 85.6427L111.865 85.596C111.742 85.3785 111.623 85.1596 111.506 84.9391C111.475 84.8816 111.443 84.824 111.416 84.7656C111.314 84.5763 111.213 84.3858 111.113 84.1941L111.056 84.0862C110.942 83.8652 110.829 83.6423 110.718 83.4185C107.178 76.3153 105.358 68.1256 105.776 59.3967ZM152.143 104.637C176.875 104.637 197.858 84.1608 199.009 58.9007C200.16 33.6405 181.042 13.1649 156.31 13.1649C131.579 13.1649 110.593 33.6414 109.442 58.9007C108.291 84.1599 127.409 104.637 152.143 104.637Z" fill="white"/>
</mask>
<g mask="url(#mask0_3140_178929)">
<path d="M152.143 104.637C176.875 104.637 197.858 84.1608 199.009 58.9007C200.159 33.6414 181.045 13.1649 156.31 13.1649C131.576 13.1649 110.593 33.6405 109.442 58.9007C108.291 84.1608 127.411 104.637 152.143 104.637Z" fill="white"/>
</g>
<g clip-path="url(#clip3_3140_178929)">
<path style="mix-blend-mode:multiply" d="M147.789 104.612C136.139 102.546 127.416 96.824 128.307 91.8328C129.197 86.8416 139.363 84.4709 151.013 86.5377C162.663 88.6045 171.385 94.3261 170.495 99.3173C169.605 104.308 159.439 106.679 147.789 104.612Z" fill="url(#paint1_radial_3140_178929)"/>
<path d="M148.737 94.0557L152.343 73.8394L171.605 66.499L148.737 94.0557ZM173.604 63.6428L152.744 71.5901L160.676 27.1184L173.604 63.6428Z" fill="url(#paint2_linear_3140_178929)"/>
<path d="M148.737 94.0558L136.796 60.3238L152.343 73.8396L148.737 94.0558ZM160.676 27.1185L152.744 71.5902L135.908 56.9554L160.676 27.1185Z" fill="url(#paint3_linear_3140_178929)"/>
<path style="mix-blend-mode:color-dodge" d="M147.369 101.727C145.663 101.424 148.25 78.9193 153.147 51.461C158.045 24.0028 163.399 1.98895 165.105 2.29169C166.812 2.59443 164.225 25.0991 159.327 52.5574C154.429 80.0156 149.076 102.029 147.369 101.727Z" fill="url(#paint4_radial_3140_178929)"/>
<path style="mix-blend-mode:screen" d="M152.998 70.1679C147.384 69.1719 144.283 60.2346 146.072 50.2059C147.861 40.1772 153.862 32.8547 159.476 33.8507C165.09 34.8466 168.191 43.784 166.402 53.8127C164.614 63.8414 158.612 71.1639 152.998 70.1679Z" fill="url(#paint5_radial_3140_178929)"/>
<path style="mix-blend-mode:color-dodge" d="M141.632 133.893C139.925 133.59 142.512 111.085 147.41 83.6272C152.308 56.169 157.661 34.1551 159.368 34.4578C161.074 34.7606 158.487 57.2653 153.59 84.7235C148.692 112.182 143.338 134.196 141.632 133.893Z" fill="url(#paint6_radial_3140_178929)"/>
<path style="mix-blend-mode:screen" d="M147.261 102.334C141.647 101.338 138.546 92.4005 140.334 82.3718C142.123 72.343 148.125 65.0206 153.739 66.0165C159.353 67.0125 162.454 75.9498 160.665 85.9786C158.876 96.0073 152.875 103.33 147.261 102.334Z" fill="url(#paint7_radial_3140_178929)"/>
<path style="mix-blend-mode:color-dodge" d="M187.394 102.624C185.753 103.141 176.899 82.0414 167.613 55.4906C158.327 28.9439 152.127 7.00024 153.768 6.48351C155.409 5.96679 164.263 27.0663 173.548 53.6171C182.834 80.1678 189.035 102.107 187.394 102.624Z" fill="url(#paint8_radial_3140_178929)"/>
<path style="mix-blend-mode:screen" d="M160.815 57.645C157.423 47.9492 159.046 38.7083 164.441 37.0048C169.836 35.3013 176.959 41.7804 180.351 51.4762C183.743 61.172 182.119 70.4129 176.724 72.1164C171.33 73.8199 164.207 67.3408 160.815 57.645Z" fill="url(#paint9_radial_3140_178929)"/>
<path style="mix-blend-mode:color-dodge" d="M129.322 118.829C127.948 117.798 141.077 99.1473 158.645 77.175C176.218 55.2035 191.573 38.2258 192.95 39.2574C194.324 40.2884 181.195 58.9388 163.623 80.9103C146.05 102.882 130.695 119.86 129.317 118.828L129.322 118.829Z" fill="url(#paint10_radial_3140_178929)"/>
<path style="mix-blend-mode:screen" d="M149.518 93.5748C144.993 90.182 146.527 80.9259 152.944 72.9006C159.362 64.8754 168.232 61.12 172.757 64.5128C177.281 67.9056 175.747 77.1618 169.33 85.187C162.913 93.2123 154.043 96.9676 149.518 93.5748Z" fill="url(#paint11_radial_3140_178929)"/>
<path style="mix-blend-mode:color-dodge" d="M158.395 123.987C160.041 123.491 154.167 101.47 145.27 74.8023C136.373 48.135 127.831 26.9177 126.181 27.4122C124.536 27.9075 130.41 49.9293 139.306 76.5965C148.203 103.264 156.745 124.481 158.395 123.987Z" fill="url(#paint12_radial_3140_178929)"/>
<path style="mix-blend-mode:screen" d="M132.475 78.6484C129.227 68.9084 130.987 59.6924 136.408 58.064C141.828 56.4355 148.856 63.0112 152.104 72.7512C155.352 82.4912 153.592 91.7072 148.171 93.3357C142.751 94.9642 135.724 88.3884 132.475 78.6484Z" fill="url(#paint13_radial_3140_178929)"/>
<path style="mix-blend-mode:color-dodge" d="M109.488 88.8034C110.85 89.8528 126.457 73.0929 144.354 51.3644C162.251 29.636 175.654 11.1784 174.296 10.1297C172.935 9.08027 157.327 25.8402 139.431 47.5686C121.534 69.2931 108.126 87.7579 109.488 88.8074L109.488 88.8034Z" fill="url(#paint14_radial_3140_178929)"/>
<path style="mix-blend-mode:screen" d="M130.055 63.8282C125.58 60.3739 127.252 51.1414 133.788 43.207C140.325 35.2726 149.251 31.6409 153.726 35.0953C158.201 38.5496 156.529 47.7821 149.993 55.7165C143.456 63.6509 134.529 67.2826 130.055 63.8282Z" fill="url(#paint15_radial_3140_178929)"/>
</g>
</g>
<g filter="url(#filter2_b_3140_178929)">
<rect x="81.7578" y="38.0807" width="47.4194" height="45.8387" rx="22.9194" fill="white" fill-opacity="0.25"/>
</g>
<g style="mix-blend-mode:hard-light" filter="url(#filter3_b_3140_178929)">
<rect x="81.3137" y="38.2094" width="47.8049" height="45.5814" rx="22.7907" fill="white" fill-opacity="0.25"/>
<g style="mix-blend-mode:hard-light">
<path d="M90.6829 63.7799V58.2132C90.6829 57.2878 91.46 56.5433 92.4261 56.5433L104.629 56.5433V50.4408C104.629 49.2022 106.19 48.583 107.106 49.4597L118.16 60.0433C118.705 60.5652 118.705 61.421 118.16 61.9429L107.106 72.5404C106.19 73.4171 104.629 72.7978 104.629 71.5593V65.4499H92.4261C91.46 65.4499 90.6829 64.7053 90.6829 63.7799Z" fill="#121D33"/>
</g>
<rect x="81.2742" y="38.1698" width="47.8839" height="45.6604" rx="22.8302" stroke="#B8B9BD" stroke-width="0.0790323"/>
</g>
<defs>
<filter id="filter0_d_3140_178929" x="0.354838" y="0.12587" width="127.569" height="128.071" filterUnits="userSpaceOnUse" color-interpolation-filters="sRGB">
<feFlood flood-opacity="0" result="BackgroundImageFix"/>
<feColorMatrix in="SourceAlpha" type="matrix" values="0 0 0 0 0 0 0 0 0 0 0 0 0 0 0 0 0 0 127 0" result="hardAlpha"/>
<feOffset dy="3.16129"/>
<feGaussianBlur stdDeviation="6.32258"/>
<feColorMatrix type="matrix" values="0 0 0 0 0.0196078 0 0 0 0 0.0941176 0 0 0 0 0.239216 0 0 0 0.15 0"/>
<feBlend mode="normal" in2="BackgroundImageFix" result="effect1_dropShadow_3140_178929"/>
<feBlend mode="normal" in="SourceGraphic" in2="effect1_dropShadow_3140_178929" result="shape"/>
</filter>
<filter id="filter1_d_3140_178929" x="93.0724" y="0.12587" width="127.569" height="128.071" filterUnits="userSpaceOnUse" color-interpolation-filters="sRGB">
<feFlood flood-opacity="0" result="BackgroundImageFix"/>
<feColorMatrix in="SourceAlpha" type="matrix" values="0 0 0 0 0 0 0 0 0 0 0 0 0 0 0 0 0 0 127 0" result="hardAlpha"/>
<feOffset dy="3.16129"/>
<feGaussianBlur stdDeviation="6.32258"/>
<feColorMatrix type="matrix" values="0 0 0 0 0.0196078 0 0 0 0 0.0941176 0 0 0 0 0.239216 0 0 0 0.15 0"/>
<feBlend mode="normal" in2="BackgroundImageFix" result="effect1_dropShadow_3140_178929"/>
<feBlend mode="normal" in="SourceGraphic" in2="effect1_dropShadow_3140_178929" result="shape"/>
</filter>
<filter id="filter2_b_3140_178929" x="77.8062" y="34.1291" width="55.3227" height="53.742" filterUnits="userSpaceOnUse" color-interpolation-filters="sRGB">
<feFlood flood-opacity="0" result="BackgroundImageFix"/>
<feGaussianBlur in="BackgroundImageFix" stdDeviation="1.97581"/>
<feComposite in2="SourceAlpha" operator="in" result="effect1_backgroundBlur_3140_178929"/>
<feBlend mode="normal" in="SourceGraphic" in2="effect1_backgroundBlur_3140_178929" result="shape"/>
</filter>
<filter id="filter3_b_3140_178929" x="68.5895" y="25.4852" width="73.2535" height="71.0297" filterUnits="userSpaceOnUse" color-interpolation-filters="sRGB">
<feFlood flood-opacity="0" result="BackgroundImageFix"/>
<feGaussianBlur in="BackgroundImageFix" stdDeviation="6.32258"/>
<feComposite in2="SourceAlpha" operator="in" result="effect1_backgroundBlur_3140_178929"/>
<feBlend mode="normal" in="SourceGraphic" in2="effect1_backgroundBlur_3140_178929" result="shape"/>
</filter>
<radialGradient id="paint0_radial_3140_178929" cx="0" cy="0" r="1" gradientUnits="userSpaceOnUse" gradientTransform="translate(155.062 63.2599) scale(60.785 60.6171)">
<stop offset="0.14" stop-color="#9F65FF"/>
<stop offset="0.161458" stop-color="#A965FF" stop-opacity="0.99"/>
<stop offset="0.35" stop-color="#8C66F8" stop-opacity="0.64"/>
<stop offset="0.53" stop-color="#5E00D6" stop-opacity="0.37"/>
<stop offset="0.68" stop-color="#5700AE" stop-opacity="0.17"/>
<stop offset="0.79" stop-color="#410083" stop-opacity="0.05"/>
<stop offset="0.86" stop-color="#120045" stop-opacity="0"/>
</radialGradient>
<radialGradient id="paint1_radial_3140_178929" cx="0" cy="0" r="1" gradientUnits="userSpaceOnUse" gradientTransform="translate(187.325 114.581) rotate(-154.078) scale(20.9248 7.83437)">
<stop stop-color="#8171D6"/>
<stop offset="0.15" stop-color="#8273D6" stop-opacity="0.98"/>
<stop offset="0.27" stop-color="#8879D8" stop-opacity="0.94"/>
<stop offset="0.39" stop-color="#9385DB" stop-opacity="0.86"/>
<stop offset="0.5" stop-color="#A195E0" stop-opacity="0.74"/>
<stop offset="0.6" stop-color="#B3AAE6" stop-opacity="0.6"/>
<stop offset="0.7" stop-color="#CAC3ED" stop-opacity="0.42"/>
<stop offset="0.8" stop-color="#E4E1F6" stop-opacity="0.21"/>
<stop offset="0.88" stop-color="white" stop-opacity="0"/>
</radialGradient>
<linearGradient id="paint2_linear_3140_178929" x1="169.431" y1="39.013" x2="152.726" y2="87.3904" gradientUnits="userSpaceOnUse">
<stop stop-color="#7F70D1"/>
<stop offset="1" stop-color="#402F9E"/>
</linearGradient>
<linearGradient id="paint3_linear_3140_178929" x1="145.23" y1="95.2679" x2="148.972" y2="37.7748" gradientUnits="userSpaceOnUse">
<stop stop-color="#7760BD"/>
<stop offset="1" stop-color="#C17FFF"/>
</linearGradient>
<radialGradient id="paint4_radial_3140_178929" cx="0" cy="0" r="1" gradientUnits="userSpaceOnUse" gradientTransform="translate(156.9 52.3801) rotate(100.114) scale(50.5929 3.23142)">
<stop stop-color="white"/>
<stop offset="0.02" stop-color="#F6F6F6" stop-opacity="0.97"/>
<stop offset="0.13" stop-color="#BDBDBD" stop-opacity="0.74"/>
<stop offset="0.25" stop-color="#8A8A8A" stop-opacity="0.54"/>
<stop offset="0.37" stop-color="#606060" stop-opacity="0.38"/>
<stop offset="0.49" stop-color="#3D3D3D" stop-opacity="0.24"/>
<stop offset="0.62" stop-color="#222222" stop-opacity="0.14"/>
<stop offset="0.74" stop-color="#0F0F0F" stop-opacity="0.06"/>
<stop offset="0.87" stop-color="#030303" stop-opacity="0.01"/>
<stop offset="1" stop-opacity="0"/>
</radialGradient>
<radialGradient id="paint5_radial_3140_178929" cx="0" cy="0" r="1" gradientUnits="userSpaceOnUse" gradientTransform="translate(155.555 51.8421) rotate(100.114) scale(18.4268 10.236)">
<stop stop-color="#D065D6"/>
<stop offset="0.34" stop-color="#803E83" stop-opacity="0.62"/>
<stop offset="0.66" stop-color="#3B1C3C" stop-opacity="0.28"/>
<stop offset="0.88" stop-color="#100710" stop-opacity="0.08"/>
<stop offset="1" stop-opacity="0"/>
</radialGradient>
<radialGradient id="paint6_radial_3140_178929" cx="0" cy="0" r="1" gradientUnits="userSpaceOnUse" gradientTransform="translate(126.924 80.3128) rotate(100.114) scale(50.5929 3.23142)">
<stop stop-color="white"/>
<stop offset="0.02" stop-color="#F6F6F6" stop-opacity="0.97"/>
<stop offset="0.13" stop-color="#BDBDBD" stop-opacity="0.74"/>
<stop offset="0.25" stop-color="#8A8A8A" stop-opacity="0.54"/>
<stop offset="0.37" stop-color="#606060" stop-opacity="0.38"/>
<stop offset="0.49" stop-color="#3D3D3D" stop-opacity="0.24"/>
<stop offset="0.62" stop-color="#222222" stop-opacity="0.14"/>
<stop offset="0.74" stop-color="#0F0F0F" stop-opacity="0.06"/>
<stop offset="0.87" stop-color="#030303" stop-opacity="0.01"/>
<stop offset="1" stop-opacity="0"/>
</radialGradient>
<radialGradient id="paint7_radial_3140_178929" cx="0" cy="0" r="1" gradientUnits="userSpaceOnUse" gradientTransform="translate(67.9969 69.456) rotate(100.114) scale(0.144072 0.0800315)">
<stop stop-color="#D065D6"/>
<stop offset="0.34" stop-color="#803E83" stop-opacity="0.62"/>
<stop offset="0.66" stop-color="#3B1C3C" stop-opacity="0.28"/>
<stop offset="0.88" stop-color="#100710" stop-opacity="0.08"/>
<stop offset="1" stop-opacity="0"/>
</radialGradient>
<radialGradient id="paint8_radial_3140_178929" cx="0" cy="0" r="1" gradientUnits="userSpaceOnUse" gradientTransform="translate(171.926 54.3733) rotate(70.7183) scale(51.0229 3.20519)">
<stop stop-color="white"/>
<stop offset="0.02" stop-color="#F6F6F6" stop-opacity="0.97"/>
<stop offset="0.13" stop-color="#BDBDBD" stop-opacity="0.74"/>
<stop offset="0.25" stop-color="#8A8A8A" stop-opacity="0.54"/>
<stop offset="0.37" stop-color="#606060" stop-opacity="0.38"/>
<stop offset="0.49" stop-color="#3D3D3D" stop-opacity="0.24"/>
<stop offset="0.62" stop-color="#222222" stop-opacity="0.14"/>
<stop offset="0.74" stop-color="#0F0F0F" stop-opacity="0.06"/>
<stop offset="0.87" stop-color="#030303" stop-opacity="0.01"/>
<stop offset="1" stop-opacity="0"/>
</radialGradient>
<radialGradient id="paint9_radial_3140_178929" cx="0" cy="0" r="1" gradientUnits="userSpaceOnUse" gradientTransform="translate(169.73 54.7654) rotate(70.7183) scale(18.5776 10.1498)">
<stop stop-color="#D065D6"/>
<stop offset="0.34" stop-color="#803E83" stop-opacity="0.62"/>
<stop offset="0.66" stop-color="#3B1C3C" stop-opacity="0.28"/>
<stop offset="0.88" stop-color="#100710" stop-opacity="0.08"/>
<stop offset="1" stop-opacity="0"/>
</radialGradient>
<radialGradient id="paint10_radial_3140_178929" cx="0" cy="0" r="1" gradientUnits="userSpaceOnUse" gradientTransform="translate(161.431 79.6311) rotate(128.647) scale(51.0323 3.2036)">
<stop stop-color="white"/>
<stop offset="0.02" stop-color="#F6F6F6" stop-opacity="0.97"/>
<stop offset="0.13" stop-color="#BDBDBD" stop-opacity="0.74"/>
<stop offset="0.25" stop-color="#8A8A8A" stop-opacity="0.54"/>
<stop offset="0.37" stop-color="#606060" stop-opacity="0.38"/>
<stop offset="0.49" stop-color="#3D3D3D" stop-opacity="0.24"/>
<stop offset="0.62" stop-color="#222222" stop-opacity="0.14"/>
<stop offset="0.74" stop-color="#0F0F0F" stop-opacity="0.06"/>
<stop offset="0.87" stop-color="#030303" stop-opacity="0.01"/>
<stop offset="1" stop-opacity="0"/>
</radialGradient>
<radialGradient id="paint11_radial_3140_178929" cx="0" cy="0" r="1" gradientUnits="userSpaceOnUse" gradientTransform="translate(160.659 78.5843) rotate(128.647) scale(18.5839 10.1463)">
<stop stop-color="#D065D6"/>
<stop offset="0.34" stop-color="#803E83" stop-opacity="0.62"/>
<stop offset="0.66" stop-color="#3B1C3C" stop-opacity="0.28"/>
<stop offset="0.88" stop-color="#100710" stop-opacity="0.08"/>
<stop offset="1" stop-opacity="0"/>
</radialGradient>
<radialGradient id="paint12_radial_3140_178929" cx="0" cy="0" r="1" gradientUnits="userSpaceOnUse" gradientTransform="translate(141.709 76.1742) rotate(71.5557) scale(50.9923 3.20611)">
<stop stop-color="white"/>
<stop offset="0.02" stop-color="#F6F6F6" stop-opacity="0.97"/>
<stop offset="0.13" stop-color="#BDBDBD" stop-opacity="0.74"/>
<stop offset="0.25" stop-color="#8A8A8A" stop-opacity="0.54"/>
<stop offset="0.37" stop-color="#606060" stop-opacity="0.38"/>
<stop offset="0.49" stop-color="#3D3D3D" stop-opacity="0.24"/>
<stop offset="0.62" stop-color="#222222" stop-opacity="0.14"/>
<stop offset="0.74" stop-color="#0F0F0F" stop-opacity="0.06"/>
<stop offset="0.87" stop-color="#030303" stop-opacity="0.01"/>
<stop offset="1" stop-opacity="0"/>
</radialGradient>
<radialGradient id="paint13_radial_3140_178929" cx="0" cy="0" r="1" gradientUnits="userSpaceOnUse" gradientTransform="translate(142.928 75.429) rotate(71.5557) scale(18.5693 10.1543)">
<stop stop-color="#D065D6"/>
<stop offset="0.34" stop-color="#803E83" stop-opacity="0.62"/>
<stop offset="0.66" stop-color="#3B1C3C" stop-opacity="0.28"/>
<stop offset="0.88" stop-color="#100710" stop-opacity="0.08"/>
<stop offset="1" stop-opacity="0"/>
</radialGradient>
<radialGradient id="paint14_radial_3140_178929" cx="0" cy="0" r="1" gradientUnits="userSpaceOnUse" gradientTransform="translate(140.601 48.7724) rotate(129.483) scale(51.0637 3.20263)">
<stop stop-color="white"/>
<stop offset="0.02" stop-color="#F6F6F6" stop-opacity="0.97"/>
<stop offset="0.13" stop-color="#BDBDBD" stop-opacity="0.74"/>
<stop offset="0.25" stop-color="#8A8A8A" stop-opacity="0.54"/>
<stop offset="0.37" stop-color="#606060" stop-opacity="0.38"/>
<stop offset="0.49" stop-color="#3D3D3D" stop-opacity="0.24"/>
<stop offset="0.62" stop-color="#222222" stop-opacity="0.14"/>
<stop offset="0.74" stop-color="#0F0F0F" stop-opacity="0.06"/>
<stop offset="0.87" stop-color="#030303" stop-opacity="0.01"/>
<stop offset="1" stop-opacity="0"/>
</radialGradient>
<radialGradient id="paint15_radial_3140_178929" cx="0" cy="0" r="1" gradientUnits="userSpaceOnUse" gradientTransform="translate(142.639 49.966) rotate(129.483) scale(18.5924 10.1417)">
<stop stop-color="#D065D6"/>
<stop offset="0.34" stop-color="#803E83" stop-opacity="0.62"/>
<stop offset="0.66" stop-color="#3B1C3C" stop-opacity="0.28"/>
<stop offset="0.88" stop-color="#100710" stop-opacity="0.08"/>
<stop offset="1" stop-opacity="0"/>
</radialGradient>
<clipPath id="clip0_3140_178929">
<rect width="102.279" height="102.78" fill="white" transform="translate(13 9.60974)"/>
</clipPath>
<clipPath id="clip1_3140_178929">
<rect width="90.8545" height="90.9418" fill="white" transform="matrix(0.998627 0.0523862 -0.00819506 0.999966 21.8857 11.1238)"/>
</clipPath>
<clipPath id="clip2_3140_178929">
<rect width="102.279" height="102.78" fill="white" transform="matrix(-1 0 0 1 207.996 9.60974)"/>
</clipPath>
<clipPath id="clip3_3140_178929">
<rect width="88.6514" height="133.682" fill="white" transform="matrix(-0.984625 -0.174679 -0.1756 0.984462 212.868 16.7604)"/>
</clipPath>
</defs>
</svg>
