<svg width="271" height="167" viewBox="0 0 271 167" fill="none" xmlns="http://www.w3.org/2000/svg">
<g clip-path="url(#clip0_3140_178876)" filter="url(#filter0_d_3140_178876)">
<path d="M178.46 91.6146L178.509 91.6485C178.686 91.7739 178.865 91.8985 179.046 92.0208L179.141 92.0854C179.296 92.1903 179.451 92.2944 179.606 92.4009L179.742 92.49C179.925 92.6088 180.109 92.7263 180.294 92.8425L180.378 92.8945C180.54 92.9963 180.705 93.0964 180.869 93.1958L181.012 93.281C181.201 93.394 181.39 93.5052 181.58 93.6145L181.641 93.6493C181.815 93.7486 181.989 93.8464 182.164 93.9426L182.313 94.0215C182.507 94.1272 182.7 94.232 182.896 94.3369L182.928 94.3535C183.115 94.4507 183.303 94.5467 183.492 94.6413L183.646 94.7202C183.842 94.8172 184.038 94.9134 184.236 95.008L184.246 95.0128C184.446 95.1082 184.648 95.2012 184.85 95.2935L185.005 95.3637C185.194 95.4483 185.383 95.5317 185.573 95.6137L185.621 95.635C185.825 95.7225 186.03 95.8077 186.236 95.8921L186.391 95.9552C186.574 96.034 186.759 96.1034 186.945 96.1744L187.022 96.2051C187.23 96.284 187.438 96.3629 187.647 96.4417L187.802 96.4977C187.984 96.5632 188.166 96.6278 188.349 96.6901L188.452 96.7256C188.661 96.7971 188.872 96.8668 189.085 96.9346L189.24 96.9835C189.422 97.0413 189.604 97.0976 189.786 97.1523L189.907 97.1886C190.121 97.2516 190.336 97.3132 190.551 97.3731L190.706 97.4149C190.888 97.4646 191.072 97.5135 191.255 97.5608L191.392 97.5963C191.609 97.6515 191.826 97.7043 192.045 97.754L192.192 97.7879C192.376 97.8305 192.561 97.872 192.747 97.9125L192.897 97.9448C193.118 97.9921 193.339 98.0371 193.561 98.0805L193.698 98.1065C193.887 98.142 194.076 98.1767 194.265 98.2106L194.425 98.2382C194.649 98.2771 194.874 98.3139 195.1 98.3486L195.223 98.3667C195.417 98.3962 195.611 98.4241 195.806 98.4503L195.974 98.4732C196.202 98.5032 196.43 98.5316 196.659 98.5576L196.766 98.5686C196.967 98.5915 197.168 98.612 197.369 98.6317L197.544 98.6483C197.777 98.6688 198.009 98.6885 198.241 98.7058L198.324 98.7122C198.535 98.7269 198.745 98.7403 198.955 98.7524L199.135 98.7618C199.367 98.7745 199.606 98.7855 199.842 98.7934H199.889C200.112 98.8002 200.335 98.8057 200.559 98.8099H200.742C200.981 98.8099 201.22 98.8155 201.46 98.8099C213.133 98.7587 223.928 93.7959 231.95 85.8128C239.972 77.8296 245.218 66.8308 245.783 54.7011C246.349 42.5715 242.129 31.6105 234.851 23.6952C234.632 23.4586 234.409 23.222 234.183 22.9854C234.111 22.9105 234.039 22.8372 233.966 22.7638C233.811 22.6061 233.654 22.4484 233.495 22.2907C233.41 22.2065 233.325 22.1227 233.238 22.0391C233.087 21.8929 232.936 21.7481 232.783 21.6046L232.521 21.3601C232.357 21.2087 232.191 21.0596 232.024 20.9106C231.947 20.8428 231.869 20.7742 231.796 20.7071C231.552 20.4931 231.307 20.2828 231.059 20.0762L231.039 20.0605C230.797 19.8586 230.553 19.6598 230.306 19.4643C230.224 19.3996 230.142 19.3357 230.059 19.2718C229.885 19.1357 229.709 19.0008 229.533 18.8673C229.438 18.7947 229.342 18.7238 229.246 18.6528C229.077 18.5271 228.907 18.4033 228.736 18.2813C228.679 18.2403 228.623 18.1977 228.565 18.1567L231.643 20.3357C233.924 21.9514 236.03 23.8072 237.929 25.8725C240.633 28.8155 242.895 32.1493 244.642 35.7657L244.589 35.6545L244.606 35.69L244.623 35.7247L244.658 35.7957C244.668 35.8162 244.682 35.8446 244.692 35.8659L244.709 35.9014L244.744 35.9715L244.778 36.0417L244.795 36.0772L244.829 36.1474L244.847 36.1829L244.881 36.2531L244.898 36.2886C244.909 36.3099 244.922 36.3375 244.933 36.3588C247.962 42.5825 249.519 49.7471 249.163 57.3816C248.603 69.3954 243.41 80.2925 235.466 88.1991C227.523 96.1058 216.828 101.019 205.268 101.072C203.765 101.079 202.263 101.003 200.768 100.842L199.999 100.763C200.179 100.783 200.36 100.801 200.542 100.818C193.472 100.155 186.999 97.6633 181.539 93.7991L178.46 91.6146Z" fill="#DFE3EB"/>
<path d="M165.203 75.6506C165.299 75.8469 165.396 76.0449 165.495 76.2365L165.543 76.3311C165.63 76.4989 165.717 76.666 165.805 76.8327C165.832 76.884 165.859 76.9344 165.883 76.9849C165.986 77.1784 166.089 77.3705 166.193 77.5614L166.216 77.6024C166.315 77.7814 166.417 77.9588 166.519 78.1363L166.606 78.2869C166.709 78.4636 166.814 78.6402 166.916 78.8153L166.94 78.8539C167.053 79.0408 167.167 79.2254 167.283 79.406L167.373 79.5503C167.474 79.708 167.575 79.8657 167.677 80.0234L167.734 80.1102C167.853 80.291 167.972 80.4706 168.093 80.6488L168.185 80.7821C168.286 80.9303 168.389 81.0786 168.495 81.2253L168.572 81.3365C168.696 81.5116 168.822 81.6858 168.949 81.8585C168.978 81.898 169.007 81.9374 169.036 81.9761C169.142 82.1196 169.248 82.2615 169.356 82.4035L169.45 82.5265C169.581 82.6968 169.713 82.8661 169.845 83.0344L169.922 83.1282C170.036 83.2702 170.149 83.4113 170.264 83.5517L170.37 83.681C170.507 83.8466 170.645 84.0109 170.784 84.1739L170.834 84.2331C170.96 84.379 171.087 84.5241 171.214 84.6684L171.327 84.7961C171.47 84.9539 171.615 85.1187 171.761 85.2772C178.971 93.1168 189.21 97.94 200.772 97.8895C212.334 97.839 223.026 92.9212 230.97 85.0162C238.914 77.1111 244.114 66.2172 244.674 54.2026C245.234 42.1881 241.056 31.3328 233.847 23.4931C233.668 23.2991 233.487 23.1075 233.304 22.9175L233.221 22.8299C233.046 22.6496 232.87 22.4706 232.694 22.2929L232.592 22.1919C232.413 22.0148 232.232 21.8389 232.05 21.6643L231.972 21.591C231.788 21.4159 231.602 21.2417 231.415 21.0705L231.385 21.0429C231.194 20.8684 231 20.6962 230.806 20.5264L230.708 20.4404C230.519 20.2764 230.33 20.1142 230.139 19.9538L230.031 19.8632C229.836 19.7017 229.639 19.5414 229.441 19.3821L229.372 19.3269C229.175 19.1692 228.978 19.0151 228.78 18.8648L228.724 18.8222C228.521 18.6645 228.316 18.5117 228.109 18.364L227.999 18.2851C227.797 18.1385 227.593 17.9936 227.388 17.8506L227.277 17.7717C227.066 17.6261 226.854 17.4821 226.64 17.3396L226.586 17.3049C226.376 17.1661 226.165 17.0294 225.953 16.8948L225.875 16.8451C225.66 16.7095 225.444 16.5765 225.227 16.4461L225.105 16.3727C224.89 16.2445 224.674 16.118 224.456 15.9934L224.343 15.9272C224.116 15.7986 223.889 15.6717 223.66 15.5479L223.63 15.5321C223.405 15.4101 223.177 15.2905 222.947 15.1733L222.85 15.1228C222.624 15.0076 222.397 14.8946 222.169 14.7837L222.04 14.7214C221.812 14.612 221.583 14.5043 221.353 14.3981L221.244 14.3499C221.005 14.2411 220.764 14.136 220.521 14.0345L220.513 14.0306C220.27 13.9265 220.024 13.8247 219.778 13.7254L219.664 13.6788C219.427 13.5842 219.19 13.4919 218.953 13.402L218.817 13.3516C218.577 13.2617 218.336 13.1741 218.093 13.0889L217.994 13.0543C217.75 12.9696 217.506 12.8871 217.26 12.8066L217.213 12.7916C216.963 12.7107 216.711 12.6318 216.457 12.5551L216.328 12.5156C216.085 12.441 215.838 12.3689 215.589 12.2995L215.45 12.2617C215.198 12.1933 214.944 12.1268 214.69 12.0622L214.607 12.0417C214.356 11.9796 214.104 11.9197 213.851 11.8619L213.773 11.8445C213.516 11.7862 213.256 11.731 212.998 11.6781L212.858 11.6497C212.603 11.5985 212.348 11.5504 212.09 11.5038L211.953 11.4802C211.691 11.4321 211.426 11.3903 211.16 11.3532L211.099 11.3437C210.837 11.3043 210.576 11.267 210.313 11.2318L210.213 11.2184C209.948 11.1844 209.683 11.1529 209.417 11.1237L209.339 11.1143L210.106 11.1955C216.809 11.9001 223.223 14.34 228.736 18.2828C228.908 18.4047 229.078 18.5286 229.246 18.6542C229.342 18.7252 229.438 18.7962 229.533 18.8687C229.71 19.0017 229.885 19.1366 230.06 19.2733C230.142 19.3371 230.225 19.401 230.306 19.4657C230.552 19.6613 230.797 19.86 231.04 20.0619L231.059 20.0777C231.307 20.2853 231.553 20.4956 231.796 20.7085C231.873 20.7756 231.951 20.8442 232.024 20.912C232.191 21.0611 232.357 21.2101 232.521 21.3615L232.783 21.606C232.938 21.7495 233.09 21.8944 233.238 22.0405C233.324 22.1241 233.41 22.208 233.496 22.2921C233.654 22.4498 233.81 22.6075 233.966 22.7653C234.039 22.8386 234.112 22.9119 234.184 22.9869C234.409 23.2234 234.632 23.4553 234.851 23.6966C242.13 31.6104 246.347 42.5713 245.783 54.701C245.22 66.8307 239.973 77.8327 231.955 85.815C223.937 93.7974 213.138 98.7609 201.465 98.8106C201.225 98.8106 200.986 98.8106 200.747 98.8106H200.564C200.339 98.8069 200.116 98.8014 199.893 98.7941H199.847C199.611 98.7862 199.375 98.7751 199.14 98.7625L198.96 98.753C198.749 98.741 198.539 98.7275 198.329 98.7128L198.246 98.7065C198.014 98.6892 197.781 98.6694 197.549 98.6489L197.374 98.6324C197.172 98.6127 196.972 98.5922 196.771 98.5693L196.664 98.5583C196.432 98.5322 196.207 98.5038 195.979 98.4739L195.81 98.451C195.616 98.4242 195.422 98.3963 195.228 98.3674L195.105 98.3493C194.878 98.3146 194.653 98.2778 194.43 98.2389L194.27 98.2113C194.081 98.1774 193.891 98.1427 193.703 98.1072L193.566 98.0811C193.344 98.0378 193.123 97.9928 192.902 97.9455L192.752 97.9132C192.566 97.8732 192.381 97.8317 192.197 97.7886L192.05 97.7547C191.831 97.7026 191.613 97.6498 191.397 97.5969L191.259 97.5614C191.077 97.5141 190.893 97.4652 190.711 97.4156L190.556 97.3738C190.341 97.3138 190.126 97.2523 189.912 97.1892L189.791 97.1529C189.608 97.1004 189.426 97.0441 189.245 96.9842L189.09 96.9353C188.878 96.8675 188.667 96.7978 188.456 96.7263L188.354 96.6908C188.17 96.6285 187.988 96.5639 187.806 96.4984L187.651 96.4424C187.443 96.3635 187.235 96.2886 187.027 96.2058L186.949 96.1751C186.764 96.1041 186.579 96.0307 186.395 95.9558L186.24 95.8927C186.035 95.8084 185.83 95.7232 185.626 95.6356L185.577 95.6143C185.387 95.5323 185.198 95.449 185.01 95.3644L184.855 95.2942C184.653 95.2019 184.451 95.1088 184.251 95.0134L184.241 95.0087C184.043 94.9141 183.847 94.8179 183.651 94.7209L183.496 94.642C183.307 94.5474 183.119 94.4514 182.933 94.3541L182.901 94.3376C182.706 94.2351 182.514 94.1302 182.318 94.0221L182.169 93.9433C181.994 93.8471 181.82 93.7493 181.646 93.6499L181.585 93.6152C181.394 93.5059 181.205 93.3947 181.017 93.2816L180.874 93.1965C180.709 93.0971 180.545 92.9969 180.383 92.8952L180.299 92.8432C180.113 92.727 179.93 92.6095 179.747 92.4906L179.611 92.4015C179.456 92.2982 179.301 92.1941 179.146 92.0861L179.051 92.0214C178.87 91.8992 178.691 91.7746 178.514 91.6492C176.215 90.0259 174.091 88.1591 172.179 86.08C169.504 83.1679 167.262 79.8735 165.523 76.3012C165.407 76.0662 165.292 75.8314 165.179 75.5969C165.183 75.6135 165.193 75.6316 165.203 75.6506Z" fill="#F0F2F7"/>
<path d="M160.94 54.5696C161.501 42.555 166.694 31.6587 174.637 23.7521C182.581 15.8454 193.275 10.9316 204.836 10.8803C206.366 10.8724 207.895 10.9514 209.417 11.1169C209.683 11.1461 209.948 11.1776 210.213 11.2115L210.313 11.2249C210.576 11.2628 210.836 11.3012 211.095 11.3401L211.156 11.3495C211.422 11.3905 211.687 11.4355 211.952 11.482L212.089 11.5057C212.346 11.5522 212.602 11.6003 212.856 11.6516L212.997 11.68C213.256 11.7328 213.516 11.788 213.771 11.8464L213.849 11.8637C214.102 11.921 214.354 11.9809 214.605 12.0435L214.688 12.064C214.943 12.1282 215.197 12.1947 215.448 12.2635L215.588 12.2998C215.836 12.3687 216.083 12.4394 216.328 12.5119L216.457 12.5514C216.71 12.6271 216.962 12.7059 217.213 12.788L217.259 12.8029C217.505 12.8834 217.75 12.9659 217.994 13.0506L218.093 13.0853C218.335 13.1704 218.577 13.258 218.817 13.3479L218.952 13.3983C219.19 13.4883 219.427 13.5805 219.664 13.6752L219.778 13.7217C220.024 13.821 220.269 13.9228 220.513 14.0269L220.521 14.0308C220.763 14.136 221.004 14.2411 221.244 14.3463L221.353 14.3952C221.582 14.5003 221.811 14.6081 222.04 14.7185L222.169 14.7808C222.397 14.8917 222.624 15.0048 222.849 15.1199L222.947 15.1704C223.176 15.2881 223.404 15.4077 223.63 15.5292L223.66 15.545C223.892 15.6688 224.116 15.7957 224.343 15.9243L224.455 15.9882C224.673 16.1128 224.89 16.2392 225.104 16.3675L225.226 16.4408C225.443 16.5717 225.659 16.7047 225.874 16.8399L225.952 16.8895C226.164 17.0241 226.375 17.1608 226.585 17.2996L226.639 17.3343C226.853 17.4763 227.065 17.6203 227.276 17.7665L227.387 17.8453C227.594 17.9883 227.797 18.1332 227.998 18.2799L228.108 18.3587C228.315 18.5091 228.52 18.6618 228.723 18.8169L228.779 18.8595C228.977 19.012 229.174 19.166 229.371 19.3216L229.44 19.3768C229.639 19.5346 229.835 19.6949 230.03 19.8579L230.138 19.9486C230.329 20.1063 230.519 20.2685 230.707 20.4352L230.805 20.5211C230.999 20.6915 231.192 20.8636 231.384 21.0377L231.414 21.0653C231.601 21.2364 231.787 21.4107 231.971 21.5857L232.049 21.6591C232.231 21.8331 232.412 22.009 232.591 22.1867L232.693 22.2876C232.869 22.4653 233.045 22.6443 233.22 22.8247L233.303 22.9122C233.485 23.1023 233.666 23.2939 233.846 23.4879C241.051 31.3275 245.235 42.1828 244.673 54.1973C244.111 66.2119 238.92 77.1082 230.976 85.0148C223.032 92.9215 212.339 97.8369 200.778 97.8882C189.217 97.9394 178.977 93.1155 171.767 85.2759C171.621 85.1181 171.476 84.9565 171.333 84.7948L171.22 84.6671C171.093 84.5227 170.966 84.3776 170.84 84.2317L170.79 84.1726C170.651 84.0091 170.513 83.8448 170.376 83.6797L170.27 83.5504C170.155 83.41 170.042 83.2688 169.928 83.1269L169.851 83.033C169.718 82.8653 169.586 82.696 169.456 82.5252L169.362 82.4022C169.254 82.2602 169.148 82.1182 169.042 81.9747C169.013 81.9353 168.984 81.8959 168.955 81.8572C168.828 81.6845 168.702 81.5102 168.578 81.3352L168.501 81.224C168.397 81.0773 168.294 80.929 168.191 80.7808L168.099 80.6475C167.978 80.4693 167.859 80.2897 167.74 80.1089L167.683 80.0221C167.581 79.8644 167.48 79.7067 167.379 79.5489L167.289 79.4046C167.173 79.2201 167.056 79.0356 166.946 78.8526L166.922 78.8139C166.817 78.6389 166.712 78.4622 166.612 78.2856L166.525 78.135C166.423 77.9575 166.321 77.7801 166.222 77.6011L166.199 77.5601C166.093 77.3692 165.99 77.177 165.889 76.9836C165.862 76.9331 165.835 76.8826 165.811 76.8314C165.723 76.6652 165.636 76.4981 165.549 76.3298L165.501 76.2352C165.401 76.0412 165.305 75.8456 165.209 75.6492C162.151 69.416 160.58 62.2294 160.94 54.5696ZM200.981 94.2692C222.338 94.2692 240.458 76.3006 241.452 54.1342C242.446 31.9679 225.937 14.0001 204.58 14.0001C183.223 14.0001 165.101 31.9686 164.107 54.1342C163.113 76.2999 179.621 94.2692 200.981 94.2692Z" fill="white"/>
<path d="M200.981 94.2691C222.338 94.2691 240.458 76.3005 241.452 54.1341C242.446 31.9685 225.939 13.9999 204.58 13.9999C183.22 13.9999 165.101 31.9677 164.107 54.1341C163.113 76.3005 179.624 94.2691 200.981 94.2691Z" fill="white"/>
<g clip-path="url(#clip1_3140_178876)">
<path d="M201.533 94.267C223.207 93.1252 241.218 74.3095 241.762 52.2409C242.307 30.1723 225.178 13.2078 203.504 14.3496C181.83 15.4914 163.818 34.3071 163.274 56.3757C162.73 78.4443 179.859 95.4088 201.533 94.267Z" fill="#C2A633"/>
<path fill-rule="evenodd" clip-rule="evenodd" d="M185.47 80.1151L201.475 79.272C201.475 79.272 223.929 80.0574 224.583 53.547C225.212 28.0643 204.66 29.2373 200.688 29.464C200.595 29.4693 200.511 29.4741 200.436 29.478L186.7 30.2016L186.152 52.436L180.511 52.7331L180.377 58.1794L186.018 57.8822L185.47 80.1151ZM201.802 38.62L195.488 38.9527L195.167 51.9606L205.101 51.4372L204.967 56.8835L195.033 57.4068L194.712 70.4138L201.336 70.0649C201.356 70.0638 201.378 70.0627 201.401 70.0615C203.328 69.9625 215.307 69.3471 215.662 54.1963C216.021 38.863 204.164 38.4956 201.802 38.62Z" fill="white"/>
</g>
<g filter="url(#filter1_b_3140_178876)">
<rect x="186.044" y="59" width="16" height="16" rx="8" fill="#05183D" fill-opacity="0.25"/>
</g>
<g style="mix-blend-mode:hard-light" filter="url(#filter2_b_3140_178876)">
<rect x="186.044" y="59" width="16" height="16" rx="8" fill="white" fill-opacity="0.25"/>
<g style="mix-blend-mode:multiply" opacity="0.75" clip-path="url(#clip2_3140_178876)">
<path fill-rule="evenodd" clip-rule="evenodd" d="M193.044 64.8334C193.044 65.4777 192.521 66.0001 191.877 66.0001C191.233 66.0001 190.71 65.4777 190.71 64.8334C190.71 64.1891 191.233 63.6667 191.877 63.6667C192.521 63.6667 193.044 64.1891 193.044 64.8334Z" fill="#121D33"/>
<path fill-rule="evenodd" clip-rule="evenodd" d="M197.377 69.1667C197.377 69.8111 196.855 70.3334 196.21 70.3334C195.566 70.3334 195.044 69.8111 195.044 69.1667C195.044 68.5224 195.566 68.0001 196.21 68.0001C196.855 68.0001 197.377 68.5224 197.377 69.1667Z" fill="#121D33"/>
<path fill-rule="evenodd" clip-rule="evenodd" d="M197.049 64.3484L196.695 63.9948C196.403 63.702 195.928 63.702 195.635 63.9948L191.039 68.591C190.746 68.8839 190.746 69.3588 191.039 69.6517L191.392 70.0053C191.685 70.2981 192.16 70.2981 192.453 70.0053L197.049 65.4091C197.342 65.1162 197.342 64.6413 197.049 64.3484Z" fill="#121D33"/>
</g>
<rect x="186.002" y="58.9576" width="16.0848" height="16.0848" rx="8.04241" stroke="#B8B9BD" stroke-width="0.0848101"/>
</g>
</g>
<g clip-path="url(#clip3_3140_178876)" filter="url(#filter3_d_3140_178876)">
<path d="M125.683 124.126L125.732 124.16C125.909 124.285 126.088 124.41 126.269 124.532L126.364 124.597C126.519 124.701 126.674 124.806 126.829 124.912L126.965 125.001C127.148 125.12 127.332 125.237 127.517 125.354L127.6 125.406C127.763 125.507 127.927 125.608 128.092 125.707L128.235 125.792C128.423 125.905 128.613 126.016 128.803 126.126L128.864 126.16C129.038 126.26 129.212 126.358 129.387 126.454L129.536 126.533C129.729 126.638 129.923 126.743 130.119 126.848L130.151 126.865C130.338 126.962 130.526 127.058 130.714 127.152L130.869 127.231C131.065 127.328 131.261 127.425 131.459 127.519L131.469 127.524C131.669 127.619 131.871 127.712 132.073 127.805L132.228 127.875C132.417 127.959 132.606 128.043 132.795 128.125L132.844 128.146C133.048 128.234 133.253 128.319 133.458 128.403L133.613 128.466C133.797 128.545 133.982 128.615 134.167 128.686L134.245 128.716C134.452 128.795 134.661 128.874 134.869 128.953L135.024 129.009C135.206 129.074 135.388 129.139 135.572 129.201L135.674 129.237C135.884 129.308 136.095 129.378 136.308 129.446L136.463 129.495C136.644 129.552 136.826 129.609 137.009 129.663L137.13 129.7C137.344 129.763 137.558 129.824 137.774 129.884L137.929 129.926C138.111 129.976 138.294 130.025 138.477 130.072L138.614 130.107C138.831 130.163 139.049 130.215 139.268 130.265L139.415 130.299C139.599 130.342 139.784 130.383 139.969 130.424L140.12 130.456C140.341 130.503 140.561 130.548 140.784 130.592L140.921 130.618C141.109 130.653 141.299 130.688 141.488 130.722L141.648 130.749C141.871 130.788 142.096 130.825 142.322 130.86L142.446 130.878C142.639 130.907 142.834 130.935 143.028 130.961L143.197 130.984C143.425 131.014 143.653 131.043 143.882 131.069L143.989 131.08C144.19 131.103 144.39 131.123 144.592 131.143L144.767 131.159C144.999 131.18 145.232 131.2 145.464 131.217L145.547 131.223C145.757 131.238 145.967 131.251 146.178 131.263L146.357 131.273C146.59 131.286 146.828 131.297 147.065 131.304H147.111C147.334 131.311 147.558 131.317 147.781 131.321H147.965C148.204 131.321 148.443 131.327 148.682 131.321C160.356 131.27 171.151 126.307 179.172 118.324C187.194 110.341 192.44 99.3419 193.006 87.2123C193.571 75.0826 189.352 64.1216 182.074 56.2063C181.855 55.9697 181.632 55.7331 181.406 55.4965C181.334 55.4216 181.261 55.3483 181.188 55.2749C181.033 55.1172 180.877 54.9595 180.718 54.8018C180.633 54.7176 180.547 54.6338 180.461 54.5502C180.31 54.404 180.158 54.2592 180.005 54.1157L179.743 53.8712C179.579 53.7198 179.413 53.5707 179.247 53.4217C179.169 53.3539 179.092 53.2853 179.018 53.2182C178.775 53.0042 178.529 52.794 178.282 52.5873L178.262 52.5716C178.02 52.3697 177.775 52.1709 177.528 51.9754C177.447 51.9107 177.364 51.8468 177.282 51.7829C177.107 51.6468 176.932 51.5119 176.756 51.3784C176.661 51.3058 176.565 51.2349 176.469 51.1639C176.3 51.0382 176.13 50.9144 175.959 50.7924C175.901 50.7514 175.846 50.7089 175.788 50.6678L178.866 52.8468C181.146 54.4625 183.253 56.3184 185.151 58.3837C187.856 61.3266 190.118 64.6604 191.865 68.2768L191.812 68.1656L191.829 68.2011L191.846 68.2358L191.88 68.3068C191.891 68.3273 191.904 68.3557 191.915 68.377L191.932 68.4125L191.966 68.4827L192 68.5528L192.018 68.5883L192.052 68.6585L192.069 68.694L192.103 68.7642L192.12 68.7997C192.131 68.821 192.145 68.8486 192.155 68.8699C195.185 75.0936 196.742 82.2582 196.385 89.8928C195.825 101.907 190.633 112.804 182.689 120.71C174.746 128.617 164.051 133.53 152.49 133.583C150.987 133.59 149.485 133.514 147.991 133.353L147.222 133.274C147.402 133.294 147.583 133.313 147.764 133.329C140.695 132.666 134.222 130.174 128.762 126.31L125.683 124.126Z" fill="#DFE3EB"/>
<path d="M112.425 108.162C112.521 108.358 112.618 108.556 112.717 108.748L112.766 108.842C112.852 109.01 112.94 109.177 113.028 109.344C113.054 109.395 113.081 109.446 113.105 109.496C113.209 109.69 113.312 109.882 113.415 110.073L113.439 110.114C113.538 110.293 113.639 110.47 113.742 110.648L113.829 110.798C113.932 110.975 114.037 111.151 114.139 111.327L114.162 111.365C114.275 111.552 114.389 111.737 114.505 111.917L114.596 112.062C114.697 112.219 114.798 112.377 114.9 112.535L114.956 112.621C115.075 112.802 115.195 112.982 115.316 113.16L115.407 113.293C115.509 113.442 115.612 113.59 115.717 113.737L115.795 113.848C115.919 114.023 116.045 114.197 116.171 114.37C116.201 114.409 116.23 114.449 116.259 114.487C116.365 114.631 116.471 114.773 116.579 114.915L116.672 115.038C116.804 115.208 116.935 115.377 117.068 115.546L117.145 115.639C117.258 115.781 117.372 115.923 117.487 116.063L117.593 116.192C117.729 116.358 117.867 116.522 118.007 116.685L118.057 116.744C118.182 116.89 118.31 117.035 118.437 117.18L118.55 117.307C118.693 117.465 118.838 117.63 118.984 117.788C126.194 125.628 136.433 130.451 147.995 130.401C159.556 130.35 170.249 125.432 178.193 117.527C186.136 109.622 191.336 98.7284 191.897 86.7138C192.457 74.6993 188.278 63.844 181.069 56.0044C180.891 55.8104 180.71 55.6187 180.527 55.4287L180.443 55.3412C180.269 55.1608 180.093 54.9818 179.916 54.8041L179.815 54.7032C179.636 54.526 179.455 54.3501 179.273 54.1756L179.195 54.1022C179.011 53.9272 178.825 53.7529 178.637 53.5818L178.608 53.5542C178.416 53.3796 178.223 53.2074 178.028 53.0376L177.931 52.9516C177.742 52.7876 177.552 52.6254 177.361 52.4651L177.254 52.3744C177.058 52.213 176.862 52.0526 176.664 51.8933L176.594 51.8381C176.398 51.6804 176.201 51.5264 176.002 51.376L175.947 51.3334C175.744 51.1757 175.539 51.023 175.332 50.8752L175.221 50.7964C175.019 50.6497 174.816 50.5048 174.611 50.3618L174.499 50.283C174.289 50.1373 174.076 49.9933 173.862 49.8508L173.809 49.8161C173.599 49.6773 173.387 49.5406 173.175 49.406L173.098 49.3564C172.883 49.2207 172.667 49.0877 172.449 48.9573L172.328 48.884C172.113 48.7557 171.897 48.6293 171.679 48.5046L171.566 48.4384C171.339 48.3099 171.112 48.1829 170.883 48.0591L170.852 48.0433C170.627 47.9213 170.4 47.8017 170.17 47.6845L170.072 47.634C169.847 47.5189 169.62 47.4058 169.392 47.2949L169.263 47.2326C169.035 47.1233 168.806 47.0155 168.575 46.9093L168.467 46.8612C168.228 46.7523 167.987 46.6472 167.744 46.5457L167.736 46.5418C167.492 46.4377 167.247 46.336 167.001 46.2366L166.886 46.1901C166.65 46.0954 166.413 46.0032 166.175 45.9133L166.04 45.8628C165.799 45.7729 165.558 45.6854 165.316 45.6002L165.217 45.5655C164.973 45.4808 164.728 45.3983 164.482 45.3179L164.436 45.3029C164.185 45.2219 163.933 45.143 163.68 45.0663L163.551 45.0269C163.307 44.9522 163.061 44.8802 162.811 44.8108L162.672 44.7729C162.42 44.7046 162.167 44.6381 161.912 44.5734L161.83 44.5529C161.579 44.4909 161.326 44.4309 161.073 44.3731L160.996 44.3557C160.739 44.2974 160.479 44.2422 160.221 44.1893L160.081 44.161C159.826 44.1097 159.57 44.0616 159.313 44.0151L159.176 43.9914C158.914 43.9433 158.649 43.9015 158.383 43.8644L158.321 43.855C158.06 43.8155 157.798 43.7782 157.536 43.743L157.436 43.7296C157.171 43.6957 156.906 43.6641 156.639 43.635L156.562 43.6255L157.329 43.7067C164.032 44.4113 170.445 46.8512 175.959 50.794C176.13 50.916 176.3 51.0398 176.469 51.1654C176.565 51.2364 176.661 51.3074 176.756 51.3799C176.933 51.513 177.108 51.6478 177.282 51.7845C177.364 51.8484 177.447 51.9123 177.529 51.9769C177.775 52.1725 178.02 52.3712 178.262 52.5731L178.282 52.5889C178.53 52.7966 178.775 53.0069 179.018 53.2198C179.096 53.2868 179.173 53.3554 179.247 53.4232C179.414 53.5723 179.579 53.7213 179.744 53.8728L180.005 54.1172C180.16 54.2607 180.312 54.4056 180.461 54.5517C180.547 54.6353 180.633 54.7192 180.718 54.8033C180.876 54.961 181.033 55.1188 181.189 55.2765C181.261 55.3498 181.334 55.4232 181.406 55.4981C181.632 55.7347 181.855 55.9665 182.074 56.2078C189.352 64.1216 193.569 75.0826 193.006 87.2122C192.443 99.3419 187.195 110.344 179.177 118.326C171.159 126.309 160.361 131.272 148.687 131.322C148.448 131.322 148.208 131.322 147.97 131.322H147.786C147.562 131.318 147.339 131.313 147.116 131.305H147.07C146.833 131.297 146.598 131.286 146.362 131.274L146.182 131.264C145.972 131.252 145.761 131.239 145.552 131.224L145.469 131.218C145.236 131.2 145.004 131.181 144.772 131.16L144.597 131.144C144.395 131.124 144.194 131.103 143.994 131.081L143.887 131.069C143.654 131.043 143.43 131.015 143.202 130.985L143.033 130.962C142.839 130.935 142.645 130.908 142.45 130.879L142.327 130.861C142.101 130.826 141.876 130.789 141.652 130.75L141.493 130.722C141.304 130.689 141.114 130.654 140.926 130.618L140.789 130.592C140.566 130.549 140.345 130.504 140.125 130.457L139.974 130.424C139.789 130.384 139.604 130.343 139.42 130.3L139.272 130.266C139.054 130.214 138.836 130.161 138.619 130.108L138.482 130.073C138.299 130.025 138.116 129.976 137.934 129.927L137.779 129.885C137.563 129.825 137.349 129.764 137.135 129.7L137.014 129.664C136.831 129.612 136.649 129.555 136.468 129.495L136.313 129.447C136.1 129.379 135.889 129.309 135.679 129.238L135.577 129.202C135.393 129.14 135.211 129.075 135.029 129.01L134.874 128.954C134.666 128.875 134.457 128.8 134.25 128.717L134.172 128.686C133.987 128.615 133.802 128.542 133.618 128.467L133.463 128.404C133.258 128.32 133.053 128.234 132.849 128.147L132.8 128.126C132.61 128.044 132.421 127.96 132.233 127.876L132.078 127.805C131.876 127.713 131.673 127.62 131.474 127.525L131.463 127.52C131.266 127.425 131.07 127.329 130.874 127.232L130.719 127.153C130.53 127.059 130.342 126.963 130.156 126.865L130.124 126.849C129.929 126.746 129.737 126.641 129.541 126.533L129.392 126.455C129.217 126.358 129.042 126.261 128.869 126.161L128.808 126.126C128.617 126.017 128.428 125.906 128.24 125.793L128.096 125.708C127.932 125.608 127.768 125.508 127.605 125.406L127.521 125.354C127.336 125.238 127.152 125.121 126.97 125.002L126.834 124.913C126.679 124.809 126.524 124.705 126.369 124.597L126.273 124.533C126.093 124.41 125.914 124.286 125.736 124.16C123.437 122.537 121.314 120.67 119.402 118.591C116.727 115.679 114.484 112.385 112.745 108.812C112.63 108.577 112.515 108.343 112.402 108.108C112.406 108.125 112.416 108.143 112.425 108.162Z" fill="#F0F2F7"/>
<path d="M108.163 87.0807C108.723 75.0661 113.916 64.1698 121.86 56.2632C129.804 48.3565 140.498 43.4427 152.059 43.3914C153.589 43.3835 155.118 43.4625 156.639 43.628C156.906 43.6572 157.171 43.6887 157.436 43.7226L157.536 43.736C157.799 43.7739 158.059 43.8123 158.317 43.8512L158.379 43.8606C158.645 43.9016 158.91 43.9466 159.174 43.9931L159.311 44.0168C159.569 44.0633 159.824 44.1114 160.079 44.1627L160.219 44.1911C160.479 44.2439 160.738 44.2991 160.994 44.3575L161.072 44.3748C161.324 44.4321 161.576 44.4921 161.828 44.5546L161.911 44.5751C162.166 44.6393 162.419 44.7058 162.671 44.7746L162.811 44.8109C163.059 44.8798 163.306 44.9505 163.551 45.0231L163.679 45.0625C163.933 45.1382 164.185 45.2171 164.436 45.2991L164.482 45.3141C164.727 45.3945 164.972 45.477 165.217 45.5617L165.316 45.5964C165.558 45.6815 165.799 45.7691 166.039 45.859L166.175 45.9095C166.413 45.9994 166.65 46.0916 166.886 46.1863L167.001 46.2328C167.246 46.3322 167.492 46.4339 167.735 46.538L167.744 46.5419C167.986 46.6471 168.227 46.7522 168.467 46.8574L168.575 46.9063C168.805 47.0114 169.034 47.1192 169.262 47.2296L169.392 47.2919C169.62 47.4028 169.846 47.5159 170.072 47.631L170.17 47.6815C170.399 47.7992 170.627 47.9188 170.852 48.0403L170.882 48.0561C171.115 48.1799 171.339 48.3068 171.566 48.4354L171.678 48.4993C171.896 48.6239 172.112 48.7503 172.327 48.8786L172.448 48.9519C172.666 49.0828 172.882 49.2159 173.097 49.351L173.174 49.4007C173.386 49.5352 173.598 49.6719 173.808 49.8107L173.861 49.8454C174.075 49.9874 174.288 50.1314 174.498 50.2776L174.61 50.3565C174.816 50.4995 175.02 50.6443 175.22 50.791L175.331 50.8698C175.538 51.0202 175.743 51.1729 175.946 51.328L176.001 51.3706C176.2 51.5231 176.397 51.6771 176.593 51.8327L176.663 51.8879C176.861 52.0457 177.058 52.206 177.253 52.369L177.36 52.4597C177.552 52.6174 177.742 52.7796 177.93 52.9463L178.027 53.0322C178.222 53.2026 178.415 53.3747 178.607 53.5488L178.636 53.5764C178.824 53.7475 179.01 53.9218 179.194 54.0969L179.272 54.1702C179.453 54.3442 179.634 54.5201 179.814 54.6978L179.915 54.7987C180.092 54.9764 180.268 55.1554 180.442 55.3358L180.526 55.4233C180.707 55.6134 180.889 55.805 181.068 55.999C188.274 63.8386 192.457 74.6939 191.896 86.7085C191.334 98.723 186.142 109.619 178.199 117.526C170.255 125.433 159.562 130.348 148.001 130.399C136.44 130.451 126.2 125.627 118.99 117.787C118.844 117.629 118.699 117.468 118.556 117.306L118.443 117.178C118.316 117.034 118.188 116.889 118.063 116.743L118.013 116.684C117.873 116.52 117.735 116.356 117.599 116.191L117.493 116.061C117.378 115.921 117.264 115.78 117.151 115.638L117.074 115.544C116.941 115.376 116.809 115.207 116.678 115.036L116.585 114.913C116.477 114.771 116.371 114.629 116.265 114.486C116.236 114.446 116.207 114.407 116.177 114.368C116.051 114.196 115.925 114.021 115.801 113.846L115.723 113.735C115.62 113.588 115.517 113.44 115.413 113.292L115.322 113.159C115.201 112.98 115.081 112.801 114.962 112.62L114.906 112.533C114.804 112.375 114.703 112.218 114.602 112.06L114.511 111.916C114.395 111.731 114.279 111.547 114.168 111.364L114.145 111.325C114.04 111.15 113.935 110.973 113.835 110.797L113.748 110.646C113.645 110.469 113.544 110.291 113.445 110.112L113.421 110.071C113.315 109.88 113.212 109.688 113.111 109.495C113.084 109.444 113.057 109.394 113.034 109.342C112.946 109.176 112.858 109.009 112.772 108.841L112.723 108.746C112.624 108.552 112.527 108.357 112.431 108.16C109.374 101.927 107.803 94.7405 108.163 87.0807ZM148.204 126.78C169.561 126.78 187.681 108.812 188.675 86.6454C189.669 64.479 173.159 46.5112 151.802 46.5112C130.445 46.5112 112.324 64.4798 111.33 86.6454C110.335 108.811 126.844 126.78 148.204 126.78Z" fill="white"/>
<path d="M148.204 126.78C169.561 126.78 187.681 108.812 188.675 86.6452C189.668 64.4796 173.162 46.511 151.802 46.511C130.443 46.511 112.324 64.4788 111.33 86.6452C110.336 108.812 126.847 126.78 148.204 126.78Z" fill="white"/>
<g clip-path="url(#clip4_3140_178876)">
<path d="M148.756 126.778C170.429 125.636 188.441 106.821 188.985 84.7521C189.529 62.6835 172.4 45.719 150.726 46.8608C129.052 48.0026 111.041 66.8184 110.497 88.887C109.953 110.956 127.082 127.92 148.756 126.778Z" fill="url(#paint0_radial_3140_178876)"/>
<path d="M144.152 76.92C144.056 77.2715 143.896 77.6053 143.68 77.9023C143.279 78.4446 142.755 78.8785 142.161 79.161C141.626 79.4248 141.062 79.6068 140.488 79.7011C140.372 79.7222 140.253 79.7379 140.137 79.7531L140.11 79.7567C139.747 79.79 139.395 79.9425 139.105 80.1918C138.816 80.4411 138.604 80.774 138.501 81.142C138.453 81.3248 138.417 81.5097 138.391 81.6956C138.351 81.9758 138.327 82.2619 138.301 82.5714C138.283 82.7935 138.263 83.0277 138.236 83.2804C138.088 84.3119 137.777 85.3236 137.316 86.2746C137.222 86.4743 137.126 86.6682 137.032 86.8586C136.527 87.8792 136.071 88.8014 136.166 89.9993C136.24 90.922 136.684 91.5195 137.278 92.1288C137.56 92.4203 137.938 92.6622 138.33 92.9133C139.427 93.616 140.637 94.3908 140.18 96.5276C139.806 98.2589 137.016 100.202 133.143 101.034C133.519 100.955 132.729 99.5413 132.642 99.3854L132.637 99.3762C132.535 99.2093 132.43 99.045 132.326 98.881C132.024 98.4078 131.723 97.9369 131.492 97.4095C130.883 96.0323 130.624 94.4153 130.926 92.855C131.2 91.4429 132.121 90.2779 133.008 89.1561C133.153 88.9733 133.297 88.7914 133.437 88.6101C134.624 87.0699 135.879 85.0678 136.194 83.1329C136.22 82.9648 136.245 82.7817 136.271 82.5891C136.317 82.2445 136.368 81.8693 136.441 81.4942C136.553 80.8472 136.763 80.2149 137.062 79.6214C137.266 79.2316 137.531 78.8762 137.845 78.5707C138.009 78.4086 138.119 78.1982 138.159 77.9733C138.199 77.7484 138.165 77.5219 138.064 77.3301L132.196 66.2015L140.752 77.0227C140.849 77.1482 140.974 77.2478 141.117 77.3143C141.26 77.3808 141.417 77.4129 141.579 77.4079C141.74 77.403 141.901 77.3614 142.05 77.2859C142.2 77.2103 142.334 77.1028 142.443 76.9711C142.558 76.83 142.625 76.6557 142.634 76.4776C142.643 76.2996 142.592 76.1284 142.49 75.9933C142.092 75.4706 141.678 74.9413 141.265 74.4145C141.099 74.2026 140.933 73.9909 140.769 73.7804L138.616 71.049L134.295 65.5968L128.405 58.0134L134.879 65.0572L139.495 70.2436L141.797 72.8435C142.009 73.0864 142.221 73.3269 142.433 73.5675C142.984 74.1938 143.536 74.8202 144.087 75.4864L144.212 75.6424L144.234 75.8931C144.264 76.2333 144.236 76.5807 144.152 76.92Z" fill="#FF007A"/>
<path d="M166.763 79.5535L166.772 79.5677C166.8 78.3534 166.123 76.3879 164.701 74.5382L164.668 74.4928C164.229 73.9372 163.749 73.4192 163.232 72.9428C163.135 72.8488 163.03 72.7567 162.924 72.6648C162.26 72.0874 161.531 71.5926 160.75 71.1895L160.694 71.1632C158.24 69.8912 155.019 69.3391 151.006 70.3634C150.486 69.7175 149.924 69.1102 149.323 68.5452C148.404 67.665 147.313 66.9941 146.111 66.5702C144.92 66.1778 143.636 66.083 142.359 66.2932C143.583 66.343 144.77 66.6334 145.856 67.1493C146.905 67.6829 147.843 68.4066 148.63 69.2888C149.427 70.1897 150.174 71.138 150.868 72.1295L151.043 72.3643C151.723 73.2753 152.415 74.2027 153.285 75.0144C153.765 75.467 154.302 75.85 154.886 76.1542C155.041 76.2288 155.198 76.2986 155.351 76.3588C155.505 76.4191 155.65 76.4748 155.806 76.5251C156.106 76.6312 156.418 76.7155 156.73 76.7918C157.979 77.0966 159.263 77.1622 160.519 77.1677C160.691 77.168 160.862 77.1677 161.033 77.1674C161.485 77.1666 161.933 77.1658 162.373 77.1756C162.973 77.181 163.567 77.2465 164.146 77.3716C165.016 77.5617 165.773 78.0612 166.292 78.7865C166.469 79.028 166.626 79.2843 166.763 79.5535Z" fill="#FF007A"/>
<path d="M163.235 72.9387C163.173 72.8812 163.11 72.8245 163.047 72.768L162.928 72.6606L163.02 72.7448C163.092 72.8117 163.164 72.8784 163.235 72.9387Z" fill="#FF007A"/>
<path d="M161.404 85.0149C157.402 83.5288 153.215 81.9743 153.968 76.9525C155.281 78.3741 157.393 78.5755 159.69 78.7945C161.774 78.9931 164.01 79.2063 165.941 80.358C170.496 83.0734 169.678 88.8582 168.054 91.0569C168.282 87.5682 164.914 86.3179 161.404 85.0149Z" fill="#FF007A"/>
<path d="M145.145 83.3739C146.215 83.2119 148.504 82.5174 147.532 80.7171C147.323 80.3515 147.013 80.0624 146.639 79.8834C146.265 79.7045 145.842 79.6427 145.417 79.7051C144.987 79.7754 144.577 79.9802 144.245 80.2915C143.912 80.6026 143.672 81.0054 143.558 81.445C143.212 82.6743 143.523 83.6218 145.145 83.3739Z" fill="#FF007A"/>
<path d="M145.225 68.718C144.575 67.9525 143.546 67.5873 142.531 67.4879C142.487 67.7526 142.456 68.0185 142.439 68.2844C142.34 70.4729 143.031 72.8342 144.44 74.4262C144.891 74.941 145.44 75.3536 146.057 75.6415C146.415 75.8048 147.363 76.2068 147.728 75.781C147.756 75.7424 147.774 75.6975 147.78 75.6509C147.787 75.6043 147.781 75.5576 147.764 75.5159C147.71 75.3446 147.6 75.1924 147.491 75.0414C147.413 74.9344 147.337 74.8279 147.28 74.7156C147.223 74.6025 147.162 74.4926 147.1 74.3827C146.985 74.1757 146.869 73.9689 146.783 73.742C146.554 73.1484 146.443 72.5102 146.332 71.8741C146.31 71.7472 146.288 71.6197 146.265 71.4934C146.096 70.5123 145.875 69.4836 145.225 68.718Z" fill="#FF007A"/>
<path d="M159.107 85.4068C157.994 88.4633 159.607 90.9104 161.211 93.3431C163.005 96.0642 164.786 98.7673 162.728 102.285C166.606 100.442 168.55 95.3897 167.054 91.5409C166.112 89.1066 163.727 87.8856 161.512 86.7522C160.653 86.3125 159.82 85.8859 159.107 85.4068Z" fill="#FF007A"/>
<path d="M147.678 93.1655C146.975 93.4959 146.31 93.9161 145.699 94.4157C147.075 93.8319 148.514 93.4639 149.965 93.3246C150.228 93.2947 150.492 93.2682 150.759 93.2415C151.22 93.1952 151.69 93.1481 152.169 93.0816C152.954 92.9854 153.731 92.7805 154.478 92.4724C155.262 92.1502 155.979 91.6572 156.58 91.0287C157.187 90.3807 157.622 89.5839 157.835 88.7274C158.024 87.9188 158.021 87.0895 157.825 86.313C157.63 85.5364 157.249 84.8365 156.715 84.2753C156.963 84.9556 157.107 85.6785 157.144 86.4197C157.175 87.1099 157.067 87.8102 156.827 88.4765C156.593 89.1084 156.221 89.685 155.743 90.1592C155.249 90.6385 154.681 91.0266 154.067 91.3042C153.215 91.7006 152.256 91.8949 151.259 92.0973C150.803 92.1897 150.339 92.2838 149.873 92.3996C149.124 92.5802 148.389 92.8368 147.678 93.1655Z" fill="#FF007A"/>
<path fill-rule="evenodd" clip-rule="evenodd" d="M159.504 104.854L159.362 104.976C159.182 105.133 158.999 105.291 158.803 105.435C158.554 105.616 158.293 105.777 158.023 105.919C157.461 106.228 156.848 106.404 156.23 106.431C154.558 106.487 153.408 105.26 152.752 103.839C152.58 103.467 152.43 103.082 152.28 102.697C152.04 102.08 151.8 101.463 151.469 100.9C150.703 99.589 149.36 98.5723 147.751 98.8585C147.095 98.9776 146.475 99.3143 146.097 99.9211C145.103 101.506 146.423 103.584 148.18 103.188C148.33 103.156 148.476 103.107 148.617 103.041C148.757 102.973 148.889 102.884 149.008 102.778C149.258 102.555 149.449 102.269 149.561 101.953C149.684 101.622 149.718 101.27 149.66 100.935C149.597 100.585 149.403 100.284 149.118 100.097C149.451 100.242 149.705 100.52 149.829 100.872C149.958 101.234 149.983 101.634 149.903 102.027C149.824 102.436 149.642 102.824 149.376 103.151C149.234 103.319 149.072 103.467 148.894 103.591C148.717 103.713 148.529 103.814 148.332 103.892C147.934 104.052 147.512 104.119 147.1 104.088C146.52 104.033 145.978 103.816 145.529 103.459C145.466 103.41 145.405 103.358 145.345 103.305C145.01 103.025 144.71 102.704 144.449 102.348C144.347 102.234 144.243 102.122 144.135 102.014C143.589 101.435 142.94 100.97 142.218 100.641C141.72 100.438 141.197 100.297 140.659 100.219C140.388 100.175 140.114 100.147 139.84 100.126C139.81 100.124 139.753 100.117 139.682 100.108C139.453 100.078 139.08 100.031 139.013 100.097C139.883 99.2422 140.828 98.4737 141.833 97.8031C142.865 97.1253 143.967 96.5846 145.113 96.195C146.302 95.7891 147.538 95.6261 148.751 95.7157C149.375 95.7605 149.984 95.8925 150.562 96.1079C151.168 96.3287 151.724 96.6603 152.206 97.0877C152.681 97.5375 153.061 98.0856 153.325 98.7016C153.562 99.2786 153.734 99.8861 153.839 100.513C153.895 100.85 153.934 101.222 153.975 101.607C154.161 103.36 154.375 105.384 156.33 105.636C156.454 105.654 156.58 105.666 156.706 105.671L157.097 105.66C157.367 105.626 157.635 105.572 157.9 105.499C158.45 105.338 158.987 105.121 159.504 104.854ZM144.485 102.388C144.592 102.515 144.702 102.64 144.815 102.762C144.76 102.7 144.706 102.638 144.651 102.576C144.596 102.513 144.541 102.45 144.485 102.388Z" fill="#FF007A"/>
</g>
<g filter="url(#filter4_b_3140_178876)">
<rect x="142.044" y="60" width="15.4336" height="15.4615" rx="7.71679" fill="#05183D" fill-opacity="0.25"/>
</g>
<g style="mix-blend-mode:hard-light" filter="url(#filter5_b_3140_178876)">
<rect x="142.044" y="60" width="15.4336" height="15.4615" rx="7.71679" fill="white" fill-opacity="0.25"/>
<g style="mix-blend-mode:multiply" opacity="0.75">
<path fill-rule="evenodd" clip-rule="evenodd" d="M148.796 65.6372C148.796 66.2598 148.293 66.7646 147.671 66.7646C147.049 66.7646 146.546 66.2598 146.546 65.6372C146.546 65.0145 147.049 64.5098 147.671 64.5098C148.293 64.5098 148.796 65.0145 148.796 65.6372Z" fill="#121D33"/>
<path fill-rule="evenodd" clip-rule="evenodd" d="M152.976 69.8247C152.976 70.4473 152.472 70.9521 151.851 70.9521C151.229 70.9521 150.726 70.4473 150.726 69.8247C150.726 69.202 151.229 68.6973 151.851 68.6973C152.472 68.6973 152.976 69.202 152.976 69.8247Z" fill="#121D33"/>
<path fill-rule="evenodd" clip-rule="evenodd" d="M152.66 65.1685L152.319 64.8268C152.036 64.5438 151.578 64.5438 151.296 64.8268L146.862 69.2683C146.58 69.5514 146.58 70.0103 146.862 70.2933L147.203 70.635C147.486 70.918 147.944 70.918 148.226 70.635L152.66 66.1934C152.942 65.9104 152.942 65.4515 152.66 65.1685Z" fill="#121D33"/>
</g>
<rect x="142.002" y="59.9576" width="15.5184" height="15.5463" rx="7.7592" stroke="#B8B9BD" stroke-width="0.0848101"/>
</g>
</g>
<g clip-path="url(#clip5_3140_178876)" filter="url(#filter6_d_3140_178876)">
<path d="M76.8137 113.638L76.8625 113.672C77.0399 113.798 77.2189 113.922 77.3994 114.044L77.4947 114.109C77.6497 114.214 77.8046 114.318 77.9596 114.425L78.0959 114.514C78.2788 114.632 78.4627 114.75 78.6476 114.866L78.7313 114.918C78.894 115.02 79.0582 115.12 79.2225 115.219L79.3658 115.305C79.5543 115.418 79.7436 115.529 79.9337 115.638L79.9949 115.673C80.1684 115.772 80.3428 115.87 80.5179 115.966L80.6666 116.045C80.8603 116.151 81.054 116.256 81.25 116.361L81.2818 116.377C81.4688 116.474 81.6565 116.57 81.845 116.665L82 116.744C82.196 116.841 82.392 116.937 82.5896 117.032L82.5996 117.036C82.7995 117.132 83.0017 117.225 83.204 117.317L83.3589 117.387C83.5474 117.472 83.7365 117.555 83.926 117.637L83.9749 117.659C84.1786 117.746 84.3839 117.831 84.5892 117.916L84.7442 117.979C84.9278 118.058 85.113 118.127 85.2981 118.198L85.3756 118.229C85.5833 118.308 85.7917 118.387 86.0001 118.465L86.155 118.521C86.3371 118.587 86.5192 118.652 86.7028 118.714L86.8051 118.749C87.0148 118.821 87.226 118.89 87.4388 118.958L87.5938 119.007C87.7751 119.065 87.9571 119.121 88.14 119.176L88.2608 119.212C88.4747 119.275 88.6893 119.337 88.9047 119.397L89.0596 119.439C89.2417 119.488 89.4253 119.537 89.6082 119.584L89.7453 119.62C89.9622 119.675 90.1799 119.728 90.3984 119.778L90.5456 119.812C90.73 119.854 90.9149 119.896 91.1003 119.936L91.2506 119.969C91.4715 120.016 91.6923 120.061 91.9146 120.104L92.0518 120.13C92.24 120.166 92.4298 120.2 92.6189 120.234L92.7785 120.262C93.0021 120.301 93.2271 120.338 93.4533 120.372L93.5765 120.39C93.7702 120.42 93.9644 120.448 94.1591 120.474L94.328 120.497C94.5558 120.527 94.7836 120.555 95.0129 120.581L95.1198 120.592C95.3205 120.615 95.5211 120.636 95.7226 120.655L95.8977 120.672C96.1301 120.692 96.3625 120.712 96.595 120.73L96.6779 120.736C96.8881 120.751 97.0983 120.764 97.3085 120.776L97.4883 120.786C97.7207 120.798 97.9593 120.809 98.1956 120.817H98.2421C98.4652 120.824 98.6886 120.829 98.9123 120.834H99.0959C99.3345 120.834 99.5739 120.839 99.8133 120.834C111.487 120.782 122.281 115.82 130.303 107.836C138.325 99.8533 143.571 88.8545 144.137 76.7248C144.702 64.5951 140.483 53.6342 133.205 45.7189C132.986 45.4823 132.762 45.2457 132.537 45.0091C132.465 44.9342 132.392 44.8608 132.319 44.7875C132.164 44.6298 132.008 44.4721 131.849 44.3143C131.764 44.2302 131.678 44.1464 131.592 44.0628C131.441 43.9166 131.289 43.7718 131.136 43.6282L130.874 43.3838C130.71 43.2324 130.544 43.0833 130.378 42.9343C130.3 42.8664 130.223 42.7978 130.149 42.7308C129.906 42.5168 129.66 42.3065 129.412 42.0999L129.393 42.0841C129.151 41.8823 128.906 41.6835 128.659 41.4879C128.578 41.4233 128.495 41.3594 128.413 41.2955C128.238 41.1594 128.063 41.0245 127.887 40.891C127.792 40.8184 127.696 40.7474 127.599 40.6765C127.431 40.5508 127.261 40.427 127.09 40.305C127.032 40.264 126.977 40.2214 126.918 40.1804L129.997 42.3594C132.277 43.9751 134.384 45.8309 136.282 47.8962C138.987 50.8392 141.249 54.1729 142.996 57.7894L142.943 57.6782L142.96 57.7137L142.977 57.7484L143.011 57.8194C143.022 57.8399 143.035 57.8683 143.046 57.8896L143.063 57.925L143.097 57.9952L143.131 58.0654L143.149 58.1009L143.183 58.1711L143.2 58.2066L143.234 58.2768L143.251 58.3123C143.262 58.3335 143.276 58.3611 143.286 58.3824C146.315 64.6062 147.873 71.7707 147.516 79.4053C146.956 91.4191 141.764 102.316 133.82 110.223C125.876 118.129 115.182 123.043 103.621 123.095C102.118 123.103 100.616 123.026 99.1215 122.866L98.3529 122.787C98.5326 122.807 98.7134 122.825 98.8952 122.841C91.8255 122.178 85.3524 119.687 79.8926 115.823L76.8137 113.638Z" fill="#DFE3EB"/>
<path d="M63.5559 97.6744C63.6519 97.8707 63.7488 98.0687 63.8479 98.2603L63.8968 98.3549C63.983 98.5227 64.0703 98.6898 64.1586 98.8565C64.185 98.9078 64.2121 98.9582 64.2361 99.0087C64.3394 99.2022 64.4427 99.3943 64.546 99.5852L64.5692 99.6262C64.6684 99.8052 64.7699 99.9827 64.8722 100.16L64.9597 100.311C65.0628 100.487 65.1674 100.664 65.2696 100.839L65.2929 100.878C65.406 101.065 65.5199 101.249 65.6361 101.43L65.7267 101.574C65.8275 101.732 65.9282 101.89 66.0304 102.047L66.087 102.134C66.2058 102.315 66.3256 102.494 66.4465 102.673L66.5379 102.806C66.6394 102.954 66.7425 103.102 66.8478 103.249L66.9253 103.36C67.0493 103.535 67.1755 103.71 67.3018 103.882C67.3313 103.922 67.3607 103.961 67.3894 104C67.4955 104.143 67.6017 104.285 67.7094 104.427L67.8031 104.55C67.9343 104.721 68.066 104.89 68.1982 105.058L68.2757 105.152C68.3888 105.294 68.5027 105.435 68.6174 105.576L68.7235 105.705C68.8599 105.87 68.9978 106.035 69.1372 106.198L69.1876 106.257C69.3131 106.403 69.4402 106.548 69.5672 106.692L69.6804 106.82C69.8237 106.978 69.9686 107.142 70.1142 107.301C77.3242 115.141 87.5634 119.964 99.1252 119.913C110.687 119.863 121.38 114.945 129.323 107.04C137.267 99.1349 142.467 88.241 143.027 76.2264C143.587 64.2119 139.409 53.3566 132.2 45.517C132.022 45.323 131.84 45.1313 131.658 44.9413L131.574 44.8537C131.399 44.6734 131.224 44.4944 131.047 44.3167L130.946 44.2157C130.766 44.0386 130.586 43.8627 130.403 43.6882L130.326 43.6148C130.141 43.4397 129.955 43.2655 129.768 43.0943L129.738 43.0667C129.547 42.8922 129.354 42.72 129.159 42.5502L129.061 42.4642C128.873 42.3002 128.683 42.138 128.492 41.9776L128.384 41.887C128.189 41.7256 127.992 41.5652 127.795 41.4059L127.725 41.3507C127.529 41.193 127.331 41.0389 127.133 40.8886L127.077 40.846C126.874 40.6883 126.669 40.5355 126.463 40.3878L126.352 40.3089C126.15 40.1623 125.946 40.0174 125.741 39.8744L125.63 39.7955C125.419 39.6499 125.207 39.5059 124.993 39.3634L124.94 39.3287C124.729 39.1899 124.518 39.0532 124.306 38.9186L124.228 38.8689C124.013 38.7333 123.797 38.6003 123.58 38.4699L123.458 38.3965C123.243 38.2683 123.027 38.1418 122.81 38.0172L122.697 37.951C122.47 37.8224 122.243 37.6955 122.013 37.5717L121.983 37.5559C121.758 37.4339 121.53 37.3143 121.3 37.1971L121.203 37.1466C120.977 37.0315 120.75 36.9184 120.523 36.8075L120.393 36.7452C120.165 36.6358 119.936 36.5281 119.706 36.4219L119.598 36.3737C119.358 36.2649 119.117 36.1598 118.875 36.0583L118.866 36.0544C118.623 35.9503 118.377 35.8485 118.132 35.7492L118.017 35.7026C117.78 35.608 117.543 35.5157 117.306 35.4258L117.17 35.3754C116.93 35.2855 116.689 35.1979 116.447 35.1128L116.347 35.0781C116.104 34.9934 115.859 34.9109 115.613 34.8304L115.566 34.8154C115.316 34.7345 115.064 34.6556 114.81 34.5789L114.682 34.5394C114.438 34.4648 114.191 34.3927 113.942 34.3233L113.803 34.2855C113.551 34.2171 113.298 34.1506 113.043 34.086L112.96 34.0655C112.709 34.0034 112.457 33.9435 112.204 33.8857L112.127 33.8683C111.869 33.81 111.61 33.7548 111.352 33.7019L111.212 33.6735C110.957 33.6223 110.701 33.5742 110.444 33.5276L110.307 33.504C110.045 33.4559 109.78 33.4141 109.513 33.377L109.452 33.3675C109.191 33.3281 108.929 33.2908 108.666 33.2556L108.566 33.2422C108.302 33.2082 108.037 33.1767 107.77 33.1475L107.693 33.1381L108.46 33.2193C115.162 33.9239 121.576 36.3638 127.09 40.3066C127.261 40.4285 127.431 40.5524 127.599 40.678C127.695 40.749 127.791 40.82 127.887 40.8925C128.063 41.0255 128.239 41.1604 128.413 41.2971C128.495 41.3609 128.578 41.4248 128.659 41.4895C128.906 41.6851 129.15 41.8838 129.393 42.0857L129.412 42.1015C129.66 42.3091 129.906 42.5194 130.149 42.7324C130.227 42.7994 130.304 42.868 130.378 42.9358C130.544 43.0849 130.71 43.2339 130.874 43.3853L131.136 43.6298C131.291 43.7733 131.443 43.9182 131.592 44.0643C131.677 44.1479 131.763 44.2318 131.849 44.3159C132.007 44.4736 132.164 44.6313 132.319 44.7891C132.392 44.8624 132.465 44.9357 132.537 45.0107C132.762 45.2472 132.985 45.4791 133.205 45.7204C140.483 53.6342 144.7 64.5951 144.137 76.7248C143.573 88.8545 138.326 99.8565 130.308 107.839C122.29 115.821 111.491 120.785 99.8179 120.834C99.5785 120.834 99.3391 120.834 99.1004 120.834H98.9168C98.6926 120.831 98.4693 120.825 98.2466 120.818H98.2002C97.9639 120.81 97.7283 120.799 97.4928 120.786L97.3131 120.777C97.1023 120.765 96.8921 120.751 96.6824 120.737L96.5995 120.73C96.3671 120.713 96.1346 120.693 95.9022 120.673L95.7271 120.656C95.5257 120.636 95.325 120.616 95.1243 120.593L95.0174 120.582C94.785 120.556 94.5603 120.528 94.3325 120.498L94.1636 120.475C93.9694 120.448 93.7752 120.42 93.581 120.391L93.4578 120.373C93.2316 120.338 93.0067 120.302 92.783 120.263L92.6234 120.235C92.4344 120.201 92.2446 120.166 92.0563 120.131L91.9192 120.105C91.6968 120.062 91.476 120.017 91.2552 119.969L91.1049 119.937C90.9194 119.897 90.7345 119.855 90.5501 119.812L90.4029 119.778C90.1845 119.726 89.9668 119.674 89.7498 119.621L89.6127 119.585C89.4298 119.538 89.2462 119.489 89.0642 119.439L88.9092 119.398C88.6938 119.338 88.4792 119.276 88.2654 119.213L88.1445 119.177C87.9617 119.124 87.7796 119.068 87.5983 119.008L87.4433 118.959C87.2311 118.891 87.0198 118.822 86.8096 118.75L86.7073 118.715C86.5237 118.652 86.3416 118.588 86.1596 118.522L86.0046 118.466C85.7962 118.387 85.5878 118.312 85.3801 118.23L85.3027 118.199C85.1175 118.128 84.9323 118.055 84.7487 117.98L84.5938 117.917C84.3885 117.832 84.1831 117.747 83.9794 117.659L83.9306 117.638C83.7405 117.556 83.5515 117.473 83.3634 117.388L83.2085 117.318C83.0063 117.226 82.8041 117.133 82.6042 117.037L82.5941 117.033C82.3965 116.938 82.2005 116.842 82.0045 116.745L81.8496 116.666C81.6605 116.571 81.4728 116.475 81.2863 116.378L81.2545 116.361C81.0593 116.259 80.8672 116.154 80.6711 116.046L80.5224 115.967C80.3473 115.871 80.173 115.773 79.9994 115.674L79.9382 115.639C79.7476 115.53 79.5583 115.418 79.3703 115.305L79.227 115.22C79.0627 115.121 78.8985 115.021 78.7358 114.919L78.6521 114.867C78.4667 114.751 78.2828 114.633 78.1005 114.514L77.9641 114.425C77.8092 114.322 77.6542 114.218 77.4993 114.11L77.404 114.045C77.2234 113.923 77.0445 113.798 76.8671 113.673C74.5681 112.05 72.4447 110.183 70.5326 108.104C67.8575 105.192 65.6149 101.897 63.8758 98.325C63.7601 98.09 63.6457 97.8552 63.5326 97.6207C63.5365 97.6373 63.5466 97.6554 63.5559 97.6744Z" fill="#F0F2F7"/>
<path d="M59.2937 76.5932C59.8538 64.5787 65.0471 53.6824 72.9907 45.7758C80.9343 37.8691 91.6284 32.9552 103.189 32.904C104.719 32.8961 106.249 32.9751 107.77 33.1406C108.036 33.1697 108.301 33.2013 108.566 33.2352L108.666 33.2486C108.929 33.2865 109.19 33.3248 109.448 33.3637L109.509 33.3732C109.776 33.4142 110.041 33.4592 110.305 33.5057L110.442 33.5294C110.699 33.5759 110.955 33.624 111.21 33.6752L111.35 33.7036C111.61 33.7565 111.869 33.8117 112.125 33.87L112.202 33.8874C112.455 33.9447 112.707 34.0046 112.958 34.0672L113.041 34.0877C113.296 34.1518 113.55 34.2183 113.801 34.2872L113.942 34.3235C114.19 34.3924 114.436 34.4631 114.681 34.5356L114.81 34.5751C115.063 34.6508 115.315 34.7296 115.566 34.8116L115.613 34.8266C115.858 34.9071 116.103 34.9896 116.347 35.0743L116.446 35.1089C116.689 35.1941 116.93 35.2817 117.17 35.3716L117.306 35.422C117.543 35.5119 117.78 35.6042 118.017 35.6988L118.131 35.7454C118.377 35.8447 118.623 35.9465 118.866 36.0506L118.874 36.0545C119.117 36.1596 119.358 36.2648 119.597 36.3699L119.706 36.4188C119.936 36.524 120.165 36.6318 120.393 36.7422L120.522 36.8045C120.75 36.9154 120.977 37.0284 121.203 37.1436L121.3 37.194C121.53 37.3118 121.757 37.4314 121.983 37.5529L122.013 37.5686C122.245 37.6925 122.469 37.8194 122.696 37.948L122.809 38.0118C123.027 38.1364 123.243 38.2629 123.457 38.3912L123.579 38.4645C123.796 38.5954 124.012 38.7284 124.227 38.8635L124.305 38.9132C124.517 39.0478 124.728 39.1845 124.939 39.3233L124.992 39.358C125.206 39.5 125.418 39.644 125.629 39.7902L125.74 39.869C125.947 40.012 126.151 40.1569 126.351 40.3036L126.462 40.3824C126.668 40.5328 126.873 40.6855 127.076 40.8406L127.132 40.8832C127.33 41.0357 127.528 41.1897 127.724 41.3453L127.794 41.4005C127.992 41.5582 128.188 41.7186 128.383 41.8816L128.491 41.9723C128.682 42.13 128.872 42.2922 129.06 42.4588L129.158 42.5448C129.352 42.7151 129.545 42.8873 129.737 43.0613L129.767 43.0889C129.954 43.2601 130.14 43.4344 130.325 43.6094L130.402 43.6828C130.584 43.8568 130.765 44.0327 130.945 44.2104L131.046 44.3113C131.223 44.489 131.398 44.668 131.573 44.8483L131.657 44.9359C131.838 45.1259 132.019 45.3176 132.199 45.5116C139.404 53.3512 143.588 64.2065 143.026 76.221C142.464 88.2356 137.273 99.1319 129.329 107.039C121.386 114.945 110.692 119.861 99.1312 119.912C87.5702 119.963 77.3302 115.139 70.1202 107.3C69.9745 107.142 69.8297 106.98 69.6863 106.818L69.5732 106.691C69.4462 106.546 69.3191 106.401 69.1936 106.255L69.1432 106.196C69.0038 106.033 68.8659 105.868 68.7295 105.703L68.6234 105.574C68.5087 105.434 68.3948 105.293 68.2817 105.151L68.2042 105.057C68.0715 104.889 67.9398 104.72 67.8091 104.549L67.7153 104.426C67.6076 104.284 67.5015 104.142 67.3954 103.998C67.3667 103.959 67.3372 103.92 67.3078 103.881C67.1815 103.708 67.0552 103.534 66.9313 103.359L66.8538 103.248C66.7508 103.101 66.6477 102.953 66.5439 102.804L66.4525 102.671C66.3316 102.493 66.2118 102.313 66.093 102.133L66.0364 102.046C65.9342 101.888 65.8334 101.73 65.7327 101.573L65.6421 101.428C65.5259 101.244 65.4096 101.059 65.2989 100.876L65.2756 100.838C65.1702 100.663 65.0657 100.486 64.9657 100.309L64.8782 100.159C64.7759 99.9812 64.6744 99.8038 64.5752 99.6247L64.552 99.5837C64.4461 99.3929 64.3428 99.2007 64.2421 99.0073C64.215 98.9568 64.1878 98.9063 64.1646 98.8551C64.0763 98.6889 63.989 98.5217 63.9027 98.3535L63.8539 98.2589C63.7548 98.0649 63.6579 97.8693 63.5618 97.6729C60.5046 91.4397 58.9334 84.2531 59.2937 76.5932ZM99.3342 116.293C120.691 116.293 138.811 98.3243 139.805 76.1579C140.8 53.9915 124.29 36.0237 102.933 36.0237C81.5758 36.0237 63.4541 53.9923 62.4601 76.1579C61.4661 98.3235 77.9748 116.293 99.3342 116.293Z" fill="white"/>
<path d="M99.3345 116.293C120.692 116.293 138.812 98.3241 139.806 76.1577C140.799 53.9921 124.293 36.0236 102.933 36.0236C81.5738 36.0236 63.4545 53.9914 62.4604 76.1577C61.4664 98.3241 77.9774 116.293 99.3345 116.293Z" fill="white"/>
<g clip-path="url(#clip6_3140_178876)">
<path d="M99.8861 116.291C121.56 115.149 139.571 96.3332 140.116 74.2646C140.66 52.196 123.531 35.2315 101.857 36.3733C80.183 37.5151 62.1716 56.3308 61.6274 78.3994C61.0832 100.468 78.2122 117.433 99.8861 116.291Z" fill="#473BCB"/>
<path d="M116.186 75.9878L101.486 51.3579L85.5304 77.6028L100.636 85.8565L116.186 75.9878Z" fill="white"/>
<path d="M100.255 101.306L116.125 78.8932L100.564 88.7604L85.4588 80.5087L100.255 101.306Z" fill="white"/>
</g>
<g filter="url(#filter7_b_3140_178876)">
<rect x="61.0439" y="43" width="23.1504" height="23.1923" rx="11.5752" fill="#05183D" fill-opacity="0.25"/>
</g>
<g style="mix-blend-mode:hard-light" filter="url(#filter8_b_3140_178876)">
<rect x="61.0439" y="43" width="23.1504" height="23.1923" rx="11.5752" fill="white" fill-opacity="0.25"/>
<g style="mix-blend-mode:multiply" opacity="0.75">
<path fill-rule="evenodd" clip-rule="evenodd" d="M71.172 51.4555C71.172 52.3895 70.4162 53.1466 69.4839 53.1466C68.5517 53.1466 67.7959 52.3895 67.7959 51.4555C67.7959 50.5215 68.5517 49.7644 69.4839 49.7644C70.4162 49.7644 71.172 50.5215 71.172 51.4555Z" fill="#121D33"/>
<path fill-rule="evenodd" clip-rule="evenodd" d="M77.4419 57.7368C77.4419 58.6707 76.6861 59.4279 75.7538 59.4279C74.8216 59.4279 74.0658 58.6707 74.0658 57.7368C74.0658 56.8028 74.8216 56.0457 75.7538 56.0457C76.6861 56.0457 77.4419 56.8028 77.4419 57.7368Z" fill="#121D33"/>
<path fill-rule="evenodd" clip-rule="evenodd" d="M76.9671 50.7525L76.4556 50.24C76.0318 49.8154 75.3447 49.8154 74.9209 50.24L68.2707 56.9023C67.8469 57.3268 67.8469 58.0152 68.2707 58.4397L68.7822 58.9522C69.206 59.3767 69.8931 59.3767 70.3169 58.9522L76.9671 52.2899C77.3909 51.8654 77.3909 51.177 76.9671 50.7525Z" fill="#121D33"/>
</g>
<rect x="61.0015" y="42.9576" width="23.2352" height="23.2771" rx="11.6176" stroke="#B8B9BD" stroke-width="0.0848101"/>
</g>
</g>
<g clip-path="url(#clip7_3140_178876)" filter="url(#filter9_d_3140_178876)">
<path d="M32.0371 139.857L32.0859 139.891C32.2633 140.016 32.4423 140.141 32.6228 140.263L32.7181 140.328C32.8731 140.433 33.028 140.537 33.183 140.643L33.3193 140.732C33.5022 140.851 33.6861 140.969 33.871 141.085L33.9546 141.137C34.1173 141.239 34.2816 141.339 34.4458 141.438L34.5892 141.523C34.7777 141.636 34.967 141.748 35.1571 141.857L35.2183 141.892C35.3918 141.991 35.5662 142.089 35.7412 142.185L35.89 142.264C36.0837 142.37 36.2774 142.474 36.4734 142.579L36.5052 142.596C36.6921 142.693 36.8799 142.789 37.0684 142.884L37.2234 142.963C37.4194 143.06 37.6154 143.156 37.813 143.25L37.823 143.255C38.0229 143.351 38.2251 143.444 38.4274 143.536L38.5823 143.606C38.7708 143.691 38.9599 143.774 39.1494 143.856L39.1982 143.877C39.402 143.965 39.6073 144.05 39.8126 144.134L39.9676 144.198C40.1512 144.276 40.3364 144.346 40.5215 144.417L40.599 144.448C40.8066 144.526 41.0151 144.605 41.2235 144.684L41.3784 144.74C41.5605 144.806 41.7426 144.87 41.9262 144.933L42.0285 144.968C42.2382 145.04 42.4494 145.109 42.6622 145.177L42.8172 145.226C42.9985 145.284 43.1805 145.34 43.3634 145.395L43.4842 145.431C43.6981 145.494 43.9127 145.556 44.1281 145.616L44.283 145.657C44.4651 145.707 44.6487 145.756 44.8315 145.803L44.9687 145.839C45.1856 145.894 45.4033 145.947 45.6218 145.996L45.769 146.03C45.9534 146.073 46.1383 146.114 46.3237 146.155L46.474 146.187C46.6948 146.235 46.9157 146.28 47.138 146.323L47.2751 146.349C47.4634 146.384 47.6532 146.419 47.8423 146.453L48.0019 146.481C48.2255 146.52 48.4505 146.556 48.6767 146.591L48.7999 146.609C48.9936 146.639 49.1878 146.666 49.3825 146.693L49.5514 146.716C49.7792 146.746 50.007 146.774 50.2363 146.8L50.3432 146.811C50.5439 146.834 50.7445 146.854 50.946 146.874L51.1211 146.891C51.3535 146.911 51.5859 146.931 51.8184 146.948L51.9013 146.955C52.1115 146.969 52.3217 146.983 52.5319 146.995L52.7117 147.004C52.9441 147.017 53.1827 147.028 53.419 147.036H53.4655C53.6886 147.043 53.912 147.048 54.1357 147.052H54.3193C54.5579 147.052 54.7973 147.058 55.0367 147.052C66.7101 147.001 77.5048 142.038 85.5267 134.055C93.5486 126.072 98.7946 115.073 99.3601 102.944C99.9257 90.8139 95.7064 79.8529 88.4282 71.9376C88.209 71.701 87.9858 71.4644 87.7604 71.2279C87.6883 71.1529 87.6155 71.0796 87.5427 71.0063C87.3877 70.8485 87.231 70.6908 87.0724 70.5331C86.9872 70.449 86.9014 70.3651 86.8152 70.2815C86.6644 70.1354 86.5125 69.9905 86.3596 69.847L86.0977 69.6025C85.9335 69.4511 85.7677 69.3021 85.6011 69.153C85.5236 69.0852 85.4462 69.0166 85.3726 68.9496C85.1293 68.7356 84.8837 68.5253 84.6358 68.3187L84.6164 68.3029C84.3742 68.101 84.1296 67.9023 83.8827 67.7067C83.8013 67.642 83.7184 67.5781 83.6363 67.5143C83.4617 67.3781 83.2864 67.2433 83.1103 67.1097C83.015 67.0372 82.9189 66.9662 82.8228 66.8952C82.6539 66.7696 82.484 66.6457 82.313 66.5238C82.2557 66.4828 82.1999 66.4402 82.1418 66.3992L85.2199 68.5781C87.5005 70.1938 89.6073 72.0497 91.5056 74.115C94.2101 77.0579 96.4723 80.3917 98.2189 84.0082L98.1662 83.897L98.1833 83.9324L98.2003 83.9671L98.2344 84.0381C98.2453 84.0586 98.2584 84.087 98.2693 84.1083L98.2863 84.1438L98.3204 84.214L98.3545 84.2842L98.3723 84.3197L98.4064 84.3898L98.4234 84.4253L98.4575 84.4955L98.4746 84.531C98.4854 84.5523 98.4994 84.5799 98.5094 84.6012C101.539 90.8249 103.096 97.9895 102.74 105.624C102.179 117.638 96.987 128.535 89.0434 136.442C81.0997 144.348 70.4049 149.261 58.8447 149.314C57.3417 149.322 55.8395 149.245 54.3449 149.085L53.5763 149.006C53.756 149.026 53.9368 149.044 54.1186 149.06C47.0489 148.397 40.5758 145.906 35.116 142.042L32.0371 139.857Z" fill="#DFE3EB"/>
<path d="M18.7792 123.893C18.8753 124.089 18.9722 124.287 19.0713 124.479L19.1201 124.574C19.2064 124.741 19.2937 124.909 19.382 125.075C19.4083 125.127 19.4355 125.177 19.4595 125.227C19.5628 125.421 19.6661 125.613 19.7694 125.804L19.7926 125.845C19.8918 126.024 19.9933 126.201 20.0956 126.379L20.1831 126.529C20.2862 126.706 20.3907 126.883 20.493 127.058L20.5163 127.096C20.6294 127.283 20.7433 127.468 20.8595 127.649L20.9501 127.793C21.0508 127.951 21.1516 128.108 21.2538 128.266L21.3104 128.353C21.4292 128.534 21.549 128.713 21.6699 128.891L21.7613 129.025C21.8628 129.173 21.9658 129.321 22.0712 129.468L22.1487 129.579C22.2727 129.754 22.3989 129.928 22.5252 130.101C22.5547 130.141 22.5841 130.18 22.6128 130.219C22.7189 130.362 22.8251 130.504 22.9327 130.646L23.0265 130.769C23.1577 130.939 23.2894 131.109 23.4216 131.277L23.4991 131.371C23.6122 131.513 23.7261 131.654 23.8408 131.794L23.9469 131.924C24.0833 132.089 24.2212 132.253 24.3606 132.416L24.411 132.476C24.5365 132.622 24.6636 132.767 24.7906 132.911L24.9037 133.039C25.0471 133.196 25.192 133.361 25.3376 133.52C32.5476 141.359 42.7868 146.183 54.3486 146.132C65.9104 146.082 76.6029 141.164 84.5466 133.259C92.4902 125.354 97.6904 114.46 98.2506 102.445C98.8107 90.4306 94.6324 79.5753 87.4232 71.7357C87.2451 71.5417 87.0638 71.3501 86.8809 71.16L86.7972 71.0725C86.6227 70.8921 86.447 70.7131 86.2704 70.5354L86.1689 70.4345C85.9897 70.2573 85.8089 70.0814 85.6266 69.9069L85.5491 69.8336C85.3647 69.6585 85.1788 69.4842 84.9913 69.3131L84.9618 69.2855C84.7702 69.1109 84.577 68.9387 84.3823 68.7689L84.2847 68.683C84.0962 68.5189 83.9063 68.3567 83.7152 68.1964L83.6075 68.1057C83.4123 67.9443 83.2158 67.784 83.0179 67.6247L82.9482 67.5694C82.7519 67.4117 82.5546 67.2577 82.3563 67.1073L82.3005 67.0647C82.0975 66.907 81.8927 66.7543 81.6861 66.6065L81.5753 66.5277C81.3734 66.381 81.1699 66.2362 80.9648 66.0932L80.8533 66.0143C80.6425 65.8687 80.4302 65.7246 80.2164 65.5821L80.1629 65.5474C79.9527 65.4086 79.7415 65.2719 79.5292 65.1374L79.4517 65.0877C79.2368 64.952 79.0207 64.819 78.8032 64.6886L78.6816 64.6153C78.4667 64.487 78.2506 64.3606 78.0331 64.236L77.92 64.1697C77.693 64.0412 77.466 63.9142 77.2367 63.7904L77.2064 63.7746C76.9813 63.6527 76.7537 63.5331 76.5239 63.4158L76.4263 63.3653C76.2005 63.2502 75.9738 63.1372 75.746 63.0262L75.6166 62.9639C75.3889 62.8546 75.1598 62.7468 74.9294 62.6406L74.821 62.5925C74.5818 62.4837 74.3409 62.3785 74.0981 62.2771L74.0896 62.2731C73.8463 62.169 73.6007 62.0673 73.3551 61.9679L73.2404 61.9214C73.0039 61.8268 72.7668 61.7345 72.5292 61.6446L72.3936 61.5941C72.1534 61.5042 71.9122 61.4167 71.67 61.3315L71.5708 61.2968C71.327 61.2122 71.0822 61.1296 70.8363 61.0492L70.7899 61.0342C70.5394 60.9532 70.2873 60.8744 70.0337 60.7976L69.9051 60.7582C69.6613 60.6835 69.4147 60.6115 69.1652 60.5421L69.0265 60.5042C68.7744 60.4359 68.5211 60.3694 68.2665 60.3047L68.1836 60.2842C67.9325 60.2222 67.6805 60.1623 67.4274 60.1044L67.3499 60.0871C67.0927 60.0287 66.8331 59.9735 66.5751 59.9207L66.4349 59.8923C66.18 59.841 65.9243 59.7929 65.6671 59.7464L65.53 59.7227C65.2681 59.6746 65.0032 59.6328 64.7366 59.5958L64.6754 59.5863C64.4141 59.5469 64.1522 59.5095 63.8898 59.4743L63.7899 59.4609C63.5249 59.427 63.2599 59.3955 62.9934 59.3663L62.9159 59.3568L63.683 59.438C70.3856 60.1426 76.7993 62.5825 82.3129 66.5253C82.4844 66.6473 82.6543 66.7711 82.8227 66.8968C82.9188 66.9677 83.0148 67.0387 83.1101 67.1113C83.2868 67.2443 83.4621 67.3791 83.6362 67.5158C83.7183 67.5797 83.8012 67.6436 83.8826 67.7082C84.129 67.9038 84.3735 68.1026 84.6163 68.3044L84.6357 68.3202C84.8836 68.5279 85.1292 68.7382 85.3725 68.9511C85.4499 69.0181 85.5274 69.0867 85.601 69.1546C85.7676 69.3036 85.9334 69.4527 86.0976 69.6041L86.3595 69.8485C86.5145 69.9921 86.6663 70.1369 86.8151 70.2831C86.9008 70.3667 86.9865 70.4505 87.0723 70.5346C87.2303 70.6924 87.3871 70.8501 87.5426 71.0078C87.6154 71.0812 87.6882 71.1545 87.7603 71.2294C87.9857 71.466 88.2089 71.6978 88.4281 71.9392C95.7062 79.8529 99.9233 90.8139 99.36 102.944C98.7968 115.073 93.5493 126.075 85.5313 134.058C77.5133 142.04 66.7146 147.003 55.0413 147.053C54.8018 147.053 54.5624 147.053 54.3238 147.053H54.1402C53.916 147.049 53.6926 147.044 53.47 147.037H53.4235C53.1872 147.029 52.9517 147.018 52.7162 147.005L52.5364 146.996C52.3257 146.984 52.1155 146.97 51.9058 146.955L51.8229 146.949C51.5905 146.932 51.358 146.912 51.1256 146.891L50.9505 146.875C50.7491 146.855 50.5484 146.835 50.3477 146.812L50.2408 146.801C50.0084 146.775 49.7837 146.746 49.5559 146.716L49.387 146.694C49.1928 146.667 48.9986 146.639 48.8044 146.61L48.6812 146.592C48.455 146.557 48.2301 146.52 48.0064 146.481L47.8468 146.454C47.6578 146.42 47.4679 146.385 47.2797 146.35L47.1425 146.324C46.9202 146.28 46.6994 146.235 46.4786 146.188L46.3283 146.156C46.1428 146.116 45.9579 146.074 45.7735 146.031L45.6263 145.997C45.4078 145.945 45.1901 145.892 44.9732 145.839L44.8361 145.804C44.6532 145.757 44.4696 145.708 44.2875 145.658L44.1326 145.616C43.9172 145.556 43.7026 145.495 43.4888 145.432L43.3679 145.395C43.1851 145.343 43.003 145.287 42.8217 145.227L42.6667 145.178C42.4544 145.11 42.2432 145.04 42.033 144.969L41.9307 144.933C41.7471 144.871 41.565 144.806 41.3829 144.741L41.228 144.685C41.0196 144.606 40.8112 144.531 40.6035 144.448L40.5261 144.418C40.3409 144.347 40.1557 144.273 39.9721 144.198L39.8172 144.135C39.6118 144.051 39.4065 143.966 39.2028 143.878L39.154 143.857C38.9639 143.775 38.7748 143.692 38.5868 143.607L38.4319 143.537C38.2297 143.444 38.0275 143.351 37.8276 143.256L37.8175 143.251C37.6199 143.157 37.4239 143.06 37.2279 142.963L37.0729 142.885C36.8839 142.79 36.6962 142.694 36.5097 142.597L36.4779 142.58C36.2827 142.478 36.0905 142.373 35.8945 142.265L35.7458 142.186C35.5707 142.09 35.3964 141.992 35.2228 141.892L35.1616 141.858C34.971 141.748 34.7817 141.637 34.5937 141.524L34.4504 141.439C34.2861 141.34 34.1219 141.239 33.9592 141.138L33.8755 141.086C33.6901 140.97 33.5062 140.852 33.3239 140.733L33.1875 140.644C33.0326 140.541 32.8776 140.437 32.7226 140.329L32.6274 140.264C32.4468 140.142 32.2679 140.017 32.0904 139.892C29.7915 138.269 27.6681 136.402 25.756 134.323C23.0809 131.41 20.8383 128.116 19.0992 124.544C18.9835 124.309 18.8691 124.074 18.756 123.839C18.7599 123.856 18.7699 123.874 18.7792 123.893Z" fill="#F0F2F7"/>
<path d="M14.5171 102.812C15.0772 90.7974 20.2704 79.9012 28.2141 71.9945C36.1577 64.0879 46.8518 59.174 58.4128 59.1227C59.9427 59.1148 61.4719 59.1938 62.9932 59.3593C63.2597 59.3885 63.5247 59.42 63.7897 59.454L63.8896 59.4674C64.1525 59.5052 64.4131 59.5436 64.6713 59.5825L64.7326 59.592C64.9991 59.633 65.264 59.6779 65.5282 59.7244L65.6654 59.7481C65.9226 59.7946 66.1783 59.8427 66.4332 59.894L66.5734 59.9224C66.8329 59.9752 67.0925 60.0304 67.3482 60.0888L67.4256 60.1061C67.6782 60.1634 67.9303 60.2234 68.1818 60.2859L68.2647 60.3064C68.5199 60.3706 68.7732 60.4371 69.0247 60.506L69.165 60.5422C69.4129 60.6111 69.6595 60.6818 69.9049 60.7544L70.0335 60.7938C70.2866 60.8695 70.5386 60.9484 70.7896 61.0304L70.8361 61.0454C71.0815 61.1258 71.3263 61.2084 71.5706 61.293L71.6698 61.3277C71.912 61.4129 72.1532 61.5004 72.3934 61.5903L72.529 61.6408C72.7666 61.7307 73.0037 61.8229 73.2402 61.9176L73.3549 61.9641C73.6005 62.0635 73.8461 62.1652 74.0894 62.2693L74.0979 62.2732C74.3401 62.3784 74.5811 62.4835 74.8207 62.5887L74.9292 62.6376C75.1591 62.7427 75.3881 62.8505 75.6164 62.9609L75.7458 63.0232C75.9736 63.1342 76.2003 63.2472 76.4261 63.3623L76.5237 63.4128C76.753 63.5306 76.9805 63.6502 77.2062 63.7716L77.2365 63.7874C77.4689 63.9112 77.6928 64.0382 77.9198 64.1667L78.0321 64.2306C78.2501 64.3552 78.4663 64.4816 78.6806 64.6099L78.8022 64.6833C79.0197 64.8142 79.2359 64.9472 79.4507 65.0823L79.5282 65.132C79.7405 65.2666 79.9517 65.4033 80.162 65.5421L80.2154 65.5768C80.4293 65.7187 80.6415 65.8628 80.8523 66.0089L80.9638 66.0878C81.1704 66.2308 81.3739 66.3756 81.5744 66.5223L81.6851 66.6012C81.8917 66.7515 82.0965 66.9043 82.2995 67.0594L82.3553 67.1019C82.5537 67.2544 82.751 67.4084 82.9472 67.5641L83.017 67.6193C83.2153 67.777 83.4118 67.9373 83.6066 68.1003L83.7142 68.191C83.9059 68.3487 84.0957 68.5109 84.2837 68.6776L84.3813 68.7635C84.5755 68.9339 84.7687 69.1061 84.9608 69.2801L84.9903 69.3077C85.1778 69.4788 85.3637 69.6531 85.5481 69.8282L85.6256 69.9015C85.8074 70.0755 85.9882 70.2514 86.1679 70.4291L86.2694 70.53C86.4461 70.7077 86.6217 70.8868 86.7963 71.0671L86.8799 71.1546C87.0612 71.3447 87.2425 71.5363 87.4223 71.7303C94.6276 79.5699 98.8113 90.4252 98.2496 102.44C97.6879 114.454 92.4962 125.351 84.5525 133.257C76.6089 141.164 65.9156 146.079 54.3546 146.131C42.7936 146.182 32.5535 141.358 25.3436 133.518C25.1979 133.361 25.0531 133.199 24.9097 133.037L24.7966 132.909C24.6695 132.765 24.5425 132.62 24.417 132.474L24.3666 132.415C24.2272 132.252 24.0892 132.087 23.9529 131.922L23.8467 131.793C23.7321 131.652 23.6182 131.511 23.5051 131.369L23.4276 131.275C23.2949 131.108 23.1632 130.938 23.0325 130.768L22.9387 130.645C22.831 130.503 22.7249 130.361 22.6188 130.217C22.5901 130.178 22.5606 130.138 22.5312 130.1C22.4049 129.927 22.2786 129.753 22.1547 129.578L22.0772 129.466C21.9741 129.32 21.8711 129.171 21.7673 129.023L21.6759 128.89C21.555 128.712 21.4352 128.532 21.3164 128.351L21.2598 128.265C21.1576 128.107 21.0568 127.949 20.9561 127.791L20.8655 127.647C20.7492 127.463 20.633 127.278 20.5222 127.095L20.499 127.056C20.3936 126.881 20.289 126.705 20.1891 126.528L20.1015 126.377C19.9993 126.2 19.8978 126.023 19.7986 125.843L19.7754 125.802C19.6695 125.612 19.5662 125.419 19.4655 125.226C19.4384 125.176 19.4112 125.125 19.388 125.074C19.2997 124.908 19.2124 124.74 19.1261 124.572L19.0773 124.478C18.9781 124.284 18.8813 124.088 18.7852 123.892C15.728 117.658 14.1568 110.472 14.5171 102.812ZM54.5576 142.512C75.9147 142.512 94.0349 124.543 95.0289 102.377C96.0229 80.2103 79.5135 62.2425 58.1564 62.2425C36.7992 62.2425 18.6775 80.2111 17.6835 102.377C16.6895 124.542 33.1981 142.512 54.5576 142.512Z" fill="white"/>
<path d="M54.5579 142.511C75.915 142.511 94.0352 124.543 95.0292 102.376C96.0224 80.2109 79.5161 62.2423 58.1567 62.2423C36.7972 62.2423 18.6778 80.2101 17.6838 102.376C16.6898 124.543 33.2008 142.511 54.5579 142.511Z" fill="white"/>
<g clip-path="url(#clip8_3140_178876)">
<path d="M55.1098 142.51C76.7837 141.368 94.7951 122.552 95.3393 100.483C95.8835 78.4149 78.7545 61.4503 57.0806 62.5921C35.4066 63.7339 17.3952 82.5497 16.851 104.618C16.3068 126.687 33.4358 143.651 55.1098 142.51Z" fill="#FF9B22"/>
<path d="M73.8501 96.6771C74.7493 91.4019 70.9017 88.7937 65.5961 87.1975L67.5075 80.0134L63.2956 79.1628L61.4329 86.1573C60.3264 85.9313 59.19 85.7267 58.0559 85.5221L59.932 78.482L55.7202 77.6289L53.8088 84.8105C52.8918 84.6443 51.9895 84.4824 51.117 84.3039L51.1224 84.2811L45.3117 83.1032L44.0697 87.7729C44.0697 87.7729 47.1985 88.3413 47.1312 88.3898C48.8373 88.7364 49.1179 89.8764 49.0437 90.7982L43.8087 110.476C43.5847 111.017 43.0328 111.841 41.8384 111.603C41.881 111.663 38.777 110.983 38.777 110.983L36.5507 116.034L42.0349 117.144C43.0537 117.352 44.0525 117.574 45.0347 117.779L43.1041 125.044L47.3135 125.895L49.225 118.711C50.3748 118.967 51.4909 119.203 52.5829 119.424L50.6771 126.578L54.8889 127.429L56.8192 120.179C64.0155 121.192 69.4647 120.343 71.9173 113.565C73.894 108.108 72.035 105.116 68.2805 103.301C71.0681 102.505 73.1987 100.54 73.8501 96.6771ZM63.8206 111.018C62.381 116.449 53.5858 114.017 50.7291 113.441L53.2936 103.816C56.1502 104.396 65.3295 105.357 63.8206 111.018ZM65.4758 97.0409C64.161 101.981 56.8443 99.89 54.4678 99.4091L56.7897 90.6819C59.1661 91.1628 66.8472 91.888 65.4758 97.0409Z" fill="white"/>
</g>
<g filter="url(#filter10_b_3140_178876)">
<rect x="15.0059" y="121.808" width="12.8613" height="12.8846" rx="6.43066" fill="#05183D" fill-opacity="0.25"/>
</g>
<g style="mix-blend-mode:hard-light" filter="url(#filter11_b_3140_178876)">
<rect x="15.0059" y="121.808" width="12.8613" height="12.8846" rx="6.43066" fill="white" fill-opacity="0.25"/>
<g style="mix-blend-mode:multiply" opacity="0.75" clip-path="url(#clip9_3140_178876)">
<path fill-rule="evenodd" clip-rule="evenodd" d="M20.6324 126.505C20.6324 127.024 20.2126 127.445 19.6946 127.445C19.1767 127.445 18.7568 127.024 18.7568 126.505C18.7568 125.986 19.1767 125.566 19.6946 125.566C20.2126 125.566 20.6324 125.986 20.6324 126.505Z" fill="#121D33"/>
<path fill-rule="evenodd" clip-rule="evenodd" d="M24.1157 129.995C24.1157 130.514 23.6958 130.934 23.1779 130.934C22.66 130.934 22.2401 130.514 22.2401 129.995C22.2401 129.476 22.66 129.055 23.1779 129.055C23.6958 129.055 24.1157 129.476 24.1157 129.995Z" fill="#121D33"/>
<path fill-rule="evenodd" clip-rule="evenodd" d="M23.852 126.115L23.5678 125.83C23.3323 125.594 22.9506 125.594 22.7152 125.83L19.0206 129.531C18.7852 129.767 18.7852 130.149 19.0206 130.385L19.3048 130.67C19.5402 130.906 19.9219 130.906 20.1574 130.67L23.852 126.969C24.0874 126.733 24.0874 126.35 23.852 126.115Z" fill="#121D33"/>
</g>
<rect x="14.9635" y="121.765" width="12.9461" height="12.9694" rx="6.47306" stroke="#B8B9BD" stroke-width="0.0848101"/>
</g>
</g>
<g filter="url(#filter12_b_3140_178876)">
<rect x="84.457" y="106.346" width="23.1504" height="23.1923" rx="11.5752" fill="#05183D" fill-opacity="0.25"/>
</g>
<g style="mix-blend-mode:hard-light" filter="url(#filter13_b_3140_178876)">
<rect x="84.457" y="106.346" width="23.1504" height="23.1923" rx="11.5752" fill="white" fill-opacity="0.25"/>
<g style="mix-blend-mode:multiply" opacity="0.75">
<path fill-rule="evenodd" clip-rule="evenodd" d="M94.5851 114.802C94.5851 115.736 93.8293 116.493 92.897 116.493C91.9647 116.493 91.209 115.736 91.209 114.802C91.209 113.868 91.9647 113.111 92.897 113.111C93.8293 113.111 94.5851 113.868 94.5851 114.802Z" fill="#121D33"/>
<path fill-rule="evenodd" clip-rule="evenodd" d="M100.855 121.083C100.855 122.017 100.099 122.774 99.1669 122.774C98.2346 122.774 97.4789 122.017 97.4789 121.083C97.4789 120.149 98.2346 119.392 99.1669 119.392C100.099 119.392 100.855 120.149 100.855 121.083Z" fill="#121D33"/>
<path fill-rule="evenodd" clip-rule="evenodd" d="M100.38 114.099L99.8686 113.586C99.4449 113.162 98.7578 113.162 98.334 113.586L91.6838 120.248C91.26 120.673 91.26 121.361 91.6838 121.786L92.1953 122.298C92.6191 122.723 93.3062 122.723 93.73 122.298L100.38 115.636C100.804 115.212 100.804 114.523 100.38 114.099Z" fill="#121D33"/>
</g>
<rect x="84.4146" y="106.304" width="23.2352" height="23.2771" rx="11.6176" stroke="#B8B9BD" stroke-width="0.0848101"/>
</g>
<g filter="url(#filter14_b_3140_178876)">
<rect x="210.069" y="5.06323" width="15.2658" height="15.2658" rx="7.63291" fill="#05183D" fill-opacity="0.25"/>
</g>
<g style="mix-blend-mode:hard-light" filter="url(#filter15_b_3140_178876)">
<rect x="210.069" y="5.06323" width="15.2658" height="15.2658" rx="7.63291" fill="white" fill-opacity="0.25"/>
<g style="mix-blend-mode:multiply" opacity="0.75">
<path fill-rule="evenodd" clip-rule="evenodd" d="M216.748 10.629C216.748 11.2438 216.25 11.7421 215.635 11.7421C215.02 11.7421 214.522 11.2438 214.522 10.629C214.522 10.0142 215.02 9.51587 215.635 9.51587C216.25 9.51587 216.748 10.0142 216.748 10.629Z" fill="#121D33"/>
<path fill-rule="evenodd" clip-rule="evenodd" d="M220.882 14.7635C220.882 15.3783 220.384 15.8766 219.769 15.8766C219.155 15.8766 218.656 15.3783 218.656 14.7635C218.656 14.1487 219.155 13.6504 219.769 13.6504C220.384 13.6504 220.882 14.1487 220.882 14.7635Z" fill="#121D33"/>
<path fill-rule="evenodd" clip-rule="evenodd" d="M220.569 10.1662L220.232 9.82891C219.953 9.54946 219.5 9.54946 219.22 9.82891L214.835 14.2142C214.555 14.4937 214.555 14.9467 214.835 15.2262L215.172 15.5635C215.452 15.843 215.905 15.843 216.184 15.5635L220.569 11.1782C220.849 10.8988 220.849 10.4457 220.569 10.1662Z" fill="#121D33"/>
</g>
<rect x="210.027" y="5.02083" width="15.3506" height="15.3506" rx="7.67532" stroke="#B8B9BD" stroke-width="0.0848101"/>
</g>
<defs>
<filter id="filter0_d_3140_178876" x="147.321" y="0.702912" width="115.462" height="117.332" filterUnits="userSpaceOnUse" color-interpolation-filters="sRGB">
<feFlood flood-opacity="0" result="BackgroundImageFix"/>
<feColorMatrix in="SourceAlpha" type="matrix" values="0 0 0 0 0 0 0 0 0 0 0 0 0 0 0 0 0 0 127 0" result="hardAlpha"/>
<feOffset dy="3.39241"/>
<feGaussianBlur stdDeviation="6.78481"/>
<feColorMatrix type="matrix" values="0 0 0 0 0.0196078 0 0 0 0 0.0941176 0 0 0 0 0.239216 0 0 0 0.15 0"/>
<feBlend mode="normal" in2="BackgroundImageFix" result="effect1_dropShadow_3140_178876"/>
<feBlend mode="normal" in="SourceGraphic" in2="effect1_dropShadow_3140_178876" result="shape"/>
</filter>
<filter id="filter1_b_3140_178876" x="181.803" y="54.7595" width="24.481" height="24.481" filterUnits="userSpaceOnUse" color-interpolation-filters="sRGB">
<feFlood flood-opacity="0" result="BackgroundImageFix"/>
<feGaussianBlur in="BackgroundImageFix" stdDeviation="2.12025"/>
<feComposite in2="SourceAlpha" operator="in" result="effect1_backgroundBlur_3140_178876"/>
<feBlend mode="normal" in="SourceGraphic" in2="effect1_backgroundBlur_3140_178876" result="shape"/>
</filter>
<filter id="filter2_b_3140_178876" x="172.39" y="45.3455" width="43.3087" height="43.3089" filterUnits="userSpaceOnUse" color-interpolation-filters="sRGB">
<feFlood flood-opacity="0" result="BackgroundImageFix"/>
<feGaussianBlur in="BackgroundImageFix" stdDeviation="6.78481"/>
<feComposite in2="SourceAlpha" operator="in" result="effect1_backgroundBlur_3140_178876"/>
<feBlend mode="normal" in="SourceGraphic" in2="effect1_backgroundBlur_3140_178876" result="shape"/>
</filter>
<filter id="filter3_d_3140_178876" x="94.5432" y="33.2141" width="115.462" height="117.332" filterUnits="userSpaceOnUse" color-interpolation-filters="sRGB">
<feFlood flood-opacity="0" result="BackgroundImageFix"/>
<feColorMatrix in="SourceAlpha" type="matrix" values="0 0 0 0 0 0 0 0 0 0 0 0 0 0 0 0 0 0 127 0" result="hardAlpha"/>
<feOffset dy="3.39241"/>
<feGaussianBlur stdDeviation="6.78481"/>
<feColorMatrix type="matrix" values="0 0 0 0 0.0196078 0 0 0 0 0.0941176 0 0 0 0 0.239216 0 0 0 0.15 0"/>
<feBlend mode="normal" in2="BackgroundImageFix" result="effect1_dropShadow_3140_178876"/>
<feBlend mode="normal" in="SourceGraphic" in2="effect1_dropShadow_3140_178876" result="shape"/>
</filter>
<filter id="filter4_b_3140_178876" x="137.803" y="55.7595" width="23.9146" height="23.9426" filterUnits="userSpaceOnUse" color-interpolation-filters="sRGB">
<feFlood flood-opacity="0" result="BackgroundImageFix"/>
<feGaussianBlur in="BackgroundImageFix" stdDeviation="2.12025"/>
<feComposite in2="SourceAlpha" operator="in" result="effect1_backgroundBlur_3140_178876"/>
<feBlend mode="normal" in="SourceGraphic" in2="effect1_backgroundBlur_3140_178876" result="shape"/>
</filter>
<filter id="filter5_b_3140_178876" x="128.39" y="46.3455" width="42.7423" height="42.7705" filterUnits="userSpaceOnUse" color-interpolation-filters="sRGB">
<feFlood flood-opacity="0" result="BackgroundImageFix"/>
<feGaussianBlur in="BackgroundImageFix" stdDeviation="6.78481"/>
<feComposite in2="SourceAlpha" operator="in" result="effect1_backgroundBlur_3140_178876"/>
<feBlend mode="normal" in="SourceGraphic" in2="effect1_backgroundBlur_3140_178876" result="shape"/>
</filter>
<filter id="filter6_d_3140_178876" x="45.674" y="22.7266" width="115.462" height="117.332" filterUnits="userSpaceOnUse" color-interpolation-filters="sRGB">
<feFlood flood-opacity="0" result="BackgroundImageFix"/>
<feColorMatrix in="SourceAlpha" type="matrix" values="0 0 0 0 0 0 0 0 0 0 0 0 0 0 0 0 0 0 127 0" result="hardAlpha"/>
<feOffset dy="3.39241"/>
<feGaussianBlur stdDeviation="6.78481"/>
<feColorMatrix type="matrix" values="0 0 0 0 0.0196078 0 0 0 0 0.0941176 0 0 0 0 0.239216 0 0 0 0.15 0"/>
<feBlend mode="normal" in2="BackgroundImageFix" result="effect1_dropShadow_3140_178876"/>
<feBlend mode="normal" in="SourceGraphic" in2="effect1_dropShadow_3140_178876" result="shape"/>
</filter>
<filter id="filter7_b_3140_178876" x="56.8034" y="38.7595" width="31.6314" height="31.6733" filterUnits="userSpaceOnUse" color-interpolation-filters="sRGB">
<feFlood flood-opacity="0" result="BackgroundImageFix"/>
<feGaussianBlur in="BackgroundImageFix" stdDeviation="2.12025"/>
<feComposite in2="SourceAlpha" operator="in" result="effect1_backgroundBlur_3140_178876"/>
<feBlend mode="normal" in="SourceGraphic" in2="effect1_backgroundBlur_3140_178876" result="shape"/>
</filter>
<filter id="filter8_b_3140_178876" x="47.3894" y="29.3455" width="50.4596" height="50.5012" filterUnits="userSpaceOnUse" color-interpolation-filters="sRGB">
<feFlood flood-opacity="0" result="BackgroundImageFix"/>
<feGaussianBlur in="BackgroundImageFix" stdDeviation="6.78481"/>
<feComposite in2="SourceAlpha" operator="in" result="effect1_backgroundBlur_3140_178876"/>
<feBlend mode="normal" in="SourceGraphic" in2="effect1_backgroundBlur_3140_178876" result="shape"/>
</filter>
<filter id="filter9_d_3140_178876" x="0.897665" y="48.9453" width="115.462" height="117.332" filterUnits="userSpaceOnUse" color-interpolation-filters="sRGB">
<feFlood flood-opacity="0" result="BackgroundImageFix"/>
<feColorMatrix in="SourceAlpha" type="matrix" values="0 0 0 0 0 0 0 0 0 0 0 0 0 0 0 0 0 0 127 0" result="hardAlpha"/>
<feOffset dy="3.39241"/>
<feGaussianBlur stdDeviation="6.78481"/>
<feColorMatrix type="matrix" values="0 0 0 0 0.0196078 0 0 0 0 0.0941176 0 0 0 0 0.239216 0 0 0 0.15 0"/>
<feBlend mode="normal" in2="BackgroundImageFix" result="effect1_dropShadow_3140_178876"/>
<feBlend mode="normal" in="SourceGraphic" in2="effect1_dropShadow_3140_178876" result="shape"/>
</filter>
<filter id="filter10_b_3140_178876" x="10.7654" y="117.567" width="21.3423" height="21.3657" filterUnits="userSpaceOnUse" color-interpolation-filters="sRGB">
<feFlood flood-opacity="0" result="BackgroundImageFix"/>
<feGaussianBlur in="BackgroundImageFix" stdDeviation="2.12025"/>
<feComposite in2="SourceAlpha" operator="in" result="effect1_backgroundBlur_3140_178876"/>
<feBlend mode="normal" in="SourceGraphic" in2="effect1_backgroundBlur_3140_178876" result="shape"/>
</filter>
<filter id="filter11_b_3140_178876" x="1.35128" y="108.153" width="40.1705" height="40.1936" filterUnits="userSpaceOnUse" color-interpolation-filters="sRGB">
<feFlood flood-opacity="0" result="BackgroundImageFix"/>
<feGaussianBlur in="BackgroundImageFix" stdDeviation="6.78481"/>
<feComposite in2="SourceAlpha" operator="in" result="effect1_backgroundBlur_3140_178876"/>
<feBlend mode="normal" in="SourceGraphic" in2="effect1_backgroundBlur_3140_178876" result="shape"/>
</filter>
<filter id="filter12_b_3140_178876" x="80.2165" y="102.106" width="31.6314" height="31.6733" filterUnits="userSpaceOnUse" color-interpolation-filters="sRGB">
<feFlood flood-opacity="0" result="BackgroundImageFix"/>
<feGaussianBlur in="BackgroundImageFix" stdDeviation="2.12025"/>
<feComposite in2="SourceAlpha" operator="in" result="effect1_backgroundBlur_3140_178876"/>
<feBlend mode="normal" in="SourceGraphic" in2="effect1_backgroundBlur_3140_178876" result="shape"/>
</filter>
<filter id="filter13_b_3140_178876" x="70.8025" y="92.6917" width="50.4593" height="50.5012" filterUnits="userSpaceOnUse" color-interpolation-filters="sRGB">
<feFlood flood-opacity="0" result="BackgroundImageFix"/>
<feGaussianBlur in="BackgroundImageFix" stdDeviation="6.78481"/>
<feComposite in2="SourceAlpha" operator="in" result="effect1_backgroundBlur_3140_178876"/>
<feBlend mode="normal" in="SourceGraphic" in2="effect1_backgroundBlur_3140_178876" result="shape"/>
</filter>
<filter id="filter14_b_3140_178876" x="205.829" y="0.822726" width="23.7469" height="23.7469" filterUnits="userSpaceOnUse" color-interpolation-filters="sRGB">
<feFlood flood-opacity="0" result="BackgroundImageFix"/>
<feGaussianBlur in="BackgroundImageFix" stdDeviation="2.12025"/>
<feComposite in2="SourceAlpha" operator="in" result="effect1_backgroundBlur_3140_178876"/>
<feBlend mode="normal" in="SourceGraphic" in2="effect1_backgroundBlur_3140_178876" result="shape"/>
</filter>
<filter id="filter15_b_3140_178876" x="196.415" y="-8.59123" width="42.5745" height="42.5747" filterUnits="userSpaceOnUse" color-interpolation-filters="sRGB">
<feFlood flood-opacity="0" result="BackgroundImageFix"/>
<feGaussianBlur in="BackgroundImageFix" stdDeviation="6.78481"/>
<feComposite in2="SourceAlpha" operator="in" result="effect1_backgroundBlur_3140_178876"/>
<feBlend mode="normal" in="SourceGraphic" in2="effect1_backgroundBlur_3140_178876" result="shape"/>
</filter>
<radialGradient id="paint0_radial_3140_178876" cx="0" cy="0" r="1" gradientUnits="userSpaceOnUse" gradientTransform="translate(182.612 45.181) rotate(176.984) scale(100.703 51.121)">
<stop stop-color="#FFCAE3"/>
<stop offset="1" stop-color="#F3F5F7"/>
</radialGradient>
<clipPath id="clip0_3140_178876">
<rect width="88.323" height="90.1923" fill="white" transform="matrix(-1 0 0 1 249.213 10.8801)"/>
</clipPath>
<clipPath id="clip1_3140_178876">
<rect width="78.5971" height="79.9417" fill="white" transform="matrix(0.998615 -0.0526078 -0.0246528 0.999696 164.26 16.417)"/>
</clipPath>
<clipPath id="clip2_3140_178876">
<rect width="8" height="8" fill="white" transform="translate(190.044 63.0001)"/>
</clipPath>
<clipPath id="clip3_3140_178876">
<rect width="88.323" height="90.1923" fill="white" transform="matrix(-1 0 0 1 196.436 43.3914)"/>
</clipPath>
<clipPath id="clip4_3140_178876">
<rect width="78.5971" height="79.9417" fill="white" transform="matrix(0.998615 -0.0526078 -0.0246528 0.999696 111.482 48.9282)"/>
</clipPath>
<clipPath id="clip5_3140_178876">
<rect width="88.323" height="90.1923" fill="white" transform="matrix(-1 0 0 1 147.566 32.9038)"/>
</clipPath>
<clipPath id="clip6_3140_178876">
<rect width="78.5971" height="79.9417" fill="white" transform="matrix(0.998615 -0.0526078 -0.0246528 0.999696 62.6128 38.4407)"/>
</clipPath>
<clipPath id="clip7_3140_178876">
<rect width="88.323" height="90.1923" fill="white" transform="matrix(-1 0 0 1 102.79 59.1226)"/>
</clipPath>
<clipPath id="clip8_3140_178876">
<rect width="78.5971" height="79.9417" fill="white" transform="matrix(0.998615 -0.0526078 -0.0246528 0.999696 17.8364 64.6595)"/>
</clipPath>
<clipPath id="clip9_3140_178876">
<rect width="6.43066" height="6.44231" fill="white" transform="translate(18.2212 125.029)"/>
</clipPath>
</defs>
</svg>
