<svg width="544" height="284" viewBox="0 0 544 284" fill="none" xmlns="http://www.w3.org/2000/svg">
<rect width="544" height="284" rx="24" fill="#F0F2F7"/>
<path d="M16.5568 127.864H19.7038V136.5H21.5334V127.864H24.6804V126.318H16.5568V127.864ZM25.3739 136.5H27.1737V132.011C27.1737 131.041 27.9045 130.355 28.8938 130.355C29.1971 130.355 29.5749 130.41 29.729 130.46V128.804C29.565 128.774 29.2816 128.754 29.0827 128.754C28.2077 128.754 27.4769 129.251 27.1985 130.136H27.119V128.864H25.3739V136.5ZM30.9247 136.5H32.7244V128.864H30.9247V136.5ZM31.8295 127.78C32.4013 127.78 32.8686 127.342 32.8686 126.805C32.8686 126.263 32.4013 125.826 31.8295 125.826C31.2528 125.826 30.7855 126.263 30.7855 126.805C30.7855 127.342 31.2528 127.78 31.8295 127.78ZM37.8961 139.523C39.9593 139.523 41.4806 138.578 41.4806 136.624V128.864H39.7058V130.126H39.6064C39.3329 129.575 38.7612 128.764 37.4139 128.764C35.649 128.764 34.2619 130.146 34.2619 132.657C34.2619 135.148 35.649 136.391 37.4089 136.391C38.7164 136.391 39.3279 135.69 39.6064 135.128H39.6958V136.575C39.6958 137.698 38.9501 138.161 37.926 138.161C36.8422 138.161 36.3649 137.648 36.1461 137.201L34.5254 137.594C34.8535 138.663 35.9522 139.523 37.8961 139.523ZM37.911 134.979C36.7228 134.979 36.0964 134.054 36.0964 132.647C36.0964 131.26 36.7129 130.241 37.911 130.241C39.0694 130.241 39.7058 131.2 39.7058 132.647C39.7058 134.104 39.0595 134.979 37.911 134.979ZM46.6461 139.523C48.7093 139.523 50.2306 138.578 50.2306 136.624V128.864H48.4558V130.126H48.3564C48.0829 129.575 47.5112 128.764 46.1639 128.764C44.399 128.764 43.0119 130.146 43.0119 132.657C43.0119 135.148 44.399 136.391 46.1589 136.391C47.4664 136.391 48.0779 135.69 48.3564 135.128H48.4458V136.575C48.4458 137.698 47.7001 138.161 46.676 138.161C45.5922 138.161 45.1149 137.648 44.8961 137.201L43.2754 137.594C43.6035 138.663 44.7022 139.523 46.6461 139.523ZM46.661 134.979C45.4728 134.979 44.8464 134.054 44.8464 132.647C44.8464 131.26 45.4629 130.241 46.661 130.241C47.8194 130.241 48.4558 131.2 48.4558 132.647C48.4558 134.104 47.8095 134.979 46.661 134.979ZM55.4558 136.649C57.2356 136.649 58.4586 135.779 58.7768 134.452L57.0964 134.263C56.8528 134.909 56.2562 135.247 55.4806 135.247C54.3173 135.247 53.5467 134.482 53.5318 133.174H58.8514V132.622C58.8514 129.942 57.2406 128.764 55.3613 128.764C53.1738 128.764 51.747 130.37 51.747 132.727C51.747 135.123 53.1539 136.649 55.4558 136.649ZM53.5368 131.961C53.5914 130.987 54.3123 130.166 55.3862 130.166C56.4203 130.166 57.1163 130.922 57.1262 131.961H53.5368ZM60.3739 136.5H62.1737V132.011C62.1737 131.041 62.9045 130.355 63.8938 130.355C64.1971 130.355 64.5749 130.41 64.729 130.46V128.804C64.565 128.774 64.2816 128.754 64.0827 128.754C63.2077 128.754 62.4769 129.251 62.1985 130.136H62.119V128.864H60.3739V136.5ZM69.3974 139.364H71.1971V135.297H71.2717C71.555 135.854 72.1467 136.634 73.4592 136.634C75.2589 136.634 76.6062 135.207 76.6062 132.692C76.6062 130.146 75.2191 128.764 73.4542 128.764C72.1069 128.764 71.5451 129.575 71.2717 130.126H71.1673V128.864H69.3974V139.364ZM71.1623 132.682C71.1623 131.2 71.7987 130.241 72.957 130.241C74.1552 130.241 74.7717 131.26 74.7717 132.682C74.7717 134.114 74.1452 135.158 72.957 135.158C71.8086 135.158 71.1623 134.163 71.1623 132.682ZM78.1474 136.5H79.9471V132.011C79.9471 131.041 80.6779 130.355 81.6673 130.355C81.9705 130.355 82.3484 130.41 82.5025 130.46V128.804C82.3384 128.774 82.055 128.754 81.8562 128.754C80.9812 128.754 80.2504 129.251 79.9719 130.136H79.8924V128.864H78.1474V136.5ZM83.6982 136.5H85.4979V128.864H83.6982V136.5ZM84.603 127.78C85.1747 127.78 85.642 127.342 85.642 126.805C85.642 126.263 85.1747 125.826 84.603 125.826C84.0263 125.826 83.5589 126.263 83.5589 126.805C83.5589 127.342 84.0263 127.78 84.603 127.78ZM90.6795 136.649C92.5985 136.649 93.8216 135.511 93.9508 133.89H92.2306C92.0765 134.71 91.4849 135.183 90.6944 135.183C89.5708 135.183 88.845 134.243 88.845 132.682C88.845 131.141 89.5858 130.216 90.6944 130.216C91.5595 130.216 92.0914 130.773 92.2306 131.509H93.9508C93.8265 129.853 92.5339 128.764 90.6696 128.764C88.4324 128.764 87.0204 130.38 87.0204 132.712C87.0204 135.023 88.3975 136.649 90.6795 136.649ZM98.8093 136.649C100.589 136.649 101.812 135.779 102.13 134.452L100.45 134.263C100.206 134.909 99.6097 135.247 98.8342 135.247C97.6708 135.247 96.9002 134.482 96.8853 133.174H102.205V132.622C102.205 129.942 100.594 128.764 98.7148 128.764C96.5273 128.764 95.1005 130.37 95.1005 132.727C95.1005 135.123 96.5075 136.649 98.8093 136.649ZM96.8903 131.961C96.945 130.987 97.6658 130.166 98.7397 130.166C99.7738 130.166 100.47 130.922 100.48 131.961H96.8903Z" fill="#121D33"/>
<path d="M19.5327 159.591H20.2315V158.632C22.0639 158.517 23.108 157.482 23.108 156.088C23.108 154.516 21.706 153.906 20.598 153.634L20.2315 153.54V150.808C21.0625 150.898 21.6335 151.349 21.7188 152.065H22.9886C22.9503 150.744 21.8466 149.768 20.2315 149.662V148.682H19.5327V149.67C17.9858 149.815 16.848 150.774 16.848 152.159C16.848 153.374 17.7173 154.085 19.1193 154.464L19.5327 154.575V157.473C18.6761 157.384 18.0028 156.932 17.9347 156.088H16.6136C16.6946 157.575 17.777 158.526 19.5327 158.636V159.591ZM20.2315 157.469V154.767C21.1264 155.01 21.804 155.321 21.804 156.075C21.804 156.834 21.1605 157.362 20.2315 157.469ZM19.5327 153.352C18.8892 153.169 18.1562 152.832 18.1605 152.082C18.1605 151.43 18.6804 150.932 19.5327 150.817V153.352ZM24.5621 158.5H30.3065V157.371H26.3775V157.307L28.1119 155.491C29.7099 153.876 30.1658 153.105 30.1658 152.129C30.1658 150.727 29.0238 149.653 27.3789 149.653C25.7468 149.653 24.5536 150.71 24.5536 152.304H25.8107C25.8065 151.366 26.4116 150.753 27.3533 150.753C28.2397 150.753 28.913 151.298 28.913 152.168C28.913 152.939 28.4528 153.493 27.5153 154.486L24.5621 157.545V158.5ZM31.9215 158.5H37.6658V157.371H33.7369V157.307L35.4712 155.491C37.0692 153.876 37.5252 153.105 37.5252 152.129C37.5252 150.727 36.3832 149.653 34.7383 149.653C33.1062 149.653 31.913 150.71 31.913 152.304H33.1701C33.1658 151.366 33.771 150.753 34.7127 150.753C35.5991 150.753 36.2724 151.298 36.2724 152.168C36.2724 152.939 35.8121 153.493 34.8746 154.486L31.9215 157.545V158.5ZM40.9556 157.307H39.7283L39.6857 157.784C39.5877 158.939 39.315 160.102 39.1999 160.631H40.1033C40.3079 160.072 40.7596 158.794 40.8917 157.771L40.9556 157.307ZM45.4482 158.641C47.4638 158.641 48.6442 156.996 48.6442 154.136C48.6442 151.298 47.4467 149.649 45.4482 149.649C43.4453 149.649 42.2521 151.294 42.2479 154.136C42.2479 156.991 43.4283 158.636 45.4482 158.641ZM45.4482 157.503C45.0263 157.503 44.6641 157.354 44.3743 157.06L46.9567 151.882C47.2038 152.44 47.3359 153.199 47.3359 154.136C47.3359 156.318 46.6243 157.503 45.4482 157.503ZM46.4964 151.192L43.9268 156.369C43.6839 155.815 43.5561 155.065 43.5561 154.136C43.5604 151.963 44.272 150.766 45.4482 150.766C45.8572 150.766 46.2109 150.911 46.4964 151.192ZM53.1942 158.641C55.2099 158.641 56.3903 156.996 56.3903 154.136C56.3903 151.298 55.1928 149.649 53.1942 149.649C51.1914 149.649 49.9982 151.294 49.994 154.136C49.994 156.991 51.1744 158.636 53.1942 158.641ZM53.1942 157.503C52.7724 157.503 52.4102 157.354 52.1204 157.06L54.7028 151.882C54.9499 152.44 55.082 153.199 55.082 154.136C55.082 156.318 54.3704 157.503 53.1942 157.503ZM54.2425 151.192L51.6729 156.369C51.43 155.815 51.3022 155.065 51.3022 154.136C51.3065 151.963 52.0181 150.766 53.1942 150.766C53.6033 150.766 53.957 150.911 54.2425 151.192ZM60.9403 158.641C62.956 158.641 64.1364 156.996 64.1364 154.136C64.1364 151.298 62.9389 149.649 60.9403 149.649C58.9375 149.649 57.7443 151.294 57.7401 154.136C57.7401 156.991 58.9205 158.636 60.9403 158.641ZM60.9403 157.503C60.5185 157.503 60.1562 157.354 59.8665 157.06L62.4489 151.882C62.696 152.44 62.8281 153.199 62.8281 154.136C62.8281 156.318 62.1165 157.503 60.9403 157.503ZM61.9886 151.192L59.419 156.369C59.1761 155.815 59.0483 155.065 59.0483 154.136C59.0526 151.963 59.7642 150.766 60.9403 150.766C61.3494 150.766 61.7031 150.911 61.9886 151.192Z" fill="#677184"/>
<path d="M111 182.083L120.972 202.903C122.485 206.061 126.505 207.051 129.312 204.957L130.958 203.729C132.36 202.683 134.331 202.894 135.48 204.213V204.213C137.248 206.242 140.566 205.458 141.24 202.853L147.494 178.66C147.991 176.736 148.832 174.917 149.976 173.292L154.881 166.321C156.876 163.486 160.542 162.368 163.78 163.607V163.607C167.622 165.076 171.934 163.211 173.494 159.405L184.77 131.881C186.478 127.713 191.273 125.759 195.407 127.547V127.547C197.597 128.494 200.094 128.42 202.224 127.346L210.544 123.148C216.124 120.332 222.924 122.792 225.41 128.527L229.308 137.519C230.506 140.281 234.116 140.956 236.23 138.814V138.814C238.278 136.74 241.757 137.295 243.057 139.904L246.678 147.171C248.091 150.007 251.81 150.731 254.183 148.632V148.632C255.666 147.321 257.801 147.05 259.565 147.95L263.883 150.152C266.851 151.667 270.482 150.767 272.399 148.042V148.042C274.317 145.316 277.947 144.417 280.916 145.931L286.128 148.59C290.719 150.932 296.34 149.206 298.826 144.692L299.88 142.778C302.222 138.525 307.854 137.452 311.592 140.551V140.551C315.303 143.628 320.898 142.6 323.27 138.403L341.056 106.922C347.363 95.7595 362.857 94.2864 371.155 104.061L371.548 104.523C371.981 105.035 372.459 105.507 372.976 105.935L378.68 110.664C380.38 112.073 382.898 111.849 384.322 110.162V110.162C386.231 107.902 389.843 108.405 391.063 111.1L391.746 112.611C393.021 115.429 396.501 116.459 399.105 114.788L402.416 112.663C406.121 110.286 411.029 111.142 413.709 114.634L422.173 125.659C425.357 129.807 431.776 129.228 434.166 124.576L438.828 115.502C439.343 114.5 440.757 114.452 441.338 115.416V115.416C441.959 116.445 443.493 116.304 443.915 115.179L451.393 95.2684C454.59 86.7574 465.831 84.9545 471.529 92.0391L472 92.625" stroke="#0C6CF2" stroke-width="4" stroke-linecap="round"/>
<line x1="166.5" y1="168" x2="166.5" y2="252" stroke="#65A5FF"/>
<path d="M147.856 260.636C147.856 257.845 146.186 256.153 143.927 256.153C141.66 256.153 139.994 257.845 139.994 260.636C139.994 263.423 141.66 265.119 143.927 265.119C146.186 265.119 147.856 263.428 147.856 260.636ZM146.552 260.636C146.552 262.763 145.427 263.918 143.927 263.918C142.423 263.918 141.302 262.763 141.302 260.636C141.302 258.51 142.423 257.355 143.927 257.355C145.427 257.355 146.552 258.51 146.552 260.636ZM149.396 267.455H150.67V263.982H150.746C150.977 264.399 151.445 265.128 152.638 265.128C154.224 265.128 155.374 263.858 155.374 261.74C155.374 259.618 154.207 258.369 152.626 258.369C151.411 258.369 150.972 259.111 150.746 259.516H150.64V258.455H149.396V267.455ZM150.644 261.727C150.644 260.359 151.241 259.452 152.353 259.452C153.508 259.452 154.087 260.428 154.087 261.727C154.087 263.04 153.491 264.041 152.353 264.041C151.258 264.041 150.644 263.104 150.644 261.727ZM159.623 265.132C161.05 265.132 162.06 264.429 162.35 263.364L161.144 263.146C160.914 263.764 160.36 264.08 159.636 264.08C158.545 264.08 157.812 263.372 157.778 262.111H162.431V261.659C162.431 259.294 161.016 258.369 159.533 258.369C157.71 258.369 156.508 259.759 156.508 261.77C156.508 263.803 157.692 265.132 159.623 265.132ZM157.782 261.156C157.833 260.227 158.506 259.422 159.542 259.422C160.531 259.422 161.178 260.155 161.183 261.156H157.782ZM165.119 261.114C165.119 260.07 165.758 259.473 166.645 259.473C167.51 259.473 168.034 260.04 168.034 260.99V265H169.308V260.837C169.308 259.217 168.417 258.369 167.079 258.369C166.095 258.369 165.451 258.825 165.149 259.52H165.068V258.455H163.845V265H165.119V261.114ZM171.017 265H172.291V258.455H171.017V265ZM171.66 257.445C172.099 257.445 172.466 257.104 172.466 256.686C172.466 256.268 172.099 255.923 171.66 255.923C171.217 255.923 170.855 256.268 170.855 256.686C170.855 257.104 171.217 257.445 171.66 257.445ZM175.279 261.114C175.279 260.07 175.918 259.473 176.805 259.473C177.67 259.473 178.194 260.04 178.194 260.99V265H179.468V260.837C179.468 259.217 178.577 258.369 177.239 258.369C176.255 258.369 175.612 258.825 175.309 259.52H175.228V258.455H174.005V265H175.279V261.114ZM183.921 267.591C185.587 267.591 186.874 266.828 186.874 265.145V258.455H185.626V259.516H185.532C185.306 259.111 184.854 258.369 183.636 258.369C182.055 258.369 180.891 259.618 180.891 261.702C180.891 263.79 182.08 264.902 183.627 264.902C184.829 264.902 185.293 264.224 185.523 263.807H185.604V265.094C185.604 266.121 184.901 266.564 183.934 266.564C182.873 266.564 182.46 266.031 182.234 265.656L181.138 266.108C181.484 266.909 182.357 267.591 183.921 267.591ZM183.908 263.845C182.771 263.845 182.178 262.972 182.178 261.685C182.178 260.428 182.758 259.452 183.908 259.452C185.021 259.452 185.617 260.359 185.617 261.685C185.617 263.036 185.008 263.845 183.908 263.845ZM194.209 265.128C195.402 265.128 195.871 264.399 196.101 263.982H196.208V265H197.452V256.273H196.178V259.516H196.101C195.871 259.111 195.436 258.369 194.218 258.369C192.637 258.369 191.473 259.618 191.473 261.74C191.473 263.858 192.62 265.128 194.209 265.128ZM194.49 264.041C193.353 264.041 192.76 263.04 192.76 261.727C192.76 260.428 193.34 259.452 194.49 259.452C195.603 259.452 196.199 260.359 196.199 261.727C196.199 263.104 195.59 264.041 194.49 264.041ZM201.175 265.145C202.258 265.145 202.867 264.595 203.11 264.105H203.161V265H204.406V260.653C204.406 258.749 202.906 258.369 201.866 258.369C200.681 258.369 199.59 258.847 199.164 260.04L200.362 260.312C200.549 259.848 201.026 259.401 201.883 259.401C202.705 259.401 203.127 259.831 203.127 260.572V260.602C203.127 261.067 202.65 261.058 201.474 261.195C200.234 261.339 198.964 261.663 198.964 263.151C198.964 264.438 199.931 265.145 201.175 265.145ZM201.452 264.122C200.732 264.122 200.212 263.798 200.212 263.168C200.212 262.486 200.817 262.243 201.555 262.145C201.968 262.089 202.948 261.979 203.131 261.795V262.639C203.131 263.415 202.513 264.122 201.452 264.122ZM209.158 258.455H207.816V256.886H206.542V258.455H205.583V259.477H206.542V263.342C206.537 264.531 207.445 265.107 208.451 265.085C208.855 265.081 209.128 265.004 209.277 264.949L209.047 263.896C208.962 263.913 208.804 263.952 208.6 263.952C208.186 263.952 207.816 263.815 207.816 263.078V259.477H209.158V258.455ZM213.318 265.132C214.746 265.132 215.756 264.429 216.045 263.364L214.839 263.146C214.609 263.764 214.055 264.08 213.331 264.08C212.24 264.08 211.507 263.372 211.473 262.111H216.126V261.659C216.126 259.294 214.712 258.369 213.229 258.369C211.405 258.369 210.203 259.759 210.203 261.77C210.203 263.803 211.388 265.132 213.318 265.132ZM211.477 261.156C211.528 260.227 212.202 259.422 213.237 259.422C214.226 259.422 214.874 260.155 214.878 261.156H211.477Z" fill="#677184"/>
<rect x="135.5" y="177.5" width="65" height="26" rx="3.5" fill="#F0F2F7"/>
<path d="M143.359 197.273H144.174V196.144C146.362 196.01 147.62 194.832 147.625 193.141C147.62 191.376 146.163 190.571 144.632 190.208L144.174 190.094V187.26C145.059 187.369 145.626 187.857 145.71 188.617H147.485C147.451 186.991 146.143 185.818 144.174 185.689V184.545H143.359V185.699C141.455 185.858 140.073 187.011 140.078 188.682C140.078 190.143 141.117 190.984 142.792 191.416L143.359 191.56V194.558C142.399 194.454 141.688 193.937 141.624 192.992H139.809C139.879 194.896 141.221 196.02 143.359 196.144V197.273ZM144.174 194.553V191.774C145.149 192.043 145.775 192.391 145.78 193.126C145.775 193.887 145.139 194.429 144.174 194.553ZM143.359 189.885C142.628 189.671 141.937 189.308 141.947 188.567C141.952 187.901 142.469 187.394 143.359 187.27V189.885ZM149.169 196H156.15V194.459H151.715V194.389L153.47 192.604C155.449 190.705 155.995 189.781 155.995 188.632C155.995 186.927 154.608 185.679 152.56 185.679C150.542 185.679 149.11 186.932 149.11 188.866H150.865C150.865 187.827 151.521 187.175 152.535 187.175C153.505 187.175 154.226 187.767 154.226 188.727C154.226 189.577 153.709 190.183 152.704 191.202L149.169 194.668V196ZM161.628 196.184C164.084 196.189 165.551 194.25 165.551 190.909C165.551 187.588 164.074 185.669 161.628 185.669C159.182 185.669 157.711 187.583 157.706 190.909C157.706 194.245 159.172 196.184 161.628 196.184ZM161.628 194.628C161.176 194.628 160.783 194.469 160.47 194.151L163.309 188.508C163.552 189.109 163.691 189.91 163.691 190.909C163.691 193.355 162.901 194.628 161.628 194.628ZM159.933 193.286C159.694 192.689 159.57 191.893 159.57 190.909C159.575 188.483 160.366 187.205 161.628 187.205C162.066 187.205 162.444 187.354 162.757 187.653L159.933 193.286ZM168.939 194.608H167.348L167.313 195.165C167.229 196.512 166.876 197.884 166.732 198.486H167.945C168.183 197.859 168.735 196.408 168.874 195.155L168.939 194.608ZM170.434 193.231C170.514 195.006 172.065 196.139 174.158 196.139C176.335 196.139 177.931 194.896 177.931 193.112C177.931 191.645 176.853 190.342 174.834 190.173V190.094L177.568 187.151V185.818H170.936V187.359H175.242V187.429L172.885 190.014V191.342H173.894C175.361 191.342 176.037 192.092 176.037 193.017C176.037 194.016 175.252 194.593 174.173 194.593C173.159 194.593 172.373 194.091 172.299 193.231H170.434ZM183.263 196.139C185.466 196.139 187.042 194.926 187.047 193.271C187.042 191.998 186.102 190.934 184.919 190.735V190.665C185.948 190.437 186.664 189.512 186.669 188.408C186.664 186.842 185.222 185.679 183.263 185.679C181.29 185.679 179.848 186.837 179.853 188.408C179.848 189.512 180.554 190.437 181.603 190.665V190.735C180.4 190.934 179.47 191.998 179.475 193.271C179.47 194.926 181.041 196.139 183.263 196.139ZM183.263 194.717C182.11 194.717 181.364 194.081 181.374 193.141C181.364 192.167 182.165 191.476 183.263 191.476C184.347 191.476 185.143 192.172 185.153 193.141C185.143 194.081 184.402 194.717 183.263 194.717ZM183.263 190.079C182.319 190.079 181.643 189.467 181.653 188.582C181.643 187.707 182.299 187.121 183.263 187.121C184.213 187.121 184.864 187.707 184.874 188.582C184.864 189.472 184.193 190.079 183.263 190.079ZM188.522 193.231C188.602 195.006 190.153 196.139 192.246 196.139C194.423 196.139 196.019 194.896 196.019 193.112C196.019 191.645 194.94 190.342 192.922 190.173V190.094L195.656 187.151V185.818H189.024V187.359H193.33V187.429L190.973 190.014V191.342H191.982C193.449 191.342 194.125 192.092 194.125 193.017C194.125 194.016 193.34 194.593 192.261 194.593C191.247 194.593 190.461 194.091 190.386 193.231H188.522Z" fill="#121D33"/>
<rect x="135.5" y="177.5" width="65" height="26" rx="3.5" stroke="#DFE3EB"/>
<line x1="472.5" y1="91" x2="472.5" y2="252" stroke="#65A5FF"/>
<path d="M441.746 265H447.269V263.866H443.063V261.195H446.932V260.065H443.063V257.406H447.218V256.273H441.746V265ZM449.88 258.455H448.482L450.493 261.727L448.456 265H449.854L451.324 262.554L452.799 265H454.192L452.134 261.727L454.175 258.455H452.782L451.324 261.003L449.88 258.455ZM455.483 267.455H456.758V263.982H456.834C457.064 264.399 457.533 265.128 458.726 265.128C460.312 265.128 461.462 263.858 461.462 261.74C461.462 259.618 460.295 258.369 458.714 258.369C457.499 258.369 457.06 259.111 456.834 259.516H456.728V258.455H455.483V267.455ZM456.732 261.727C456.732 260.359 457.329 259.452 458.441 259.452C459.596 259.452 460.175 260.428 460.175 261.727C460.175 263.04 459.579 264.041 458.441 264.041C457.346 264.041 456.732 263.104 456.732 261.727ZM462.89 265H464.164V258.455H462.89V265ZM463.533 257.445C463.972 257.445 464.339 257.104 464.339 256.686C464.339 256.268 463.972 255.923 463.533 255.923C463.09 255.923 462.728 256.268 462.728 256.686C462.728 257.104 463.09 257.445 463.533 257.445ZM465.878 265H467.152V261.003C467.152 260.146 467.813 259.528 468.716 259.528C468.98 259.528 469.279 259.575 469.381 259.605V258.386C469.253 258.369 469.002 258.357 468.84 258.357C468.073 258.357 467.416 258.791 467.178 259.494H467.11V258.455H465.878V265ZM472.33 265.145C473.412 265.145 474.021 264.595 474.264 264.105H474.316V265H475.56V260.653C475.56 258.749 474.06 258.369 473.02 258.369C471.835 258.369 470.744 258.847 470.318 260.04L471.516 260.312C471.703 259.848 472.181 259.401 473.037 259.401C473.86 259.401 474.281 259.831 474.281 260.572V260.602C474.281 261.067 473.804 261.058 472.628 261.195C471.388 261.339 470.118 261.663 470.118 263.151C470.118 264.438 471.085 265.145 472.33 265.145ZM472.607 264.122C471.887 264.122 471.367 263.798 471.367 263.168C471.367 262.486 471.972 262.243 472.709 262.145C473.122 262.089 474.102 261.979 474.286 261.795V262.639C474.286 263.415 473.668 264.122 472.607 264.122ZM480.312 258.455H478.97V256.886H477.696V258.455H476.737V259.477H477.696V263.342C477.692 264.531 478.599 265.107 479.605 265.085C480.01 265.081 480.282 265.004 480.432 264.949L480.202 263.896C480.116 263.913 479.959 263.952 479.754 263.952C479.341 263.952 478.97 263.815 478.97 263.078V259.477H480.312V258.455ZM481.722 265H482.996V258.455H481.722V265ZM482.365 257.445C482.804 257.445 483.171 257.104 483.171 256.686C483.171 256.268 482.804 255.923 482.365 255.923C481.922 255.923 481.56 256.268 481.56 256.686C481.56 257.104 481.922 257.445 482.365 257.445ZM487.467 265.132C489.312 265.132 490.518 263.781 490.518 261.757C490.518 259.72 489.312 258.369 487.467 258.369C485.622 258.369 484.416 259.72 484.416 261.757C484.416 263.781 485.622 265.132 487.467 265.132ZM487.471 264.062C486.265 264.062 485.703 263.01 485.703 261.753C485.703 260.5 486.265 259.435 487.471 259.435C488.669 259.435 489.231 260.5 489.231 261.753C489.231 263.01 488.669 264.062 487.471 264.062ZM493.215 261.114C493.215 260.07 493.854 259.473 494.74 259.473C495.605 259.473 496.129 260.04 496.129 260.99V265H497.404V260.837C497.404 259.217 496.513 258.369 495.175 258.369C494.191 258.369 493.547 258.825 493.244 259.52H493.164V258.455H491.941V265H493.215V261.114ZM504.738 265.128C505.932 265.128 506.4 264.399 506.631 263.982H506.737V265H507.981V256.273H506.707V259.516H506.631C506.4 259.111 505.966 258.369 504.747 258.369C503.166 258.369 502.003 259.618 502.003 261.74C502.003 263.858 503.149 265.128 504.738 265.128ZM505.02 264.041C503.882 264.041 503.29 263.04 503.29 261.727C503.29 260.428 503.869 259.452 505.02 259.452C506.132 259.452 506.729 260.359 506.729 261.727C506.729 263.104 506.119 264.041 505.02 264.041ZM511.705 265.145C512.787 265.145 513.396 264.595 513.639 264.105H513.691V265H514.935V260.653C514.935 258.749 513.435 258.369 512.395 258.369C511.21 258.369 510.119 258.847 509.693 260.04L510.891 260.312C511.078 259.848 511.556 259.401 512.412 259.401C513.235 259.401 513.656 259.831 513.656 260.572V260.602C513.656 261.067 513.179 261.058 512.003 261.195C510.763 261.339 509.493 261.663 509.493 263.151C509.493 264.438 510.46 265.145 511.705 265.145ZM511.982 264.122C511.262 264.122 510.742 263.798 510.742 263.168C510.742 262.486 511.347 262.243 512.084 262.145C512.497 262.089 513.477 261.979 513.661 261.795V262.639C513.661 263.415 513.043 264.122 511.982 264.122ZM519.687 258.455H518.345V256.886H517.071V258.455H516.112V259.477H517.071V263.342C517.067 264.531 517.974 265.107 518.98 265.085C519.385 265.081 519.657 265.004 519.807 264.949L519.577 263.896C519.491 263.913 519.334 263.952 519.129 263.952C518.716 263.952 518.345 263.815 518.345 263.078V259.477H519.687V258.455ZM523.847 265.132C525.275 265.132 526.285 264.429 526.575 263.364L525.369 263.146C525.139 263.764 524.585 264.08 523.86 264.08C522.769 264.08 522.036 263.372 522.002 262.111H526.656V261.659C526.656 259.294 525.241 258.369 523.758 258.369C521.934 258.369 520.732 259.759 520.732 261.77C520.732 263.803 521.917 265.132 523.847 265.132ZM522.007 261.156C522.058 260.227 522.731 259.422 523.767 259.422C524.755 259.422 525.403 260.155 525.407 261.156H522.007Z" fill="#677184"/>
<rect x="441.5" y="153.5" width="66" height="26" rx="3.5" fill="#F0F2F7"/>
<path d="M449.661 173.273H450.476V172.144C452.664 172.01 453.921 170.832 453.926 169.141C453.921 167.376 452.465 166.571 450.933 166.208L450.476 166.094V163.26C451.361 163.369 451.928 163.857 452.012 164.617H453.787C453.752 162.991 452.445 161.818 450.476 161.689V160.545H449.661V161.699C447.757 161.858 446.374 163.011 446.379 164.682C446.379 166.143 447.419 166.984 449.094 167.416L449.661 167.56V170.558C448.701 170.454 447.99 169.937 447.926 168.992H446.111C446.181 170.896 447.523 172.02 449.661 172.144V173.273ZM450.476 170.553V167.774C451.45 168.043 452.077 168.391 452.082 169.126C452.077 169.887 451.441 170.429 450.476 170.553ZM449.661 165.885C448.93 165.671 448.239 165.308 448.249 164.567C448.254 163.901 448.771 163.394 449.661 163.27V165.885ZM455.471 172H462.451V170.459H458.017V170.389L459.772 168.604C461.75 166.705 462.297 165.781 462.297 164.632C462.297 162.927 460.91 161.679 458.862 161.679C456.843 161.679 455.412 162.932 455.412 164.866H457.167C457.167 163.827 457.823 163.175 458.837 163.175C459.806 163.175 460.527 163.767 460.527 164.727C460.527 165.577 460.01 166.183 459.006 167.202L455.471 170.668V172ZM467.706 172.139C469.859 172.139 471.36 170.678 471.36 168.654C471.36 166.695 469.998 165.283 468.149 165.283C467.324 165.283 466.593 165.612 466.215 166.059H466.155L466.449 163.359H470.828V161.818H464.922L464.39 167.068L466.056 167.342C466.399 166.964 467.045 166.71 467.657 166.715C468.775 166.72 469.581 167.545 469.576 168.699C469.581 169.837 468.795 170.648 467.706 170.648C466.787 170.648 466.046 170.066 465.981 169.231H464.191C464.241 170.921 465.718 172.139 467.706 172.139ZM474.817 170.608H473.226L473.191 171.165C473.107 172.512 472.754 173.884 472.61 174.486H473.823C474.061 173.859 474.613 172.408 474.752 171.155L474.817 170.608ZM480.18 172.184C482.636 172.189 484.103 170.25 484.103 166.909C484.103 163.588 482.626 161.669 480.18 161.669C477.734 161.669 476.262 163.583 476.257 166.909C476.257 170.245 477.724 172.184 480.18 172.184ZM480.18 170.628C479.728 170.628 479.335 170.469 479.022 170.151L481.86 164.508C482.104 165.109 482.243 165.91 482.243 166.909C482.243 169.355 481.453 170.628 480.18 170.628ZM478.485 169.286C478.246 168.689 478.122 167.893 478.122 166.909C478.127 164.483 478.917 163.205 480.18 163.205C480.618 163.205 480.995 163.354 481.309 163.653L478.485 169.286ZM489.518 172.184C491.974 172.189 493.441 170.25 493.441 166.909C493.441 163.588 491.964 161.669 489.518 161.669C487.072 161.669 485.6 163.583 485.595 166.909C485.595 170.245 487.062 172.184 489.518 172.184ZM489.518 170.628C489.066 170.628 488.673 170.469 488.36 170.151L491.198 164.508C491.442 165.109 491.581 165.91 491.581 166.909C491.581 169.355 490.791 170.628 489.518 170.628ZM487.823 169.286C487.584 168.689 487.46 167.893 487.46 166.909C487.465 164.483 488.255 163.205 489.518 163.205C489.955 163.205 490.333 163.354 490.646 163.653L487.823 169.286ZM498.856 172.184C501.312 172.189 502.778 170.25 502.778 166.909C502.778 163.588 501.302 161.669 498.856 161.669C496.41 161.669 494.938 163.583 494.933 166.909C494.933 170.245 496.4 172.184 498.856 172.184ZM498.856 170.628C498.403 170.628 498.011 170.469 497.697 170.151L500.536 164.508C500.78 165.109 500.919 165.91 500.919 166.909C500.919 169.355 500.129 170.628 498.856 170.628ZM497.161 169.286C496.922 168.689 496.798 167.893 496.798 166.909C496.803 164.483 497.593 163.205 498.856 163.205C499.293 163.205 499.671 163.354 499.984 163.653L497.161 169.286Z" fill="#121D33"/>
<rect x="441.5" y="153.5" width="66" height="26" rx="3.5" stroke="#DFE3EB"/>
<path d="M472 142L134 142" stroke="#DFE3EB" stroke-width="2" stroke-linecap="round" stroke-linejoin="round" stroke-dasharray="4 4"/>
<g clip-path="url(#clip0_2452_171197)">
<path fill-rule="evenodd" clip-rule="evenodd" d="M164.012 169H167.992V163.985H172.985V160.005H167.992V155H164.012V160.005H159V163.985H164.012V169Z" fill="black"/>
<path fill-rule="evenodd" clip-rule="evenodd" d="M165 168H166.969V163H171.983V161.031H166.969V156.014H165V161.031H160.016V163H165V168Z" fill="white"/>
</g>
<g clip-path="url(#clip1_2452_171197)">
<path fill-rule="evenodd" clip-rule="evenodd" d="M470.012 99H473.992V93.985H478.985V90.005H473.992V85H470.012V90.005H465V93.985H470.012V99Z" fill="black"/>
<path fill-rule="evenodd" clip-rule="evenodd" d="M471 98H472.969V93H477.983V91.031H472.969V86.014H471V91.031H466.016V93H471V98Z" fill="white"/>
</g>
<path d="M17.0043 32H21.1257C23.4574 32 24.6009 30.8118 24.6009 29.2259C24.6009 27.6847 23.5071 26.7798 22.4233 26.7251V26.6257C23.4176 26.392 24.2031 25.696 24.2031 24.4581C24.2031 22.9418 23.1094 21.8182 20.902 21.8182H17.0043V32ZM18.8487 30.4588V27.4759H20.8821C22.0206 27.4759 22.7266 28.1719 22.7266 29.0817C22.7266 29.892 22.1697 30.4588 20.8324 30.4588H18.8487ZM18.8487 26.1484V23.3395H20.7131C21.7969 23.3395 22.3587 23.9112 22.3587 24.6967C22.3587 25.5916 21.6328 26.1484 20.6733 26.1484H18.8487ZM25.758 23.3643H28.905V32H30.7346V23.3643H33.8816V21.8182H25.758V23.3643ZM43.7253 25.2536C43.4121 22.9915 41.6721 21.679 39.415 21.679C36.7551 21.679 34.7516 23.6179 34.7516 26.9091C34.7516 30.1953 36.7303 32.1392 39.415 32.1392C41.8361 32.1392 43.4419 30.5732 43.7253 28.6293L41.8659 28.6193C41.6323 29.8125 40.6578 30.4837 39.4398 30.4837C37.7892 30.4837 36.606 29.2457 36.606 26.9091C36.606 24.6122 37.7793 23.3345 39.4448 23.3345C40.6827 23.3345 41.6522 24.0355 41.8659 25.2536H43.7253Z" fill="#677184"/>
<defs>
<clipPath id="clip0_2452_171197">
<rect width="14" height="14" fill="white" transform="translate(159 155)"/>
</clipPath>
<clipPath id="clip1_2452_171197">
<rect width="14" height="14" fill="white" transform="translate(465 85)"/>
</clipPath>
</defs>
</svg>
