<svg width="184" height="179" viewBox="0 0 184 179" fill="none" xmlns="http://www.w3.org/2000/svg">
<g clip-path="url(#clip0_3175_178945)">
<path d="M170.916 94.4181H172.515C172.823 76.0788 167.237 58.1265 156.581 43.2139L155.365 44.3055C161.402 52.7641 165.815 62.2751 168.378 72.3523C170.188 79.564 171.041 86.9831 170.916 94.4181Z" fill="#D8EBFD"/>
<path d="M160.267 134.078C152.594 147.821 141.233 159.134 127.472 166.736L128.109 168.222C142.185 160.46 153.801 148.89 161.634 134.833C161.171 134.601 160.707 134.322 160.267 134.078Z" fill="#D8EBFD"/>
<path d="M18.7157 143.868C13.7149 137.263 9.70891 129.958 6.82604 122.186C3.21771 112.452 1.45314 102.129 1.62288 91.7467L0.0120826 91.5493C-0.187949 102.189 1.61259 112.771 5.31957 122.743C8.29261 130.742 12.4364 138.253 17.6148 145.03C17.9625 144.658 18.3333 144.252 18.7157 143.868Z" fill="#D8EBFD"/>
<path d="M94.1085 177.037C79.7613 178.393 65.3067 176.042 52.1238 170.208C51.8341 170.673 51.5097 171.126 51.1968 171.556C64.7765 177.593 79.6784 180.025 94.4677 178.617L94.1085 177.037Z" fill="#D8EBFD"/>
<path d="M33.9539 171.579C31.4633 171.565 29.0325 170.812 26.9682 169.415C24.904 168.019 23.2988 166.04 22.3552 163.73C21.4115 161.42 21.1718 158.882 21.6661 156.435C22.1604 153.989 23.3666 151.744 25.1327 149.984C26.8987 148.224 29.1453 147.027 31.5892 146.545C34.033 146.063 36.5645 146.318 38.8643 147.276C41.1641 148.234 43.1291 149.854 44.5114 151.93C45.8938 154.007 46.6315 156.447 46.6316 158.943C46.6162 162.302 45.2734 165.517 42.8972 167.885C40.521 170.254 37.3051 171.582 33.9539 171.579ZM33.9539 147.469C31.6925 147.483 29.4857 148.167 27.6121 149.436C25.7384 150.705 24.2817 152.502 23.4258 154.6C22.5699 156.698 22.3531 159.003 22.8027 161.224C23.2523 163.445 24.3482 165.483 25.9521 167.081C27.556 168.679 29.5962 169.764 31.8152 170.202C34.0343 170.639 36.3328 170.407 38.4208 169.537C40.5088 168.667 42.2929 167.196 43.5479 165.31C44.8029 163.425 45.4727 161.209 45.4727 158.943C45.4605 155.892 44.2407 152.97 42.0812 150.818C39.9216 148.667 36.9987 147.463 33.9539 147.469Z" fill="#D8EBFD"/>
<path d="M100.935 8.35073C95.1294 7.36659 89.2392 6.97746 83.3552 7.18937C83.4943 7.72359 83.6102 8.28104 83.7145 8.79204C99.8885 8.2679 115.874 12.3989 129.778 20.696L130.752 19.3952C121.586 13.8849 111.473 10.1391 100.935 8.35073Z" fill="#D8EBFD"/>
<path d="M42.1706 19.1853C36.3598 22.6299 30.9696 26.7417 26.1092 31.4376C18.4617 38.8261 12.2597 47.5821 7.82275 57.2546L9.35239 57.7772C16.4794 42.3118 28.1208 29.3776 42.7384 20.6835C42.5299 20.1725 42.3329 19.7079 42.1706 19.1853Z" fill="#D8EBFD"/>
<path d="M62.5884 25.283C60.0949 25.2715 57.6608 24.52 55.5931 23.1234C53.5254 21.7267 51.917 19.7475 50.9707 17.4356C50.0244 15.1236 49.7828 12.5825 50.2762 10.1331C50.7697 7.6836 51.9761 5.43552 53.7433 3.67259C55.5105 1.90965 57.7592 0.710881 60.2056 0.227574C62.652 -0.255732 65.1864 -0.00191101 67.489 0.957007C69.7916 1.91592 71.7591 3.53695 73.1432 5.6155C74.5273 7.69404 75.266 10.1369 75.2661 12.6358C75.2538 15.9963 73.9123 19.2148 71.5358 21.5857C69.1593 23.9565 65.9416 25.2861 62.5884 25.283ZM62.5884 1.16161C60.3236 1.17309 58.1131 1.85675 56.2357 3.1263C54.3584 4.39585 52.8984 6.19436 52.0402 8.29478C51.182 10.3952 50.964 12.7034 51.4137 14.9279C51.8633 17.1524 52.9606 19.1935 54.5669 20.7935C56.1731 22.3936 58.2164 23.4808 60.4388 23.918C62.6611 24.3552 64.9629 24.1227 67.0536 23.2499C69.1442 22.3771 70.9299 20.9032 72.1853 19.0141C73.4407 17.125 74.1095 14.9055 74.1072 12.6358C74.0949 9.58438 72.8752 6.66246 70.7157 4.51129C68.5562 2.36012 65.6332 1.15544 62.5884 1.16161Z" fill="#D8EBFD"/>
<path d="M136.789 61.1345C136.499 61.3552 136.186 61.541 135.885 61.7384C141.862 70.6961 145.196 81.1622 145.503 91.9337L146.604 92.0034C146.386 84.7225 144.814 77.5463 141.969 70.8435C140.554 67.4492 138.82 64.1981 136.789 61.1345Z" fill="#D8EBFD"/>
<path d="M115.594 41.8556C111.009 39.3953 106.124 37.5448 101.062 36.3508C93.9459 34.6811 86.5822 34.3503 79.3455 35.3753L79.612 36.4669C91.8117 34.7644 104.235 37.0103 115.072 42.8776C115.197 42.5139 115.373 42.1698 115.594 41.8556Z" fill="#D8EBFD"/>
<path d="M128.237 60.3556C126.056 60.3327 123.93 59.6635 122.127 58.4322C120.324 57.2009 118.926 55.4627 118.106 53.4363C117.287 51.4099 117.085 49.1859 117.525 47.0445C117.964 44.903 119.026 42.9397 120.577 41.4018C122.127 39.864 124.097 38.8202 126.239 38.4021C128.38 37.9839 130.597 38.21 132.61 39.0518C134.624 39.8937 136.343 41.3138 137.553 43.1331C138.763 44.9525 139.408 47.0899 139.408 49.2762C139.402 50.7393 139.108 52.1868 138.543 53.5358C137.978 54.8848 137.154 56.1089 136.116 57.1381C135.078 58.1672 133.848 58.9811 132.496 59.5332C131.144 60.0853 129.697 60.3648 128.237 60.3556ZM128.237 39.3583C126.285 39.3812 124.383 39.9823 122.771 41.0859C121.159 42.1895 119.908 43.7464 119.177 45.5606C118.446 47.3748 118.266 49.3652 118.661 51.2814C119.056 53.1976 120.008 54.9539 121.396 56.3294C122.785 57.7048 124.548 58.6379 126.465 59.0113C128.381 59.3847 130.365 59.1816 132.167 58.4276C133.968 57.6737 135.507 56.4025 136.589 54.7741C137.672 53.1457 138.249 51.2329 138.25 49.2762C138.244 47.9657 137.98 46.6693 137.473 45.4612C136.966 44.253 136.227 43.1569 135.297 42.2356C134.366 41.3144 133.264 40.586 132.053 40.0923C130.842 39.5985 129.545 39.3491 128.237 39.3583Z" fill="#D8EBFD"/>
<path d="M97.3184 150.512C84.5987 152.672 71.5234 150.54 60.143 144.45L59.5288 145.368C65.9591 148.819 72.9731 151.044 80.214 151.929C86.0316 152.648 91.9228 152.511 97.7009 151.523C97.5618 151.198 97.4343 150.861 97.3184 150.512Z" fill="#D8EBFD"/>
<path d="M141.285 115.323C138.606 121.915 134.723 127.949 129.836 133.115C127.985 135.079 125.998 136.91 123.891 138.596C124.077 138.914 124.25 139.239 124.413 139.572C132.378 133.308 138.564 125.058 142.351 115.648L141.285 115.323Z" fill="#D8EBFD"/>
<path d="M29.7815 97.1827C29.411 97.181 29.0418 97.1381 28.6807 97.0549C28.9541 101.675 29.767 106.247 31.1026 110.678C33.2098 117.654 36.6018 124.173 41.1034 129.898L41.903 129.132C34.7329 119.98 30.5167 108.855 29.8163 97.2407L29.7815 97.1827Z" fill="#D8EBFD"/>
<path d="M56.6443 43.5159C50.4447 47.3239 45.006 52.2545 40.606 58.0561C38.18 61.2764 36.0872 64.7357 34.3599 68.3805C34.7191 68.4502 35.0783 68.5431 35.4607 68.6476C40.1999 58.6609 47.7274 50.2659 57.131 44.4798L56.6443 43.5159Z" fill="#D8EBFD"/>
<path d="M31.1029 93.7221C28.9161 93.7106 26.7817 93.0501 24.9692 91.8239C23.1566 90.5978 21.7472 88.8609 20.9188 86.8327C20.0904 84.8044 19.8801 82.5756 20.3146 80.4277C20.7491 78.2798 21.8088 76.309 23.36 74.7642C24.9112 73.2194 26.8842 72.1697 29.0302 71.7478C31.1761 71.3258 33.3987 71.5505 35.4173 72.3934C37.4359 73.2363 39.1601 74.6597 40.3722 76.4838C41.5843 78.308 42.23 80.4511 42.2278 82.6427C42.2155 85.5894 41.0373 88.4109 38.9516 90.488C36.866 92.5652 34.0433 93.7282 31.1029 93.7221ZM31.1029 72.7131C29.1458 72.7246 27.2359 73.3167 25.6142 74.4147C23.9925 75.5127 22.7316 77.0675 21.9905 78.8829C21.2495 80.6983 21.0615 82.6929 21.4503 84.6152C21.8391 86.5375 22.7873 88.3014 24.1753 89.6843C25.5632 91.0672 27.3287 92.0071 29.2491 92.3856C31.1695 92.764 33.1587 92.564 34.9658 91.8108C36.7729 91.0576 38.3169 89.7849 39.403 88.1532C40.4892 86.5216 41.0689 84.6041 41.0689 82.6427C41.0567 80.0029 40.0009 77.4757 38.1329 75.6145C36.2649 73.7533 33.737 72.71 31.1029 72.7131Z" fill="#D8EBFD"/>
<path d="M171.322 128.412C168.829 128.4 166.394 127.649 164.327 126.252C162.259 124.856 160.651 122.876 159.704 120.564C158.758 118.253 158.516 115.711 159.01 113.262C159.503 110.812 160.71 108.564 162.477 106.801C164.244 105.039 166.493 103.84 168.939 103.356C171.386 102.873 173.92 103.127 176.223 104.086C178.525 105.045 180.493 106.666 181.877 108.744C183.261 110.823 184 113.266 184 115.765C183.987 119.125 182.646 122.344 180.269 124.715C177.893 127.085 174.675 128.415 171.322 128.412ZM171.322 104.291C169.057 104.302 166.847 104.986 164.969 106.255C163.092 107.525 161.632 109.323 160.774 111.424C159.916 113.524 159.698 115.832 160.147 118.057C160.597 120.281 161.694 122.322 163.3 123.922C164.907 125.523 166.95 126.61 169.172 127.047C171.395 127.484 173.697 127.252 175.787 126.379C177.878 125.506 179.664 124.032 180.919 122.143C182.174 120.254 182.843 118.034 182.841 115.765C182.829 112.713 181.609 109.791 179.449 107.64C177.29 105.489 174.367 104.284 171.322 104.291Z" fill="#D8EBFD"/>
<path d="M111.295 156.875C109.108 156.866 106.973 156.208 105.159 154.984C103.345 153.759 101.934 152.024 101.103 149.997C100.273 147.969 100.06 145.741 100.492 143.592C100.925 141.444 101.982 139.472 103.532 137.926C105.082 136.379 107.054 135.328 109.199 134.903C111.345 134.479 113.567 134.701 115.587 135.542C117.606 136.383 119.332 137.805 120.546 139.628C121.76 141.45 122.408 143.593 122.408 145.784C122.396 148.73 121.219 151.551 119.137 153.63C117.054 155.708 114.234 156.875 111.295 156.875ZM111.295 135.866C109.337 135.876 107.425 136.466 105.802 137.563C104.178 138.66 102.915 140.215 102.173 142.031C101.43 143.847 101.241 145.842 101.63 147.766C102.018 149.689 102.967 151.454 104.356 152.838C105.744 154.221 107.511 155.161 109.432 155.54C111.354 155.918 113.344 155.717 115.151 154.962C116.959 154.207 118.503 152.933 119.588 151.299C120.673 149.666 121.251 147.747 121.249 145.784C121.237 143.148 120.182 140.623 118.316 138.764C116.451 136.905 113.926 135.863 111.295 135.866Z" fill="#D8EBFD"/>
</g>
<defs>
<clipPath id="clip0_3175_178945">
<rect width="184" height="179" fill="white"/>
</clipPath>
</defs>
</svg>
