<svg fill="none" height="32" viewBox="0 0 32 32" width="32" xmlns="http://www.w3.org/2000/svg"><path clip-rule="evenodd" d="m21.6894 4.00321c1.1009.03336 1.7847.22796 2.2684.65052v-.00002c.5505.48372 1.201 2.36298.7451 4.89277 0 .16124-.0612.26132-.1946.42255-1.2621 1.46227-2.4965 3.01907-3.5973 4.60367l-.0667.1001c0 .0333-.0334.0333-.0612.0333h-.0334c-.0333 0-.0667-.0333-.0667-.0667v-.1279c-.1946-1.9126-.2557-3.8919-.2279-5.87129 0-.12787-.0612-.26131-.1613-.35583-.0945-.10008-.2279-.12788-.3558-.12788-1.9794.2224-3.9865.55044-5.9992.96744l-.1279.03336c-.0333.03335-.0667 0-.1001-.03336-.0333-.02782-.0333-.06117 0-.09453l.1001-.10007c1.2288-1.35663 2.5298-2.71882 3.892-3.98649.1279-.12788.2891-.26132.4837-.32248 1.3288-.42256 2.5298-.65052 3.5028-.61716zm-10.9329 17.17479-.0001.0002c-.0418.0773-.0754.1395-.0924.1721s-.4225.8117-.5838 1.2009c-.8451 1.7181-1.59014 3.4695-2.24065 5.2542l-.0278.1279-.0001.0001c-.03333.0333-.06664.0666-.09998.0666h-.65051c-.02779 0-.0278 0-.06115-.0334h-.00001v-.0611s1.00635-4.2812 2.14058-7.5282c-.45591-1.7792-.77839-4.1811-.77839-4.1811s0-.228.06116-.3225c1.23431-1.8515 2.59655-3.6362 4.02545-5.3542 0-.0334.1278-.1279.3224-.1946 1.8793-.45039 3.8253-.81178 5.7101-1.06754l.1279-.03337c.0334-.03336.0667 0 .0945.03336.0334.03336.0334.06116 0 .09452l-.0611.10008c-2.919 3.36935-5.4488 7.06675-7.5227 10.99205v.0334c-.0497.12-.2412.4745-.3633.7005zm3.5715 1.7013.1613-.0667h.0004s.0332 0 .0667.0335v.0611l-.4893.973c-.0612.1001-.1612.1613-.1612.1613-.3928.2088-.9681.4806-1.5767.7683-.3476.1642-.7061.3336-1.0476.4993h-.0335c-.2278.1061-.4471.2255-.6557.339-.2396.1304-.4651.2532-.67315.3394l-.16122.0666h-.03349l-.03348-.0334v-.0612l.06672-.1668c.04647-.0956.11711-.2692.19608-.4632l.00002-.0001c.08172-.2007.17232-.4233.25422-.6042.0295-.0886.059-.1467.0885-.2051l.0116-.0229s.0612-.0943.1279-.1278c1.3622-.6172 2.8522-1.1343 3.8919-1.4901zm5.2542-12.7157v-.1279c0-.033-.0326-.06578-.0654-.0987l-.0013-.00132c-.0335 0-.0612.00001-.0945.0335l-.0668.10002c-3.4027 3.9532-6.2605 8.3011-8.4956 12.9714l-.0667.1279c0 .0335 0 .0667.0335.1.0335.0279.0335.0279.0668.0279h.0334l.0946-.0279c1.9126-.7783 3.8586-1.4956 5.8046-2.046.1278-.0335.2279-.1279.2613-.228.8396-1.6513 2.8189-4.8649 2.8189-4.8649.0667-.0612.0335-.1946.0335-.1946s-.3225-3.8253-.3558-5.7713z" fill="#1ecc97" fill-rule="evenodd"/></svg>