<svg fill="none" height="32" viewBox="0 0 32 32" width="32" xmlns="http://www.w3.org/2000/svg"><path clip-rule="evenodd" d="m22.0272 8.25493.0476-.07139c.5203-.67427 1.2898-1.08835 2.1291-1.15974.084-.01269.1665-.0238.249-.0238s.1777.01111.2586.0238c1.5247.13009 2.7209 1.40882 2.7209 2.96995 0 1.54845-1.1946 2.82715-2.7209 2.96835-.0825.0111-.1776.0111-.2601.0111-.0936 0-.1761 0-.2713-.0111-1.5136-.1412-2.7082-1.4183-2.7082-2.96835 0-.60287.1761-1.17084.4966-1.65632zm3.2543 4.14407c-.0677.1009-.1347.2008-.2146.2791.1904-.0714.3681-.165.5331-.2951h-.3078zm.4121-1.0345c-.0825.3078-.1761.5918-.2951.8282h.4125c.2364-.2253.4268-.5093.568-.8282zm.9709-1.2771h-.8281c0 .3791-.0349.7567-.1063 1.0883h.733c.1189-.3316.1903-.7108.2014-1.0883zm-.2014-1.27719h-.733c.0714.33158.1063.69807.1063 1.08835h.8281c-.0126-.39028-.0825-.75677-.2014-1.08835zm-.3903 3.38249h.0952c.284-.2237.533-.5077.7091-.8282h-.2951c-.13.3078-.2966.5918-.5092.8282zm.5917-1.017h.3078c.165-.3316.2491-.7092.2729-1.0883h-.3903c-.0127.3775-.0714.7456-.1904 1.0883zm.1904-1.27714h.3903c-.0238-.39028-.1079-.75677-.2729-1.08835h-.3078c.119.33158.1793.69807.1904 1.08835zm.0222-1.27714c-.1761-.31889-.4251-.60288-.7091-.82816h-.0952c.2142.23639.3792.50927.5092.82816zm-1.1819-.00159h.6854c-.1412-.31889-.33-.60287-.5664-.82816h-.4141c.1174.23639.2126.50927.2951.82816zm-.403-1.01695h.3078c-.165-.1301-.3427-.2364-.5331-.2951.0841.0825.1539.17611.2253.2951zm-.2253.00158c-.1539-.22528-.33-.36807-.5204-.40297v.40297zm.119.1888h-.6378v.82816h.9456c-.0825-.31889-.1888-.60288-.3078-.82816zm.3554 1.01695h-.9948v1.08835h1.1011c0-.39028-.0349-.75677-.1063-1.08835zm.1063 1.27719h-1.1011v1.0883h.9948c.0714-.3316.1063-.7108.1063-1.0883zm-.1555 1.2787h-.9456-.0015v.8281h.6393c.119-.2252.2253-.5092.3078-.8281zm-.4252 1.0169h-.5204v.3903c.1888-.0365.3665-.1666.5204-.3903zm-1.4659-4.78012c.073-.11741.1539-.2126.2253-.2951-.1777.0714-.3554.165-.5204.2951zm-.3443.80594c.0714-.22528.1539-.43787.2491-.61556h-.4268c-.2126.20148-.3903.46009-.533.75676-.0112.0238-.0223.0476-.035.0714h.6981v-.0238zm-1.0281 1.48974h.8282c.0111-.37917.0476-.74566.1063-1.08835h-.7219c-.1301.33158-.2014.70918-.2126 1.08835zm.2126 1.27714h.7219c-.0587-.3316-.1063-.7092-.1063-1.0883h-.8282c.0112.3775.0825.7567.2126 1.0883zm.2951-3.38403c-.2126.15389-.4014.35538-.5552.58067-.0587.07139-.1174.16658-.165.24908h.295c.0059-.011.0091-.02201.0119-.03175v-.00002c.0032-.01133.006-.02097.0119-.02693l.035-.09519.046-.08409c.1189-.22528.249-.42677.4029-.59177zm-.4965 1.01854h-.3189c-.165.33158-.2475.70918-.2618 1.08835h.3792c.0127-.37917.0825-.74566.2015-1.08835zm-.1999 1.27719h-.3792c.0127.3791.1063.7567.2618 1.0883h.3188c-.1189-.3427-.1903-.7108-.2014-1.0883zm-.0238 1.2771c.1888.3189.4267.6045.7218.8282h.0825c-.2015-.2364-.3792-.5204-.5093-.8282zm1.1946.0016h-.6981c.1412.3189.3427.6029.568.8281h.4141c-.1174-.2363-.2126-.5203-.284-.8281zm.3903 1.0169h-.3078c.165.1301.3427.2237.5458.2951-.0841-.0825-.1666-.1888-.238-.2951zm.2364 0c.1539.2237.3316.3538.5204.3903v-.3903zm-.119-.1903h.6394v-.8282h-.9583c.0825.3189.1888.6045.3189.8282zm-.3538-1.017h.9932v-1.0883h-1.1122c0 .3775.0476.7567.119 1.0883zm-.119-1.27714h1.1122v-1.08835h-.9932c-.0714.34269-.119.70918-.119 1.08835zm.1539-1.27873h.9583v-.82816h-.6394c-.1174.20149-.2237.46009-.2951.75677-.0068.01268-.0099.02537-.0131.03805v.00002c-.0028.01111-.0055.02222-.0107.03332zm.4252-1.01695h.5331v-.40298c-.1904.03649-.3681.17769-.5331.40298zm-20.92614 5.21802-1.64522-3.97578.01269 3.97578h-1.170843v-5.12283h1.834013l1.61983 3.82033-.0238-3.82033h1.15974v5.12283zm19.95834 4.6263-.3316 1.0281h-1.3247l1.8927-5.1102h1.6198l1.8816 5.1102h-1.4897l-.3316-1.0281zm.9932-3.0889h-.0238l-.6632 2.1529h1.3025zm-22.43017 2.1767h1.91651v-.9821h-1.91651v-1.1946h2.0704v-.9821h-3.395143v5.0991h1.324743zm.50927 5.3243c.57908 0 .87576.3665.99316.852h.71076c-.0825-.9218-.80436-1.4549-1.70392-1.4676-1.207336 0-1.9292 1.0297-1.9292 2.2592 0 1.2185.721864 2.2481 1.9292 2.2481.96936 0 1.65632-.7092 1.70392-1.7388h-.68696c-.0476.6267-.39029 1.1248-1.01696 1.1248-.86465 0-1.231134-.8154-1.231134-1.6325 0-.8297.366484-1.6452 1.231134-1.6452zm3.82033.6156-.00748-.0018c-.0452-.0106-.0936-.022-.22891-.022-.39028 0-.78057.3553-.85196.6853h-.01269v-.6028h-.60288v3.1111h.63937v-1.4786c0-.6854.35538-1.0646.79325-1.0646.06665 0 .13329.0117.19503.0225h.00008c.02642.0046.05195.0091.07619.0124zm6.44757.0587h.6394v3.1111h-.6394zm.6394-1.1836h-.6394v.6505h.6394zm-7.08856 2.7447c0-.8885.54417-1.6452 1.40882-1.6452.92336 0 1.47864.8884 1.37234 1.8213h-2.1418c0 .4855.2475.9233.78057.9233.37759 0 .60288-.1776.70917-.5203h.61557c-.1412.6742-.68538 1.0534-1.32474 1.0534-.91066 0-1.41993-.6743-1.41993-1.6325zm1.41041-1.0995c-.44898 0-.74566.3554-.76946.8282h1.50243c-.0238-.4379-.29509-.8282-.73297-.8282zm3.82035-.0602h-.0127c-.1888-.3427-.6029-.4855-.96937-.4855-.62668 0-1.25335.4966-1.25335 1.6198 0 .9345.43788 1.6563 1.35962 1.6563.3665 0 .733-.1412.8996-.4965h.0111v.414h.6155v-4.2931h-.6504zm-.7933 2.2592c-.55526 0-.80434-.5331-.80434-1.0646 0-.568.21259-1.1359.81544-1.1359.4966 0 .8044.4029.8044 1.101.0016.5315-.2348 1.0995-.8155 1.0995zm3.4063-3.5951h.6393v.9345h.5791v.5092h-.5791v1.6691c0 .2824.0238.4251.3078.4251.0936 0 .1777 0 .2713-.0238v.5331c-.0514.004-.101.0097-.1501.0152-.0872.01-.1726.0197-.264.0197-.6742 0-.7932-.284-.8043-.7932v-1.8452h-.4855v-.5092h.4855zm10.4472.9345h-.6394v3.1111h.6394zm4.2582.4727c.1888-.3442.5203-.5568.9106-.5568.6283 0 1.0297.3681 1.0297 1.0629v2.1307h-.6378v-1.953c-.0111-.4854-.1888-.698-.568-.698-.4378 0-.7091.3553-.7091.817v1.834h-.6394v-3.1111h.6029v.4617zm-4.2582-1.6563h-.6394v.6505h.6394zm-3.135 1.6563c.1888-.3442.5204-.5568.9107-.5568.6266 0 1.0296.3681 1.0312 1.0629v2.1307h-.6394v-1.953c-.0126-.4854-.2014-.698-.5679-.698-.4379 0-.7092.3553-.7092.817v1.834h-.6394v-3.1111h.6029v.4617zm-2.7923 2.0942c.9107 0 .9472-.6631.9472-1.2422h.0016v-2.5083h.698v2.7574c0 1.0994-.652 1.6436-1.6452 1.6436-.9931 0-1.6563-.5442-1.6563-1.6436v-2.7574h.7092v2.5083c0 .5791.0349 1.2422.9455 1.2422zm7.7613-2.651c-.9345 0-1.4675.6854-1.4675 1.6452 0 .9456.533 1.6325 1.4675 1.6325.9344 0 1.4675-.6854 1.4675-1.6325-.0016-.9583-.5346-1.6452-1.4675-1.6452zm0 2.7446c-.5807 0-.8282-.5679-.8282-1.0994 0-.5442.2491-1.101.8282-1.101s.8282.5568.8282 1.101c0 .5315-.2491 1.0994-.8282 1.0994zm-8.9321-11.8274v5.1086h1.3359v-1.999h.5568c.5948 0 .6151.2177.672.8269l.0023.025.0146.1388c.0408.3909.0765.7326.1504 1.0083h1.431c-.0975-.3246-.1656-.82-.213-1.1642v-.0001-.0001l-.0123-.089-.0036-.0271c-.1039-.7761-.161-1.2027-1.0847-1.2278v-.0349l.0314-.0052c.1492-.0243.4151-.0675.7016-.255.2252-.1539.4378-.3903.4378-.9456s-.1903-.8392-.3315-.9931c-.284-.3205-.6156-.3665-1.4676-.3665zm2.732 1.5722c0 .1539-.0587.4728-.3427.5791-.119.0349-.2602.0349-.5553.0349h-.4966v-1.2533h.4966c.3903 0 .898 0 .898.6393zm-3.135-.5806v-.9821h-3.5839v5.0991h3.6442v-.9932h-2.3433v-1.0883h2.1529v-.9821h-2.1529v-1.0534zm-8.67027-.9932h2.02281c.56796 0 1.32476.0587 1.82136.4252.7091.5093.8995 1.3612.8995 2.118 0 1.1359-.3316 1.9625-1.3009 2.3655-.4855.2015-1.0773.2015-1.40886.2015h-2.03391zm1.35964 4.1281h.56798c.88685-.0111 1.45485-.4141 1.45485-1.5976 0-1.5611-1.0884-1.5611-1.50245-1.5611h-.52038zm17.50873-4.1281v5.1102h3.4904v-1.0059h-2.1418v-4.1043zm-19.31894.0111v.9821h-2.28299v1.0534h2.1529v.9821h-2.1529v1.0883h2.34169v.9932h-3.65374v-5.0991zm-.72186-1.5849h1.9165l.33159 1.0296h1.50241l-1.8927-5.12283h-1.61983l-1.8816 5.12283h1.32474zm.97094-3.08738h.0238l.61557 2.14178h-1.30094zm6.78396-.95349-1.7214 5.07047h-1.5849l-1.69124-5.12283h1.46594l1.0883 3.71563 1.1487-3.71563h1.2644.0492 1.4898l1.0407 2.1529 1.0884-2.1529h1.3612l-1.8705 3.31263v1.8102h-1.3359v-1.8689zm15.7763 11.31657h-30.131113v1.3486h30.131113zm1.7737.5966c-.0032-.3983-.3094-.7156-.7092-.7156-.3903 0-.7091.3205-.7091.7219 0 .403.3188.7219.7091.7219.3998 0 .706-.3157.7092-.7155zm-.7092.6219c-.3189 0-.579-.2713-.579-.6156 0-.3427.2601-.6156.579-.6156.3205 0 .5807.2713.5807.6156-.0016.3427-.2618.6156-.5807.6156zm.1301-.6029v.0111c.0714.0127.119.0714.1428.1888.0127.1301.0349.1777.0476.2015h-.1301c-.0238-.0238-.0492-.0952-.0603-.2015-.0238-.1063-.0714-.1412-.1777-.1412h-.0825v.3427h-.1301v-.8044c.0322 0 .0621-.0023.0942-.0049.0376-.003.0783-.0062.1295-.0062.119 0 .2015.0238.2491.0587s.0714.0825.0714.165c0 .1079-.0587.1666-.1539.1904zm-.2618-.0365h.0952c.1079 0 .1904-.0476.1888-.1412 0-.0698-.0476-.1412-.1888-.1412-.0476 0-.0714 0-.0952.0111z" fill="#143664" fill-rule="evenodd"/></svg>