<svg fill="none" height="32" viewBox="0 0 32 32" width="32" xmlns="http://www.w3.org/2000/svg"><path d="m18.8016 19.9401c-.0026.0026-.0052.0026-.0052.0052-1.9593 1.3866-4.2789 2.8431-6.7747 4.3722l-.0985.057c-.0337.0233-.0415.07-.0181.1037.0233.0337.0699.0415.1036.0181l.083-.044c2.1174-1.1041 4.5484-2.4155 6.995-3.7606.0129-.0078.0259-.0155.0388-.0207-.1347-.2229-.2462-.4665-.3239-.7309zm12.8548-10.40566c-3.0867-3.4055-22.95209-.3421-31.398447 1.50316l-.196969.0415c-.0414673.0078-.06738415.0466-.05960905.0855.0077751.0415.04665015.0674.08552565.0596l.1943774-.0388c6.997592-1.24665 21.552622-2.97273 24.683322.1321.9564.9486.7283 2.1667-.3809 3.6077.5961.3836 1.0211.9874 1.2129 1.7416 4.3281-2.8716 7.2334-5.6162 5.8598-7.13236z" fill="#d03027"/><path clip-rule="evenodd" d="m3.7981 17.4709c-.42555.0847-.66357.1172-1.08371.1172-.6239 0-1.11978-.3101-1.09273-.8782.01983-.3786.46702-1.1756 1.60484-1.1756.35883 0 .63832.0631 1.01519.2777l.16589-.9269c-.5121-.1929-.8511-.2218-1.29108-.2182-1.49304.0163-2.924767.6943-3.103282 2.0737-.180319 1.4011 1.530902 1.7527 2.290042 1.7491.43818-.0018.89438-.0198 1.31994-.0631zm20.0311 1.6626c-.687 0-1.2154-.6835-1.2424-1.5165-.0397-1.1018.7014-2.7319 1.8464-2.73.6871 0 1.228.6816 1.2569 1.5164.0396 1.0928-.5284 2.7301-1.8609 2.7301zm.7393-4.4395c-1.6193 0-2.7337 1.4552-2.685 2.8779.0379 1.1072.7466 1.8266 1.8321 1.8266 1.6323 0 2.6597-1.2804 2.6845-2.7167.0905-.012.2197-.0259.2781-.0259.0956 0 .1857.018.1911.1136.0015.0451-.0641.3186-.1008.4714-.0087.0364-.0158.0659-.02.084l-.2037.8979c-.083.3679-.1714.752-.2507 1.0567h.5229l.294-1.4227c.8961-.9341 1.2423-1.2388 1.4533-1.2388.0956 0 .1605.0505.1659.1641.0054.1641-.0974.5373-.1316.6455l-.2994 1.0369c-.0685.2326-.119.4436-.1136.5932.0091.2272.1461.3282.3517.3282.3545 0 .6191-.3428.8484-.7047.1157.4623.483.7065.915.7065.6239 0 1.1559-.4274 1.4173-.9593l-.1027-.0703c-.2074.3227-.6149.6509-1.0224.6509-.4725 0-.6997-.3173-.7141-.6942-.0054-.1443.0054-.2398.0325-.3354.842-.0198 2.1205-.2975 2.088-1.2081-.0144-.4058-.3642-.5698-.7411-.5698-.8781 0-1.951 1.062-1.9095 2.2071.0009.0282.0027.0559.0051.083-.104.1652-.3183.4778-.4884.4778-.0558 0-.1099-.0379-.1117-.1317-.0055-.1208.045-.3029.0811-.4237l.3336-1.2154c.0901-.3354.1316-.5499.1298-.6653-.009-.2272-.1406-.3336-.3444-.3336-.3444 0-.8006.2524-1.7689 1.365h-.0144l.1226-.5428c.0138-.0618.0276-.1241.0413-.1861.0522-.2361.103-.4661.1516-.6361-.3268.1177-.7906.2491-1.0877.3091-.0443-1.0986-.7518-1.8148-1.8298-1.8148zm-18.24599 2.5659c.09376-.0198.16769-.0415.2254-.0631-.02705.1605-.05049.2633-.06853.3102-.02885.0703-.06671.128-.11901.1731-.07032.0613-.16409.11-.27408.146-.10819.0361-.21999.0541-.33539.0541-.15327 0-.26146-.0234-.32638-.0685-.06311-.0469-.08655-.1046-.07393-.1785.01082-.0703.04869-.1262.1118-.1731.06672-.0487.18392-.083.35342-.11.24524-.0397.41474-.0685.5067-.0902zm1.58449-.583h.00001c.02563-.1471.04284-.2458.04738-.3546.01082-.3607-.30293-.6402-1.28928-.6402-.61849 0-1.20453.0577-1.83023.1497l-.25786.696c.47424-.1172 1.39567-.2777 1.88614-.1803.18392.0361.2272.1154.20195.2525-.01262.0757-.05049.1172-.14425.1532-.06672.0271-.21097.0812-.44719.101-.449.0379-.78439.0757-1.02601.1154-.23983.0379-.40572.0866-.54637.1533-.13885.0667-.26868.1406-.36244.2542-.09196.1118-.15688.2723-.16409.3967-.00902.2164.07754.321.25425.4779.17491.1532.42735.1983.86733.1983.26146 0 .43637-.0234.65275-.0793.21639-.0595.45621-.1605.65456-.2795l.01262.339 1.36321.0018.00721-.0523c-.10999-.0649-.15327-.1569-.13343-.2759l.23802-1.3362zm4.0001 1.7533.4724-2.6705h1.3055l-.4724 2.6705zm.5445-3.289c.0397-.22.3859-.3967.7718-.3967.3877 0 .6708.1785.6329.3967-.0415.22-.3859.3985-.7754.3985-.3858 0-.6671-.1785-.6293-.3985zm5.6416 2.1242c.0919-.0217.1677-.0433.2272-.0632-.0289.1605-.0523.2633-.0703.3084-.0271.0685-.065.128-.1155.1731-.0721.0613-.164.1082-.2758.1461-.11.0342-.2218.0504-.3354.0504-.1533 0-.2615-.0216-.3282-.0667-.0613-.0451-.0884-.1046-.0739-.1785.0144-.0685.0504-.1262.1136-.1713.0649-.0487.1839-.0829.3516-.11l.0364-.0059h.0001c.2256-.0365.3829-.0619.4702-.0824zm1.5801-.5563v-.0001c.0296-.1615.0487-.2659.0536-.3831.009-.3588-.3048-.6401-1.2875-.6419-.6185 0-1.2027.0577-1.8302.1496l-.2561.6961c.4742-.1173 1.3921-.2777 1.8861-.1804.1822.0379.2236.1172.2002.2525-.0144.0775-.0505.119-.1461.1551-.0667.027-.2109.0793-.4454.0991-.4489.0379-.7861.0776-1.0278.1154-.238.0397-.4039.0884-.5445.1551-.1407.0667-.2705.1389-.3643.2543-.0937.11-.1587.2704-.1641.3967-.009.2163.0758.3191.2543.4778.1749.1551.4255.1984.8655.1984.2651 0 .44-.0235.6564-.0812.2145-.0577.4562-.1587.6545-.2795l.0108.3408 1.3633-.0018.0072-.0469c-.11-.0649-.1533-.1586-.1335-.2759l.2362-1.3379zm-5.1751-1.5084-.0938.5445v-.0018h-.5085l-.101.541h.4941l-.3931 2.1422c.0054-.009 1.3199 0 1.3199 0l.3949-2.1476.6492.0018.1262-.5374h-.669l.1461-.8402zm7.1894-.4599-.6347 3.6875-1.3289.0018.6689-3.7253zm-11.97136 1.7996c.13704-.1027.29216-.155.46346-.155s.3029.0541.3985.1586c.0973.1046.1298.2615.0919.4725-.0252.1334-.0721.2488-.1442.3516-.0667.0992-.1443.1605-.2561.22-.0901.0451-.2128.0667-.33177.0667-.17671 0-.31015-.0523-.40391-.1551-.09196-.1027-.11721-.2704-.07574-.5031.03427-.2001.12082-.3516.25786-.4562zm-1.27666-.7663-.63652 3.5775h1.29108l.21278-1.2262c.08475.0938.15147.1533.21458.1948.06491.0415.15146.0757.25965.1046.11.027.24345.0432.40215.0432.449-.0018.7645-.0685 1.1143-.3245.3535-.2561.568-.6023.6456-1.0441.0469-.265.0288-.5103-.0577-.7267-.083-.2199-.2399-.3894-.4616-.5067-.2236-.1154-.4076-.1316-.7069-.1316-.2705 0-.5193.0667-.7411.1569-.21999.0902-.37867.2019-.47785.339l.08836-.4562zm23.06032.9395c-.0072-.2146-.1154-.3607-.3372-.3607-.5356 0-1.1054 1.0495-1.2028 1.4714.8782.0018 1.5616-.5211 1.54-1.1107z" fill="#004977" fill-rule="evenodd"/></svg>