<svg fill="none" height="32" viewBox="0 0 32 32" width="32" xmlns="http://www.w3.org/2000/svg"><path d="m14.8243 4c1.3112.52447 2.0691 1.57343 2.5673 2.76923 1.0935.26224 2.1451.44843 3.1469.76049 1.8356.56906 3.354 1.62587 4.3505 3.30678.6635 1.1198 1.0489 2.3313.7657 3.6714-.1232.6057-.4222.868-1.0332.868h-17.61188c-.1049 0-.20717 0-.29896-.0184-.52447-.2832-.60839-.7867-.71066-1.2771.00488-.6554.09749-1.3071.27535-1.9379.31309-1.033.88335-1.9697 1.65734-2.72205 1.37937-1.35052 3.07871-2.05594 4.94321-2.39947.5926-.11014 1.1879-.18881 1.7963-.28322.2622-.99913.3016-1.90909-.3514-2.73252zm-7.62587 12.2465h17.33387c.0341.5245.1076 1.0096.0945 1.4974-.063 2.0664-.5035 4.028-1.7387 5.7404-1.1586 1.5905-2.8589 2.7023-4.7806 3.1258-.6587.1252-1.2567.4667-1.6993.9703-.1568.1546-.3271.295-.5087.4196-.2587-.1556-.4966-.3432-.7081-.5586-.354-.472-.826-.6451-1.3741-.7683-2.4755-.5612-4.41345-1.8698-5.60664-4.1617-.67231-1.3554-1.03508-2.8431-1.06206-4.3558-.02622-.6215.03409-1.2456.04982-1.9091z" fill="#88c75a"/></svg>