<svg fill="none" height="87" viewBox="0 0 102 87" width="102" xmlns="http://www.w3.org/2000/svg" xmlns:xlink="http://www.w3.org/1999/xlink"><clipPath id="a"><path d="m62 0h40v40h-40z"/></clipPath><path d="m29.6842 46.5v21h8.5263v-21zm17.0526 0v21h8.5264v-21zm-22.7368 36h54v-9h-54zm39.7895-36v21h8.5263v-21zm-12.7895-27-27 15v6h54v-6z" fill="#0c6cf2"/><g clip-path="url(#a)"><circle cx="82" cy="20" fill="#fff" r="20"/><path d="m82 4c-8.832 0-16 7.168-16 16s7.168 16 16 16 16-7.168 16-16-7.168-16-16-16zm-3.2 24-8-8 2.256-2.256 5.744 5.728 12.144-12.144 2.256 2.272z" fill="#17ce73"/></g></svg>