<svg fill="none" height="32" viewBox="0 0 32 32" width="32" xmlns="http://www.w3.org/2000/svg" xmlns:xlink="http://www.w3.org/1999/xlink"><clipPath id="a"><path d="m0 0h32v32h-32z"/></clipPath><g clip-path="url(#a)"><g fill="#003b70"><path d="m24.7477 23.081c-.6745.4107-1.3022.6172-1.8659.6172-.8167 0-1.1858-.4311-1.1858-1.3913v-6.5483h2.5747v-2.3239h-2.5747v-3.84005l-2.4779 1.32605v2.514h-2.1376v2.3239h2.1376v6.966c0 1.8979 1.1242 3.1944 2.8024 3.2281 1.1395.0223 1.8264-.3171 2.2436-.5653l.0245-.0182.6086-2.3795z"/><path d="m9.38446 22.1881.05545-.0536 1.43099 1.7307-.0382.0436c-1.1901 1.407-2.61806 2.0912-4.37356 2.0912-1.76157 0-3.37188-.5896-4.53242-1.6636-1.260966-1.1582-1.92672-2.795-1.92672-4.7275 0-1.9334.665754-3.5662 1.92672-4.724 1.16054-1.0692 2.77085-1.662 4.53242-1.662 1.7555 0 3.18346.6846 4.37356 2.0909l.0382.047-1.43099 1.7304-.05545-.0553c-.89383-.9131-1.92838-1.3977-2.99439-1.3977-2.22516 0-3.84039 1.6716-3.84039 3.9707 0 2.3033 1.61523 3.9725 3.84039 3.9725 1.06601 0 2.10056-.4826 2.99439-1.3933z"/><path d="m14.8451 25.7645h-2.5281v-12.3411h2.5281z"/><path d="m29.3712 25.7645h-2.5297v-12.3411h2.5297z"/></g><path clip-rule="evenodd" d="m30.8853 11.2336c-2.3142-3.27791-6.1574-5.2336-10.0675-5.2336-3.9086 0-7.7526 1.95569-10.0629 5.2336l-.1185.1687h2.9138l.0323-.035c1.9833-2.04697 4.5722-3.12949 7.2353-3.12949 2.6633 0 5.2517 1.08252 7.2388 3.12949l.0323.035h2.9129z" fill="#d9261c" fill-rule="evenodd"/></g></svg>