<svg fill="none" height="32" viewBox="0 0 32 32" width="32" xmlns="http://www.w3.org/2000/svg" xmlns:xlink="http://www.w3.org/1999/xlink"><clipPath id="a"><path d="m0 0h32v32h-32z"/></clipPath><g clip-path="url(#a)"><path clip-rule="evenodd" d="m23.9061 18.2102c-1.4984 0-3.5969 0-3.5969 0 .1497-.3743.0755-.8983-.2245-1.4984l-2.0237-3.3717-3.3723-5.92112s-1.2738-2.39797-3.1471-3.8215c1.199.44976 16.3369 9.29222 16.3369 9.29222 2.4734 1.499 4.6461 5.2456-3.9724 5.3205zm-11.3907 9.518c-2.4734 1.4235-6.89491 1.4235-2.62311-6.0697.74921-1.275 1.79841-3.1477 1.79841-3.1477.3001.3743.7499.5989 1.4242.5989h3.9717 6.8195s2.6986.0748 4.872-.8234c-.9744.7486-16.2627 9.4419-16.2627 9.4419zm-5.17069-20.68414c0-2.8471 2.24818-6.66977 6.59479.74977.7492 1.34931 1.7985 3.14777 1.7985 3.14777-.4498.0742-.8246.3749-1.199.9744l-1.9487 3.4471-3.44716 5.8451s-1.42414 2.323-1.72359 4.7222c-.15036-1.3499-.07484-18.88634-.07484-18.88634zm8.61789-7.04406c-8.84308 0-15.9626 7.11952-15.9626 15.9626 0 8.8425 7.11952 16.0374 15.9626 16.0374 8.8437 0 16.038-7.1949 16.038-16.0374 0-8.84308-7.1943-15.9626-16.038-15.9626z" fill="#e6863e" fill-rule="evenodd"/></g></svg>