<svg fill="none" height="32" viewBox="0 0 32 32" width="32" xmlns="http://www.w3.org/2000/svg"><path d="m27.8404 16.0762c0-1.6682-.2901-3.2385-.8703-4.7108-.5803-1.47237-1.389-2.74888-2.4261-3.82959-1.0372-1.08067-2.2775-1.94013-3.7208-2.57841-1.4433-.63824-3.0281-.95737-4.7543-.9574-7.50957 0-12.0689 5.31998-12.0689 12.0762 0 6.6144 5.19313 11.7866 10.7561 11.9238l6.1546-6.8098-.1002-.1692v6.5003h7.0299zm-7.0552 4.9704-4.8432.0123c-3.3187 0-6.98788-4.7763-3.2457-8.5185 3.3203-3.32032 8.2955-.5971 8.2955 4.0235z" fill="#5c105d"/></svg>