<svg fill="none" height="80" viewBox="0 0 80 80" width="80" xmlns="http://www.w3.org/2000/svg"><path d="m6.84509 29.0732-3.64998 3.65c-1.01025.9705-1.814 2.1351-2.363048 3.4239-.549053 1.2888-.832062 2.6752-.832062 4.0761s.283009 2.7873.832062 4.0761c.549048 1.2888 1.352798 2.4534 2.363048 3.4239l29.40489 29.6951c.697.713 1.5081 1.3044 2.4 1.75v-35.9951z" fill="#3d89f5"/><path d="m73.1549 29.0732 3.65 3.65c1.0102.9705 1.814 2.1351 2.363 3.4239.5491 1.2888.8321 2.6752.8321 4.0761s-.283 2.7873-.8321 4.0761c-.549 1.2888-1.3528 2.4534-2.363 3.4239l-29.4049 29.6951c-.697.713-1.5081 1.3044-2.4 1.75v-35.9951z" fill="#1656b9"/><path d="m66.0951 21.6232-18.4-18.45002c-.9741-1.00398-2.1399-1.80219-3.4282-2.34726-1.2883-.545068-2.6729-.82592-4.0718-.82592s-2.7836.280852-4.0719.82592c-1.2883.54507-2.454 1.34328-3.4281 2.34726l-18.45 18.45002 25.85 12.9z" fill="#85b5f8"/></svg>