<svg fill="none" height="72" viewBox="0 0 72 72" width="72" xmlns="http://www.w3.org/2000/svg"><circle cx="36" cy="36" fill="#0c6cf2" r="36"/><g fill="#fff"><path d="m18.5937 30.2634-1.9163 1.9163c-.5303.5095-.9523 1.1209-1.2406 1.7975-.2882.6766-.4368 1.4045-.4368 2.14 0 .7354.1486 1.4633.4368 2.1399.2883.6767.7103 1.2881 1.2406 1.7976l15.4376 15.5899c.3659.3743.7918.6848 1.26.9188v-18.8975z"/><path d="m53.4063 30.2634 1.9163 1.9163c.5303.5095.9523 1.1209 1.2406 1.7975.2882.6766.4368 1.4045.4368 2.14 0 .7354-.1486 1.4633-.4368 2.1399-.2883.6767-.7103 1.2881-1.2406 1.7976l-15.4376 15.5899c-.3659.3743-.7918.6848-1.26.9188v-18.8975z"/><path d="m49.6998 26.3522-9.66-9.6863c-.5114-.5271-1.1235-.9461-1.7998-1.2323-.6764-.2862-1.4033-.4336-2.1377-.4336s-1.4614.1474-2.1378.4336c-.6763.2862-1.2883.7052-1.7997 1.2323l-9.6863 9.6863 13.5713 6.7725z"/></g></svg>