<svg width="374" height="24" viewBox="0 0 374 24" fill="none" xmlns="http://www.w3.org/2000/svg">
<g clip-path="url(#clip0_273_14541)">
<path fill-rule="evenodd" clip-rule="evenodd" d="M139.92 3.87901C139.896 3.47425 139.994 3.0716 140.201 2.72319C140.409 2.37478 140.716 2.09666 141.083 1.92483C141.451 1.753 141.861 1.69538 142.261 1.75944C142.662 1.82349 143.034 2.00626 143.329 2.28408C143.624 2.56191 143.829 2.922 143.918 3.31772C144.006 3.71345 143.974 4.12659 143.825 4.50365C143.675 4.88071 143.417 5.20433 143.081 5.4326C142.746 5.66088 142.35 5.7833 141.945 5.78401C141.687 5.79201 141.43 5.74907 141.188 5.65764C140.947 5.56622 140.726 5.4281 140.538 5.25118C140.35 5.07426 140.198 4.86201 140.092 4.62656C139.986 4.39112 139.928 4.13709 139.92 3.87901ZM140.07 7.52401H143.805V21.024H140.07V7.52401ZM40.2 3.02397H33V21.024H40.71C44.745 21.024 46.905 18.909 46.905 16.044C46.958 14.9402 46.5707 13.8605 45.8282 13.042C45.0857 12.2236 44.0487 11.7334 42.945 11.679V11.499C43.8642 11.3575 44.7008 10.8872 45.2995 10.1754C45.8981 9.46366 46.2181 8.55883 46.2 7.62897C46.2 4.94397 44.175 3.02397 40.2 3.02397ZM42.345 8.24397C42.345 9.66897 41.13 10.524 39.63 10.524L36.75 10.569V6.06897H39.69C41.385 6.06897 42.345 6.81897 42.345 8.24397ZM42.9 15.639C42.9 16.989 42.03 17.874 39.9 17.874H36.75V13.104H39.9C40.2674 13.0508 40.6418 13.0762 40.9986 13.1784C41.3554 13.2806 41.6865 13.4573 41.97 13.6969C42.2535 13.9365 42.483 14.2334 42.6433 14.5682C42.8036 14.903 42.8911 15.2679 42.9 15.639ZM48.75 21.024H52.545L52.485 3.02397H48.75V21.024ZM54.51 14.319C54.51 10.134 57.06 7.34403 61.155 7.34403C65.25 7.34403 67.8 10.134 67.8 14.319C67.8 18.504 65.25 21.279 61.155 21.279C57.06 21.279 54.51 18.489 54.51 14.319ZM63.99 14.3116C63.9879 11.9604 63.013 10.224 61.17 10.224C59.325 10.224 58.305 11.964 58.305 14.319C58.305 16.674 59.28 18.399 61.17 18.399C63.058 18.399 63.988 16.6628 63.99 14.3116ZM75.84 7.34403C71.745 7.34403 69.21 10.179 69.21 14.319C69.21 18.429 71.7 21.279 75.84 21.279C79.395 21.279 81.66 19.179 81.84 16.074H78.3C78.2614 16.6921 77.9855 17.2713 77.5298 17.6906C77.0742 18.1099 76.4741 18.3368 75.855 18.324C74.1 18.324 72.975 16.779 72.975 14.274C72.975 11.769 74.115 10.269 75.855 10.269C76.4741 10.2562 77.0742 10.4832 77.5298 10.9025C77.9855 11.3218 78.2614 11.901 78.3 12.519H81.84C81.72 9.39903 79.365 7.34403 75.84 7.34403ZM83.805 3.02397H87.555V12.639H87.75L92.085 7.52397H96.375L91.365 13.374L96.63 21.024H92.25L88.56 15.579L87.555 16.734V21.024H83.805V3.02397ZM103.245 7.34403C99.15 7.34403 96.615 10.179 96.615 14.319C96.615 18.429 99.105 21.279 103.275 21.279C106.845 21.279 109.095 19.179 109.275 16.074H105.75C105.708 16.6934 105.429 17.2726 104.971 17.6916C104.512 18.1106 103.911 18.337 103.29 18.324C101.535 18.324 100.41 16.779 100.41 14.274C100.41 11.769 101.55 10.269 103.29 10.269C103.911 10.256 104.512 10.4825 104.971 10.9015C105.429 11.3204 105.708 11.8997 105.75 12.519H109.245C109.14 9.39903 106.77 7.34403 103.245 7.34403ZM114.96 21.024H111.225V3.02397H114.855V9.90897H115.02C115.325 9.10298 115.883 8.41752 116.611 7.95515C117.338 7.49278 118.196 7.27836 119.055 7.34397C121.86 7.34397 123.72 9.26397 123.72 12.429V21.024H119.97V13.089C120.02 12.7521 119.993 12.4084 119.894 12.0829C119.794 11.7573 119.623 11.458 119.393 11.2067C119.163 10.9554 118.881 10.7584 118.565 10.6299C118.25 10.5015 117.91 10.4448 117.57 10.464C117.21 10.4495 116.852 10.5121 116.518 10.6478C116.185 10.7835 115.885 10.989 115.637 11.2505C115.39 11.512 115.202 11.8234 115.085 12.1638C114.968 12.5042 114.925 12.8657 114.96 13.224V21.024ZM130.62 13.089C127.95 13.344 125.55 14.259 125.55 17.259C125.55 19.929 127.455 21.279 130.035 21.279C130.828 21.3403 131.621 21.172 132.321 20.7943C133.02 20.4165 133.596 19.8454 133.98 19.149H134.085V21.024H137.64V11.904C137.64 8.67903 134.91 7.32903 131.91 7.32903C128.67 7.32903 126.555 8.87403 126.03 11.334L129.495 11.619C129.663 11.1321 129.993 10.7174 130.43 10.4444C130.866 10.1714 131.384 10.0566 131.895 10.119C133.17 10.119 133.89 10.764 133.89 11.874C133.89 12.759 132.975 12.864 130.62 13.089ZM133.92 14.694V16.194C133.899 16.5391 133.81 16.8766 133.657 17.1866C133.504 17.4966 133.29 17.7729 133.029 17.9993C132.768 18.2257 132.464 18.3975 132.135 18.5048C131.806 18.6121 131.46 18.6526 131.115 18.624C129.96 18.624 129.135 18.099 129.135 17.049C129.135 15.999 130.005 15.474 131.325 15.294C132.215 15.221 133.089 15.0189 133.92 14.694ZM146.25 21.024H150.06L150 13.224C149.959 12.8695 149.994 12.5102 150.105 12.1708C150.216 11.8314 150.398 11.5199 150.64 11.2578C150.883 10.9956 151.179 10.7889 151.508 10.6519C151.838 10.5149 152.193 10.4508 152.55 10.464C152.889 10.4476 153.228 10.5061 153.542 10.6355C153.856 10.7649 154.138 10.9619 154.367 11.2126C154.596 11.4632 154.767 11.7614 154.868 12.0857C154.969 12.41 154.997 12.7526 154.95 13.089V21.024H158.7V12.429C158.7 9.27901 156.855 7.34401 154.035 7.34401C153.174 7.29085 152.318 7.50997 151.588 7.97033C150.859 8.43069 150.293 9.10895 149.97 9.90901H149.82V7.52401H146.25V21.024Z" fill="white"/>
<path opacity="0.8" fill-rule="evenodd" clip-rule="evenodd" d="M199.95 7.524H196.38L196.365 21.024H200.115V12.924C200.084 12.6144 200.117 12.3018 200.212 12.0055C200.307 11.7093 200.463 11.4359 200.668 11.2022C200.873 10.9686 201.125 10.7798 201.407 10.6477C201.688 10.5155 201.994 10.4428 202.305 10.434C202.589 10.4218 202.871 10.4708 203.134 10.5775C203.397 10.6842 203.634 10.8461 203.829 11.0524C204.024 11.2586 204.172 11.5044 204.264 11.7729C204.355 12.0415 204.388 12.3266 204.36 12.609V21.024H207.99V12.774C207.958 12.4728 207.99 12.1682 208.086 11.8808C208.181 11.5933 208.338 11.3297 208.544 11.1079C208.75 10.886 209.001 10.711 209.281 10.5947C209.561 10.4785 209.862 10.4237 210.165 10.434C210.457 10.421 210.748 10.4717 211.018 10.5825C211.288 10.6933 211.531 10.8617 211.729 11.0758C211.927 11.2899 212.077 11.5447 212.167 11.8225C212.257 12.1002 212.285 12.3942 212.25 12.684V21.024H216V12.024C216.029 11.0334 215.721 10.0623 215.125 9.27044C214.529 8.47859 213.681 7.91311 212.721 7.667C211.761 7.42089 210.746 7.50879 209.842 7.91626C208.939 8.32373 208.201 9.0265 207.75 9.909H207.54C207.312 9.12608 206.824 8.44464 206.155 7.97799C205.487 7.51135 204.678 7.28762 203.865 7.344C203.046 7.3073 202.238 7.53761 201.562 8.00024C200.885 8.46287 200.378 9.13276 200.115 9.909H199.95V7.524ZM173.7 7.34402C169.605 7.34402 167.085 10.179 167.085 14.319C167.085 18.429 169.56 21.279 173.775 21.279C177.345 21.279 179.61 19.179 179.775 16.074H176.25C176.208 16.6934 175.929 17.2726 175.471 17.6916C175.012 18.1106 174.411 18.337 173.79 18.324C172.05 18.324 170.91 16.779 170.91 14.274C170.91 11.769 172.05 10.269 173.79 10.269C174.411 10.256 175.012 10.4825 175.471 10.9015C175.929 11.3204 176.208 11.8997 176.25 12.519H179.7C179.595 9.39903 177.225 7.34402 173.7 7.34402ZM161.87 17.6588C161.477 18.0494 161.254 18.5797 161.25 19.1341C161.248 19.4111 161.301 19.6858 161.406 19.9423C161.51 20.1988 161.665 20.4321 161.86 20.6287C162.055 20.8253 162.287 20.9813 162.543 21.0878C162.799 21.1943 163.073 21.2491 163.35 21.2491C163.907 21.2491 164.441 21.0278 164.835 20.634C165.229 20.2402 165.45 19.706 165.45 19.1491C165.45 18.5921 165.229 18.058 164.835 17.6641C164.441 17.2703 163.907 17.0491 163.35 17.0491C162.796 17.0491 162.264 17.2682 161.87 17.6588ZM181.14 14.319C181.14 10.134 183.69 7.34402 187.785 7.34402C191.88 7.34402 194.415 10.134 194.415 14.319C194.415 18.504 191.88 21.279 187.785 21.279C183.69 21.279 181.14 18.489 181.14 14.319ZM190.62 14.3116C190.618 11.9604 189.643 10.224 187.8 10.224C185.955 10.224 184.935 11.964 184.935 14.319C184.935 16.674 185.91 18.399 187.8 18.399C189.688 18.399 190.618 16.6628 190.62 14.3116Z" fill="white"/>
<path d="M2.05353 8.72217L0.958534 9.81717C0.65546 10.1083 0.414334 10.4577 0.249619 10.8443C0.0849028 11.231 0 11.6469 0 12.0672C0 12.4874 0.0849028 12.9034 0.249619 13.29C0.414334 13.6766 0.65546 14.026 0.958534 14.3172L9.78001 23.2257C9.98909 23.4396 10.2324 23.617 10.5 23.7507V12.9522L2.05353 8.72217Z" fill="#3D89F5"/>
<path d="M21.9465 8.72217L23.0415 9.81717C23.3445 10.1083 23.5857 10.4577 23.7504 10.8443C23.9151 11.231 24 11.6469 24 12.0672C24 12.4874 23.9151 12.9034 23.7504 13.29C23.5857 13.6766 23.3445 14.026 23.0415 14.3172L14.22 23.2257C14.0109 23.4396 13.7676 23.617 13.5 23.7507V12.9522L21.9465 8.72217Z" fill="#1656B9"/>
<path d="M19.8284 6.48695L14.3084 0.951954C14.0162 0.650761 13.6665 0.411296 13.28 0.247776C12.8935 0.0842556 12.4781 0 12.0584 0C11.6388 0 11.2234 0.0842556 10.8369 0.247776C10.4504 0.411296 10.1007 0.650761 9.80844 0.951954L4.27344 6.48695L12.0284 10.3569L19.8284 6.48695Z" fill="#85B5F8"/>
</g>
<path d="M252 12.7059V24H252.706V12.7059L264 12.7059V12L252.706 12V0H252V12L240 12V12.7059L252 12.7059Z" fill="#B1B8C7"/>
<path d="M336.256 0.407898H323.95C323.73 0.407898 323.511 0.589716 323.511 0.862441V23.1805C323.511 23.3169 323.555 23.4077 323.643 23.4986C323.73 23.5896 323.818 23.635 323.95 23.635H327.334C327.554 23.635 327.774 23.4532 327.774 23.1805V14.1806H335.333C335.465 14.1806 335.553 14.1351 335.641 14.0441C335.729 13.9533 335.773 13.8624 335.773 13.726V10.4533C335.773 10.226 335.597 9.99875 335.333 9.99875H327.774V4.5897H336.256C336.388 4.5897 336.476 4.54423 336.564 4.45333C336.652 4.36242 336.696 4.27151 336.696 4.13515V0.862441C336.696 0.635169 336.52 0.407898 336.256 0.407898Z" fill="white"/>
<path fill-rule="evenodd" clip-rule="evenodd" d="M305.097 15.3637C305.097 10.591 308.832 6.72742 313.447 6.72742C318.062 6.72742 321.797 10.591 321.797 15.3637C321.797 20.1365 318.062 24 313.447 24C308.832 24 305.097 20.1365 305.097 15.3637ZM313.447 19.7273C315.689 19.7273 317.491 17.7729 317.491 15.3637C317.491 12.9546 315.689 11.0002 313.447 11.0002C311.206 11.0002 309.404 12.9546 309.404 15.3637C309.404 17.7729 311.206 19.7273 313.447 19.7273Z" fill="white"/>
<path d="M342.793 7.04555C342.705 6.95463 342.617 6.90918 342.485 6.90918H339.101C338.881 6.90918 338.662 7.091 338.662 7.36372V23.1818C338.662 23.3182 338.706 23.4091 338.793 23.5C338.881 23.5909 338.969 23.6364 339.101 23.6364H342.485C342.705 23.6364 342.925 23.4545 342.925 23.1818V7.36372C342.925 7.22736 342.881 7.13646 342.793 7.04555Z" fill="white"/>
<path d="M340.859 4.86356C342.134 4.86356 343.188 3.77265 343.188 2.45448C343.188 1.13631 342.134 0.0454102 340.859 0.0454102C339.585 0.0454102 338.53 1.13631 338.53 2.45448C338.53 3.81812 339.585 4.86356 340.859 4.86356Z" fill="white"/>
<path d="M297.098 10.0454C293.757 8.59081 292.703 7.95445 292.703 6.59083C292.703 4.90902 294.285 4.27266 295.735 4.27266C297.273 4.27266 298.943 5.13629 298.943 7.49991C298.943 7.68173 299.075 7.81809 299.251 7.81809H302.943C303.119 7.81809 303.25 7.68173 303.25 7.49991C303.25 3.09084 300.174 0.0454102 295.779 0.0454102C291.34 0.0454102 288.483 2.59085 288.483 6.54538C288.483 11.2726 291.868 12.6362 295.164 13.909L295.34 13.9998C298.328 15.1817 299.471 15.7726 299.471 17.318C299.471 19.4089 297.405 19.7271 296.175 19.7271C293.933 19.7271 292.307 18.0907 292.307 15.8635V15.6362C292.307 15.4544 292.175 15.318 291.999 15.318H288.308C288.132 15.318 288.044 15.4544 288 15.5908V15.6362C288 15.6816 288 15.7726 288 15.8181C288 20.5908 291.34 23.9089 296.131 23.9089C300.613 23.9089 303.646 21.2271 303.646 17.2726C303.69 13.4999 301.756 12.0454 297.098 10.0454Z" fill="white"/>
<path fill-rule="evenodd" clip-rule="evenodd" d="M373.503 3.74287C373.503 5.81001 371.883 7.48575 369.884 7.48575C367.885 7.48575 366.265 5.81001 366.265 3.74287C366.265 1.67574 367.885 0 369.884 0C371.883 0 373.503 1.67574 373.503 3.74287ZM372.598 3.74287C372.598 5.29322 371.383 6.55003 369.884 6.55003C368.385 6.55003 367.17 5.29322 367.17 3.74287C367.17 2.19253 368.385 0.935719 369.884 0.935719C371.383 0.935719 372.598 2.19253 372.598 3.74287ZM373.503 11.9772C373.503 14.0444 371.883 15.7201 369.884 15.7201C367.885 15.7201 366.265 14.0444 366.265 11.9772C366.265 9.91006 367.885 8.23432 369.884 8.23432C371.883 8.23432 373.503 9.91006 373.503 11.9772ZM357.58 20.2115C357.58 22.2787 355.959 23.9544 353.961 23.9544C351.962 23.9544 350.342 22.2787 350.342 20.2115C350.342 18.1444 351.962 16.4686 353.961 16.4686C355.959 16.4686 357.58 18.1444 357.58 20.2115ZM356.675 20.2115C356.675 21.7619 355.46 23.0187 353.961 23.0187C352.462 23.0187 351.247 21.7619 351.247 20.2115C351.247 18.6612 352.462 17.4044 353.961 17.4044C355.46 17.4044 356.675 18.6612 356.675 20.2115ZM365.541 20.2115C365.541 22.2787 363.921 23.9544 361.922 23.9544C359.924 23.9544 358.303 22.2787 358.303 20.2115C358.303 18.1444 359.924 16.4686 361.922 16.4686C363.921 16.4686 365.541 18.1444 365.541 20.2115ZM373.503 20.2115C373.503 22.2787 371.883 23.9544 369.884 23.9544C367.885 23.9544 366.265 22.2787 366.265 20.2115C366.265 18.1444 367.885 16.4686 369.884 16.4686C371.883 16.4686 373.503 18.1444 373.503 20.2115ZM365.541 11.9772C365.541 14.0444 363.921 15.7201 361.922 15.7201C359.924 15.7201 358.303 14.0444 358.303 11.9772C358.303 9.91006 359.924 8.23432 361.922 8.23432C363.921 8.23432 365.541 9.91006 365.541 11.9772ZM364.637 11.9772C364.637 13.5275 363.421 14.7844 361.922 14.7844C360.423 14.7844 359.208 13.5275 359.208 11.9772C359.208 10.4268 360.423 9.17004 361.922 9.17004C363.421 9.17004 364.637 10.4268 364.637 11.9772ZM357.58 11.9772C357.58 14.0444 355.959 15.7201 353.961 15.7201C351.962 15.7201 350.342 14.0444 350.342 11.9772C350.342 9.91006 351.962 8.23432 353.961 8.23432C355.959 8.23432 357.58 9.91006 357.58 11.9772ZM365.541 3.74287C365.541 5.81001 363.921 7.48575 361.922 7.48575C359.924 7.48575 358.303 5.81001 358.303 3.74287C358.303 1.67574 359.924 0 361.922 0C363.921 0 365.541 1.67574 365.541 3.74287ZM353.961 7.48575C355.959 7.48575 357.58 5.81001 357.58 3.74287C357.58 1.67574 355.959 0 353.961 0C351.962 0 350.342 1.67574 350.342 3.74287C350.342 5.81001 351.962 7.48575 353.961 7.48575Z" fill="white"/>
<defs>
<clipPath id="clip0_273_14541">
<rect width="216" height="24" fill="white"/>
</clipPath>
</defs>
</svg>
