<svg xmlns="http://www.w3.org/2000/svg" xmlns:xlink="http://www.w3.org/1999/xlink" width="1440" height="112" fill="none" xmlns:v="https://vecta.io/nano"><style><![CDATA[.B{opacity:.64}]]></style><g clip-path="url(#H)" filter="url(#A)"><g class="B"><path d="M28.238 114.166a3.98 3.98 0 0 0 3.984-3.988c0-1.994-1.423-3.561-3.273-3.917V84.184l16.72 16.736v71.499c-1.85.356-3.273 1.923-3.273 3.917a3.98 3.98 0 1 0 7.968 0c0-1.994-1.423-3.632-3.273-3.917v-72.14L27.526 80.695v25.495c-1.85.356-3.273 1.922-3.273 3.916 0 2.279 1.779 4.06 3.984 4.06h0z" fill="url(#B)" class="B"/><path d="M-9.826 90.665c1.565 1.567 4.126 1.567 5.692 0a3.92 3.92 0 0 0 .427-5.128l22.482-22.504c1.565 1.068 3.771.926 5.123-.427 1.565-1.567 1.565-4.13 0-5.697s-4.126-1.567-5.692 0a3.92 3.92 0 0 0-.427 5.127L-4.703 84.541c-1.565-1.068-3.771-.926-5.122.427-1.565 1.496-1.565 4.13 0 5.697h0z" fill="url(#B)" class="B"/><path d="M23.969 31.201c1.565-1.567 1.565-4.131 0-5.697s-4.127-1.567-5.692 0a3.92 3.92 0 0 0-.427 5.128L.704 47.794c-1.565-1.068-3.771-.926-5.123.427-1.565 1.567-1.565 4.13 0 5.697s4.127 1.567 5.692 0a3.92 3.92 0 0 0 .427-5.127l17.146-17.163c1.565 1.068 3.771.926 5.123-.427h0z" fill="url(#B)" class="B"/><path d="M8.317-10.815c-1.565-1.567-4.127-1.567-5.692 0s-1.565 4.13 0 5.697c1.423 1.424 3.557 1.567 5.123.427l18.712 18.729L44.957-5.973v-33.684c1.85-.356 3.273-1.923 3.273-3.917a3.98 3.98 0 1 0-7.968 0c0 1.994 1.423 3.561 3.273 3.917v33.186L26.459 11.973 8.815-5.688c1.067-1.567.925-3.774-.498-5.127h0z" fill="url(#B)" class="B"/><path d="M115.322 136.527a3.98 3.98 0 1 0 7.968 0c0-1.994-1.423-3.561-3.273-3.917V62.962l-19.565 19.584v142.571c-1.85.356-3.273 1.923-3.273 3.917a3.98 3.98 0 1 0 7.969 0c0-1.994-1.423-3.632-3.273-3.917V83.045l16.72-16.735v66.229c-1.85.356-3.273 1.923-3.273 3.988h0z" fill="url(#B)" class="B"/><path d="M120.729 170.71l18.711-18.658v-39.24c1.85-.356 3.273-1.922 3.273-3.916a3.98 3.98 0 1 0-7.968 0c0 1.994 1.423 3.56 3.273 3.916v38.67l-18.712 18.658v75.772l-13.02 13.032c-1.565-1.068-3.771-.926-5.123.427-1.565 1.567-1.565 4.131 0 5.698s4.127 1.566 5.692 0c1.423-1.425 1.565-3.561.427-5.128l13.447-13.459V170.71z" fill="#070623" class="B"/><path d="M50.08 83.971l15.866 15.881v-53.98c1.85-.356 3.273-1.923 3.273-3.917a3.98 3.98 0 1 0-7.968 0c0 1.994 1.423 3.561 3.273 3.917v50.562l-13.447-13.46c1.067-1.567.925-3.774-.427-5.127-1.565-1.567-4.127-1.567-5.692 0s-1.565 4.13 0 5.697c1.423 1.353 3.557 1.495 5.122.427h0z" fill="url(#B)" class="B"/><path d="M78.681 95.223a3.98 3.98 0 1 0 7.969 0c0-1.994-1.423-3.632-3.273-3.917V76.707l54.427-54.479v47.714c-1.85.356-3.273 1.923-3.273 3.917a3.98 3.98 0 1 0 7.969 0c0-1.994-1.423-3.561-3.273-3.917V18.81L81.954 76.137v15.169c-1.85.285-3.273 1.923-3.273 3.917h0z" fill="url(#B)" class="B"/><path d="M42.965 39.604c-1.565-1.068-3.771-.926-5.123.427-1.565 1.567-1.565 4.13 0 5.697s4.127 1.567 5.692 0a3.92 3.92 0 0 0 .427-5.127l5.265-5.27V18.026c1.85-.356 3.273-1.923 3.273-3.917a3.98 3.98 0 1 0-7.969 0c0 1.994 1.423 3.561 3.273 3.917v16.735l-4.838 4.843z" fill="url(#B)" class="B"/><path d="M69.574-99.121a3.98 3.98 0 0 0 0 7.976c1.992 0 3.557-1.424 3.913-3.276h10.174l17.858 17.946v60.318L69.29 16.104c-1.565-1.068-3.771-.926-5.123.427-1.565 1.567-1.565 4.131 0 5.697s4.126 1.567 5.692 0a3.92 3.92 0 0 0 .427-5.127l32.656-32.687v-61.458L84.231-95.845H73.487c-.285-1.852-1.85-3.276-3.913-3.276h0z" fill="url(#B)" class="B"/><path d="M82.025 26.572l-.213.214v29.91L95.97 42.524c1.565 1.068 3.771.926 5.122-.427 1.565-1.567 1.565-4.13 0-5.697s-4.126-1.567-5.692 0c-1.423 1.424-1.565 3.561-.427 5.127l-11.739 11.75V27.356l35.147-35.251.213-.214v-72.852l-4.197-4.202c1.067-1.567.925-3.774-.427-5.127-1.565-1.567-4.127-1.567-5.692 0s-1.565 4.13 0 5.697c1.423 1.424 3.557 1.567 5.123.427l3.771 3.774v71.713L82.025 26.572z" fill="url(#B)" class="B"/><path d="M114.681 13.754c-1.565 1.567-1.565 4.13 0 5.697s4.127 1.567 5.692 0a3.92 3.92 0 0 0 .427-5.127l20.206-20.225 14.229 14.243v39.524c-1.85.356-3.273 1.923-3.273 3.917a3.98 3.98 0 1 0 7.969 0c0-1.994-1.423-3.561-3.273-3.917V7.772L141.006-7.896l-21.202 21.222c-1.565-1.139-3.7-.997-5.123.427h0z" fill="url(#B)" class="B"/><path d="M151.962 137.951a3.98 3.98 0 1 0 7.969 0c0-1.994-1.423-3.561-3.273-3.917V83.615c1.85-.356 3.273-1.923 3.273-3.917a3.98 3.98 0 1 0-7.969 0c0 1.994 1.423 3.632 3.273 3.917v50.419c-1.85.285-3.273 1.852-3.273 3.917z" fill="url(#B)" class="B"/><path d="M176.935 111.388c1.85-.356 3.273-1.923 3.273-3.917a3.98 3.98 0 1 0-7.969 0c0 1.994 1.423 3.561 3.273 3.917v28.486l-32.941 32.972c-1.565-1.068-3.771-.926-5.123.427-1.565 1.567-1.565 4.131 0 5.698s4.127 1.566 5.692 0c1.423-1.425 1.565-3.561.427-5.128l33.368-33.399v-29.056z" fill="url(#B)" class="B"/><path d="M231.363 152.479c-1.85.356-3.273 1.923-3.273 3.917a3.98 3.98 0 1 0 7.968 0c0-1.994-1.423-3.561-3.273-3.917v-47.642h-20.276v93.361l-22.412 22.433v45.079c-1.85.356-3.273 1.922-3.273 3.916a3.98 3.98 0 1 0 7.969 0c0-1.994-1.423-3.632-3.273-3.916v-44.509l22.412-22.433v-92.507h17.431v46.218z" fill="url(#B)" class="B"/><path d="M263.307 125.845a3.98 3.98 0 1 0 7.969 0c0-1.994-1.423-3.561-3.273-3.917V50.144L247.726 70.44v119.782c-1.849.357-3.272 1.923-3.272 3.917a3.98 3.98 0 1 0 7.968 0c0-1.994-1.423-3.632-3.273-3.917V70.939l17.431-17.448v68.366c-1.85.356-3.273 1.923-3.273 3.988h0z" fill="url(#B)" class="B"/><path d="M189.67 163.588a3.98 3.98 0 1 0 7.969 0c0-1.994-1.423-3.632-3.273-3.916V88.956l-17.431-17.447V30.845h17.431V42.88c-1.85.356-3.273 1.923-3.273 3.917a3.98 3.98 0 1 0 7.969 0c0-1.994-1.423-3.561-3.273-3.917V29.421h-20.277v42.657l17.431 17.447v70.147c-1.85.284-3.273 1.922-3.273 3.916h0z" fill="url(#B)" class="B"/><path d="M199.133 73.004c1.067-1.567.925-3.774-.427-5.127-1.565-1.567-4.126-1.567-5.692 0s-1.565 4.13 0 5.697c1.423 1.424 3.558 1.567 5.123.427l16.221 16.237V36.613c1.85-.356 3.273-1.923 3.273-3.917a3.98 3.98 0 1 0-7.968 0c0 1.994 1.423 3.561 3.273 3.917v50.206l-13.803-13.816z" fill="url(#B)" class="B"/><path d="M229.94 79.128c-1.85.356-3.273 1.923-3.273 3.917a3.98 3.98 0 1 0 7.968 0c0-1.994-1.423-3.632-3.272-3.917V64.529l53.716-53.767v47.714c-1.85.356-3.273 1.923-3.273 3.917a3.98 3.98 0 1 0 7.968 0c0-1.994-1.423-3.561-3.273-3.917V7.344L229.94 63.96v15.169z" fill="url(#B)" class="B"/><path d="M216.848-35.74a3.98 3.98 0 1 0-7.968 0c0 1.994 1.423 3.561 3.273 3.917V4.709l13.091 13.103c-1.068 1.567-.925 3.774.427 5.127 1.565 1.567 4.126 1.567 5.691 0s1.566-4.13 0-5.697c-1.423-1.424-3.557-1.567-5.122-.427L213.576 4.14v-35.963c1.849-.285 3.272-1.851 3.272-3.917z" fill="url(#B)" class="B"/><path d="M248.865-26.91l-14.514 14.528c-1.566-1.068-3.771-.926-5.123.427-1.565 1.567-1.565 4.13 0 5.697s4.127 1.567 5.692 0a3.92 3.92 0 0 0 .427-5.127l14.087-14.1h18.214V.08c-1.85.356-3.273 1.923-3.273 3.917a3.98 3.98 0 1 0 7.968 0c0-1.994-1.423-3.561-3.273-3.917v-26.99h-20.205z" fill="url(#B)" class="B"/><path d="M133.891-30.399c1.423 1.424 3.557 1.567 5.123.427l39.7 39.738 16.577-16.593c1.565 1.068 3.771.926 5.122-.427 1.566-1.567 1.566-4.13 0-5.697s-4.126-1.567-5.691 0c-1.423 1.424-1.566 3.561-.427 5.127L178.714 7.771 140.01-30.969c1.067-1.567.925-3.774-.427-5.127-1.565-1.567-4.127-1.567-5.692 0s-1.565 4.13 0 5.697h0z" fill="url(#B)" class="B"/><path d="M286.146-40.441v33.043l10.245 10.255c-1.067 1.567-.925 3.774.427 5.127 1.565 1.567 4.126 1.567 5.691 0s1.566-4.13 0-5.697a3.91 3.91 0 0 0-5.122-.427l-9.818-9.828v-31.049h11.099l22.34 22.361v25.78l-11.597 11.608c-1.566-1.068-3.771-.926-5.123.427-1.565 1.567-1.565 4.13 0 5.697s4.127 1.567 5.692 0a3.92 3.92 0 0 0 .427-5.127l12.024-12.035v-26.919l-23.194-23.216h-13.091z" fill="url(#B)" class="B"/><path d="M322.431-42.506c-1.566-1.567-4.127-1.567-5.692 0s-1.565 4.13 0 5.697c1.423 1.424 3.557 1.567 5.122.427l16.933 16.949v33.613l-8.395 8.403c-1.565-1.068-3.771-.926-5.122.427-1.566 1.567-1.566 4.13 0 5.697s4.126 1.567 5.691 0a3.92 3.92 0 0 0 .427-5.128l8.822-8.83v-34.753l-17.359-17.376c1.138-1.567.996-3.774-.427-5.127z" fill="url(#B)" class="B"/><path d="M286.146 102.13c1.85-.356 3.272-1.922 3.272-3.916a3.98 3.98 0 1 0-7.968 0c0 1.994 1.423 3.632 3.273 3.916v38.812l-11.953 11.964c-1.565-1.068-3.771-.926-5.122.427-1.566 1.567-1.566 4.131 0 5.698s4.126 1.566 5.691 0c1.423-1.425 1.565-3.561.427-5.128l12.38-12.391V102.13z" fill="url(#B)" class="B"/><path d="M348.755 154.758c1.566 1.566 4.127 1.566 5.692 0s1.565-4.131 0-5.697c-1.423-1.425-3.557-1.567-5.123-.428l-45.747-45.79V45.8h33.51l12.309 12.32c-1.068 1.567-.925 3.774.426 5.127 1.566 1.567 4.127 1.567 5.692 0s1.565-4.13 0-5.697c-1.423-1.424-3.557-1.567-5.122-.427l-12.736-12.747h-35.502v59.037l46.174 46.218c-1.067 1.496-.925 3.703.427 5.128h0z" fill="url(#B)" class="B"/><path d="M370.811 126.984c1.565 1.567 4.126 1.567 5.692 0s1.565-4.13 0-5.697c-1.423-1.424-3.558-1.567-5.123-.427l-8.822-8.831 8.537-8.546-26.537-26.562c1.067-1.567.925-3.774-.427-5.127-1.566-1.567-4.127-1.567-5.692 0s-1.565 4.13 0 5.697c1.423 1.424 3.557 1.567 5.123.427l25.541 25.565-16.79 16.807-25.898-25.922c1.067-1.567.925-3.774-.427-5.127-1.565-1.567-4.126-1.567-5.692 0s-1.565 4.13 0 5.697c1.423 1.424 3.558 1.567 5.123.427l26.894 26.919 9.249-9.258 8.822 8.831c-1.067 1.495-.925 3.703.427 5.127h0z" fill="url(#B)" class="B"/><path d="M429.151 98.783v-83.89l-20.277 20.296v55.405c-1.85.356-3.273 1.923-3.273 3.917a3.98 3.98 0 1 0 7.969 0c0-1.994-1.423-3.561-3.273-3.917V35.759l17.431-17.447v79.831l-36.285 36.32v32.26c-1.85.356-3.273 1.923-3.273 3.917a3.98 3.98 0 1 0 7.969 0c0-1.994-1.423-3.632-3.273-3.917v-31.691l36.285-36.248z" fill="url(#B)" class="B"/><path d="M391.443 108.326c-1.85.356-3.273 1.923-3.273 3.917a3.98 3.98 0 1 0 7.969 0c0-1.994-1.423-3.632-3.273-3.917V78.203l-36.641-36.675V6.632c1.85-.356 3.273-1.923 3.273-3.917a3.98 3.98 0 1 0-7.969 0c0 1.994 1.423 3.561 3.273 3.917v35.465l36.641 36.675v29.554z" fill="url(#B)" class="B"/><path d="M378.352 12.685a3.98 3.98 0 1 0-7.969 0c0 1.994 1.423 3.632 3.273 3.917v23.002l19.566 19.584V16.602c1.849-.356 3.272-1.923 3.272-3.917a3.98 3.98 0 1 0-7.968 0c0 1.994 1.423 3.561 3.273 3.917V55.77l-16.72-16.735V16.602c1.85-.285 3.273-1.923 3.273-3.917h0z" fill="url(#B)" class="B"/><path d="M414.637-204.518a3.98 3.98 0 1 0-7.968 0c0 1.994 1.423 3.632 3.272 3.916v23.003l34.863 34.895-.001 39.31-37.707 37.744v85.386l22.055-22.076v-49.352c1.85-.356 3.273-1.923 3.273-3.917a3.98 3.98 0 1 0-7.969 0c0 1.994 1.423 3.561 3.273 3.917v48.782l-19.209 19.228V-65.01l37.707-37.743v-40.45l-34.862-34.895v-22.432c1.85-.356 3.273-1.994 3.273-3.988h0z" fill="url(#B)" class="B"/><path d="M439.823 179.968l41.621-41.661V98.214l-35.787-35.75V40.886c1.921-.285 3.344-1.852 3.344-3.917a3.98 3.98 0 1 0-7.968 0c0 1.923 1.351 3.561 3.201 3.917v22.148l35.787 35.749v38.955l-40.198 40.236-23.763-23.786c1.067-1.567.925-3.774-.427-5.127-1.565-1.567-4.126-1.567-5.692 0s-1.565 4.13 0 5.697c1.423 1.424 3.558 1.566 5.123.427l24.759 24.783z" fill="url(#B)" class="B"/><path d="M456.97 132.966l-15.724 15.739-16.648-16.665c1.067-1.566.925-3.774-.427-5.127-1.565-1.567-4.127-1.567-5.692 0s-1.565 4.13 0 5.697c1.423 1.424 3.557 1.567 5.123.427l17.644 17.662 17.716-17.733-20.277-20.296 13.091-13.103c1.565 1.068 3.771.926 5.122-.427 1.566-1.567 1.566-4.13 0-5.697s-4.126-1.567-5.691 0c-1.423 1.424-1.566 3.561-.427 5.127l-14.087 14.1 20.277 20.296z" fill="url(#B)" class="B"/><path d="M477.176 69.657c1.565 1.567 4.126 1.567 5.691 0s1.566-4.13 0-5.697c-1.423-1.424-3.557-1.567-5.122-.427l-8.253-8.261c1.067-1.567.925-3.774-.427-5.127-1.565-1.567-4.127-1.567-5.692 0s-1.565 4.13 0 5.697c1.423 1.424 3.557 1.567 5.123.427l8.253 8.261c-1.068 1.495-.925 3.703.427 5.127h0z" fill="url(#B)" class="B"/><path d="M466.503 32.198l34.151-34.183v-14.1c1.849-.356 3.272-1.923 3.272-3.917a3.98 3.98 0 1 0-7.968 0c0 1.994 1.423 3.561 3.273 3.917v13.531l-32.728 32.759-19.565-19.584V4.567c1.849-.356 3.272-1.923 3.272-3.917a3.98 3.98 0 1 0-7.968 0c0 1.994 1.423 3.632 3.273 3.917v6.623l20.988 21.008z" fill="url(#B)" class="B"/><path d="M468.709-63.514a3.98 3.98 0 1 0-7.969 0c0 1.994 1.423 3.632 3.273 3.917v72.211l19.921-19.94v-120.566c1.85-.356 3.273-1.923 3.273-3.917a3.98 3.98 0 1 0-7.969 0c0 1.994 1.423 3.561 3.273 3.917V-7.967L465.436 9.125v-68.722c1.85-.285 3.273-1.923 3.273-3.917h0z" fill="url(#B)" class="B"/><path d="M503.144 25.148c1.566-1.567 1.566-4.13 0-5.697s-4.126-1.567-5.691 0c-1.423 1.424-1.566 3.561-.427 5.127l-9.321 9.329c-1.565-1.068-3.77-.926-5.122.427-1.565 1.567-1.565 4.13 0 5.697s4.126 1.567 5.692 0a3.92 3.92 0 0 0 .426-5.127l9.321-9.329c1.565 1.068 3.771.926 5.122-.427z" fill="url(#B)" class="B"/><path d="M539.429 126.557V68.304l-18.925-18.943h-12.309c-.355-1.852-1.921-3.276-3.913-3.276a3.98 3.98 0 1 0 0 7.976c1.992 0 3.629-1.424 3.913-3.276h11.74l18.071 18.088v57.114l-31.518 31.548c-1.565-1.068-3.771-.926-5.123.427-1.565 1.567-1.565 4.131 0 5.698s4.127 1.566 5.692 0c1.423-1.425 1.565-3.561.427-5.128l31.945-31.975z" fill="url(#B)" class="B"/><path d="M500.298 132.539c-1.849.356-3.272 1.923-3.272 3.917a3.98 3.98 0 1 0 7.968 0c0-1.994-1.423-3.632-3.273-3.917v-51.63l11.953-11.964c1.565 1.068 3.771.926 5.123-.427 1.565-1.567 1.565-4.13 0-5.697s-4.127-1.567-5.692 0a3.92 3.92 0 0 0-.427 5.127l-12.38 12.391v52.2z" fill="url(#B)" class="B"/><path d="M523.492 84.612a3.98 3.98 0 1 0-7.969 0c0 1.994 1.423 3.632 3.273 3.917v30.479c-1.85.356-3.273 1.923-3.273 3.917a3.98 3.98 0 1 0 7.969 0c0-1.994-1.423-3.561-3.273-3.917V88.529c1.85-.285 3.273-1.923 3.273-3.917z" fill="url(#B)" class="B"/><path d="M554.726 134.034V61.182l-5.408-5.412c1.068-1.567.925-3.703-.498-5.127-1.565-1.567-4.126-1.567-5.691 0s-1.566 4.13 0 5.697c1.423 1.424 3.628 1.567 5.193.427l4.981 4.985v71.641l-35.93 35.964v29.767l14.087-14.1c1.566 1.068 3.771.926 5.123-.428 1.565-1.566 1.565-4.13 0-5.697s-4.126-1.566-5.692 0c-1.423 1.425-1.565 3.561-.427 5.128l-11.668 11.679v-25.78l35.93-35.892z" fill="url(#B)" class="B"/><path d="M531.603-6.186c1.565 1.567 4.127 1.567 5.692 0s1.565-4.13 0-5.697c-1.423-1.424-3.558-1.567-5.123-.427l-14.087-14.1v52.912c-1.85.356-3.273 1.923-3.273 3.917a3.98 3.98 0 1 0 7.969 0c0-1.994-1.423-3.632-3.273-3.917v-49.494l11.668 11.679c-1.067 1.496-.925 3.703.427 5.128h0z" fill="url(#B)" class="B"/><path d="M556.504 33.622V-9.391l-18.498-18.516V-93.78c1.85-.356 3.273-1.923 3.273-3.917a3.98 3.98 0 1 0-7.969 0c0 1.994 1.423 3.561 3.273 3.917v66.443l18.498 18.516v41.019h-17.075V20.875c1.85-.356 3.273-1.923 3.273-3.917a3.98 3.98 0 1 0-7.969 0c0 1.994 1.423 3.632 3.273 3.917v12.747h19.921z" fill="url(#B)" class="B"/><path d="M599.193 119.863c1.565 1.566 4.126 1.566 5.692 0s1.565-4.131 0-5.697c-1.423-1.425-3.558-1.567-5.123-.428l-21.913-21.934V28.068c1.849-.356 3.272-1.923 3.272-3.917a3.98 3.98 0 1 0-7.968 0c0 1.994 1.423 3.632 3.273 3.917v64.306l22.34 22.361c-1.067 1.496-.925 3.703.427 5.128z" fill="url(#B)" class="B"/><path d="M566.109-20.073c-1.565 1.567-1.565 4.13 0 5.697 1.423 1.424 3.558 1.567 5.123.427l22.98 23.002v75.487l8.823 8.831c-1.068 1.567-.925 3.774.427 5.127 1.565 1.566 4.126 1.566 5.691 0s1.566-4.13 0-5.697a3.91 3.91 0 0 0-5.122-.427l-8.396-8.403V8.484l-23.407-23.43c1.067-1.567.925-3.774-.427-5.127-1.565-1.567-4.126-1.567-5.692 0h0z" fill="url(#B)" class="B"/><path d="M625.802 137.239l18.356-18.373V76.137L630.64 62.607c1.067-1.638.925-3.703-.427-5.127-1.565-1.567-4.127-1.567-5.692 0s-1.565 4.13 0 5.697c1.423 1.424 3.557 1.567 5.123.427l13.091 13.103v41.589l-17.503 17.59h-25.399l-23.692-23.714c1.067-1.567.925-3.775-.427-5.128-1.565-1.566-4.126-1.566-5.692 0s-1.565 4.131 0 5.697c1.423 1.425 3.558 1.567 5.123.428l24.119 24.141h26.538v-.071z" fill="url(#B)" class="B"/><path d="M587.524-24.916l19.85-19.869 17.503 17.519h10.529c.356 1.852 1.921 3.276 3.913 3.276a3.98 3.98 0 1 0 0-7.976c-1.992 0-3.557 1.424-3.913 3.276h-9.96l-18.072-18.088-21.842 21.863 21.842 21.792v73.778l17.431 17.448v22.433c-1.849.356-3.272 1.923-3.272 3.917a3.98 3.98 0 1 0 7.968 0c0-1.994-1.423-3.632-3.273-3.917V87.532l-17.431-17.448V-3.623l-21.273-21.293z" fill="url(#B)" class="B"/><path d="M645.082 1.006c1.85-.356 3.273-1.923 3.273-3.917a3.98 3.98 0 1 0-7.969 0c0 1.994 1.423 3.561 3.273 3.917v52.699l-17.431-17.447V-7.896l-12.379-12.391c1.067-1.567.924-3.774-.427-5.127-1.566-1.567-4.127-1.567-5.692 0s-1.565 4.131 0 5.697c1.423 1.424 3.557 1.567 5.122.427l11.953 11.964v44.153l20.277 20.296V1.006z" fill="url(#B)" class="B"/><path d="M695.241 153.191c-1.85.356-3.273 1.923-3.273 3.917a3.98 3.98 0 1 0 7.968 0c0-1.994-1.423-3.632-3.272-3.917v-30.124l-34.862-34.895V16.104l12.664-12.676c1.565 1.068 3.771.926 5.122-.427 1.566-1.567 1.566-4.13 0-5.697s-4.126-1.567-5.691 0c-1.423 1.424-1.566 3.561-.427 5.127l-13.091 13.103v73.28l34.862 34.895v29.483z" fill="url(#B)" class="B"/><path d="M682.861 36.898a3.98 3.98 0 1 0-7.968 0c0 1.994 1.423 3.632 3.272 3.917v45.079l18.143 18.159V20.875c1.85-.356 3.273-1.923 3.273-3.917a3.98 3.98 0 1 0-7.969 0c0 1.994 1.423 3.561 3.273 3.917v79.76l-15.297-15.311V40.815c1.85-.285 3.273-1.923 3.273-3.917h0z" fill="url(#B)" class="B"/><path d="M699.937-20.073a3.98 3.98 0 1 0-7.969 0c0 1.994 1.423 3.632 3.273 3.917v8.759l13.447 13.459c-1.067 1.567-.925 3.774.427 5.127 1.565 1.567 4.126 1.567 5.692 0s1.565-4.13 0-5.697c-1.423-1.424-3.558-1.567-5.123-.427l-13.02-13.032v-8.19c1.85-.285 3.273-1.923 3.273-3.917z" fill="url(#B)" class="B"/><path d="M723.558 71.864c1.565 1.068 3.771.926 5.122-.427 1.566-1.567 1.566-4.13 0-5.697s-4.126-1.567-5.691 0c-1.423 1.424-1.566 3.561-.427 5.127l-9.534 9.543v55.761c-1.85.356-3.273 1.923-3.273 3.917a3.98 3.98 0 1 0 7.969 0c0-1.994-1.423-3.561-3.273-3.917V80.98l9.107-9.115z" fill="url(#B)" class="B"/><path d="M739.068 106.19c-1.85.356-3.273 1.922-3.273 3.916a3.98 3.98 0 1 0 7.968 0c0-1.994-1.423-3.56-3.272-3.916V84.113l16.719 16.736v71.57c-1.85.356-3.273 1.923-3.273 3.917a3.98 3.98 0 1 0 7.969 0c0-1.994-1.423-3.632-3.273-3.917v-72.14l-19.565-19.584v25.495z" fill="url(#B)" class="B"/><path d="M707.051 48.292c-1.565 1.567-1.565 4.13 0 5.697s4.127 1.567 5.692 0a3.92 3.92 0 0 0 .427-5.128l13.731-13.744c1.494.783 3.415.57 4.696-.712 1.565-1.567 1.565-4.13 0-5.697s-4.126-1.567-5.692 0c-1.494 1.495-1.565 3.988-.142 5.555l-13.589 13.602c-1.565-1.139-3.771-.997-5.123.427h0z" fill="url(#B)" class="B"/><path d="M714.451-77.33c1.85-.356 3.273-1.923 3.273-3.917a3.98 3.98 0 1 0-7.969 0c0 1.994 1.423 3.561 3.273 3.917v66.443L738 14.11l18.499-20.011v-33.684c1.85-.356 3.272-1.923 3.272-3.917a3.98 3.98 0 1 0-7.968 0c0 1.994 1.423 3.561 3.273 3.917v33.115L738 11.973l-23.478-23.501V-77.33h-.071z" fill="url(#B)" class="B"/><path d="M826.863 136.527a3.98 3.98 0 1 0 7.969 0c0-1.994-1.423-3.561-3.273-3.917V62.963l-19.566 19.584v142.57c-1.849.357-3.272 1.923-3.272 3.917a3.98 3.98 0 1 0 7.968 0c0-1.994-1.423-3.632-3.273-3.917V83.045l16.72-16.735v66.229c-1.921.356-3.273 1.923-3.273 3.988z" fill="url(#B)" class="B"/><path d="M832.27 170.71l18.712-18.658v-39.239c1.85-.357 3.273-1.923 3.273-3.917a3.98 3.98 0 1 0-7.969 0c0 1.994 1.423 3.56 3.273 3.917v38.669l-18.712 18.658v75.772l-13.02 13.032c-1.565-1.068-3.771-.926-5.122.427-1.566 1.567-1.566 4.131 0 5.698s4.126 1.566 5.691 0c1.423-1.425 1.566-3.561.427-5.128l13.447-13.459V170.71z" fill="url(#B)" class="B"/><path d="M762.617 82.974c1.068-1.567.925-3.774-.427-5.127-1.565-1.567-4.126-1.567-5.691 0s-1.566 4.13 0 5.697c1.423 1.424 3.557 1.567 5.122.427l15.866 15.881v-53.98c1.85-.356 3.273-1.923 3.273-3.917a3.98 3.98 0 1 0-7.969 0c0 1.994 1.423 3.561 3.273 3.917v50.562l-13.447-13.46z" fill="url(#B)" class="B"/><path d="M790.222 95.223a3.98 3.98 0 1 0 7.969 0c0-1.994-1.423-3.632-3.273-3.917V76.707l54.428-54.479v47.713c-1.85.356-3.273 1.923-3.273 3.917a3.98 3.98 0 1 0 7.968 0c0-1.994-1.423-3.561-3.273-3.917V18.81l-57.273 57.328v15.169c-1.921.285-3.273 1.923-3.273 3.917z" fill="url(#B)" class="B"/><path d="M754.507 39.604c-1.566-1.068-3.771-.926-5.123.427-1.565 1.567-1.565 4.13 0 5.697s4.127 1.567 5.692 0a3.92 3.92 0 0 0 .427-5.127l5.264-5.27.001-17.305c1.849-.356 3.272-1.923 3.272-3.917a3.98 3.98 0 1 0-7.968 0c0 1.994 1.423 3.561 3.273 3.917v16.735l-4.838 4.843z" fill="url(#B)" class="B"/><path d="M781.115-99.121a3.98 3.98 0 1 0 0 7.976c1.993 0 3.558-1.424 3.914-3.276h10.174l17.857 17.946v60.318l-32.229 32.26c-1.565-1.068-3.771-.926-5.123.427-1.565 1.567-1.565 4.13 0 5.697s4.127 1.567 5.692 0a3.92 3.92 0 0 0 .427-5.127l32.656-32.687v-61.458l-18.711-18.801h-10.743c-.356-1.852-1.921-3.276-3.914-3.276h0z" fill="url(#B)" class="B"/><path d="M793.495 26.572l-.213.214v29.91l14.158-14.172c1.565 1.068 3.771.926 5.122-.427 1.566-1.567 1.566-4.13 0-5.697s-4.126-1.567-5.691 0c-1.423 1.424-1.566 3.561-.427 5.127l-11.74 11.75V27.355l35.147-35.251.214-.214v-72.852l-4.198-4.202c1.067-1.567.925-3.774-.427-5.127-1.565-1.567-4.127-1.567-5.692 0s-1.565 4.13 0 5.697c1.423 1.424 3.558 1.567 5.123.427l3.771 3.774v71.713l-35.147 35.251z" fill="url(#B)" class="B"/><path d="M826.223 13.754c-1.565 1.567-1.565 4.13 0 5.697s4.126 1.567 5.692 0a3.92 3.92 0 0 0 .426-5.127l20.206-20.225 14.23 14.243v39.524c-1.85.356-3.273 1.923-3.273 3.917a3.98 3.98 0 1 0 7.968 0c0-1.994-1.423-3.561-3.273-3.917V7.772L852.547-7.896l-21.202 21.222c-1.565-1.139-3.77-.997-5.122.427h0z" fill="url(#B)" class="B"/><path d="M863.504 137.951a3.98 3.98 0 1 0 7.968 0c0-1.994-1.423-3.56-3.273-3.917V83.615c1.85-.356 3.273-1.923 3.273-3.917a3.98 3.98 0 1 0-7.968 0c0 1.994 1.423 3.632 3.273 3.917v50.419c-1.921.285-3.273 1.852-3.273 3.917z" fill="url(#C)" class="B"/><path d="M888.476 111.388c1.85-.356 3.273-1.922 3.273-3.916a3.98 3.98 0 1 0-7.968 0c0 1.994 1.423 3.56 3.272 3.916v28.486l-32.941 32.972c-1.565-1.068-3.77-.926-5.122.427-1.565 1.567-1.565 4.131 0 5.698s4.126 1.566 5.692 0c1.422-1.425 1.565-3.561.426-5.128l33.368-33.399v-29.056z" fill="url(#B)" class="B"/><path d="M942.904 152.479c-1.85.356-3.273 1.923-3.273 3.917a3.98 3.98 0 1 0 7.969 0c0-1.994-1.423-3.561-3.273-3.917v-47.642H924.05v93.361l-22.411 22.433v45.079c-1.85.356-3.273 1.922-3.273 3.916a3.98 3.98 0 1 0 7.968 0c0-1.994-1.423-3.632-3.273-3.916v-44.509l22.412-22.433v-92.507h17.431v46.218z" fill="url(#B)" class="B"/><path d="M974.849 125.845a3.98 3.98 0 1 0 7.968 0c0-1.994-1.423-3.561-3.272-3.917V50.144L959.268 70.44v119.782c-1.85.357-3.273 1.923-3.273 3.917a3.98 3.98 0 1 0 7.968 0c0-1.994-1.423-3.632-3.272-3.917V70.939l17.431-17.447v68.366c-1.921.356-3.273 1.923-3.273 3.988h0z" fill="url(#B)" class="B"/><path d="M901.212 163.588a3.98 3.98 0 1 0 7.968 0c0-1.994-1.423-3.632-3.273-3.916V88.956l-17.431-17.448V30.845h17.431V42.88c-1.849.356-3.272 1.923-3.272 3.917a3.98 3.98 0 1 0 7.968 0c0-1.994-1.423-3.561-3.273-3.917v-13.46h-20.277v42.657l17.431 17.447v70.146c-1.921.284-3.272 1.922-3.272 3.916z" fill="url(#B)" class="B"/><path d="M910.603 73.004c1.067-1.567.925-3.774-.427-5.127-1.565-1.567-4.126-1.567-5.692 0s-1.565 4.13 0 5.697c1.423 1.424 3.558 1.567 5.123.427l16.222 16.237V36.613c1.849-.356 3.272-1.923 3.272-3.917a3.98 3.98 0 1 0-7.968 0c0 1.994 1.423 3.561 3.273 3.917v50.206l-13.803-13.816z" fill="url(#B)" class="B"/><path d="M941.481 79.128c-1.85.356-3.273 1.923-3.273 3.917a3.98 3.98 0 1 0 7.969 0c0-1.994-1.423-3.632-3.273-3.917V64.529l53.716-53.767v47.714c-1.85.356-3.273 1.923-3.273 3.917a3.98 3.98 0 0 0 3.984 3.988c2.206 0 3.989-1.78 3.989-3.988 0-1.994-1.427-3.561-3.277-3.917V7.344L941.481 63.96v15.169z" fill="url(#B)" class="B"/><path d="M940.77 37.254c-1.566 1.567-1.566 4.13 0 5.697s4.126 1.567 5.691 0c1.423-1.424 1.566-3.561.427-5.127l8.609-8.688c1.565 1.068 3.771.926 5.123-.427 1.565-1.567 1.565-4.13 0-5.697s-4.127-1.567-5.692 0a3.92 3.92 0 0 0-.427 5.127l-8.609 8.617c-1.565-1.068-3.771-.926-5.122.499h0z" fill="url(#B)" class="B"/><path d="M928.39-35.74a3.98 3.98 0 1 0-7.969 0c0 1.994 1.423 3.561 3.273 3.917V4.709l13.091 13.103c-1.067 1.567-.925 3.774.427 5.127 1.565 1.567 4.126 1.567 5.692 0s1.565-4.13 0-5.697c-1.423-1.424-3.558-1.567-5.123-.427L925.117 4.14v-35.963c1.85-.285 3.273-1.852 3.273-3.917z" fill="url(#B)" class="B"/><path d="M960.335-26.91l-14.514 14.528c-1.565-1.068-3.771-.926-5.123.427-1.565 1.567-1.565 4.13 0 5.697s4.127 1.567 5.692 0a3.92 3.92 0 0 0 .427-5.127l14.087-14.1h18.214V.081c-1.85.356-3.273 1.923-3.273 3.917a3.98 3.98 0 1 0 7.968 0c0-1.994-1.423-3.561-3.273-3.917v-26.99h-20.205z" fill="url(#B)" class="B"/><path d="M845.432-30.399c1.423 1.424 3.558 1.567 5.123.427l39.7 39.738 16.577-16.593c1.565 1.068 3.771.926 5.123-.427 1.565-1.567 1.565-4.13 0-5.697s-4.127-1.567-5.692 0a3.92 3.92 0 0 0-.427 5.127L890.255 7.772l-38.704-38.741c1.067-1.567.925-3.774-.427-5.127-1.565-1.567-4.126-1.567-5.692 0-1.565 1.495-1.565 4.13 0 5.697h0z" fill="url(#B)" class="B"/><path d="M997.687-40.441v33.043l10.243 10.255c-1.07 1.567-.92 3.774.43 5.127 1.56 1.567 4.13 1.567 5.69 0 1.57-1.567 1.57-4.13 0-5.697-1.42-1.424-3.56-1.567-5.12-.427l-9.82-9.828v-31.05h11.1l22.34 22.361v25.78l-11.6 11.608c-1.56-1.068-3.77-.926-5.12.427-1.57 1.567-1.57 4.13 0 5.697 1.56 1.567 4.13 1.567 5.69 0 1.42-1.424 1.57-3.561.43-5.127l12.02-12.035v-26.919l-23.19-23.216h-13.093z" fill="url(#B)" class="B"/><path d="M1033.97-42.506c-1.56-1.567-4.12-1.567-5.69 0s-1.57 4.13 0 5.697c1.42 1.424 3.56 1.567 5.12.427l16.94 16.949v33.613l-8.4 8.403c-1.56-1.068-3.77-.926-5.12.427-1.57 1.567-1.57 4.13 0 5.697 1.56 1.567 4.12 1.567 5.69 0 1.42-1.424 1.56-3.561.43-5.127l8.82-8.831v-34.752l-17.36-17.376c1.07-1.567.92-3.774-.43-5.127z" fill="url(#B)" class="B"/><path d="M997.687 102.13c1.85-.356 3.273-1.922 3.273-3.916a3.98 3.98 0 1 0-7.969 0c0 1.994 1.423 3.632 3.273 3.916v38.812l-11.953 11.964c-1.565-1.068-3.77-.926-5.122.428-1.565 1.566-1.565 4.13 0 5.697s4.126 1.566 5.692 0c1.423-1.425 1.565-3.561.426-5.128l12.38-12.391V102.13z" fill="url(#B)" class="B"/><path d="M1060.3 154.758c1.56 1.567 4.12 1.567 5.69 0 1.56-1.567 1.56-4.131 0-5.697-1.42-1.425-3.56-1.567-5.12-.428l-45.75-45.79V45.8h33.51l12.31 12.32c-1.07 1.567-.93 3.774.42 5.127 1.57 1.567 4.13 1.567 5.7 0 1.56-1.567 1.56-4.13 0-5.697-1.43-1.424-3.56-1.567-5.13-.427l-12.73-12.747h-35.51v59.036l46.18 46.218c-1.14 1.496-1 3.704.43 5.128h0z" fill="url(#B)" class="B"/><path d="M1056.1 76.921c1.07-1.567.92-3.774-.43-5.127-1.56-1.567-4.12-1.567-5.69 0s-1.57 4.13 0 5.697c1.42 1.424 3.56 1.567 5.12.427l25.54 25.566-16.79 16.806-25.89-25.922c1.06-1.567.92-3.774-.43-5.127-1.57-1.567-4.13-1.567-5.69 0-1.57 1.567-1.57 4.13 0 5.697 1.42 1.424 3.55 1.567 5.12.427l26.89 26.919 18.79-18.8-26.54-26.563z" fill="url(#B)" class="B"/><path d="M1140.69 98.784v-83.89l-20.27 20.296v55.405c-1.85.356-3.28 1.923-3.28 3.917a3.98 3.98 0 1 0 7.97 0c0-1.994-1.42-3.561-3.27-3.917V35.759l17.43-17.447v79.831l-36.29 36.319v32.26c-1.85.356-3.27 1.923-3.27 3.917 0 2.207 1.78 3.988 3.99 3.988a3.98 3.98 0 0 0 3.98-3.988c0-1.994-1.42-3.632-3.27-3.917v-31.691l36.28-36.247z" fill="url(#B)" class="B"/><path d="M1102.98 108.326c-1.85.356-3.27 1.923-3.27 3.917a3.98 3.98 0 1 0 7.97 0c0-1.994-1.42-3.632-3.27-3.917V78.203l-36.64-36.675V6.632c1.85-.356 3.27-1.923 3.27-3.917a3.98 3.98 0 1 0-7.97 0c0 1.994 1.42 3.561 3.27 3.917v35.465l36.64 36.675v29.554z" fill="url(#D)" class="B"/><path d="M1089.89 12.685a3.98 3.98 0 0 0-3.98-3.988c-2.21 0-3.98 1.78-3.98 3.988 0 1.994 1.42 3.632 3.27 3.917v23.002l19.56 19.584V16.602c1.85-.356 3.28-1.923 3.28-3.917a3.98 3.98 0 1 0-7.97 0c0 1.994 1.42 3.561 3.27 3.917V55.77l-16.72-16.735V16.602c1.85-.285 3.27-1.923 3.27-3.917h0z" fill="url(#B)" class="B"/><path d="M1126.18-204.518a3.98 3.98 0 1 0-7.97 0c0 1.994 1.42 3.632 3.27 3.917v23.002l34.86 34.895v39.31l-37.7 37.744v85.386l22.05-22.076v-49.351c1.85-.356 3.28-1.923 3.28-3.917a3.98 3.98 0 1 0-7.97 0c0 1.994 1.42 3.561 3.27 3.917v48.782l-19.21 19.228V-65.01l37.71-37.743v-40.45l-34.86-34.895v-22.432c1.85-.356 3.27-1.994 3.27-3.988h0z" fill="url(#D)" class="B"/><path d="M1151.36 179.968l41.63-41.661V98.214l-35.79-35.75V40.886c1.92-.285 3.34-1.852 3.34-3.917a3.98 3.98 0 1 0-7.97 0c0 1.923 1.36 3.561 3.21 3.917v22.148l35.78 35.75v38.955l-40.2 40.236-23.76-23.786c1.07-1.567.93-3.774-.43-5.127-1.56-1.567-4.12-1.567-5.69 0-1.56 1.566-1.56 4.13 0 5.697 1.43 1.424 3.56 1.567 5.13.427l24.75 24.783z" fill="url(#B)" class="B"/><path d="M1168.44 132.966l-15.72 15.739-16.65-16.664c1.07-1.567.92-3.775-.43-5.128-1.56-1.567-4.13-1.567-5.69 0-1.57 1.567-1.57 4.131 0 5.697 1.42 1.425 3.56 1.567 5.12.428l17.65 17.661 17.71-17.733-20.27-20.296 13.09-13.032c1.56 1.068 3.77.926 5.12-.427 1.56-1.567 1.56-4.131 0-5.697-1.57-1.567-4.13-1.567-5.69 0a3.91 3.91 0 0 0-.43 5.127l-14.09 14.1 20.28 20.225z" fill="url(#D)" class="B"/><path d="M1188.72 69.657c1.56 1.567 4.12 1.567 5.69 0 1.56-1.567 1.56-4.13 0-5.697-1.42-1.424-3.56-1.567-5.12-.427l-8.26-8.261c1.07-1.567.93-3.774-.42-5.128-1.57-1.567-4.13-1.567-5.7 0-1.56 1.567-1.56 4.131 0 5.697 1.43 1.424 3.56 1.567 5.13.427l8.25 8.261c-1.14 1.495-1 3.703.43 5.127h0z" fill="url(#B)" class="B"/><path d="M1178.04 32.198l34.16-34.183v-14.1c1.85-.356 3.27-1.923 3.27-3.917a3.98 3.98 0 1 0-7.97 0c0 1.994 1.42 3.561 3.27 3.917v13.531l-32.73 32.759-19.56-19.584V4.567c1.85-.356 3.27-1.923 3.27-3.917a3.98 3.98 0 0 0-3.98-3.988 3.98 3.98 0 0 0-3.99 3.988c0 1.994 1.43 3.632 3.28 3.917v6.623l20.98 21.008z" fill="url(#B)" class="B"/><path d="M1180.25-63.514a3.98 3.98 0 1 0-7.97 0c0 1.994 1.42 3.632 3.27 3.917v72.211l19.93-19.94v-120.566c1.85-.356 3.27-1.922 3.27-3.916a3.98 3.98 0 1 0-7.97 0c0 1.994 1.42 3.56 3.27 3.916V-7.967l-17.07 17.091v-68.722c1.85-.285 3.27-1.923 3.27-3.917h0z" fill="url(#E)" class="B"/><path d="M1214.69 25.148c1.56-1.567 1.56-4.131 0-5.697-1.57-1.567-4.13-1.567-5.7 0a3.92 3.92 0 0 0-.42 5.127l-9.32 9.329c-1.57-1.068-3.77-.926-5.13.427-1.56 1.567-1.56 4.13 0 5.697 1.57 1.567 4.13 1.567 5.7 0a3.92 3.92 0 0 0 .42-5.127l9.25-9.329a4.2 4.2 0 0 0 5.2-.427z" fill="url(#E)" class="B"/><path d="M1250.97 126.557V68.304l-18.92-18.943h-12.31c-.36-1.852-1.92-3.276-3.92-3.276a3.98 3.98 0 1 0 0 7.976c2 0 3.63-1.424 3.92-3.276h11.74l18.07 18.088v57.114l-31.52 31.548c-1.57-1.068-3.77-.926-5.12.427-1.57 1.567-1.57 4.131 0 5.698 1.56 1.566 4.12 1.566 5.69 0 1.42-1.425 1.56-3.561.43-5.128l31.94-31.975z" fill="url(#E)" class="B"/><path d="M1211.84 132.539c-1.85.356-3.27 1.923-3.27 3.917a3.98 3.98 0 0 0 3.98 3.988c2.21 0 3.99-1.781 3.99-3.988 0-1.994-1.43-3.632-3.28-3.917v-51.63l11.88-11.893c1.57 1.068 3.77.926 5.13-.427 1.56-1.567 1.56-4.13 0-5.697-1.57-1.567-4.13-1.567-5.7 0a3.92 3.92 0 0 0-.42 5.127l-12.38 12.391v52.129h.07z" fill="url(#F)" class="B"/><path d="M1235.03 84.612a3.98 3.98 0 1 0-7.97 0c0 1.994 1.43 3.632 3.28 3.917v30.479c-1.85.356-3.28 1.923-3.28 3.917a3.98 3.98 0 1 0 7.97 0c0-1.994-1.42-3.561-3.27-3.917V88.529c1.85-.285 3.27-1.923 3.27-3.917z" fill="url(#G)" class="B"/><path d="M1266.27 134.034V61.182l-5.41-5.412c1.07-1.567.92-3.703-.5-5.127-1.56-1.567-4.12-1.567-5.69 0s-1.57 4.13 0 5.697c1.42 1.424 3.63 1.567 5.19.427l4.98 4.985v71.641l-35.93 35.964v29.767l14.02-14.029c1.57 1.068 3.77.926 5.12-.427 1.57-1.567 1.57-4.131 0-5.697-1.56-1.567-4.12-1.567-5.69 0-1.42 1.424-1.56 3.56-.43 5.127l-11.66 11.679v-25.779l36-35.964z" fill="url(#B)" class="B"/><path d="M1243.14-6.186c1.57 1.567 4.13 1.567 5.7 0 1.56-1.567 1.56-4.13 0-5.697-1.43-1.424-3.56-1.567-5.13-.427l-14.08-14.1v52.912c-1.85.356-3.28 1.923-3.28 3.917a3.98 3.98 0 1 0 7.97 0c0-1.994-1.42-3.632-3.27-3.917v-49.494l11.67 11.679c-1.14 1.495-1 3.703.42 5.127h0z" fill="url(#B)" class="B"/><path d="M1268.05 33.622V-9.391l-18.5-18.516V-93.78c1.85-.356 3.27-1.923 3.27-3.917a3.98 3.98 0 1 0-7.97 0c0 1.994 1.42 3.561 3.27 3.917v66.443l18.5 18.516v41.019h-17.07V20.875c1.85-.356 3.27-1.923 3.27-3.917a3.98 3.98 0 1 0-7.97 0c0 1.994 1.42 3.632 3.27 3.917v12.747h19.93z" fill="url(#F)" class="B"/><path d="M1310.73 119.863c1.57 1.567 4.13 1.567 5.7 0 1.56-1.567 1.56-4.131 0-5.697a3.92 3.92 0 0 0-5.13-.428l-21.91-21.934V28.068c1.85-.356 3.27-1.923 3.27-3.917a3.98 3.98 0 1 0-7.97 0c0 1.994 1.43 3.632 3.28 3.917v64.307l22.34 22.361c-1.14 1.496-1 3.704.42 5.128h0z" fill="url(#F)" class="B"/><path d="M1277.65-20.073c-1.56 1.567-1.56 4.13 0 5.697 1.42 1.424 3.56 1.567 5.12.427l22.98 23.002V84.54l8.83 8.831c-1.07 1.567-.93 3.774.42 5.127 1.57 1.567 4.13 1.567 5.69 0 1.57-1.567 1.57-4.13 0-5.697-1.42-1.424-3.55-1.567-5.12-.427l-8.39-8.403V8.484l-23.41-23.43c1.07-1.567.92-3.774-.43-5.127-1.56-1.567-4.12-1.567-5.69 0h0z" fill="url(#E)" class="B"/><path d="M1337.34 137.239l18.36-18.373V76.137l-13.52-13.531c1.07-1.638.93-3.703-.43-5.127-1.56-1.567-4.12-1.567-5.69 0-1.56 1.567-1.56 4.13 0 5.697 1.42 1.424 3.56 1.567 5.12.427l13.1 13.103v41.589l-17.51 17.59h-25.4l-23.69-23.714c1.07-1.567.93-3.775-.42-5.128-1.57-1.566-4.13-1.566-5.7 0-1.56 1.567-1.56 4.131 0 5.697a3.92 3.92 0 0 0 5.13.428l24.11 24.141h26.54v-.071z" fill="url(#E)" class="B"/><path d="M1299.07-24.916l19.85-19.869 17.5 17.519h10.53c.35 1.852 1.92 3.276 3.91 3.276 2.21 0 3.98-1.78 3.98-3.988s-1.77-3.988-3.98-3.988c-1.99 0-3.56 1.424-3.91 3.276h-9.96l-18.07-18.088-21.85 21.863 21.85 21.792v73.778l17.43 17.448v22.433c-1.85.356-3.28 1.923-3.28 3.917 0 2.207 1.78 3.988 3.99 3.988a3.98 3.98 0 0 0 3.98-3.988c0-1.994-1.42-3.632-3.27-3.917V87.532l-17.43-17.447V-3.623l-21.27-21.293z" fill="url(#B)" class="B"/><path d="M1356.62 1.006c1.85-.356 3.28-1.923 3.28-3.917a3.98 3.98 0 1 0-7.97 0c0 1.994 1.42 3.561 3.27 3.917v52.699l-17.43-17.447V-7.896l-12.38-12.391c1.07-1.567.93-3.774-.43-5.127-1.56-1.567-4.12-1.567-5.69 0-1.56 1.567-1.56 4.13 0 5.697 1.42 1.424 3.56 1.567 5.12.427l11.96 11.964v44.153l20.27 20.296V1.006z" fill="url(#B)" class="B"/><path d="M1406.78 153.191c-1.85.356-3.27 1.923-3.27 3.917a3.98 3.98 0 1 0 7.97 0c0-1.994-1.42-3.632-3.27-3.917v-30.124l-34.87-34.894V16.104l12.6-12.605c1.56 1.068 3.77.926 5.12-.427 1.56-1.567 1.56-4.13 0-5.697-1.57-1.567-4.13-1.567-5.69 0a3.91 3.91 0 0 0-.43 5.127l-13.09 13.103v73.208l34.86 34.895v29.483h.07z" fill="url(#B)" class="B"/><path d="M1394.4 36.898a3.98 3.98 0 1 0-7.97 0c0 1.994 1.43 3.632 3.28 3.917v45.079l18.14 18.159V20.875c1.85-.356 3.27-1.923 3.27-3.917a3.98 3.98 0 1 0-7.97 0c0 1.994 1.43 3.561 3.28 3.917v79.76l-15.3-15.311V40.815c1.85-.285 3.27-1.923 3.27-3.917h0z" fill="url(#G)" class="B"/><path d="M1411.48-20.073a3.98 3.98 0 1 0-7.97 0c0 1.994 1.42 3.632 3.27 3.917v8.759l13.45 13.459c-1.07 1.567-.93 3.774.43 5.127 1.56 1.567 4.12 1.567 5.69 0 1.56-1.567 1.56-4.13 0-5.697-1.43-1.424-3.56-1.567-5.12-.427l-13.02-13.032v-8.19c1.84-.285 3.27-1.923 3.27-3.917h0z" fill="url(#E)" class="B"/><path d="M1425.99-12.24v-65.161c1.85-.356 3.27-1.923 3.27-3.917 0-2.208-1.77-3.988-3.98-3.988s-3.98 1.78-3.98 3.988c0 1.994 1.42 3.561 3.27 3.917v65.731l19.14 19.157c-1.07 1.567-.93 3.774.42 5.127 1.57 1.567 4.13 1.567 5.7 0 1.56-1.567 1.56-4.13 0-5.697-1.43-1.424-3.56-1.567-5.13-.427l-18.71-18.729z" fill="url(#G)" class="B"/><path d="M1424.57 41.527c-1.57 1.567-1.57 4.13 0 5.697 1.56 1.567 4.13 1.567 5.69 0 1.42-1.424 1.57-3.561.43-5.127l7.18-7.264c1.57 1.068 3.77.926 5.13-.427 1.56-1.567 1.56-4.13 0-5.697-1.57-1.567-4.13-1.567-5.7 0a3.92 3.92 0 0 0-.42 5.127l-7.19 7.193c-1.56-1.068-3.77-.926-5.12.498h0z" fill="url(#F)" class="B"/><path d="M1424.57 136.1c-1.85.356-3.27 1.922-3.27 3.916 0 2.208 1.77 3.988 3.98 3.988s3.98-1.78 3.98-3.988c0-1.994-1.42-3.56-3.27-3.916V80.909l9.04-9.044c1.56 1.068 3.77.926 5.12-.427 1.57-1.567 1.57-4.13 0-5.697s-4.13-1.567-5.69 0c-1.42 1.424-1.57 3.561-.43 5.127l-9.53 9.543v55.69h.07z" fill="url(#E)" class="B"/></g></g><defs><filter id="A" x="-4" y="-4" width="1448" height="120" filterUnits="userSpaceOnUse" color-interpolation-filters="sRGB"><feFlood flood-opacity="0"/><feGaussianBlur in="BackgroundImage" stdDeviation="2"/><feComposite in2="SourceAlpha" operator="in"/><feBlend in="SourceGraphic"/></filter><radialGradient id="B" cx="0" cy="0" r="1" gradientTransform="translate(720 -175.5) rotate(90) scale(285 1044.2)" xlink:href="#I"><stop stop-color="#6400b4"/><stop offset=".415" stop-color="#6400b4"/><stop offset="1" stop-color="#04001f"/></radialGradient><radialGradient id="C" cx="0" cy="0" r="1" gradientTransform="translate(720.001 -175.5) rotate(90) scale(285 1044.19)" xlink:href="#I"><stop stop-color="#6400b4"/><stop offset=".415" stop-color="#6400b4"/><stop offset="1" stop-color="#04001f"/></radialGradient><radialGradient id="D" cx="0" cy="0" r="1" gradientTransform="translate(719.999 -175.5) rotate(90) scale(285 1044.2)" xlink:href="#I"><stop stop-color="#6400b4"/><stop offset=".415" stop-color="#6400b4"/><stop offset="1" stop-color="#04001f"/></radialGradient><radialGradient id="E" cx="0" cy="0" r="1" gradientTransform="translate(720.001 -175.5) rotate(90) scale(285 1044.2)" xlink:href="#I"><stop stop-color="#6400b4"/><stop offset=".415" stop-color="#6400b4"/><stop offset="1" stop-color="#04001f"/></radialGradient><radialGradient id="F" cx="0" cy="0" r="1" gradientTransform="translate(719.998 -175.5) rotate(90) scale(285 1044.2)" xlink:href="#I"><stop stop-color="#6400b4"/><stop offset=".415" stop-color="#6400b4"/><stop offset="1" stop-color="#04001f"/></radialGradient><radialGradient id="G" cx="0" cy="0" r="1" gradientTransform="translate(720.002 -175.5) rotate(90) scale(285 1044.2)" xlink:href="#I"><stop stop-color="#6400b4"/><stop offset=".415" stop-color="#6400b4"/><stop offset="1" stop-color="#04001f"/></radialGradient><clipPath id="H"><path fill="#fff" d="M0 0h1440v112H0z"/></clipPath><linearGradient id="I" gradientUnits="userSpaceOnUse"/></defs></svg>