<svg width="579" height="769" viewBox="0 0 579 769" fill="none" xmlns="http://www.w3.org/2000/svg">
<g opacity="0.07" clip-path="url(#clip0_212_5242)">
<g opacity="0.1">
<path opacity="0.1" d="M450.3 526.438C411.535 526.45 373.637 514.969 341.399 493.449C309.162 471.928 284.032 441.334 269.189 405.536C254.346 369.738 250.457 330.343 258.012 292.335C265.568 254.327 284.229 219.412 311.636 192.006C339.043 164.601 373.964 145.935 411.984 138.371C450.003 130.807 489.413 134.683 525.228 149.51C561.044 164.337 591.656 189.448 613.194 221.668C634.732 253.888 646.228 291.769 646.228 330.52C646.118 382.437 625.442 432.196 588.724 468.912C552.006 505.629 502.235 526.312 450.3 526.438ZM450.3 145.668C413.809 145.668 378.138 156.485 347.797 176.751C317.456 197.017 293.808 225.822 279.844 259.523C265.88 293.224 262.226 330.308 269.345 366.085C276.464 401.862 294.036 434.725 319.839 460.519C345.642 486.313 378.516 503.878 414.306 510.995C450.096 518.111 487.192 514.459 520.906 500.5C554.619 486.54 583.434 462.901 603.707 432.57C623.98 402.24 634.801 366.581 634.801 330.104C634.628 281.263 615.127 234.476 580.557 199.963C545.987 165.45 499.158 146.016 450.3 145.906V145.668Z" fill="#0C6CF2"/>
<path opacity="0.1" d="M450.3 449.332C426.758 449.332 403.744 442.353 384.169 429.279C364.594 416.204 349.338 397.62 340.328 375.877C331.319 354.135 328.962 330.21 333.555 307.128C338.148 284.046 349.484 262.844 366.131 246.203C382.778 229.562 403.988 218.229 427.078 213.637C450.168 209.046 474.102 211.403 495.852 220.409C517.602 229.415 536.193 244.666 549.272 264.234C562.352 283.802 569.333 306.808 569.333 330.342C569.333 361.9 556.792 392.166 534.469 414.481C512.146 436.796 481.87 449.332 450.3 449.332ZM450.3 223.25C429.015 223.238 408.205 229.537 390.502 241.35C372.798 253.162 358.997 269.958 350.843 289.612C342.69 309.266 340.55 330.897 344.696 351.766C348.841 372.636 359.085 391.809 374.131 406.858C389.178 421.908 408.351 432.158 429.226 436.314C450.101 440.469 471.74 438.342 491.406 430.203C511.072 422.063 527.881 408.276 539.707 390.585C551.534 372.894 557.846 352.095 557.846 330.818C557.87 316.676 555.107 302.668 549.715 289.594C544.323 276.52 536.407 264.636 526.421 254.62C516.434 244.603 504.572 236.652 491.511 231.218C478.45 225.785 464.447 222.976 450.3 222.953V223.25Z" fill="#0C6CF2"/>
</g>
<path d="M611.649 429.163C623.947 423.469 634.297 414.282 641.407 402.747C648.52 391.214 652.041 377.826 651.522 364.286C651.003 350.747 646.467 337.668 638.491 326.712C630.497 315.693 619.419 307.285 606.654 302.549C593.888 297.812 580.006 296.958 566.755 300.094C553.505 303.231 541.48 310.217 532.194 320.174C522.909 330.13 516.78 342.611 514.578 356.044C512.167 371.728 515.275 387.763 523.372 401.413C531.469 415.062 544.053 425.48 558.977 430.889C576.077 437.266 595.003 436.646 611.649 429.163Z" fill="#0C6CF2"/>
<path d="M564.869 327.962L578.201 356.698L607.661 356.4L564.869 327.962Z" fill="white"/>
<path d="M564.869 327.962L558.62 378.771L578.022 356.698L564.869 327.962Z" fill="white"/>
<path d="M600.877 405.782L591.83 386.208L560.882 383.292L600.877 405.782Z" fill="white"/>
<path d="M589.747 381.805L607.602 356.46L578.142 356.817L589.747 381.805Z" fill="white"/>
<path d="M558.62 378.771L589.569 381.746L578.023 356.757L558.62 378.771Z" fill="white"/>
<path d="M466.667 503.175C472.526 501.003 477.832 497.562 482.205 493.098C486.577 488.635 489.908 483.26 491.958 477.359C494.009 471.458 494.729 465.177 494.066 458.965C493.402 452.753 491.373 446.765 488.123 441.429C484.873 436.094 480.483 431.542 475.267 428.102C470.051 424.661 464.138 422.417 457.953 421.529C451.767 420.641 445.461 421.132 439.487 422.966C433.514 424.8 428.019 427.932 423.399 432.138C417.161 437.748 412.764 445.109 410.781 453.259C408.967 460.733 409.216 468.559 411.502 475.902C413.789 483.246 418.027 489.831 423.764 494.955C429.501 500.079 436.522 503.551 444.078 504.998C451.634 506.446 459.441 505.816 466.667 503.175Z" fill="#0C6CF2"/>
<path d="M454.824 493.537C455.24 494.548 454.824 495.143 453.633 495.441C446.837 495.763 440.116 493.904 434.452 490.136C428.788 486.369 424.477 480.889 422.149 474.499C419.813 468.153 419.604 461.221 421.554 454.746C423.444 448.224 427.389 442.486 432.803 438.385H433.457C433.672 438.329 433.897 438.329 434.112 438.385C434.34 438.445 434.546 438.569 434.707 438.742C434.852 438.914 434.954 439.118 435.005 439.337L435.838 441.717C435.926 442.068 435.926 442.436 435.838 442.788C435.74 443.132 435.579 443.455 435.362 443.74C431.21 447.187 428.223 451.83 426.806 457.036C425.39 462.242 425.613 467.758 427.446 472.833C429.359 477.885 432.749 482.245 437.176 485.344C441.603 488.443 446.861 490.137 452.264 490.205C452.639 490.226 452.995 490.373 453.276 490.622C453.571 490.842 453.781 491.157 453.871 491.514L454.824 493.537Z" fill="white"/>
<path d="M461.846 481.638C461.964 481.985 461.964 482.362 461.846 482.709C461.787 482.873 461.692 483.022 461.569 483.145C461.445 483.269 461.296 483.363 461.132 483.423L458.454 484.375C458.285 484.447 458.102 484.484 457.918 484.484C457.734 484.484 457.552 484.447 457.383 484.375C457.212 484.309 457.059 484.205 456.935 484.071C456.811 483.937 456.72 483.776 456.668 483.601L455.18 479.615C452.958 480.312 450.564 480.225 448.397 479.369C446.231 478.514 444.424 476.942 443.277 474.915C443.14 474.627 443.113 474.299 443.2 473.992C443.288 473.685 443.485 473.421 443.753 473.249L446.789 472.178C447.08 472.091 447.39 472.091 447.682 472.178C447.983 472.284 448.25 472.469 448.455 472.714C448.818 473.391 449.326 473.98 449.943 474.439C450.553 474.892 451.238 475.234 451.967 475.451C452.714 475.595 453.481 475.595 454.228 475.451C454.996 475.375 455.732 475.109 456.371 474.677C459.704 473.547 461.43 470.988 460.477 468.371C459.525 465.753 457.859 465.158 452.919 466.229C445.539 467.716 441.611 466.943 439.409 461.291C438.698 459.147 438.804 456.816 439.706 454.746C440.658 452.666 442.327 450.997 444.408 450.046L442.92 446.06C442.85 445.901 442.813 445.728 442.813 445.554C442.813 445.38 442.85 445.208 442.92 445.048C443.056 444.712 443.31 444.437 443.634 444.275L446.313 443.323C446.669 443.217 447.051 443.243 447.39 443.396C447.729 443.549 448.001 443.819 448.158 444.156L449.586 448.142C451.421 447.662 453.363 447.787 455.121 448.499C456.89 449.213 458.375 450.488 459.347 452.128C459.488 452.425 459.517 452.763 459.43 453.08C459.342 453.396 459.144 453.671 458.87 453.854L456.192 454.806C455.881 454.895 455.551 454.895 455.24 454.806C454.936 454.705 454.667 454.519 454.466 454.27C453.742 453.28 452.686 452.584 451.49 452.307C450.268 452.052 448.994 452.264 447.919 452.902C444.587 454.092 443.515 456.352 444.408 458.494C445.301 460.636 446.729 461.767 451.967 460.636C459.347 459.089 463.215 459.863 465.417 465.574C466.222 467.804 466.222 470.246 465.417 472.476C464.444 474.649 462.767 476.43 460.656 477.533L461.846 481.638Z" fill="white"/>
<path d="M471.964 489.016H471.369C471.135 489.073 470.889 489.073 470.655 489.016C470.438 488.967 470.247 488.84 470.119 488.659C470.056 488.465 470.056 488.257 470.119 488.064L469.227 485.684C469.109 485.337 469.109 484.96 469.227 484.613C469.285 484.255 469.451 483.922 469.703 483.661C473.824 480.189 476.78 475.536 478.169 470.33C479.558 465.124 479.314 459.617 477.47 454.555C475.626 449.492 472.271 445.118 467.859 442.023C463.446 438.929 458.19 437.265 452.8 437.255C452.437 437.189 452.092 437.047 451.788 436.838C451.504 436.583 451.298 436.253 451.193 435.886L450.36 433.626C449.943 432.614 450.36 432.019 451.55 431.722C458.346 431.4 465.067 433.259 470.731 437.026C476.395 440.794 480.706 446.273 483.034 452.664C485.37 459.009 485.579 465.942 483.629 472.416C481.74 478.938 477.795 484.677 472.381 488.778L471.964 489.016Z" fill="white"/>
<path d="M366.62 377.343C388.102 382.331 410.581 380.852 431.223 373.092C451.866 365.331 469.748 351.636 482.618 333.733C492.18 320.381 498.65 305.07 501.558 288.908C504.467 272.747 503.741 256.142 499.433 240.296C495.125 224.45 487.344 209.761 476.653 197.294C465.963 184.827 452.63 174.895 437.624 168.217C417.488 159.225 395.147 156.365 373.394 159.994C351.641 163.624 331.44 173.582 315.317 188.624C300.656 202.377 290.016 219.861 284.539 239.2C279.062 258.538 278.953 279.003 284.226 298.398C289.499 317.793 299.953 335.388 314.468 349.296C328.984 363.203 347.012 372.899 366.62 377.343Z" fill="#0C6CF2"/>
<path d="M443.754 266.92C449.408 253.295 440.064 243.122 426.434 234.733L435.659 216.884L424.351 211.292L415.364 229.14L406.437 224.738L415.543 206.889L404.235 201.297L395.426 219.145L388.344 215.635L373.108 207.9L367.156 219.799C367.156 219.799 375.429 223.786 375.25 223.845C376.812 224.445 378.088 225.614 378.821 227.117C379.543 228.624 379.65 230.353 379.119 231.937L353.765 281.437C353.47 281.92 353.086 282.344 352.634 282.686C352.163 283.025 351.641 283.286 351.087 283.459C350.515 283.55 349.932 283.55 349.361 283.459C348.793 283.361 348.248 283.159 347.754 282.864L339.719 278.759L330.792 290.658L345.195 297.976C347.932 299.285 350.491 300.713 353.11 302.081L343.707 319.93L355.015 325.582L364.299 307.733L373.108 312.255L363.883 330.104L375.191 335.696L384.475 317.491C403.639 325.82 419.054 327.724 429.648 311.184C438.1 297.857 434.707 288.219 425.422 280.366C429.533 280.422 433.548 279.126 436.85 276.677C440.142 274.253 442.563 270.831 443.754 266.92ZM408.044 298.155C401.08 311.898 378.286 298.155 370.786 294.645L383.166 270.43C390.903 274.238 415.543 283.935 408.282 298.155H408.044ZM420.364 261.446C413.995 273.821 395.129 262.517 388.879 259.364L400.188 237.351C406.496 240.504 427.208 248.476 420.602 261.446H420.364Z" fill="white"/>
<path d="M96.1189 589.027C70.4352 555.189 49.8611 517.764 35.0551 477.949C16.5232 428.084 7.4606 375.2 8.33238 322.012L0.059523 321.001C-0.967814 375.507 8.2795 429.719 27.3181 480.805C42.5872 521.782 63.869 560.26 90.4648 594.977C92.2503 593.073 94.1549 590.99 96.1189 589.027Z" fill="#0C6CF2"/>
<path d="M483.332 758.945C409.647 765.891 335.41 753.847 267.705 723.962C266.217 726.342 264.55 728.662 262.943 730.864C332.687 761.792 409.221 774.249 485.177 767.037L483.332 758.945Z" fill="#0C6CF2"/>
<path d="M174.383 730.983C161.591 730.912 149.107 727.056 138.506 719.901C127.904 712.745 119.66 702.611 114.813 690.777C109.967 678.943 108.736 665.939 111.274 653.406C113.813 640.873 120.008 629.373 129.078 620.356C138.148 611.338 149.687 605.209 162.238 602.74C174.789 600.271 187.791 601.574 199.602 606.483C211.413 611.393 221.506 619.69 228.605 630.327C235.705 640.964 239.494 653.465 239.494 666.252C239.415 683.457 232.519 699.93 220.315 712.063C208.111 724.195 191.595 730.999 174.383 730.983ZM174.383 607.471C162.769 607.541 151.435 611.048 141.812 617.55C132.189 624.052 124.708 633.257 120.312 644.004C115.916 654.75 114.803 666.558 117.112 677.937C119.421 689.316 125.049 699.756 133.287 707.941C141.524 716.126 152.003 721.689 163.399 723.929C174.796 726.168 186.601 724.983 197.324 720.524C208.048 716.064 217.211 708.53 223.657 698.872C230.102 689.213 233.542 677.862 233.542 666.252C233.479 650.62 227.215 635.651 216.124 624.631C205.033 613.61 190.021 607.439 174.383 607.471Z" fill="#0C6CF2"/>
<path d="M216.58 -49.7139C186.736 -32.0678 159.053 -11.0031 134.091 13.0536C94.8139 50.904 62.9613 95.7603 40.1738 145.311L48.0298 147.989C84.6332 68.7612 144.422 2.50011 219.496 -42.039C218.425 -44.6568 217.413 -47.0366 216.58 -49.7139Z" fill="#0C6CF2"/>
<path d="M593.675 66.4208C570.13 53.8169 545.04 44.3367 519.042 38.2201C482.494 29.6666 444.675 27.972 407.508 33.2225L408.877 38.815C471.533 30.093 535.339 41.599 590.997 71.6564C591.638 69.7934 592.539 68.0306 593.675 66.4208Z" fill="#0C6CF2"/>
<path d="M499.818 623.058C434.491 634.121 367.338 623.198 308.89 592.002L305.735 596.702C338.76 614.385 374.783 625.783 411.972 630.317C441.85 634 472.107 633.298 501.782 628.234C501.068 626.568 500.413 624.843 499.818 623.058Z" fill="#0C6CF2"/>
<path d="M152.957 349.856C151.054 349.847 149.157 349.628 147.303 349.202C148.707 372.87 152.882 396.293 159.742 418.99C170.564 454.728 187.985 488.126 211.104 517.454L215.211 513.527C178.386 466.644 156.732 409.653 153.135 350.154L152.957 349.856Z" fill="#0C6CF2"/>
<path d="M290.916 74.9286C259.075 94.4367 231.143 119.696 208.545 149.417C196.086 165.914 185.337 183.636 176.466 202.308C178.311 202.665 180.156 203.141 182.12 203.676C206.46 152.515 245.12 109.508 293.415 79.8668L290.916 74.9286Z" fill="#0C6CF2"/>
<path d="M159.742 332.126C148.511 332.068 137.548 328.684 128.239 322.402C118.93 316.121 111.692 307.223 107.437 296.833C103.183 286.442 102.103 275.024 104.334 264.021C106.566 253.017 112.008 242.921 119.975 235.007C127.942 227.093 138.075 221.716 149.096 219.554C160.117 217.393 171.532 218.544 181.9 222.862C192.267 227.18 201.122 234.472 207.347 243.817C213.573 253.162 216.889 264.141 216.877 275.368C216.814 290.464 210.763 304.918 200.051 315.559C189.34 326.2 174.843 332.158 159.742 332.126ZM159.742 224.5C149.69 224.558 139.881 227.592 131.552 233.217C123.223 238.842 116.747 246.807 112.941 256.107C109.136 265.407 108.17 275.625 110.167 285.473C112.164 295.321 117.034 304.357 124.162 311.441C131.29 318.526 140.358 323.341 150.221 325.28C160.083 327.219 170.3 326.194 179.581 322.335C188.862 318.477 196.791 311.957 202.37 303.598C207.948 295.239 210.926 285.416 210.926 275.368C210.863 261.845 205.44 248.898 195.847 239.363C186.253 229.829 173.27 224.484 159.742 224.5Z" fill="#0C6CF2"/>
<path d="M571.595 655.662C560.363 655.615 549.398 652.242 540.082 645.971C530.767 639.699 523.519 630.809 519.253 620.423C514.988 610.036 513.896 598.62 516.116 587.614C518.336 576.608 523.768 566.506 531.726 558.584C539.685 550.662 549.812 545.274 560.831 543.101C571.85 540.928 583.266 542.067 593.638 546.374C604.01 550.681 612.873 557.964 619.108 567.302C625.343 576.641 628.671 587.616 628.671 598.844C628.608 613.935 622.567 628.386 611.87 639.035C601.173 649.683 586.691 655.662 571.595 655.662ZM571.595 548.035C561.538 548.082 551.721 551.107 543.383 556.727C535.045 562.348 528.559 570.312 524.746 579.615C520.933 588.917 519.963 599.141 521.958 608.994C523.953 618.847 528.824 627.889 535.956 634.977C543.088 642.065 552.161 646.881 562.029 648.818C571.897 650.755 582.119 649.725 591.402 645.859C600.685 641.993 608.615 635.464 614.189 627.096C619.762 618.728 622.731 608.897 622.719 598.844C622.656 585.336 617.24 572.404 607.658 562.881C598.075 553.357 585.107 548.019 571.595 548.035Z" fill="#0C6CF2"/>
<path opacity="0.1" d="M569.809 641.978C594.79 641.978 615.041 621.734 615.041 596.761C615.041 571.789 594.79 551.545 569.809 551.545C544.828 551.545 524.577 571.789 524.577 596.761C524.577 621.734 544.828 641.978 569.809 641.978Z" fill="#0C6CF2"/>
<path opacity="0.1" d="M165.098 320.703C190.079 320.703 210.331 300.459 210.331 275.487C210.331 250.515 190.079 230.271 165.098 230.271C140.117 230.271 119.866 250.515 119.866 275.487C119.866 300.459 140.117 320.703 165.098 320.703Z" fill="#0C6CF2"/>
<path opacity="0.1" d="M182.299 713.372C210.928 713.372 234.137 690.171 234.137 661.552C234.137 632.932 210.928 609.731 182.299 609.731C153.669 609.731 130.46 632.932 130.46 661.552C130.46 690.171 153.669 713.372 182.299 713.372Z" fill="#0C6CF2"/>
</g>
<defs>
<clipPath id="clip0_212_5242">
<rect width="945" height="917" fill="white" transform="translate(0 -148)"/>
</clipPath>
</defs>
</svg>
