<svg fill="none" height="24" viewBox="0 0 68 24" width="68" xmlns="http://www.w3.org/2000/svg"><path d="m67.2273 5.49677h-3.4773l-2.0091 8.51613-.3091 1.1613c-.2318.0774-.3863.0774-.6182.1548-.3863.0775-.6954.0775-1.0818.0775-.4636 0-.7727-.0775-1.0818-.2323-.2318-.1548-.4636-.3097-.5409-.5419-.0773-.2323-.1545-.542-.1545-.8517 0-.3096.0772-.6967.1545-1.0064l1.0818-4.41291.6955-2.94194h-3.5546l-1.6227 6.81295c-.2318.8516-.3091 1.6258-.3091 2.3225 0 .7742.0773 1.3936.3091 1.9355.2318.542.6955 1.0065 1.3136 1.3162.6182.3096 1.4682.4645 2.55.4645.7728 0 1.4682-.0775 2.0091-.2323h.0773c-.1545.6968-.4636 1.2387-1.0045 1.7032-.541.4646-1.2364.6968-2.241.6968-.3863 0-.85 0-1.1591-.0774l-.6954 2.8645c.4636.0774 1.0045.0774 1.5455.0774 1.0818 0 2.009-.1548 2.7818-.3871.7727-.2322 1.4681-.6193 2.0863-1.0838.5409-.4646 1.0819-1.0839 1.4682-1.8581.3864-.7742.6955-1.6258.9273-2.6323l2.3954-10.1419zm-14.6046 7.27743c-.2318.8516-.3091 1.7806-.2318 2.7097.0773.929.4636 2.2451.7727 2.9419h-3.4c-.3863-.6968-.3863-1.0064-.4636-1.2387-.4636.3871-.9273.6194-1.4682.8516-.5409.2323-1.0818.3871-1.7772.3871-.7728 0-1.4682-.1548-2.0091-.3871-.5409-.2322-1.0046-.6193-1.391-1.0839-.3863-.4645-.6181-1.0064-.7727-1.6258-.1545-.6193-.2318-1.2387-.2318-2.0129 0-1.0838.2318-2.0903.5409-3.0193.3864-.92906.9273-1.78067 1.6227-2.47744.6955-.69678 2.3182-2.32259 5.0228-2.32259h5.4091zm-2.4727-4.33549c-1.6227 0-1.9318 0-2.6273.30968-.4636.23226-.85.61935-1.2363 1.08387-.3091.38714-.6182.92904-.85 1.47094-.2318.542-.3091 1.1613-.3091 1.7807 0 .7742.1545 1.3161.3863 1.7806.2319.4645.6955.6194 1.3909.6194.3864 0 .6955-.0774 1.0046-.2323.3091-.1548.6182-.3871.9273-.6968 0-.3871.0772-.7742.1545-1.2387s.1546-.8516.2318-1.1613zm-9.35 2.16779c0 1.1612-.2318 2.1677-.5409 3.1741-.3864.9291-.9273 1.7807-1.5455 2.4775-.6954.6967-1.4681 1.2387-2.3954 1.6258s-1.9318.6193-3.0136.6193c-.541 0-1.0819-.0774-1.6228-.1548l-1.0818 4.2581h-3.4773l4.0182-17.03231h4.6364c.85 0 1.6227.15484 2.2409.3871s1.1591.61936 1.5454 1.08387c.3864.46452.6955 1.00645.9273 1.62581.2318.54193.3091 1.23871.3091 1.93553zm-8.5773 4.8c.2318.0774.6182.0774 1.0046.0774.6182 0 1.1591-.0774 1.7-.3097.4636-.2323.9272-.5419 1.3136-.929s.6182-.9291.85-1.471.3091-1.2387.3091-1.9355-.1545-1.2387-.4636-1.70322c-.3091-.46451-.85-.69677-1.5455-.69677h-1.3909zm-7.2636 0c-.4636 0-.7727-.0775-1.0818-.2323-.2318-.1548-.4637-.3097-.5409-.5419-.0773-.2323-.1546-.542-.1546-.8517 0-.3096.0773-.6967.1546-1.0064l1.0818-4.41291h3.9409l.6954-2.94194h-4.0181l.9272-3.71612-3.7091.61935-2.3181 9.98712c-.2319.8516-.3091 1.6258-.3091 2.3226 0 .7742.0772 1.3935.3091 1.9354.2318.542.6954 1.0065 1.3136 1.3162.6182.3096 1.4682.4645 2.55.4645.7727 0 1.4682-.0774 2.0091-.2323.0773 0 .1545 0 .2318-.0774l.6955-3.0193c-.2319.0774-.4637.1548-.6955.1548-.3864.2323-.6954.2323-1.0818.2323zm-8.8864-9.90973-3.0909 12.92903h3.4773l3.0909-12.92903zm3.7864-1.54838.5409-2.24516h-3.4773l-.5409 2.24516zm-11.51364 1.54838c.77272 0 1.39091.15484 1.93184.3871.5409.23226 1.0045.61936 1.3909 1.08387.3863.46452.6182 1.00645.7727 1.62581.1546.61935.2318 1.23871.2318 1.93545 0 1.0839-.2318 2.0904-.6182 3.0968-.3863.929-.9272 1.7807-1.6227 2.5548-.69543.7742-1.46816 1.2388-2.47271 1.7033-.92727.3871-1.93182.6193-3.01363.6193h-.77273c-.38637 0-.77273 0-1.23637-.0774-.46363-.0774-.92727-.1548-1.46818-.3097-.540907-.1548-1.004544-.3096-1.46818-.5419l4.01818-17.032264 3.63182-.541936-1.46818 6.03871c.30909-.15484.61818-.23226.92727-.30968.54091-.23226.85-.23226 1.23637-.23226zm-3.09091 10.06453c.5409 0 1.08181-.1548 1.54545-.3871s.92727-.6194 1.23637-1.0839c.38636-.4645.61818-.929.84999-1.4709.23182-.542.3091-1.1613.3091-1.7807 0-.7742-.15455-1.31612-.38637-1.78064-.23182-.38709-.77273-.61935-1.46818-.61935-.23182 0-.46364 0-.77273.07742-.38636.07742-.61818.23226-.92727.46452l-1.54546 6.42585c.46364.0774.61819.0774.69546.0774.15455.0774.30909.0774.46364.0774z" fill="#2a3f90"/></svg>