<svg fill="none" height="24" viewBox="0 0 24 24" width="24" xmlns="http://www.w3.org/2000/svg"><g fill="#c2c9d6"><path d="m2.05353 8.72217-1.094996 1.095c-.303074.29113-.5442.64053-.708915 1.02713-.1647162.3867-.249619.8026-.249619 1.2229 0 .4202.0849028.8362.249619 1.2228.164715.3866.405841.736.708915 1.0272l8.821476 8.9085c.20908.2139.45239.3913.71999.525v-10.7985z"/><path d="m21.9465 8.72217 1.095 1.095c.303.29113.5442.64053.7089 1.02713.1647.3867.2496.8026.2496 1.2229 0 .4202-.0849.8362-.2496 1.2228s-.4059.736-.7089 1.0272l-8.8215 8.9085c-.2091.2139-.4524.3913-.72.525v-10.7985z"/><path d="m19.8284 6.48695-5.52-5.534996c-.2922-.301193-.6419-.540658-1.0284-.704178-.3865-.1635204-.8019-.247776-1.2216-.247776-.4196 0-.835.0842556-1.2215.247776-.3865.16352-.7362.402985-1.02846.704178l-5.535 5.534996 7.75496 3.86995z"/></g></svg>