<svg fill="none" height="24" viewBox="0 0 24 24" width="24" xmlns="http://www.w3.org/2000/svg"><g fill="#f5b73d"><path d="m2.05353 8.72192-1.094996 1.09501c-.303074.29117-.5442.64057-.708915 1.02717-.1647162.3866-.249619.8026-.249619 1.2228 0 .4203.0849028.8362.249619 1.2229.164715.3866.405841.736.708915 1.0271l8.821476 8.9086c.20908.2139.45239.3913.71999.525v-10.7986z"/><path d="m21.9465 8.72192 1.095 1.09501c.303.29117.5442.64057.7089 1.02717s.2496.8026.2496 1.2228c0 .4203-.0849.8362-.2496 1.2229-.1647.3866-.4059.736-.7089 1.0271l-8.8215 8.9086c-.2091.2139-.4524.3913-.72.525v-10.7986z"/><path d="m19.8284 6.48695-5.52-5.534996c-.2922-.301193-.6419-.540658-1.0284-.704178-.3865-.1635204-.8019-.247776-1.2216-.247776-.4196 0-.835.0842556-1.2215.247776-.3865.16352-.7362.402985-1.02846.704178l-5.535 5.534996 7.75496 3.86995z"/></g></svg>