<svg width="77" height="77" viewBox="0 0 77 77" fill="none" xmlns="http://www.w3.org/2000/svg">
<mask id="mask0_1780_135182" style="mask-type:alpha" maskUnits="userSpaceOnUse" x="0" y="0" width="77" height="77">
<path fill-rule="evenodd" clip-rule="evenodd" d="M76.5 0H0V76.5H44.9978C39.534 72.395 36 65.8602 36 58.5C36 46.0736 46.0736 36 58.5 36C65.8602 36 72.395 39.534 76.5 44.9978V0ZM76.5 72.0022C75.2206 73.7051 73.7051 75.2206 72.0022 76.5H76.5V72.0022Z" fill="#D9D9D9"/>
</mask>
<g mask="url(#mask0_1780_135182)">
<g clip-path="url(#clip0_1780_135182)">
<path d="M36 72C55.8823 72 72 55.8823 72 36C72 16.1177 55.8823 0 36 0C16.1177 0 0 16.1177 0 36C0 55.8823 16.1177 72 36 72Z" fill="#FF9B22"/>
<path d="M52.1753 31.545C52.8818 26.829 49.2885 24.2933 44.379 22.6012L45.972 16.2112L42.084 15.2438L40.5315 21.465C39.51 21.2085 38.4615 20.97 37.4153 20.7315L38.979 14.4698L35.091 13.5L33.498 19.8877C32.652 19.6942 31.8195 19.5053 31.014 19.3028L31.0185 19.2825L25.6545 17.9437L24.6195 22.0972C24.6195 22.0972 27.5063 22.7588 27.4455 22.7993C29.0205 23.193 29.304 24.2347 29.2568 25.0627L24.894 42.5655C24.7005 43.0425 24.2123 43.7602 23.1098 43.488C23.1503 43.5442 20.2838 42.7837 20.2838 42.7837L18.3533 47.2342L23.4158 48.4965C24.3563 48.7328 25.2788 48.9803 26.1855 49.212L24.5768 55.674L28.4625 56.6415L30.0555 50.2515C31.1175 50.5373 32.148 50.8027 33.156 51.0547L31.5675 57.4177L35.4555 58.3853L37.0643 51.9368C43.6973 53.1922 48.6833 52.686 50.7825 46.6875C52.4745 41.859 50.6993 39.0713 47.2095 37.2555C49.752 36.6705 51.6645 34.9988 52.1753 31.545ZM43.2878 44.0055C42.0885 48.8363 33.9548 46.224 31.3178 45.5693L33.4553 37.008C36.0923 37.6672 44.5455 38.97 43.2878 44.0055ZM44.4915 31.4753C43.3958 35.8695 36.6278 33.6353 34.434 33.0885L36.369 25.326C38.5628 25.8727 45.6345 26.892 44.4915 31.4753Z" fill="white"/>
</g>
</g>
<path fill-rule="evenodd" clip-rule="evenodd" d="M73.5 58.5C73.5 66.7843 66.7843 73.5 58.5 73.5C50.2157 73.5 43.5 66.7843 43.5 58.5C43.5 50.2157 50.2157 43.5 58.5 43.5C66.7843 43.5 73.5 50.2157 73.5 58.5ZM58.5 51C58.5 50.1716 57.8284 49.5 57 49.5C56.1716 49.5 55.5 50.1716 55.5 51V58.5C55.5 58.9721 55.7223 59.4167 56.1 59.7L62.1 64.2C62.7627 64.6971 63.7029 64.5627 64.2 63.9C64.6971 63.2373 64.5627 62.2971 63.9 61.8L58.5 57.75V51Z" fill="#98A1B2"/>
<defs>
<clipPath id="clip0_1780_135182">
<rect width="72" height="72" fill="white"/>
</clipPath>
</defs>
</svg>
