<svg viewBox="0 0 570.46 259.77" xmlns="http://www.w3.org/2000/svg"><path d="m514.49 153.64v-29.23h-20.06v-33.51h-32.8v-17.11h-21.39v-24.24h-59.89v17.82h-24.24v-42.06h-63.45v26.38h-19.25v15h-27.81v-38.53h-.37a33.16 33.16 0 0 0 -65.56 0h-.37v10h-32.09v16.4h-11.4v-22.12h-55.62v83.42h-27v79.14h-25.52v52.76h515.13v-94.12z" fill="#ededed"/><path d="m197.5 122.42h33.33v125.33h-33.33z" fill="#bcbcbc"/><path d="m203.98 139.44h2.27v108.31h-2.27z" fill="#ababab"/><path d="m209.86 139.44h2.27v108.31h-2.27z" fill="#ababab"/><path d="m215.73 139.44h2.27v108.31h-2.27z" fill="#ababab"/><path d="m221.6 139.44h2.27v108.31h-2.27z" fill="#ababab"/><path d="m227.48 139.44h2.27v108.31h-2.27z" fill="#ababab"/><path d="m186.47 70.12v-8.33h-8.05v-8.67h-15.62v8.67 8.33h11.93v177.63h22.77v-177.63z" fill="#919191"/><path d="m162.76 70.12v-8.33-8.67h-19.06v8.67h-8.05v8.33h-10.34v177.63h49.42v-177.63z" fill="#a3a3a3"/><path d="m121.66 73.95h53.06v2.19h-53.06z" fill="#919191"/><path d="m130.41 78.19h3.47v3.34h-3.47z" fill="#919191"/><path d="m135.65 78.19h3.47v3.34h-3.47z" fill="#919191"/><path d="m140.89 78.19h3.47v3.34h-3.47z" fill="#919191"/><path d="m146.14 78.19h3.47v3.34h-3.47z" fill="#919191"/><path d="m151.38 78.19h3.47v3.34h-3.47z" fill="#919191"/><path d="m156.63 78.19h3.47v3.34h-3.47z" fill="#919191"/><path d="m161.87 78.19h3.47v3.34h-3.47z" fill="#919191"/><path d="m167.11 78.19h3.47v3.34h-3.47z" fill="#919191"/><path d="m178.97 78.19h3.47v3.34h-3.47z" fill="#848484"/><path d="m184.38 78.19h3.47v3.34h-3.47z" fill="#848484"/><path d="m189.79 78.19h3.47v3.34h-3.47z" fill="#848484"/><path d="m121.66 84.3h53.06v2.19h-53.06z" fill="#919191"/><path d="m130.41 88.54h3.47v3.34h-3.47z" fill="#919191"/><path d="m135.65 88.54h3.47v3.34h-3.47z" fill="#919191"/><path d="m140.89 88.54h3.47v3.34h-3.47z" fill="#919191"/><path d="m146.14 88.54h3.47v3.34h-3.47z" fill="#919191"/><path d="m151.38 88.54h3.47v3.34h-3.47z" fill="#919191"/><path d="m156.63 88.54h3.47v3.34h-3.47z" fill="#919191"/><path d="m161.87 88.54h3.47v3.34h-3.47z" fill="#919191"/><path d="m167.11 88.54h3.47v3.34h-3.47z" fill="#919191"/><path d="m174.73 73.95h26.77v2.19h-26.77z" fill="#848484"/><path d="m178.97 88.54h3.47v3.34h-3.47z" fill="#848484"/><path d="m184.38 88.54h3.47v3.34h-3.47z" fill="#848484"/><path d="m189.79 88.54h3.47v3.34h-3.47z" fill="#848484"/><path d="m174.73 84.3h26.77v2.19h-26.77z" fill="#848484"/><path d="m121.66 94.48h53.06v2.19h-53.06z" fill="#919191"/><path d="m130.41 98.72h3.47v3.34h-3.47z" fill="#919191"/><path d="m135.65 98.72h3.47v3.34h-3.47z" fill="#919191"/><path d="m140.89 98.72h3.47v3.34h-3.47z" fill="#919191"/><path d="m146.14 98.72h3.47v3.34h-3.47z" fill="#919191"/><path d="m151.38 98.72h3.47v3.34h-3.47z" fill="#919191"/><path d="m156.63 98.72h3.47v3.34h-3.47z" fill="#919191"/><path d="m161.87 98.72h3.47v3.34h-3.47z" fill="#919191"/><path d="m167.11 98.72h3.47v3.34h-3.47z" fill="#919191"/><path d="m178.97 98.72h3.47v3.34h-3.47z" fill="#848484"/><path d="m184.38 98.72h3.47v3.34h-3.47z" fill="#848484"/><path d="m189.79 98.72h3.47v3.34h-3.47z" fill="#848484"/><path d="m174.73 94.48h26.77v2.19h-26.77z" fill="#848484"/><path d="m121.66 104.66h53.06v2.19h-53.06z" fill="#919191"/><path d="m130.41 108.9h3.47v3.34h-3.47z" fill="#919191"/><path d="m135.65 108.9h3.47v3.34h-3.47z" fill="#919191"/><path d="m140.89 108.9h3.47v3.34h-3.47z" fill="#919191"/><path d="m146.14 108.9h3.47v3.34h-3.47z" fill="#919191"/><path d="m151.38 108.9h3.47v3.34h-3.47z" fill="#919191"/><path d="m156.63 108.9h3.47v3.34h-3.47z" fill="#919191"/><path d="m161.87 108.9h3.47v3.34h-3.47z" fill="#919191"/><path d="m167.11 108.9h3.47v3.34h-3.47z" fill="#919191"/><path d="m178.97 108.9h3.47v3.34h-3.47z" fill="#848484"/><path d="m184.38 108.9h3.47v3.34h-3.47z" fill="#848484"/><path d="m189.79 108.9h3.47v3.34h-3.47z" fill="#848484"/><path d="m174.73 104.66h26.77v2.19h-26.77z" fill="#848484"/><path d="m121.66 114.84h53.06v2.19h-53.06z" fill="#919191"/><path d="m130.41 119.08h3.47v3.34h-3.47z" fill="#919191"/><path d="m135.65 119.08h3.47v3.34h-3.47z" fill="#919191"/><path d="m140.89 119.08h3.47v3.34h-3.47z" fill="#919191"/><path d="m146.14 119.08h3.47v3.34h-3.47z" fill="#919191"/><path d="m151.38 119.08h3.47v3.34h-3.47z" fill="#919191"/><path d="m156.63 119.08h3.47v3.34h-3.47z" fill="#919191"/><path d="m161.87 119.08h3.47v3.34h-3.47z" fill="#919191"/><path d="m167.11 119.08h3.47v3.34h-3.47z" fill="#919191"/><path d="m178.97 119.08h3.47v3.34h-3.47z" fill="#848484"/><path d="m184.38 119.08h3.47v3.34h-3.47z" fill="#848484"/><path d="m189.79 119.08h3.47v3.34h-3.47z" fill="#848484"/><path d="m174.73 114.84h26.77v2.19h-26.77z" fill="#848484"/><path d="m121.66 125.02h53.06v2.19h-53.06z" fill="#919191"/><path d="m130.41 129.26h3.47v3.34h-3.47z" fill="#919191"/><path d="m135.65 129.26h3.47v3.34h-3.47z" fill="#919191"/><path d="m140.89 129.26h3.47v3.34h-3.47z" fill="#919191"/><path d="m146.14 129.26h3.47v3.34h-3.47z" fill="#919191"/><path d="m151.38 129.26h3.47v3.34h-3.47z" fill="#919191"/><path d="m156.63 129.26h3.47v3.34h-3.47z" fill="#919191"/><path d="m161.87 129.26h3.47v3.34h-3.47z" fill="#919191"/><path d="m167.11 129.26h3.47v3.34h-3.47z" fill="#919191"/><path d="m178.97 129.26h3.47v3.34h-3.47z" fill="#848484"/><path d="m184.38 129.26h3.47v3.34h-3.47z" fill="#848484"/><path d="m189.79 129.26h3.47v3.34h-3.47z" fill="#848484"/><path d="m174.73 125.02h26.77v2.19h-26.77z" fill="#848484"/><path d="m121.66 135.2h53.06v2.19h-53.06z" fill="#919191"/><path d="m130.41 139.44h3.47v3.34h-3.47z" fill="#919191"/><path d="m135.65 139.44h3.47v3.34h-3.47z" fill="#919191"/><path d="m140.89 139.44h3.47v3.34h-3.47z" fill="#919191"/><path d="m146.14 139.44h3.47v3.34h-3.47z" fill="#919191"/><path d="m151.38 139.44h3.47v3.34h-3.47z" fill="#919191"/><path d="m156.63 139.44h3.47v3.34h-3.47z" fill="#919191"/><path d="m161.87 139.44h3.47v3.34h-3.47z" fill="#919191"/><path d="m167.11 139.44h3.47v3.34h-3.47z" fill="#919191"/><path d="m178.97 139.44h3.47v3.34h-3.47z" fill="#848484"/><path d="m184.38 139.44h3.47v3.34h-3.47z" fill="#848484"/><path d="m189.79 139.44h3.47v3.34h-3.47z" fill="#848484"/><path d="m174.73 135.2h26.77v2.19h-26.77z" fill="#848484"/><path d="m121.66 145.38h53.06v2.19h-53.06z" fill="#919191"/><path d="m130.41 149.62h3.47v3.34h-3.47z" fill="#919191"/><path d="m135.65 149.62h3.47v3.34h-3.47z" fill="#919191"/><path d="m140.89 149.62h3.47v3.34h-3.47z" fill="#919191"/><path d="m146.14 149.62h3.47v3.34h-3.47z" fill="#919191"/><path d="m151.38 149.62h3.47v3.34h-3.47z" fill="#919191"/><path d="m156.63 149.62h3.47v3.34h-3.47z" fill="#919191"/><path d="m161.87 149.62h3.47v3.34h-3.47z" fill="#919191"/><path d="m167.11 149.62h3.47v3.34h-3.47z" fill="#919191"/><path d="m178.97 149.62h3.47v3.34h-3.47z" fill="#848484"/><path d="m184.38 149.62h3.47v3.34h-3.47z" fill="#848484"/><path d="m189.79 149.62h3.47v3.34h-3.47z" fill="#848484"/><path d="m174.73 145.38h26.77v2.19h-26.77z" fill="#848484"/><path d="m121.66 155.56h53.06v2.19h-53.06z" fill="#919191"/><path d="m130.41 159.8h3.47v3.34h-3.47z" fill="#919191"/><path d="m135.65 159.8h3.47v3.34h-3.47z" fill="#919191"/><path d="m140.89 159.8h3.47v3.34h-3.47z" fill="#919191"/><path d="m146.14 159.8h3.47v3.34h-3.47z" fill="#919191"/><path d="m151.38 159.8h3.47v3.34h-3.47z" fill="#919191"/><path d="m156.63 159.8h3.47v3.34h-3.47z" fill="#919191"/><path d="m161.87 159.8h3.47v3.34h-3.47z" fill="#919191"/><path d="m167.11 159.8h3.47v3.34h-3.47z" fill="#919191"/><path d="m178.97 159.8h3.47v3.34h-3.47z" fill="#848484"/><path d="m184.38 159.8h3.47v3.34h-3.47z" fill="#848484"/><path d="m189.79 159.8h3.47v3.34h-3.47z" fill="#848484"/><path d="m174.73 155.56h26.77v2.19h-26.77z" fill="#848484"/><path d="m121.66 165.74h53.06v2.19h-53.06z" fill="#919191"/><path d="m130.41 169.98h3.47v3.34h-3.47z" fill="#919191"/><path d="m135.65 169.98h3.47v3.34h-3.47z" fill="#919191"/><path d="m140.89 169.98h3.47v3.34h-3.47z" fill="#919191"/><path d="m146.14 169.98h3.47v3.34h-3.47z" fill="#919191"/><path d="m151.38 169.98h3.47v3.34h-3.47z" fill="#919191"/><path d="m156.63 169.98h3.47v3.34h-3.47z" fill="#919191"/><path d="m161.87 169.98h3.47v3.34h-3.47z" fill="#919191"/><path d="m167.11 169.98h3.47v3.34h-3.47z" fill="#919191"/><path d="m178.97 169.98h3.47v3.34h-3.47z" fill="#848484"/><path d="m184.38 169.98h3.47v3.34h-3.47z" fill="#848484"/><path d="m189.79 169.98h3.47v3.34h-3.47z" fill="#848484"/><path d="m174.73 165.74h26.77v2.19h-26.77z" fill="#848484"/><path d="m121.66 175.92h53.06v2.19h-53.06z" fill="#919191"/><path d="m130.41 180.17h3.47v3.34h-3.47z" fill="#919191"/><path d="m135.65 180.17h3.47v3.34h-3.47z" fill="#919191"/><path d="m140.89 180.17h3.47v3.34h-3.47z" fill="#919191"/><path d="m146.14 180.17h3.47v3.34h-3.47z" fill="#919191"/><path d="m151.38 180.17h3.47v3.34h-3.47z" fill="#919191"/><path d="m156.63 180.17h3.47v3.34h-3.47z" fill="#919191"/><path d="m161.87 180.17h3.47v3.34h-3.47z" fill="#919191"/><path d="m167.11 180.17h3.47v3.34h-3.47z" fill="#919191"/><path d="m178.97 180.17h3.47v3.34h-3.47z" fill="#848484"/><path d="m184.38 180.17h3.47v3.34h-3.47z" fill="#848484"/><path d="m189.79 180.17h3.47v3.34h-3.47z" fill="#848484"/><path d="m174.73 175.92h26.77v2.19h-26.77z" fill="#848484"/><path d="m121.66 186.1h53.06v2.19h-53.06z" fill="#919191"/><path d="m130.41 190.35h3.47v3.34h-3.47z" fill="#919191"/><path d="m135.65 190.35h3.47v3.34h-3.47z" fill="#919191"/><path d="m140.89 190.35h3.47v3.34h-3.47z" fill="#919191"/><path d="m146.14 190.35h3.47v3.34h-3.47z" fill="#919191"/><path d="m151.38 190.35h3.47v3.34h-3.47z" fill="#919191"/><path d="m156.63 190.35h3.47v3.34h-3.47z" fill="#919191"/><path d="m161.87 190.35h3.47v3.34h-3.47z" fill="#919191"/><path d="m167.11 190.35h3.47v3.34h-3.47z" fill="#919191"/><path d="m178.97 190.35h3.47v3.34h-3.47z" fill="#848484"/><path d="m184.38 190.35h3.47v3.34h-3.47z" fill="#848484"/><path d="m189.79 190.35h3.47v3.34h-3.47z" fill="#848484"/><path d="m174.73 186.1h26.77v2.19h-26.77z" fill="#848484"/><path d="m121.66 196.28h53.06v2.19h-53.06z" fill="#919191"/><path d="m130.41 200.53h3.47v3.34h-3.47z" fill="#919191"/><path d="m135.65 200.53h3.47v3.34h-3.47z" fill="#919191"/><path d="m140.89 200.53h3.47v3.34h-3.47z" fill="#919191"/><path d="m146.14 200.53h3.47v3.34h-3.47z" fill="#919191"/><path d="m151.38 200.53h3.47v3.34h-3.47z" fill="#919191"/><path d="m156.63 200.53h3.47v3.34h-3.47z" fill="#919191"/><path d="m161.87 200.53h3.47v3.34h-3.47z" fill="#919191"/><path d="m167.11 200.53h3.47v3.34h-3.47z" fill="#919191"/><path d="m178.97 200.53h3.47v3.34h-3.47z" fill="#848484"/><path d="m184.38 200.53h3.47v3.34h-3.47z" fill="#848484"/><path d="m189.79 200.53h3.47v3.34h-3.47z" fill="#848484"/><path d="m174.73 196.28h26.77v2.19h-26.77z" fill="#848484"/><path d="m121.66 206.46h53.06v2.19h-53.06z" fill="#919191"/><path d="m130.41 210.71h3.47v3.34h-3.47z" fill="#919191"/><path d="m135.65 210.71h3.47v3.34h-3.47z" fill="#919191"/><path d="m140.89 210.71h3.47v3.34h-3.47z" fill="#919191"/><path d="m146.14 210.71h3.47v3.34h-3.47z" fill="#919191"/><path d="m151.38 210.71h3.47v3.34h-3.47z" fill="#919191"/><path d="m156.63 210.71h3.47v3.34h-3.47z" fill="#919191"/><path d="m161.87 210.71h3.47v3.34h-3.47z" fill="#919191"/><path d="m167.11 210.71h3.47v3.34h-3.47z" fill="#919191"/><path d="m178.97 210.71h3.47v3.34h-3.47z" fill="#848484"/><path d="m184.38 210.71h3.47v3.34h-3.47z" fill="#848484"/><path d="m189.79 210.71h3.47v3.34h-3.47z" fill="#848484"/><path d="m174.73 206.46h26.77v2.19h-26.77z" fill="#848484"/><path d="m121.66 216.65h53.06v2.19h-53.06z" fill="#919191"/><path d="m130.41 220.89h3.47v3.34h-3.47z" fill="#919191"/><path d="m135.65 220.89h3.47v3.34h-3.47z" fill="#919191"/><path d="m140.89 220.89h3.47v3.34h-3.47z" fill="#919191"/><path d="m146.14 220.89h3.47v3.34h-3.47z" fill="#919191"/><path d="m151.38 220.89h3.47v3.34h-3.47z" fill="#919191"/><path d="m156.63 220.89h3.47v3.34h-3.47z" fill="#919191"/><path d="m161.87 220.89h3.47v3.34h-3.47z" fill="#919191"/><path d="m167.11 220.89h3.47v3.34h-3.47z" fill="#919191"/><path d="m178.97 220.89h3.47v3.34h-3.47z" fill="#848484"/><path d="m184.38 220.89h3.47v3.34h-3.47z" fill="#848484"/><path d="m189.79 220.89h3.47v3.34h-3.47z" fill="#848484"/><path d="m174.73 216.65h26.77v2.19h-26.77z" fill="#848484"/><path d="m121.66 226.83h53.06v2.19h-53.06z" fill="#919191"/><path d="m130.41 231.07h3.47v3.34h-3.47z" fill="#919191"/><path d="m135.65 231.07h3.47v3.34h-3.47z" fill="#919191"/><path d="m140.89 231.07h3.47v3.34h-3.47z" fill="#919191"/><path d="m146.14 231.07h3.47v3.34h-3.47z" fill="#919191"/><path d="m151.38 231.07h3.47v3.34h-3.47z" fill="#919191"/><path d="m156.63 231.07h3.47v3.34h-3.47z" fill="#919191"/><path d="m161.87 231.07h3.47v3.34h-3.47z" fill="#919191"/><path d="m167.11 231.07h3.47v3.34h-3.47z" fill="#919191"/><path d="m178.97 231.07h3.47v3.34h-3.47z" fill="#848484"/><path d="m184.38 231.07h3.47v3.34h-3.47z" fill="#848484"/><path d="m189.79 231.07h3.47v3.34h-3.47z" fill="#848484"/><path d="m174.73 226.83h26.77v2.19h-26.77z" fill="#848484"/><path d="m121.66 237.01h53.06v2.19h-53.06z" fill="#919191"/><path d="m130.41 241.25h3.47v3.34h-3.47z" fill="#919191"/><path d="m135.65 241.25h3.47v3.34h-3.47z" fill="#919191"/><path d="m140.89 241.25h3.47v3.34h-3.47z" fill="#919191"/><path d="m146.14 241.25h3.47v3.34h-3.47z" fill="#919191"/><path d="m151.38 241.25h3.47v3.34h-3.47z" fill="#919191"/><path d="m156.63 241.25h3.47v3.34h-3.47z" fill="#919191"/><path d="m161.87 241.25h3.47v3.34h-3.47z" fill="#919191"/><path d="m167.11 241.25h3.47v3.34h-3.47z" fill="#919191"/><path d="m178.97 241.25h3.47v3.34h-3.47z" fill="#848484"/><path d="m184.38 241.25h3.47v3.34h-3.47z" fill="#848484"/><path d="m189.79 241.25h3.47v3.34h-3.47z" fill="#848484"/><path d="m174.73 237.01h26.77v2.19h-26.77z" fill="#848484"/><path d="m291.33 150.16h42.32v97.59h-42.32z" fill="#606161"/><path d="m291.33 159.03h32.45v3.07h-32.45z" fill="#4c4c4d"/><path d="m291.33 166.37h32.45v3.07h-32.45z" fill="#4c4c4d"/><path d="m291.33 173.71h32.45v3.07h-32.45z" fill="#4c4c4d"/><path d="m291.33 181.04h32.45v3.07h-32.45z" fill="#4c4c4d"/><path d="m291.33 188.38h32.45v3.07h-32.45z" fill="#4c4c4d"/><path d="m291.33 195.72h32.45v3.07h-32.45z" fill="#4c4c4d"/><path d="m291.33 203.06h32.45v3.07h-32.45z" fill="#4c4c4d"/><path d="m291.33 210.39h32.45v3.07h-32.45z" fill="#4c4c4d"/><path d="m291.33 217.73h32.45v3.07h-32.45z" fill="#4c4c4d"/><path d="m291.33 225.07h32.45v3.07h-32.45z" fill="#4c4c4d"/><path d="m291.33 232.41h32.45v3.07h-32.45z" fill="#4c4c4d"/><path d="m373.3 110.08h27.6v137.67h-27.6z" fill="#9b9a9a"/><path d="m400.55 93.44h-7.42v-12.62h-19.83v12.62 13.57h27.25z" fill="#9b9a9a"/><path d="m333.65 110.08h39.65v137.67h-39.65z" fill="#a9a8a9"/><path d="m341.07 80.82v12.62h-7.42v13.57h39.65v-13.57-12.62z" fill="#a9a8a9"/><path d="m329.39 107.01h43.91v3.07h-43.91z" fill="#9b9a9a"/><path d="m373.3 107.01h30.31v3.07h-30.31z" fill="#848484"/><path d="m337.44 115.08h31.6v3.98h-31.6z" fill="#9b9a9a"/><path d="m337.44 122.46h31.6v3.98h-31.6z" fill="#9b9a9a"/><path d="m337.44 129.83h31.6v3.98h-31.6z" fill="#9b9a9a"/><path d="m337.44 137.21h31.6v3.98h-31.6z" fill="#9b9a9a"/><path d="m337.44 144.59h31.6v3.98h-31.6z" fill="#9b9a9a"/><path d="m337.44 151.96h31.6v3.98h-31.6z" fill="#9b9a9a"/><path d="m337.44 159.34h31.6v3.98h-31.6z" fill="#9b9a9a"/><path d="m337.44 166.72h31.6v3.98h-31.6z" fill="#9b9a9a"/><path d="m337.44 174.09h31.6v3.98h-31.6z" fill="#9b9a9a"/><path d="m337.44 181.47h31.6v3.98h-31.6z" fill="#9b9a9a"/><path d="m337.44 188.85h31.6v3.98h-31.6z" fill="#9b9a9a"/><path d="m337.44 196.22h31.6v3.98h-31.6z" fill="#9b9a9a"/><path d="m337.44 203.6h31.6v3.98h-31.6z" fill="#9b9a9a"/><path d="m337.44 210.97h31.6v3.98h-31.6z" fill="#9b9a9a"/><path d="m337.44 218.35h31.6v3.98h-31.6z" fill="#9b9a9a"/><path d="m337.44 225.73h31.6v3.98h-31.6z" fill="#9b9a9a"/><path d="m337.44 233.1h31.6v3.98h-31.6z" fill="#9b9a9a"/><g fill="#848484"><path d="m377.58 115.08h19.05v3.98h-19.05z"/><path d="m377.58 122.46h19.05v3.98h-19.05z"/><path d="m377.58 129.83h19.05v3.98h-19.05z"/><path d="m377.58 137.21h19.05v3.98h-19.05z"/><path d="m377.58 144.59h19.05v3.98h-19.05z"/><path d="m377.58 151.96h19.05v3.98h-19.05z"/><path d="m377.58 159.34h19.05v3.98h-19.05z"/><path d="m377.58 166.72h19.05v3.98h-19.05z"/><path d="m377.58 174.09h19.05v3.98h-19.05z"/><path d="m377.58 181.47h19.05v3.98h-19.05z"/><path d="m377.58 188.85h19.05v3.98h-19.05z"/><path d="m377.58 196.22h19.05v3.98h-19.05z"/><path d="m377.58 203.6h19.05v3.98h-19.05z"/><path d="m377.58 210.97h19.05v3.98h-19.05z"/><path d="m377.58 218.35h19.05v3.98h-19.05z"/><path d="m377.58 225.73h19.05v3.98h-19.05z"/><path d="m377.58 233.1h19.05v3.98h-19.05z"/></g><path d="m457.48 190.72h68.8v57.04h-68.8z" fill="#9e9d9e"/><path d="m502.43 197.49h13.77v4.63h-13.77z" fill="#8e8e8e"/><path d="m502.43 206.29h13.77v4.63h-13.77z" fill="#8e8e8e"/><path d="m502.43 215.08h13.77v4.63h-13.77z" fill="#8e8e8e"/><path d="m502.43 223.88h13.77v4.63h-13.77z" fill="#8e8e8e"/><path d="m502.43 232.68h13.77v4.63h-13.77z" fill="#8e8e8e"/><path d="m484.26 197.49h13.77v4.63h-13.77z" fill="#8e8e8e"/><path d="m484.26 206.29h13.77v4.63h-13.77z" fill="#8e8e8e"/><path d="m484.26 215.08h13.77v4.63h-13.77z" fill="#8e8e8e"/><path d="m484.26 223.88h13.77v4.63h-13.77z" fill="#8e8e8e"/><path d="m484.26 232.68h13.77v4.63h-13.77z" fill="#8e8e8e"/><path d="m465.51 197.49h13.77v4.63h-13.77z" fill="#8e8e8e"/><path d="m465.51 206.29h13.77v4.63h-13.77z" fill="#8e8e8e"/><path d="m465.51 215.08h13.77v4.63h-13.77z" fill="#8e8e8e"/><path d="m465.51 223.88h13.77v4.63h-13.77z" fill="#8e8e8e"/><path d="m465.51 232.68h13.77v4.63h-13.77z" fill="#8e8e8e"/><path d="m457.48 186.9h73.78v3.82h-73.78z" fill="#8e8e8e"/><path d="m457.48 180.3h68.8v6.6h-68.8z" fill="#9e9d9e"/><path d="m400.9 133.81h33.82v113.94h-33.82z" fill="#dcdbdb"/><path d="m434.72 133.81h22.75v113.94h-22.75z" fill="#cccccb"/><path d="m434.72 133.81v-5.64h25.46a2.83 2.83 0 0 1 2.82 2.83 2.83 2.83 0 0 1 -2.83 2.82z" fill="#c2c1c0"/><path d="m400.9 128.17h33.82v5.64h-33.82z" fill="#cccccb"/><path d="m403.62 137.21h24.56v3.98h-24.56z" fill="#cccccb"/><path d="m403.62 144.59h24.56v3.98h-24.56z" fill="#cccccb"/><path d="m403.62 151.96h24.56v3.98h-24.56z" fill="#cccccb"/><path d="m403.62 159.34h24.56v3.98h-24.56z" fill="#cccccb"/><path d="m403.62 166.72h24.56v3.98h-24.56z" fill="#cccccb"/><path d="m403.62 174.09h24.56v3.98h-24.56z" fill="#cccccb"/><path d="m403.62 181.47h24.56v3.98h-24.56z" fill="#cccccb"/><path d="m403.62 188.85h24.56v3.98h-24.56z" fill="#cccccb"/><path d="m403.62 196.22h24.56v3.98h-24.56z" fill="#cccccb"/><path d="m440.46 137.21h12.28v3.98h-12.28z" fill="#c2c1c0"/><path d="m440.46 144.59h12.28v3.98h-12.28z" fill="#c2c1c0"/><path d="m440.46 151.96h12.28v3.98h-12.28z" fill="#c2c1c0"/><path d="m440.46 159.34h12.28v3.98h-12.28z" fill="#c2c1c0"/><path d="m440.46 166.72h12.28v3.98h-12.28z" fill="#c2c1c0"/><path d="m440.46 174.09h12.28v3.98h-12.28z" fill="#c2c1c0"/><path d="m440.46 181.47h12.28v3.98h-12.28z" fill="#c2c1c0"/><path d="m440.46 188.85h12.28v3.98h-12.28z" fill="#c2c1c0"/><path d="m440.46 196.22h12.28v3.98h-12.28z" fill="#c2c1c0"/><path d="m130.93 175.53c-3-4.75-6.59-7.62-12.19-7.62v-7h4.06v-3.91h-21.51v10.89h8.52v63.47h21.68v-54.92z" fill="#c9c9c9"/><path d="m101.29 167.91v-10.91h-24.87v3.92h4.06v7h-.9a14.34 14.34 0 0 0 -12.42 7.14 5.94 5.94 0 0 0 -.81 3v53.34h43.46v-63.49z" fill="#d7d7d7"/><path d="m49.21 231.38h48.3v16.37h-48.3z" fill="#c9c9c9"/><path d="m97.51 231.38h35v16.37h-35z" fill="#b6b6b6"/><path d="m102.14 239.57h10.12v8.19h-10.12z" fill="#adadad"/><path d="m113.54 239.57h3.86v8.19h-3.86z" fill="#adadad"/><path d="m118.6 239.57h4.86v8.19h-4.86z" fill="#adadad"/><path d="m124.57 239.57h5.06v8.19h-5.06z" fill="#adadad"/><path d="m58.52 239.13h29.95v8.62h-29.95z" fill="#b6b6b6"/><path d="m71.32 186.01h5.1v45.38h-5.1z" fill="#c9c9c9"/><path d="m81.41 186.01h5.1v45.38h-5.1z" fill="#c9c9c9"/><path d="m90.51 186.01h5.1v45.38h-5.1z" fill="#c9c9c9"/><path d="m99.61 186.01h5.1v45.38h-5.1z" fill="#c9c9c9"/><path d="m112.92 186.01h5.1v45.38h-5.1z" fill="#b6b6b6"/><path d="m122.76 186.01h5.1v45.38h-5.1z" fill="#b6b6b6"/><path d="m88.01 163.96h21.8v3.95h-21.8z" fill="#c9c9c9"/><path d="m101.29 163.96h11.63v3.95h-11.63z" fill="#b6b6b6"/><rect fill="#eee" height="11.51" rx="5.76" stroke="#cfcfce" stroke-miterlimit="10" width="569.46" x=".5" y="247.75"/><path d="m258.63 38.66h-1.52v16.23h-7.4v12h-3.88a6.86 6.86 0 0 0 -4.07 1.33l-4.23 3.12s-.06.11 0 .11h-.19c-.09 0 0 .15 0 .15v18.61l-6.2 6.23a.14.14 0 0 0 .12.22h-.26v65.44l.13-.12-4.44 3.76v73.45h31.92v-100.47-87.3z" fill="#e2e2e2"/><path d="m286.24 113.54v-16.88h-.24a.14.14 0 0 0 .13-.22l-3.8-6.23v-18.64a.15.15 0 0 0 -.15-.15h-.05a.06.06 0 0 0 0-.11l-4.26-3.12a6.86 6.86 0 0 0 -4.07-1.33h-3.2v-12h-10.12v-16.2h-1.82v12.76 187.77h32.71v-130.29z" fill="#d3d3d1"/><path d="m226.7 239.19h31.92v8.56h-31.92z" fill="#d3d3d1"/><path d="m230.83 231.07h22.86v3.34h-22.86z" fill="#d3d3d1"/><path d="m230.83 225.15h22.86v3.34h-22.86z" fill="#d3d3d1"/><path d="m230.83 219.24h22.86v3.34h-22.86z" fill="#d3d3d1"/><path d="m230.83 212.33h22.86v3.34h-22.86z" fill="#d3d3d1"/><path d="m230.83 206.41h22.86v3.34h-22.86z" fill="#d3d3d1"/><path d="m230.83 200.5h22.86v3.34h-22.86z" fill="#d3d3d1"/><path d="m230.83 193.58h22.86v3.34h-22.86z" fill="#d3d3d1"/><path d="m230.83 187.67h22.86v3.34h-22.86z" fill="#d3d3d1"/><path d="m230.83 181.75h22.86v3.34h-22.86z" fill="#d3d3d1"/><path d="m230.83 175.84h22.86v3.34h-22.86z" fill="#d3d3d1"/><path d="m230.83 168.93h22.86v3.34h-22.86z" fill="#d3d3d1"/><path d="m237.97 163.15h15.72v3.34h-15.72z" fill="#d3d3d1"/><path d="m245.83 156.65h7.86v3.34h-7.86z" fill="#d3d3d1"/><path d="m250.66 151.29h3.03v2.21h-3.03z" fill="#d3d3d1"/><path d="m263.38 142.96h22.86v3.34h-22.86z" fill="#c4c4c1"/><path d="m263.38 150.16h22.86v3.34h-22.86z" fill="#c4c4c1"/><path d="m263.38 157.36h22.86v3.34h-22.86z" fill="#c4c4c1"/><path d="m263.38 164.56h22.86v3.34h-22.86z" fill="#c4c4c1"/><path d="m263.38 171.76h22.86v3.34h-22.86z" fill="#c4c4c1"/><path d="m263.38 178.96h22.86v3.34h-22.86z" fill="#c4c4c1"/><path d="m263.38 186.16h22.86v3.34h-22.86z" fill="#c4c4c1"/><path d="m263.38 193.36h22.86v3.34h-22.86z" fill="#c4c4c1"/><path d="m263.38 200.56h22.86v3.34h-22.86z" fill="#c4c4c1"/><path d="m263.38 207.76h22.86v3.34h-22.86z" fill="#c4c4c1"/><path d="m263.38 214.96h22.86v3.34h-22.86z" fill="#c4c4c1"/><path d="m263.38 222.16h22.86v3.34h-22.86z" fill="#c4c4c1"/><path d="m263.38 229.36h22.86v3.34h-22.86z" fill="#c4c4c1"/><path d="m270.52 137.18h15.72v3.34h-15.72z" fill="#c4c4c1"/><path d="m278.38 130.69h7.86v3.34h-7.86z" fill="#c4c4c1"/><path d="m283.21 125.33h3.03v2.21h-3.03z" fill="#c4c4c1"/><path d="m258.62 239.19h32.71v8.56h-32.71z" fill="#c4c4c1"/><path d="m235.46 103.98h4.47v50.57l-4.47 3.77z" fill="#d3d3d1"/><path d="m242.58 103.98h4.47v44.64l-4.47 3.78z" fill="#d3d3d1"/><path d="m249.71 103.98h4.46v38.55l-4.46 3.77z" fill="#d3d3d1"/><path d="m263.38 103.98h4.87v25.96l-4.87 4.44z" fill="#c4c4c1"/><path d="m270.52 103.98h4.87v19.47l-4.87 4.44z" fill="#c4c4c1"/><path d="m277.66 103.98h4.86v12.98l-4.86 4.44z" fill="#c4c4c1"/><path d="m263.38 76.14h12.71v3.6h-12.71z" fill="#c4c4c1"/><path d="m263.38 82.86h12.71v3.6h-12.71z" fill="#c4c4c1"/><path d="m241.61 76.14h12.71v3.6h-12.71z" fill="#d3d3d1"/><path d="m241.61 82.86h12.71v3.6h-12.71z" fill="#d3d3d1"/></svg>