<svg fill="none" height="80" viewBox="0 0 84 80" width="84" xmlns="http://www.w3.org/2000/svg" xmlns:xlink="http://www.w3.org/1999/xlink"><clipPath id="a"><path d="m48 4h32v32h-32z"/></clipPath><path d="m60 20h-48c-3.33 0-5.97 2.67-5.97 6l-.03 36c0 3.33 2.67 6 6 6h48c3.33 0 6-2.67 6-6v-36c0-3.33-2.67-6-6-6zm0 42h-48v-18h48zm0-30h-48v-6h48z" fill="#0c6cf2"/><g fill="#fff"><ellipse cx="64" cy="20" rx="20" ry="20"/><ellipse cx="64" cy="20" rx="20" ry="20"/><ellipse cx="64" cy="20" rx="20" ry="20"/><ellipse cx="64" cy="20" rx="20" ry="20"/></g><g clip-path="url(#a)"><path d="m64 4c-8.832 0-16 7.168-16 16s7.168 16 16 16 16-7.168 16-16-7.168-16-16-16zm1.6 27.2h-3.2v-3.2h3.2zm3.312-12.4-1.44 1.472c-1.152 1.168-1.872 2.128-1.872 4.528h-3.2v-.8c0-1.76.72-3.36 1.872-4.528l1.984-2.016c.592-.576.944-1.376.944-2.256 0-1.76-1.44-3.2-3.2-3.2s-3.2 1.44-3.2 3.2h-3.2c0-3.536 2.864-6.4 6.4-6.4s6.4 2.864 6.4 6.4c0 1.408-.576 2.688-1.488 3.6z" fill="#ffa133"/></g></svg>