<svg fill="none" height="88" viewBox="0 0 102 88" width="102" xmlns="http://www.w3.org/2000/svg" xmlns:xlink="http://www.w3.org/1999/xlink"><clipPath id="a"><path d="m62 0h40v40h-40z"/></clipPath><path d="m73.05 46.12c-2.04-10.35-11.13-18.12-22.05-18.12-8.67 0-16.2 4.92-19.95 12.12-9.03.96-16.05 8.61-16.05 17.88 0 9.93 8.07 18 18 18h39c8.28 0 15-6.72 15-15 0-7.92-6.15-14.34-13.95-14.88zm-16.05 8.88v12h-12v-12h-9l15-15 15 15z" fill="#0c6cf2"/><g clip-path="url(#a)"><circle cx="82" cy="20" fill="#fff" r="20"/><path clip-rule="evenodd" d="m82 36c8.8366 0 16-7.1634 16-16s-7.1634-16-16-16-16 7.1634-16 16 7.1634 16 16 16zm-9.7909-15.1242 2.8285-2.8284 4 4 10.5049-10.5049 2.8284 2.8284-13.3333 13.3333z" fill="#17cf73" fill-rule="evenodd"/></g></svg>