<svg width="24" height="24" viewBox="0 0 24 24" fill="none" xmlns="http://www.w3.org/2000/svg">
<g id="Settings">
<path id="Subtract" fill-rule="evenodd" clip-rule="evenodd" d="M11.0909 2C10.0868 2 9.27273 2.81403 9.27273 3.81818L9.2727 4.2512C9.2727 4.2512 9.27051 4.25689 9.26523 4.26391C9.25367 4.27927 9.23088 4.29884 9.19762 4.31097C8.97529 4.39202 8.7575 4.48241 8.54471 4.58167C8.51276 4.59658 8.48295 4.59885 8.46401 4.59618C8.45535 4.59496 8.44975 4.59246 8.44975 4.59246L8.14306 4.28577C7.43301 3.57572 6.28181 3.57573 5.57176 4.28577L4.28611 5.57142C3.57607 6.28146 3.57607 7.43267 4.28611 8.14272L4.59271 8.44935C4.59271 8.44935 4.59518 8.45488 4.5964 8.46354C4.59907 8.48249 4.5968 8.5123 4.58189 8.54425C4.48254 8.75718 4.39208 8.97513 4.31097 9.19762C4.29884 9.23088 4.27927 9.25367 4.26391 9.26523C4.25689 9.27051 4.25112 9.27273 4.25112 9.27273H3.81818C2.81403 9.27273 2 10.0868 2 11.0909V12.9091C2 13.9132 2.81403 14.7273 3.81818 14.7273L4.2512 14.7273C4.2512 14.7273 4.25689 14.7295 4.26391 14.7348C4.27927 14.7463 4.29884 14.7691 4.31097 14.8024C4.39204 15.0248 4.48247 15.2426 4.58176 15.4555C4.59667 15.4874 4.59894 15.5172 4.59627 15.5362C4.59505 15.5448 4.59255 15.5504 4.59255 15.5504L4.28611 15.8569C3.57607 16.5669 3.57607 17.7181 4.28611 18.4282L5.57176 19.7138C6.28181 20.4239 7.43302 20.4239 8.14306 19.7138L8.44955 19.4074C8.44955 19.4074 8.45508 19.4049 8.46374 19.4037C8.48268 19.401 8.51249 19.4033 8.54444 19.4182C8.75731 19.5175 8.9752 19.6079 9.19762 19.689C9.23088 19.7012 9.25367 19.7207 9.26523 19.7361C9.27051 19.7431 9.27273 19.7489 9.27273 19.7489V20.1818C9.27273 21.186 10.0868 22 11.0909 22H12.9091C13.9132 22 14.7273 21.186 14.7273 20.1818L14.7273 19.7488C14.7273 19.7488 14.7295 19.7431 14.7348 19.7361C14.7463 19.7207 14.7691 19.7012 14.8024 19.689C15.0249 19.6079 15.2428 19.5175 15.4557 19.4181C15.4877 19.4032 15.5175 19.4009 15.5365 19.4036C15.5451 19.4048 15.5507 19.4073 15.5507 19.4073L15.857 19.7136C16.567 20.4236 17.7182 20.4236 18.4282 19.7136L19.7139 18.4279C20.4239 17.7179 20.4239 16.5667 19.7139 15.8566L19.4075 15.5502C19.4075 15.5502 19.405 15.5447 19.4038 15.536C19.4012 15.5171 19.4034 15.4872 19.4183 15.4553C19.5176 15.2425 19.608 15.0247 19.689 14.8024C19.7012 14.7691 19.7207 14.7463 19.7361 14.7348C19.7431 14.7295 19.7489 14.7273 19.7489 14.7273H20.1818C21.186 14.7273 22 13.9132 22 12.9091V11.0909C22 10.0868 21.186 9.27273 20.1818 9.27273L19.7484 9.27254C19.7484 9.27254 19.7424 9.26999 19.7361 9.26523C19.7207 9.25367 19.7012 9.23088 19.689 9.19762C19.6079 8.9752 19.5175 8.75731 19.4182 8.54444C19.4033 8.51249 19.401 8.48268 19.4037 8.46374C19.4049 8.45508 19.4074 8.44948 19.4074 8.44948L19.7139 8.14299C20.4239 7.43295 20.4239 6.28174 19.7139 5.57169L18.4282 4.28604C17.7182 3.576 16.567 3.576 15.857 4.28604L15.5504 4.59259C15.5504 4.59259 15.5448 4.59505 15.5362 4.59627C15.5172 4.59894 15.4874 4.59667 15.4555 4.58176C15.2426 4.48247 15.0248 4.39204 14.8024 4.31097C14.7691 4.29884 14.7463 4.27927 14.7348 4.26391C14.7295 4.25689 14.7273 4.25112 14.7273 4.25112V3.81818C14.7273 2.81403 13.9132 2 12.9091 2H11.0909ZM16 12C16 14.2091 14.2091 16 12 16C9.79086 16 8 14.2091 8 12C8 9.79086 9.79086 8 12 8C14.2091 8 16 9.79086 16 12Z" fill="#98A1B2"/>
</g>
</svg>
