<svg width="119" height="95" viewBox="0 0 119 95" fill="none" xmlns="http://www.w3.org/2000/svg">
<path d="M64.0303 92.587C88.5883 92.587 108.497 72.0664 108.497 46.753C108.497 21.4395 88.5883 0.918945 64.0303 0.918945C39.4722 0.918945 19.564 21.4395 19.564 46.753C19.564 72.0664 39.4722 92.587 64.0303 92.587Z" fill="#FAFBFF"/>
<path fill-rule="evenodd" clip-rule="evenodd" d="M57.5262 17.5255L43.1727 8.97488C42.2305 8.41341 41.1902 8.04877 40.1112 7.90177C39.0323 7.75477 37.9358 7.8283 36.8844 8.11816L8.18044 16.0459C3.75803 17.2674 1.13672 21.9521 2.32281 26.5147L17.3495 84.3204C18.5356 88.883 23.0782 91.589 27.5006 90.3676L67.523 79.314C71.9454 78.0925 74.5667 73.4078 73.3806 68.8452L61.3892 22.7162C60.8195 20.5268 59.4301 18.6599 57.5262 17.5255Z" fill="white" stroke="#DFE3EB" stroke-width="3"/>
<path d="M56.7579 57.3329L26.3838 65.722C25.2655 66.0309 24.5842 67.1479 24.8621 68.2169C25.14 69.286 26.2719 69.9022 27.3902 69.5933L57.7642 61.2043C58.8826 60.8954 59.5639 59.7784 59.286 58.7093C59.0081 57.6403 57.8762 57.0241 56.7579 57.3329Z" fill="#DFE3EB"/>
<path d="M54.6035 49.0458L24.2295 57.4349C23.1112 57.7437 22.4299 58.8608 22.7078 59.9298C22.9857 60.9988 24.1176 61.6151 25.2359 61.3062L55.6099 52.9172C56.7283 52.6083 57.4096 51.4913 57.1317 50.4222C56.8538 49.3532 55.7219 48.737 54.6035 49.0458Z" fill="#DFE3EB"/>
<path d="M52.4439 40.7372L22.0699 49.1263C20.9515 49.4352 20.2702 50.5522 20.5481 51.6212C20.826 52.6903 21.9579 53.3065 23.0762 52.9976L53.4503 44.6086C54.5686 44.2997 55.2499 43.1827 54.972 42.1136C54.6941 41.0446 53.5622 40.4284 52.4439 40.7372Z" fill="#DFE3EB"/>
<path d="M50.284 32.4296L19.91 40.8187C18.7916 41.1275 18.1103 42.2446 18.3882 43.3136C18.6661 44.3826 19.798 44.9989 20.9163 44.69L51.2903 36.301C52.4087 35.9921 53.09 34.8751 52.8121 33.806C52.5342 32.737 51.4023 32.1208 50.284 32.4296Z" fill="#DFE3EB"/>
<path d="M48.1245 24.121L17.7505 32.5101C16.6322 32.8189 15.9509 33.936 16.2288 35.005C16.5067 36.074 17.6386 36.6903 18.7569 36.3814L49.1309 27.9924C50.2493 27.6835 50.9306 26.5665 50.6527 25.4974C50.3748 24.4284 49.2429 23.8122 48.1245 24.121Z" fill="#DFE3EB"/>
<path d="M58.9283 65.6826L28.5543 74.0716C27.4359 74.3805 26.7546 75.4975 27.0325 76.5665C27.3104 77.6356 28.4423 78.2518 29.5606 77.9429L59.9346 69.5539C61.053 69.245 61.7343 68.128 61.4564 67.059C61.1785 65.9899 60.0466 65.3737 58.9283 65.6826Z" fill="#DFE3EB"/>
<path fill-rule="evenodd" clip-rule="evenodd" d="M103.504 20.8318L91.7859 8.74319C91.0168 7.94953 90.1035 7.31982 89.0982 6.89002C88.093 6.46022 87.0154 6.23876 85.9271 6.23828H56.2107C51.6322 6.23828 47.9238 10.0639 47.9238 14.7874V74.6323C47.9238 79.3558 51.6322 83.1816 56.2107 83.1816H97.6448C102.223 83.1816 105.931 79.3558 105.931 74.6323V26.8762C105.931 24.6094 105.058 22.4355 103.504 20.8318Z" fill="white" stroke="#DFE3EB" stroke-width="3"/>
<path d="M92.7657 59.0791H61.3203C60.1625 59.0791 59.2239 59.9745 59.2239 61.0791C59.2239 62.1837 60.1625 63.0791 61.3203 63.0791H92.7657C93.9236 63.0791 94.8621 62.1837 94.8621 61.0791C94.8621 59.9745 93.9236 59.0791 92.7657 59.0791Z" fill="#DFE3EB"/>
<path d="M92.7657 50.499H61.3203C60.1625 50.499 59.2239 51.3945 59.2239 52.499C59.2239 53.6036 60.1625 54.499 61.3203 54.499H92.7657C93.9236 54.499 94.8621 53.6036 94.8621 52.499C94.8621 51.3945 93.9236 50.499 92.7657 50.499Z" fill="#DFE3EB"/>
<path d="M92.7657 41.8975H61.3203C60.1625 41.8975 59.2239 42.7929 59.2239 43.8975C59.2239 45.002 60.1625 45.8975 61.3203 45.8975H92.7657C93.9236 45.8975 94.8621 45.002 94.8621 43.8975C94.8621 42.7929 93.9236 41.8975 92.7657 41.8975Z" fill="#DFE3EB"/>
<path d="M92.7657 33.2969H61.3203C60.1625 33.2969 59.2239 34.1923 59.2239 35.2969C59.2239 36.4014 60.1625 37.2969 61.3203 37.2969H92.7657C93.9236 37.2969 94.8621 36.4014 94.8621 35.2969C94.8621 34.1923 93.9236 33.2969 92.7657 33.2969Z" fill="#DFE3EB"/>
<path d="M92.7657 24.6953H61.3203C60.1625 24.6953 59.2239 25.5907 59.2239 26.6953C59.2239 27.7999 60.1625 28.6953 61.3203 28.6953H92.7657C93.9235 28.6953 94.8621 27.7999 94.8621 26.6953C94.8621 25.5907 93.9235 24.6953 92.7657 24.6953Z" fill="#DFE3EB"/>
<path d="M92.7657 67.7227H61.3203C60.1625 67.7227 59.2239 68.6181 59.2239 69.7227C59.2239 70.8272 60.1625 71.7227 61.3203 71.7227H92.7657C93.9236 71.7227 94.8621 70.8272 94.8621 69.7227C94.8621 68.6181 93.9236 67.7227 92.7657 67.7227Z" fill="#DFE3EB"/>
<path d="M115.68 91.1191L103.506 77.9365" stroke="#0C6CF2" stroke-width="4.8814" stroke-linecap="round" stroke-linejoin="round"/>
<path d="M93.3199 87.8244C105.642 87.8244 115.631 77.528 115.631 64.8268C115.631 52.1255 105.642 41.8291 93.3199 41.8291C80.9977 41.8291 71.0085 52.1255 71.0085 64.8268C71.0085 77.528 80.9977 87.8244 93.3199 87.8244Z" fill="white" stroke="#0C6CF2" stroke-width="4.4776" stroke-linecap="round" stroke-linejoin="round"/>
</svg>
