<svg fill="none" height="40" viewBox="0 0 54 40" width="54" xmlns="http://www.w3.org/2000/svg" xmlns:xlink="http://www.w3.org/1999/xlink"><clipPath id="a"><path d="m0 0h54v40h-54z"/></clipPath><g clip-path="url(#a)"><path d="m39.8 12.667h-25.6c-1.76 0-3.184 1.35-3.184 3l-.016 18c0 1.65 1.44 3 3.2 3h25.6c1.76 0 3.2-1.35 3.2-3v-18c0-1.65-1.44-3-3.2-3zm0 6-12.8 7.5-12.8-7.5v-3l12.8 7.5 12.8-7.5z" fill="#ccd2de"/><circle cx="43" cy="11" fill="#fff" r="11"/><path d="m43 2c-4.968 0-9 4.032-9 9s4.032 9 9 9 9-4.032 9-9-4.032-9-9-9zm-1.8 13.5-4.5-4.5 1.269-1.269 3.231 3.222 6.831-6.831 1.269 1.278z" fill="#27ac7a"/></g></svg>