<svg fill="none" height="56" viewBox="0 0 97 56" width="97" xmlns="http://www.w3.org/2000/svg"><circle cx="49" cy="36" fill="#0c6cf2" r="20"/><path d="m56.5 28h-16c-1.1 0-1.99.9-1.99 2l-.01 12c0 1.1.9 2 2 2h16c1.1 0 2-.9 2-2v-12c0-1.1-.9-2-2-2zm0 4-8 5-8-5v-2l8 5 8-5z" fill="#fff"/><circle cx="69" cy="16" fill="#fff" r="16"/><path d="m69 4.33331c-6.44 0-11.6667 5.22667-11.6667 11.66669 0 6.44 5.2267 11.6666 11.6667 11.6666s11.6666-5.2266 11.6666-11.6666c0-6.44002-5.2266-11.66669-11.6666-11.66669zm-2.3334 17.49999-5.8333-5.8333 1.645-1.645 4.1883 4.1766 8.855-8.85495 1.645 1.65665z" fill="#00994c"/></svg>