<svg height="225" viewBox="0 0 326 225" width="326" xmlns="http://www.w3.org/2000/svg"><g fill="none" fill-rule="evenodd"><g fill="#b2d5e5" fill-opacity=".6" opacity=".5"><path d="m246.936472 27.7869254h-14.142146c-3.245459 0-6.154155-2.2543445-6.727156-5.4549712-.008893-.0511295-.017399-.1030337-.025905-.1541631-.650716-4.0551086 2.720402-7.6574115 6.81995-7.6574115 3.78521 0 7.16522-2.7722239 7.524796-6.54689508.411772-4.33051042-2.976358-7.97348452-7.21355-7.97348452h-38.33965c-3.78521 0-7.16522 2.77222389-7.524796 6.54689508-.412158 4.33051042 2.975971 7.97348452 7.21355 7.97348452h5.031352c1.445648.1936722 2.817449.8970896 3.668831 2.0843002.657289.9168442 1.110818 1.9382714 1.360587 2.9992077.991733 4.2069476-2.434288 8.1830379-6.749195 8.1830379h-56.491257c-3.785209 0-7.165606 2.7722239-7.524795 6.546895-.412546 4.3305105 2.975971 7.9738719 7.213163 7.9738719h106.217854c4.237579 0 7.625322-3.6433614 7.213163-7.9738719-.359575-3.7746711-3.739586-6.546895-7.524796-6.546895"/><path d="m191.577982 185.479233h-14.142146c-3.24546 0-6.154156-2.254344-6.727157-5.454971-.008893-.05113-.017399-.103034-.025905-.154163-.650716-4.055109 2.720402-7.657412 6.81995-7.657412 3.78521 0 7.165221-2.772224 7.524796-6.546895.411772-4.33051-2.976358-7.973484-7.21355-7.973484h-38.33965c-3.785209 0-7.16522 2.772224-7.524795 6.546895-.412159 4.33051 2.975971 7.973484 7.21355 7.973484h5.031351c1.445649.193672 2.817449.89709 3.668831 2.084301.657289.916844 1.110818 1.938271 1.360588 2.999207.991733 4.206948-2.434288 8.183038-6.749195 8.183038h-56.4912572c-3.7852096 0-7.1656067 2.772224-7.5247956 6.546895-.4125453 4.330511 2.9759712 7.973872 7.2131635 7.973872h106.2178533c4.237579 0 7.625322-3.643361 7.213164-7.973872-.359576-3.774671-3.739586-6.546895-7.524796-6.546895"/><path d="m318.467592 105.546496h-20.151074c-2.557319 0-4.942789-1.551069-5.752331-3.978107-.63461-1.9011479-.593381-3.9993119.159519-5.887351.487806-1.2245073 1.714641-1.9971499 3.032025-1.9971499 3.772209 0 7.140611-2.7593825 7.498567-6.5165688.410743-4.3104508-2.965365-7.9365501-7.188391-7.9365501h-105.542879c-3.771825 0-7.140612 2.758997-7.498567 6.5165689-.410743 4.3104508 2.96575 7.93655 7.18839 7.93655h74.70863c3.270918 0 6.091021 2.5600531 6.139955 5.8326029.000771.0470371.001156.0940742.001156.1414969-.005009 3.2941401-2.848615 5.8885081-6.141496 5.8885081h-51.685822c-3.772209 0-7.140997 2.759382-7.498952 6.516954-.410743 4.310451 2.965365 7.93655 7.18839 7.93655h105.853442c4.22264 0 7.598363-3.626099 7.188005-7.93655-.358341-3.757572-3.726743-6.516954-7.498567-6.516954"/><path d="m139.847253 90.3856957h-20.801109c-2.639814 0-5.102234-1.6095992-5.93789-4.1282238-.655081-1.9728893-.612523-4.1502293.164665-6.1095152.503541-1.2707151 1.769952-2.072514 3.129832-2.072514 3.893893 0 7.370954-2.8635101 7.740456-6.7624771.423993-4.4731093-3.061022-8.2360425-7.420274-8.2360425h-108.94748868c-3.89349603 0-7.37095398 2.86311-7.74045626 6.7624771-.42399292 4.4731093 3.06141986 8.2360425 7.42027398 8.2360425h77.11858606c3.3764315 0 6.2875049 2.6566589 6.3380182 6.0527011.0007954.0488121.0011932.0976242.0011932.1468364-.0051707 3.4184478-2.9405063 6.1107155-6.3396091 6.1107155h-53.3531063c-3.8938938 0-7.3713517 2.8635101-7.740854 6.7628771-.423993 4.4731092 3.0610221 8.2360422 7.420274 8.2360422h109.2680689c4.358854 0 7.843471-3.762933 7.419876-8.2360422-.3699-3.899367-3.84696-6.7628771-7.740456-6.7628771" transform="matrix(-1 0 0 1 147.622642 0)"/><path d="m228.581424 131.637074h-85.660453c-.820121 0-1.634104-.24654-2.286212-.745389-3.075262-2.35386-4.050738-6.435422-2.72274-9.844672.294599-.756927 1.042988-1.243853 1.853136-1.243853 3.456169 0 6.633083-2.320783 7.311659-5.718495.925992-4.634257-2.58388-8.70005-7.040843-8.70005h-19.5521c-3.455786 0-6.633083 2.320783-7.311275 5.718879-.925226 4.634258 2.58388 8.699666 7.040843 8.699666h2.591551c1.675149 0 3.191875 1.077698 3.673283 2.686554.950159 3.174633.237828 7.705813-2.802527 9.075436-.067129.03077-.130806.071924-.204455.071924-3.05263 0-5.863214 1.898472-6.803399 4.810412-1.613774 4.997721 2.057591 9.607748 6.803399 9.607748h19.81486c1.42428 0 2.792171.760004 3.399782 2.051935 1.192206 2.536168 1.066771 5.553493-.381291 7.984661-.677041 1.137314-1.939828 1.797703-3.260538 1.797703h-2.340298c-3.970951 0-7.19006 3.227326-7.19006 7.208887 0 3.981946 3.219109 7.209272 7.189676 7.209272h34.949508c3.970567 0 7.19006-3.227326 7.19006-7.209272 0-3.981561-3.219493-7.208887-7.19006-7.208887h-11.714919c-.994656 0-1.982407-.355003-2.669805-1.075391-2.034191-2.131551-2.75803-5.156568-2.077921-7.918507.415431-1.688472 1.982791-2.840401 3.717013-2.840401h65.944942c4.45658 0 7.966452-4.065408 7.041227-8.699666-.678959-3.397711-3.855873-5.718494-7.312043-5.718494"/></g><g transform="translate(89 10)"><path d="m160.166562 32.636604h-4.515892c-.561315 0-1.015749-.45584-1.015749-1.01717v-4.52221c0-.5621-.454435-1.01794-1.016518-1.01794-.560546 0-1.015749.45584-1.015749 1.01794v4.52221c0 .56133-.454434 1.01717-1.015749 1.01717h-4.515893c-.561314 0-1.016518.45584-1.016518 1.01717 0 .5621.455204 1.01794 1.016518 1.01794h4.515893c.561315 0 1.015749.45507 1.015749 1.01717v4.52221c0 .56133.455203 1.01717 1.015749 1.01717.562083 0 1.016518-.45584 1.016518-1.01717v-4.52221c0-.5621.454434-1.01717 1.015749-1.01717h4.515892c.561315 0 1.015749-.45584 1.015749-1.01794 0-.56133-.454434-1.01717-1.015749-1.01717" fill="#10ade4"/><path d="m19.4568359 156.655301h-4.5158925c-.5620836 0-1.015749-.45584-1.015749-1.01717v-4.52221c0-.56287-.4552032-1.01794-1.0165179-1.01794s-1.015749.45507-1.015749 1.01794v4.52221c0 .56133-.4552032 1.01717-1.0165179 1.01717h-4.51589247c-.56131474 0-1.01651793.45507-1.01651793 1.01717s.45520319 1.01794 1.01651793 1.01794h4.51589247c.5613147 0 1.0165179.45507 1.0165179 1.01717v4.52221c0 .56133.4544343 1.01717 1.015749 1.01717s1.0165179-.45584 1.0165179-1.01717v-4.52221c0-.5621.4536654-1.01717 1.015749-1.01717h4.5158925c.5605458 0 1.015749-.45584 1.015749-1.01794s-.4552032-1.01717-1.015749-1.01717" fill="#10ade4"/><path d="m94.7117076 74.833548c0 1.85416-1.5009403 3.35643-3.35251 3.35643s-3.35251-1.50227-3.35251-3.35643 1.5009403-3.35643 3.35251-3.35643 3.35251 1.50227 3.35251 3.35643" fill="#b2d5e5"/><path d="m97.7988813 10.343487c-1.8515697 0-3.3517411-1.50227-3.3517411-3.35643s1.5001714-3.3572 3.3517411-3.3572c1.8508008 0 3.3517407 1.50304 3.3517407 3.3572s-1.5009399 3.35643-3.3517407 3.35643m0-9.57418c-3.4286335 0-6.2082948 2.78432-6.2082948 6.21775s2.7796613 6.21698 6.2082948 6.21698c3.4286337 0 6.2082947-2.78355 6.2082947-6.21698s-2.779661-6.21775-6.2082947-6.21775" fill="#799eb2"/><path d="m187.39099 110.92931c-1.8508 0-3.351741-1.50227-3.351741-3.35643s1.500941-3.3572 3.351741-3.3572c1.85157 0 3.35251 1.50304 3.35251 3.3572s-1.50094 3.35643-3.35251 3.35643m0-9.57418c-3.428633 0-6.208294 2.78432-6.208294 6.21775s2.779661 6.21698 6.208294 6.21698c3.429403 0 6.208295-2.78355 6.208295-6.21698s-2.778892-6.21775-6.208295-6.21775" fill="#799eb2"/><path d="m7.21067888 33.654005c0 1.85339-1.50017131 3.35643-3.35174103 3.35643-1.85233865 0-3.35250996-1.50304-3.35250996-3.35643 0-1.85416 1.50017131-3.35643 3.35250996-3.35643 1.85156972 0 3.35174103 1.50227 3.35174103 3.35643" fill="#b2d5e5"/><path d="m61.4080633 45.137641c-6.9702988-.66143-12.6372709-6.26626-13.3754382-13.23861-.5351713-5.06198 1.4609562-9.67582 4.8711355-12.7435-1.6531873 6.70054.8342828 11.18656 2.528992 13.31715.6182151.7777 1.5063227 1.32132 2.4959283 1.40525 1.3817569.11704 1.676255.85932 1.7008605 1.40756.0238367.55363.1161076 1.11265.4029164 1.58697 3.1764263 5.23446 13.5930438 3.47501 13.8737012 3.42727-3.0287929 3.34026-7.5400717 5.30838-12.4980957 4.83791m17.6491196-10.9263c-1.0634223.54824-2.1614462 1.15115-2.2291116 1.32979-4.601243 2.61723-8.9510478 1.71402-11.4192948.76923-1.1241673-.42966-1.9476853-1.38908-2.235263-2.55871-.5236374-2.13059-2.3552151-2.85054-3.7192868-3.08693-1.1318566-.19635-2.1468367-.86086-2.6543267-1.89266-2.9995737-6.09686.2591275-12.27072.2591275-12.27072l.6235976-2.19989c.2429801-.85162-.5951474-1.60545-1.4209721-1.28821-7.3201594 2.81204-12.3958287 10.16092-11.7945299 18.60936.6328247 8.88041 7.72 16.17616 16.5703187 17.02855 9.1686534.88319 17.1277889-4.96034 19.5329841-13.18163.26451-.90244-.6781912-1.68861-1.513243-1.25818" fill="#10ade4"/></g><g transform="matrix(-.190809 -.98162718 .98162718 -.190809 128.044329 231.196543)"><g fill="#b2d5e5" stroke="#799eb2" stroke-width="2"><path d="m75.5059459 101.590135 7.9986487 8.455406 4.122973-4.012163-6.7945946-7.7932429z"/><path d="m56.8536486 75.9989189-7.9972972-8.454054-4.122973 4.0108108 6.7945946 7.7932432z"/><path d="m70.3579478 60 25.6420522 25.1207274-39.5658673 38.8792726-25.4341327-25.531571z"/><path d="m31.2241892 98.2406757 25.6297297 25.3310813-3.527027 3.5c-2.8513514 2.831081-7.4581081 2.808108-10.2810811-.051352l-15.1054054-15.295946c-2.8054054-2.841891-2.7891892-7.417567.0364865-10.239189z"/><path d="m115.157432 72.1578378c-9.04054 8.5432433-23.2945942 8.1405406-31.8391888-.9-8.5432432-9.0405405-8.1391891-23.2945946.9-31.8378378z" transform="matrix(.99756405 -.06975647 .06975647 .99756405 -3.871998 6.851287)"/><path d="m113.360405 46.6648649c0 2.7716216-2.247297 5.0175675-5.018919 5.0175675-2.771621 0-5.018918-2.2459459-5.018918-5.0175675 0-2.7716217 2.247297-5.018919 5.018918-5.018919 2.771622 0 5.018919 2.2472973 5.018919 5.018919"/></g><path d="m151.507027 51.1855405c.839189.5486487 1.97973.1337838 2.259459-.8297297 2.852703-9.7864865-.879729-22.9378378-10.677027-33.9675676-11.3-12.71621617-27.139189-18.63783779-38.756756-15.43108104-.597298.16486487-.983784.74189189-.945946 1.35945946.05.83513514.851351 1.41486487 1.658108 1.1945946 10.344594-2.81891892 24.866216 2.90405405 35.427027 14.79054058 9.141892 10.2878378 12.822973 22.3851351 10.424324 31.2013513-.174324.6405405.055406 1.3189189.610811 1.6824324" fill="#799eb2"/><path d="m126.137568 57.5028378c.489189.5932433 1.398648.6216217 1.916216.0513514 4.885135-5.3878378 3.601351-15.7864865-3.235135-24.0878378-6.847298-8.3162163-16.831081-11.5702703-23.054054-7.7756757-.637838.3891892-.781081 1.2594594-.308109 1.8351351.383784.4648649 1.051352.5864865 1.563514.2689189 5.197297-3.2351351 13.856757-.2094594 19.92973 7.1648649 6.060811 7.3621622 7.372973 16.422973 3.225675 20.9108108-.42027.4567568-.431081 1.1540541-.037837 1.6324324" fill="#799eb2"/><g fill="#b2d5e5" stroke="#799eb2" stroke-width="2"><path d="m97.1751351 98.2406757-21.1554054 21.1270273 11.6081081 12.089189 21.6364862-21.412162z"/><path d="m108.882027 109.946892-21.1567567 21.127027 11.6094594 12.089189 21.6351353-21.412162z" fill-opacity=".3"/><path d="m120.718243 121.784459-21.1554052 21.125676 11.6081082 12.090541 21.636486-21.412162z"/><path d="m21.1563514 22.5235135-21.15540545 21.127027 11.60810815 12.0891892 21.6351351-21.4121621z"/><path d="m32.8618919 34.2297297-21.1554054 21.1270271 11.6081081 12.0891891 21.6364865-21.4121621z" fill-opacity=".3"/><path d="m44.6993243 46.0671622-21.1554054 21.127027 11.6081081 12.0891892 21.6364865-21.4121622z"/></g></g></g></svg>