<svg width="87" height="87" viewBox="0 0 87 87" fill="none" xmlns="http://www.w3.org/2000/svg">
<g id="Pending ETH">
<g id="Ether (ETH)" clip-path="url(#clip0_1210_81035)">
<path id="Vector" d="M36 87C55.8823 87 72 70.8823 72 51C72 31.1177 55.8823 15 36 15C16.1177 15 0 31.1177 0 51C0 70.8823 16.1177 87 36 87Z" fill="#473BCB"/>
<g id="Vector_2">
<path d="M50.0589 51.4173L35.9991 28.5L21.9375 51.4173L35.9991 59.5809L50.0589 51.4173Z" fill="white"/>
<path d="M35.9991 73.5L50.0683 54.0353L35.9991 62.197L21.9375 54.0353L35.9991 73.5Z" fill="white"/>
</g>
</g>
<circle id="Ellipse" cx="67.0002" cy="20" r="20" fill="white"/>
<g id="Pending">
<path id="Vector_3" d="M66.9999 3.33331C57.8333 3.33331 50.3333 10.8333 50.3333 20C50.3333 29.1666 57.8333 36.6666 66.9999 36.6666C76.1666 36.6666 83.6666 29.1666 83.6666 20C83.6666 10.8333 76.1666 3.33331 66.9999 3.33331ZM74.6628 25.9227C74.2967 26.5177 73.5176 26.7032 72.9227 26.3371L65.3333 21.6666V12.9166C65.3333 12.2263 65.8929 11.6666 66.5833 11.6666V11.6666C67.2736 11.6666 67.8333 12.2263 67.8333 12.9166V20.3333L74.2364 24.1752C74.8402 24.5375 75.0319 25.3231 74.6628 25.9227V25.9227Z" fill="#98A1B2"/>
</g>
</g>
<defs>
<clipPath id="clip0_1210_81035">
<rect width="72" height="72" fill="white" transform="translate(0 15)"/>
</clipPath>
</defs>
</svg>
