<svg width="24" height="24" viewBox="0 0 24 24" fill="none" xmlns="http://www.w3.org/2000/svg">
<path d="M6 5C5.44772 5 5 5.44772 5 6V10C5 10.5523 5.44772 11 6 11H12C12.5523 11 13 10.5523 13 10V6C13 5.44772 12.5523 5 12 5H6Z" fill="#121D33"/>
<path fill-rule="evenodd" clip-rule="evenodd" d="M5 2C3.34315 2 2 3.34315 2 5V19C2 20.6569 3.34315 22 5 22H13C14.6569 22 16 20.6569 16 19V13C16.5523 13 17 13.4477 17 14V17.5C17 18.8807 18.1193 20 19.5 20C20.8807 20 22 18.8807 22 17.5V7.82843C22 7.03278 21.6839 6.26972 21.1213 5.70711L18.7071 3.29289C18.3166 2.90237 17.6834 2.90237 17.2929 3.29289C16.9024 3.68342 16.9024 4.31658 17.2929 4.70711L18.7124 6.1266C17.7176 6.45655 17 7.39448 17 8.5C17 9.88071 18.1193 11 19.5 11C19.6712 11 19.8384 10.9828 20 10.95V17.5C20 17.7761 19.7761 18 19.5 18C19.2239 18 19 17.7761 19 17.5V14C19 12.3431 17.6569 11 16 11V5C16 3.34315 14.6569 2 13 2H5ZM20 8.5C20 8.22386 19.7761 8 19.5 8C19.2239 8 19 8.22386 19 8.5C19 8.77614 19.2239 9 19.5 9C19.7761 9 20 8.77614 20 8.5ZM14 5V19C14 19.5523 13.5523 20 13 20H5C4.44772 20 4 19.5523 4 19V5C4 4.44772 4.44772 4 5 4H13C13.5523 4 14 4.44772 14 5Z" fill="#121D33"/>
</svg>
