<svg fill="none" height="63" viewBox="0 0 61 63" width="61" xmlns="http://www.w3.org/2000/svg" xmlns:xlink="http://www.w3.org/1999/xlink"><clipPath id="a"><path d="m0 15.1335h47.8664v47.8664h-47.8664z"/></clipPath><g clip-path="url(#a)"><path d="m23.9332 63c13.218 0 23.9332-10.7153 23.9332-23.9332 0-13.218-10.7152-23.9333-23.9332-23.9333-13.2179 0-23.9332 10.7153-23.9332 23.9333 0 13.2179 10.7153 23.9332 23.9332 23.9332z" fill="#f7d56e"/></g><path d="m30.5835 39.2086h3.936v8.928c-1.152.9173-2.496 1.6213-4.032 2.112-1.536.4906-3.1146.736-4.736.736-2.2826 0-4.3413-.4907-6.176-1.472-1.8346-1.0027-3.2746-2.3787-4.32-4.128-1.0453-1.7494-1.568-3.7227-1.568-5.92 0-2.1974.5227-4.1707 1.568-5.9201 1.0454-1.7493 2.4854-3.1146 4.32-4.096 1.856-1.0026 3.936-1.504 6.24-1.504 1.8774 0 3.584.3094 5.12.928 1.536.6187 2.8267 1.5254 3.872 2.7201l-2.624 2.5599c-1.7066-1.7066-3.7653-2.5599-6.176-2.5599-1.5786 0-2.9866.3306-4.224.992-1.216.6613-2.176 1.5893-2.88 2.784-.6826 1.1946-1.024 2.56-1.024 4.096 0 1.4933.3414 2.8373 1.024 4.032.704 1.1946 1.664 2.1333 2.88 2.816 1.2374.6826 2.6347 1.024 4.192 1.024 1.7494 0 3.2854-.384 4.608-1.152z" fill="#121d33"/><circle cx="46" cy="15" fill="#fff" r="13" stroke="#1a1835" stroke-width="4"/><path clip-rule="evenodd" d="m46 27c6.6274 0 12-5.3726 12-12 0-6.62742-5.3726-12-12-12s-12 5.37258-12 12c0 6.6274 5.3726 12 12 12zm-7.3431-11.3431 2.1213-2.1214 3 3 7.8787-7.87864 2.1213 2.12134-10 10z" fill="#59cd93" fill-rule="evenodd"/></svg>