<svg fill="none" height="16" viewBox="0 0 32 16" width="32" xmlns="http://www.w3.org/2000/svg"><path d="m23.4894 0h-14.97876c-4.68085 0-8.51064 3.6-8.51064 8s3.82979 8 8.51064 8h14.97876c4.6808 0 8.5106-3.6 8.5106-8s-3.8298-8-8.5106-8z" fill="#fff"/><g fill="#3c4043"><path d="m23.4894.648c1.051 0 2.0723.196 3.034.58.9319.372 1.766.904 2.4894 1.58.7191.676 1.2851 1.464 1.6808 2.34.4085.904.617 1.864.617 2.852s-.2085 1.948-.617 2.852c-.3957.876-.9617 1.66-1.6808 2.34-.7192.676-1.5575 1.208-2.4894 1.58-.9617.384-1.983.58-3.034.58h-14.97876c-1.05107 0-2.07234-.196-3.03404-.58-.93192-.372-1.76596-.904-2.48937-1.58-.71914-.676-1.2851-1.464-1.68085-2.34-.408508-.904-.617018-1.864-.617018-2.852s.20851-1.948.617018-2.852c.39575-.876.96171-1.66 1.68085-2.34.71915-.676 1.55745-1.208 2.48937-1.58.9617-.384 1.98297-.58 3.03404-.58zm0-.648h-14.97876c-4.68085 0-8.51064 3.6-8.51064 8s3.82979 8 8.51064 8h14.97876c4.6808 0 8.5106-3.6 8.5106-8s-3.8298-8-8.5106-8z"/><path d="m15.5662 8.24116v2.57104h-.816v-6.349h2.1631c.5482 0 1.0157.18274 1.3982.54821.3909.36547.5864.81169.5864 1.33865 0 .5397-.1955.98592-.5864 1.34714-.3783.36122-.8457.53971-1.3982.53971h-1.3471zm0-2.99602v2.21408h1.3641c.323 0 .595-.11049.8075-.32722.2167-.21674.3272-.48022.3272-.77769 0-.29323-.1105-.55246-.3272-.76919-.2125-.22524-.4803-.33573-.8075-.33573h-1.3641z"/><path d="m21.0313 6.32455c.6035 0 1.0795.16148 1.4279.48446.3485.32297.5227.76494.5227 1.3259v2.67729h-.7777v-.6035h-.0339c-.3358.4973-.7862.7437-1.3472.7437-.4802 0-.8797-.1402-1.2027-.4249-.3229-.2848-.4844-.63748-.4844-1.06245 0-.45046.17-.80744.5099-1.07092.34-.26772.7947-.39946 1.3599-.39946.4845 0 .884.08924 1.1942.26773v-.18699c0-.28473-.1105-.52271-.3357-.72244-.2253-.19974-.4887-.29748-.7905-.29748-.4547 0-.8159.19123-1.0794.57795l-.7182-.45046c.3952-.57371.9817-.85843 1.7551-.85843zm-1.0539 3.15325c0 .21248.0893.39097.272.5312.1785.1402.391.2125.6332.2125.3442 0 .6502-.1275.9179-.38248.2678-.25498.4037-.55245.4037-.89668-.2549-.19973-.6077-.30172-1.0624-.30172-.3314 0-.6077.08074-.8287.23798-.2252.16573-.3357.36547-.3357.5992z"/><path d="m27.4186 6.46481-2.7198 6.25549h-.8414l1.0114-2.1886-1.7934-4.06689h.8882l1.2919 3.11926h.017l1.2579-3.11926z"/></g><path d="m11.8337 8.09133c0-.29237-.0261-.57213-.0747-.84115h-3.75876v1.54125l2.16476.00046c-.0878.51282-.37037.94997-.80332 1.24141v.9999h1.28862c.7524-.6963 1.1834-1.72569 1.1834-2.94187z" fill="#4285f4"/><path d="m9.3622 10.0333c-.35869.2419-.8206.3834-1.36097.3834-1.04384 0-1.92936-.70335-2.24648-1.65145h-1.32921v1.03123c.65853 1.30682 2.01203 2.20352 3.57569 2.20352 1.08074 0 1.98868-.3554 2.64957-.9673z" fill="#34a853"/><path d="m5.62976 8.00024c0-.26622.04437-.52356.12517-.76549v-1.03123h-1.32921c-.27229.54037-.42548 1.15033-.42548 1.79672s.15366 1.25635.42548 1.79672l1.32921-1.03123c-.0808-.24193-.12517-.49927-.12517-.76549z" fill="#fabb05"/><path d="m8.00123 5.58328c.58988 0 1.11811.20317 1.53518.60015l1.14189-1.14099c-.69353-.64592-1.59773-1.04244-2.67707-1.04244-1.5632 0-2.91716.89672-3.57569 2.20352l1.32921 1.03123c.31712-.9481 1.20264-1.65147 2.24648-1.65147z" fill="#e94235"/></svg>