<svg height="139" viewBox="0 0 235 139" width="235" xmlns="http://www.w3.org/2000/svg" xmlns:xlink="http://www.w3.org/1999/xlink"><defs><path id="a" d="m0 0h26.19401v29.806977h-26.19401z"/><mask id="b" fill="#fff"><path d="m0 0h280v150h-280z" fill="#fff" fill-rule="evenodd"/></mask><mask id="c" fill="#fff"><use fill="#fff" fill-rule="evenodd" xlink:href="#a"/></mask></defs><g fill="none" fill-rule="evenodd" mask="url(#b)" transform="translate(-17 -11)"><g transform="translate(-31 12)"><g fill-rule="evenodd"><path d="m172.3 73.1v32.5" stroke="#fff" stroke-linecap="round"/><g transform="translate(57.800782 .742188)"><g fill-rule="nonzero"><path d="m53.2 4.1c4.6 1.8 8.2 7.6 10.6 11.9 3.9 6.8.4 16.1 4.4 22.9 1.4 2.4 3.8 4.4 4.4 7.1 1 4.5-3.1 8.8-3 13.4.1 2.8 1.6 5.3 2.8 7.8s1.9 5.6.4 8c-.9 1.5-2.6 2.5-3.1 4.1-.8 2.4 1.2 4.9 1.1 7.4-.1 2.2-1.7 4-3.7 4.9s-4.2.9-6.4.7c-4.8-.4-9.6-1.8-13.9-4-.1-5.6-.2-11.2-.3-16.9 0-1.6-.1-3.3-1.1-4.6-1.1-1.4-3.4-2.9-2.3-4.4-4.1.3-7.9 3.1-9.5 6.8-2 4.6-1.4 11.1-7.2 12.6-1.5.4-3 .2-4.5-.2l-13.7-3.4c-7.3-11.7-.2-16.5-4.6-22.6-.5-.8-1.2-1.5-1.3-2.5-.2-2.3 2.7-3.5 4.1-5.5 3.1-4.4-3.1-10.9-.5-15.6 1.1-1.9 3.3-2.8 4.8-4.3 2.4-2.3 3.2-5.9 3.1-9.3-.1-7.7 5.2-19.6 16.4-18.3 10.1 1.4 13.6.4 23 4z" fill="#0e2336"/><path d="m45.3 87.7v-29.7h-11.2v29.7" fill="#ffbd9c"/><path d="m34.1 62.3 11.2 3.9v-8.2h-11.2z" fill="#e3b9a5" opacity=".52"/><path d="m29.4 83.7h23" fill="#e49d76"/><path d="m21.1 30.3v-8.1c0-8.6 10-13.1 17.8-13.1 7.9 0 17.8 4.5 17.8 13.1v8.1s2.5 6.4.9 13.5c-.2.8-.3 1.7-.4 2.6-.7 5.6-5.1 11.5-14.5 13.6-2.5.6-4.7.2-7.1-.5-9.2-2.8-14.9-11.8-14.9-18" fill="#ffbd9c"/><circle cx="43" cy="86.8" fill="#db9f28" r="5"/></g><path d="m79.8 31c1.7 1.7 2.6 3.9 3 6.2s.2 4.7-.3 7" opacity=".48" stroke="#fff" stroke-linecap="round" stroke-width=".9493"/><g fill-rule="nonzero" transform="translate(104 52)"><path d="m22.4 17.9c-.9 1.4-1.9 2.7-3.2 3.7s-2.9 1.7-4.5 1.5c-1.3-.1-2.4-.7-3.6-1.3-1.4-.7-2.9-1.6-3.3-3.1-.3-1.3.3-2.7.8-3.9.5-1.3.8-2.9-.1-3.9 1.5-.3 3.2.1 4.7.6s3 .8 4.4 1.5 2.7 1.7 3.4 3c.3.8.8 1.5 1.4 1.9z" fill="#ffbd9c"/><path d="m27.1 26.3-26.1-10.6c-.3-.1-.4-.4-.3-.6l5.8-14.3c.1-.3.4-.4.6-.3l26.2 10.6c.3.1.4.4.3.6l-5.8 14.3c-.1.3-.4.4-.7.3z" fill="#f9f7f8"/><path d="m32.7 12.6-26.2-10.6c-.3-.1-.4-.4-.3-.6l.2-.6c.1-.3.4-.4.6-.3l26.2 10.6c.3.1.4.4.3.6l-.2.6c-.1.3-.4.4-.6.3z" fill="#ffcb5b"/><path d="m6.613973 8.598523h6.299903v6.299903h-6.299903z" fill="#bac3dd" transform="matrix(.92641426 .3765058 -.3765058 .92641426 5.141855 -2.811654)"/><g transform="translate(12 3)"><g transform="translate(7 3)"><path d="m4.1.2-3.2 5.5c-.2.4 1.4 1.7 2.2 1.4.6-.2 2.1-2.3 3-3.6.6-.9.4-2.1-.4-2.7-.8-.5-1.6-.6-1.6-.6z" fill="#e49d76"/><path d="m5.6.8c-.7-.5-1.5-.6-1.5-.6l-3.1 5.2s2.6-3.5 3.3-4.2c.4-.4.9-.4 1.3-.4z" fill="#e3b9a5" opacity=".52"/></g><g transform="translate(5 1)"><path d="m2.7.8s-3.1 5.5-2.5 6.7c.5.9 2.1 1 2.4.8s3.4-6.1 3.4-6.1c-.9-1.5-3.3-1.4-3.3-1.4z" fill="#e49d76"/><path d="m3.2 1.8c.4-.3 1.1-.5 1.6-.7-1-.4-2.1-.4-2.1-.4s-2.1 3.8-2.5 5.8c0 .1 2.2-4 3-4.7z" fill="#e3b9a5" opacity=".52"/></g><g transform="translate(2 1)"><path d="m2.7.2s-2.2 4.7-1.9 5.6 1.5 1.1 2.3.8c0 0 1.4-3.5 2.6-5.7 0 0-1.1-1.4-3-.7z" fill="#e49d76"/><path d="m3 1.2c.3-.4.8-.9 1.1-1.1-.4 0-.9 0-1.4.2 0 0-1.8 4-1.9 5.3v.1c0-.1 1.5-3.6 2.2-4.5z" fill="#e3b9a5" opacity=".52"/></g><path d="m4.8 1.3s-1.5-.8-2.4-.6c-1 .2-2 4.4-1.4 5 .9.9 1.9.2 1.9.2s1.3-3.6 1.9-4.6z" fill="#e49d76"/></g><g fill="#bac3dd" transform="translate(13 11)"><path d="m1.37709 4.509533h11.69982v1h-11.69982z" transform="matrix(.92641426 .3765058 -.3765058 .92641426 2.417919 -2.352378)"/><path d="m2.08327 2.706763h11.69982v1h-11.69982z" transform="matrix(.92641426 .3765058 -.3765058 .92641426 1.791131 -2.750917)"/><path d="m.59407 6.492233h11.69982v1h-11.69982z" transform="matrix(.92641426 .3765058 -.3765058 .92641426 3.106798 -1.911668)"/></g><g fill="#fff" transform="translate(7 10)"><path d="m3.4.3c-.6-.2-1.2.1-1.4.6-.2.6.1 1.2.6 1.4.6.2 1.2-.1 1.4-.6.3-.6 0-1.2-.6-1.4z"/><path d="m4.1 4.7c-.1 0-.1 0 0 0-1.4-.5-2.7-1.1-4.1-1.6.1-.2.1-.3.2-.5s.3-.3.5-.4c.3-.1.5-.1.8 0 .7.3 1.4.5 2 .8.3.1.4.3.6.5.1.2.1.4.1.5v.3c0 .2-.1.3-.1.4z"/><path d="m3.4.3c.6.2.8.9.6 1.4-.2.6-.9.9-1.4.6-.6-.2-.9-.9-.6-1.4.2-.6.8-.8 1.4-.6z"/></g></g><path d="m71 83.5 11.2 18.5c1.2 2 4.1 2.2 5.6.3l25.7-30.7 5 2.4-29.3 44.5c-1.9 2.9-6.2 3.1-8.3.3l-20.8-27.9" fill="#ffbd9c"/><path d="m5 86.2-.9 17-2.7 51.7 4.7.2 9-47c.2-.9.3-1.9.4-2.8l1.8-18z" fill="#ffbd9c" fill-rule="nonzero"/><path d="m64.1 116.2c-1.3-6.3-1.7-12.7-1.4-19.2.2-3.3 0-6.5 0-6.5 2.4-3.1 10.7-3.2 10.7-3.2.8-.8-1-6.7-4.1-12.4-.8-1.5-2.1-2.6-3.5-3.5-5.3-3.2-13.5-2.3-15.3-2.2l-5.3-3.1-11-.2-3.8 2.7c-1.3-.1-14.2-.4-19.3 5-3.6 3.8-6.8 11.8-6 12.6 0 0 9 1.1 11.4 4.2s-.2 3.3 0 6.6c.4 6.5-.1 13-1.5 19.4-5.9 27.5-15.8 60.1-14 82 2 24 .4 21.8 1.7 25.9 1.2 4 48 6.9 66.3 2.3 5.2-1.3 5-4.4 6.4-16.4.2-2.1.5-4.4.8-7.2 3-27.2-6.1-57.5-12.1-86.8z" fill="#66c4ac"/><path d="m58.3 14.4c-.6-.8-1.2-1.5-1.8-2.2l-2.5-4.9-19.7-5-6.8 5.9c-4.4 1.1-7.7 3.1-6.3 6.7 2.6 6.7 13.6 11.5 19.9 13.5 8.4 2.6 15.5 2.6 24.3 1.5-2.3-5.6-3.4-10.7-7.1-15.5z" fill="#0e2336"/></g><g transform="translate(85.800782 33.742188)"><g fill="#814b2d" fill-rule="nonzero"><path d="m4.7 5.5c0 .9-.8 1.6-1.2 1.6s-.7-.7-.7-1.6.3-1.6.7-1.6 1.2.7 1.2 1.6z"/><path d="m.3 1.7c.7-1 2-1.5 3.3-1.4 1.2 0 2.5.6 3.2 1.7-1.1-.4-2.1-.7-3.2-.7-1.1-.1-2.1.1-3.3.4z"/><path d="m16.7 1.7c.7-1 2-1.5 3.3-1.4 1.2 0 2.5.6 3.2 1.7-1.1-.4-2.1-.7-3.2-.7-1.1-.1-2.2.1-3.3.4z"/></g><path d="m11.2 8.2c-.2 1.3-.4 2.6-.6 3.8v.4c.1.2.3.2.5.3.6.1 1.3.2 1.9.4" opacity=".61" stroke="#b5795b" stroke-linecap="round" stroke-width=".7722"/><path d="m20.6 5.6c0 .9-.8 1.6-1.2 1.6s-.7-.7-.7-1.6.3-1.6.7-1.6 1.2.7 1.2 1.6z" fill="#814b2d" fill-rule="nonzero"/><path d="m15.8 18s-3 2-6.6.4" stroke="#b5795b" stroke-linecap="round" stroke-width=".7722"/></g><g transform="translate(200.080729 8.5)"><g fill-rule="nonzero"><path d="m.6 4v48.7c0 .5.33021665.9.74298746.9h70.91402504c.4127709 0 .7429875-.4.7429875-.9v-48.7z" fill="#f9f7f8"/><path d="m72.2570125.5h-70.91402504c-.41277081 0-.74298746.4-.74298746.9v2.6h72.4v-2.7c0-.4-.3302166-.8-.7429875-.8z" fill="#dcdcdc"/><path d="m.6 4h72.4v7.1h-72.4z" fill="#e9e9e9"/><path d="m64.4 22.3h-29.1c-.2 0-.4-.2-.4-.4v-.5c0-.2.2-.4.4-.4h29.1c.2 0 .4.2.4.4v.5c0 .2-.2.4-.4.4z" fill="#bac3dd"/><g fill="#fff"><circle cx="9.1" cy="2.2" r="1"/><circle cx="6.5" cy="2.2" r="1"/><circle cx="3.8" cy="2.2" r="1"/></g><g fill="#bac3dd"><path d="m64.4 26.9h-19.1c-.2 0-.4-.2-.4-.4v-.5c0-.2.2-.4.4-.4h19.1c.2 0 .4.2.4.4v.5c0 .2-.2.4-.4.4z"/><path d="m64.4 31.4h-19.1c-.2 0-.4-.2-.4-.4v-.5c0-.2.2-.4.4-.4h19.1c.2 0 .4.2.4.4v.5c0 .2-.2.4-.4.4z"/></g></g><g transform="translate(17 27)"><g fill="#814b2d" fill-rule="nonzero"><path d="m1.9 1.7c0 .3-.2.5-.4.5-.1 0-.2-.2-.2-.5s.1-.5.2-.5c.2 0 .4.3.4.5z"/><path d="m.6.6c.5-.6 1.5-.6 1.9.1-.6-.3-1.2-.3-1.9-.1z"/><path d="m5.5.6c.5-.6 1.5-.6 1.9.1-.6-.3-1.2-.3-1.9-.1z"/></g><path d="m3.9 2.5c-.1.4-.1.8-.2 1.1v.1s.1.1.1.1c.2 0 .4.1.6.1" opacity=".61" stroke="#b5795b" stroke-linecap="round" stroke-width=".2317"/><path d="m6.7 1.7c0 .3-.2.5-.4.5s-.2-.2-.2-.5.1-.5.2-.5.4.3.4.5z" fill="#814b2d" fill-rule="nonzero"/><path d="m5.3 5.5s-.9.6-2 .1" stroke="#b5795b" stroke-linecap="round" stroke-width=".2317"/></g></g><g transform="translate(205.080729 24.096511)"><use fill="#fff" xlink:href="#a"/><g mask="url(#c)"><g transform="translate(1.806483 1.806483)"><g fill-rule="nonzero"><path d="m16.2583513 1.44518678c1.3548626.54194504 2.4387527 2.25810435 3.0710219 3.52264278 1.1742143 1.98713183.0903242 4.69685704 1.2645384 6.77431304.4516209.7225934 1.0838901 1.2645384 1.2645385 2.077456.2709725 1.3548626-.9032418 2.619401-.9032418 3.9742636 0 .8129176.4516209 1.535511.8129176 2.2581044s.541945 1.6258351.0903242 2.3484285c-.2709725.4516209-.7225934.7225934-.9032418 1.1742143-.2709725.7225934.3612967 1.4451868.3612967 2.1677801 0 .6322693-.541945 1.1742143-1.0838901 1.4451868-.541945.2709726-1.2645384.2709726-1.8968076.1806484-1.4451868-.0903242-2.8000494-.5419451-4.0645878-1.1742143 0-1.6258351-.0903242-3.3419944-.0903242-4.9678295 0-.4516209 0-.993566-.3612967-1.3548627-.3612967-.4516208-.9935659-.8129175-.6322692-1.2645384-1.1742143.0903242-2.3484285.9032418-2.8000494 1.9871318-.63226922 1.3548626-.3612967 3.2516703-2.07745601 3.7032912-.45162086.0903241-.90324173.0903241-1.26453843-.0903242l-4.33556034-1.2645384c-1.44518679-2.6194011.27097252-4.6065329-1.08389009-6.4130164-.18064835-.1806483-.3612967-.4516209-.3612967-.7225934-.09032417-.7225934.81291757-1.0838901 1.17421426-1.6258351.90324174-1.2645384-.90324173-3.2516703-.18064834-4.60653287.27097252-.54194504.99356591-.81291757 1.44518678-1.26453844.72259339-.72259339.90324174-1.7161593.90324174-2.70972521 0-2.25810435 1.53551095-5.78074713 4.78718121-5.32912626 3.07102192.45162087 4.06458782.18064835 6.86463722 1.17421426z" fill="#0e2336"/><path d="m20.4132633 24.2068786c.3612967-.0903242.9032417.0903242.9935659.4516209l.1806484 4.3355603.7225933 13.8195986c0 .3612967-.2709725.7225934-.6322692.7225934s-.6322692-.2709725-.7225934-.541945l-2.4387527-12.5550602c-.0903241-.2709725-.0903241-.5419451-.0903241-.9032418l-.4516209-4.3355603c0-.3612967.2709725-.7225934.6322692-.8129176z" fill="#ffbd9c"/><path d="m13.3679777 24.8391478v-8.309824h-3.1613461v8.309824" fill="#ffbd9c"/><path d="m10.2066316 17.7035381 3.1613461 1.1742142v-2.3484285h-3.1613461z" fill="#e3b9a5" opacity=".52"/><path d="m8.85176904 23.7552577h6.50334056" fill="#e49d76"/><path d="m6.59366469 8.76144486v-2.25810434c0-2.4387527 2.80004939-3.70329113 4.96782961-3.70329113 2.1677801 0 4.9678295 1.26453843 4.9678295 3.70329113v2.25810434s.7225934 1.80648344.2709725 3.79361534c-.0903241.2709725-.0903241.4516208-.0903241.7225934-.1806484 1.6258351-1.4451868 3.2516702-4.0645879 3.7936153-.7225934.1806483-1.2645384.0903241-1.9871318-.1806484-2.61940103-.8129176-4.15491198-3.3419944-4.15491198-5.0581537" fill="#ffbd9c"/><circle cx="12.735709" cy="24.6585" fill="#db9f28" r="1.354863"/><path d="m2.077456 24.4778511-.27097252 4.7871812-.72259339 14.542192 1.3548626.0903242 2.52907687-13.1873294c.09032418-.2709725.09032418-.541945.09032418-.8129176l.45162086-5.0581537z" fill="#ffbd9c"/></g><path d="m18.6067798 32.8779993c-.3612967-1.8064835-.4516209-3.612967-.3612967-5.4194504.0903242-.9032418 0-1.8064835 0-1.8064835.6322692-.9032418 3.1613461-.8129176 3.1613461-.8129176.1806484-.1806483-.4516209-1.9871318-1.3548626-3.5226428-.2709725-.4516208-.541945-.7225934-.9935659-.9935659-1.535511-.9032417-3.7936153-.6322692-4.3355604-.6322692l-1.4451867-.9032417-3.071022-.0903242-1.08389004.7225934c-.3612967 0-3.97426365-.0903242-5.41945043 1.4451868-.99356591 1.08389-1.89680765 3.3419944-1.71615931 3.5226427 0 0 2.52907687.2709726 3.16134609 1.1742143s-.09032417.9032417 0 1.8064835c.09032417 1.8064835 0 3.6129669-.45162087 5.4194504-1.62583513 7.6775548-4.42588452 16.8002963-3.97426365 23.0326643.54194504 6.7743131.09032418 6.1420439.45162087 7.2259339.3612967 1.1742143 13.45830194 1.8968077 18.60677984.6322693 1.4451868-.3612967 1.4451868-1.2645385 1.8064835-4.6065329.0903241-.541945.1806483-1.2645384.2709725-1.9871318.9935659-7.4969065-1.535511-15.9873788-3.2516703-24.2068786z" fill="#66c4ac"/><path d="m16.9809447 4.33556034c-.1806484-.18064834-.3612967-.45162086-.5419451-.63226921l-.7225933-1.35486261-5.5097747-1.44518678-1.89680761 1.62583513c-1.26453843.27097252-2.16778017.90324174-1.80648347 1.89680765.72259339 1.89680765 3.79361528 3.25167026 5.60009878 3.7936153 2.3484285.72259339 4.8775054.81291757 7.3162581.54194504-.5419451-1.62583513-1.3548626-3.07102191-2.4387527-4.42588452z" fill="#0e2336"/><path d="m11.6518184 19.0584007v9.1227415" stroke="#fff" stroke-linecap="round" stroke-width=".3104"/><g transform="translate(8.129176 9.935659)"><g fill="#814b2d" fill-rule="nonzero"><path d="m1.7161593 1.53551096c0 .27097252-.18064834.45162086-.36129669.45162086-.09032418 0-.18064835-.18064834-.18064835-.45162086 0-.27097253.09032417-.45162087.18064835-.45162087.18064835 0 .36129669.27097252.36129669.45162087z"/><path d="m.54194504.54194504c.45162087-.54194504 1.35486261-.54194504 1.71615931.09032418-.54194505-.27097252-1.08389009-.27097252-1.71615931-.09032418z"/><path d="m4.96782956.54194504c.45162087-.54194504 1.35486261-.54194504 1.7161593.09032418-.54194504-.27097252-1.08389008-.27097252-1.7161593-.09032418z"/></g><path d="m3.52264278 2.25810435c-.09032417.36129669-.09032417.72259339-.18064835.99356591v.09032417s.09032418.09032418.09032418.09032418c.18064834 0 .36129669.09032417.54194504.09032417" opacity=".61" stroke="#b5795b" stroke-linecap="round" stroke-width=".2317"/><path d="m6.05171965 1.53551096c0 .27097252-.18064835.45162086-.3612967.45162086s-.18064835-.18064834-.18064835-.45162086c0-.27097253.09032418-.45162087.18064835-.45162087.09032418 0 .3612967.27097252.3612967.45162087z" fill="#814b2d" fill-rule="nonzero"/><path d="m4.78718121 4.96782956s-.81291756.54194504-1.80648347.09032418" stroke="#b5795b" stroke-linecap="round" stroke-width=".2317"/></g></g></g></g></g><path d="m97.5 70.5v85.211502" stroke="#fff" stroke-linecap="square"/></g></g></svg>