<svg fill="none" height="24" viewBox="0 0 24 24" width="24" xmlns="http://www.w3.org/2000/svg"><g fill="#121d33"><path d="m8.5 7.36364c-.6276 0-1.13636.50876-1.13636 1.13636s.50876 1.13636 1.13636 1.13636 1.13636-.50876 1.13636-1.13636-.50876-1.13636-1.13636-1.13636z"/><path d="m15.5 14.3636c-.6276 0-1.1364.5088-1.1364 1.1364s.5088 1.1364 1.1364 1.1364 1.1364-.5088 1.1364-1.1364-.5088-1.1364-1.1364-1.1364z"/><path clip-rule="evenodd" d="m12 24c6.6274 0 12-5.3726 12-12 0-6.62742-5.3726-12-12-12-6.62742 0-12 5.37258-12 12 0 6.6274 5.37258 12 12 12zm-6-15.5c0-1.38071 1.11929-2.5 2.5-2.5s2.5 1.11929 2.5 2.5-1.11929 2.5-2.5 2.5-2.5-1.11929-2.5-2.5zm7 7c0-1.3807 1.1193-2.5 2.5-2.5s2.5 1.1193 2.5 2.5-1.1193 2.5-2.5 2.5-2.5-1.1193-2.5-2.5zm5-8.3-10.8 10.8-1.2-1.2 10.8-10.8z" fill-rule="evenodd"/></g></svg>