<svg width="111" height="66" viewBox="0 0 111 66" fill="none" xmlns="http://www.w3.org/2000/svg">
<g clip-path="url(#clip0_2576_174082)">
<path fill-rule="evenodd" clip-rule="evenodd" d="M8.55557 13.8707C7.48864 14.1566 6.85547 15.2532 7.14136 16.3202L13.8707 41.4342C14.1565 42.5012 15.2532 43.1343 16.3201 42.8484L41.4342 36.1191C42.5011 35.8333 43.1343 34.7366 42.8484 33.6697L36.1191 8.55559C35.8332 7.48865 34.7366 6.85549 33.6696 7.14137L8.55557 13.8707ZM21.0223 29.6353L24.8187 32.3128C25.0795 32.4967 25.4435 32.3926 25.5675 32.0986L28.5106 25.1228C28.767 24.5153 29.5308 24.3178 30.0495 24.7249L38.4589 31.3259C38.621 31.4531 38.5682 31.7107 38.3693 31.764L16.8077 37.5414C16.6067 37.5953 16.4318 37.3944 16.5126 37.2028L19.5246 30.0638C19.7727 29.4757 20.5007 29.2674 21.0223 29.6353Z" fill="#BBDBFC"/>
</g>
<g clip-path="url(#clip1_2576_174082)">
<path fill-rule="evenodd" clip-rule="evenodd" d="M75.2819 7.75886C74.1983 7.54469 73.1463 8.2495 72.9321 9.33311L67.8907 34.8397C67.6765 35.9233 68.3813 36.9753 69.4649 37.1895L94.9715 42.2309C96.0551 42.4451 97.1071 41.7403 97.3213 40.6567L102.363 15.1501C102.577 14.0665 101.872 13.0144 100.788 12.8003L75.2819 7.75886ZM79.5143 27.4065L81.7399 31.4843C81.8928 31.7644 82.2654 31.8316 82.5065 31.6224L88.2254 26.6608C88.7234 26.2287 89.496 26.3884 89.7818 26.9826L94.4162 36.6167C94.5055 36.8023 94.3445 37.0103 94.1424 36.9703L72.2439 32.642C72.0398 32.6017 71.9714 32.3443 72.1286 32.208L77.9812 27.1302C78.4633 26.712 79.2086 26.8463 79.5143 27.4065Z" fill="#BBDBFC"/>
</g>
<g clip-path="url(#clip2_2576_174082)">
<path d="M73.5968 38.856C76.4153 34.9431 78.07 30.1499 78.07 24.9921C78.07 11.8555 67.4217 1.20709 54.285 1.20709C41.1484 1.20709 30.5 11.8555 30.5 24.9921C30.5 38.1288 41.1484 48.7771 54.285 48.7771C59.4415 48.7771 64.2335 47.1232 68.1459 44.3061L87.6335 63.7929C88.4146 64.574 89.6809 64.574 90.4619 63.7929L93.0856 61.1692C93.8668 60.3881 93.8667 59.1217 93.0855 58.3406L73.5968 38.856ZM54.285 41.4587C45.1735 41.4587 37.8185 34.1036 37.8185 24.9921C37.8185 15.8806 45.1735 8.52556 54.285 8.52556C63.3965 8.52556 70.7516 15.8806 70.7516 24.9921C70.7516 34.1036 63.3965 41.4587 54.285 41.4587Z" fill="#0C6CF2"/>
</g>
<circle cx="54.3275" cy="25.1212" r="16.6214" fill="white"/>
<g clip-path="url(#clip3_2576_174082)">
<path d="M54.3274 13.1212C47.7034 13.1212 42.3274 18.4972 42.3274 25.1212C42.3274 31.7452 47.7034 37.1212 54.3274 37.1212C60.9514 37.1212 66.3274 31.7452 66.3274 25.1212C66.3274 18.4972 60.9514 13.1212 54.3274 13.1212ZM55.5274 33.5212H53.1274V31.1212H55.5274V33.5212ZM58.0114 24.2212L56.9314 25.3252C56.0674 26.2012 55.5274 26.9212 55.5274 28.7212H53.1274V28.1212C53.1274 26.8012 53.6674 25.6012 54.5314 24.7252L56.0194 23.2132C56.4634 22.7812 56.7274 22.1812 56.7274 21.5212C56.7274 20.2012 55.6474 19.1212 54.3274 19.1212C53.0074 19.1212 51.9274 20.2012 51.9274 21.5212H49.5274C49.5274 18.8692 51.6754 16.7212 54.3274 16.7212C56.9794 16.7212 59.1274 18.8692 59.1274 21.5212C59.1274 22.5772 58.6954 23.5372 58.0114 24.2212Z" fill="#0C6CF2"/>
</g>
<defs>
<clipPath id="clip0_2576_174082">
<rect width="40" height="40" fill="white" transform="translate(0.5 10.8528) rotate(-15)"/>
</clipPath>
<clipPath id="clip1_2576_174082">
<rect width="40" height="40" fill="white" transform="translate(69.3843 1.49646) rotate(11.1805)"/>
</clipPath>
<clipPath id="clip2_2576_174082">
<rect width="64" height="64" fill="white" transform="translate(30.5 1.20709)"/>
</clipPath>
<clipPath id="clip3_2576_174082">
<rect width="24" height="24" fill="white" transform="translate(42.3274 13.1212)"/>
</clipPath>
</defs>
</svg>
