<svg width="133" height="70" viewBox="0 0 133 70" fill="none" xmlns="http://www.w3.org/2000/svg">
<g clip-path="url(#clip0_2024_142930)">
<path fill-rule="evenodd" clip-rule="evenodd" d="M42.5375 7.78648C43.6211 7.57231 44.6731 8.27712 44.8873 9.36073L51.0921 40.7534C51.3063 41.837 50.6015 42.8891 49.5179 43.1032L18.1252 49.308C17.0416 49.5222 15.9895 48.8174 15.7753 47.7338L9.57055 16.3411C9.35637 15.2575 10.0612 14.2055 11.1448 13.9913L42.5375 7.78648ZM37.1852 31.2232L34.336 36.4436C34.1831 36.7237 33.8105 36.7908 33.5694 36.5817L26.4152 30.3748C25.9171 29.9426 25.1445 30.1024 24.8587 30.6966L19.1406 42.5835C19.0513 42.7692 19.2122 42.9771 19.4143 42.9372L45.891 37.704C46.0951 37.6637 46.1635 37.4063 46.0063 37.2699L38.7183 30.9469C38.2362 30.5287 37.491 30.6629 37.1852 31.2232Z" fill="#BBDBFC"/>
</g>
<g clip-path="url(#clip1_2024_142930)">
<path fill-rule="evenodd" clip-rule="evenodd" d="M90.4625 7.78648C89.3789 7.57231 88.3269 8.27712 88.1127 9.36073L81.9079 40.7534C81.6937 41.837 82.3985 42.8891 83.4821 43.1032L114.875 49.308C115.958 49.5222 117.01 48.8174 117.225 47.7338L123.429 16.3411C123.644 15.2575 122.939 14.2055 121.855 13.9913L90.4625 7.78648ZM95.8148 31.2232L98.664 36.4436C98.8169 36.7237 99.1895 36.7908 99.4306 36.5817L106.585 30.3748C107.083 29.9426 107.855 30.1024 108.141 30.6966L113.859 42.5835C113.949 42.7692 113.788 42.9771 113.586 42.9372L87.109 37.704C86.9049 37.6637 86.8365 37.4063 86.9937 37.2699L94.2817 30.9469C94.7638 30.5287 95.509 30.6629 95.8148 31.2232Z" fill="#BBDBFC"/>
</g>
<path fill-rule="evenodd" clip-rule="evenodd" d="M66.5 33.1567C75.3366 33.1567 82.5 25.9933 82.5 17.1567C82.5 14.9749 82.0633 12.8952 81.2726 11H91.5C92.6046 11 93.5 11.8954 93.5 13V63C93.5 64.1046 92.6046 65 91.5 65H41.5C40.3954 65 39.5 64.1046 39.5 63V13C39.5 11.8954 40.3954 11 41.5 11H51.7274C50.9367 12.8952 50.5 14.9749 50.5 17.1567C50.5 25.9933 57.6634 33.1567 66.5 33.1567ZM63.1025 51.0229L56.7951 43.4541C56.3865 42.9638 55.6294 42.9765 55.2375 43.4803L45.8138 55.5965C45.6861 55.7607 45.8031 56 46.0112 56H87C87.206 56 87.3236 55.7648 87.2 55.6L74.7856 39.0474C74.3899 38.5199 73.601 38.513 73.1962 39.0335L63.8812 51.0098C63.6853 51.2617 63.3068 51.2681 63.1025 51.0229Z" fill="#0C6CF2"/>
<g clip-path="url(#clip2_2024_142930)">
<path d="M66.5 5.15674C59.876 5.15674 54.5 10.5327 54.5 17.1567C54.5 23.7807 59.876 29.1567 66.5 29.1567C73.124 29.1567 78.5 23.7807 78.5 17.1567C78.5 10.5327 73.124 5.15674 66.5 5.15674ZM67.7 25.5567H65.3V23.1567H67.7V25.5567ZM70.184 16.2567L69.104 17.3607C68.24 18.2367 67.7 18.9567 67.7 20.7567H65.3V20.1567C65.3 18.8367 65.84 17.6367 66.704 16.7607L68.192 15.2487C68.636 14.8167 68.9 14.2167 68.9 13.5567C68.9 12.2367 67.82 11.1567 66.5 11.1567C65.18 11.1567 64.1 12.2367 64.1 13.5567H61.7C61.7 10.9047 63.848 8.75674 66.5 8.75674C69.152 8.75674 71.3 10.9047 71.3 13.5567C71.3 14.6127 70.868 15.5727 70.184 16.2567Z" fill="#0C6CF2"/>
</g>
<defs>
<clipPath id="clip0_2024_142930">
<rect width="48" height="48" fill="white" transform="matrix(-0.981021 0.1939 0.1939 0.981021 49.2222 0.349121)"/>
</clipPath>
<clipPath id="clip1_2024_142930">
<rect width="48" height="48" fill="white" transform="translate(83.7778 0.349121) rotate(11.1805)"/>
</clipPath>
<clipPath id="clip2_2024_142930">
<rect width="24" height="24" fill="white" transform="translate(54.5 5.15674)"/>
</clipPath>
</defs>
</svg>
