<svg width="169" height="144" viewBox="0 0 169 144" fill="none" xmlns="http://www.w3.org/2000/svg">
<g clip-path="url(#clip0_3140_178981)">
<path d="M141.181 119.053L141.115 119.109C140.874 119.316 140.631 119.522 140.386 119.725L140.256 119.832C140.045 120.006 139.834 120.178 139.623 120.355L139.437 120.503C139.188 120.701 138.936 120.898 138.683 121.092L138.569 121.18C138.346 121.35 138.121 121.519 137.896 121.686L137.699 121.83C137.44 122.021 137.18 122.209 136.918 122.394L136.834 122.454C136.595 122.622 136.355 122.789 136.113 122.954L135.907 123.089C135.64 123.27 135.372 123.45 135.101 123.63L135.057 123.659C134.799 123.826 134.538 123.993 134.277 124.157L134.062 124.293C133.79 124.462 133.518 124.63 133.243 124.796L133.229 124.804C132.951 124.971 132.669 125.135 132.387 125.298L132.171 125.422C131.908 125.572 131.644 125.721 131.379 125.867L131.311 125.905C131.026 126.061 130.739 126.215 130.451 126.367L130.234 126.481C129.977 126.622 129.717 126.749 129.457 126.879L129.348 126.935C129.056 127.08 128.764 127.224 128.471 127.369L128.252 127.473C127.996 127.594 127.739 127.715 127.48 127.832L127.336 127.898C127.04 128.033 126.742 128.165 126.441 128.294L126.221 128.388C125.965 128.498 125.707 128.607 125.448 128.713L125.277 128.783C124.974 128.906 124.669 129.027 124.363 129.146L124.143 129.229C123.884 129.328 123.623 129.426 123.363 129.522L123.167 129.593C122.858 129.705 122.548 129.814 122.236 129.919L122.026 129.99C121.763 130.079 121.499 130.166 121.233 130.252L121.019 130.322C120.703 130.423 120.387 130.521 120.068 130.617L119.871 130.675C119.602 130.755 119.329 130.833 119.058 130.911L118.829 130.974C118.507 131.064 118.184 131.151 117.859 131.235L117.681 131.28C117.402 131.351 117.123 131.421 116.842 131.488L116.598 131.547C116.27 131.624 115.941 131.7 115.61 131.772L115.455 131.804C115.165 131.867 114.875 131.927 114.583 131.986L114.33 132.036C113.993 132.101 113.656 132.164 113.319 132.225L113.199 132.246C112.893 132.299 112.588 132.35 112.283 132.4L112.021 132.441C111.683 132.494 111.336 132.546 110.992 132.593L110.924 132.6C110.599 132.644 110.273 132.686 109.947 132.726L109.678 132.754C109.329 132.79 108.98 132.834 108.629 132.863C91.556 134.562 75.0355 129.087 62.1187 118.861C49.202 108.635 39.8944 93.663 37.2606 76.3593C34.6268 59.0555 39.1624 42.7004 48.6235 30.2471C48.9088 29.8746 49.1997 29.5015 49.4941 29.1281C49.5883 29.0097 49.6838 28.8935 49.7793 28.7773C49.9824 28.5277 50.1881 28.2777 50.3964 28.0275C50.5084 27.894 50.6213 27.7607 50.7349 27.6278C50.9337 27.3953 51.1341 27.1646 51.3362 26.9356L51.6826 26.5454C51.9002 26.3033 52.1204 26.0645 52.3417 25.8255C52.4449 25.7165 52.5479 25.6064 52.6455 25.4991C52.9693 25.1553 53.297 24.8165 53.6287 24.4827L53.6547 24.4571C53.9787 24.1309 54.3067 23.8088 54.6385 23.4909C54.7478 23.3859 54.8594 23.2817 54.97 23.1776C55.2049 22.9559 55.4412 22.7359 55.6788 22.5177C55.8073 22.3992 55.9372 22.2829 56.0671 22.1665C56.2953 21.9608 56.5252 21.7574 56.757 21.5566C56.8347 21.4891 56.9099 21.4196 56.9888 21.352L52.8133 24.9434C49.72 27.6061 46.9164 30.5868 44.4489 33.8361C40.9335 38.4661 38.1229 43.5892 36.1082 49.0392L36.1687 48.8718L36.1491 48.9253L36.1293 48.9776L36.09 49.0845C36.0772 49.1156 36.0622 49.1583 36.0495 49.1905L36.0299 49.2439L35.9905 49.3497L35.9511 49.4555L35.9304 49.5091L35.891 49.6149L35.8714 49.6684L35.832 49.7742L35.8123 49.8276C35.7997 49.8598 35.7834 49.9015 35.7718 49.9336C32.2703 59.3164 31.0609 69.8244 32.7193 80.7156C35.3278 97.8539 44.5422 112.688 57.3331 122.816C70.124 132.945 86.4911 138.364 103.399 136.684C105.598 136.466 107.782 136.128 109.944 135.671L111.055 135.441C110.796 135.497 110.534 135.551 110.271 135.602C120.507 133.577 129.599 129.022 137.006 122.653L141.181 119.053Z" fill="#DFE3EB"/>
<path d="M158.186 94.1526C158.075 94.4487 157.962 94.7472 157.846 95.037L157.789 95.1801C157.688 95.4336 157.585 95.6866 157.481 95.9389C157.45 96.0164 157.418 96.0929 157.39 96.1689C157.268 96.462 157.146 96.7531 157.023 97.0424L156.995 97.1048C156.877 97.3765 156.755 97.6463 156.632 97.9162L156.526 98.1454C156.402 98.4143 156.275 98.6835 156.152 98.95L156.124 99.0089C155.986 99.2941 155.847 99.5759 155.704 99.8525L155.593 100.073C155.469 100.315 155.346 100.556 155.22 100.798L155.15 100.931C155.003 101.208 154.855 101.484 154.704 101.757L154.591 101.962C154.464 102.19 154.336 102.419 154.204 102.645L154.107 102.816C153.952 103.086 153.793 103.355 153.634 103.622C153.597 103.683 153.56 103.744 153.524 103.803C153.39 104.025 153.256 104.245 153.12 104.465L153.001 104.655C152.834 104.92 152.667 105.182 152.499 105.444L152.4 105.59C152.255 105.811 152.11 106.03 151.963 106.249L151.827 106.45C151.653 106.709 151.475 106.965 151.296 107.22L151.231 107.312C151.069 107.541 150.905 107.768 150.741 107.994L150.595 108.194C150.409 108.442 150.221 108.701 150.032 108.95C140.659 121.285 126.409 129.755 109.499 131.439C92.5884 133.123 76.2241 127.696 63.4334 117.57C50.6427 107.444 41.4175 92.6156 38.8088 75.4761C36.2001 58.3365 40.6915 42.1392 50.063 29.8048C50.2946 29.4996 50.5311 29.1974 50.7701 28.8971L50.8793 28.7589C51.1077 28.4739 51.3378 28.1905 51.5695 27.9089L51.7029 27.7488C51.9385 27.4676 52.1766 27.188 52.4171 26.9101L52.5195 26.7931C52.763 26.5141 53.0089 26.236 53.2575 25.9622L53.2964 25.9182C53.5505 25.6388 53.8073 25.3626 54.0667 25.0896L54.1966 24.9515C54.4478 24.6877 54.7011 24.4264 54.9566 24.1675L55.1005 24.0211C55.3619 23.76 55.6253 23.5003 55.8908 23.2418L55.9845 23.1521C56.248 22.8962 56.5135 22.6454 56.781 22.3997L56.8562 22.3301C57.1295 22.0732 57.4061 21.8231 57.6862 21.5799L57.8364 21.45C58.1098 21.2091 58.3857 20.9705 58.6642 20.7344L58.8156 20.6043C59.1019 20.3635 59.3908 20.1248 59.6822 19.888L59.7552 19.8302C60.0419 19.5993 60.3303 19.3712 60.6206 19.146L60.7265 19.063C61.0204 18.8359 61.3166 18.6124 61.6151 18.3924L61.782 18.2688C62.077 18.0522 62.3742 17.8381 62.6735 17.6265L62.829 17.5143C63.1417 17.2955 63.4547 17.079 63.7715 16.8667L63.8133 16.8395C64.1244 16.6304 64.4392 16.4244 64.7577 16.2214L64.8929 16.1342C65.2058 15.9348 65.5204 15.7383 65.8369 15.5447L66.0168 15.4357C66.3335 15.2443 66.6523 15.055 66.9733 14.8678L67.1247 14.7823C67.4581 14.59 67.7946 14.4026 68.1344 14.2203L68.1463 14.2134C68.4865 14.0272 68.8303 13.844 69.1746 13.6642L69.3353 13.5801C69.667 13.4085 69.9999 13.2402 70.3338 13.0752L70.5245 12.9823C70.8623 12.8169 71.2019 12.6548 71.5433 12.4959L71.6831 12.4311C72.0269 12.2727 72.3725 12.1172 72.72 11.9645L72.7857 11.9359C73.1399 11.7818 73.4966 11.6305 73.8559 11.4819L74.0381 11.4058C74.3834 11.2618 74.7332 11.121 75.0876 10.9837L75.2847 10.9083C75.643 10.772 76.0035 10.6382 76.3661 10.5068L76.4842 10.4648C76.842 10.3378 77.2015 10.2135 77.5629 10.0922L77.6736 10.0555C78.041 9.93281 78.4122 9.81424 78.7815 9.6993L78.9823 9.63729C79.3473 9.52509 79.7139 9.41728 80.083 9.3115L80.2799 9.25675C80.6556 9.14801 81.0367 9.04783 81.4209 8.95421L81.5089 8.93135C81.8851 8.83511 82.2624 8.74182 82.6408 8.65146L82.7849 8.61706C83.1672 8.52819 83.5499 8.44272 83.9351 8.3604L84.047 8.33507L82.9378 8.56803C73.2439 10.5963 64.231 15.0686 56.7578 21.5587C56.5252 21.7596 56.2953 21.9629 56.0678 22.1687C55.9379 22.285 55.8081 22.4013 55.6795 22.5198C55.4411 22.7374 55.2048 22.9573 54.9707 23.1797C54.8602 23.2838 54.7485 23.388 54.6392 23.493C54.3082 23.8108 53.9802 24.1329 53.6554 24.4592L53.6294 24.4848C53.2979 24.8202 52.9702 25.159 52.6463 25.5012C52.543 25.609 52.4399 25.7192 52.3425 25.8276C52.1211 26.0666 51.9009 26.3054 51.6834 26.5475L51.337 26.9377C51.1318 27.167 50.9314 27.3978 50.7357 27.6299C50.6228 27.7628 50.5099 27.896 50.3971 28.0296C50.1896 28.2798 49.9839 28.5297 49.7801 28.7794C49.6846 28.8956 49.589 29.0118 49.4948 29.1302C49.2005 29.5036 48.9088 29.8699 48.6242 30.2492C39.163 42.7003 34.6308 59.055 37.2611 76.3591C39.8915 93.6632 49.2019 108.639 62.1128 118.865C75.0238 129.091 91.5501 134.566 108.623 132.864C108.973 132.828 109.323 132.792 109.672 132.755L109.94 132.727C110.268 132.688 110.593 132.646 110.918 132.602L110.986 132.595C111.33 132.548 111.673 132.496 112.015 132.442L112.276 132.401C112.583 132.352 112.888 132.301 113.192 132.248L113.313 132.226C113.65 132.166 113.987 132.102 114.324 132.038L114.577 131.987C114.869 131.929 115.159 131.869 115.449 131.805L115.604 131.773C115.939 131.701 116.264 131.626 116.592 131.548L116.836 131.49C117.116 131.422 117.395 131.352 117.675 131.282L117.852 131.237C118.178 131.153 118.501 131.066 118.822 130.976L119.052 130.912C119.323 130.835 119.595 130.756 119.865 130.677L120.062 130.619C120.381 130.523 120.697 130.425 121.012 130.323L121.227 130.254C121.492 130.169 121.757 130.081 122.02 129.991L122.23 129.92C122.542 129.812 122.852 129.704 123.161 129.595L123.356 129.523C123.617 129.428 123.878 129.33 124.137 129.231L124.357 129.147C124.663 129.029 124.967 128.908 125.271 128.785L125.442 128.715C125.701 128.611 125.959 128.503 126.215 128.39L126.435 128.296C126.735 128.167 127.033 128.035 127.33 127.9L127.474 127.834C127.733 127.717 127.99 127.596 128.246 127.475L128.464 127.371C128.757 127.226 129.051 127.087 129.342 126.937L129.451 126.881C129.711 126.751 129.971 126.618 130.228 126.482L130.445 126.369C130.733 126.216 131.02 126.063 131.305 125.907L131.373 125.869C131.639 125.722 131.903 125.574 132.165 125.424L132.381 125.3C132.663 125.137 132.945 124.973 133.223 124.806L133.237 124.797C133.512 124.632 133.784 124.464 134.056 124.295L134.271 124.159C134.533 123.994 134.793 123.828 135.051 123.66L135.095 123.632C135.365 123.455 135.631 123.276 135.901 123.091L136.107 122.955C136.348 122.791 136.589 122.624 136.828 122.455L136.912 122.396C137.174 122.21 137.435 122.022 137.693 121.832L137.889 121.688C138.115 121.52 138.34 121.352 138.563 121.181L138.677 121.094C138.931 120.899 139.182 120.703 139.431 120.505L139.617 120.356C139.828 120.185 140.039 120.012 140.25 119.833L140.379 119.726C140.625 119.524 140.868 119.318 141.109 119.111C144.228 116.435 147.054 113.436 149.54 110.165C153.017 105.583 155.805 100.52 157.815 95.134C157.949 94.7795 158.081 94.4255 158.212 94.0722C158.209 94.0965 158.197 94.1241 158.186 94.1526Z" fill="#F0F2F7"/>
<path d="M161.276 63.2822C158.667 46.1427 149.452 31.3101 136.661 21.1815C123.87 11.0529 107.504 5.63262 90.595 7.31532C88.3572 7.53639 86.1334 7.88192 83.934 8.3503C83.5487 8.43262 83.166 8.51809 82.7837 8.60696L82.6396 8.64136C82.2609 8.73556 81.8857 8.83017 81.5139 8.92518L81.4258 8.94804C81.0423 9.04732 80.6617 9.15201 80.2823 9.25885L80.0854 9.3136C79.7163 9.41938 79.3497 9.52718 78.9847 9.63939L78.7839 9.7014C78.4123 9.81657 78.0411 9.93514 77.676 10.0576L77.5653 10.0943C77.2046 10.2148 76.8451 10.339 76.4867 10.4669L76.3685 10.5089C76.005 10.6396 75.6446 10.7735 75.2871 10.9104L75.0875 10.9837C74.7353 11.1201 74.3853 11.259 74.0374 11.4002L73.8553 11.4763C73.4965 11.6233 73.1398 11.7746 72.785 11.9304L72.7193 11.9589C72.3726 12.1115 72.027 12.267 71.6824 12.4255L71.5426 12.4903C71.2012 12.6492 70.8616 12.8113 70.5239 12.9767L70.3332 13.0697C69.9992 13.2346 69.6664 13.4029 69.3346 13.5745L69.1739 13.6587C68.8297 13.8384 68.4858 14.0216 68.1456 14.2078L68.1338 14.2147C67.7953 14.4023 67.4587 14.5896 67.124 14.7768L66.9727 14.8633C66.6523 15.049 66.3335 15.2383 66.0162 15.4313L65.8363 15.5402C65.5198 15.7339 65.2052 15.9304 64.8924 16.1297L64.7572 16.2169C64.4394 16.4206 64.1246 16.6266 63.8128 16.835L63.7709 16.8622C63.4496 17.075 63.1412 17.2911 62.8284 17.5099L62.6737 17.6185C62.3736 17.8302 62.0765 18.0443 61.7822 18.2608L61.6153 18.3844C61.3169 18.6052 61.0207 18.8287 60.7267 19.055L60.6208 19.138C60.3305 19.3632 60.0421 19.5913 59.7554 19.8222L59.6824 19.8801C59.391 20.1161 59.1021 20.3548 58.8158 20.5964L58.6644 20.7264C58.3837 20.9628 58.1077 21.2014 57.8366 21.4421L57.6864 21.572C57.4068 21.8189 57.1301 22.069 56.8565 22.3222L56.7813 22.3917C56.514 22.6404 56.2485 22.8912 55.9847 23.1442L55.891 23.2339C55.6246 23.4901 55.3611 23.7499 55.1007 24.0131L54.9568 24.1595C54.7002 24.4147 54.4468 24.6761 54.1968 24.9436L54.0669 25.0816C53.8083 25.3553 53.5516 25.6315 53.2966 25.9102L53.2577 25.9543C53.0091 26.2281 52.7632 26.5062 52.5197 26.7852L52.4174 26.9021C52.1775 27.1792 51.9394 27.4588 51.7031 27.7408L51.5698 27.901C51.338 28.1826 51.1079 28.4659 50.8796 28.7509L50.7703 28.8892C50.5335 29.1892 50.2971 29.4914 50.0632 29.7969C40.6973 42.1306 36.1981 58.3288 38.809 75.4681C41.42 92.6074 50.6331 107.44 63.424 117.569C76.215 127.697 92.5801 133.12 109.489 131.437C126.398 129.755 140.65 121.283 150.023 108.949C150.212 108.701 150.4 108.447 150.585 108.193L150.732 107.993C150.896 107.767 151.06 107.539 151.222 107.311L151.286 107.219C151.466 106.963 151.643 106.707 151.818 106.449L151.954 106.248C152.101 106.029 152.246 105.809 152.39 105.589L152.489 105.442C152.659 105.182 152.826 104.919 152.991 104.654L153.11 104.464C153.247 104.244 153.381 104.024 153.514 103.802C153.55 103.741 153.588 103.68 153.625 103.62C153.784 103.354 153.942 103.085 154.098 102.815L154.194 102.644C154.323 102.418 154.452 102.189 154.581 101.961L154.695 101.756C154.845 101.482 154.994 101.207 155.14 100.929L155.21 100.796C155.336 100.555 155.46 100.313 155.584 100.072L155.695 99.8512C155.837 99.569 155.979 99.2868 156.114 99.0077L156.142 98.9488C156.27 98.6818 156.397 98.4126 156.517 98.1442L156.622 97.9149C156.745 97.645 156.867 97.3752 156.986 97.1035L157.014 97.0412C157.14 96.7515 157.262 96.4603 157.381 96.1676C157.413 96.0912 157.445 96.0147 157.471 95.9377C157.576 95.6861 157.678 95.4331 157.779 95.1788L157.837 95.0357C157.953 94.7426 158.065 94.4475 158.176 94.1513C161.717 84.7507 162.944 74.2089 161.276 63.2822ZM108.653 126.28C77.4306 129.524 48.2634 106.516 43.5081 74.8884C38.7528 43.2606 60.2119 14.9933 91.4347 11.749C122.657 8.50471 151.827 31.5125 156.582 63.1391C161.337 94.7657 139.879 123.035 108.653 126.28Z" fill="white"/>
<path d="M108.652 126.28C77.4297 129.524 48.2625 106.516 43.5072 74.8884C38.7532 43.2617 60.2077 14.9937 91.4338 11.749C122.66 8.50439 151.826 31.5114 156.581 63.1392C161.336 94.7669 139.875 123.036 108.652 126.28Z" fill="white"/>
<g clip-path="url(#clip1_3140_178981)">
<path d="M105.663 126.343C137.465 124.709 160.795 97.7529 157.772 66.1335C154.749 34.5141 126.518 10.2055 94.7165 11.8386C62.9147 13.4717 39.5848 40.4282 42.6077 72.0476C45.6306 103.667 73.8615 127.976 105.663 126.343Z" fill="#FF9B22"/>
<path d="M125.385 60.677C125.798 53.1189 119.665 49.3814 111.555 47.0938L113.132 36.8007L106.766 35.5815L105.228 45.6028C103.555 45.2788 101.842 44.9857 100.132 44.6923L101.681 34.6056L95.3151 33.3827L93.7383 43.6722C92.3557 43.434 90.9953 43.2018 89.6762 42.9459L89.6803 42.9133L80.897 41.2249L79.873 47.9153C79.873 47.9153 84.5909 48.7302 84.4999 48.7996C87.079 49.2965 87.6909 50.9299 87.7412 52.2506L83.424 80.4441C83.1871 81.2186 82.5152 82.4002 80.7104 82.0578C80.7837 82.1439 76.0831 81.1699 76.0831 81.1699L73.6719 88.4063L81.9613 89.9978C83.5016 90.2963 85.0147 90.6141 86.5003 90.9082L84.9096 101.317L91.272 102.537L92.8485 92.2435C94.5906 92.6107 96.2792 92.9483 97.9299 93.2662L96.3565 103.516L102.722 104.735L104.315 94.3479C115.116 95.7997 123.014 94.585 125.46 84.873C127.432 77.0551 124.168 72.7675 118.31 70.1665C122.288 69.0273 125.093 66.2115 125.385 60.677ZM113.064 81.2233C111.88 89.0043 98.473 85.5181 94.1555 84.6934L96.2728 70.9026C100.591 71.7345 114.31 73.1119 113.064 81.2233ZM113.084 61.1972C112 68.2755 100.834 65.2782 97.2424 64.5889L99.1573 52.085C102.749 52.7743 114.216 53.8144 113.084 61.1972Z" fill="white"/>
</g>
</g>
<g clip-path="url(#clip2_3140_178981)">
<path d="M14.218 100.386L14.2575 100.414C14.4011 100.516 14.5459 100.618 14.692 100.718L14.7691 100.771C14.8945 100.856 15.0199 100.941 15.1453 101.028L15.2556 101.101C15.4036 101.198 15.5524 101.294 15.702 101.389L15.7697 101.432C15.9014 101.515 16.0343 101.596 16.1672 101.678L16.2832 101.747C16.4357 101.839 16.5889 101.93 16.7427 102.02L16.7923 102.048C16.9327 102.129 17.0738 102.209 17.2155 102.288L17.3358 102.352C17.4926 102.438 17.6493 102.524 17.8079 102.61L17.8336 102.623C17.9849 102.703 18.1369 102.781 18.2894 102.858L18.4148 102.923C18.5734 103.002 18.7321 103.08 18.8919 103.158L18.9001 103.162C19.0618 103.24 19.2255 103.316 19.3891 103.391L19.5145 103.448C19.667 103.517 19.82 103.585 19.9734 103.652L20.0129 103.67C20.1778 103.741 20.3439 103.811 20.5101 103.88L20.6355 103.931C20.7841 103.996 20.9339 104.052 21.0838 104.11L21.1464 104.136C21.3145 104.2 21.4831 104.264 21.6518 104.329L21.7772 104.375C21.9245 104.428 22.0718 104.481 22.2204 104.532L22.3032 104.561C22.4729 104.619 22.6438 104.676 22.816 104.731L22.9414 104.771C23.0881 104.819 23.2355 104.864 23.3834 104.909L23.4812 104.939C23.6543 104.99 23.8279 105.041 24.0022 105.09L24.1276 105.124C24.2749 105.164 24.4235 105.204 24.5715 105.243L24.6825 105.272C24.858 105.317 25.0342 105.36 25.211 105.401L25.3301 105.428C25.4793 105.463 25.629 105.497 25.779 105.53L25.9006 105.556C26.0793 105.595 26.258 105.632 26.4379 105.667L26.5489 105.689C26.7013 105.718 26.8549 105.746 27.0078 105.774L27.137 105.796C27.318 105.828 27.5 105.858 27.6831 105.886L27.7827 105.901C27.9395 105.925 28.0966 105.948 28.2542 105.969L28.3909 105.988C28.5752 106.013 28.7595 106.036 28.9451 106.057L29.0316 106.066C29.194 106.085 29.3564 106.101 29.5194 106.118L29.6611 106.131C29.8492 106.148 30.0373 106.164 30.2254 106.178L30.2924 106.183C30.4626 106.195 30.6327 106.206 30.8028 106.216L30.9482 106.224C31.1363 106.234 31.3294 106.243 31.5206 106.25H31.5583C31.7388 106.255 31.9196 106.26 32.1006 106.263H32.2492C32.4423 106.263 32.636 106.268 32.8297 106.263C42.276 106.221 51.0114 102.168 57.5028 95.6474C63.9943 89.1269 68.2394 80.1434 68.6971 70.2362C69.1547 60.329 65.7404 51.3764 59.8508 44.9113C59.6733 44.7181 59.4928 44.5249 59.3103 44.3316C59.252 44.2704 59.1931 44.2105 59.1342 44.1506C59.0088 44.0218 58.8819 43.893 58.7536 43.7642C58.6846 43.6955 58.6152 43.627 58.5454 43.5587C58.4234 43.4393 58.3005 43.321 58.1768 43.2038L57.9649 43.0041C57.832 42.8804 57.6978 42.7587 57.563 42.637C57.5003 42.5816 57.4376 42.5255 57.3781 42.4708C57.1812 42.296 56.9825 42.1242 56.7818 41.9555L56.7662 41.9426C56.5701 41.7777 56.3722 41.6154 56.1724 41.4556C56.1066 41.4028 56.0395 41.3507 55.9731 41.2985C55.8318 41.1873 55.6899 41.0771 55.5474 40.968C55.4702 40.9088 55.3925 40.8508 55.3148 40.7928C55.1781 40.6902 55.0406 40.5891 54.9022 40.4895C54.8558 40.456 54.8107 40.4212 54.7637 40.3877L57.2545 42.1674C59.1 43.487 60.8049 45.0029 62.341 46.6898C64.5296 49.0935 66.3602 51.8164 67.7736 54.7702L67.7309 54.6794L67.7447 54.7084L67.7585 54.7367L67.7861 54.7947C67.7949 54.8115 67.8055 54.8347 67.8143 54.852L67.8281 54.881L67.8557 54.9384L67.8833 54.9957L67.8977 55.0247L67.9253 55.082L67.9391 55.111L67.9667 55.1683L67.9805 55.1973C67.9892 55.2147 68.0005 55.2372 68.0087 55.2546C70.4601 60.338 71.7202 66.1898 71.4318 72.4256C70.9785 82.2381 66.7767 91.1385 60.3486 97.5965C53.9204 104.054 45.266 108.067 35.9112 108.11C34.695 108.116 33.4794 108.054 32.2698 107.923L31.6479 107.859C31.7934 107.875 31.9397 107.89 32.0868 107.903C26.3658 107.361 21.1276 105.327 16.7095 102.17L14.218 100.386Z" fill="#DFE3EB"/>
<path d="M3.48923 87.3473C3.56697 87.5076 3.64534 87.6693 3.72559 87.8258L3.76509 87.9031C3.83489 88.0401 3.90552 88.1767 3.97699 88.3128C3.99831 88.3547 4.02025 88.3959 4.03969 88.4371C4.12328 88.5951 4.20687 88.7521 4.29047 88.908L4.30928 88.9414C4.38953 89.0877 4.47166 89.2326 4.55442 89.3775L4.62527 89.5005C4.70865 89.6448 4.79329 89.7891 4.87605 89.9321L4.89485 89.9637C4.98639 90.1163 5.07855 90.267 5.1726 90.4146L5.24595 90.5324C5.32745 90.6613 5.40895 90.7901 5.49171 90.9189L5.53748 90.9897C5.63361 91.1375 5.73058 91.2841 5.82838 91.4297L5.90237 91.5385C5.9845 91.6596 6.06789 91.7807 6.15315 91.9005L6.21585 91.9914C6.31616 92.1343 6.41835 92.2767 6.52055 92.4178C6.54437 92.45 6.56819 92.4822 6.59139 92.5137C6.67728 92.631 6.76318 92.7469 6.85032 92.8629L6.92618 92.9633C7.03234 93.1025 7.13893 93.2407 7.24593 93.3781L7.30862 93.4548C7.40016 93.5707 7.49232 93.686 7.58511 93.8007L7.671 93.9063C7.78135 94.0416 7.89294 94.1758 8.00579 94.3089L8.04655 94.3572C8.14811 94.4764 8.25093 94.5949 8.35376 94.7128L8.44529 94.8171C8.56128 94.9459 8.67852 95.0806 8.79638 95.21C14.6308 101.613 22.9166 105.553 32.2726 105.511C41.6287 105.47 50.2812 101.453 56.7094 94.9968C63.1375 88.5402 67.3457 79.6423 67.7989 69.8291C68.2522 60.016 64.8711 51.1497 59.0373 44.7465C58.8931 44.588 58.7464 44.4315 58.5984 44.2763L58.5307 44.2048C58.3894 44.0575 58.2473 43.9113 58.1044 43.7661L58.0222 43.6837C57.8772 43.539 57.7309 43.3953 57.5834 43.2528L57.5207 43.1929C57.3715 43.0499 57.221 42.9075 57.0693 42.7677L57.0454 42.7452C56.8904 42.6026 56.7341 42.462 56.5765 42.3233L56.4975 42.2531C56.3449 42.1191 56.1913 41.9866 56.0367 41.8557L55.9495 41.7816C55.7915 41.6498 55.6325 41.5188 55.4724 41.3887L55.416 41.3436C55.2572 41.2148 55.0975 41.089 54.937 40.9661L54.8919 40.9314C54.7276 40.8025 54.5619 40.6778 54.3947 40.5571L54.305 40.4927C54.1416 40.3729 53.9769 40.2546 53.811 40.1378L53.7207 40.0734C53.5502 39.9545 53.3784 39.8368 53.2054 39.7204L53.1621 39.6921C52.992 39.5787 52.821 39.4671 52.6492 39.3571L52.5865 39.3166C52.4127 39.2058 52.2378 39.0971 52.0618 38.9906L51.9634 38.9307C51.7895 38.826 51.6146 38.7227 51.4386 38.6209L51.3471 38.5668C51.1634 38.4618 50.9797 38.3581 50.7941 38.257L50.7696 38.2441C50.5874 38.1445 50.4033 38.0468 50.2173 37.951L50.1383 37.9098C49.9556 37.8158 49.7722 37.7234 49.5878 37.6328L49.4831 37.5819C49.2988 37.4926 49.1134 37.4046 48.927 37.3179L48.8393 37.2786C48.6457 37.1897 48.4508 37.1038 48.2543 37.0209L48.2474 37.0177C48.0505 36.9327 47.8518 36.8496 47.6531 36.7684L47.5603 36.7304C47.3688 36.6531 47.177 36.5778 46.9847 36.5043L46.875 36.4631C46.6807 36.3897 46.4855 36.3182 46.2894 36.2486L46.2092 36.2203C46.0119 36.1511 45.8138 36.0837 45.6148 36.018L45.5772 36.0058C45.3745 35.9397 45.1705 35.8752 44.9653 35.8125L44.8612 35.7803C44.664 35.7194 44.4644 35.6605 44.2625 35.6039L44.1503 35.5729C43.9463 35.5171 43.7413 35.4628 43.5352 35.41L43.4681 35.3932C43.265 35.3426 43.061 35.2936 42.8562 35.2464L42.7935 35.2322C42.5854 35.1845 42.3754 35.1394 42.1666 35.0963L42.0531 35.0731C41.8468 35.0312 41.6399 34.9919 41.4318 34.9539L41.3208 34.9346C41.1089 34.8953 40.8945 34.8612 40.6788 34.8309L40.6293 34.8232C40.4178 34.791 40.2059 34.7605 39.9936 34.7317L39.9127 34.7208C39.6983 34.6931 39.4839 34.6673 39.2682 34.6435L39.2055 34.6357L39.8262 34.7021C45.2501 35.2776 50.4402 37.2704 54.9019 40.4908C55.0407 40.5904 55.1782 40.6915 55.3144 40.7942C55.3922 40.8521 55.4699 40.9101 55.547 40.9694C55.69 41.078 55.8319 41.1882 55.9727 41.2998C56.0392 41.352 56.1063 41.4041 56.1721 41.457C56.3715 41.6167 56.5694 41.779 56.7658 41.9439L56.7815 41.9568C56.9821 42.1264 57.1809 42.2982 57.3777 42.4721C57.4404 42.5268 57.5031 42.5829 57.5627 42.6383C57.6975 42.76 57.8316 42.8818 57.9646 43.0054L58.1765 43.2051C58.3019 43.3223 58.4247 43.4406 58.5451 43.56C58.6145 43.6283 58.6839 43.6968 58.7533 43.7655C58.8812 43.8943 59.008 44.0231 59.1338 44.152C59.1928 44.2119 59.2517 44.2718 59.31 44.333C59.4924 44.5262 59.673 44.7156 59.8504 44.9127C65.74 51.3764 69.1525 60.329 68.6967 70.2362C68.2409 80.1434 63.9946 89.1295 57.5063 95.6493C51.0179 102.169 42.2794 106.223 32.8331 106.264C32.6394 106.264 32.4457 106.264 32.2526 106.264H32.104C31.9226 106.261 31.7418 106.256 31.5617 106.25H31.5241C31.3328 106.244 31.1422 106.235 30.9517 106.224L30.8062 106.217C30.6357 106.207 30.4656 106.196 30.2959 106.184L30.2288 106.179C30.0407 106.165 29.8526 106.148 29.6645 106.132L29.5228 106.118C29.3598 106.102 29.1974 106.085 29.0351 106.067L28.9485 106.058C28.7604 106.036 28.5786 106.013 28.3943 105.989L28.2576 105.97C28.1005 105.948 27.9433 105.925 27.7862 105.902L27.6865 105.887C27.5034 105.859 27.3214 105.829 27.1404 105.797L27.0113 105.774C26.8583 105.747 26.7047 105.718 26.5523 105.689L26.4414 105.668C26.2614 105.633 26.0827 105.596 25.9041 105.557L25.7824 105.531C25.6324 105.498 25.4827 105.464 25.3335 105.429L25.2144 105.401C25.0376 105.359 24.8614 105.316 24.6859 105.272L24.5749 105.243C24.4269 105.205 24.2784 105.165 24.131 105.124L24.0056 105.09C23.8313 105.041 23.6577 104.991 23.4846 104.939L23.3868 104.91C23.2389 104.867 23.0915 104.821 22.9448 104.772L22.8194 104.732C22.6477 104.677 22.4767 104.62 22.3066 104.561L22.2238 104.532C22.0752 104.481 21.9279 104.429 21.7806 104.375L21.6552 104.329C21.4865 104.265 21.3179 104.204 21.1499 104.136L21.0872 104.111C20.9373 104.053 20.7875 103.993 20.6389 103.932L20.5135 103.881C20.3474 103.812 20.1812 103.742 20.0163 103.671L19.9768 103.653C19.823 103.586 19.67 103.518 19.5179 103.449L19.3925 103.392C19.2289 103.316 19.0653 103.24 18.9035 103.162L18.8953 103.158C18.7355 103.081 18.5769 103.003 18.4182 102.923L18.2928 102.859C18.1399 102.782 17.9879 102.703 17.837 102.624L17.8113 102.61C17.6533 102.527 17.4979 102.441 17.3392 102.353L17.2189 102.288C17.0772 102.21 16.9361 102.13 16.7957 102.049L16.7461 102.02C16.5919 101.931 16.4387 101.84 16.2866 101.748L16.1706 101.678C16.0377 101.597 15.9048 101.515 15.7731 101.432L15.7054 101.39C15.5554 101.295 15.4066 101.199 15.259 101.102L15.1487 101.029C15.0233 100.945 14.8979 100.86 14.7725 100.771L14.6954 100.719C14.5493 100.619 14.4045 100.517 14.2609 100.414C12.4005 99.0887 10.6823 97.5639 9.13494 95.8657C6.97021 93.4872 5.15545 90.7964 3.74816 87.8787C3.65453 87.6867 3.56195 87.495 3.47041 87.3035C3.47355 87.317 3.4817 87.3318 3.48923 87.3473Z" fill="#F0F2F7"/>
<path d="M0.0407562 70.1287C0.494041 60.3156 4.69651 51.4158 11.1247 44.9579C17.5528 38.4999 26.2066 34.4864 35.562 34.4445C36.8001 34.4381 38.0375 34.5026 39.2686 34.6378C39.4843 34.6616 39.6987 34.6874 39.9131 34.7151L39.994 34.726C40.2067 34.7569 40.4176 34.7883 40.6266 34.8201L40.6761 34.8278C40.8918 34.8613 41.1062 34.898 41.32 34.936L41.4309 34.9553C41.6391 34.9933 41.846 35.0326 42.0523 35.0745L42.1657 35.0977C42.3758 35.1408 42.5858 35.1859 42.7927 35.2336L42.8554 35.2478C43.0598 35.2946 43.2637 35.3435 43.4673 35.3946L43.5344 35.4114C43.7408 35.4637 43.9459 35.5181 44.1494 35.5743L44.2629 35.6039C44.4635 35.6602 44.6631 35.718 44.8616 35.7772L44.9657 35.8094C45.1705 35.8713 45.3745 35.9357 45.5776 36.0027L45.6152 36.0149C45.8138 36.0806 46.0119 36.148 46.2096 36.2171L46.2898 36.2455C46.4859 36.3151 46.681 36.3866 46.8754 36.46L46.9851 36.5012C47.1774 36.5746 47.3692 36.65 47.5607 36.7273L47.6535 36.7653C47.8522 36.8465 48.0509 36.9295 48.2478 37.0146L48.2547 37.0178C48.4507 37.1037 48.6457 37.1896 48.8396 37.2754L48.9274 37.3154C49.1134 37.4013 49.2988 37.4893 49.4835 37.5795L49.5882 37.6303C49.7726 37.721 49.956 37.8133 50.1387 37.9073L50.2177 37.9485C50.4033 38.0447 50.5874 38.1424 50.77 38.2416L50.7945 38.2545C50.9826 38.3556 51.1638 38.4593 51.3475 38.5643L51.4384 38.6165C51.6148 38.7183 51.7897 38.8215 51.9631 38.9263L52.0616 38.9862C52.2375 39.0931 52.4124 39.2018 52.5863 39.3121L52.649 39.3527C52.8208 39.4627 52.9917 39.5743 53.1619 39.6877L53.2051 39.716C53.3782 39.8319 53.5499 39.9496 53.7205 40.069L53.8108 40.1334C53.9779 40.2502 54.1426 40.3685 54.3048 40.4883L54.3945 40.5527C54.5616 40.6755 54.7274 40.8003 54.8916 40.927L54.9368 40.9617C55.0973 41.0863 55.2569 41.2121 55.4158 41.3392L55.4722 41.3843C55.6327 41.5131 55.7917 41.6441 55.9493 41.7772L56.0364 41.8513C56.1915 41.9801 56.3451 42.1126 56.4973 42.2487L56.5762 42.3189C56.7334 42.458 56.8897 42.5987 57.0452 42.7408L57.069 42.7633C57.2208 42.9031 57.3712 43.0455 57.5204 43.1885L57.5831 43.2484C57.7303 43.3905 57.8766 43.5341 58.022 43.6793L58.1041 43.7617C58.2471 43.9069 58.3892 44.0531 58.5305 44.2004L58.5982 44.2719C58.7449 44.4271 58.8916 44.5836 59.037 44.7421C64.8677 51.1453 68.2533 60.0116 67.7987 69.8247C67.3442 79.6379 63.143 88.5377 56.7148 94.9956C50.2867 101.454 41.6334 105.468 32.2781 105.51C22.9227 105.552 14.6362 101.612 8.8018 95.2088C8.68393 95.08 8.56668 94.948 8.4507 94.8159L8.35917 94.7116C8.25635 94.5937 8.15353 94.4752 8.05196 94.356L8.01121 94.3077C7.89836 94.1742 7.78676 94.04 7.67641 93.9051L7.59052 93.7995C7.49773 93.6848 7.40557 93.5695 7.31403 93.4536L7.25134 93.377C7.14392 93.24 7.03734 93.1017 6.9316 92.9621L6.85573 92.8617C6.76859 92.7457 6.68269 92.6298 6.5968 92.5125C6.5736 92.4803 6.54978 92.4481 6.52595 92.4166C6.42376 92.2755 6.32157 92.1332 6.22125 91.9902L6.15856 91.8993C6.07517 91.7795 5.99179 91.6584 5.90778 91.5373L5.8338 91.4285C5.736 91.2829 5.63903 91.1363 5.54289 90.9886L5.49713 90.9177C5.41437 90.7889 5.33286 90.6601 5.25136 90.5312L5.17801 90.4134C5.08396 90.2626 4.98992 90.1119 4.90027 89.9625L4.88145 89.9309C4.79619 89.7879 4.71155 89.6436 4.63068 89.4994L4.55983 89.3763C4.47707 89.2314 4.39494 89.0865 4.31469 88.9403L4.29588 88.9068C4.2102 88.7509 4.12661 88.5939 4.0451 88.4359C4.02316 88.3947 4.00122 88.3535 3.98241 88.3116C3.91093 88.1759 3.8403 88.0393 3.7705 87.9019L3.731 87.8246C3.65075 87.6662 3.57238 87.5064 3.49464 87.3461C1.02068 82.2549 -0.250778 76.3851 0.0407562 70.1287ZM32.4423 102.554C49.7249 102.554 64.3881 87.8781 65.1925 69.7732C65.9968 51.6683 52.6371 36.9927 35.3545 36.9927C18.0719 36.9927 3.40749 51.6689 2.60311 69.7732C1.79873 87.8775 15.1578 102.554 32.4423 102.554Z" fill="white"/>
<g filter="url(#filter0_b_3140_178981)">
<path d="M32.4417 102.554C49.7243 102.554 64.3875 87.8781 65.1919 69.7732C65.9956 51.6689 52.6384 36.9927 35.3539 36.9927C18.0694 36.9927 3.40689 51.6683 2.60251 69.7732C1.79813 87.8781 15.1591 102.554 32.4417 102.554Z" fill="url(#paint0_linear_3140_178981)"/>
<path d="M65.2617 69.7763C64.4558 87.9156 49.7646 102.624 32.4417 102.624C15.116 102.624 1.72669 87.9114 2.53269 69.7701C3.3386 51.6308 18.0292 36.9228 35.3539 36.9228C52.6815 36.9228 66.0671 51.6356 65.2617 69.7763Z" stroke="#00B083" stroke-width="0.139785"/>
</g>
<g filter="url(#filter1_d_3140_178981)">
<path d="M14.4892 70.4567C14.5604 67.5411 16.918 65.0552 19.755 64.9044L24.8919 64.6312C27.7289 64.4804 29.971 66.7217 29.8997 69.6373L29.5988 81.9554C29.5275 84.8711 27.1699 87.3569 24.3329 87.5078L19.1961 87.7809C16.3591 87.9318 14.117 85.6905 14.1882 82.7748L14.4892 70.4567Z" fill="white"/>
</g>
<g filter="url(#filter2_d_3140_178981)">
<path fill-rule="evenodd" clip-rule="evenodd" d="M33.6254 57.137C33.6966 54.2214 36.0542 51.7355 38.8912 51.5846L44.0281 51.3115C46.8651 51.1607 49.1072 53.402 49.0359 56.3176L48.434 80.9539C48.3628 83.8695 46.0052 86.3554 43.1682 86.5062L38.0314 86.7794C35.1944 86.9302 32.9523 84.6889 33.0235 81.7733L33.6254 57.137Z" fill="white"/>
</g>
</g>
<g filter="url(#filter3_b_3140_178981)">
<rect x="115.067" y="7" width="27.6856" height="27.625" rx="13.8125" fill="#05183D" fill-opacity="0.25"/>
</g>
<g style="mix-blend-mode:hard-light" filter="url(#filter4_b_3140_178981)">
<rect x="115.067" y="7" width="27.6856" height="27.625" rx="13.8125" fill="white" fill-opacity="0.25"/>
<g style="mix-blend-mode:multiply" opacity="0.75">
<path fill-rule="evenodd" clip-rule="evenodd" d="M127.18 17.0716C127.18 18.1841 126.276 19.0859 125.161 19.0859C124.046 19.0859 123.143 18.1841 123.143 17.0716C123.143 15.9591 124.046 15.0573 125.161 15.0573C126.276 15.0573 127.18 15.9591 127.18 17.0716Z" fill="#121D33"/>
<path fill-rule="evenodd" clip-rule="evenodd" d="M134.678 24.5533C134.678 25.6658 133.774 26.5677 132.659 26.5677C131.545 26.5677 130.641 25.6658 130.641 24.5533C130.641 23.4409 131.545 22.539 132.659 22.539C133.774 22.539 134.678 23.4409 134.678 24.5533Z" fill="#121D33"/>
<path fill-rule="evenodd" clip-rule="evenodd" d="M134.11 16.2342L133.499 15.6237C132.992 15.118 132.17 15.118 131.663 15.6237L123.71 23.5594C123.204 24.0651 123.204 24.8849 123.71 25.3906L124.322 26.0011C124.829 26.5068 125.651 26.5068 126.157 26.0011L134.11 18.0655C134.617 17.5598 134.617 16.7399 134.11 16.2342Z" fill="#121D33"/>
</g>
<rect x="114.997" y="6.93011" width="27.8253" height="27.7648" rx="13.8824" stroke="#B8B9BD" stroke-width="0.139785"/>
</g>
<g filter="url(#filter5_b_3140_178981)">
<rect x="48.2974" y="81.75" width="27.6856" height="27.625" rx="13.8125" fill="#05183D" fill-opacity="0.25"/>
</g>
<g style="mix-blend-mode:hard-light" filter="url(#filter6_b_3140_178981)">
<rect x="48.2974" y="81.75" width="27.6856" height="27.625" rx="13.8125" fill="white" fill-opacity="0.25"/>
<g style="mix-blend-mode:multiply" opacity="0.75">
<path fill-rule="evenodd" clip-rule="evenodd" d="M60.4103 91.8216C60.4103 92.9341 59.5065 93.8359 58.3915 93.8359C57.2766 93.8359 56.3728 92.9341 56.3728 91.8216C56.3728 90.7091 57.2766 89.8073 58.3915 89.8073C59.5065 89.8073 60.4103 90.7091 60.4103 91.8216Z" fill="#121D33"/>
<path fill-rule="evenodd" clip-rule="evenodd" d="M67.9085 99.3033C67.9085 100.416 67.0046 101.318 65.8897 101.318C64.7748 101.318 63.871 100.416 63.871 99.3033C63.871 98.1909 64.7748 97.289 65.8897 97.289C67.0046 97.289 67.9085 98.1909 67.9085 99.3033Z" fill="#121D33"/>
<path fill-rule="evenodd" clip-rule="evenodd" d="M67.3407 90.9842L66.7289 90.3737C66.2221 89.868 65.4004 89.868 64.8936 90.3737L56.9406 98.3094C56.4338 98.8151 56.4338 99.6349 56.9406 100.141L57.5523 100.751C58.0592 101.257 58.8808 101.257 59.3877 100.751L67.3407 92.8155C67.8475 92.3098 67.8475 91.4899 67.3407 90.9842Z" fill="#121D33"/>
</g>
<rect x="48.2275" y="81.6801" width="27.8253" height="27.7648" rx="13.8824" stroke="#B8B9BD" stroke-width="0.139785"/>
</g>
<g filter="url(#filter7_b_3140_178981)">
<rect x="125.016" y="109.043" width="22.3656" height="22.3656" rx="11.1828" fill="#05183D" fill-opacity="0.25"/>
</g>
<g style="mix-blend-mode:hard-light" filter="url(#filter8_b_3140_178981)">
<rect x="125.016" y="109.043" width="22.3656" height="22.3656" rx="11.1828" fill="white" fill-opacity="0.25"/>
<g style="mix-blend-mode:multiply" opacity="0.75">
<path fill-rule="evenodd" clip-rule="evenodd" d="M134.801 117.197C134.801 118.098 134.071 118.828 133.17 118.828C132.269 118.828 131.539 118.098 131.539 117.197C131.539 116.296 132.269 115.566 133.17 115.566C134.071 115.566 134.801 116.296 134.801 117.197Z" fill="#121D33"/>
<path fill-rule="evenodd" clip-rule="evenodd" d="M140.858 123.254C140.858 124.155 140.128 124.885 139.227 124.885C138.327 124.885 137.597 124.155 137.597 123.254C137.597 122.354 138.327 121.624 139.227 121.624C140.128 121.624 140.858 122.354 140.858 123.254Z" fill="#121D33"/>
<path fill-rule="evenodd" clip-rule="evenodd" d="M140.4 116.519L139.905 116.025C139.496 115.615 138.832 115.615 138.423 116.025L131.998 122.45C131.589 122.859 131.589 123.523 131.998 123.932L132.492 124.427C132.902 124.836 133.565 124.836 133.975 124.427L140.4 118.002C140.809 117.592 140.809 116.929 140.4 116.519Z" fill="#121D33"/>
</g>
<rect x="124.946" y="108.973" width="22.5054" height="22.5054" rx="11.2527" stroke="#B8B9BD" stroke-width="0.139785"/>
</g>
<defs>
<filter id="filter0_b_3140_178981" x="-19.9374" y="14.4873" width="107.669" height="110.572" filterUnits="userSpaceOnUse" color-interpolation-filters="sRGB">
<feFlood flood-opacity="0" result="BackgroundImageFix"/>
<feGaussianBlur in="BackgroundImageFix" stdDeviation="11.1828"/>
<feComposite in2="SourceAlpha" operator="in" result="effect1_backgroundBlur_3140_178981"/>
<feBlend mode="normal" in="SourceGraphic" in2="effect1_backgroundBlur_3140_178981" result="shape"/>
</filter>
<filter id="filter1_d_3140_178981" x="13.4876" y="64.624" width="18.5105" height="25.9598" filterUnits="userSpaceOnUse" color-interpolation-filters="sRGB">
<feFlood flood-opacity="0" result="BackgroundImageFix"/>
<feColorMatrix in="SourceAlpha" type="matrix" values="0 0 0 0 0 0 0 0 0 0 0 0 0 0 0 0 0 0 127 0" result="hardAlpha"/>
<feOffset dx="0.698925" dy="1.39785"/>
<feGaussianBlur stdDeviation="0.698925"/>
<feComposite in2="hardAlpha" operator="out"/>
<feColorMatrix type="matrix" values="0 0 0 0 0 0 0 0 0 0 0 0 0 0 0 0 0 0 0.25 0"/>
<feBlend mode="normal" in2="BackgroundImageFix" result="effect1_dropShadow_3140_178981"/>
<feBlend mode="normal" in="SourceGraphic" in2="effect1_dropShadow_3140_178981" result="shape"/>
</filter>
<filter id="filter2_d_3140_178981" x="32.323" y="51.3043" width="18.8113" height="38.2779" filterUnits="userSpaceOnUse" color-interpolation-filters="sRGB">
<feFlood flood-opacity="0" result="BackgroundImageFix"/>
<feColorMatrix in="SourceAlpha" type="matrix" values="0 0 0 0 0 0 0 0 0 0 0 0 0 0 0 0 0 0 127 0" result="hardAlpha"/>
<feOffset dx="0.698925" dy="1.39785"/>
<feGaussianBlur stdDeviation="0.698925"/>
<feComposite in2="hardAlpha" operator="out"/>
<feColorMatrix type="matrix" values="0 0 0 0 0 0 0 0 0 0 0 0 0 0 0 0 0 0 0.25 0"/>
<feBlend mode="normal" in2="BackgroundImageFix" result="effect1_dropShadow_3140_178981"/>
<feBlend mode="normal" in="SourceGraphic" in2="effect1_dropShadow_3140_178981" result="shape"/>
</filter>
<filter id="filter3_b_3140_178981" x="108.078" y="0.0107532" width="41.664" height="41.6035" filterUnits="userSpaceOnUse" color-interpolation-filters="sRGB">
<feFlood flood-opacity="0" result="BackgroundImageFix"/>
<feGaussianBlur in="BackgroundImageFix" stdDeviation="3.49462"/>
<feComposite in2="SourceAlpha" operator="in" result="effect1_backgroundBlur_3140_178981"/>
<feBlend mode="normal" in="SourceGraphic" in2="effect1_backgroundBlur_3140_178981" result="shape"/>
</filter>
<filter id="filter4_b_3140_178981" x="92.5619" y="-15.5054" width="72.6965" height="72.6357" filterUnits="userSpaceOnUse" color-interpolation-filters="sRGB">
<feFlood flood-opacity="0" result="BackgroundImageFix"/>
<feGaussianBlur in="BackgroundImageFix" stdDeviation="11.1828"/>
<feComposite in2="SourceAlpha" operator="in" result="effect1_backgroundBlur_3140_178981"/>
<feBlend mode="normal" in="SourceGraphic" in2="effect1_backgroundBlur_3140_178981" result="shape"/>
</filter>
<filter id="filter5_b_3140_178981" x="41.3081" y="74.7608" width="41.664" height="41.6035" filterUnits="userSpaceOnUse" color-interpolation-filters="sRGB">
<feFlood flood-opacity="0" result="BackgroundImageFix"/>
<feGaussianBlur in="BackgroundImageFix" stdDeviation="3.49462"/>
<feComposite in2="SourceAlpha" operator="in" result="effect1_backgroundBlur_3140_178981"/>
<feBlend mode="normal" in="SourceGraphic" in2="effect1_backgroundBlur_3140_178981" result="shape"/>
</filter>
<filter id="filter6_b_3140_178981" x="25.7921" y="59.2446" width="72.6963" height="72.6357" filterUnits="userSpaceOnUse" color-interpolation-filters="sRGB">
<feFlood flood-opacity="0" result="BackgroundImageFix"/>
<feGaussianBlur in="BackgroundImageFix" stdDeviation="11.1828"/>
<feComposite in2="SourceAlpha" operator="in" result="effect1_backgroundBlur_3140_178981"/>
<feBlend mode="normal" in="SourceGraphic" in2="effect1_backgroundBlur_3140_178981" result="shape"/>
</filter>
<filter id="filter7_b_3140_178981" x="118.026" y="102.054" width="36.344" height="36.3441" filterUnits="userSpaceOnUse" color-interpolation-filters="sRGB">
<feFlood flood-opacity="0" result="BackgroundImageFix"/>
<feGaussianBlur in="BackgroundImageFix" stdDeviation="3.49462"/>
<feComposite in2="SourceAlpha" operator="in" result="effect1_backgroundBlur_3140_178981"/>
<feBlend mode="normal" in="SourceGraphic" in2="effect1_backgroundBlur_3140_178981" result="shape"/>
</filter>
<filter id="filter8_b_3140_178981" x="102.51" y="86.5376" width="67.3764" height="67.3763" filterUnits="userSpaceOnUse" color-interpolation-filters="sRGB">
<feFlood flood-opacity="0" result="BackgroundImageFix"/>
<feGaussianBlur in="BackgroundImageFix" stdDeviation="11.1828"/>
<feComposite in2="SourceAlpha" operator="in" result="effect1_backgroundBlur_3140_178981"/>
<feBlend mode="normal" in="SourceGraphic" in2="effect1_backgroundBlur_3140_178981" result="shape"/>
</filter>
<linearGradient id="paint0_linear_3140_178981" x1="33.8972" y1="36.9927" x2="53.0926" y2="94.6497" gradientUnits="userSpaceOnUse">
<stop stop-color="#69ECCA"/>
<stop offset="1" stop-color="#00B083"/>
</linearGradient>
<clipPath id="clip0_3140_178981">
<rect width="129.818" height="130" fill="white" transform="translate(25.7188 14.0565) rotate(-5.9322)"/>
</clipPath>
<clipPath id="clip1_3140_178981">
<rect width="115.316" height="115.026" fill="white" transform="matrix(0.998684 -0.051286 0.0951684 0.995461 37.1343 14.7957)"/>
</clipPath>
<clipPath id="clip2_3140_178981">
<rect width="71.4726" height="73.6667" fill="white" transform="matrix(-1 0 0 1 71.4727 34.4445)"/>
</clipPath>
</defs>
</svg>
