<svg fill="none" height="24" viewBox="0 0 24 24" width="24" xmlns="http://www.w3.org/2000/svg"><circle cx="12" cy="12" fill="#d8ebfd" r="12"/><path clip-rule="evenodd" d="m8.25 9.1875c.51777 0 .9375-.41973.9375-.9375s-.41973-.9375-.9375-.9375-.9375.41973-.9375.9375.41973.9375.9375.9375zm0 1.5625c1.38071 0 2.5-1.11929 2.5-2.5s-1.11929-2.5-2.5-2.5-2.5 1.11929-2.5 2.5 1.11929 2.5 2.5 2.5zm9.4993-4.04983-.243-.24306c-.3906-.39053-1.0237-.39053-1.4143 0l-9.63429 9.63429c-.39052.3906-.39052 1.0237 0 1.4143l.24307.243c.39052.3905 1.02369.3905 1.41421 0l9.63431-9.63431c.3905-.39053.3905-1.02369 0-1.41422zm-1.0618 9.04983c0 .5178-.4197.9375-.9375.9375s-.9375-.4197-.9375-.9375.4197-.9375.9375-.9375.9375.4197.9375.9375zm1.5625 0c0 1.3807-1.1193 2.5-2.5 2.5s-2.5-1.1193-2.5-2.5 1.1193-2.5 2.5-2.5 2.5 1.1193 2.5 2.5z" fill="#0c6cf2" fill-rule="evenodd"/></svg>