<svg fill="none" height="32" viewBox="0 0 32 32" width="32" xmlns="http://www.w3.org/2000/svg"><path d="m11.9233 26c.5743 0 1.0398-.4656 1.0398-1.0399v-5.0174c0-.5743.4656-1.0398 1.0399-1.0398h4.0035c.5743 0 1.0399.4655 1.0399 1.0398v5.0174c0 .5743.4655 1.0399 1.0399 1.0399h4.0035c.5743 0 1.0398-.4656 1.0398-1.0399v-11.1233c0-.6418-.2963-1.2476-.8029-1.6417l-7.6835-5.97605c-.3755-.29207-.9014-.29207-1.2769 0l-7.68351 5.97605c-.5066.3941-.80291.9999-.80291 1.6417v11.1233c0 .5743.46557 1.0399 1.03987 1.0399z" fill="#0c6cf2"/></svg>