<svg fill="none" height="24" viewBox="0 0 24 24" width="24" xmlns="http://www.w3.org/2000/svg"><g clip-rule="evenodd" fill="#121d33" fill-rule="evenodd"><path d="m0 4.5c0-2.48528 2.01472-4.5 4.5-4.5h4c.27614 0 .5.223858.5.5s-.22386.5-.5.5h-4c-1.933 0-3.5 1.567-3.5 3.5v4c0 .27614-.223858.5-.5.5s-.5-.22386-.5-.5zm15-4c0-.276142.2239-.5.5-.5h4c2.4853 0 4.5 2.01472 4.5 4.5v4c0 .27614-.2239.5-.5.5s-.5-.22386-.5-.5v-4c0-1.933-1.567-3.5-3.5-3.5h-4c-.2761 0-.5-.223858-.5-.5zm-14.5 14.5c.276142 0 .5.2239.5.5v4c0 1.933 1.567 3.5 3.5 3.5h4c.27614 0 .5.2239.5.5s-.22386.5-.5.5h-4c-2.48528 0-4.5-2.0147-4.5-4.5v-4c0-.2761.223858-.5.5-.5zm23 0c.2761 0 .5.2239.5.5v4c0 2.4853-2.0147 4.5-4.5 4.5h-4c-.2761 0-.5-.2239-.5-.5s.2239-.5.5-.5h4c1.933 0 3.5-1.567 3.5-3.5v-4c0-.2761.2239-.5.5-.5z"/><path d="m5 3c-1.10457 0-2 .89543-2 2v6h8v-8zm3.5 2.5h-3v3h3z"/><path d="m11 13h-8v6c0 1.1046.89543 2 2 2h6zm-2.5 2.5h-3v3h3z"/><path d="m19 3h-6v8h8v-6c0-1.10457-.8954-2-2-2zm-.5 2.5h-3v3h3z"/><path d="m13 13h4v2h2v-2h2v2 1 2h-5v-2h-1v5h-2v-5-1zm3 8v-2h2v2zm3-2h2c0 1.1046-.8954 2-2 2z"/></g></svg>