<svg fill="none" height="250" viewBox="0 0 375 250" width="375" xmlns="http://www.w3.org/2000/svg" xmlns:xlink="http://www.w3.org/1999/xlink"><clipPath id="a"><path d="m70 15h235.66v187.36h-235.66z"/></clipPath><path d="m0 0h375v250h-375z" fill="#fff"/><g clip-path="url(#a)"><g stroke="#dfe3eb"><path d="m304.015 159.093h-61.077v16.067h61.077z" stroke-linecap="round" stroke-linejoin="round" stroke-miterlimit="10" stroke-width="3"/><path d="m304.015 136.773h-61.077v16.068h61.077z" stroke-linecap="round" stroke-linejoin="round" stroke-miterlimit="10" stroke-width="3"/><path d="m304.015 114.453h-61.077v16.068h61.077z" stroke-linecap="round" stroke-linejoin="round" stroke-miterlimit="10" stroke-width="3"/><path d="m239.572 92.1337c1.982.8823 3.377 2.8648 3.377 5.1851v10.8822h61.077v-16.0673z" stroke-linecap="round" stroke-linejoin="round" stroke-miterlimit="10" stroke-width="3"/><path d="m132.711 159.093h-61.0771v16.067h61.0771z" stroke-linecap="round" stroke-linejoin="round" stroke-miterlimit="10" stroke-width="3"/><path d="m132.711 136.773h-61.0771v16.068h61.0771z" stroke-linecap="round" stroke-linejoin="round" stroke-miterlimit="10" stroke-width="3"/><path d="m132.711 114.453h-61.0771v16.068h61.0771z" stroke-linecap="round" stroke-linejoin="round" stroke-miterlimit="10" stroke-width="3"/><path d="m132.711 97.3188c0-2.3094 1.384-4.2919 3.377-5.1851h-64.4541v16.0673h61.0771z" stroke-linecap="round" stroke-linejoin="round" stroke-miterlimit="10" stroke-width="3"/><path d="m215.673 69.8137h-24.717v16.0673h24.717z" stroke-linecap="round" stroke-linejoin="round" stroke-miterlimit="10" stroke-width="3"/><path d="m304.026 69.8137h-74.715v16.0673h74.715z" stroke-linecap="round" stroke-linejoin="round" stroke-miterlimit="10" stroke-width="3"/><path d="m215.673 58.4741c0-3.8889-.752-7.5925-2.103-10.9693h-22.614v16.0672h24.717z" stroke-linecap="round" stroke-linejoin="round" stroke-miterlimit="10" stroke-width="3"/><path d="m227.927 47.4939c.893 3.5076 1.373 7.1785 1.373 10.9693v5.0979h74.715v-16.0672z" stroke-linecap="round" stroke-linejoin="round" stroke-miterlimit="10" stroke-width="3"/><path d="m146.349 69.8137h-74.7151v16.0673h74.7151z" stroke-linecap="round" stroke-linejoin="round" stroke-miterlimit="10" stroke-width="3"/><path d="m184.703 69.8137h-24.716v16.0673h24.716z" stroke-linecap="round" stroke-linejoin="round" stroke-miterlimit="10" stroke-width="3"/><path d="m146.349 58.4742c0-3.7908.48-7.4727 1.373-10.9693h-76.0881v16.0672h74.7151z" stroke-linecap="round" stroke-linejoin="round" stroke-miterlimit="10" stroke-width="3"/><path d="m159.987 58.4741v5.0979h24.716v-16.0781h-22.614c-1.35 3.3877-2.102 7.0914-2.102 10.9802z" stroke-linecap="round" stroke-linejoin="round" stroke-miterlimit="10" stroke-width="3"/><path d="m81.5791 55.533h64.7699" stroke-dasharray="3.27 3.27" stroke-linecap="round" stroke-linejoin="round" stroke-miterlimit="10" stroke-width="3"/><path d="m81.5791 77.8528h42.0469" stroke-dasharray="3.27 3.27" stroke-linecap="round" stroke-linejoin="round" stroke-miterlimit="10" stroke-width="3"/><path d="m81.5791 100.173h49.9989" stroke-dasharray="3.27 3.27" stroke-linecap="round" stroke-linejoin="round" stroke-miterlimit="10" stroke-width="3"/><path d="m81.5791 122.482h41.4809" stroke-dasharray="3.27 3.27" stroke-linecap="round" stroke-linejoin="round" stroke-miterlimit="10" stroke-width="3"/><path d="m81.5791 144.801h49.9989" stroke-dasharray="3.27 3.27" stroke-linecap="round" stroke-linejoin="round" stroke-miterlimit="10" stroke-width="3"/><path d="m81.5791 167.121h51.1319" stroke-dasharray="3.27 3.27" stroke-linecap="round" stroke-linejoin="round" stroke-miterlimit="10" stroke-width="3"/><path d="m200.901 55.2715h13.628" stroke-dasharray="3.27 3.27" stroke-linecap="round" stroke-linejoin="round" stroke-miterlimit="10" stroke-width="3"/><path d="m229.311 55.533h59.084" stroke-dasharray="3.27 3.27" stroke-linecap="round" stroke-linejoin="round" stroke-miterlimit="10" stroke-width="3"/><path d="m200.901 77.8528h69.879" stroke-dasharray="3.27 3.27" stroke-linecap="round" stroke-linejoin="round" stroke-miterlimit="10" stroke-width="3"/><path d="m242.938 100.173h36.938" stroke-dasharray="3.27 3.27" stroke-linecap="round" stroke-linejoin="round" stroke-miterlimit="10" stroke-width="3"/><path d="m242.938 122.896h47.733" stroke-dasharray="3.27 3.27" stroke-linecap="round" stroke-linejoin="round" stroke-miterlimit="10" stroke-width="3"/><path d="m241.805 144.801h57.385" stroke-dasharray="3.27 3.27" stroke-linecap="round" stroke-linejoin="round" stroke-miterlimit="10" stroke-width="3"/><path d="m242.938 167.121h30.119" stroke-dasharray="3.27 3.27" stroke-linecap="round" stroke-linejoin="round" stroke-miterlimit="10" stroke-width="3"/></g><path d="m159.987 75.184-13.638 15.2066v1.2418h13.638z" fill="#bbdbfc"/><path d="m229.311 91.0661v-32.9514c0-.8279-.033-1.6558-.077-2.4727l-13.561 19.7164v15.7077z" fill="#bbdbfc"/><path d="m242.938 185.955v-85.368l-20.457 30.021v61.033h14.771c3.148-.01 5.686-2.549 5.686-5.686z" fill="#bbdbfc"/><path d="m222.491 191.631h-84.334c-3.006 0-5.446-2.441-5.446-5.447v-89.105c0-3.0065 2.44-5.4466 5.446-5.4466h84.323v99.9986z" stroke="#0c6cf2" stroke-linecap="round" stroke-linejoin="round" stroke-miterlimit="10" stroke-width="3"/><path d="m222.492 191.631h15.01c3.007 0 5.447-2.441 5.447-5.447v-89.105c0-3.0065-2.44-5.4466-5.447-5.4466h-15.01z" stroke="#0c6cf2" stroke-linecap="round" stroke-linejoin="round" stroke-miterlimit="10" stroke-width="3"/><path d="m222.491 91.6325h6.82v-33.5179c0-22.9081-18.573-41.4807-41.481-41.4807s-41.481 18.5726-41.481 41.4807v33.5179h13.638v-33.5179c0-15.381 12.462-27.8426 27.843-27.8426s27.842 12.4616 27.842 27.8426v33.5179z" stroke="#0c6cf2" stroke-linecap="round" stroke-linejoin="round" stroke-miterlimit="10" stroke-width="3"/><path d="m178.734 122.449c-5.947 0-10.795 4.847-10.795 10.795 0 3.66 1.83 7.015 4.848 9.008v14.031c0 .936.762 1.699 1.699 1.699h8.486c.937 0 1.699-.763 1.699-1.699v-14.031c3.018-1.993 4.848-5.348 4.848-9.008.01-5.948-4.826-10.795-10.785-10.795z" fill="#0c6cf2"/><path d="m108.278 191.63h159.093" stroke="#0c6cf2" stroke-linecap="round" stroke-linejoin="round" stroke-miterlimit="10" stroke-width="3"/><path d="m116.808 184.546h15.904" stroke="#0c6cf2" stroke-linecap="round" stroke-linejoin="round" stroke-miterlimit="10" stroke-width="3"/><path d="m242.938 184.546h15.914" stroke="#0c6cf2" stroke-linecap="round" stroke-linejoin="round" stroke-miterlimit="10" stroke-width="3"/><path d="m120.783 198.726h135.227" stroke="#0c6cf2" stroke-linecap="round" stroke-linejoin="round" stroke-miterlimit="10" stroke-width="3"/></g></svg>