<svg fill="none" height="130" viewBox="0 0 222 130" width="222" xmlns="http://www.w3.org/2000/svg"><path d="m28.1606 117.862h19.0124" stroke="#0c6cf2" stroke-linecap="round" stroke-linejoin="round" stroke-miterlimit="10" stroke-width="3"/><path d="m170.3 117.862h19.013" stroke="#0c6cf2" stroke-linecap="round" stroke-linejoin="round" stroke-miterlimit="10" stroke-width="3"/><path d="m46.2674 112.37h-26.2552c-4.7531 0-8.6008-3.734-8.6008-8.347 0-4.6133 3.8477-8.3476 8.6008-8.3476h6.7902c2.2543 0 4.074-1.7661 4.074-3.954 0-2.1878-1.8197-3.9539-4.074-3.9539h-16.2963c-2.99675 0-5.43214-2.3636-5.43214-5.272s2.43539-5.2719 5.43214-5.2719h20.823c2.9967 0 5.4321-2.3636 5.4321-5.272 0-2.9083-2.4354-5.2719-5.4321-5.2719h-17.6543c-6.24693 0-11.31689-4.9205-11.31689-10.9833 0-6.0627 5.06996-10.9832 11.31689-10.9832h13.1276c2.2543 0 4.074-1.7661 4.074-3.9539 0-2.1879-1.8197-3.954-4.074-3.954h-13.1276c-3.2502 0-5.88479-2.5569-5.88479-5.7113s2.63459-5.7113 5.88479-5.7113h28.0658c2.2543 0 4.0741-1.7661 4.0741-3.9539 0-2.1879-1.8198-3.954-4.0741-3.954h-19.0123c-2.2543 0-4.0741-1.7661-4.0741-3.9539 0-2.1879 1.8198-3.95401 4.0741-3.95401h168.8477c3.504 0 6.337 2.75021 6.337 6.15061s-2.833 6.1506-6.337 6.1506h-19.465c-1.747 0-3.169 1.3795-3.169 3.0753s1.422 3.0753 3.169 3.0753h37.119c1.748 0 3.169 1.3795 3.169 3.0753s-1.421 3.0753-3.169 3.0753h-15.843c-2.997 0-5.432 2.3636-5.432 5.272 0 2.9083 2.435 5.2719 5.432 5.2719h13.58c6.998 0 12.675 5.5092 12.675 12.3012s-5.677 12.3012-12.675 12.3012h-14.033c-2.499 0-4.527 1.9682-4.527 4.3933s2.028 4.3933 4.527 4.3933h12.675c5.749 0 10.411 4.5251 10.411 10.1046s-4.662 10.1045-10.411 10.1045h-18.107c-1.747 0-3.169 1.3795-3.169 3.0757 0 1.695 1.422 3.075 3.169 3.075h11.769c2.255 0 4.075 1.766 4.075 3.954s-1.82 3.954-4.075 3.954h-31.687" stroke="#dfe3eb" stroke-linecap="round" stroke-linejoin="round" stroke-miterlimit="10" stroke-width="3"/><path d="m55.0946 122.914h106.8314c5.504 0 9.959-4.323 9.959-9.665v-15.8162h-32.593c-2.236 0-4.318-.5887-6.12-1.608-11.326 7.3982-24.961 11.7122-39.6363 11.7122h-48.4v5.712c0 5.342 4.4544 9.665 9.9589 9.665z" fill="#bbdbfc"/><path d="m162.958 53.4471c-1.648 7.2489-4.463 14.0673-8.257 20.2619h17.184v-29.8744c0 4.9996-3.911 9.1117-8.927 9.6125z" fill="#bbdbfc"/><path d="m162.152 53.7195h-106.8308c-5.5046 0-9.9589-4.323-9.9589-9.6652 0-5.3423 4.4543-9.6653 9.9589-9.6653h106.8308c5.505 0 9.959 4.323 9.959 9.6653 0 5.3422-4.454 9.6652-9.959 9.6652z" style="fill:#fff;stroke:#0c6cf2;stroke-width:3;stroke-miterlimit:10;stroke-linecap:round;stroke-linejoin:round"/><path d="m139.745 90.8427c3 0 5.432-2.3603 5.432-5.2719s-2.432-5.272-5.432-5.272-5.432 2.3604-5.432 5.272 2.432 5.2719 5.432 5.2719z" style="fill:#bbdbfc;stroke:#bbdbfc;stroke-width:3;stroke-miterlimit:10;stroke-linecap:round;stroke-linejoin:round"/><path d="m160.74 39.2217h-104.2783c-2.2 0-4.2189 1.4058-4.6626 3.4707-.5975 2.8205 1.6478 5.3159 4.4815 5.3159h104.2784c2.2 0 4.219-1.4059 4.662-3.4707.607-2.8293-1.638-5.3159-4.481-5.3159z" fill="#bbdbfc"/><path d="m139.836 97.6523c-6.275 0-11.779-4.4636-12.467-10.5087-.806-7.1611 4.943-13.215 12.15-13.215h32.592v-29.8744c0 5.3422-4.454 9.6652-9.959 9.6652h-106.8308c-5.5046 0-9.9589-4.323-9.9589-9.6652v69.4138c0 5.342 4.4543 9.665 9.9589 9.665h106.8308c5.505 0 9.959-4.323 9.959-9.665v-15.8157z" stroke="#0c6cf2" stroke-linecap="round" stroke-linejoin="round" stroke-miterlimit="10" stroke-width="3"/><path d="m82.373 17.0443c4.19 0 7.5868-3.2966 7.5868-7.36315 0-4.06656-3.3968-7.36316-7.5868-7.36316-4.1901 0-7.5869 3.2966-7.5869 7.36316 0 4.06655 3.3968 7.36315 7.5869 7.36315z" style="fill:#0c6cf2;stroke:#bbdbfc;stroke-width:3;stroke-miterlimit:10;stroke-linecap:round;stroke-linejoin:round"/><path d="m82.373 11.4472c1.005 0 1.8197-.7907 1.8197-1.76606 0-.97539-.8147-1.7661-1.8197-1.7661-1.0051 0-1.8198.79071-1.8198 1.7661 0 .97536.8147 1.76606 1.8198 1.76606z" fill="#fff"/><path d="m82.373 8.34558c.7514 0 1.3671.59748 1.3671 1.32677 0 .72925-.6157 1.32675-1.3671 1.32675s-1.3671-.5975-1.3671-1.32675c0-.72929.6066-1.32677 1.3671-1.32677zm0-.87866c-1.2584 0-2.2724.9841-2.2724 2.20543 0 1.22135 1.014 2.20545 2.2724 2.20545s2.2724-.9841 2.2724-2.20545c0-1.22133-1.023-2.20543-2.2724-2.20543z" fill="#fff"/><g stroke-linecap="round" stroke-linejoin="round" stroke-miterlimit="10" stroke-width="3"><path d="m60.6442 24.9522c2.6901 0 4.8708-2.1165 4.8708-4.7272 0-2.6108-2.1807-4.7272-4.8708-4.7272-2.69 0-4.8708 2.1164-4.8708 4.7272 0 2.6107 2.1808 4.7272 4.8708 4.7272z" fill="#0c6cf2" stroke="#bbdbfc"/><path d="m156.612 24.9522c2.69 0 4.87-2.1165 4.87-4.7272 0-2.6108-2.18-4.7272-4.87-4.7272-2.691 0-4.871 2.1164-4.871 4.7272 0 2.6107 2.18 4.7272 4.871 4.7272z" fill="#0c6cf2" stroke="#bbdbfc"/><path d="m120.053 54.8178c14.001 0 25.35-11.0149 25.35-24.6025 0-13.5875-11.349-24.60238-25.35-24.60238-14 0-25.3494 11.01488-25.3494 24.60238 0 13.5876 11.3494 24.6025 25.3494 24.6025z" fill="#fff" stroke="#bbdbfc"/><path d="m120.053 49.6776c11.076 0 20.054-8.7136 20.054-19.4623s-8.978-19.4622-20.054-19.4622c-11.075 0-20.053 8.7135-20.053 19.4622s8.978 19.4623 20.053 19.4623z" fill="#0c6cf2" stroke="#bbdbfc"/><path d="m119.673 5.61292v5.14018" stroke="#bbdbfc"/><path d="m107.053 9.09241 2.643 4.45479" stroke="#bbdbfc"/><path d="m97.9087 18.2305 4.5903 2.5744" stroke="#bbdbfc"/><path d="m94.7036 30.5844h5.2963" stroke="#bbdbfc"/><path d="m98.2886 42.8329 4.5904-2.5657" stroke="#bbdbfc"/><path d="m107.705 51.7074 2.652-4.4548" stroke="#bbdbfc"/><path d="m120.434 54.8178v-5.1402" stroke="#bbdbfc"/><path d="m133.054 51.3383-2.643-4.4548" stroke="#bbdbfc"/><path d="m142.199 42.2002-4.591-2.5745" stroke="#bbdbfc"/><path d="m145.403 29.8463h-5.296" stroke="#bbdbfc"/><path d="m141.818 17.5978-4.59 2.5657" stroke="#bbdbfc"/><path d="m132.402 8.72339-2.652 4.45481" stroke="#bbdbfc"/></g><path d="m118.75 16.8949.905 9.8498 8.918 2.9698z" fill="#fff"/><path d="m118.75 16.8949-7.325 14.3133 8.23-4.4635z" fill="#fff"/><path d="m120.587 36.8405.616 6.6866 7.514-12.2661z" fill="#fff"/><path d="m121.203 43.5358-.616-6.6954-9.017-4.0858z" fill="#fff"/><path d="m120.442 35.294 8.13-5.5795-8.917-2.9699z" fill="#fff"/><path d="m111.425 31.2082 9.018 4.0858-.788-8.5494z" fill="#fff"/><path d="m86.5557 85.5708c16.5003 0 29.8763-12.9818 29.8763-28.9957s-13.376-28.9958-29.8763-28.9958-29.8765 12.9819-29.8765 28.9958 13.3762 28.9957 29.8765 28.9957z" style="fill:#fff;stroke:#bbdbfc;stroke-width:3;stroke-miterlimit:10;stroke-linecap:round;stroke-linejoin:round"/><path d="m86.5559 79.508c13.0503 0 23.6301-10.2674 23.6301-22.9329 0-12.6656-10.5798-22.933-23.6301-22.933s-23.6296 10.2674-23.6296 22.933c0 12.6655 10.5793 22.9329 23.6296 22.9329z" style="fill:#0c6cf2;stroke:#bbdbfc;stroke-width:3;stroke-miterlimit:10;stroke-linecap:round;stroke-linejoin:round"/><path d="m98.3887 54.5717c1.014-3.0928-1.195-5.184-4.409-6.8535l1.8107-4.1297-2.5893-1.072-1.7655 4.0155c-.679-.2812-1.3761-.5535-2.0823-.8259l1.7745-4.0419-2.5893-1.0719-1.8107 4.1209c-.5613-.2197-1.1226-.4393-1.6568-.659h.0091l-3.5671-1.4761-1.177 2.6799s1.9284.7556 1.8832.7732c1.0502.4305 1.1317 1.1686 1.0049 1.7134l-4.9613 11.2995c-.1901.2987-.6066.7293-1.3399.4306.0181.0439-1.8832-.7733-1.8832-.7733l-1.8288 2.7854 3.3679 1.3883c.6247.2636 1.2404.5271 1.8379.782l-1.8288 4.1736 2.5893 1.0719 1.8107-4.1296c.7062.3075 1.3852.5974 2.0551.8698l-1.8016 4.1121 2.5893 1.072 1.8288-4.1648c4.4543 1.5552 7.9671 1.7485 10.0856-2.0561 1.7111-3.0665.7877-5.1313-1.4304-6.7305 1.8288-.1142 3.3316-1.0368 4.074-3.3038zm-7.5415 7.4247c-1.3671 3.1192-6.7087.492-8.4651-.2372l2.4264-5.5268c1.7564.7293 7.4691 2.513 6.0387 5.764zm2.2181-8.2945c-1.2494 2.838-5.6856.6062-7.1432.0088l2.2-5.0084c1.4576.5887 6.2469 2.0385 4.9432 4.9996z" fill="#fff"/><path d="m86.1123 27.5793v6.0628" stroke="#bbdbfc" stroke-linecap="round" stroke-linejoin="round" stroke-miterlimit="10" stroke-width="3"/><path d="m71.228 31.6827 3.1235 5.2456" stroke="#bbdbfc" stroke-linecap="round" stroke-linejoin="round" stroke-miterlimit="10" stroke-width="3"/><path d="m60.4546 42.4551 5.414 3.0226" stroke="#bbdbfc" stroke-linecap="round" stroke-linejoin="round" stroke-miterlimit="10" stroke-width="3"/><path d="m56.6792 57.0056h6.2469" stroke="#bbdbfc" stroke-linecap="round" stroke-linejoin="round" stroke-miterlimit="10" stroke-width="3"/><path d="m60.9072 71.4508 5.405-3.0314" stroke="#bbdbfc" stroke-linecap="round" stroke-linejoin="round" stroke-miterlimit="10" stroke-width="3"/><path d="m72.0068 81.9067 3.1144-5.2544" stroke="#bbdbfc" stroke-linecap="round" stroke-linejoin="round" stroke-miterlimit="10" stroke-width="3"/><path d="m86.9995 85.5708v-6.0627" stroke="#bbdbfc" stroke-linecap="round" stroke-linejoin="round" stroke-miterlimit="10" stroke-width="3"/><path d="m101.883 81.4674-3.1232-5.2456" stroke="#bbdbfc" stroke-linecap="round" stroke-linejoin="round" stroke-miterlimit="10" stroke-width="3"/><path d="m112.657 70.6951-5.414-3.0226" stroke="#bbdbfc" stroke-linecap="round" stroke-linejoin="round" stroke-miterlimit="10" stroke-width="3"/><path d="m116.432 56.1445h-6.246" stroke="#bbdbfc" stroke-linecap="round" stroke-linejoin="round" stroke-miterlimit="10" stroke-width="3"/><path d="m112.204 41.6993-5.405 3.0314" stroke="#bbdbfc" stroke-linecap="round" stroke-linejoin="round" stroke-miterlimit="10" stroke-width="3"/><path d="m101.105 31.2434-3.1148 5.2544" stroke="#bbdbfc" stroke-linecap="round" stroke-linejoin="round" stroke-miterlimit="10" stroke-width="3"/><path d="m42.646 123.133h133.086" stroke="#0c6cf2" stroke-linecap="round" stroke-linejoin="round" stroke-miterlimit="10" stroke-width="3"/><path d="m53.0576 128.405h112.2634" stroke="#0c6cf2" stroke-linecap="round" stroke-linejoin="round" stroke-miterlimit="10" stroke-width="3"/><path d="m172.111 73.9286h2.934c.878 0 1.593.6941 1.593 1.5464v20.6397c0 .8523-.715 1.5465-1.593 1.5465h-2.934" stroke="#0c6cf2" stroke-linecap="round" stroke-linejoin="round" stroke-miterlimit="10" stroke-width="3"/></svg>