<svg width="83" height="80" viewBox="0 0 83 80" fill="none" xmlns="http://www.w3.org/2000/svg">
<g clip-path="url(#clip0_298_11067)">
<g opacity="0.1">
<path opacity="0.1" d="M39.5841 58.8386C36.238 58.8396 32.9668 57.8381 30.1842 55.9606C27.4016 54.0831 25.2325 51.4141 23.9513 48.291C22.6701 45.1679 22.3344 41.7311 22.9865 38.4152C23.6387 35.0994 25.2495 32.0534 27.6151 29.6625C29.9808 27.2716 32.9951 25.6432 36.2768 24.9833C39.5584 24.3234 42.9601 24.6615 46.0516 25.955C49.143 27.2486 51.7854 29.4393 53.6444 32.2502C55.5035 35.0611 56.4958 38.3658 56.4958 41.7466C56.4863 46.2758 54.7016 50.6169 51.5323 53.82C48.3629 57.0232 44.0669 58.8276 39.5841 58.8386ZM39.5841 25.6199C36.4344 25.6199 33.3554 26.5636 30.7364 28.3316C28.1175 30.0996 26.0763 32.6126 24.871 35.5527C23.6656 38.4928 23.3503 41.7281 23.9647 44.8493C24.5792 47.9705 26.096 50.8375 28.3232 53.0878C30.5504 55.3381 33.388 56.8705 36.4772 57.4914C39.5664 58.1122 42.7685 57.7936 45.6785 56.5757C48.5884 55.3579 51.0756 53.2956 52.8255 50.6495C54.5754 48.0035 55.5094 44.8926 55.5094 41.7102C55.4945 37.4494 53.8112 33.3676 50.8273 30.3567C47.8434 27.3457 43.8013 25.6502 39.5841 25.6407V25.6199Z" fill="#0C6CF2"/>
<path opacity="0.1" d="M39.584 52.1118C37.5519 52.1118 35.5655 51.503 33.8758 50.3623C32.1862 49.2216 30.8693 47.6004 30.0917 45.7035C29.314 43.8067 29.1106 41.7194 29.507 39.7058C29.9034 37.6921 30.882 35.8424 32.3189 34.3906C33.7558 32.9388 35.5865 31.9501 37.5796 31.5496C39.5726 31.149 41.6384 31.3546 43.5158 32.1403C45.3933 32.926 46.9979 34.2565 48.1269 35.9637C49.2558 37.6708 49.8584 39.6778 49.8584 41.731C49.8584 44.4841 48.7759 47.1245 46.8491 49.0713C44.9223 51.0181 42.3089 52.1118 39.584 52.1118ZM39.584 32.3882C37.7468 32.3872 35.9505 32.9367 34.4224 33.9672C32.8943 34.9977 31.7031 36.463 30.9993 38.1777C30.2955 39.8923 30.1108 41.7794 30.4686 43.6001C30.8264 45.4208 31.7106 47.0934 33.0094 48.4063C34.3081 49.7193 35.9631 50.6136 37.765 50.9761C39.5668 51.3386 41.4346 51.153 43.1321 50.4429C44.8295 49.7328 46.2804 48.53 47.3012 46.9867C48.3221 45.4433 48.8669 43.6287 48.8669 41.7725C48.869 40.5387 48.6305 39.3167 48.165 38.1761C47.6996 37.0355 47.0164 35.9987 46.1544 35.1249C45.2924 34.2511 44.2685 33.5573 43.1412 33.0833C42.0138 32.6093 40.8051 32.3643 39.584 32.3622V32.3882Z" fill="#0C6CF2"/>
</g>
<path d="M53.5109 50.3523C54.5725 49.8555 55.4658 49.054 56.0795 48.0477C56.6935 47.0415 56.9975 45.8735 56.9526 44.6924C56.9078 43.5112 56.5163 42.3701 55.8278 41.4144C55.1378 40.453 54.1816 39.7195 53.0798 39.3063C51.9779 38.893 50.7796 38.8185 49.6359 39.0922C48.4922 39.3658 47.4542 39.9753 46.6527 40.8439C45.8513 41.7125 45.3222 42.8014 45.1322 43.9732C44.924 45.3416 45.1923 46.7405 45.8912 47.9313C46.5901 49.1221 47.6763 50.0309 48.9645 50.5028C50.4405 51.0592 52.0741 51.0051 53.5109 50.3523Z" fill="#0C6CF2"/>
<path d="M49.4731 41.5234L50.6239 44.0303L53.1668 44.0044L49.4731 41.5234Z" fill="white"/>
<path d="M49.473 41.5234L48.9336 45.956L50.6083 44.0304L49.473 41.5234Z" fill="white"/>
<path d="M51.8003 46.6048L52.5811 48.3124L53.3517 44.3989L51.8003 46.6048Z" fill="white"/>
<path d="M52.5811 48.3124L51.8003 46.6048L49.1289 46.3505L52.5811 48.3124Z" fill="white"/>
<path d="M51.6204 46.2207L53.1616 44.0096L50.6187 44.0407L51.6204 46.2207Z" fill="white"/>
<path d="M48.9336 45.956L51.605 46.2155L50.6083 44.0355L48.9336 45.956Z" fill="white"/>
<path d="M40.9966 56.8092C41.5024 56.6196 41.9604 56.3194 42.3378 55.9301C42.7152 55.5407 43.0027 55.0718 43.1797 54.557C43.3567 54.0421 43.4188 53.4941 43.3616 52.9522C43.3043 52.4103 43.1292 51.8879 42.8487 51.4224C42.5681 50.9569 42.1892 50.5599 41.739 50.2597C41.2887 49.9596 40.7784 49.7637 40.2444 49.6863C39.7105 49.6088 39.1662 49.6516 38.6506 49.8116C38.135 49.9716 37.6607 50.2449 37.2619 50.6118C36.7235 51.1012 36.3439 51.7434 36.1728 52.4544C36.0162 53.1064 36.0377 53.7892 36.2351 54.4298C36.4324 55.0705 36.7982 55.645 37.2934 56.092C37.7886 56.5391 38.3946 56.8419 39.0468 56.9682C39.699 57.0945 40.3729 57.0396 40.9966 56.8092Z" fill="#0C6CF2"/>
<path d="M39.9742 55.9684C40.0102 56.0566 39.9742 56.1085 39.8715 56.1344C39.2849 56.1625 38.7048 56.0004 38.2159 55.6717C37.7269 55.343 37.3548 54.8649 37.1539 54.3074C36.9523 53.7538 36.9342 53.149 37.1025 52.5842C37.2656 52.0152 37.6062 51.5146 38.0735 51.1568H38.13C38.1485 51.152 38.168 51.152 38.1865 51.1568C38.2062 51.1621 38.224 51.1729 38.2378 51.188C38.2503 51.203 38.2591 51.2208 38.2635 51.2399L38.3355 51.4475C38.3431 51.4782 38.3431 51.5103 38.3355 51.5409C38.327 51.571 38.3131 51.5991 38.2944 51.624C37.936 51.9247 37.6781 52.3298 37.5559 52.784C37.4336 53.2381 37.4529 53.7194 37.6111 54.1621C37.7762 54.6029 38.0689 54.9832 38.451 55.2536C38.8331 55.5239 39.2869 55.6717 39.7533 55.6777C39.7857 55.6795 39.8164 55.6923 39.8407 55.714C39.8661 55.7333 39.8842 55.7607 39.892 55.7919L39.9742 55.9684Z" fill="white"/>
<path d="M40.5804 54.9303C40.5906 54.9605 40.5906 54.9934 40.5804 55.0237C40.5753 55.038 40.5671 55.051 40.5565 55.0618C40.5458 55.0725 40.533 55.0808 40.5188 55.086L40.2876 55.169C40.273 55.1753 40.2573 55.1785 40.2414 55.1785C40.2255 55.1785 40.2098 55.1753 40.1952 55.169C40.1804 55.1633 40.1672 55.1542 40.1566 55.1425C40.1459 55.1308 40.138 55.1168 40.1335 55.1015L40.0051 54.7538C39.8132 54.8145 39.6066 54.807 39.4196 54.7324C39.2326 54.6577 39.0766 54.5206 38.9776 54.3437C38.9658 54.3186 38.9634 54.29 38.971 54.2632C38.9786 54.2365 38.9955 54.2134 39.0187 54.1984L39.2807 54.105C39.3059 54.0973 39.3327 54.0973 39.3578 54.105C39.3838 54.1142 39.4068 54.1304 39.4246 54.1517C39.4559 54.2108 39.4998 54.2622 39.553 54.3022C39.6057 54.3417 39.6648 54.3716 39.7277 54.3905C39.7922 54.4031 39.8584 54.4031 39.9229 54.3905C39.9891 54.3838 40.0527 54.3606 40.1078 54.323C40.3955 54.2244 40.5445 54.0012 40.4623 53.7728C40.3801 53.5444 40.2363 53.4925 39.8099 53.5859C39.1729 53.7157 38.8338 53.6482 38.6437 53.1551C38.5823 52.9681 38.5915 52.7648 38.6694 52.5842C38.7515 52.4027 38.8956 52.2571 39.0752 52.1741L38.9468 51.8264C38.9407 51.8125 38.9376 51.7975 38.9376 51.7823C38.9376 51.7671 38.9407 51.752 38.9468 51.7381C38.9585 51.7088 38.9805 51.6848 39.0085 51.6707L39.2396 51.5876C39.2704 51.5784 39.3034 51.5807 39.3327 51.594C39.3619 51.6073 39.3854 51.6309 39.3989 51.6603L39.5222 52.008C39.6806 51.9662 39.8482 51.9771 40 52.0392C40.1526 52.1014 40.2808 52.2127 40.3647 52.3558C40.3769 52.3817 40.3794 52.4112 40.3719 52.4388C40.3643 52.4664 40.3472 52.4904 40.3236 52.5063L40.0924 52.5894C40.0656 52.5972 40.0371 52.5972 40.0102 52.5894C39.984 52.5806 39.9608 52.5644 39.9434 52.5427C39.8809 52.4563 39.7897 52.3955 39.6866 52.3714C39.581 52.3492 39.4711 52.3677 39.3783 52.4233C39.0907 52.5271 38.9982 52.7243 39.0752 52.9112C39.1523 53.098 39.2756 53.1967 39.7277 53.098C40.3647 52.9631 40.6986 53.0306 40.8887 53.5288C40.9581 53.7234 40.9581 53.9364 40.8887 54.1309C40.8047 54.3205 40.6599 54.4759 40.4777 54.5721L40.5804 54.9303Z" fill="white"/>
<path d="M41.4541 55.5739H41.4027C41.3824 55.5789 41.3613 55.5789 41.341 55.5739C41.3223 55.5697 41.3058 55.5586 41.2948 55.5427C41.2893 55.5259 41.2893 55.5077 41.2948 55.4908L41.2178 55.2832C41.2076 55.2529 41.2076 55.2201 41.2178 55.1898C41.2228 55.1585 41.2371 55.1296 41.2588 55.1067C41.6146 54.8039 41.8697 54.3979 41.9896 53.9437C42.1095 53.4896 42.0885 53.0091 41.9293 52.5675C41.7701 52.1258 41.4805 51.7442 41.0997 51.4742C40.7188 51.2043 40.2651 51.0591 39.7999 51.0582C39.7686 51.0525 39.7388 51.0401 39.7125 51.0219C39.688 50.9996 39.6702 50.9709 39.6612 50.9388L39.5892 50.7416C39.5533 50.6534 39.5893 50.6015 39.692 50.5755C40.2786 50.5474 40.8587 50.7096 41.3476 51.0383C41.8365 51.367 42.2086 51.845 42.4096 52.4025C42.6112 52.9561 42.6292 53.5609 42.4609 54.1257C42.2979 54.6947 41.9573 55.1954 41.49 55.5531L41.4541 55.5739Z" fill="white"/>
<path d="M32.3611 45.8314C34.2153 46.2666 36.1556 46.1376 37.9374 45.4605C39.7191 44.7835 41.2627 43.5887 42.3735 42.0268C43.1989 40.862 43.7574 39.5262 44.0084 38.1163C44.2594 36.7064 44.1968 35.2577 43.825 33.8753C43.4531 32.4929 42.7815 31.2114 41.8587 30.1238C40.9359 29.0361 39.7851 28.1696 38.4898 27.5871C36.7518 26.8026 34.8234 26.5531 32.9458 26.8697C31.0681 27.1864 29.3245 28.0551 27.9328 29.3674C26.6673 30.5673 25.7489 32.0925 25.2762 33.7797C24.8034 35.4668 24.794 37.2521 25.2491 38.9442C25.7043 40.6363 26.6066 42.1713 27.8595 43.3846C29.1124 44.5979 30.6686 45.4437 32.3611 45.8314Z" fill="#0C6CF2"/>
<path d="M39.019 36.198C39.507 35.0094 38.7005 34.1218 37.5241 33.39L38.3203 31.8328L37.3443 31.3449L36.5685 32.9021L35.7979 32.518L36.5839 30.9609L35.6079 30.473L34.8476 32.0301L34.2362 31.7239L32.9211 31.0491L32.4074 32.0872C32.4074 32.0872 33.1215 32.4349 33.1061 32.4401C33.2409 32.4924 33.351 32.5944 33.4143 32.7256C33.4766 32.857 33.4858 33.0078 33.44 33.146L31.2515 37.4645C31.226 37.5067 31.1929 37.5436 31.1539 37.5735C31.1133 37.603 31.0682 37.6258 31.0203 37.6409C30.971 37.6488 30.9207 37.6488 30.8714 37.6409C30.8224 37.6324 30.7754 37.6148 30.7327 37.589L30.0391 37.2309L29.2686 38.269L30.5118 38.9074C30.7481 39.0216 30.969 39.1462 31.195 39.2655L30.3833 40.8227L31.3594 41.3158L32.1608 39.7586L32.9211 40.1531L32.1248 41.7102L33.1009 42.1981L33.9023 40.6099C35.5565 41.3365 36.887 41.5026 37.8015 40.0597C38.531 38.897 38.2381 38.0562 37.4367 37.371C37.7915 37.3759 38.1381 37.2629 38.4231 37.0492C38.7073 36.8377 38.9163 36.5392 39.019 36.198ZM35.9367 38.923C35.3356 40.122 33.368 38.923 32.7208 38.6167L33.7893 36.5042C34.4571 36.8364 36.5839 37.6825 35.9572 38.923H35.9367ZM37.0001 35.7205C36.4504 36.8001 34.8219 35.8139 34.2825 35.5388L35.2585 33.6184C35.8031 33.8934 37.5908 34.589 37.0206 35.7205H37.0001Z" fill="white"/>
<path d="M76.4845 42.1982H77.1934C77.33 34.0018 74.8535 25.9785 70.1297 19.3136L69.5903 19.8015C72.2666 23.5819 74.2229 27.8326 75.3594 32.3364C76.1615 35.5594 76.5398 38.8752 76.4845 42.1982Z" fill="#0C6CF2"/>
<path d="M71.7634 59.9235C68.3618 66.0652 63.3255 71.1214 57.2251 74.5189L57.5076 75.1833C63.7473 71.714 68.8969 66.5434 72.3696 60.2608C72.1641 60.157 71.9586 60.0325 71.7634 59.9235Z" fill="#0C6CF2"/>
<path d="M9.01248 64.299C6.79556 61.3469 5.01969 58.0819 3.74169 54.6085C2.14209 50.2582 1.35984 45.6446 1.43509 41.0044L0.721011 40.9161C0.632335 45.6713 1.43053 50.4008 3.07386 54.8576C4.39183 58.4325 6.22879 61.7893 8.52443 64.818C8.67855 64.6519 8.84295 64.4703 9.01248 64.299Z" fill="#0C6CF2"/>
<path d="M42.4352 79.1228C36.075 79.7288 29.6672 78.678 23.8231 76.0709C23.6946 76.2785 23.5508 76.4809 23.4121 76.673C29.4321 79.3712 36.0382 80.458 42.5945 79.8287L42.4352 79.1228Z" fill="#0C6CF2"/>
<path d="M15.7679 76.6833C14.6638 76.6772 13.5862 76.3407 12.6711 75.7165C11.7561 75.0923 11.0445 74.2081 10.6261 73.1757C10.2078 72.1433 10.1015 71.0088 10.3207 69.9155C10.5398 68.8221 11.0745 67.8188 11.8574 67.0321C12.6403 66.2454 13.6363 65.7107 14.7196 65.4953C15.803 65.2799 16.9252 65.3935 17.9447 65.8219C18.9643 66.2502 19.8354 66.974 20.4482 67.902C21.061 68.83 21.388 69.9206 21.388 71.0361C21.3813 72.5371 20.786 73.9743 19.7326 75.0327C18.6792 76.0912 17.2536 76.6847 15.7679 76.6833ZM15.7679 65.908C14.7654 65.9141 13.7872 66.2201 12.9566 66.7873C12.1259 67.3546 11.4802 68.1576 11.1008 69.0952C10.7213 70.0327 10.6252 71.0628 10.8245 72.0555C11.0238 73.0482 11.5096 73.9591 12.2207 74.6731C12.9317 75.3872 13.8361 75.8725 14.8199 76.0679C15.8036 76.2633 16.8225 76.1599 17.7481 75.7709C18.6738 75.3818 19.4647 74.7245 20.021 73.8819C20.5774 73.0393 20.8743 72.0491 20.8743 71.0361C20.8689 69.6724 20.3282 68.3665 19.3708 67.4051C18.4135 66.4436 17.1177 65.9052 15.7679 65.908Z" fill="#0C6CF2"/>
<path d="M45.4611 3.73191C42.8876 3.29207 40.2764 3.11816 37.668 3.21286C37.7296 3.45162 37.781 3.70076 37.8272 3.92914C44.9973 3.69489 52.0837 5.54113 58.2476 9.24933L58.6792 8.668C54.6159 6.20526 50.1329 4.53118 45.4611 3.73191Z" fill="#0C6CF2"/>
<path d="M19.4103 8.57458C16.8343 10.114 14.4448 11.9518 12.2901 14.0505C8.89991 17.3526 6.15052 21.2659 4.18359 25.5888L4.86169 25.8224C8.02115 18.9105 13.1819 13.1298 19.662 9.24415C19.5695 9.01577 19.4822 8.80815 19.4103 8.57458Z" fill="#0C6CF2"/>
<path d="M28.4618 11.2996C27.3564 11.2944 26.2774 10.9586 25.3607 10.3344C24.4441 9.71017 23.7311 8.82561 23.3116 7.79233C22.8921 6.75905 22.785 5.62338 23.0037 4.52864C23.2225 3.4339 23.7573 2.42918 24.5407 1.64127C25.3241 0.853369 26.321 0.317604 27.4055 0.101602C28.49 -0.114401 29.6135 -0.000961829 30.6343 0.427605C31.655 0.856171 32.5272 1.58065 33.1408 2.50961C33.7544 3.43857 34.0819 4.53036 34.0819 5.64719C34.0765 7.14909 33.4818 8.58753 32.4283 9.64711C31.3747 10.7067 29.9483 11.3009 28.4618 11.2996ZM28.4618 0.519049C27.4578 0.524177 26.4779 0.829727 25.6456 1.39712C24.8134 1.96452 24.1662 2.76832 23.7857 3.70706C23.4053 4.64579 23.3086 5.67737 23.508 6.67156C23.7073 7.66575 24.1937 8.57799 24.9058 9.2931C25.6179 10.0082 26.5237 10.4941 27.5089 10.6895C28.494 10.8849 29.5145 10.781 30.4412 10.3909C31.368 10.0008 32.1597 9.34209 32.7162 8.49781C33.2727 7.65352 33.5692 6.66158 33.5682 5.64719C33.5627 4.28341 33.022 2.97753 32.0647 2.01611C31.1074 1.05469 29.8116 0.516288 28.4618 0.519049Z" fill="#0C6CF2"/>
<path d="M61.3553 27.3224C61.2269 27.421 61.0882 27.5041 60.9546 27.5923C63.6043 31.5957 65.0822 36.2733 65.2185 41.0874L65.7065 41.1185C65.6099 37.8645 64.913 34.6573 63.6516 31.6616C63.0247 30.1446 62.2557 28.6916 61.3553 27.3224Z" fill="#0C6CF2"/>
<path d="M51.9593 18.7063C49.927 17.6067 47.7614 16.7797 45.5173 16.246C42.3626 15.4998 39.0982 15.352 35.8901 15.8101L36.0083 16.298C41.4165 15.537 46.924 16.5408 51.7282 19.1631C51.7834 19.0005 51.8613 18.8467 51.9593 18.7063Z" fill="#0C6CF2"/>
<path d="M57.5644 26.9747C56.5973 26.9644 55.6549 26.6653 54.8557 26.115C54.0566 25.5647 53.4364 24.7879 53.0733 23.8822C52.7102 22.9766 52.6205 21.9826 52.8154 21.0255C53.0102 20.0685 53.481 19.191 54.1684 18.5037C54.8558 17.8164 55.7291 17.3499 56.6784 17.163C57.6276 16.9761 58.6104 17.0772 59.5029 17.4534C60.3954 17.8297 61.1578 18.4643 61.6941 19.2775C62.2304 20.0906 62.5166 21.0459 62.5166 22.023C62.514 22.6769 62.3836 23.3238 62.1332 23.9267C61.8827 24.5296 61.517 25.0767 61.057 25.5366C60.597 25.9966 60.0518 26.3603 59.4525 26.6071C58.8531 26.8539 58.2115 26.9788 57.5644 26.9747ZM57.5644 17.5904C56.6989 17.6006 55.8558 17.8693 55.1411 18.3625C54.4265 18.8557 53.8721 19.5515 53.548 20.3624C53.2238 21.1732 53.1442 22.0627 53.3192 22.9191C53.4943 23.7755 53.9161 24.5605 54.5317 25.1752C55.1472 25.7899 55.929 26.207 56.7786 26.3739C57.6282 26.5407 58.5076 26.45 59.3063 26.113C60.105 25.776 60.7871 25.2079 61.267 24.4801C61.7468 23.7524 62.0029 22.8975 62.0029 22.023C62.0002 21.4373 61.8832 20.8579 61.6586 20.3179C61.4339 19.778 61.1061 19.2881 60.6938 18.8763C60.2815 18.4646 59.7929 18.1391 59.2559 17.9184C58.7189 17.6977 58.1441 17.5863 57.5644 17.5904Z" fill="#0C6CF2"/>
<path d="M43.8579 67.2679C38.2191 68.233 32.4228 67.2801 27.3777 64.5585L27.1055 64.9685C29.9561 66.5112 33.0654 67.5056 36.2754 67.9011C38.8544 68.2224 41.466 68.1612 44.0274 67.7194C43.9658 67.5741 43.9093 67.4236 43.8579 67.2679Z" fill="#0C6CF2"/>
<path d="M63.3487 51.5409C62.1608 54.4872 60.4395 57.1839 58.2731 59.4926C57.4523 60.3704 56.5717 61.1891 55.6377 61.9425C55.7199 62.0844 55.797 62.2297 55.8689 62.3785C59.4001 59.579 62.1423 55.8921 63.8213 51.6862L63.3487 51.5409Z" fill="#0C6CF2"/>
<path d="M13.9187 43.4335C13.7544 43.4327 13.5908 43.4136 13.4307 43.3764C13.5519 45.4413 13.9122 47.4847 14.5043 49.4648C15.4384 52.5827 16.9422 55.4963 18.9378 58.0549L19.2922 57.7124C16.1137 53.6222 14.2446 48.6503 13.9341 43.4594L13.9187 43.4335Z" fill="#0C6CF2"/>
<path d="M25.8266 19.4485C23.0783 21.1504 20.6673 23.354 18.7167 25.9469C17.6413 27.3862 16.7135 28.9322 15.9478 30.5612C16.107 30.5923 16.2663 30.6338 16.4358 30.6806C18.5367 26.2172 21.8737 22.4653 26.0424 19.8793L25.8266 19.4485Z" fill="#0C6CF2"/>
<path d="M14.5039 41.8867C13.5345 41.8816 12.5883 41.5864 11.7847 41.0384C10.9812 40.4904 10.3564 39.7142 9.98917 38.8077C9.62194 37.9012 9.52873 36.9051 9.72134 35.9451C9.91395 34.9852 10.3837 34.1044 11.0714 33.4139C11.759 32.7235 12.6337 32.2544 13.585 32.0658C14.5363 31.8772 15.5216 31.9776 16.4165 32.3544C17.3113 32.7311 18.0757 33.3672 18.613 34.1825C19.1504 34.9977 19.4366 35.9556 19.4356 36.9351C19.4302 38.252 18.9079 39.513 17.9833 40.4414C17.0587 41.3697 15.8074 41.8895 14.5039 41.8867ZM14.5039 32.4973C13.6363 32.5024 12.7896 32.767 12.0707 33.2577C11.3518 33.7485 10.7928 34.4434 10.4643 35.2547C10.1358 36.066 10.0524 36.9575 10.2248 37.8166C10.3972 38.6758 10.8175 39.4641 11.4328 40.0821C12.0481 40.7002 12.8308 41.1203 13.6821 41.2894C14.5334 41.4586 15.4152 41.3692 16.2163 41.0325C17.0174 40.6959 17.7019 40.1271 18.1834 39.3979C18.6649 38.6686 18.9219 37.8117 18.9219 36.9351C18.9165 35.7553 18.4484 34.6258 17.6203 33.794C16.7922 32.9622 15.6716 32.4959 14.5039 32.4973Z" fill="#0C6CF2"/>
<path d="M76.6644 57.3905C75.5591 57.3854 74.48 57.0495 73.5634 56.4253C72.6468 55.8011 71.9337 54.9166 71.5142 53.8833C71.0947 52.85 70.9876 51.7143 71.2063 50.6196C71.4251 49.5248 71.9599 48.5201 72.7433 47.7322C73.5267 46.9443 74.5236 46.4085 75.6081 46.1925C76.6926 45.9765 77.8162 46.09 78.8369 46.5185C79.8577 46.9471 80.7299 47.6716 81.3435 48.6006C81.9571 49.5295 82.2845 50.6213 82.2846 51.7381C82.2791 53.24 81.6844 54.6785 80.6309 55.7381C79.5774 56.7976 78.151 57.3919 76.6644 57.3905ZM76.6644 46.61C75.6605 46.6151 74.6805 46.9207 73.8483 47.4881C73.016 48.0555 72.3688 48.8593 71.9884 49.798C71.6079 50.7367 71.5112 51.7683 71.7106 52.7625C71.9099 53.7567 72.3964 54.6689 73.1084 55.384C73.8205 56.0991 74.7263 56.5851 75.7115 56.7805C76.6967 56.9758 77.7171 56.8719 78.6439 56.4819C79.5707 56.0918 80.3623 55.433 80.9188 54.5887C81.4754 53.7445 81.7718 52.7525 81.7708 51.7381C81.7654 50.3744 81.2247 49.0685 80.2673 48.1071C79.31 47.1456 78.0142 46.6072 76.6644 46.61Z" fill="#0C6CF2"/>
<path d="M50.0535 70.1122C49.084 70.1081 48.1375 69.8139 47.3334 69.2668C46.5294 68.7196 45.9037 67.944 45.5356 67.0379C45.1674 66.1318 45.0731 65.1358 45.2648 64.1757C45.4564 63.2155 45.9252 62.3342 46.6122 61.6431C47.2991 60.9519 48.1733 60.4819 49.1244 60.2923C50.0755 60.1027 51.0609 60.2021 51.9562 60.5778C52.8515 60.9536 53.6165 61.589 54.1546 62.4036C54.6928 63.2183 54.98 64.1759 54.98 65.1554C54.9746 66.4719 54.4532 67.7326 53.5298 68.6616C52.6065 69.5906 51.3565 70.1122 50.0535 70.1122ZM50.0535 60.7227C49.1854 60.7268 48.338 60.9907 47.6183 61.4811C46.8986 61.9714 46.3388 62.6663 46.0097 63.4778C45.6805 64.2894 45.5968 65.1813 45.769 66.0409C45.9412 66.9005 46.3617 67.6893 46.9773 68.3076C47.5929 68.926 48.376 69.3462 49.2278 69.5152C50.0796 69.6841 50.9618 69.5943 51.7632 69.257C52.5645 68.9197 53.2489 68.3501 53.73 67.6201C54.2111 66.8901 54.4673 66.0324 54.4663 65.1554C54.4609 63.9769 53.9934 62.8488 53.1663 62.0179C52.3391 61.1871 51.2198 60.7214 50.0535 60.7227Z" fill="#0C6CF2"/>
<path opacity="0.1" d="M49.8994 68.9184C52.0557 68.9184 53.8037 67.1523 53.8037 64.9737C53.8037 62.7951 52.0557 61.029 49.8994 61.029C47.7431 61.029 45.9951 62.7951 45.9951 64.9737C45.9951 67.1523 47.7431 68.9184 49.8994 68.9184Z" fill="#0C6CF2"/>
<path opacity="0.1" d="M57.0918 26.357C59.2481 26.357 60.9961 24.5909 60.9961 22.4123C60.9961 20.2336 59.2481 18.4675 57.0918 18.4675C54.9355 18.4675 53.1875 20.2336 53.1875 22.4123C53.1875 24.5909 54.9355 26.357 57.0918 26.357Z" fill="#0C6CF2"/>
<path opacity="0.1" d="M14.9663 40.8902C17.1226 40.8902 18.8706 39.1241 18.8706 36.9455C18.8706 34.7668 17.1226 33.0007 14.9663 33.0007C12.81 33.0007 11.062 34.7668 11.062 36.9455C11.062 39.1241 12.81 40.8902 14.9663 40.8902Z" fill="#0C6CF2"/>
<path opacity="0.1" d="M28.7802 10.7857C31.2514 10.7857 33.2547 8.76162 33.2547 6.26482C33.2547 3.76802 31.2514 1.74396 28.7802 1.74396C26.309 1.74396 24.3057 3.76802 24.3057 6.26482C24.3057 8.76162 26.309 10.7857 28.7802 10.7857Z" fill="#0C6CF2"/>
<path opacity="0.1" d="M16.4511 75.1469C18.9223 75.1469 20.9256 73.1229 20.9256 70.6261C20.9256 68.1293 18.9223 66.1052 16.4511 66.1052C13.9799 66.1052 11.9766 68.1293 11.9766 70.6261C11.9766 73.1229 13.9799 75.1469 16.4511 75.1469Z" fill="#0C6CF2"/>
<path opacity="0.1" d="M76.0429 55.9423C78.5141 55.9423 80.5174 53.9183 80.5174 51.4215C80.5174 48.9247 78.5141 46.9006 76.0429 46.9006C73.5717 46.9006 71.5684 48.9247 71.5684 51.4215C71.5684 53.9183 73.5717 55.9423 76.0429 55.9423Z" fill="#0C6CF2"/>
</g>
<defs>
<clipPath id="clip0_298_11067">
<rect width="81.5686" height="80" fill="white" transform="translate(0.71582)"/>
</clipPath>
</defs>
</svg>
