<svg fill="#0c6cf2" height="40" viewBox="0 0 40 40" width="40" xmlns="http://www.w3.org/2000/svg"><path d="m31.6665 13.3333-6.6667 6.6667h5c0 5.5166-4.4833 10-10 10-1.6833 0-3.2833-.4167-4.6666-1.1667l-2.4334 2.4333c2.05 1.3 4.4834 2.0667 7.1 2.0667 7.3667 0 13.3334-5.9667 13.3334-13.3333h5zm-21.66666 6.6667c0-5.5167 4.48336-10.00004 9.99996-10.00004 1.6834 0 3.2834.41664 4.6667 1.16664l2.4333-2.43331c-2.05-1.3-4.4833-2.06666-7.1-2.06666-7.3666 0-13.3333 5.96667-13.3333 13.33337h-5l6.66667 6.6666 6.66663-6.6666z"/></svg>