<svg fill="none" height="32" viewBox="0 0 32 32" width="32" xmlns="http://www.w3.org/2000/svg" xmlns:xlink="http://www.w3.org/1999/xlink"><linearGradient id="a" gradientUnits="userSpaceOnUse" x1="16.2496" x2="16.2496" y1="13.6676" y2="11.7728"><stop offset="0" stop-color="#2cc991"/><stop offset=".1918" stop-color="#2cc693"/><stop offset=".3508" stop-color="#2dbb99"/><stop offset=".4981" stop-color="#2eaaa2"/><stop offset=".6384" stop-color="#2f92b0"/><stop offset=".7737" stop-color="#3072c2"/><stop offset=".9034" stop-color="#324cd7"/><stop offset="1" stop-color="#342bea"/></linearGradient><linearGradient id="b"><stop offset="0" stop-color="#fff"/><stop offset=".05" stop-color="#2db79b"/><stop offset=".1149" stop-color="#2f92b0"/><stop offset=".1934" stop-color="#316dc5"/><stop offset=".272" stop-color="#3250d5"/><stop offset=".3497" stop-color="#333ce1"/><stop offset=".4262" stop-color="#342fe8"/><stop offset=".5" stop-color="#342bea"/><stop offset=".5674" stop-color="#352fe8"/><stop offset=".6372" stop-color="#373ce2"/><stop offset=".7082" stop-color="#3a50d9"/><stop offset=".78" stop-color="#3f6dcb"/><stop offset=".8524" stop-color="#4593ba"/><stop offset=".9244" stop-color="#4dc0a5"/><stop offset=".95" stop-color="#50d29d"/><stop offset="1" stop-color="#fff"/></linearGradient><linearGradient id="c" gradientUnits="userSpaceOnUse" x1="7.94093" x2="24.5557" xlink:href="#b" y1="4.79975" y2="4.79975"/><linearGradient id="d" gradientUnits="userSpaceOnUse" x1="10.5205" x2="21.9762" xlink:href="#b" y1="7.30926" y2="7.30926"/><linearGradient id="e" gradientUnits="userSpaceOnUse" x1="13.6746" x2="18.8247" xlink:href="#b" y1="9.98272" y2="9.98272"/><linearGradient id="f" gradientUnits="userSpaceOnUse" x1="3.99839" x2="28.4982" y1="21.5873" y2="21.5873"><stop offset="0" stop-color="#342ce9"/><stop offset=".1844" stop-color="#342bea"/><stop offset=".2074" stop-color="#3637e4"/><stop offset=".2935" stop-color="#3d60d1"/><stop offset=".3848" stop-color="#4383c1"/><stop offset=".4808" stop-color="#48a0b4"/><stop offset=".583" stop-color="#4bb6aa"/><stop offset=".6943" stop-color="#4ec6a3"/><stop offset=".8216" stop-color="#50cf9e"/><stop offset="1" stop-color="#50d29d"/></linearGradient><clipPath id="g"><path d="m0 0h32v32h-32z"/></clipPath><g clip-path="url(#g)"><path d="m16.2478 13.6758c.5264 0 .9532-.4267.9532-.9531s-.4268-.9532-.9532-.9532-.9531.4268-.9531.9532.4267.9531.9531.9531z" fill="url(#a)"/><path d="m8.97856 9.71086c-.1525-1.77919.31771-4.65131 2.12234-6.63383 1.2962-1.42336 3.0373-2.147739 5.1469-2.160448 2.1223.012709 3.8507.737088 5.147 2.160448 1.8046 1.96981 2.2621 4.85464 2.1096 6.63383h1.0167c.1779-2.08419-.3432-5.10881-2.3765-7.32009-1.4742-1.613982-3.4949-2.4654507-5.8587-2.490868-.0127 0-.0254 0-.0381 0s-.0254 0-.0381 0c-2.3638.0254173-4.3844.876886-5.8586 2.490868-2.03338 2.21128-2.55443 5.2359-2.37651 7.32009z" fill="url(#c)"/><path d="m21.9286 10.7403c.0127-.1271.4067-3.0882-1.3725-5.13427-.9786-1.13106-2.4146-1.70294-4.2574-1.71565-.0127 0-.0254 0-.0381 0s-.0254 0-.0381 0c-1.8428.01271-3.2788.5973-4.2574 1.71565-1.7919 2.04607-1.3979 5.00717-1.3725 5.13427h1.004c0-.0255-.3559-2.75778 1.131-4.46072.788-.90231 1.9826-1.35981 3.533-1.37252 1.5631.01271 2.745.47021 3.533 1.37252 1.4869 1.70294 1.131 4.42252 1.131 4.46072z" fill="url(#d)"/><path d="m18.815 11.7696c0-.0763.1271-1.81734-.8388-2.84673-.4321-.47021-1.004-.71168-1.6902-.72438-.0127 0-.0254 0-.0382 0-.0127 0-.0254 0-.0381 0-.6862.0127-1.2581.25417-1.6902.72438-.9659 1.0421-.8515 2.77043-.8388 2.84673l1.0167-.0254c0-.0127-.0889-1.4234.5719-2.13507.2415-.26688.5592-.39396.9785-.40667.4194.01271.7371.13979.9786.40667.6608.71167.5719 2.12237.5719 2.13507z" fill="url(#e)"/><path d="m26.9357 11.5535-.1398-.2669h-6.2018l-.1016.3686c-.4957 1.7919-2.9738 2.6433-4.2193 2.6433h-.0508c-1.3979 0-3.7236-.8514-4.2192-2.6433l-.1017-.3686h-6.20173l-.13979.2669c-1.95711 3.6855-2.33836 10.2685.40667 14.8944 1.46148 2.4527 4.40985 5.3757 10.24305 5.4519h.0381.0382c5.8332-.0762 8.7942-3.0119 10.243-5.4519 2.745-4.6386 2.3638-11.2089.4067-14.8944zm-1.2836 14.3606c-1.8935 3.1898-5.1469 4.9055-9.4043 4.9563-4.2573-.0508-7.51069-1.7665-9.40426-4.9563-2.50357-4.2065-2.22399-10.1414-.52105-13.6235h4.82921c.3686.915 1.1438 1.7156 2.2113 2.2875.9786.5338 1.8427.7625 2.8848.7625 1.2963 0 1.919-.2414 2.8849-.7625 1.0675-.5846 1.8427-1.3852 2.2112-2.2875h4.8293c1.7156 3.4948 1.9825 9.417-.5211 13.6235z" fill="url(#f)"/></g></svg>