<svg width="544" height="284" viewBox="0 0 544 284" fill="none" xmlns="http://www.w3.org/2000/svg">
<rect width="544" height="284" rx="24" fill="#F0F2F7"/>
<path d="M16.5568 127.864H19.7038V136.5H21.5334V127.864H24.6804V126.318H16.5568V127.864ZM25.3739 136.5H27.1737V132.011C27.1737 131.041 27.9045 130.355 28.8938 130.355C29.1971 130.355 29.5749 130.41 29.729 130.46V128.804C29.565 128.774 29.2816 128.754 29.0827 128.754C28.2077 128.754 27.4769 129.251 27.1985 130.136H27.119V128.864H25.3739V136.5ZM30.9247 136.5H32.7244V128.864H30.9247V136.5ZM31.8295 127.78C32.4013 127.78 32.8686 127.342 32.8686 126.805C32.8686 126.263 32.4013 125.826 31.8295 125.826C31.2528 125.826 30.7855 126.263 30.7855 126.805C30.7855 127.342 31.2528 127.78 31.8295 127.78ZM37.8961 139.523C39.9593 139.523 41.4806 138.578 41.4806 136.624V128.864H39.7058V130.126H39.6064C39.3329 129.575 38.7612 128.764 37.4139 128.764C35.649 128.764 34.2619 130.146 34.2619 132.657C34.2619 135.148 35.649 136.391 37.4089 136.391C38.7164 136.391 39.3279 135.69 39.6064 135.128H39.6958V136.575C39.6958 137.698 38.9501 138.161 37.926 138.161C36.8422 138.161 36.3649 137.648 36.1461 137.201L34.5254 137.594C34.8535 138.663 35.9522 139.523 37.8961 139.523ZM37.911 134.979C36.7228 134.979 36.0964 134.054 36.0964 132.647C36.0964 131.26 36.7129 130.241 37.911 130.241C39.0694 130.241 39.7058 131.2 39.7058 132.647C39.7058 134.104 39.0595 134.979 37.911 134.979ZM46.6461 139.523C48.7093 139.523 50.2306 138.578 50.2306 136.624V128.864H48.4558V130.126H48.3564C48.0829 129.575 47.5112 128.764 46.1639 128.764C44.399 128.764 43.0119 130.146 43.0119 132.657C43.0119 135.148 44.399 136.391 46.1589 136.391C47.4664 136.391 48.0779 135.69 48.3564 135.128H48.4458V136.575C48.4458 137.698 47.7001 138.161 46.676 138.161C45.5922 138.161 45.1149 137.648 44.8961 137.201L43.2754 137.594C43.6035 138.663 44.7022 139.523 46.6461 139.523ZM46.661 134.979C45.4728 134.979 44.8464 134.054 44.8464 132.647C44.8464 131.26 45.4629 130.241 46.661 130.241C47.8194 130.241 48.4558 131.2 48.4558 132.647C48.4558 134.104 47.8095 134.979 46.661 134.979ZM55.4558 136.649C57.2356 136.649 58.4586 135.779 58.7768 134.452L57.0964 134.263C56.8528 134.909 56.2562 135.247 55.4806 135.247C54.3173 135.247 53.5467 134.482 53.5318 133.174H58.8514V132.622C58.8514 129.942 57.2406 128.764 55.3613 128.764C53.1738 128.764 51.747 130.37 51.747 132.727C51.747 135.123 53.1539 136.649 55.4558 136.649ZM53.5368 131.961C53.5914 130.987 54.3123 130.166 55.3862 130.166C56.4203 130.166 57.1163 130.922 57.1262 131.961H53.5368ZM60.3739 136.5H62.1737V132.011C62.1737 131.041 62.9045 130.355 63.8938 130.355C64.1971 130.355 64.5749 130.41 64.729 130.46V128.804C64.565 128.774 64.2816 128.754 64.0827 128.754C63.2077 128.754 62.4769 129.251 62.1985 130.136H62.119V128.864H60.3739V136.5ZM69.3974 139.364H71.1971V135.297H71.2717C71.555 135.854 72.1467 136.634 73.4592 136.634C75.2589 136.634 76.6062 135.207 76.6062 132.692C76.6062 130.146 75.2191 128.764 73.4542 128.764C72.1069 128.764 71.5451 129.575 71.2717 130.126H71.1673V128.864H69.3974V139.364ZM71.1623 132.682C71.1623 131.2 71.7987 130.241 72.957 130.241C74.1552 130.241 74.7717 131.26 74.7717 132.682C74.7717 134.114 74.1452 135.158 72.957 135.158C71.8086 135.158 71.1623 134.163 71.1623 132.682ZM78.1474 136.5H79.9471V132.011C79.9471 131.041 80.6779 130.355 81.6673 130.355C81.9705 130.355 82.3484 130.41 82.5025 130.46V128.804C82.3384 128.774 82.055 128.754 81.8562 128.754C80.9812 128.754 80.2504 129.251 79.9719 130.136H79.8924V128.864H78.1474V136.5ZM83.6982 136.5H85.4979V128.864H83.6982V136.5ZM84.603 127.78C85.1747 127.78 85.642 127.342 85.642 126.805C85.642 126.263 85.1747 125.826 84.603 125.826C84.0263 125.826 83.5589 126.263 83.5589 126.805C83.5589 127.342 84.0263 127.78 84.603 127.78ZM90.6795 136.649C92.5985 136.649 93.8216 135.511 93.9508 133.89H92.2306C92.0765 134.71 91.4849 135.183 90.6944 135.183C89.5708 135.183 88.845 134.243 88.845 132.682C88.845 131.141 89.5858 130.216 90.6944 130.216C91.5595 130.216 92.0914 130.773 92.2306 131.509H93.9508C93.8265 129.853 92.5339 128.764 90.6696 128.764C88.4324 128.764 87.0204 130.38 87.0204 132.712C87.0204 135.023 88.3975 136.649 90.6795 136.649ZM98.8093 136.649C100.589 136.649 101.812 135.779 102.13 134.452L100.45 134.263C100.206 134.909 99.6097 135.247 98.8342 135.247C97.6708 135.247 96.9002 134.482 96.8853 133.174H102.205V132.622C102.205 129.942 100.594 128.764 98.7148 128.764C96.5273 128.764 95.1005 130.37 95.1005 132.727C95.1005 135.123 96.5075 136.649 98.8093 136.649ZM96.8903 131.961C96.945 130.987 97.6658 130.166 98.7397 130.166C99.7738 130.166 100.47 130.922 100.48 131.961H96.8903Z" fill="#121D33"/>
<path d="M19.5327 159.591H20.2315V158.632C22.0639 158.517 23.108 157.482 23.108 156.088C23.108 154.516 21.706 153.906 20.598 153.634L20.2315 153.54V150.808C21.0625 150.898 21.6335 151.349 21.7188 152.065H22.9886C22.9503 150.744 21.8466 149.768 20.2315 149.662V148.682H19.5327V149.67C17.9858 149.815 16.848 150.774 16.848 152.159C16.848 153.374 17.7173 154.085 19.1193 154.464L19.5327 154.575V157.473C18.6761 157.384 18.0028 156.932 17.9347 156.088H16.6136C16.6946 157.575 17.777 158.526 19.5327 158.636V159.591ZM20.2315 157.469V154.767C21.1264 155.01 21.804 155.321 21.804 156.075C21.804 156.834 21.1605 157.362 20.2315 157.469ZM19.5327 153.352C18.8892 153.169 18.1562 152.832 18.1605 152.082C18.1605 151.43 18.6804 150.932 19.5327 150.817V153.352ZM24.5621 158.5H30.3065V157.371H26.3775V157.307L28.1119 155.491C29.7099 153.876 30.1658 153.105 30.1658 152.129C30.1658 150.727 29.0238 149.653 27.3789 149.653C25.7468 149.653 24.5536 150.71 24.5536 152.304H25.8107C25.8065 151.366 26.4116 150.753 27.3533 150.753C28.2397 150.753 28.913 151.298 28.913 152.168C28.913 152.939 28.4528 153.493 27.5153 154.486L24.5621 157.545V158.5ZM31.9215 158.5H37.6658V157.371H33.7369V157.307L35.4712 155.491C37.0692 153.876 37.5252 153.105 37.5252 152.129C37.5252 150.727 36.3832 149.653 34.7383 149.653C33.1062 149.653 31.913 150.71 31.913 152.304H33.1701C33.1658 151.366 33.771 150.753 34.7127 150.753C35.5991 150.753 36.2724 151.298 36.2724 152.168C36.2724 152.939 35.8121 153.493 34.8746 154.486L31.9215 157.545V158.5ZM40.9556 157.307H39.7283L39.6857 157.784C39.5877 158.939 39.315 160.102 39.1999 160.631H40.1033C40.3079 160.072 40.7596 158.794 40.8917 157.771L40.9556 157.307ZM45.4482 158.641C47.4638 158.641 48.6442 156.996 48.6442 154.136C48.6442 151.298 47.4467 149.649 45.4482 149.649C43.4453 149.649 42.2521 151.294 42.2479 154.136C42.2479 156.991 43.4283 158.636 45.4482 158.641ZM45.4482 157.503C45.0263 157.503 44.6641 157.354 44.3743 157.06L46.9567 151.882C47.2038 152.44 47.3359 153.199 47.3359 154.136C47.3359 156.318 46.6243 157.503 45.4482 157.503ZM46.4964 151.192L43.9268 156.369C43.6839 155.815 43.5561 155.065 43.5561 154.136C43.5604 151.963 44.272 150.766 45.4482 150.766C45.8572 150.766 46.2109 150.911 46.4964 151.192ZM53.1942 158.641C55.2099 158.641 56.3903 156.996 56.3903 154.136C56.3903 151.298 55.1928 149.649 53.1942 149.649C51.1914 149.649 49.9982 151.294 49.994 154.136C49.994 156.991 51.1744 158.636 53.1942 158.641ZM53.1942 157.503C52.7724 157.503 52.4102 157.354 52.1204 157.06L54.7028 151.882C54.9499 152.44 55.082 153.199 55.082 154.136C55.082 156.318 54.3704 157.503 53.1942 157.503ZM54.2425 151.192L51.6729 156.369C51.43 155.815 51.3022 155.065 51.3022 154.136C51.3065 151.963 52.0181 150.766 53.1942 150.766C53.6033 150.766 53.957 150.911 54.2425 151.192ZM60.9403 158.641C62.956 158.641 64.1364 156.996 64.1364 154.136C64.1364 151.298 62.9389 149.649 60.9403 149.649C58.9375 149.649 57.7443 151.294 57.7401 154.136C57.7401 156.991 58.9205 158.636 60.9403 158.641ZM60.9403 157.503C60.5185 157.503 60.1562 157.354 59.8665 157.06L62.4489 151.882C62.696 152.44 62.8281 153.199 62.8281 154.136C62.8281 156.318 62.1165 157.503 60.9403 157.503ZM61.9886 151.192L59.419 156.369C59.1761 155.815 59.0483 155.065 59.0483 154.136C59.0526 151.963 59.7642 150.766 60.9403 150.766C61.3494 150.766 61.7031 150.911 61.9886 151.192Z" fill="#677184"/>
<path d="M111 102.917L120.972 82.0975C122.485 78.9394 126.505 77.9489 129.312 80.0428L130.958 81.271C132.36 82.3169 134.331 82.106 135.48 80.7873V80.7873C137.248 78.7581 140.566 79.5417 141.24 82.1473L147.494 106.34C147.991 108.264 148.832 110.083 149.976 111.708L154.881 118.679C156.876 121.514 160.542 122.632 163.78 121.393V121.393C167.622 119.924 171.934 121.789 173.494 125.595L184.77 153.119C186.478 157.287 191.273 159.241 195.407 157.453V157.453C197.597 156.506 200.094 156.58 202.224 157.654L210.544 161.852C216.124 164.668 222.924 162.208 225.41 156.473L229.308 147.481C230.506 144.719 234.116 144.044 236.23 146.186V146.186C238.278 148.26 241.757 147.705 243.057 145.096L246.678 137.829C248.091 134.993 251.81 134.269 254.183 136.368V136.368C255.666 137.679 257.801 137.95 259.565 137.05L263.883 134.848C266.851 133.333 270.482 134.233 272.399 136.958V136.958C274.317 139.684 277.947 140.583 280.916 139.069L286.128 136.41C290.719 134.068 296.34 135.794 298.826 140.308L299.88 142.222C302.222 146.475 307.854 147.548 311.592 144.449V144.449C315.303 141.372 320.898 142.4 323.27 146.597L341.056 178.078C347.363 189.24 362.857 190.714 371.155 180.939L371.548 180.477C371.981 179.965 372.459 179.493 372.976 179.065L378.68 174.336C380.38 172.927 382.898 173.151 384.322 174.838V174.838C386.231 177.098 389.843 176.595 391.063 173.9L391.746 172.389C393.021 169.571 396.501 168.541 399.105 170.212L402.416 172.337C406.121 174.714 411.029 173.858 413.709 170.366L422.173 159.341C425.357 155.193 431.776 155.772 434.166 160.424L438.828 169.498C439.343 170.5 440.757 170.548 441.338 169.584V169.584C441.959 168.555 443.493 168.696 443.915 169.821L451.393 189.732C454.59 198.243 465.831 200.046 471.529 192.961L472 192.375" stroke="#0C6CF2" stroke-width="4" stroke-linecap="round"/>
<line x1="209.5" y1="168" x2="209.5" y2="252" stroke="#65A5FF"/>
<path d="M190.856 260.636C190.856 257.845 189.186 256.153 186.927 256.153C184.66 256.153 182.994 257.845 182.994 260.636C182.994 263.423 184.66 265.119 186.927 265.119C189.186 265.119 190.856 263.428 190.856 260.636ZM189.552 260.636C189.552 262.763 188.427 263.918 186.927 263.918C185.423 263.918 184.302 262.763 184.302 260.636C184.302 258.51 185.423 257.355 186.927 257.355C188.427 257.355 189.552 258.51 189.552 260.636ZM192.396 267.455H193.67V263.982H193.746C193.977 264.399 194.445 265.128 195.638 265.128C197.224 265.128 198.374 263.858 198.374 261.74C198.374 259.618 197.207 258.369 195.626 258.369C194.411 258.369 193.972 259.111 193.746 259.516H193.64V258.455H192.396V267.455ZM193.644 261.727C193.644 260.359 194.241 259.452 195.353 259.452C196.508 259.452 197.087 260.428 197.087 261.727C197.087 263.04 196.491 264.041 195.353 264.041C194.258 264.041 193.644 263.104 193.644 261.727ZM202.623 265.132C204.05 265.132 205.06 264.429 205.35 263.364L204.144 263.146C203.914 263.764 203.36 264.08 202.636 264.08C201.545 264.08 200.812 263.372 200.778 262.111H205.431V261.659C205.431 259.294 204.016 258.369 202.533 258.369C200.71 258.369 199.508 259.759 199.508 261.77C199.508 263.803 200.692 265.132 202.623 265.132ZM200.782 261.156C200.833 260.227 201.506 259.422 202.542 259.422C203.531 259.422 204.178 260.155 204.183 261.156H200.782ZM208.119 261.114C208.119 260.07 208.758 259.473 209.645 259.473C210.51 259.473 211.034 260.04 211.034 260.99V265H212.308V260.837C212.308 259.217 211.417 258.369 210.079 258.369C209.095 258.369 208.451 258.825 208.149 259.52H208.068V258.455H206.845V265H208.119V261.114ZM214.017 265H215.291V258.455H214.017V265ZM214.66 257.445C215.099 257.445 215.466 257.104 215.466 256.686C215.466 256.268 215.099 255.923 214.66 255.923C214.217 255.923 213.855 256.268 213.855 256.686C213.855 257.104 214.217 257.445 214.66 257.445ZM218.279 261.114C218.279 260.07 218.918 259.473 219.805 259.473C220.67 259.473 221.194 260.04 221.194 260.99V265H222.468V260.837C222.468 259.217 221.577 258.369 220.239 258.369C219.255 258.369 218.612 258.825 218.309 259.52H218.228V258.455H217.005V265H218.279V261.114ZM226.921 267.591C228.587 267.591 229.874 266.828 229.874 265.145V258.455H228.626V259.516H228.532C228.306 259.111 227.854 258.369 226.636 258.369C225.055 258.369 223.891 259.618 223.891 261.702C223.891 263.79 225.08 264.902 226.627 264.902C227.829 264.902 228.293 264.224 228.523 263.807H228.604V265.094C228.604 266.121 227.901 266.564 226.934 266.564C225.873 266.564 225.46 266.031 225.234 265.656L224.138 266.108C224.484 266.909 225.357 267.591 226.921 267.591ZM226.908 263.845C225.771 263.845 225.178 262.972 225.178 261.685C225.178 260.428 225.758 259.452 226.908 259.452C228.021 259.452 228.617 260.359 228.617 261.685C228.617 263.036 228.008 263.845 226.908 263.845ZM237.209 265.128C238.402 265.128 238.871 264.399 239.101 263.982H239.208V265H240.452V256.273H239.178V259.516H239.101C238.871 259.111 238.436 258.369 237.218 258.369C235.637 258.369 234.473 259.618 234.473 261.74C234.473 263.858 235.62 265.128 237.209 265.128ZM237.49 264.041C236.353 264.041 235.76 263.04 235.76 261.727C235.76 260.428 236.34 259.452 237.49 259.452C238.603 259.452 239.199 260.359 239.199 261.727C239.199 263.104 238.59 264.041 237.49 264.041ZM244.175 265.145C245.258 265.145 245.867 264.595 246.11 264.105H246.161V265H247.406V260.653C247.406 258.749 245.906 258.369 244.866 258.369C243.681 258.369 242.59 258.847 242.164 260.04L243.362 260.312C243.549 259.848 244.026 259.401 244.883 259.401C245.705 259.401 246.127 259.831 246.127 260.572V260.602C246.127 261.067 245.65 261.058 244.474 261.195C243.234 261.339 241.964 261.663 241.964 263.151C241.964 264.438 242.931 265.145 244.175 265.145ZM244.452 264.122C243.732 264.122 243.212 263.798 243.212 263.168C243.212 262.486 243.817 262.243 244.555 262.145C244.968 262.089 245.948 261.979 246.131 261.795V262.639C246.131 263.415 245.513 264.122 244.452 264.122ZM252.158 258.455H250.816V256.886H249.542V258.455H248.583V259.477H249.542V263.342C249.537 264.531 250.445 265.107 251.451 265.085C251.855 265.081 252.128 265.004 252.277 264.949L252.047 263.896C251.962 263.913 251.804 263.952 251.6 263.952C251.186 263.952 250.816 263.815 250.816 263.078V259.477H252.158V258.455ZM256.318 265.132C257.746 265.132 258.756 264.429 259.045 263.364L257.839 263.146C257.609 263.764 257.055 264.08 256.331 264.08C255.24 264.08 254.507 263.372 254.473 262.111H259.126V261.659C259.126 259.294 257.712 258.369 256.229 258.369C254.405 258.369 253.203 259.759 253.203 261.77C253.203 263.803 254.388 265.132 256.318 265.132ZM254.477 261.156C254.528 260.227 255.202 259.422 256.237 259.422C257.226 259.422 257.874 260.155 257.878 261.156H254.477Z" fill="#677184"/>
<rect x="178.5" y="177.5" width="65" height="26" rx="3.5" fill="#F0F2F7"/>
<path d="M186.359 197.273H187.174V196.144C189.362 196.01 190.62 194.832 190.625 193.141C190.62 191.376 189.163 190.571 187.632 190.208L187.174 190.094V187.26C188.059 187.369 188.626 187.857 188.71 188.617H190.485C190.451 186.991 189.143 185.818 187.174 185.689V184.545H186.359V185.699C184.455 185.858 183.073 187.011 183.078 188.682C183.078 190.143 184.117 190.984 185.792 191.416L186.359 191.56V194.558C185.399 194.454 184.688 193.937 184.624 192.992H182.809C182.879 194.896 184.221 196.02 186.359 196.144V197.273ZM187.174 194.553V191.774C188.149 192.043 188.775 192.391 188.78 193.126C188.775 193.887 188.139 194.429 187.174 194.553ZM186.359 189.885C185.628 189.671 184.937 189.308 184.947 188.567C184.952 187.901 185.469 187.394 186.359 187.27V189.885ZM192.169 196H199.15V194.459H194.715V194.389L196.47 192.604C198.449 190.705 198.995 189.781 198.995 188.632C198.995 186.927 197.608 185.679 195.56 185.679C193.542 185.679 192.11 186.932 192.11 188.866H193.865C193.865 187.827 194.521 187.175 195.535 187.175C196.505 187.175 197.226 187.767 197.226 188.727C197.226 189.577 196.709 190.183 195.704 191.202L192.169 194.668V196ZM204.628 196.184C207.084 196.189 208.551 194.25 208.551 190.909C208.551 187.588 207.074 185.669 204.628 185.669C202.182 185.669 200.711 187.583 200.706 190.909C200.706 194.245 202.172 196.184 204.628 196.184ZM204.628 194.628C204.176 194.628 203.783 194.469 203.47 194.151L206.309 188.508C206.552 189.109 206.691 189.91 206.691 190.909C206.691 193.355 205.901 194.628 204.628 194.628ZM202.933 193.286C202.694 192.689 202.57 191.893 202.57 190.909C202.575 188.483 203.366 187.205 204.628 187.205C205.066 187.205 205.444 187.354 205.757 187.653L202.933 193.286ZM211.939 194.608H210.348L210.313 195.165C210.229 196.512 209.876 197.884 209.732 198.486H210.945C211.183 197.859 211.735 196.408 211.874 195.155L211.939 194.608ZM213.434 193.231C213.514 195.006 215.065 196.139 217.158 196.139C219.335 196.139 220.931 194.896 220.931 193.112C220.931 191.645 219.853 190.342 217.834 190.173V190.094L220.568 187.151V185.818H213.936V187.359H218.242V187.429L215.885 190.014V191.342H216.894C218.361 191.342 219.037 192.092 219.037 193.017C219.037 194.016 218.252 194.593 217.173 194.593C216.159 194.593 215.373 194.091 215.299 193.231H213.434ZM226.263 196.139C228.466 196.139 230.042 194.926 230.047 193.271C230.042 191.998 229.102 190.934 227.919 190.735V190.665C228.948 190.437 229.664 189.512 229.669 188.408C229.664 186.842 228.222 185.679 226.263 185.679C224.29 185.679 222.848 186.837 222.853 188.408C222.848 189.512 223.554 190.437 224.603 190.665V190.735C223.4 190.934 222.47 191.998 222.475 193.271C222.47 194.926 224.041 196.139 226.263 196.139ZM226.263 194.717C225.11 194.717 224.364 194.081 224.374 193.141C224.364 192.167 225.165 191.476 226.263 191.476C227.347 191.476 228.143 192.172 228.153 193.141C228.143 194.081 227.402 194.717 226.263 194.717ZM226.263 190.079C225.319 190.079 224.643 189.467 224.653 188.582C224.643 187.707 225.299 187.121 226.263 187.121C227.213 187.121 227.864 187.707 227.874 188.582C227.864 189.472 227.193 190.079 226.263 190.079ZM231.522 193.231C231.602 195.006 233.153 196.139 235.246 196.139C237.423 196.139 239.019 194.896 239.019 193.112C239.019 191.645 237.94 190.342 235.922 190.173V190.094L238.656 187.151V185.818H232.024V187.359H236.33V187.429L233.973 190.014V191.342H234.982C236.449 191.342 237.125 192.092 237.125 193.017C237.125 194.016 236.34 194.593 235.261 194.593C234.247 194.593 233.461 194.091 233.386 193.231H231.522Z" fill="#121D33"/>
<rect x="178.5" y="177.5" width="65" height="26" rx="3.5" stroke="#DFE3EB"/>
<line x1="472.5" y1="193" x2="472.5" y2="252" stroke="#65A5FF"/>
<path d="M441.746 265H447.269V263.866H443.063V261.195H446.932V260.065H443.063V257.406H447.218V256.273H441.746V265ZM449.88 258.455H448.482L450.493 261.727L448.456 265H449.854L451.324 262.554L452.799 265H454.192L452.134 261.727L454.175 258.455H452.782L451.324 261.003L449.88 258.455ZM455.483 267.455H456.758V263.982H456.834C457.064 264.399 457.533 265.128 458.726 265.128C460.312 265.128 461.462 263.858 461.462 261.74C461.462 259.618 460.295 258.369 458.714 258.369C457.499 258.369 457.06 259.111 456.834 259.516H456.728V258.455H455.483V267.455ZM456.732 261.727C456.732 260.359 457.329 259.452 458.441 259.452C459.596 259.452 460.175 260.428 460.175 261.727C460.175 263.04 459.579 264.041 458.441 264.041C457.346 264.041 456.732 263.104 456.732 261.727ZM462.89 265H464.164V258.455H462.89V265ZM463.533 257.445C463.972 257.445 464.339 257.104 464.339 256.686C464.339 256.268 463.972 255.923 463.533 255.923C463.09 255.923 462.728 256.268 462.728 256.686C462.728 257.104 463.09 257.445 463.533 257.445ZM465.878 265H467.152V261.003C467.152 260.146 467.813 259.528 468.716 259.528C468.98 259.528 469.279 259.575 469.381 259.605V258.386C469.253 258.369 469.002 258.357 468.84 258.357C468.073 258.357 467.416 258.791 467.178 259.494H467.11V258.455H465.878V265ZM472.33 265.145C473.412 265.145 474.021 264.595 474.264 264.105H474.316V265H475.56V260.653C475.56 258.749 474.06 258.369 473.02 258.369C471.835 258.369 470.744 258.847 470.318 260.04L471.516 260.312C471.703 259.848 472.181 259.401 473.037 259.401C473.86 259.401 474.281 259.831 474.281 260.572V260.602C474.281 261.067 473.804 261.058 472.628 261.195C471.388 261.339 470.118 261.663 470.118 263.151C470.118 264.438 471.085 265.145 472.33 265.145ZM472.607 264.122C471.887 264.122 471.367 263.798 471.367 263.168C471.367 262.486 471.972 262.243 472.709 262.145C473.122 262.089 474.102 261.979 474.286 261.795V262.639C474.286 263.415 473.668 264.122 472.607 264.122ZM480.312 258.455H478.97V256.886H477.696V258.455H476.737V259.477H477.696V263.342C477.692 264.531 478.599 265.107 479.605 265.085C480.01 265.081 480.282 265.004 480.432 264.949L480.202 263.896C480.116 263.913 479.959 263.952 479.754 263.952C479.341 263.952 478.97 263.815 478.97 263.078V259.477H480.312V258.455ZM481.722 265H482.996V258.455H481.722V265ZM482.365 257.445C482.804 257.445 483.171 257.104 483.171 256.686C483.171 256.268 482.804 255.923 482.365 255.923C481.922 255.923 481.56 256.268 481.56 256.686C481.56 257.104 481.922 257.445 482.365 257.445ZM487.467 265.132C489.312 265.132 490.518 263.781 490.518 261.757C490.518 259.72 489.312 258.369 487.467 258.369C485.622 258.369 484.416 259.72 484.416 261.757C484.416 263.781 485.622 265.132 487.467 265.132ZM487.471 264.062C486.265 264.062 485.703 263.01 485.703 261.753C485.703 260.5 486.265 259.435 487.471 259.435C488.669 259.435 489.231 260.5 489.231 261.753C489.231 263.01 488.669 264.062 487.471 264.062ZM493.215 261.114C493.215 260.07 493.854 259.473 494.74 259.473C495.605 259.473 496.129 260.04 496.129 260.99V265H497.404V260.837C497.404 259.217 496.513 258.369 495.175 258.369C494.191 258.369 493.547 258.825 493.244 259.52H493.164V258.455H491.941V265H493.215V261.114ZM504.738 265.128C505.932 265.128 506.4 264.399 506.631 263.982H506.737V265H507.981V256.273H506.707V259.516H506.631C506.4 259.111 505.966 258.369 504.747 258.369C503.166 258.369 502.003 259.618 502.003 261.74C502.003 263.858 503.149 265.128 504.738 265.128ZM505.02 264.041C503.882 264.041 503.29 263.04 503.29 261.727C503.29 260.428 503.869 259.452 505.02 259.452C506.132 259.452 506.729 260.359 506.729 261.727C506.729 263.104 506.119 264.041 505.02 264.041ZM511.705 265.145C512.787 265.145 513.396 264.595 513.639 264.105H513.691V265H514.935V260.653C514.935 258.749 513.435 258.369 512.395 258.369C511.21 258.369 510.119 258.847 509.693 260.04L510.891 260.312C511.078 259.848 511.556 259.401 512.412 259.401C513.235 259.401 513.656 259.831 513.656 260.572V260.602C513.656 261.067 513.179 261.058 512.003 261.195C510.763 261.339 509.493 261.663 509.493 263.151C509.493 264.438 510.46 265.145 511.705 265.145ZM511.982 264.122C511.262 264.122 510.742 263.798 510.742 263.168C510.742 262.486 511.347 262.243 512.084 262.145C512.497 262.089 513.477 261.979 513.661 261.795V262.639C513.661 263.415 513.043 264.122 511.982 264.122ZM519.687 258.455H518.345V256.886H517.071V258.455H516.112V259.477H517.071V263.342C517.067 264.531 517.974 265.107 518.98 265.085C519.385 265.081 519.657 265.004 519.807 264.949L519.577 263.896C519.491 263.913 519.334 263.952 519.129 263.952C518.716 263.952 518.345 263.815 518.345 263.078V259.477H519.687V258.455ZM523.847 265.132C525.275 265.132 526.285 264.429 526.575 263.364L525.369 263.146C525.139 263.764 524.585 264.08 523.86 264.08C522.769 264.08 522.036 263.372 522.002 262.111H526.656V261.659C526.656 259.294 525.241 258.369 523.758 258.369C521.934 258.369 520.732 259.759 520.732 261.77C520.732 263.803 521.917 265.132 523.847 265.132ZM522.007 261.156C522.058 260.227 522.731 259.422 523.767 259.422C524.755 259.422 525.403 260.155 525.407 261.156H522.007Z" fill="#677184"/>
<rect x="441.5" y="209.5" width="64" height="26" rx="3.5" fill="#F0F2F7"/>
<path d="M449.536 229.273H450.351V228.144C452.539 228.01 453.796 226.832 453.801 225.141C453.796 223.376 452.34 222.571 450.808 222.208L450.351 222.094V219.26C451.236 219.369 451.803 219.857 451.887 220.617H453.662C453.627 218.991 452.32 217.818 450.351 217.689V216.545H449.536V217.699C447.632 217.858 446.249 219.011 446.254 220.682C446.254 222.143 447.294 222.984 448.969 223.416L449.536 223.56V226.558C448.576 226.454 447.865 225.937 447.801 224.992H445.986C446.056 226.896 447.398 228.02 449.536 228.144V229.273ZM450.351 226.553V223.774C451.325 224.043 451.952 224.391 451.957 225.126C451.952 225.887 451.316 226.429 450.351 226.553ZM449.536 221.885C448.805 221.671 448.114 221.308 448.124 220.567C448.129 219.901 448.646 219.394 449.536 219.27V221.885ZM459.488 217.818H457.733L455.202 219.444V221.134L457.583 219.613H457.643V228H459.488V217.818ZM465.692 228.139C467.895 228.139 469.471 226.926 469.475 225.271C469.471 223.998 468.531 222.934 467.348 222.735V222.665C468.377 222.437 469.093 221.512 469.098 220.408C469.093 218.842 467.651 217.679 465.692 217.679C463.718 217.679 462.277 218.837 462.282 220.408C462.277 221.512 462.983 222.437 464.032 222.665V222.735C462.828 222.934 461.899 223.998 461.904 225.271C461.899 226.926 463.47 228.139 465.692 228.139ZM465.692 226.717C464.539 226.717 463.793 226.081 463.803 225.141C463.793 224.167 464.593 223.476 465.692 223.476C466.776 223.476 467.571 224.172 467.581 225.141C467.571 226.081 466.831 226.717 465.692 226.717ZM465.692 222.079C464.748 222.079 464.071 221.467 464.081 220.582C464.071 219.707 464.728 219.121 465.692 219.121C466.642 219.121 467.293 219.707 467.303 220.582C467.293 221.472 466.622 222.079 465.692 222.079ZM472.942 226.608H471.351L471.316 227.165C471.232 228.512 470.879 229.884 470.735 230.486H471.948C472.186 229.859 472.738 228.408 472.877 227.155L472.942 226.608ZM478.305 228.184C480.761 228.189 482.228 226.25 482.228 222.909C482.228 219.588 480.751 217.669 478.305 217.669C475.859 217.669 474.387 219.583 474.382 222.909C474.382 226.245 475.849 228.184 478.305 228.184ZM478.305 226.628C477.853 226.628 477.46 226.469 477.147 226.151L479.985 220.508C480.229 221.109 480.368 221.91 480.368 222.909C480.368 225.355 479.578 226.628 478.305 226.628ZM476.61 225.286C476.371 224.689 476.247 223.893 476.247 222.909C476.252 220.483 477.042 219.205 478.305 219.205C478.743 219.205 479.12 219.354 479.434 219.653L476.61 225.286ZM487.643 228.184C490.099 228.189 491.566 226.25 491.566 222.909C491.566 219.588 490.089 217.669 487.643 217.669C485.197 217.669 483.725 219.583 483.72 222.909C483.72 226.245 485.187 228.184 487.643 228.184ZM487.643 226.628C487.191 226.628 486.798 226.469 486.485 226.151L489.323 220.508C489.567 221.109 489.706 221.91 489.706 222.909C489.706 225.355 488.916 226.628 487.643 226.628ZM485.948 225.286C485.709 224.689 485.585 223.893 485.585 222.909C485.59 220.483 486.38 219.205 487.643 219.205C488.08 219.205 488.458 219.354 488.771 219.653L485.948 225.286ZM496.981 228.184C499.437 228.189 500.903 226.25 500.903 222.909C500.903 219.588 499.427 217.669 496.981 217.669C494.535 217.669 493.063 219.583 493.058 222.909C493.058 226.245 494.525 228.184 496.981 228.184ZM496.981 226.628C496.528 226.628 496.136 226.469 495.822 226.151L498.661 220.508C498.905 221.109 499.044 221.91 499.044 222.909C499.044 225.355 498.254 226.628 496.981 226.628ZM495.286 225.286C495.047 224.689 494.923 223.893 494.923 222.909C494.928 220.483 495.718 219.205 496.981 219.205C497.418 219.205 497.796 219.354 498.109 219.653L495.286 225.286Z" fill="#121D33"/>
<rect x="441.5" y="209.5" width="64" height="26" rx="3.5" stroke="#DFE3EB"/>
<path d="M472 142L134 142" stroke="#DFE3EB" stroke-width="2" stroke-linecap="round" stroke-linejoin="round" stroke-dasharray="4 4"/>
<g clip-path="url(#clip0_2452_171161)">
<path fill-rule="evenodd" clip-rule="evenodd" d="M207.012 169H210.992V163.985H215.985V160.005H210.992V155H207.012V160.005H202V163.985H207.012V169Z" fill="black"/>
<path fill-rule="evenodd" clip-rule="evenodd" d="M208 168H209.969V163H214.983V161.031H209.969V156.014H208V161.031H203.016V163H208V168Z" fill="white"/>
</g>
<g clip-path="url(#clip1_2452_171161)">
<path fill-rule="evenodd" clip-rule="evenodd" d="M470.012 200H473.992V194.985H478.985V191.005H473.992V186H470.012V191.005H465V194.985H470.012V200Z" fill="black"/>
<path fill-rule="evenodd" clip-rule="evenodd" d="M471 199H472.969V194H477.983V192.031H472.969V187.014H471V192.031H466.016V194H471V199Z" fill="white"/>
</g>
<path d="M17.0043 32H21.1257C23.4574 32 24.6009 30.8118 24.6009 29.2259C24.6009 27.6847 23.5071 26.7798 22.4233 26.7251V26.6257C23.4176 26.392 24.2031 25.696 24.2031 24.4581C24.2031 22.9418 23.1094 21.8182 20.902 21.8182H17.0043V32ZM18.8487 30.4588V27.4759H20.8821C22.0206 27.4759 22.7266 28.1719 22.7266 29.0817C22.7266 29.892 22.1697 30.4588 20.8324 30.4588H18.8487ZM18.8487 26.1484V23.3395H20.7131C21.7969 23.3395 22.3587 23.9112 22.3587 24.6967C22.3587 25.5916 21.6328 26.1484 20.6733 26.1484H18.8487ZM25.758 23.3643H28.905V32H30.7346V23.3643H33.8816V21.8182H25.758V23.3643ZM43.7253 25.2536C43.4121 22.9915 41.6721 21.679 39.415 21.679C36.7551 21.679 34.7516 23.6179 34.7516 26.9091C34.7516 30.1953 36.7303 32.1392 39.415 32.1392C41.8361 32.1392 43.4419 30.5732 43.7253 28.6293L41.8659 28.6193C41.6323 29.8125 40.6578 30.4837 39.4398 30.4837C37.7892 30.4837 36.606 29.2457 36.606 26.9091C36.606 24.6122 37.7793 23.3345 39.4448 23.3345C40.6827 23.3345 41.6522 24.0355 41.8659 25.2536H43.7253Z" fill="#677184"/>
<defs>
<clipPath id="clip0_2452_171161">
<rect width="14" height="14" fill="white" transform="translate(202 155)"/>
</clipPath>
<clipPath id="clip1_2452_171161">
<rect width="14" height="14" fill="white" transform="translate(465 186)"/>
</clipPath>
</defs>
</svg>
