<svg fill="none" height="24" viewBox="0 0 24 24" width="24" xmlns="http://www.w3.org/2000/svg"><path clip-rule="evenodd" d="m.75 4.5c0-.82843.67157-1.5 1.5-1.5h19.5c.8284 0 1.5.67157 1.5 1.5v10.5c0 .8284-.6716 1.5-1.5 1.5h-19.5c-.82843 0-1.5-.6716-1.5-1.5zm2-.5c-.55228 0-1 .44772-1 1v2c1.65685 0 3-1.34315 3-3zm12.25 5.75c0 1.6569-1.3431 3-3 3s-3-1.3431-3-3c0-1.65685 1.3431-3 3-3s3 1.34315 3 3zm-13.25 2.75c1.65685 0 3 1.3431 3 3h-2c-.55228 0-1-.4477-1-1zm19.5-8.5h-2c0 1.65685 1.3431 3 3 3v-2c0-.55228-.4477-1-1-1zm-2 11.5c0-1.6569 1.3431-3 3-3v2c0 .5523-.4477 1-1 1zm-16.78033 3.0303c.14065.1407.33142.2197.53033.2197h18c.1989 0 .3897-.079.5303-.2197.1407-.1406.2197-.3314.2197-.5303s-.079-.3897-.2197-.5303c-.1406-.1407-.3314-.2197-.5303-.2197h-18c-.19891 0-.38968.079-.53033.2197-.14065.1406-.21967.3314-.21967.5303s.07902.3897.21967.5303zm1.5 2.25c.14065.1407.33142.2197.53033.2197h15c.1989 0 .3897-.079.5303-.2197.1407-.1406.2197-.3314.2197-.5303s-.079-.3897-.2197-.5303c-.1406-.1407-.3314-.2197-.5303-.2197h-15c-.19891 0-.38968.079-.53033.2197-.14065.1406-.21967.3314-.21967.5303s.07902.3897.21967.5303z" fill="#000" fill-rule="evenodd"/></svg>