<svg width="254" height="247" viewBox="0 0 254 247" fill="none" xmlns="http://www.w3.org/2000/svg">
<g clip-path="url(#clip0_78_7168)">
<path d="M235.939 130.061H238.146C238.572 104.799 230.86 80.0696 216.15 59.5273L214.471 61.0311C222.804 72.6829 228.896 85.7842 232.435 99.6657C234.933 109.6 236.111 119.82 235.939 130.061Z" fill="#D8EBFD"/>
<path d="M221.238 184.693C210.646 203.623 194.963 219.207 175.967 229.679L176.847 231.727C196.277 221.034 212.312 205.097 223.126 185.733C222.486 185.413 221.846 185.029 221.238 184.693Z" fill="#D8EBFD"/>
<path d="M25.836 198.179C18.9326 189.08 13.4027 179.017 9.42305 168.311C4.44198 154.903 2.0061 140.683 2.24042 126.381L0.0168172 126.109C-0.259314 140.766 2.22621 155.343 7.34346 169.079C11.4475 180.098 17.1677 190.444 24.3162 199.779C24.7961 199.267 25.3081 198.707 25.836 198.179Z" fill="#D8EBFD"/>
<path d="M129.911 243.87C110.105 245.737 90.1517 242.499 71.9536 234.463C71.5536 235.103 71.1057 235.727 70.6738 236.319C89.4197 244.635 109.991 247.985 130.407 246.045L129.911 243.87Z" fill="#D8EBFD"/>
<path d="M46.8712 236.35C43.4331 236.331 40.0775 235.294 37.228 233.37C34.3785 231.446 32.1626 228.721 30.86 225.539C29.5573 222.357 29.2264 218.86 29.9087 215.49C30.5911 212.12 32.2562 209.028 34.6941 206.603C37.132 204.179 40.2333 202.53 43.6069 201.867C46.9804 201.203 50.475 201.553 53.6497 202.873C56.8244 204.193 59.537 206.424 61.4452 209.284C63.3535 212.145 64.3719 215.506 64.3719 218.944C64.3508 223.571 62.4971 228 59.2169 231.262C55.9367 234.525 51.4974 236.354 46.8712 236.35ZM46.8712 203.139C43.7495 203.158 40.7032 204.101 38.1167 205.849C35.5303 207.597 33.5194 210.072 32.3379 212.962C31.1564 215.852 30.8571 219.027 31.4777 222.086C32.0984 225.146 33.6111 227.953 35.8253 230.154C38.0394 232.355 40.8557 233.851 43.919 234.453C46.9822 235.055 50.1551 234.737 53.0375 233.538C55.9199 232.339 58.3827 230.313 60.1151 227.716C61.8476 225.118 62.7722 222.066 62.7722 218.944C62.7553 214.741 61.0715 210.716 58.0904 207.753C55.1093 204.79 51.0744 203.13 46.8712 203.139Z" fill="#D8EBFD"/>
<path d="M139.334 11.5032C131.32 10.1475 123.189 9.6115 115.066 9.90341C115.258 10.6393 115.418 11.4072 115.562 12.1111C137.89 11.3891 159.956 17.0795 179.15 28.5088L180.494 26.717C167.841 19.1265 153.882 13.9667 139.334 11.5032Z" fill="#D8EBFD"/>
<path d="M58.2138 26.4277C50.1923 31.1726 42.7515 36.8367 36.042 43.3053C25.4852 53.483 16.9237 65.5444 10.7988 78.8683L12.9104 79.5882C22.7488 58.2846 38.819 40.4676 58.9977 28.4914C58.7097 27.7875 58.4378 27.1476 58.2138 26.4277Z" fill="#D8EBFD"/>
<path d="M86.3993 34.8273C82.9573 34.8115 79.5971 33.7763 76.7428 31.8524C73.8885 29.9285 71.6681 27.2021 70.3618 24.0174C69.0555 20.8327 68.722 17.3323 69.4032 13.9582C70.0843 10.584 71.7498 7.4873 74.1893 5.05885C76.6287 2.6304 79.7329 0.979086 83.11 0.31333C86.4871 -0.352426 89.9857 -0.00278741 93.1643 1.31813C96.3428 2.63904 99.0589 4.87201 100.97 7.73521C102.88 10.5984 103.9 13.9635 103.9 17.4057C103.883 22.0349 102.031 26.4684 98.7506 29.7342C95.47 33 91.0282 34.8315 86.3993 34.8273ZM86.3993 1.59997C83.273 1.61578 80.2214 2.55753 77.6299 4.30634C75.0383 6.05514 73.023 8.53259 71.8382 11.4259C70.6535 14.3193 70.3526 17.4988 70.9733 20.563C71.5941 23.6273 73.1087 26.4389 75.3261 28.643C77.5435 30.8471 80.3641 32.3448 83.4319 32.947C86.4997 33.5492 89.6772 33.229 92.5632 32.0267C95.4492 30.8244 97.9142 28.794 99.6472 26.1918C101.38 23.5896 102.303 20.5322 102.3 17.4057C102.283 13.2024 100.6 9.1774 97.6185 6.21416C94.6374 3.25092 90.6025 1.59146 86.3993 1.59997Z" fill="#D8EBFD"/>
<path d="M188.828 84.2129C188.428 84.5168 187.996 84.7728 187.58 85.0448C195.831 97.3841 200.433 111.801 200.858 126.639L202.377 126.735C202.077 116.705 199.906 106.82 195.978 97.587C194.026 92.9114 191.632 88.433 188.828 84.2129Z" fill="#D8EBFD"/>
<path d="M159.57 57.6562C153.241 54.2671 146.498 51.718 139.51 50.0733C129.686 47.7733 119.521 47.3177 109.531 48.7295L109.899 50.2333C126.74 47.888 143.89 50.9818 158.85 59.064C159.022 58.5631 159.264 58.0891 159.57 57.6562Z" fill="#D8EBFD"/>
<path d="M177.023 83.14C174.012 83.1085 171.077 82.1866 168.588 80.4905C166.1 78.7945 164.169 76.4 163.038 73.6087C161.908 70.8173 161.628 67.7538 162.235 64.8039C162.842 61.854 164.308 59.1496 166.448 57.0312C168.589 54.9127 171.308 53.475 174.264 52.899C177.22 52.3229 180.28 52.6344 183.06 53.794C185.839 54.9537 188.213 56.9098 189.883 59.416C191.553 61.9222 192.444 64.8665 192.444 67.8782C192.436 69.8935 192.03 71.8874 191.25 73.7457C190.47 75.604 189.331 77.2902 187.899 78.7079C186.467 80.1255 184.769 81.2466 182.902 82.0072C181.036 82.7677 179.038 83.1527 177.023 83.14ZM177.023 54.2161C174.328 54.2477 171.703 55.0757 169.477 56.596C167.252 58.1162 165.526 60.2608 164.516 62.7598C163.507 65.2589 163.259 68.0007 163.804 70.6402C164.349 73.2798 165.663 75.6992 167.579 77.5939C169.496 79.4886 171.93 80.774 174.576 81.2883C177.222 81.8026 179.96 81.5229 182.447 80.4843C184.934 79.4457 187.059 77.6947 188.553 75.4515C190.047 73.2084 190.844 70.5734 190.844 67.8782C190.836 66.0729 190.472 64.2871 189.772 62.6229C189.073 60.9587 188.052 59.4488 186.768 58.1797C185.484 56.9107 183.962 55.9073 182.29 55.2272C180.618 54.5471 178.828 54.2035 177.023 54.2161Z" fill="#D8EBFD"/>
<path d="M134.342 207.331C116.783 210.306 98.7335 207.369 83.0236 198.98L82.1758 200.244C91.0524 204.999 100.735 208.064 110.73 209.283C118.761 210.273 126.894 210.085 134.87 208.723C134.678 208.275 134.502 207.811 134.342 207.331Z" fill="#D8EBFD"/>
<path d="M195.035 158.857C191.336 167.938 185.976 176.25 179.23 183.366C176.674 186.071 173.932 188.595 171.024 190.917C171.28 191.354 171.52 191.802 171.744 192.261C182.74 183.632 191.279 172.268 196.507 159.305L195.035 158.857Z" fill="#D8EBFD"/>
<path d="M41.1115 133.869C40.6 133.867 40.0903 133.808 39.5918 133.693C39.9693 140.058 41.0914 146.356 42.9352 152.459C45.8439 162.069 50.5264 171.049 56.7406 178.935L57.8443 177.879C47.9466 165.272 42.1264 149.948 41.1595 133.949L41.1115 133.869Z" fill="#D8EBFD"/>
<path d="M78.1938 59.9434C69.6357 65.1889 62.128 71.9808 56.054 79.9725C52.7051 84.4086 49.8162 89.1738 47.4316 94.1945C47.9275 94.2905 48.4234 94.4185 48.9513 94.5624C55.4935 80.8057 65.8846 69.2416 78.8657 61.2712L78.1938 59.9434Z" fill="#D8EBFD"/>
<path d="M42.9354 129.102C39.9167 129.087 36.9702 128.177 34.4681 126.488C31.966 124.799 30.0204 122.406 28.8769 119.612C27.7333 116.818 27.4431 113.748 28.0428 110.789C28.6426 107.831 30.1055 105.116 32.2468 102.988C34.3881 100.86 37.1118 99.414 40.0741 98.8327C43.0364 98.2515 46.1045 98.5609 48.8911 99.7221C51.6777 100.883 54.0578 102.844 55.731 105.357C57.4043 107.869 58.2956 110.822 58.2925 113.841C58.2756 117.9 56.6491 121.786 53.77 124.647C50.8909 127.509 46.9944 129.111 42.9354 129.102ZM42.9354 100.162C40.2337 100.178 37.5973 100.994 35.3586 102.506C33.1199 104.019 31.3793 106.161 30.3563 108.661C29.3334 111.162 29.0739 113.91 29.6106 116.558C30.1473 119.206 31.4563 121.635 33.3722 123.54C35.2882 125.445 37.7254 126.74 40.3763 127.261C43.0273 127.783 45.7732 127.507 48.2678 126.47C50.7624 125.432 52.8938 123.679 54.3932 121.431C55.8925 119.184 56.6928 116.542 56.6928 113.841C56.6759 110.204 55.2185 106.723 52.6398 104.159C50.0612 101.595 46.5716 100.158 42.9354 100.162Z" fill="#D8EBFD"/>
<path d="M236.499 176.888C233.057 176.872 229.697 175.837 226.842 173.913C223.988 171.989 221.768 169.263 220.461 166.078C219.155 162.893 218.822 159.393 219.503 156.019C220.184 152.645 221.849 149.548 224.289 147.119C226.728 144.691 229.833 143.04 233.21 142.374C236.587 141.708 240.085 142.058 243.264 143.379C246.442 144.7 249.159 146.933 251.069 149.796C252.98 152.659 254 156.024 254 159.466C253.983 164.095 252.131 168.529 248.85 171.795C245.57 175.061 241.128 176.892 236.499 176.888ZM236.499 143.661C233.373 143.676 230.321 144.618 227.73 146.367C225.138 148.116 223.123 150.593 221.938 153.486C220.753 156.38 220.452 159.559 221.073 162.624C221.694 165.688 223.208 168.499 225.426 170.704C227.643 172.908 230.464 174.405 233.531 175.008C236.599 175.61 239.777 175.29 242.663 174.087C245.549 172.885 248.014 170.855 249.747 168.252C251.48 165.65 252.403 162.593 252.4 159.466C252.383 155.263 250.699 151.238 247.718 148.275C244.737 145.311 240.702 143.652 236.499 143.661Z" fill="#D8EBFD"/>
<path d="M153.635 216.097C150.616 216.084 147.669 215.177 145.165 213.491C142.661 211.804 140.713 209.414 139.567 206.621C138.42 203.828 138.127 200.759 138.723 197.799C139.32 194.84 140.78 192.123 142.919 189.993C145.058 187.863 147.78 186.414 150.742 185.83C153.704 185.246 156.772 185.552 159.56 186.71C162.348 187.868 164.73 189.826 166.406 192.337C168.082 194.849 168.976 197.8 168.976 200.819C168.959 204.877 167.335 208.762 164.46 211.626C161.585 214.489 157.693 216.097 153.635 216.097ZM153.635 187.157C150.932 187.169 148.293 187.983 146.052 189.494C143.811 191.005 142.068 193.147 141.043 195.648C140.018 198.15 139.757 200.899 140.293 203.548C140.83 206.198 142.139 208.629 144.056 210.535C145.973 212.44 148.412 213.736 151.064 214.256C153.716 214.777 156.464 214.5 158.959 213.461C161.454 212.421 163.585 210.666 165.084 208.416C166.582 206.165 167.38 203.522 167.376 200.819C167.359 197.187 165.904 193.709 163.328 191.149C160.752 188.588 157.267 187.152 153.635 187.157Z" fill="#D8EBFD"/>
<g clip-path="url(#clip1_78_7168)">
<path d="M99.3926 107.564C103.811 107.564 107.393 103.983 107.393 99.5645C107.393 95.1462 103.811 91.5645 99.3926 91.5645C94.9743 91.5645 91.3926 95.1462 91.3926 99.5645C91.3926 103.983 94.9743 107.564 99.3926 107.564Z" fill="#473BCB"/>
<path d="M99.3924 94.5645V98.2611L102.517 99.6572L99.3924 94.5645Z" fill="white"/>
<path d="M99.3924 94.5645L96.2676 99.6572L99.3924 98.2611V94.5645Z" fill="white"/>
<path d="M99.3924 102.053V104.564L102.519 100.239L99.3924 102.053Z" fill="white"/>
<path d="M99.3924 104.564V102.053L96.2676 100.239L99.3924 104.564Z" fill="white"/>
<path d="M99.3924 101.471L102.517 99.6572L99.3924 98.2619V101.471Z" fill="white"/>
<path d="M96.2676 99.6572L99.3924 101.471V98.2619L96.2676 99.6572Z" fill="white"/>
</g>
<circle cx="122.479" cy="128.283" r="32" fill="#0C6CF2"/>
<path d="M134.961 118.457H112.625C112.107 118.457 111.688 118.018 111.688 117.475C111.688 116.933 112.107 116.493 112.625 116.493H135.125C135.643 116.493 136.062 116.054 136.062 115.511C136.062 113.884 134.803 112.564 133.25 112.564H111.688C109.616 112.564 107.938 114.323 107.938 116.493V136.136C107.938 138.306 109.616 140.064 111.688 140.064H134.961C136.603 140.064 137.938 138.743 137.938 137.118V121.404C137.938 119.779 136.603 118.457 134.961 118.457ZM132.312 131.225C131.277 131.225 130.438 130.346 130.438 129.261C130.438 128.176 131.277 127.297 132.312 127.297C133.348 127.297 134.188 128.176 134.188 129.261C134.188 130.346 133.348 131.225 132.312 131.225Z" fill="white"/>
<g clip-path="url(#clip2_78_7168)">
<path d="M94.9375 174.981C103.774 174.981 110.938 167.818 110.938 158.981C110.938 150.144 103.774 142.981 94.9375 142.981C86.1009 142.981 78.9375 150.144 78.9375 158.981C78.9375 167.818 86.1009 174.981 94.9375 174.981Z" fill="black"/>
<path d="M88.7127 165.981L91.0348 161.974L93.357 157.981L95.6649 153.974L96.0472 153.339L96.2171 153.974L96.9251 156.612L96.1322 157.981L93.8101 161.974L91.5021 165.981H94.2773L96.5994 161.974L97.803 159.9L98.3694 161.974L99.4455 165.981H101.938L100.861 161.974L99.7853 157.981L99.5021 156.951L101.23 153.974H98.7092L98.6242 153.678L97.7463 150.404L97.6331 149.981H95.2118L95.1552 150.066L92.8897 153.974L90.5676 157.981L88.2596 161.974L85.9375 165.981H88.7127Z" fill="white"/>
</g>
<g clip-path="url(#clip3_78_7168)">
<path d="M169.5 118.314C176.127 118.314 181.5 112.942 181.5 106.314C181.5 99.687 176.127 94.3145 169.5 94.3145C162.873 94.3145 157.5 99.687 157.5 106.314C157.5 112.942 162.873 118.314 169.5 118.314Z" fill="#FF9B22"/>
<path d="M174.892 104.829C175.127 103.257 173.93 102.412 172.293 101.848L172.824 99.7182L171.528 99.3957L171.011 101.469C170.67 101.384 170.321 101.304 169.972 101.225L170.493 99.1377L169.197 98.8145L168.666 100.944C168.384 100.879 168.107 100.816 167.838 100.749L167.84 100.742L166.052 100.296L165.707 101.68C165.707 101.68 166.669 101.901 166.649 101.914C167.174 102.045 167.268 102.393 167.252 102.669L165.798 108.503C165.734 108.662 165.571 108.901 165.203 108.81C165.217 108.829 164.261 108.576 164.261 108.576L163.618 110.059L165.305 110.48C165.619 110.559 165.926 110.641 166.229 110.718L165.692 112.872L166.988 113.195L167.519 111.065C167.873 111.16 168.216 111.249 168.552 111.333L168.023 113.454L169.319 113.776L169.855 111.627C172.066 112.045 173.728 111.876 174.428 109.877C174.992 108.267 174.4 107.338 173.237 106.733C174.084 106.538 174.722 105.981 174.892 104.829ZM171.929 108.983C171.53 110.593 168.818 109.722 167.939 109.504L168.652 106.65C169.531 106.87 172.349 107.304 171.929 108.983ZM172.331 104.806C171.965 106.271 169.709 105.526 168.978 105.344L169.623 102.756C170.354 102.939 172.712 103.278 172.331 104.806Z" fill="white"/>
</g>
</g>
<defs>
<clipPath id="clip0_78_7168">
<rect width="254" height="246.573" fill="white"/>
</clipPath>
<clipPath id="clip1_78_7168">
<rect width="16" height="16" fill="white" transform="translate(91.3926 91.5645)"/>
</clipPath>
<clipPath id="clip2_78_7168">
<rect width="32" height="32" fill="white" transform="translate(78.9375 142.981)"/>
</clipPath>
<clipPath id="clip3_78_7168">
<rect width="24" height="24" fill="white" transform="translate(157.5 94.3145)"/>
</clipPath>
</defs>
</svg>
