<svg width="34" height="35" viewBox="0 0 34 35" fill="none" xmlns="http://www.w3.org/2000/svg">
<mask id="mask0_1198_39700" style="mask-type:alpha" maskUnits="userSpaceOnUse" x="0" y="0" width="34" height="35">
<path fill-rule="evenodd" clip-rule="evenodd" d="M34 0.5H0V34.5H19.999C17.5707 32.6755 16 29.7712 16 26.5C16 20.9772 20.4772 16.5 26 16.5C29.2712 16.5 32.1755 18.0707 34 20.499V0.5ZM34 32.501C33.4314 33.2578 32.7578 33.9314 32.001 34.5H34V32.501Z" fill="#D9D9D9"/>
</mask>
<g mask="url(#mask0_1198_39700)">
<g clip-path="url(#clip0_1198_39700)">
<path d="M5.10609 0.5C7.91034 0.499358 10.1907 2.78493 10.1828 5.60055C10.1749 8.34676 7.98405 10.673 5.0853 10.6664C2.23133 10.66 0.0175819 8.39004 0.0109398 5.5907C0.00429767 2.76972 2.2819 0.500643 5.10609 0.5Z" fill="#01A9CE"/>
<path d="M5.07332 11.4021C7.76595 11.3987 10.1599 13.515 10.1678 16.4937C10.1751 19.2752 7.95643 21.5563 5.10246 21.5683C2.25835 21.5803 0.00924283 19.3146 2.9577e-05 16.5121C-0.00939794 13.6894 2.23607 11.4167 5.07332 11.4021Z" fill="#01A9CE"/>
<path d="M15.9863 22.3152C13.17 22.3092 10.8943 24.5806 10.889 27.395C10.9035 30.2181 13.1233 32.4741 15.9666 32.481C18.8137 32.4878 21.0559 30.2282 21.0617 27.4252C21.0679 24.4682 18.7035 22.321 15.9863 22.3152Z" fill="#01A9CE"/>
<path d="M31.9873 27.2949C32.0407 30.0225 29.945 32.3505 27.1223 32.4833C24.3018 32.6161 22.0087 30.4593 21.8232 27.7324C21.6314 24.914 23.7888 22.4652 26.6728 22.331C29.5263 22.1984 31.9106 24.4399 31.9873 27.2949Z" fill="#01A9CE"/>
<path d="M26.9057 21.597C29.7001 21.6028 31.9942 19.3138 31.9946 16.5292C31.9947 13.712 29.7124 11.4184 26.9065 11.428C24.1145 11.4376 21.8802 13.6562 21.8213 16.3775C21.7589 19.2561 24.0384 21.591 26.9057 21.597Z" fill="#01A9CE"/>
<path d="M10.9199 5.59218C10.9284 2.77484 13.2011 0.499333 16.0156 0.514973C18.7807 0.530613 21.0782 2.70735 21.0913 5.61724C21.1037 8.3943 18.7978 10.6861 16.036 10.6814C13.1565 10.6764 10.913 8.38466 10.9199 5.59218Z" fill="#01A9CE"/>
<path fill-rule="evenodd" clip-rule="evenodd" d="M26.9077 0.551403C24.151 0.557402 21.8194 2.89333 21.8281 5.64039C21.8369 8.40116 24.1615 10.7189 26.9192 10.7163C29.6819 10.7135 32.0022 8.39259 32 5.63418C31.9979 2.86912 29.6697 0.545404 26.9077 0.551403ZM26.9659 1.8583C29.002 1.8898 30.5474 3.48498 30.5501 5.49646C30.5392 7.59691 28.8531 9.20651 26.7489 9.11739C24.8295 9.03619 23.2607 7.49747 23.2847 5.43964C23.3083 3.40366 24.9334 1.82681 26.9659 1.8583Z" fill="#01A9CE"/>
<path fill-rule="evenodd" clip-rule="evenodd" d="M5.11998 32.4999C2.35729 32.4993 0.025476 30.1666 0.0316896 27.4097C0.0379032 24.6534 2.37057 22.328 5.12362 22.3338C7.88674 22.3395 10.2036 24.6592 10.2025 27.4189C10.2014 30.1779 7.87839 32.5006 5.11998 32.4999ZM8.73907 27.408C8.73907 27.3735 8.7395 27.3391 8.73993 27.3047C8.74092 27.2249 8.74192 27.1451 8.73757 27.0656C8.732 26.9625 8.71786 26.8597 8.70179 26.7577C8.55717 25.8377 8.16078 25.0716 7.3693 24.5364C6.22857 23.7653 5.01242 23.5545 3.71421 24.061C2.63797 24.4809 1.90648 25.2406 1.58059 26.3646C1.44817 26.8216 1.4636 27.288 1.50367 27.755C1.56816 28.5088 1.82785 29.1909 2.32579 29.7587C3.30111 30.8706 4.53547 31.2625 5.97146 30.9441C7.62449 30.5775 8.76671 29.1001 8.73907 27.408Z" fill="#01A9CE"/>
<path fill-rule="evenodd" clip-rule="evenodd" d="M10.9312 16.5185C10.9321 19.2846 13.2384 21.5957 16.018 21.6126C18.833 21.594 21.0979 19.2398 21.1029 16.5388C21.108 13.7793 18.7886 11.4481 16.0225 11.4447C13.2647 11.4413 10.9304 13.7626 10.9312 16.5185ZM12.3822 16.5546C12.3794 16.4889 12.3765 16.4212 12.373 16.3507C12.3584 15.5565 12.6119 14.8255 13.1493 14.2055C13.9652 13.2641 15.0157 12.8536 16.2488 12.9084C16.9843 12.941 17.635 13.2283 18.244 13.6287C19.1085 14.1971 19.5064 15.0301 19.6208 16.0257C19.705 16.7567 19.6155 17.4642 19.2857 18.1283C18.7852 19.1361 17.9832 19.7797 16.8922 20.0503C15.9012 20.2961 14.97 20.1172 14.0939 19.6113C13.6676 19.3654 13.278 19.08 12.9961 18.6622C12.6464 18.144 12.4565 17.5745 12.4047 16.956C12.3938 16.8255 12.3882 16.6945 12.3822 16.5546Z" fill="#01A9CE"/>
</g>
</g>
<path fill-rule="evenodd" clip-rule="evenodd" d="M32.6673 26.5C32.6673 30.1819 29.6825 33.1667 26.0007 33.1667C22.3188 33.1667 19.334 30.1819 19.334 26.5C19.334 22.8181 22.3188 19.8334 26.0007 19.8334C29.6825 19.8334 32.6673 22.8181 32.6673 26.5ZM26.8156 23.4786C26.845 23.0085 26.4716 22.6112 26.0006 22.6112C25.5297 22.6112 25.1563 23.0085 25.1857 23.4786L25.4462 27.0903C25.4645 27.383 25.7073 27.6112 26.0006 27.6112C26.294 27.6112 26.5368 27.383 26.5551 27.0903L26.8156 23.4786ZM26.5562 29.2778C26.5562 28.971 26.3075 28.7223 26.0006 28.7223C25.6938 28.7223 25.4451 28.971 25.4451 29.2778V29.8334C25.4451 30.1402 25.6938 30.3889 26.0006 30.3889C26.3075 30.3889 26.5562 30.1402 26.5562 29.8334V29.2778Z" fill="#FF3344"/>
<defs>
<clipPath id="clip0_1198_39700">
<rect width="32" height="32" fill="white" transform="translate(0 0.5)"/>
</clipPath>
</defs>
</svg>
