<svg fill="none" height="69" viewBox="0 0 184 69" width="184" xmlns="http://www.w3.org/2000/svg" xmlns:xlink="http://www.w3.org/1999/xlink"><clipPath id="a"><path d="m114.496 0h69v69h-69z"/></clipPath><mask id="b" fill="#000" height="17" maskUnits="userSpaceOnUse" width="29" x="63.7944" y="26.1154"><path d="m63.7944 26.1154h29v17h-29z" fill="#fff"/><path clip-rule="evenodd" d="m82.6038 28.4412c-.3181-.2654-.3607-.7384-.0953-1.0564s.7384-.3606 1.0564-.0952l7.4825 6.2451c.5989.4998.5987 1.42-.0003 1.9196l-7.5013 6.2563c-.3181.2653-.7911.2225-1.0564-.0956s-.2225-.7911.0956-1.0564l6.365-5.3085h-23.4056c-.4142 0-.75-.3358-.75-.75 0-.4143.3358-.75.75-.75h23.4201z" fill="#000" fill-rule="evenodd"/></mask><g fill="#fff"><path clip-rule="evenodd" d="m25.4514 23.8092 8.1712 8.1705 8.1718-8.1705zm16.343-3.5648-18.8633-18.8633v18.8633zm-22.4281 0v-18.8633l-18.862638 18.8633zm-2.5203 24.9478-8.17118-8.1711-8.171158 8.1711zm-16.342338 3.5641 18.862638 18.8626v-18.8626zm22.427438 0v18.8626l18.8633-18.8626zm-22.427438-24.9471 21.383038 21.3823 19.9077.0014-21.3844-21.3837z" fill-rule="evenodd"/><path clip-rule="evenodd" d="m82.6038 28.4412c-.3181-.2654-.3607-.7384-.0953-1.0564s.7384-.3606 1.0564-.0952l7.4825 6.2451c.5989.4998.5987 1.42-.0003 1.9196l-7.5013 6.2563c-.3181.2653-.7911.2225-1.0564-.0956s-.2225-.7911.0956-1.0564l6.365-5.3085h-23.4056c-.4142 0-.75-.3358-.75-.75 0-.4143.3358-.75.75-.75h23.4201z" fill-rule="evenodd"/><path d="m82.5085 27.3848.3839.3204zm.0953 1.0564-.3204.3838zm.9611-1.1516-.3204.3838zm7.4825 6.2451.3204-.3839zm-.0003 1.9196.3202.384zm-7.5013 6.2563.3202.384zm-1.0564-.0956.384-.3203zm.0956-1.0564-.3202-.3839zm6.365-5.3085.3202.3839 1.0599-.8839h-1.3801zm-23.4056 0v-.5zm0-1.5v-.5zm23.4201 0v.5h1.3794l-1.059-.8839zm-6.8398-6.6857c-.4424.53-.3713 1.3183.1587 1.7606l.6407-.7677c-.106-.0885-.1202-.2461-.0317-.3521zm1.7606-.1587c-.53-.4424-1.3183-.3713-1.7606.1587l.7677.6408c.0885-.106.2461-.1202.3521-.0318zm7.4825 6.2451-7.4825-6.2451-.6408.7677 7.4825 6.2451zm-.0005 2.6875c.8387-.6995.8389-1.9878.0005-2.6875l-.6408.7677c.3593.2999.3592.852-.0002 1.1518zm-7.5013 6.2563 7.5013-6.2563-.6405-.768-7.5013 6.2563zm-1.7606-.1594c.4422.5302 1.2304.6015 1.7606.1594l-.6405-.768c-.106.0884-.2637.0742-.3521-.0319zm.1594-1.7605c-.5302.4421-.6015 1.2304-.1594 1.7605l.768-.6405c-.0884-.106-.0742-.2636.0319-.3521zm6.3649-5.3086-6.3649 5.3086.6405.7679 6.3649-5.3086zm.3203-.116h-23.4056v1h23.4056zm-23.4056 0c-.138 0-.25-.112-.25-.25h-1c0 .6903.5597 1.25 1.25 1.25zm-.25-.25c0-.1381.112-.25.25-.25v-1c-.6903 0-1.25.5596-1.25 1.25zm.25-.25h23.4201v-1h-23.4201zm16.739-5.4251 6.3608 5.3089.6407-.7677-6.3608-5.3089z" mask="url(#b)"/></g><g clip-path="url(#a)"><path d="m120.4 25.0756-3.148 3.1482c-.871.837-1.564 1.8415-2.038 2.9531-.473 1.1115-.718 2.3074-.718 3.5156 0 1.2083.245 2.4041.718 3.5157.474 1.1116 1.167 2.116 2.038 2.9531l25.362 25.612c.601.6149 1.301 1.1251 2.07 1.5094v-31.0458z" fill="#3d89f5"/><path d="m177.593 25.0756 3.148 3.1482c.871.837 1.564 1.8415 2.038 2.9531.473 1.1115.717 2.3074.717 3.5156 0 1.2083-.244 2.4041-.717 3.5157-.474 1.1116-1.167 2.116-2.038 2.9531l-25.362 25.612c-.601.6149-1.301 1.1251-2.07 1.5094v-31.0458z" fill="#1656b9"/><path d="m171.503 18.65-15.87-15.91313c-.84-.86593-1.845-1.55439-2.956-2.024514-1.112-.470121-2.306-.712356-3.512-.712356-1.207 0-2.401.242235-3.512.712356-1.111.470124-2.117 1.158584-2.957 2.024514l-15.913 15.91313 22.295 11.1262z" fill="#85b5f8"/></g></svg>