<svg fill="none" height="24" viewBox="0 0 24 24" width="24" xmlns="http://www.w3.org/2000/svg" xmlns:xlink="http://www.w3.org/1999/xlink"><clipPath id="a"><path d="m0 0h24v24h-24z"/></clipPath><g clip-path="url(#a)" fill="#121d33"><path d="m9.00101 10.2728v-3.12617c0-.51973.41802-.93785.93762-.93785h6.56337v-3.42705c0-.69557.8399-1.04336 1.3322-.55099l5.946 5.94361c.2931.29308.2931.77373 0 1.06681l-5.946 5.95144c-.4923.4924-1.3322.1446-1.3322-.551v-3.431h-6.56337c-.5196 0-.93762-.4181-.93762-.9378z"/><path d="m14.999 13.3634v3.1262c0 .5197-.418.9378-.9376.9378h-6.56337v3.4271c0 .6956-.83995 1.0433-1.3322.551l-5.946075-5.9436c-.2930066-.2931-.2930066-.7738 0-1.0668l5.946075-5.95147c.49225-.49237 1.3322-.14458 1.3322.55099v3.43098h6.56337c.5196 0 .9376.4181.9376.9378z"/></g></svg>