<svg width="88" height="88" viewBox="0 0 88 88" fill="none" xmlns="http://www.w3.org/2000/svg">
<g clip-path="url(#clip0_1821_8068)">
<path d="M44 88C68.3005 88 88 68.3005 88 44C88 19.6995 68.3005 0 44 0C19.6995 0 0 19.6995 0 44C0 68.3005 19.6995 88 44 88Z" fill="#2775CA"/>
<path d="M35.9333 74.4334C35.9333 75.5334 35.2 75.9 34.1 75.9C20.5333 71.5 11 59.0334 11 44.3667C11 29.7 20.5333 17.2334 34.1 12.8334C35.2 12.4667 35.9333 13.2 35.9333 14.3V16.8667C35.9333 17.6 35.5667 18.3334 34.8333 18.7C24.2 22.7334 16.8667 32.6334 16.8667 44.3667C16.8667 56.1 24.5667 66.3667 34.8333 70.0334C35.5667 70.4 35.9333 71.1334 35.9333 71.8667V74.4334Z" fill="white"/>
<path d="M46.9333 65.2667C46.9333 66 46.2 66.7333 45.4667 66.7333H42.5333C41.8 66.7333 41.0667 66 41.0667 65.2667V60.8667C35.2 60.1333 32.2667 56.8333 31.1667 52.0667C31.1667 51.3333 31.5333 50.6 32.2667 50.6H35.5667C36.3 50.6 36.6667 50.9667 37.0333 51.7C37.7667 54.2667 39.2333 56.4667 44 56.4667C47.6667 56.4667 50.2333 54.6333 50.2333 51.7C50.2333 48.7667 48.7667 47.6667 43.6333 46.9333C35.9333 45.8333 32.2667 43.6333 32.2667 37.4C32.2667 32.6333 35.9333 28.9667 41.0667 28.2333V23.8333C41.0667 23.1 41.8 22.3667 42.5333 22.3667H45.4667C46.2 22.3667 46.9333 23.1 46.9333 23.8333V28.2333C51.3333 28.9667 54.2667 31.5333 55 35.5667C55 36.3 54.6333 37.0333 53.9 37.0333H50.9667C50.2333 37.0333 49.8667 36.6667 49.5 35.9333C48.7667 33.3667 46.9333 32.2667 43.6333 32.2667C39.9667 32.2667 38.1333 34.1 38.1333 36.6667C38.1333 39.2333 39.2333 40.7 44.7333 41.4333C52.4333 42.5333 56.1 44.7333 56.1 50.9667C56.1 55.7333 52.4333 59.7667 46.9333 60.8667V65.2667Z" fill="white"/>
<path d="M53.9 75.9C52.8 76.2667 52.0667 75.5333 52.0667 74.4333V71.8667C52.0667 71.1334 52.4333 70.4 53.1667 70.0333C63.8 66 71.1333 56.1 71.1333 44.3667C71.1333 32.6333 63.4333 22.3667 53.1667 18.7C52.4333 18.3333 52.0667 17.6 52.0667 16.8667V14.3C52.0667 13.2 52.8 12.8333 53.9 12.8333C67.1 17.2333 77 29.7 77 44.3667C77 59.0333 67.4667 71.5 53.9 75.9Z" fill="white"/>
</g>
<defs>
<clipPath id="clip0_1821_8068">
<rect width="88" height="88" fill="white"/>
</clipPath>
</defs>
</svg>
