<svg enable-background="new 0 0 600 400" viewBox="0 0 600 400" xmlns="http://www.w3.org/2000/svg"><g fill="none"><path d="m422.9 135.5c0-.2-.1-.3-.1-.5.1.2.1.3.1.5z"/><path d="m325.6 89.8c-.1-.1-.1-.2-.2-.3.1.1.1.2.2.3z"/><path d="m422.7 134.5c0-.1-.1-.2-.1-.3 0 .1.1.2.1.3z"/><path d="m325.8 90.4c0-.1-.1-.2-.1-.3 0 .1.1.2.1.3z"/><path d="m421.7 132c-.1-.1-.2-.3-.2-.4.1.2.2.3.2.4z"/><path d="m423 136.4c0-.2 0-.3-.1-.5.1.2.1.3.1.5z"/><path d="m324.1 88.1c-.1 0-.1-.1-.2-.2.1.1.2.2.2.2z"/><path d="m323.8 87.8c-.1-.1-.2-.1-.3-.2.1.1.2.1.3.2z"/><path d="m325.9 90.7c0-.1 0-.1 0 0 0-.1 0 0 0 0z"/><path d="m324.8 88.7c-.1-.1-.2-.2-.3-.3z"/><path d="m432.1 121.7c-.3-.2-.5-.4-.8-.7 0 0 .1.1.1.1.3.2.5.4.7.6z"/><path d="m422.4 115.5c-1-.5-2-.9-3-1.3 1 .4 2.1.8 3 1.3z"/><path d="m362.4 130.3c-.1.1-.2.3-.3.4.1-.1.2-.3.3-.4z"/><path d="m361.9 131.2c-.1.1-.1.3-.2.4 0-.2.1-.3.2-.4z"/><path d="m361.4 132c-.1.1-.1.2-.2.3.1-.1.1-.2.2-.3z"/><path d="m361 132.8c0 .1-.1.2-.1.3 0 0 .1-.2.1-.3z"/><path d="m308.3 87.8c-.1 0-.1.1-.2.1.1 0 .1-.1.2-.1z"/><path d="m427.5 118.3c-.5-.3-1.1-.7-1.6-1 .3.2.6.4.9.6.3.1.5.2.7.4z"/><path d="m428.7 119.1c-.2-.1-.3-.2-.5-.3.1.1.2.1.2.2.1-.1.2 0 .3.1z"/><path d="m420.7 130.4c-.1-.1-.2-.3-.3-.4.1.1.2.2.3.4z"/><path d="m425.9 117.3c-1-.6-2-1.1-3-1.6 1 .5 2 1 3 1.6z"/><path d="m349.2 145.2c.1.2.2.4.3.6-.1-.3-.2-.5-.3-.6z"/><path d="m438 128.8c-.1-.1-.1-.2-.2-.3.1.1.1.2.2.3z"/><path d="m437.5 127.9c-.1-.2-.3-.5-.4-.7.1.3.2.5.4.7z"/><path d="m436.6 126.6c-.2-.2-.3-.5-.5-.7.2.3.4.5.5.7z"/><path d="m438.8 130.5c-.1-.2-.2-.5-.3-.7.1.3.2.5.3.7z"/><path d="m434.6 124.1c-.2-.2-.4-.4-.6-.7.2.3.4.5.6.7z"/><path d="m439.9 134.3c0-.1-.1-.3-.1-.4.1.1.1.2.1.4z"/><path d="m438.5 144.6c.1-.2.2-.5.3-.7 0 .3-.2.5-.3.7z"/><path d="m440.2 135.9c0-.1 0-.3-.1-.4 0 .1.1.3.1.4z"/><path d="m433.1 122.6c-.1-.1-.2-.2-.3-.3 0 0 0 0 .1.1 0 0 .1.1.2.2z"/><path d="m437.9 145.9c.1-.1.2-.3.2-.4-.1.2-.1.3-.2.4z"/><path d="m439.6 132.9c0-.1-.1-.2-.1-.3.1 0 .1.1.1.3z"/><path d="m348.2 143.2s0 .1.1.1c-.1 0-.1-.1-.1-.1z"/><path d="m326 91.2v.3c0-.2 0-.2 0-.3z"/><path d="m356.6 153.2c.2.1.3.2.5.3-.2-.1-.4-.2-.5-.3z"/><path d="m423.3 155.5c.5-.3 1-.6 1.4-.9-.5.3-1 .6-1.4.9z"/><path d="m353.8 150.9c.2.2.4.3.5.5-.1-.1-.3-.3-.5-.5z"/><path d="m307.7 88.3c-.1 0 0 0 0 0z"/><path d="m349.9 146.4c0 .1.1.1.1.2 0-.1-.1-.2-.1-.2z"/><path d="m348.6 143.9c0 .1 0 .1 0 0 .1.2.2.4.3.6-.2-.2-.3-.4-.3-.6z"/><path d="m360.7 133.8c0 .1-.1.2-.1.3 0-.1 0-.2.1-.3z"/><path d="m437.1 147.2c.1-.2.3-.4.4-.7-.1.3-.3.5-.4.7z"/><path d="m426.4 153.4c.4-.3.8-.6 1.2-.9-.3.3-.7.6-1.2.9z"/><path d="m425.1 154.4c.3-.2.7-.4 1-.7-.4.2-.7.4-1 .7z"/><path d="m427.7 152.5c.4-.3.8-.6 1.1-.9-.3.3-.7.6-1.1.9z"/><path d="m432.3 147.9c.2-.3.4-.5.6-.8-.2.3-.4.5-.6.8z"/><path d="m433.1 146.8c.2-.3.5-.7.7-1.1.2-.4.4-.7.6-1.1-.4.8-.8 1.5-1.3 2.2z"/><path d="m423 136.8v.4c.1-.1 0-.3 0-.4z"/><path d="m411.5 111.5c-1.1-.3-2.3-.6-3.5-.8 1.2.3 2.4.5 3.5.8z"/><path d="m430.2 150.2 1-1c.3-.3.6-.7.9-1-.6.7-1.2 1.4-1.9 2z"/><path d="m434.5 144.4c.1-.3.3-.5.4-.8-.1.2-.3.5-.4.8z"/><path d="m398.2 109.3c-.8-.1-1.6-.1-2.5-.2.9.1 1.7.2 2.5.2z"/><path d="m407.7 110.6c-1.2-.2-2.4-.4-3.6-.6 1.2.2 2.4.4 3.6.6z"/><path d="m429.1 151.3c.3-.2.5-.5.8-.7-.2.2-.5.4-.8.7z"/><path d="m371.2 111.6c-1.1.3-2.2.6-3.3 1 1-.4 2.1-.7 3.3-1z"/><path d="m367.3 112.8c-.9.3-1.7.6-2.5.9.8-.3 1.6-.7 2.5-.9z"/><path d="m395.3 109.1c-.3 0-.6 0-.9 0z"/><path d="m378.8 110c-.6.1-1.2.2-1.7.3.5-.1 1.1-.2 1.7-.3z"/><path d="m461 179.8c0 .1 0 .1 0 0z"/><path d="m460.9 180.3v.2c0-.1 0-.2 0-.2z"/><path d="m390.4 109.1c-.9 0-1.8 0-2.7.1.9-.1 1.8-.1 2.7-.1z"/><path d="m385.4 109.3c-.6 0-1.2.1-1.9.1.7-.1 1.3-.1 1.9-.1z"/><path d="m415.2 112.6c-.3-.1-.6-.2-.9-.3.3.1.6.2.9.3z"/><path d="m461.2 179.3c0 .1 0 .1 0 0z"/><path d="m382.9 109.5c-1.2.1-2.4.3-3.5.4 1.1-.2 2.3-.3 3.5-.4z"/><path d="m372.7 111.2c-.4.1-.8.2-1.2.3z"/><path d="m360.2 136.3v.1c-.1 0-.1-.1 0-.1z"/><path d="m360.4 134.6c0 .1-.1.3-.1.4.1-.2.1-.3.1-.4z"/><path d="m418.9 113.9c-.9-.3-1.8-.7-2.7-1 .9.4 1.8.7 2.7 1z"/></g><path d="m16.4 298.1v.8c0 .3 0 .5.1.8 0 .3.1.5.1.8s.1.5.1.8.1.5.1.8.1.5.1.8.1.5.1.8.1.5.1.8c.1.3.1.5.2.8s.1.5.2.8.1.5.2.8.1.5.2.8.2.5.2.8c.1.3.2.5.2.8.1.3.2.5.3.8s.2.5.3.8.2.5.3.8c.1.2.2.5.3.7.1.3.2.5.3.8.1.2.2.5.3.7.1.3.2.5.4.8.1.3.2.5.4.8.1.3.3.5.4.8.1.2.3.5.4.7.1.3.3.5.4.8.1.2.3.5.4.7.2.3.3.5.5.8.2.2.3.5.5.7.2.3.3.5.5.7s.3.5.5.7c.2.3.4.5.5.8.2.2.3.5.5.7s.4.5.6.7.4.5.6.7.4.5.6.7.4.5.6.7.4.5.7.7c.2.2.4.5.6.7s.5.5.7.7.4.5.6.7l.7.7.7.7c.2.2.5.5.8.7.2.2.5.4.7.7.3.2.5.5.8.7.2.2.5.4.7.6.3.2.6.5.8.7s.5.4.7.6c.3.2.6.5.9.7.2.2.5.4.7.6.3.2.6.5 1 .7.3.2.5.4.8.6s.7.5 1 .7.5.4.8.6.7.5 1 .7.5.4.8.6c.4.3.8.5 1.2.8.2.2.5.3.7.5.4.3.9.5 1.3.8.2.1.4.3.7.4.7.4 1.3.8 2 1.2 1.3.8 2.7 1.5 4 2.2.5.2.9.5 1.4.7.9.5 1.8.9 2.8 1.4.6.3 1.1.5 1.7.8.9.4 1.7.8 2.6 1.2.6.3 1.2.5 1.9.8.9.4 1.8.7 2.7 1.1.4.2.8.3 1.2.4 1.2.4 2.3.9 3.5 1.3.3.1.5.2.8.3 1.4.5 2.8.9 4.3 1.4.4.1.7.2 1.1.3 1 .3 1.9.6 2.9.8 1.1.3 2.3.6 3.4.9.7.2 1.4.4 2.1.5 1.3.3 2.5.6 3.8.9.6.1 1.2.3 1.8.4 1.1.2 2.3.4 3.5.7.6.1 1.3.2 1.9.4 1.5.3 3 .5 4.6.7.3 0 .6.1.9.1 1.8.3 3.6.5 5.4.7.4 0 .8.1 1.3.1 1.4.1 2.8.3 4.1.4.7.1 1.3.1 2 .1 1.1.1 2.3.2 3.5.2.7 0 1.5.1 2.3.1 1.1 0 2.1.1 3.2.1h2.1 3.5 2.3c1.1 0 2.2 0 3.3-.1.7 0 1.4-.1 2.1-.1 1.3-.1 2.5-.1 3.8-.2.8 0 1.5-.1 2.3-.2 1.2-.1 2.4-.2 3.6-.3 1-.1 1.9-.2 2.9-.3.4 0 .8-.1 1.2-.1 1.6-.2 3.1-.4 4.7-.6.2 0 .4-.1.7-.1 1.4-.2 2.7-.4 4.1-.6.4-.1.8-.1 1.2-.2.9-.2 1.7-.3 2.6-.5 1-.2 2-.4 2.9-.6.8-.2 1.6-.3 2.4-.5 1-.2 1.9-.4 2.9-.7.8-.2 1.6-.4 2.4-.6.9-.2 1.9-.5 2.8-.7.8-.2 1.6-.4 2.3-.7.9-.3 1.8-.5 2.7-.8 1-.3 1.9-.6 2.9-.9.3-.1.7-.2 1-.3l4.2-1.5c.3-.1.5-.2.7-.3 1.2-.5 2.3-.9 3.4-1.4.3-.1.7-.3 1-.4 1.3-.6 2.7-1.2 3.9-1.8.2-.1.3-.1.5-.2 1.2-.6 2.3-1.1 3.4-1.7.3-.2.7-.3 1-.5 1.3-.7 2.5-1.3 3.7-2.1.7-.4 1.4-.8 2-1.2.2-.1.4-.3.7-.4.4-.3.9-.5 1.3-.8.2-.2.5-.3.7-.5.4-.3.8-.5 1.2-.8.2-.2.5-.3.7-.5.4-.3.7-.5 1.1-.8.2-.2.5-.3.7-.5.3-.3.7-.5 1-.8.2-.2.5-.4.7-.5.3-.3.7-.5 1-.8.2-.2.5-.4.7-.6.3-.2.6-.5.9-.7.2-.2.5-.4.7-.6.3-.2.6-.5.9-.7.2-.2.5-.4.7-.6.3-.2.5-.5.8-.7.2-.2.4-.4.7-.6s.5-.5.8-.7c0 0 .1-.1.1-.1.1-.1.3-.3.4-.4s.1-.1.1-.1c.2-.2.5-.5.7-.7.1-.2.3-.3.4-.5.3-.3.6-.6.9-.9.2-.2.4-.5.6-.7s.4-.5.6-.7.4-.5.6-.7.4-.5.6-.7c0 0 .1-.1.1-.1s0 0 0-.1c.1-.2.3-.3.4-.5.2-.2.4-.5.6-.7.1-.1.1-.2.2-.2 0 0 0 0 0-.1.3-.4.6-.8.8-1.2.1-.1.2-.2.2-.4 0 0 0 0 0-.1.2-.3.5-.7.7-1 .1-.2.2-.3.3-.5.2-.3.4-.6.6-.9.1-.2.3-.5.4-.7.1-.3.3-.5.4-.8.1-.2.3-.5.4-.7.1-.3.3-.5.4-.8.1-.2.2-.5.4-.7.1-.3.3-.5.4-.8.1-.2.2-.5.3-.7.1-.3.2-.5.3-.8v-.1l.3-.6c.1-.3.2-.6.3-.8s.1-.3.2-.5c0-.1 0-.1.1-.2.1-.3.2-.6.3-.9.1-.2.1-.4.2-.6v-.1c.1-.3.2-.6.3-.9.1-.2.1-.4.2-.6v-.1c.1-.3.2-.6.2-.9 0-.2.1-.4.1-.6.1-.3.1-.5.2-.8v-.1c0-.2.1-.3.1-.5v-.1c0-.3.1-.5.1-.8v-.1c.1-.5.1-.9.2-1.4v-.1-.1c.1-.4.1-.9.1-1.3v-.1-.1c0-.4.1-.9.1-1.3v-.1-.1c.5-17.1-10.5-34.4-33.1-47.4-44-25.4-115.1-25.4-158.8 0-21.7 12.7-32.6 29.3-32.6 45.9v.8c.2-.5.2-.3.2 0zm64.2-14.6 14.3 8.2c-7.5 5-4.4 11.4 4.7 16.6 9.5 5.5 20.3 6.7 27 2.9 5.9-3.5 2.8-8.3-3.7-14.5l-6.9-6.6c-9.9-9.5-11.7-17.9-.7-24.3 11.6-6.8 29.2-6.3 44.6.1l11.8-6.9 12.3 7.1-11.6 6.8c12.3 9.1 12.9 19.4 1.6 26.3l-14-8.1c5.8-4.2 4-9.8-4.7-14.8-9.1-5.2-18.7-5.9-24.5-2.6-6.5 3.7-2.1 9.3 3 14l5.7 5.4c9.3 8.5 14.7 18.7 1.4 26.5-12.2 7-29.7 6.9-47-1.1l-11.6 6.7-12.3-7.1 11.7-6.8c-13.1-9.6-14-19.7-1.1-27.8z" fill="#00994c"/><path d="m240.9 298.1v.1.1c0 .4 0 .9-.1 1.3v.1.1c0 .4-.1.9-.1 1.3v.1.1c-.1.5-.1.9-.2 1.4v.1c0 .3-.1.5-.1.8v.1c0 .2-.1.3-.1.5v.1c-.1.3-.1.5-.2.8 0 .2-.1.4-.1.6-.1.3-.2.6-.2.9v.1c-.1.2-.1.4-.2.6-.1.3-.2.6-.3.9v.1c-.1.2-.1.4-.2.6-.1.3-.2.6-.3.9 0 .1 0 .1-.1.2-.1.2-.1.4-.2.5-.1.3-.2.6-.3.8s-.2.4-.3.6v.1c-.1.3-.2.5-.3.8-.1.2-.2.5-.3.7-.1.3-.2.5-.4.8-.1.2-.2.5-.4.7-.1.3-.3.5-.4.8-.1.2-.2.5-.4.7-.1.3-.3.5-.4.8-.1.2-.3.5-.4.7-.2.3-.4.6-.6.9-.1.2-.2.3-.3.5-.2.3-.5.7-.7 1v.1c-.1.1-.2.2-.2.4-.3.4-.5.8-.8 1.2v.1c-.1.1-.1.2-.2.2-.2.2-.4.5-.6.7-.1.2-.3.3-.4.5v.1s-.1.1-.1.1c-.2.2-.4.5-.6.7s-.4.5-.6.7-.4.5-.6.7-.4.5-.6.7c-.3.3-.6.6-.9.9-.1.2-.3.3-.4.5-.2.2-.5.5-.7.7 0 0-.1.1-.1.1-.1.1-.2.3-.4.4s-.1.1-.1.1c-.2.2-.5.5-.8.7-.2.2-.4.4-.7.6s-.5.5-.8.7c-.2.2-.5.4-.7.6-.3.2-.6.5-.9.7-.2.2-.5.4-.7.6-.3.3-.6.5-.9.7-.2.2-.5.4-.7.6-.3.3-.7.5-1 .8-.2.2-.5.4-.7.5-.3.3-.7.5-1 .8-.2.2-.5.3-.7.5-.4.3-.7.5-1.1.8-.2.2-.5.3-.7.5-.4.3-.8.5-1.2.8-.2.2-.5.3-.7.5-.4.3-.9.5-1.3.8-.2.1-.4.3-.7.4-.7.4-1.3.8-2 1.2-1.2.7-2.5 1.4-3.7 2.1-.3.2-.7.3-1 .5-1.1.6-2.3 1.2-3.4 1.7-.2.1-.3.1-.5.2-1.3.6-2.6 1.2-3.9 1.8-.3.1-.7.3-1 .4-1.1.5-2.3.9-3.4 1.4-.2.1-.5.2-.7.3-1.4.5-2.8 1-4.2 1.5-.3.1-.7.2-1 .3-.9.3-1.9.6-2.9.9-.9.3-1.8.6-2.7.8-.8.2-1.5.5-2.3.7-.9.3-1.9.5-2.8.7-.8.2-1.6.4-2.4.6-1 .2-1.9.4-2.9.7-.8.2-1.6.4-2.4.5-1 .2-2 .4-2.9.6s-1.7.3-2.6.5c-.4.1-.8.1-1.2.2-1.3.2-2.7.4-4.1.6-.2 0-.4.1-.7.1-1.5.2-3.1.4-4.7.6-.4 0-.8.1-1.2.1-1 .1-1.9.2-2.9.3-1.2.1-2.4.2-3.6.3-.8.1-1.5.1-2.3.2-1.3.1-2.5.1-3.8.2-.7 0-1.4.1-2.1.1-1.1 0-2.2 0-3.3.1-.8 0-1.5 0-2.3 0-1.2 0-2.3 0-3.5 0-.7 0-1.4 0-2.1 0-1.1 0-2.1-.1-3.2-.1-.8 0-1.5-.1-2.3-.1-1.2-.1-2.3-.2-3.5-.2-.7 0-1.3-.1-2-.1-1.4-.1-2.8-.3-4.1-.4-.4 0-.8-.1-1.3-.1-1.8-.2-3.6-.4-5.4-.7-.3 0-.6-.1-.9-.1-1.5-.2-3-.5-4.6-.7-.6-.1-1.3-.2-1.9-.4-1.2-.2-2.3-.4-3.5-.7-.6-.1-1.2-.3-1.8-.4-1.3-.3-2.5-.6-3.8-.9-.7-.2-1.4-.3-2.1-.5-1.1-.3-2.3-.6-3.4-.9-1-.3-1.9-.5-2.9-.8-.4-.1-.7-.2-1.1-.3-1.4-.4-2.9-.9-4.3-1.4-.3-.1-.5-.2-.8-.3-1.2-.4-2.3-.8-3.5-1.3-.4-.1-.8-.3-1.2-.4-.9-.4-1.8-.7-2.7-1.1-.6-.3-1.2-.5-1.9-.8-.9-.4-1.7-.8-2.6-1.2-.6-.3-1.1-.5-1.7-.8-.9-.4-1.9-.9-2.8-1.4-.5-.2-.9-.5-1.4-.7-1.4-.7-2.7-1.5-4-2.2-.7-.4-1.4-.8-2-1.2-.2-.1-.4-.3-.7-.4-.4-.3-.9-.5-1.3-.8-.2-.2-.5-.3-.7-.5-.4-.3-.8-.5-1.2-.8-.3-.2-.5-.4-.8-.6s-.7-.5-1-.7-.5-.4-.8-.6-.7-.5-1-.7-.5-.4-.8-.6-.6-.5-1-.7c-.3-.2-.5-.4-.7-.6-.3-.2-.6-.5-.9-.7s-.5-.4-.7-.6c-.3-.2-.6-.5-.8-.7s-.5-.4-.7-.6c-.3-.2-.5-.5-.8-.7-.2-.2-.5-.4-.7-.7-.3-.2-.5-.5-.8-.7-.2-.2-.4-.4-.7-.7-.2-.2-.5-.5-.7-.7s-.4-.4-.6-.7c-.2-.2-.5-.5-.7-.7s-.4-.5-.6-.7-.4-.5-.7-.7c-.2-.2-.4-.5-.6-.7s-.4-.5-.6-.7-.4-.5-.6-.7-.4-.5-.6-.7-.3-.5-.5-.7c-.2-.3-.4-.5-.5-.8-.2-.2-.3-.5-.5-.7s-.3-.5-.5-.7-.3-.5-.5-.7c-.2-.3-.3-.5-.5-.8-.1-.2-.3-.5-.4-.7-.1-.3-.3-.5-.4-.8-.1-.2-.3-.5-.4-.7-.1-.3-.3-.5-.4-.8s-.2-.5-.4-.8c-.1-.3-.3-.5-.4-.8-.1-.2-.2-.5-.3-.7-.1-.3-.2-.5-.3-.8-.1-.2-.2-.5-.3-.7-.1-.3-.2-.5-.3-.8s-.2-.5-.3-.8-.2-.5-.3-.8-.2-.5-.2-.8c-.1-.3-.2-.5-.2-.8-.1-.3-.1-.5-.2-.8s-.1-.5-.2-.8-.1-.5-.2-.8-.1-.5-.2-.8-.1-.5-.1-.8-.1-.5-.1-.8-.1-.5-.1-.8-.1-.5-.1-.8-.1-.5-.1-.8-.1-.5-.1-.8 0-.5-.1-.8c0-.3 0-.5 0-.8s0-.5 0-.8 0-.5 0-.8c0-.1 0-.1 0-.2v12.2c0 16.7 11 33.5 33.1 46.3 1.3.8 2.7 1.5 4 2.2.5.2.9.5 1.4.7.9.5 1.8.9 2.8 1.4.6.3 1.1.5 1.7.8.9.4 1.7.8 2.6 1.2.6.3 1.2.5 1.9.8.6.2 1.2.5 1.8.7.3.1.6.3.9.4.4.2.8.3 1.2.4 1.2.4 2.3.9 3.5 1.3.3.1.5.2.8.3 1.4.5 2.8.9 4.3 1.4.4.1.7.2 1.1.3.6.2 1.2.4 1.8.5.3.1.7.2 1 .3 1.1.3 2.3.6 3.4.9.7.2 1.4.4 2.1.5 1.3.3 2.5.6 3.8.9.5.1.9.2 1.4.3.1 0 .3.1.4.1 1.1.2 2.3.4 3.5.7.6.1 1.3.2 1.9.4 1.5.3 3 .5 4.6.7.3 0 .5.1.8.1 1.8.3 3.6.5 5.4.7.4 0 .8.1 1.2.1 1.4.1 2.8.3 4.2.4h.1c.6.1 1.2.1 1.8.1 1.2.1 2.3.2 3.5.2.7 0 1.5.1 2.2.1 1.1 0 2.2.1 3.2.1h.3 1.8 3.5 2.3c1.1 0 2.2 0 3.3-.1h.6c.5 0 1 0 1.5-.1 1.3-.1 2.5-.1 3.8-.2.8 0 1.5-.1 2.3-.2 1.2-.1 2.4-.2 3.6-.3.4 0 .8-.1 1.3-.1.5-.1 1.1-.1 1.6-.2.4 0 .8-.1 1.2-.1 1.6-.2 3.1-.4 4.7-.6.2 0 .4-.1.7-.1 1.4-.2 2.7-.4 4.1-.6.4-.1.8-.1 1.2-.2.3-.1.6-.1 1-.2.6-.1 1.1-.2 1.7-.3 1-.2 2-.4 2.9-.6.8-.2 1.6-.3 2.4-.5 1-.2 1.9-.4 2.9-.7.8-.2 1.6-.4 2.4-.6.9-.2 1.9-.5 2.8-.7.8-.2 1.6-.4 2.3-.7.9-.3 1.8-.5 2.7-.8.4-.1.8-.3 1.2-.4.6-.2 1.1-.3 1.7-.5.3-.1.7-.2 1-.3l4.2-1.5c.3-.1.5-.2.7-.3 1.2-.5 2.3-.9 3.4-1.4.3-.1.7-.3 1-.4 1.3-.6 2.7-1.2 3.9-1.8.2-.1.3-.1.5-.2 1.2-.6 2.3-1.1 3.4-1.7.3-.2.7-.3 1-.5 1.3-.7 2.5-1.3 3.7-2.1.5-.3.9-.5 1.4-.8.1-.1.2-.1.3-.2.3-.2.7-.4 1-.6l.9-.6c.3-.2.7-.4 1-.7l.9-.6c.3-.2.6-.4 1-.7l.9-.6c.3-.2.6-.5.9-.7s.6-.4.8-.6c.3-.2.6-.5.9-.7s.5-.4.8-.6.6-.5.9-.7.5-.4.8-.6.6-.5.9-.7c.2-.2.5-.4.7-.6.3-.2.6-.5.8-.8.2-.2.4-.4.6-.5 0 0 0 0 .1-.1.6-.5 1.2-1.1 1.7-1.6.1-.1.3-.3.4-.4.4-.4.8-.8 1.2-1.3.2-.2.3-.3.5-.5.4-.5.9-.9 1.3-1.4l.3-.3c.5-.6 1-1.1 1.4-1.7 0 0 .1-.1.1-.1.1-.1.2-.3.3-.4.3-.3.5-.7.7-1 .2-.2.3-.4.5-.6.2-.3.5-.6.7-1 .1-.2.3-.4.4-.6.2-.3.4-.6.6-1 .1-.2.3-.4.4-.6.2-.4.4-.7.6-1.1.1-.1.2-.3.3-.4 0 0 0-.1.1-.1.2-.3.3-.6.5-.9.1-.2.2-.4.3-.6.2-.3.3-.7.5-1.1.1-.2.2-.3.2-.5.2-.5.5-1 .7-1.6 0-.1.1-.1.1-.2.2-.5.4-.9.5-1.4 0 0 0 0 0-.1.1-.2.1-.4.2-.6.1-.3.2-.6.3-.9.1-.2.1-.5.2-.7.1-.3.2-.6.3-.9.1-.2.1-.5.2-.7.1-.3.2-.6.2-.9.1-.2.1-.5.2-.7.1-.3.1-.6.2-.8 0-.1 0-.1 0-.2 0-.2.1-.4.1-.5.1-.3.1-.6.2-.9 0-.2.1-.5.1-.7 0-.3.1-.6.1-.9 0-.2.1-.5.1-.7 0-.3.1-.6.1-.8s0-.5 0-.7c0-.3 0-.6 0-.8s0-.4 0-.6 0-.4 0-.6v-12.2 1c-.1.6-.1.6-.1.7z" fill="#004d26"/><path d="m277.3 186.3v6.2l5.3-3.1z" fill="#ccd2de"/><path d="m311.3 206.1-5.3-3.1-54.1 31.2 5.3 3.1h-34.1v11.5h34.1v-6.1l48.8-28.3 5.4 3.1.1-19.7-.1-11.5z" fill="#ccd2de"/><path d="m251.9 234.2 54.1-31.2 5.3 3.1.1-19.8h-34.1l5.3 3.1-5.3 3.1-48.8 28.1-5.3-3.1-.1 19.8h34.1z" fill="#dfe3eb"/><path d="m312.3 59.8 14.1-8.2 59.6 34.4-59.6-34.4-14.1 8.2 8 4.6z" fill="#84d0d3"/><path d="m306.7 89.5c-.1.1-.1.2-.2.3 0-.1.1-.2.2-.3z" fill="#84d0d3"/><path d="m307.5 88.4s0 .1 0 0c-.1.1-.2.2-.3.3.1-.1.2-.2.3-.3z" fill="#84d0d3"/><path d="m323.2 87.4c-.1 0-.1 0 0 0z" fill="#84d0d3"/><path d="m309 87.4c1-.6 2.1-1 3.3-1.3-1.2.3-2.4.7-3.3 1.3-.2.1-.5.3-.7.4.2-.2.4-.3.7-.4z" fill="#84d0d3"/><path d="m308.2 87.9c-.1 0-.1 0 0 0-.2.1-.3.2-.5.4.1-.2.3-.3.5-.4z" fill="#84d0d3"/><path d="m306.4 90c0 .1-.1.2-.1.3 0-.1 0-.2.1-.3z" fill="#84d0d3"/><path d="m307 89c-.1.1-.2.2-.2.3.1-.1.1-.2.2-.3z" fill="#84d0d3"/><path d="m325.1 93.9c.1-.1.1-.2.2-.2-.1 0-.2.1-.2.2z" fill="#84d0d3"/><path d="m324 94.9c.1-.1.3-.2.4-.3-.1.1-.3.2-.4.3z" fill="#84d0d3"/><path d="m325.9 92.3c0-.1.1-.2.1-.3-.1.1-.1.2-.1.3z" fill="#84d0d3"/><path d="m326 91.7c0-.1 0-.2 0-.3z" fill="#84d0d3"/><path d="m324.6 94.4c.1-.1.2-.2.3-.3-.1.1-.2.2-.3.3z" fill="#84d0d3"/><path d="m325.4 93.4c.1-.1.1-.2.2-.3-.1.1-.1.2-.2.3z" fill="#84d0d3"/><path d="m325.7 92.8c0-.1.1-.2.1-.3 0 .2-.1.2-.1.3z" fill="#84d0d3"/><path d="m324 88c-.1-.1-.2-.1-.2-.2 0 .1.1.1.2.2z" fill="#84d0d3"/><path d="m325.4 89.5c0-.1-.1-.2-.1-.2 0 .1.1.1.1.2z" fill="#84d0d3"/><path d="m325.7 90.1c0-.1-.1-.2-.1-.3 0 .1.1.2.1.3z" fill="#84d0d3"/><path d="m325.9 90.6c0-.1 0-.2-.1-.3 0 .1.1.2.1.3z" fill="#84d0d3"/><path d="m326 91.2c0-.1 0-.2 0-.3z" fill="#84d0d3"/><path d="m324.9 88.8s.1.1.1.1c-.1 0-.1-.1-.1-.1z" fill="#84d0d3"/><path d="m324.6 88.5c-.1-.1-.1-.1-.2-.2 0 .1.1.1.2.2z" fill="#84d0d3"/><path d="m226.5 102.5 236.1 136.3z" fill="#84d0d3"/><path d="m216 96.4 104.5-60.8-104.5 60.8 10.5 6.1z" fill="#00babc"/><path d="m243.6 99.7 14-8.2 59.6 34.4-59.6-34.4z" fill="#84d0d3"/><path d="m352.9 124.2c-.1.1-.2.2-.3.3.1-.1.2-.2.3-.3z" fill="#84d0d3"/><path d="m351 126.4c-.1.1-.2.3-.3.4.1-.1.2-.3.3-.4z" fill="#84d0d3"/><path d="m354.1 123.1c-.1.1-.3.3-.4.4.2-.2.3-.3.4-.4z" fill="#84d0d3"/><path d="m358.3 119.9c-.2.1-.3.2-.5.3.3-.1.4-.2.5-.3z" fill="#84d0d3"/><path d="m350.2 127.4c-.1.2-.2.4-.4.5.2-.1.3-.3.4-.5z" fill="#84d0d3"/><path d="m349.4 128.6c-.1.1-.1.2-.2.3.1-.1.2-.2.2-.3z" fill="#84d0d3"/><path d="m347.2 134.7v.4c-.1-.2-.1-.3 0-.4z" fill="#84d0d3"/><path d="m347 135.9v.5c0-.1 0-.3 0-.5z" fill="#84d0d3"/><path d="m347.4 133.4c0 .2-.1.4-.1.6 0-.2.1-.4.1-.6z" fill="#84d0d3"/><path d="m348.6 130.1c0 .1-.1.2-.1.2.1 0 .1-.1.1-.2z" fill="#84d0d3"/><path d="m348.2 131.1c-.1.1-.1.3-.2.4.1-.1.1-.2.2-.4z" fill="#84d0d3"/><path d="m351.8 125.4c-.1.1-.1.2-.2.2.1 0 .1-.1.2-.2z" fill="#84d0d3"/><path d="m364.1 113.9c-.1 0-.1.1-.2.1.1 0 .2-.1.2-.1z" fill="#84d0d3"/><path d="m371.5 111.5c-.1 0-.2.1-.4.1.2 0 .3-.1.4-.1z" fill="#84d0d3"/><path d="m379.4 109.9c-.2 0-.4.1-.6.1.2 0 .4-.1.6-.1z" fill="#84d0d3"/><path d="m428.2 118.7c-.2-.1-.4-.3-.6-.4.3.2.5.4.8.5-.1 0-.1 0-.2-.1z" fill="#84d0d3"/><path d="m429.8 119.9c-.2-.1-.4-.3-.6-.5.3.2.5.4.7.6 0-.1 0-.1-.1-.1z" fill="#84d0d3"/><path d="m387.7 109.1c-.2 0-.3 0-.5 0z" fill="#84d0d3"/><path d="m431.3 121c-.2-.2-.4-.3-.6-.5.2.2.5.4.7.6 0 0 0 0-.1-.1z" fill="#84d0d3"/><path d="m440.1 135.2c0-.2 0-.4-.1-.7 0 .3.1.5.1.7z" fill="#84d0d3"/><path d="m383.6 109.4c-.2 0-.4 0-.6.1.1-.1.3-.1.6-.1z" fill="#84d0d3"/><path d="m367.8 112.6c-.2.1-.4.1-.6.2.2-.1.4-.2.6-.2z" fill="#84d0d3"/><path d="m425.9 117.3c.3.2.6.4.9.6-.3-.2-.6-.4-.9-.6z" fill="#84d0d3"/><path d="m439.5 132.5c-.1-.2-.1-.4-.2-.6.1.2.2.4.2.6z" fill="#84d0d3"/><path d="m439.9 133.9c0-.2-.1-.4-.1-.6 0 .1 0 .4.1.6z" fill="#84d0d3"/><path d="m435.1 124.7c-.2-.2-.3-.4-.5-.6.2.2.4.4.5.6z" fill="#84d0d3"/><path d="m440.2 136.6c0-.2 0-.4 0-.7z" fill="#84d0d3"/><path d="m436.1 126c-.1-.2-.3-.4-.4-.6.1.2.3.4.4.6z" fill="#84d0d3"/><path d="m438.5 129.9c-.1-.2-.2-.4-.3-.6.1.1.2.4.3.6z" fill="#84d0d3"/><path d="m437 127.3c-.2-.2-.3-.4-.4-.6.2.1.3.4.4.6z" fill="#84d0d3"/><path d="m439.1 131.2c-.1-.2-.2-.4-.2-.6 0 .2.1.4.2.6z" fill="#84d0d3"/><path d="m437.8 128.6c-.1-.2-.2-.4-.4-.6.2.1.3.3.4.6z" fill="#84d0d3"/><path d="m434 123.5c-.2-.2-.3-.4-.5-.6.1.2.3.4.5.6z" fill="#84d0d3"/><path d="m440.2 138c0-.2 0-.5 0-.7z" fill="#84d0d3"/><path d="m432.8 122.3c-.2-.2-.4-.4-.6-.6.2.2.4.4.6.6z" fill="#84d0d3"/><path d="m440.1 139.3c0-.2.1-.5.1-.7 0 .3-.1.5-.1.7z" fill="#84d0d3"/><path d="m439.1 143.3c.1-.2.2-.5.3-.7-.1.3-.2.5-.3.7z" fill="#84d0d3"/><path d="m439.5 142c.1-.2.1-.5.2-.7 0 .2-.1.5-.2.7z" fill="#84d0d3"/><path d="m439.9 140.7c0-.2.1-.5.1-.7 0 .2-.1.4-.1.7z" fill="#84d0d3"/><path d="m404.1 110c-.2 0-.4-.1-.6-.1.2 0 .5.1.6.1z" fill="#84d0d3"/><path d="m433.7 128.6c-.1-.2-.3-.4-.4-.6.1.3.2.4.4.6z" fill="#84d0d3"/><path d="m422.9 115.7c-.1-.1-.3-.1-.4-.2.1.1.2.1.4.2z" fill="#84d0d3"/><path d="m432.9 127.5c-.1-.2-.3-.4-.5-.6.2.2.4.4.5.6z" fill="#84d0d3"/><path d="m432 126.3c-.1-.1-.2-.2-.2-.3.1.1.2.2.2.3z" fill="#84d0d3"/><path d="m431 125.2c-.2-.2-.4-.4-.6-.6.3.2.5.4.6.6z" fill="#84d0d3"/><path d="m408 110.7c-.1 0-.2-.1-.3-.1.1.1.2.1.3.1z" fill="#84d0d3"/><path d="m415.7 112.8c-.2-.1-.4-.1-.5-.2.1.1.3.1.5.2z" fill="#84d0d3"/><path d="m411.8 111.6c-.1 0-.2 0-.3-.1.1.1.2.1.3.1z" fill="#84d0d3"/><path d="m400 109.5c-.2 0-.4 0-.6-.1.2 0 .4.1.6.1z" fill="#84d0d3"/><path d="m419.4 114.2c-.2-.1-.4-.2-.6-.2.2 0 .4.1.6.2z" fill="#84d0d3"/><path d="m395.8 109.1c-.2 0-.3 0-.5 0z" fill="#84d0d3"/><path d="m427.1 121.6c-.1-.1-.3-.2-.4-.3.1.1.2.2.4.3z" fill="#84d0d3"/><path d="m428.8 123c-.2-.2-.5-.4-.7-.6.2.2.5.4.7.6z" fill="#84d0d3"/><path d="m347.1 139c0 .2 0 .4.1.6-.1-.2-.1-.4-.1-.6z" fill="#00babc"/><path d="m348.1 143c0 .1.1.1.1.2 0-.1 0-.2-.1-.2z" fill="#00babc"/><path d="m347.3 140.3c0 .2.1.3.1.5 0-.2-.1-.4-.1-.5z" fill="#00babc"/><path d="m365 127.4s-.1.1-.1.1 0 0 .1-.1z" fill="#00babc"/><path d="m347.6 141.5c0 .1.1.2.1.3 0-.1 0-.2-.1-.3z" fill="#00babc"/><path d="m367 125.8c-.1.1-.2.1-.3.2 0 0 .1-.1.1-.1.1-.1.2-.1.2-.1z" fill="#00babc"/><path d="m419.9 129.3c-.1-.1-.1-.1-.2-.2.1.1.2.2.2.2z" fill="#00babc"/><path d="m366.2 126.4c-.1.1-.2.1-.3.2.1 0 .2-.1.3-.2z" fill="#00babc"/><path d="m435 143.2c.1-.2.1-.4.2-.6 0 .2-.1.4-.2.6z" fill="#00babc"/><path d="m363.6 128.8c-.1.1-.2.2-.3.3.2-.1.3-.2.3-.3z" fill="#00babc"/><path d="m364.4 127.9c-.1.1-.2.2-.3.3.2-.1.2-.2.3-.3z" fill="#00babc"/><path d="m417.8 127.2c-.2-.1-.3-.3-.5-.4 0 0 .1.1.1.1.2.1.3.2.4.3z" fill="#00babc"/><path d="m347 137.8v.5c0-.2 0-.3 0-.5z" fill="#00babc"/><path d="m416.9 126.4s-.1-.1-.2-.1c.1.1.2.1.2.1z" fill="#00babc"/><path d="m353.7 123.4c-.2.2-.4.4-.7.6.3-.2.5-.4.7-.6z" fill="#00babc"/><path d="m352.6 124.5c-.2.2-.4.4-.6.6.2-.2.4-.4.6-.6z" fill="#00babc"/><path d="m357.9 120.2c-.2.1-.4.2-.5.4.1-.2.3-.3.5-.4z" fill="#00babc"/><path d="m351.6 125.7c-.2.2-.4.4-.5.6.1-.2.3-.4.5-.6z" fill="#00babc"/><path d="m359.9 118.9c.9-.5 1.8-1 2.7-1.4-.9.4-1.8.9-2.7 1.4-.5.3-1.1.6-1.6 1 .6-.3 1.1-.7 1.6-1z" fill="#00babc"/><path d="m355.5 121.9c.2-.1.4-.3.6-.4-.2.1-.4.3-.6.4z" fill="#00babc"/><path d="m355 122.3c-.2.1-.3.3-.5.4.1-.1.3-.2.5-.4z" fill="#00babc"/><path d="m347.1 135.3c0 .2-.1.4-.1.6 0-.2.1-.4.1-.6z" fill="#00babc"/><path d="m347.6 132.8c-.1.2-.1.4-.2.6.1-.2.1-.4.2-.6z" fill="#00babc"/><path d="m347.3 134c0 .2-.1.4-.1.6 0-.1.1-.4.1-.6z" fill="#00babc"/><path d="m348 131.6c-.1.2-.2.4-.2.6 0-.2.1-.4.2-.6z" fill="#00babc"/><path d="m350.7 126.8c-.2.2-.3.4-.5.6.1-.2.3-.4.5-.6z" fill="#00babc"/><path d="m347 136.5v.6c0-.2 0-.4 0-.6z" fill="#00babc"/><path d="m349.8 128c-.1.2-.3.4-.4.6.2-.2.3-.4.4-.6z" fill="#00babc"/><path d="m348.5 130.4c-.1.2-.2.4-.3.6.1-.2.2-.4.3-.6z" fill="#00babc"/><path d="m349.1 129.2c-.1.1-.1.2-.2.3.1-.1.2-.2.2-.3z" fill="#00babc"/><path d="m432.5 126.9c-.1-.2-.3-.4-.4-.5.1.1.2.3.4.5z" fill="#00babc"/><path d="m430.5 124.6c-.2-.2-.3-.3-.5-.5.2.1.3.3.5.5z" fill="#00babc"/><path d="m428.1 122.4c-.1-.1-.2-.2-.4-.3.1.1.3.2.4.3z" fill="#00babc"/><path d="m433.3 128.1c-.1-.2-.2-.4-.4-.6.1.2.3.4.4.6z" fill="#00babc"/><path d="m426.7 121.3c-.1-.1-.1-.1-.2-.2.1.1.1.2.2.2z" fill="#00babc"/><path d="m421 130.8c-.1-.2-.2-.3-.3-.4.1.1.2.3.3.4z" fill="#84d0d3"/><path d="m422.8 139.4c0-.2.1-.3.1-.5 0 .2 0 .4-.1.5z" fill="#84d0d3"/><path d="m422.8 135c0-.1-.1-.3-.1-.4.1.2.1.3.1.4z" fill="#84d0d3"/><path d="m422.6 140.2c0-.1.1-.2.1-.3 0 .1 0 .2-.1.3z" fill="#84d0d3"/><path d="m423 136.8c0-.1 0-.3 0-.4z" fill="#84d0d3"/><path d="m423 135.9c0-.2 0-.3-.1-.4 0 .1.1.3.1.4z" fill="#84d0d3"/><path d="m423 137.7c0-.1 0-.3 0-.4.1.1 0 .2 0 .4z" fill="#84d0d3"/><path d="m423 138.6c0-.1 0-.3.1-.4-.1.1-.1.2-.1.4z" fill="#84d0d3"/><path d="m360.2 135.8c0 .2 0 .3-.1.5.1-.2.1-.3.1-.5z" fill="#84d0d3"/><path d="m361.7 131.5c-.1.2-.2.3-.3.5.1-.2.2-.3.3-.5z" fill="#84d0d3"/><path d="m361.2 132.4c-.1.2-.1.3-.2.5.1-.2.1-.4.2-.5z" fill="#84d0d3"/><path d="m363.4 129.1c-.1.1-.3.3-.4.4.1-.1.3-.3.4-.4z" fill="#84d0d3"/><path d="m362.2 130.7c-.1.2-.2.3-.3.5.1-.2.2-.4.3-.5z" fill="#84d0d3"/><path d="m360.3 135c0 .1-.1.3-.1.4.1-.1.1-.3.1-.4.1 0 .1 0 0 0z" fill="#84d0d3"/><path d="m360.6 134.1c0 .2-.1.3-.1.5 0-.2 0-.4.1-.5z" fill="#84d0d3"/><path d="m360.9 133.2c-.1.1-.1.3-.2.4 0-.1.1-.2.2-.4z" fill="#84d0d3"/><path d="m362.7 129.9c-.1.2-.2.3-.3.5.1-.2.2-.4.3-.5z" fill="#84d0d3"/><path d="m422.6 134.2c0-.1-.1-.3-.1-.4 0 .1.1.2.1.4z" fill="#84d0d3"/><path d="m421.5 131.6c-.1-.1-.1-.3-.2-.4.1.1.1.3.2.4z" fill="#84d0d3"/><path d="m422 132.5c-.1 0-.1 0 0 0-.1-.2-.1-.3-.2-.4 0 .1.1.2.2.4z" fill="#84d0d3"/><path d="m422.3 133.3c-.1-.1-.1-.3-.2-.4.1.1.2.3.2.4z" fill="#84d0d3"/><path d="m364.1 128.3c-.1.1-.3.3-.4.4.1-.1.3-.3.4-.4z" fill="#84d0d3"/><path d="m416.4 126c-.1-.1-.3-.2-.4-.3.2.1.4.3.6.4-.1 0-.2 0-.2-.1z" fill="#84d0d3"/><path d="m417.5 126.9s-.1-.1-.1-.1c-.1-.1-.3-.2-.4-.3.1.1.3.2.5.4z" fill="#84d0d3"/><path d="m365 127.5c-.1 0-.1 0 0 0-.2.2-.4.3-.5.5.1-.2.3-.4.5-.5z" fill="#84d0d3"/><path d="m367.8 125.2c-.2.2-.5.3-.7.5.3-.2.6-.4.9-.6-.1 0-.1.1-.2.1z" fill="#84d0d3"/><path d="m418.3 127.6c-.2-.2-.3-.3-.5-.4.2.1.3.3.5.4z" fill="#84d0d3"/><path d="m366.9 125.9s-.1.1-.1.1c-.2.1-.4.3-.6.4.2-.2.4-.3.7-.5z" fill="#84d0d3"/><path d="m365.8 126.7c-.2.1-.3.3-.5.4.1-.1.3-.2.5-.4z" fill="#84d0d3"/><path d="m420.4 129.9c-.1-.1-.2-.3-.3-.4.1.2.2.3.3.4z" fill="#84d0d3"/><path d="m419 128.3c-.1-.1-.2-.2-.4-.4.2.2.3.3.4.4z" fill="#84d0d3"/><path d="m419.8 129.2c0-.1 0-.1 0 0-.1-.2-.3-.3-.4-.4.2.1.3.2.4.4z" fill="#84d0d3"/><path d="m413.8 124.3c.1 0 .1.1.2.1-.1 0-.2 0-.2-.1-12.3-7.1-32.3-7.1-44.5 0-.4.2-.8.4-1.1.7.4-.2.7-.5 1.1-.7 12.2-7.1 32.1-7.1 44.5 0z" fill="#84d0d3"/><path d="m415.3 125.3c-.1-.1-.3-.2-.4-.3 0 0-.1-.1-.1-.1.3.2.6.4.9.6-.2-.1-.3-.2-.4-.2z" fill="#84d0d3"/><path d="m539.6 174.7-59.5-34.4-14.1 8.2 14.1-8.2z" fill="#84d0d3"/><path d="m422.7 139.9c0-.1 0-.2 0-.2.1 0 .1.1 0 .2z" fill="#00babc"/><path d="m422.9 139c0-.1 0-.1 0-.2z" fill="#00babc"/><path d="m423 138.1c0-.1 0-.3 0-.4z" fill="#00babc"/><path d="m429.9 150.5c.1-.1.1-.1.2-.2 0 .1-.1.2-.2.2z" fill="#84d0d3"/><path d="m430.2 150.3c0-.1 0-.1 0 0z" fill="#84d0d3"/><path d="m428.8 151.5c.1-.1.2-.2.3-.3-.1.2-.2.2-.3.3z" fill="#84d0d3"/><path d="m426.4 153.4c-.1.1-.3.2-.4.3.2-.1.3-.2.4-.3z" fill="#84d0d3"/><path d="m432 148.2c0-.1.1-.1.1-.2 0 .1 0 .2-.1.2z" fill="#84d0d3"/><path d="m434.1 151c.2-.2.4-.4.6-.6-.2.1-.4.4-.6.6z" fill="#84d0d3"/><path d="m435.2 149.8c.1-.1.1-.2.2-.2-.1 0-.1.1-.2.2z" fill="#84d0d3"/><path d="m353.2 150.3c.2.2.4.4.6.6-.2-.2-.4-.4-.6-.6z" fill="#84d0d3"/><path d="m349.5 145.7c.1.2.3.4.4.6-.1-.2-.3-.4-.4-.6z" fill="#84d0d3"/><path d="m417.5 158.3c2-.8 4-1.8 5.8-2.8-1.9 1-3.8 2-5.8 2.8z" fill="#84d0d3"/><path d="m348.3 143.3c.1.2.2.4.3.6-.1-.2-.3-.4-.3-.6z" fill="#84d0d3"/><path d="m348.8 144.5c.1.2.2.4.4.6-.1-.2-.3-.4-.4-.6z" fill="#84d0d3"/><path d="m354.4 151.4c.1.1.2.2.3.2-.1 0-.2-.1-.3-.2z" fill="#84d0d3"/><path d="m357 153.5c.2.2.5.3.7.5-.2-.1-.4-.3-.7-.5z" fill="#84d0d3"/><path d="m347.3 140c0 .1 0 .2.1.3-.1-.1-.1-.2-.1-.3z" fill="#84d0d3"/><path d="m347.4 140.9c.1.2.1.4.2.6 0-.2-.1-.4-.2-.6z" fill="#84d0d3"/><path d="m347.1 138.7v.3c0-.1 0-.2 0-.3z" fill="#84d0d3"/><path d="m434.9 143.5c0-.1.1-.2.1-.2s0 .1-.1.2z" fill="#84d0d3"/><path d="m376.5 161.5c-2.4-.5-4.7-1.1-6.9-1.8 2.3.7 4.6 1.3 6.9 1.8z" fill="#84d0d3"/><path d="m439.1 143.4c0-.1 0-.1 0 0z" fill="#00babc"/><path d="m440 139.7c0-.1 0-.3.1-.4 0 .1 0 .3-.1.4z" fill="#00babc"/><path d="m434.7 150.3c.2-.2.3-.4.5-.6-.2.3-.3.4-.5.6z" fill="#00babc"/><path d="m433.6 151.5c.2-.2.3-.4.5-.5-.2.2-.3.3-.5.5z" fill="#00babc"/><path d="m478.6 177.2c.1.1.2.1.3.2-.1 0-.2-.1-.3-.2z" fill="#84d0d3"/><path d="m477.9 176.7c-.2-.1-.5-.3-.8-.4.3.2.5.3.8.4z" fill="#84d0d3"/><path d="m479.5 178c-.1-.1-.1-.1-.2-.2.1.1.1.1.2.2z" fill="#84d0d3"/><path d="m199.6 96.4c0 .1 0 .1.1.2v.2c0 .1.1.1.1.2s0 .1.1.2c0 .1.1.1.1.2s.1.1.1.2.1.1.2.2c0 .1.1.1.1.2.1.1.2.1.2.2.1 0 .1.1.2.1.1.1.2.2.3.2 0 0 .1.1.1.1.2.1.3.2.5.3l128.2 74 128.2 74c.7.4 1.6.7 2.5 1s1.9.3 2.8.3c1.9 0 3.8-.4 5.3-1.3l109.9-63.9 1-.6 1.8-1.1s.1 0 .1-.1c.1-.1.3-.2.4-.3.1 0 .1-.1.2-.2s.2-.1.2-.2c.1-.1.1-.1.2-.2s.1-.1.2-.2.1-.1.1-.2c.1-.1.1-.1.2-.2 0-.1.1-.1.1-.2s.1-.2.1-.2c0-.1.1-.1.1-.2s.1-.2.1-.2c0-.1 0-.1 0-.2s0-.1.1-.2c0-.1 0-.1 0-.2.1-1.2-.6-2.4-2.2-3.3l-256.4-148c-2.9-1.7-7.7-1.7-10.6 0l-112.6 65.9c-1.5.8-2.2 2-2.2 3.1v.2s0 .1.1.2z" fill="#063"/><path d="m463.8 176.7c-.2.1-.4.3-.6.4.1-.1.4-.2.6-.4z" fill="#84d0d3"/><path d="m461.6 178.7c-.1.2-.2.3-.3.5.1-.2.2-.4.3-.5z" fill="#84d0d3"/><path d="m460.9 180.5v.3c0-.1 0-.2 0-.3z" fill="#84d0d3"/><path d="m461 179.9c0 .1-.1.2-.1.3 0-.1.1-.2.1-.3z" fill="#84d0d3"/><path d="m461.2 179.4c0 .1-.1.1-.1.2 0-.1.1-.2.1-.2z" fill="#84d0d3"/><path d="m480.4 179.2s0 .1.1.1c-.1 0-.1-.1-.1-.1z" fill="#84d0d3"/><path d="m470.9 214.6-59.6-34.3-14.1 8.2 14.1-8.2z" fill="#84d0d3"/><path d="m329.9 173 128.2 74c.7.4 1.6.7 2.5 1-.9-.2-1.8-.5-2.5-1z" fill="#00babc"/><path d="m243.6 99.7 59.5 34.4 14.1-8.2-59.6-34.4z" fill="#063"/><path d="m312.3 59.8 8 4.6 51.5 29.7 14.2-8.1-59.6-34.4z" fill="#063"/><path d="m320.5 35.6-104.5 60.8 10.5 6.1 236.1 136.3 104.6-60.8zm5.9 16 59.6 34.4-14.1 8.2-51.6-29.8-8-4.6zm-9.2 74.3-14.1 8.2-59.5-34.4 14.1-8.2zm8.8-34.4v.3.3c0 .1 0 .2-.1.3 0 .1 0 .2-.1.3 0 .1-.1.2-.1.3s-.1.2-.1.3c0 .1-.1.2-.2.3 0 .1-.1.2-.1.2-.1.1-.1.2-.2.2-.1.1-.1.2-.2.2-.1.1-.2.2-.3.3s-.1.1-.2.2-.2.2-.4.3c0 0 0 0-.1 0-.3.2-.5.4-.8.6-.4.2-.8.4-1.2.6-.9.4-1.9.7-3 .9-3.4.6-7.2.1-9.9-1.5-2.4-1.4-3.3-3.2-2.8-5 0-.1 0-.1 0-.2 0-.1.1-.2.1-.3 0 0 0 0 0-.1s0-.1.1-.2 0 0 0 0c.1-.1.1-.2.2-.3 0-.1.1-.1.1-.2.1-.1.2-.2.2-.3.1-.1.1-.1.2-.2.1-.1.2-.2.3-.3s.1-.1.1-.1.1-.1.1-.1c.1-.1.3-.2.4-.3.1 0 .1-.1.2-.1.2-.2.4-.3.7-.4 1-.6 2.1-1 3.3-1.3.4-.1.8-.2 1.2-.2h.3c.4-.1.8-.1 1.3-.1h1.3.3c.4 0 .8 0 1.3.1.4 0 .8.1 1.2.2.1 0 .2 0 .3.1l1.2.3c.4.1.8.3 1.1.4.1 0 .2.1.3.1.4.2.7.3 1 .5s.1 0 .1.1c.1.1.2.1.3.2s.2.1.3.2c.1 0 .1.1.2.1s.1.1.2.2.1.1.2.2c.1.1.1.1.2.2s.2.2.3.3.1.1.1.1 0 0 .1.1c.1.1.2.2.2.3.1.1.1.2.1.2.1.1.1.2.2.3 0 .1.1.2.1.2 0 .1.1.2.1.3s0 .2.1.3v.1c0 .1 0 .1.1.2v.3c.1-.2.1-.2.1 0zm31.3 65.6c-19.1-11-19.2-28.8-.2-39.8 2-1.2 4.2-2.2 6.4-3.1h.1c.1 0 .2-.1.3-.1s.1-.1.2-.1c.2-.1.4-.1.6-.2.8-.3 1.7-.6 2.5-.9.2-.1.4-.1.6-.2 1.1-.4 2.2-.7 3.3-1 .1 0 .2-.1.4-.1l1.2-.3c.8-.2 1.5-.4 2.3-.5.1 0 .2 0 .2-.1.6-.1 1.2-.2 1.8-.3s1.2-.2 1.7-.3c.2 0 .4-.1.6-.1 1.2-.2 2.3-.3 3.5-.4.2 0 .4 0 .6-.1.6-.1 1.2-.1 1.9-.1.6 0 1.2-.1 1.7-.1h.5c.9 0 1.8-.1 2.7-.1h1.1.1c1 0 1.9 0 2.9.1h.9.5c.8 0 1.6.1 2.5.2.4 0 .8 0 1.2.1.2 0 .4 0 .6.1 1.2.1 2.4.3 3.5.4.2 0 .4.1.6.1 1.2.2 2.4.4 3.6.6.1 0 .2 0 .3.1 1.2.2 2.3.5 3.5.8.1 0 .2 0 .3.1.9.2 1.7.5 2.5.7.3.1.6.2.9.3.2.1.4.1.5.2.2.1.3.1.5.2.9.3 1.8.6 2.7 1 .2.1.4.1.6.2 1 .4 2 .9 3 1.3.1.1.3.1.4.2 1 .5 2 1 3 1.6.6.3 1.1.7 1.6 1 0 0 .1 0 .1.1.2.1.4.3.6.4s.3.2.5.3.4.2.6.4c.2.1.4.3.6.5 0 0 .1.1.1.1.3.2.5.4.8.6.2.2.4.3.6.5.3.2.6.4.8.7.2.2.4.3.6.5.1.1.2.2.3.3s.3.2.4.3c.2.2.4.4.5.6.2.2.4.4.6.7.2.2.3.4.5.6.2.2.4.4.5.6.2.2.3.4.4.6.2.2.3.5.5.7.1.2.3.4.4.6s.3.5.4.7.2.4.3.6c.1.1.1.2.2.3s.2.3.2.4c.1.2.2.4.3.6s.2.5.3.7.2.4.2.6c.1.2.2.5.3.7.1.2.1.4.2.6 0 .1.1.2.1.3s.1.2.1.4c.1.2.1.4.1.6 0 .1.1.3.1.4s0 .2.1.3c0 .2.1.4.1.7v.3c0 .1 0 .3.1.4v.7.7s0 0 0 0v.7.6c0 .2-.1.5-.1.7 0 .1 0 .3-.1.4v.3c0 .2-.1.5-.1.7 0 .2-.1.4-.1.6-.1.2-.1.5-.2.7-.1.2-.1.4-.2.6-.1.2-.2.5-.3.7v.1c-.1.2-.1.4-.2.5-.1.2-.2.5-.3.7-.1.2-.2.4-.3.6 0 .1-.1.2-.1.2-.1.1-.2.3-.2.4-.1.2-.2.4-.3.6-.1.2-.3.4-.4.7-.1.2-.3.4-.4.6-.2.2-.3.4-.5.7-.1.2-.3.4-.4.6-.1.1-.2.3-.4.4-.1.1-.1.2-.2.2-.2.2-.3.4-.5.6s-.4.4-.6.6-.3.4-.5.5c-2 2-4.5 3.9-7.5 5.6-18.9 10.9-49.7 10.9-68.8-.1zm99.5 65.7-59.5-34.4 14.1-8.2 59.5 34.4zm21.1-37.9c-3.9 2.3-10.2 2.3-14.1 0-2-1.1-2.9-2.6-2.9-4.1 0-.1 0-.2 0-.3s0-.2 0-.2c0-.1 0-.2.1-.3v-.1-.1s0-.1.1-.1c0-.1.1-.1.1-.2 0-.1 0-.1.1-.2.1-.2.2-.3.3-.5.1-.2.2-.3.4-.5.2-.2.3-.3.5-.5s.1-.1.1-.1c.2-.1.3-.3.5-.4s.4-.3.6-.4.5-.3.8-.4c1.8-.9 4-1.3 6.3-1.3 2.2 0 4.4.4 6.3 1.3.3.1.5.3.8.4.3.2.5.3.7.5.1.1.2.1.3.2.1.1.2.2.3.3 0 0 .1.1.1.1l.2.2.2.2c.1.1.2.2.3.3 0 0 .1.1.1.1s0 0 .1.1c.1.2.2.3.3.5s0 .1.1.1c0 .1.1.2.1.3.6 1.7-.3 3.7-2.8 5.1zm-11.9-36.4 14.1-8.2 59.5 34.4-14.1 8.2z" fill="#00994c"/><path d="m326 90.9c0-.1 0-.1-.1-.2 0 0 0 0 0-.1s0-.2-.1-.3c0-.1-.1-.2-.1-.3s-.1-.2-.1-.3c-.1-.1-.1-.2-.2-.3 0-.1-.1-.2-.1-.2-.1-.1-.2-.2-.2-.3s0 0-.1-.1c0-.1-.1-.1-.1-.1-.1-.1-.2-.2-.3-.2-.1-.1-.1-.1-.2-.2-.1-.1-.1-.1-.2-.2-.1 0-.1-.1-.2-.1-.1-.1-.1-.1-.2-.2s-.2-.1-.3-.2-.2-.1-.3-.2-.1 0-.1-.1c-.3-.2-.7-.4-1-.5-.1 0-.2-.1-.3-.1-.4-.1-.7-.3-1.1-.4-.4-.1-.8-.2-1.2-.3-.1 0-.2 0-.3-.1-.4-.1-.8-.1-1.2-.2-.4 0-.8-.1-1.3-.1-.1 0-.2 0-.3 0-.4 0-.8 0-1.3 0-.4 0-.8.1-1.3.1-.1 0-.2 0-.3 0-.4.1-.8.1-1.2.2-1.2.3-2.3.7-3.3 1.3-.2.1-.5.3-.7.4 0 0-.1.1-.1.1-.2.1-.3.2-.5.4 0 0-.1.1-.1.1s-.1.1-.1.1c-.1.1-.2.2-.3.3-.1.1-.1.1-.2.2-.1.1-.2.2-.2.3-.1.1-.1.1-.1.2-.1.1-.1.2-.2.3 0 .1 0 .1-.1.2v.1c0 .1-.1.2-.1.3v.2c-.5 1.8.4 3.6 2.8 5 2.7 1.5 6.5 2 9.9 1.5 1.1-.2 2.1-.5 3-.9.4-.2.8-.4 1.2-.6.3-.2.6-.4.8-.6h.1c.1-.1.3-.2.4-.3.1-.1.1-.1.2-.2.1-.1.2-.2.3-.3.1-.1.1-.2.2-.2.1-.1.1-.2.2-.2.1-.1.1-.2.1-.2.1-.1.1-.2.2-.3 0-.1.1-.2.1-.3 0-.1.1-.2.1-.3s0-.2.1-.3c0-.1.1-.2.1-.3 0-.1 0-.2 0-.3 0-.1 0-.2 0-.3 0-.1 0-.2 0-.3-.1.1-.1 0-.1-.1z" fill="#063"/><path d="m433.6 151.5c.2-.2.3-.4.5-.5.2-.2.4-.4.6-.6s.3-.4.5-.6c.1-.1.1-.2.2-.2.1-.1.2-.3.4-.4.2-.2.3-.4.4-.6.2-.2.3-.4.5-.7.1-.2.3-.4.4-.6.1-.2.3-.4.4-.7.1-.2.2-.4.3-.6.1-.1.2-.3.2-.4s.1-.2.1-.2c.1-.2.2-.4.3-.6.1-.2.2-.5.3-.7.1-.2.1-.4.2-.5v-.1c.1-.2.2-.5.3-.7.1-.2.1-.4.2-.6.1-.2.1-.5.2-.7.1-.2.1-.4.1-.6 0-.2.1-.5.1-.7 0-.1 0-.2 0-.3s0-.3 0-.4c0-.2.1-.5.1-.7 0-.2 0-.4 0-.6 0-.2 0-.5 0-.7 0-.2 0-.5 0-.7s0-.4 0-.7c0-.1 0-.3-.1-.4 0-.1 0-.2 0-.3 0-.2 0-.4-.1-.7 0-.1 0-.2-.1-.3 0-.1-.1-.3-.1-.4 0-.2-.1-.4-.1-.7 0-.1-.1-.2-.1-.4 0-.1-.1-.2-.1-.3-.1-.2-.1-.4-.2-.7-.1-.2-.2-.5-.3-.7-.1-.2-.2-.4-.2-.6-.1-.2-.2-.5-.3-.7s-.2-.4-.3-.6c-.1-.1-.1-.3-.2-.4 0-.1-.1-.2-.1-.3-.1-.2-.2-.4-.4-.6-.1-.2-.3-.4-.4-.6s-.3-.4-.4-.6c-.2-.2-.3-.4-.5-.6s-.3-.4-.5-.6c-.2-.2-.4-.4-.5-.6-.2-.2-.3-.4-.5-.6s-.4-.4-.6-.6-.4-.4-.6-.6c-.1-.1-.2-.2-.4-.3-.1-.1-.2-.2-.3-.3-.2-.2-.4-.4-.6-.6s-.5-.4-.7-.6-.5-.4-.7-.6c-.2-.2-.5-.4-.8-.6-.2-.2-.5-.4-.7-.6-.2-.1-.4-.3-.6-.4-.1-.1-.2-.1-.3-.2-.3-.2-.5-.4-.8-.5s-.1 0-.1-.1c-.2-.1-.5-.3-.7-.4-.3-.2-.6-.4-.9-.6-1-.6-2-1.1-3-1.6-.1-.1-.3-.1-.4-.2-1-.5-2-.9-3-1.3-.2-.1-.4-.2-.6-.2-.9-.3-1.8-.7-2.7-1-.2-.1-.3-.1-.5-.2-.2-.1-.4-.1-.6-.2-.3-.1-.6-.2-.8-.3-.8-.3-1.7-.5-2.5-.7-.1 0-.2 0-.3-.1-1.1-.3-2.3-.6-3.4-.8-.1 0-.2-.1-.3-.1-1.2-.2-2.4-.4-3.5-.6-.2 0-.4-.1-.6-.1-1.2-.2-2.3-.3-3.5-.4-.2 0-.4 0-.6-.1-.4 0-.8-.1-1.2-.1-.8-.1-1.6-.1-2.4-.2-.2 0-.3 0-.5 0-.3 0-.6 0-.9 0-.9 0-1.9-.1-2.9-.1h-.1c-.4 0-.7 0-1.1 0-.9 0-1.8 0-2.7.1-.2 0-.4 0-.5 0-.6 0-1.2.1-1.7.1-.6 0-1.2.1-1.9.1-.2 0-.4 0-.7.1-1.2.1-2.4.3-3.5.4-.2 0-.4.1-.6.1-.6.1-1.2.2-1.7.3-.6.1-1.2.2-1.8.3-.1 0-.2 0-.2.1-.8.2-1.5.4-2.3.5-.4.1-.8.2-1.2.3-.1 0-.2.1-.4.1-1.1.3-2.2.6-3.3 1-.2.1-.4.1-.6.2-.9.3-1.7.6-2.5.9-.2.1-.4.1-.6.2-.1 0-.1.1-.2.1s-.2.1-.3.1c0 0 0 0-.1 0-2.3.9-4.4 2-6.4 3.1-18.9 11-18.8 28.8.2 39.8 19.1 11 49.9 11 68.8 0 3.1-1.6 5.5-3.5 7.6-5.5zm-8.5 2.9c-.1.1-.3.2-.4.3-.5.3-.9.6-1.4.9-1.8 1.1-3.8 2-5.8 2.8-.7.3-1.4.5-2.1.8-.9.3-1.9.7-2.8.9-1.5.5-3.1.9-4.7 1.2-.8.2-1.6.3-2.4.5-.9.2-1.9.3-2.8.5-1.5.2-3 .4-4.6.5-1.3.1-2.7.2-4 .2-.9 0-1.9 0-2.8 0-1.8 0-3.6-.1-5.3-.2-.9-.1-1.8-.2-2.7-.2-1.3-.1-2.6-.3-3.9-.5-.9-.2-1.9-.3-2.8-.5-2.4-.5-4.7-1.1-6.9-1.8-.6-.2-1.1-.4-1.7-.6-2.2-.8-4.2-1.7-6.2-2.7-.6-.3-1.1-.6-1.7-.9-.8-.5-1.6-1-2.3-1.5-.2-.2-.5-.3-.7-.5-.2-.1-.3-.2-.5-.3-.7-.5-1.3-1-1.9-1.5-.1-.1-.2-.2-.3-.2-.2-.2-.4-.3-.5-.5-.2-.2-.4-.4-.6-.6-1.3-1.2-2.3-2.5-3.2-3.8 0-.1-.1-.1-.1-.2-.1-.2-.3-.4-.4-.6s-.2-.4-.3-.6-.2-.4-.4-.6c-.1-.2-.2-.4-.3-.6s-.2-.4-.3-.6c0 0 0-.1-.1-.1 0-.1-.1-.1-.1-.2s-.1-.2-.1-.2c-.1-.2-.2-.4-.2-.6 0-.1-.1-.2-.1-.3s-.1-.2-.1-.3c-.1-.2-.1-.4-.2-.6 0 0 0 0 0-.1v-.1c0-.2-.1-.3-.1-.5 0-.1 0-.2-.1-.3 0-.1-.1-.3-.1-.4 0-.2-.1-.4-.1-.6 0-.1 0-.2 0-.3s0-.2 0-.3v-.1c0-.2 0-.3 0-.5 0-.2 0-.4 0-.6s0 0 0 0c0-.2 0-.4 0-.6s0 0 0-.1c0-.2 0-.4 0-.5 0-.2 0-.4.1-.6 0-.1 0-.1 0-.2s0-.3 0-.4c0-.2.1-.4.1-.6s.1-.4.1-.6c.1-.2.1-.4.2-.6.1-.2.1-.4.2-.6.1-.2.2-.4.2-.6.1-.1.1-.3.2-.4 0 0 0-.1.1-.1.1-.2.2-.4.3-.6 0-.1.1-.2.1-.2.1-.1.1-.2.2-.3s.1-.2.2-.3.1-.2.2-.3c0-.1.1-.2.1-.2.1-.1.1-.2.2-.3.1-.2.3-.4.4-.6s.2-.4.4-.5c.1-.2.3-.4.5-.6.1-.1.2-.3.3-.4 0 0 .1-.1.1-.1.2-.2.3-.4.5-.6.1-.1.1-.2.2-.2.1-.1.2-.2.2-.3.2-.2.4-.4.6-.6.1-.1.2-.2.3-.3s.1-.1.2-.2c.2-.2.4-.4.7-.6.1-.1.3-.3.4-.4s.2-.2.3-.3c.2-.1.3-.3.5-.4.2-.1.3-.3.5-.4.2-.2.4-.3.6-.4.1-.1.2-.1.2-.2 0 0 0 0 .1-.1.3-.2.6-.4.9-.7.2-.1.3-.2.5-.4.2-.1.3-.2.5-.3.5-.3 1-.6 1.6-1 .9-.5 1.8-1 2.7-1.4 2.8-1.4 5.7-2.5 8.9-3.4.7-.2 1.4-.4 2.2-.6 1.1-.3 2.3-.5 3.4-.8 1.8-.4 3.7-.7 5.6-.9.2 0 .3 0 .5-.1 14-1.5 29.1.8 39.9 7.1 1.2.7 2.4 1.5 3.4 2.2.1.1.1.1.2.2s.3.2.4.3c.2.1.3.2.5.3.1 0 .1.1.2.2s.2.2.4.3c.2.2.5.4.7.6.4.4.8.7 1.2 1.1.2.2.3.3.5.5s.4.4.6.6c.2.2.3.3.4.5.1.1.2.2.3.3s.2.2.2.3c.1.2.3.4.4.5.2.2.3.4.5.6.1.2.2.4.4.6.1.2.3.4.4.6 2.3 3.9 3.1 8 2.2 12v.1c-.1.2-.1.4-.2.7-.1.4-.2.8-.4 1.2-.1.2-.1.4-.2.6 0 .1-.1.2-.1.2v.1c-.1.3-.2.5-.4.8-.1.1-.1.2-.2.3-.2.4-.4.7-.6 1.1-.2.4-.4.7-.7 1.1-.1.1-.1.2-.2.3-.2.3-.4.5-.6.8s-.1.1-.1.1c0 .1-.1.1-.1.2-.3.3-.6.7-.9 1-.3.3-.6.7-1 1 0 0 0 0-.1.1-.1.1-.1.1-.2.2-.3.2-.5.5-.8.7-.1.1-.2.2-.3.3-.4.3-.7.6-1.1.9s0 0 0 0c-.4.3-.8.6-1.2.9-.1.1-.3.2-.4.3-.6-.4-.9-.2-1.2.1z" fill="#063"/><path d="m426.4 153.4c.4-.3.8-.6 1.2-.9.4-.3.8-.6 1.1-1 .1-.1.2-.2.3-.3.3-.2.5-.5.8-.7.1-.1.1-.1.2-.2s0 0 .1-.1c.7-.7 1.3-1.3 1.8-2 0-.1.1-.1.1-.2 0 0 .1-.1.1-.1.2-.3.4-.5.6-.8.1-.1.1-.2.2-.3.5-.7.9-1.4 1.3-2.1.1-.1.1-.2.2-.3.1-.3.3-.5.4-.8v-.1c0-.1.1-.2.1-.2.1-.2.1-.4.2-.6.1-.4.3-.8.4-1.2.1-.2.1-.4.2-.7v-.1c.9-4 .2-8.1-2.2-12-.1-.2-.3-.4-.4-.6s-.2-.4-.4-.6c-.1-.2-.3-.4-.5-.6-.1-.2-.3-.4-.4-.5s-.2-.2-.2-.3c-.1-.1-.2-.2-.3-.3-.2-.2-.3-.4-.4-.5-.2-.2-.4-.4-.6-.6s-.3-.3-.5-.5c-.4-.4-.8-.7-1.2-1.1-.2-.2-.5-.4-.7-.6-.1-.1-.3-.2-.4-.3s-.1-.1-.2-.2c-.1-.1-.3-.2-.5-.3-.1-.1-.2-.2-.4-.3-.1-.1-.1-.1-.2-.2-1.1-.8-2.2-1.5-3.4-2.2-10.9-6.3-25.9-8.6-39.9-7.1-.2 0-.3 0-.5.1-1.9.2-3.8.5-5.6.9-1.2.2-2.3.5-3.4.8-.7.2-1.5.4-2.2.6-3.1.9-6.1 2-8.9 3.4-.9.5-1.8.9-2.7 1.4-.5.3-1.1.6-1.6 1-.2.1-.3.2-.4.3-.2.1-.4.3-.6.4-.3.2-.6.4-.9.7 0 0 0 0-.1.1s-.2.1-.2.2c-.2.1-.4.3-.6.4s-.3.3-.5.4c-.2.1-.3.3-.5.4-.1.1-.2.2-.3.3s-.3.2-.4.4c-.2.2-.5.4-.7.6-.1.1-.1.1-.2.2s-.2.2-.3.3c-.2.2-.4.4-.6.6-.1.1-.2.2-.2.3-.1.1-.1.1-.2.2-.2.2-.4.4-.5.6 0 0-.1.1-.1.1-.1.1-.2.3-.3.4-.2.2-.3.4-.5.6-.1.2-.2.4-.3.5-.1.2-.3.4-.4.6-.1.1-.1.2-.2.3 0 .1-.1.2-.1.2-.1.1-.1.2-.2.3s-.1.2-.2.3-.1.2-.2.3c0 .1-.1.1-.1.2-.1.2-.2.4-.3.6s0 .1-.1.1c-.1.1-.1.3-.2.4-.1.2-.2.4-.2.6-.1.2-.1.4-.2.6-.1.2-.1.4-.2.6 0 .2-.1.4-.1.6s-.1.4-.1.6v.4.2c0 .2-.1.4-.1.6v.5.1.6.6.5.1.3.3c0 .2 0 .4.1.6 0 .1.1.3.1.4s0 .2.1.2c0 .2.1.3.1.5v.1.1c.1.2.1.4.2.6 0 .1.1.2.1.3s0 .2.1.3c.1.2.2.4.2.6 0 .1.1.2.1.2 0 .1.1.1.1.2 0 0 0 .1.1.1.1.2.2.4.3.6s.2.4.3.6.2.4.3.6.2.4.3.6.3.4.4.6c0 .1.1.1.1.2.9 1.3 1.9 2.6 3.2 3.8.2.2.4.4.6.6s.4.3.5.5c.1.1.2.2.3.2.6.5 1.2 1 1.9 1.5.2.1.3.2.5.3.2.2.5.3.7.5.7.5 1.5 1 2.3 1.5.5.3 1.1.6 1.7.9 1.9 1 4 1.9 6.2 2.7.6.2 1.1.4 1.7.6 2.2.7 4.5 1.3 6.9 1.8.9.2 1.8.4 2.8.5 1.3.2 2.6.4 3.9.5.9.1 1.8.2 2.7.2 1.8.1 3.6.2 5.3.2h2.8c1.3 0 2.7-.1 4-.2 1.5-.1 3.1-.3 4.6-.5.9-.1 1.9-.3 2.8-.5.8-.2 1.6-.3 2.4-.5 1.6-.4 3.2-.8 4.7-1.2 1-.3 1.9-.6 2.8-.9.7-.3 1.4-.5 2.1-.8 2-.8 4-1.8 5.8-2.8.5-.3 1-.6 1.4-.9.1-.1.3-.2.4-.3.3-.2.7-.4 1-.7.5.6.6.5.7.4zm-3.3-16.1v.4.4c0 .1 0 .3-.1.4v.2.2c0 .1-.1.3-.1.4v.2.2c0 .1-.1.2-.1.3-.1.4-.2.8-.4 1.1 0 .1-.1.2-.1.2-1.3 3.1-4.1 6.1-8.2 8.5-12.2 7.1-32.2 7.1-44.5 0-6.2-3.6-9.3-8.2-9.3-12.9 0-.2 0-.3 0-.5 0-.1 0-.2 0-.3v-.1c0-.2 0-.3.1-.5 0-.1 0-.3 0-.4 0-.1.1-.3.1-.4 0-.1 0-.3.1-.4 0-.1.1-.3.1-.4s.1-.2.1-.3v-.1c0-.1.1-.3.2-.4s0 0 0-.1.1-.2.1-.3c.1-.1.1-.3.2-.4s0 0 0-.1c.1-.1.1-.2.2-.3s.2-.3.2-.4c.1-.1.1-.3.2-.4s.2-.3.3-.4.2-.3.3-.4.2-.3.3-.4c.1-.1.2-.2.3-.3.1-.1.2-.3.4-.4.1-.1.2-.2.3-.3 0 0 0 0 .1-.1.1-.1.3-.3.4-.4s0 0 0-.1c.1-.1.2-.2.3-.3s.3-.3.5-.4c0 0 .1-.1.1-.1.1-.1.2-.2.3-.2.2-.1.3-.3.5-.4 0 0 0 0 .1-.1 0 0 0 0 .1-.1s.2-.1.3-.2c.2-.2.4-.3.6-.4.1-.1.2-.1.3-.2 0 0 .1-.1.1-.1.2-.2.5-.3.7-.5.1 0 .1-.1.2-.1s.1-.1.2-.1c.4-.2.7-.5 1.1-.7 12.3-7.1 32.2-7.1 44.5 0 .1 0 .1.1.2.1.3.2.5.3.8.5 0 0 .1.1.1.1.1.1.3.2.4.3s.2.2.4.2c.1.1.2.1.3.2.1.1.3.2.4.3.1 0 .1.1.2.1.1.1.2.1.2.2.1 0 .1.1.2.1.1.1.3.2.4.3.2.1.3.3.5.4.1.1.3.2.4.4 0 0 .1.1.1.1s0 0 .1.1.2.2.3.3c.1.1.2.2.4.4.1.1.2.2.3.3 0 0 0 0 .1.1s.2.2.3.4l.2.2c.1.1.1.2.2.2.1.1.2.3.3.4s.2.3.3.4.2.3.3.4c.1.1.2.3.3.4.1.1.2.3.2.4.1.1.2.3.2.4.1.1.1.3.2.4.1.1.1.3.2.4.1.1.1.3.2.4.1.1.1.3.2.4 0 .1.1.3.1.4s.1.2.1.3v.1c0 .1.1.3.1.4 0 .2.1.3.1.5 0 .1 0 .3.1.4 0 .2 0 .3.1.5v.4c-.7.2-.6.4-.6.6 0-.1 0-.1 0 0z" fill="#00994c"/><path d="m539.6 174.7-59.5-34.4-14.1 8.2 59.5 34.4z" fill="#063"/><path d="m480.5 179.4c0-.1-.1-.1-.1-.2-.1-.2-.2-.3-.3-.5s0 0-.1-.1c0 0-.1-.1-.1-.1-.1-.1-.2-.2-.3-.3s-.1-.1-.2-.2-.1-.1-.2-.2c0 0-.1-.1-.1-.1-.1-.1-.2-.2-.3-.3-.1-.1-.2-.1-.3-.2-.2-.2-.5-.3-.7-.5-.2-.1-.5-.3-.8-.4-1.8-.9-4-1.3-6.3-1.3-2.2 0-4.5.4-6.3 1.3-.3.1-.5.3-.8.4-.2.1-.4.3-.6.4s-.4.3-.5.4-.1.1-.1.1c-.2.2-.4.3-.5.5-.1.2-.3.3-.4.5-.1.2-.2.3-.3.5 0 .1 0 .1-.1.2 0 .1-.1.1-.1.2 0 0 0 .1-.1.1v.1.1c0 .1-.1.2-.1.3v.2.3c0 1.5 1 3 2.9 4.1 3.9 2.3 10.2 2.3 14.1 0 2.5-1.4 3.3-3.4 2.7-5.3 0 .1 0 .1 0 0z" fill="#063"/><path d="m411.3 180.3-14.1 8.2 59.6 34.3 14.1-8.2z" fill="#063"/><path d="m583.6 178.7v.2c0 .1 0 .1-.1.2v.2c0 .1-.1.2-.1.2 0 .1 0 .1-.1.2 0 .1-.1.2-.1.2 0 .1-.1.1-.1.2-.1.1-.1.1-.2.2 0 .1-.1.1-.1.2-.1.1-.1.1-.2.2s-.1.1-.2.2-.2.1-.2.2c-.1.1-.1.1-.2.2s-.3.2-.4.3c0 0-.1 0-.1.1l-1.8 1.1-1 .6-109.9 63.9c-1.5.8-3.4 1.3-5.3 1.3-1 0-1.9-.1-2.8-.3s-1.8-.5-2.5-1l-128.2-74-128.3-74.3c-.2-.1-.4-.2-.5-.3-.1 0-.1-.1-.1-.1-.1-.1-.2-.2-.3-.2s-.1-.1-.2-.1c-.1-.1-.2-.1-.2-.2-.1-.1-.1-.1-.1-.2-.1-.1-.1-.1-.2-.2 0-.1-.1-.1-.1-.2s-.1-.1-.1-.2-.1-.1-.1-.2-.1-.1-.1-.2 0-.1 0-.2 0-.1-.1-.2c0-.1 0-.1 0-.2s0-.2 0-.2v12.2c0 1.1.7 2.2 2.2 3.1l256.4 148c2.9 1.7 7.7 1.7 10.6 0l112.7-65.5c1.5-.8 2.2-1.9 2.2-3.1v-12.2c0-.1-.1 0-.1.1z" fill="#004d26"/><path d="m82.3 325.2 11.6-6.7c17.3 8 34.9 8.2 47 1.1 13.3-7.8 7.9-17.9-1.4-26.5l-5.7-5.4c-5.1-4.7-9.5-10.3-3-14 5.8-3.3 15.5-2.7 24.5 2.6 8.6 5 10.5 10.5 4.7 14.8l14 8.1c11.3-6.9 10.7-17.2-1.6-26.3l11.6-6.8-12.3-7.1-11.8 6.9c-15.4-6.4-33-6.9-44.6-.1-11.1 6.4-9.2 14.8.7 24.3l6.9 6.6c6.5 6.2 9.7 11 3.7 14.5-6.6 3.8-17.5 2.6-27-2.9-9.1-5.2-12.2-11.6-4.7-16.6l-14.3-8.2c-12.9 8.1-12 18.2 1.1 27.9l-11.7 6.7z" fill="#fff"/><path d="m406.5 128.4c-.2-.1-.5-.1-.8-.1.3.1.6.1.8.1z" fill="#84d0d3"/><path d="m405.7 128.4h-9.2z" fill="#00babc"/><path d="m407.1 128.7c-.2-.1-.4-.2-.6-.2s-.5-.1-.8-.1c.6 0 1.1.1 1.4.3z" fill="#00babc"/><path d="m407.1 128.7c-.4-.2-.9-.3-1.4-.3h-9.3c-.3 0-.5 0-.8.1-.5.1-.9.3-1.1.6-.1.1-.2.3-.2.4 0 .3.2.6.6.8s.9.3 1.4.3h4.4l-24 13.9c-.3.2-.5.4-.5.6v.2c0 .3.2.6.6.8.8.5 2.1.5 2.8 0l27.4-15.9c.3-.2.5-.4.5-.6s0-.5-.1-.7c.1 0-.1-.1-.3-.2z" fill="#fff"/></svg>