<svg fill="none" height="87" viewBox="0 0 87 87" width="87" xmlns="http://www.w3.org/2000/svg" xmlns:xlink="http://www.w3.org/1999/xlink"><clipPath id="a"><path d="m47 0h40v40h-40z"/></clipPath><clipPath id="b"><path d="m47 0h40v40h-40z"/></clipPath><path d="m36 87c19.8823 0 36-16.1177 36-36s-16.1177-36-36-36-36 16.1177-36 36 16.1177 36 36 36z" fill="#0c6cf2"/><path d="m36.0007 50.9997c5.1566 0 9.3333-4.1767 9.3333-9.3334 0-5.1566-4.1767-9.3333-9.3333-9.3333-5.1567 0-9.3334 4.1767-9.3334 9.3333 0 5.1567 4.1767 9.3334 9.3334 9.3334zm0 4.6666c-6.23 0-18.6667 3.1267-18.6667 9.3334v4.6666h37.3333v-4.6666c0-6.2067-12.4366-9.3334-18.6666-9.3334z" fill="#fff"/><g clip-path="url(#a)"><circle cx="67" cy="20" fill="#fff" r="20"/><path clip-rule="evenodd" d="m67 36c8.8366 0 16-7.1634 16-16s-7.1634-16-16-16-16 7.1634-16 16 7.1634 16 16 16zm-9.7909-15.1242 2.8285-2.8284 4 4 10.5049-10.5049 2.8284 2.8284-13.3333 13.3333z" fill="#17cf73" fill-rule="evenodd"/><g clip-path="url(#b)"><circle cx="67" cy="20" fill="#fff" r="20"/><path d="m67.0007 3.33301c-9.2 0-16.6667 7.46669-16.6667 16.66669s7.4667 16.6666 16.6667 16.6666 16.6666-7.4666 16.6666-16.6666-7.4666-16.66669-16.6666-16.66669zm-3.3334 24.99999-8.3333-8.3333 2.35-2.35 5.9833 5.9666 12.65-12.65 2.35 2.3667z" fill="#00994c"/></g></g></svg>