<svg fill="none" height="24" viewBox="0 0 32 24" width="32" xmlns="http://www.w3.org/2000/svg"><rect fill="#fff" height="24" rx="4" width="32"/><path d="m4 4.5h24v2.36066h-24z" fill="#1a1f71"/><path d="m4 17.0898h24v2.36065h-24z" fill="#f7b600"/><g fill="#1a1f71"><path d="m14.5442 14.8519h-1.5299l.9569-5.91653h1.5298z"/><path d="m20.09 9.08002c-.3017-.11972-.7803-.2519-1.3721-.2519-1.5108 0-2.5747.80562-2.5812 1.95738-.0126.8498.7617 1.3218 1.3408 1.6052.5918.2895.793.4785.793.7366-.006.3963-.4782.579-.9187.579-.6108 0-.938-.0942-1.4354-.3147l-.2014-.0945-.2141 1.3281c.3588.1635 1.0199.3085 1.7062.3149 1.6052 0 2.6503-.7931 2.6626-2.0206.0061-.6735-.4027-1.1896-1.2841-1.6113-.5351-.2707-.8628-.4532-.8628-.7302.0063-.2518.2772-.5097.8812-.5097.4973-.0127.8628.1069 1.1396.2265l.1384.0628z"/><path d="m22.1233 12.7559c.1259-.3399.6107-1.6554.6107-1.6554-.0063.0126.1258-.3462.2013-.5664l.1069.5098s.2897 1.4162.3526 1.712c-.2391 0-.9694 0-1.2715 0zm1.8883-3.82053h-1.1833c-.3649 0-.6421.10691-.7996.4909l-2.2724 5.42553h1.6053s.2642-.7302.321-.8875h1.9642c.0439.2077.1826.8875.1826.8875h1.4164z"/><path d="m6.38578 8.93537h2.46136c.33362.01246.60433.11946.69243.49734l.53483 2.71819.0003.0007.1637.8183 1.4982-4.03453h1.6177l-2.4047 5.91033h-1.61773l-1.36354-5.141c-.47047-.27506-1.00741-.49627-1.60773-.64979z"/></g></svg>