<svg fill="#fff" height="24" viewBox="0 0 24 24" width="24" xmlns="http://www.w3.org/2000/svg"><path d="m19.2141 7.28571h-13.4016c-.31078 0-.5625-.2637-.5625-.58928s.25172-.58929.5625-.58929h13.5c.3108 0 .5625-.2637.5625-.58928 0-.97638-.7555-1.76786-1.6875-1.76786h-12.9375c-1.24277 0-2.25 1.05519-2.25 2.35714v11.78576c0 1.3019 1.00723 2.3571 2.25 2.3571h13.9641c.985 0 1.7859-.793 1.7859-1.7679v-9.42853c0-.9749-.8009-1.76786-1.7859-1.76786zm-1.5891 7.66069c-.6212 0-1.125-.5278-1.125-1.1785 0-.6508.5038-1.1786 1.125-1.1786s1.125.5278 1.125 1.1786c0 .6507-.5038 1.1785-1.125 1.1785z"/></svg>