<?xml version="1.0" encoding="UTF-8"?>
<svg width="513px" height="244px" viewBox="0 0 513 244" version="1.1" xmlns="http://www.w3.org/2000/svg" xmlns:xlink="http://www.w3.org/1999/xlink">
    <!-- Generator: Sketch 52.2 (67145) - http://www.bohemiancoding.com/sketch -->
    <title>Slice</title>
    <desc>Created with Sketch.</desc>
    <g id="Web-App---V2---RC" stroke="none" stroke-width="1" fill="none" fill-rule="evenodd">
        <ellipse id="Oval-5" stroke="#473BCB" stroke-width="2" fill="#473BCB" fill-rule="nonzero" cx="69.9815335" cy="159.690358" rx="59.9815335" ry="60.4545827"></ellipse>
        <polygon id="Fill-1" fill="#FFFFFF" points="70.4213534 128 58.5012036 152.510756 54 161.76623 59.2661681 165.6221 70.4213534 173.789689 81.5721574 165.6221 86.8362104 161.76623 82.3367693 152.510756"></polygon>
        <polygon id="Fill-2" fill="#FFFFFF" points="58.6762742 175.238591 70.4148834 195.919804 82.1581742 175.238591 86.823273 167.022726 86.8297669 167.011395 86.8362104 167.000063 86.8362104 167 86.8297669 167.004784 86.823273 167.009506 75.6810909 175.238591 70.4148834 179.127917 65.1507399 175.238591 54 167"></polygon>
        <ellipse id="Oval-5" stroke="#FF9B22" stroke-width="2" fill="#FF9B22" fill-rule="nonzero" cx="151.876734" cy="52.3981057" rx="37.4869976" ry="37.5454545"></ellipse>
        <path d="M171.585279,44.9526524 C172.45283,39.2148589 168.037442,36.1303569 161.99999,34.0726748 L163.958451,26.3001072 L159.176702,25.1210162 L157.269995,32.6887589 C156.012931,32.3788264 154.721818,32.0864118 153.438876,31.7966923 L155.359203,24.179091 L150.580178,23 L148.620355,30.7698726 C147.579838,30.5354019 146.558388,30.3036263 145.5669,30.0597229 L145.572348,30.0354673 L138.977866,28.4063005 L137.70582,33.4595475 C137.70582,33.4595475 141.253657,34.2640244 141.17875,34.3138831 C143.11542,34.7922571 143.465437,36.0602853 143.406874,37.0655445 L141.176027,45.9201808 C141.309496,45.9538691 141.482462,46.0023802 141.673132,46.0778421 C141.513786,46.0387636 141.343544,45.9956426 141.167855,45.9538691 L138.040856,58.357906 C137.803879,58.94004 137.203266,59.8132411 135.849505,59.4817481 C135.897172,59.5504723 132.37385,58.6233699 132.37385,58.6233699 L130,64.0391031 L136.222674,65.5739427 C137.380318,65.8609671 138.514808,66.1614669 139.631594,66.4444487 L137.652705,74.3059534 L142.429005,75.4850444 L144.388828,67.7070867 C145.69356,68.0574451 146.960158,68.3808529 148.199518,68.6853953 L146.246505,76.4269696 L151.028254,77.6060606 L153.007143,69.7593787 C161.161039,71.2861331 167.292464,70.6703107 169.873328,63.3734221 C171.953001,57.4981802 169.769821,54.1091359 165.479731,51.8991826 C168.604006,51.1863379 170.957427,49.1529113 171.585279,44.9526524 Z M160.659848,60.1110458 C159.18215,65.9862876 149.184196,62.8101535 145.942794,62.0137617 L148.568602,51.5986828 C151.810004,52.3991171 162.20428,53.9838154 160.659848,60.1110458 Z M162.138908,44.8677579 C160.790593,50.2120719 152.46918,47.4967938 149.769827,46.8311127 L152.150487,37.3849097 C154.849839,38.0505908 163.543061,39.2930158 162.138908,44.8677579 Z" id="Shape" fill="#FFFFFF" fill-rule="nonzero"></path>
        <ellipse id="Oval-5" stroke="#3EDC89" stroke-width="2" fill="#3EDC89" fill-rule="nonzero" cx="462.028465" cy="189.81821" rx="43.5" ry="44"></ellipse>
        <path d="M486.31698,188.618483 C487.312778,181.88732 482.244681,178.268806 475.314738,175.854883 L477.56271,166.736671 L472.074095,165.353447 L469.885527,174.231373 C468.442636,173.867783 466.960663,173.524743 465.48807,173.184866 L467.69227,164.248449 L462.206782,162.865225 L459.957247,171.980275 C458.762914,171.705211 457.590467,171.433309 456.452412,171.147179 L456.458665,171.118724 L448.889348,169.207504 L447.429261,175.135606 C447.429261,175.135606 451.50156,176.07936 451.41558,176.137851 C453.638539,176.699045 454.040298,178.186603 453.973078,179.3659 L451.412454,189.753517 C451.565653,189.793037 451.764188,189.849947 451.983044,189.938473 C451.800143,189.892629 451.604735,189.842043 451.403074,189.793037 L447.813823,204.344553 C447.541815,205.02747 446.852417,206.051846 445.298534,205.662963 C445.353248,205.743585 441.309088,204.655976 441.309088,204.655976 L438.584321,211.009321 L445.726868,212.809883 C447.055641,213.146599 448.357839,213.499124 449.639714,213.831098 L447.368293,223.053644 L452.850655,224.436868 L455.10019,215.312333 C456.597796,215.723348 458.05163,216.102746 459.474199,216.460013 L457.23248,225.541866 L462.721095,226.92509 L464.992516,217.719933 C474.351769,219.51101 481.389577,218.788572 484.351959,210.228392 C486.739061,203.335985 484.233151,199.360204 479.308874,196.767647 C482.894998,195.93139 485.596316,193.545921 486.31698,188.618483 Z M473.776488,206.401209 C472.080348,213.293616 460.604437,209.567606 456.883873,208.633337 L459.897843,196.415123 C463.618408,197.354134 475.549228,199.213187 473.776488,206.401209 Z M475.474191,188.518891 C473.926561,194.788452 464.375027,191.603085 461.27664,190.822156 L464.009223,179.740556 C467.10761,180.521485 477.085915,181.979008 475.474191,188.518891 Z" id="Shape-Copy" fill="#FFFFFF" fill-rule="nonzero" transform="translate(462.513189, 194.895158) rotate(-33.000000) translate(-462.513189, -194.895158) "></path>
    </g>
</svg>