<?xml version="1.0" standalone="no"?>
<!DOCTYPE svg PUBLIC "-//W3C//DTD SVG 1.1//EN" "http://www.w3.org/Graphics/SVG/1.1/DTD/svg11.dtd" >
<svg xmlns="http://www.w3.org/2000/svg">
<metadata>Generated by IcoMoon</metadata>
<defs>
<font id="icomoon" horiz-adv-x="1024">
<font-face units-per-em="1024" ascent="960" descent="-64" />
<missing-glyph horiz-adv-x="1024" />
<glyph unicode="&#x20;" horiz-adv-x="512" d="" />
<glyph unicode="&#xe900;" glyph-name="alert-filled" d="M957.44 119.040l-404.48 696.576c-8.354 14.203-23.561 23.585-40.96 23.585s-32.606-9.382-40.839-23.363l-0.121-0.222-404.48-696.576c-1.36-4.307-2.143-9.259-2.143-14.395 0-23.234 16.037-42.722 37.645-47.999l0.338-0.070h819.2c21.947 5.347 37.983 24.835 37.983 48.069 0 5.136-0.784 10.088-2.238 14.745l0.094-0.35zM512 140.8c-0.055 0-0.12 0-0.185 0-28.277 0-51.2 22.923-51.2 51.2 0 1.532 0.067 3.049 0.199 4.546l-0.014-0.194c0 28.843 23.381 52.224 52.224 52.224s52.224-23.381 52.224-52.224v0c0.121-1.318 0.189-2.852 0.189-4.401 0-28.277-22.923-51.2-51.2-51.2-0.787 0-1.57 0.018-2.348 0.053l0.11-0.004zM563.2 543.232l-13.056-212.736c0-16.896-23.040-29.952-39.936-29.952-0.203-0.004-0.443-0.006-0.683-0.006-18.215 0-33.468 12.683-37.41 29.699l-0.051 0.259-11.264 211.712v78.592c1.668 26.924 23.911 48.128 51.108 48.128 0.032 0 0.065 0 0.097 0h-0.005c0.027 0 0.060 0 0.092 0 27.196 0 49.44-21.204 51.101-47.982l0.007-0.146z" />
<glyph unicode="&#xe901;" glyph-name="bank-filled" d="M41.472 82.944c0.667 8.497 7.726 15.139 16.337 15.139 0.377 0 0.751-0.013 1.122-0.038l-0.050 0.003h911.872c0.315 0.022 0.683 0.034 1.054 0.034 8.7 0 15.817-6.782 16.352-15.347l0.002-0.047v-58.112c-0.537-8.612-7.654-15.394-16.354-15.394-0.371 0-0.739 0.012-1.103 0.037l0.049-0.003h-912.128c-0.315-0.022-0.683-0.034-1.054-0.034-8.7 0-15.817 6.782-16.352 15.347l-0.002 0.047zM190.72 584.704v0c24.276-1.612 43.356-21.698 43.356-46.24 0-1.025-0.033-2.041-0.099-3.049l0.007 0.137v-338.432c0.058-0.871 0.092-1.887 0.092-2.912 0-24.542-19.080-44.628-43.216-46.233l-0.14-0.007c-24.16 1.742-43.101 21.771-43.101 46.223 0 1.031 0.034 2.053 0.1 3.067l-0.007-0.138v338.432c-0.059 0.876-0.093 1.899-0.093 2.929 0 24.452 18.941 44.481 42.951 46.214l0.15 0.009zM407.296 147.712v0c-24.153 1.75-43.085 21.775-43.085 46.222 0 0.941 0.028 1.875 0.083 2.802l-0.006-0.128v339.2c-0.049 0.799-0.077 1.733-0.077 2.674 0 24.447 18.932 44.472 42.935 46.213l0.15 0.009c24.153-1.75 43.085-21.775 43.085-46.222 0-0.941-0.028-1.875-0.083-2.802l0.006 0.128v-338.944c0.059-0.876 0.093-1.899 0.093-2.929 0-24.452-18.941-44.481-42.951-46.214l-0.15-0.009zM623.872 584.704v0c23.569-2.381 41.812-22.117 41.812-46.115 0-0.979-0.030-1.95-0.090-2.913l0.007 0.132v-338.944c0.049-0.799 0.077-1.733 0.077-2.674 0-24.447-18.932-44.472-42.935-46.213l-0.15-0.009c-24.153 1.75-43.085 21.775-43.085 46.222 0 0.941 0.028 1.875 0.083 2.802l-0.006-0.128v338.944c-0.047 0.778-0.073 1.687-0.073 2.602 0 24.896 19.634 45.206 44.263 46.29l0.098 0.003zM834.048 147.712v0c-24.276 1.612-43.356 21.698-43.356 46.24 0 1.025 0.033 2.041 0.099 3.049l-0.007-0.137v338.688c-0.058 0.871-0.092 1.887-0.092 2.912 0 24.542 19.080 44.628 43.216 46.233l0.14 0.007c24.276-1.612 43.356-21.698 43.356-46.24 0-1.025-0.033-2.041-0.099-3.049l0.007 0.137v-338.688c0.058-0.871 0.092-1.887 0.092-2.912 0-24.542-19.080-44.628-43.216-46.233l-0.14-0.007zM455.424 873.728l-439.808-193.792c-8.754-3.65-14.794-12.137-14.794-22.036 0-13.149 10.659-23.808 23.808-23.808 0.341 0 0.681 0.007 1.019 0.021l-0.048-0.002h970.752c1.578-0.339 3.39-0.532 5.248-0.532 14.433 0 26.132 11.7 26.132 26.132 0 12.575-8.882 23.075-20.714 25.57l-0.17 0.030-429.312 188.416c-17.971 8.115-38.961 12.843-61.056 12.843s-43.085-4.728-62.015-13.228l0.959 0.385z" />
<glyph unicode="&#xe902;" glyph-name="bell-filled" d="M380.416 35.072c18.056-55.11 68.174-94.569 127.777-96.506l0.223-0.006c0.969-0.025 2.109-0.039 3.253-0.039 60.652 0 112.096 39.425 130.102 94.047l0.276 0.968c1.442 6.205 4.6 11.527 8.943 15.601l0.017 0.015h-277.76c2.951-4.040 5.384-8.707 7.063-13.719l0.105-0.361zM512 775.168c0.307-0.004 0.67-0.006 1.033-0.006 49.767 0 90.112 40.345 90.112 90.112 0 0.452-0.003 0.904-0.010 1.354l0.001-0.068c0.082 1.44 0.128 3.126 0.128 4.822 0 50.192-40.688 90.88-90.88 90.88s-90.88-40.688-90.88-90.88c0-1.696 0.046-3.381 0.138-5.055l-0.010 0.233c-0.006-0.381-0.009-0.83-0.009-1.28 0-49.767 40.345-90.112 90.112-90.112 0.093 0 0.186 0 0.28 0h-0.014zM162.304 138.752c-4.343-5.507-6.966-12.547-6.966-20.199 0-4.633 0.962-9.042 2.696-13.037l-0.082 0.212c3.84-9.728 11.776-8.96 19.968-8.96h631.296c14.080 0 28.16 0 41.984 0 5.19 0.541 9.694 3.105 12.773 6.878l0.027 0.034c2.402 4.235 3.818 9.302 3.818 14.701 0 8.882-3.834 16.869-9.937 22.397l-0.026 0.023c-37.026 30.143-64.125 71.198-76.45 118.234l-0.35 1.574c-8.149 33.17-12.899 71.288-13.056 110.489v0.103c0.12 5.638 0.189 12.283 0.189 18.945 0 52.51-4.258 104.026-12.447 154.221l0.739-5.486c-25.378 114.534-126.072 198.922-246.476 198.922-18.79 0-37.101-2.055-54.719-5.953l1.675 0.311c-114.555-26.744-198.663-127.767-199.168-248.52v-0.056c0-51.2-1.792-102.4-6.656-153.6-5.888-73.984-28.416-141.824-88.832-191.232z" />
<glyph unicode="&#xe903;" glyph-name="bitcoin-filled" d="M279.040 70.144c22.528 0 40.448 0 66.048 0 0-12.544 0-22.272 0-32.256 0-25.6 0-45.056 0-70.144 0.566-17.568 14.877-31.611 32.499-31.744h0.013c17.157 1.027 30.833 14.614 31.994 31.639l0.006 0.105c0 30.976 0 69.632 0 100.352h48.384v-100.352c2.799-17.879 17.947-31.44 36.32-31.744h0.032c16.917 0.427 30.468 14.242 30.468 31.223 0 0.183-0.002 0.366-0.005 0.549v-0.027c0 33.536 0 66.304 0 102.4 134.4-1.792 225.536 41.472 253.696 184.32 16.128 82.688-16.896 179.2-132.608 232.96 66.048 59.904 93.184 130.56 63.744 214.784-31.488 90.624-84.48 125.184-184.832 125.184 0 34.56 0 66.304 0 98.048 0.003 0.166 0.005 0.363 0.005 0.559 0 18.804-15.244 34.048-34.048 34.048-0.632 0-1.26-0.017-1.883-0.051l0.087 0.004c-17.004-1.003-30.414-15.037-30.414-32.203 0-1.281 0.075-2.545 0.22-3.788l-0.014 0.151c0-31.744 0-65.792 0-97.792h-49.152c0 31.232 0 62.72 0 92.16 0 22.784-11.264 41.472-31.232 41.472s-33.024-17.152-33.024-41.216c0-34.304 0-55.040 0-91.904-25.6 0-44.032 0-67.584 0s-35.072-10.24-35.072-35.584q0-342.528 0-684.8c-1.024-26.624 8.96-35.84 36.352-36.352zM688.64 287.232c0-80.896-41.472-113.92-122.368-126.464-21.681-2.967-46.737-4.661-72.189-4.661-2.701 0-5.398 0.019-8.090 0.057l0.407-0.005c-70.656 0-91.648 0-163.84 0v281.6c99.072 0 121.088-1.536 216.32-1.536 108.544-0.256 149.248-68.608 149.248-148.992zM321.28 748.032h174.336c66.816 0 118.272-7.936 141.056-66.56 5.378-12.738 8.503-27.547 8.503-43.086 0-38.090-18.778-71.794-47.582-92.36l-0.345-0.234c-22.723-13.272-50.025-21.109-79.158-21.109-2.142 0-4.274 0.042-6.395 0.126l0.305-0.010c-83.968-2.56-104.448 0-190.976 0z" />
<glyph unicode="&#xe904;" glyph-name="bitcoin-in-circle-filled" d="M554.24 441.344c-60.672 0-74.752 0-137.728 0v-179.2c46.080 0 59.392 0 104.448 0 1.245-0.016 2.717-0.024 4.19-0.024 16.576 0 32.89 1.125 48.868 3.304l-1.858-0.207c51.2 7.936 76.8 29.184 76.8 80.64 0.326 2.82 0.512 6.088 0.512 9.399 0 47.788-38.74 86.528-86.528 86.528-3.065 0-6.094-0.159-9.077-0.47l0.373 0.031zM537.6 497.408c0.145-0.001 0.316-0.001 0.487-0.001 19.804 0 38.296 5.622 53.965 15.357l-0.436-0.252c18.763 13.22 30.87 34.794 30.87 59.196 0 9.758-1.936 19.065-5.445 27.555l0.175-0.479c-14.336 37.376-47.36 42.496-89.856 42.496h-111.36v-144.64c55.040 0 68.096-1.024 121.6 0.768zM512 918.528c-259.865 0-470.528-210.663-470.528-470.528s210.663-470.528 470.528-470.528c259.865 0 470.528 210.663 470.528 470.528v0c0 259.865-210.663 470.528-470.528 470.528v0zM707.584 325.12c-17.92-90.88-76.8-118.528-161.536-117.504 0-22.272 0-43.264 0-64.512 0.004-0.153 0.007-0.333 0.007-0.514 0-10.799-8.684-19.57-19.449-19.71h-0.013c-11.569 0.378-21.026 8.955-22.767 20.090l-0.017 0.134v64h-30.72c0-19.456 0-44.288 0-64-0.803-11.097-9.818-19.845-20.956-20.223l-0.036-0.001c-11.22 0.133-20.315 9.049-20.735 20.185l-0.001 0.039c0 15.872 0 28.672 0 44.8 0 6.4 0 12.544 0 20.48h-42.24c-17.408 0-23.808 6.144-23.808 22.784q0 218.112 0 435.2c0 16.128 6.4 22.272 22.272 22.784s25.6 0 43.008 0c0 23.552 0 36.864 0 58.624 0 15.36 7.424 25.6 20.992 25.6s20.48-12.032 20.48-25.6c0-18.688 0-38.656 0-58.624h30.72c0 20.48 0 41.984 0 62.208-0.085 0.701-0.134 1.513-0.134 2.336 0 10.908 8.527 19.823 19.279 20.445l0.055 0.003c0.468 0.036 1.013 0.057 1.563 0.057 11.876 0 21.504-9.628 21.504-21.504 0-0.38-0.010-0.758-0.029-1.133l0.002 0.053c0-20.224 0-40.448 0-62.464 63.744 0 97.536-22.016 117.76-79.872 4.445-12.037 7.017-25.94 7.017-40.443 0-38.671-18.283-73.072-46.676-95.031l-0.277-0.206c73.984-34.048 93.952-95.744 84.736-148.48z" />
<glyph unicode="&#xe905;" glyph-name="bitcoin-receipt-filled" d="M795.136 897.792c-19.773-18.639-38.246-37.842-55.749-57.912l-0.827-0.968c-23.296-25.6-37.632-22.016-68.608 9.216-19.968 19.968-41.216 42.752-63.744 62.72-23.808-20.992-43.264-41.728-62.976-62.464-23.552-25.6-43.264-22.528-66.048 0s-41.984 43.776-64.768 63.488c-11.264-12.8-33.28-34.304-40.704-43.264-53.76-65.792-73.984-38.912-142.848 30.464v-921.6h566.272c0 278.272 0 898.816 0 920.32zM650.752 284.928h-277.504c-9.984 0-18.176 6.912-18.176 21.76s8.192 21.76 18.176 21.76h277.504c9.984 0 18.176-7.168 18.176-21.76s-8.192-21.76-18.176-21.76zM650.752 154.624h-277.504c-9.984 0-18.176 6.912-18.176 21.76s8.192 21.76 18.176 21.76h277.504c9.984 0 18.176-7.168 18.176-21.76s-8.192-22.016-18.176-22.016zM650.752 422.656h-277.504c-9.984 0-18.176 7.168-18.176 21.76s8.192 21.76 18.176 21.76h277.504c9.984 0 18.176-6.912 18.176-21.76s-8.192-22.016-18.176-22.016zM650.752 560.128h-277.504c-9.984 0-18.176 7.168-18.176 21.76s8.192 21.76 18.176 21.76h277.504c9.984 0 18.176-7.168 18.176-21.76s-8.192-22.016-18.176-22.016zM187.392-64h649.216v998.4c-0.846 14.445-12.766 25.838-27.348 25.838-7.252 0-13.846-2.818-18.747-7.42l0.015 0.014c-22.528-22.272-48.128-47.872-71.424-71.424-2.778-2.585-6.516-4.171-10.624-4.171s-7.846 1.586-10.634 4.18l0.010-0.009c-23.808 22.528-46.592 46.848-69.12 68.096-4.864 4.492-11.39 7.246-18.56 7.246s-13.696-2.755-18.579-7.263l0.019 0.017-71.424-62.464c-2.722-2.497-6.366-4.027-10.368-4.027s-7.646 1.53-10.379 4.037l0.011-0.010-69.376 65.28c-4.865 4.497-11.395 7.255-18.57 7.255-8.061 0-15.309-3.482-20.321-9.024l-0.021-0.024-61.184-67.328c-2.804-2.948-6.756-4.781-11.136-4.781s-8.332 1.833-11.13 4.774l-0.006 0.006-71.936 68.096c-4.911 4.707-11.588 7.604-18.941 7.604-11.891 0-22.012-7.576-25.799-18.165l-0.060-0.191c-2.036-8.55-3.203-18.366-3.203-28.455 0-3.5 0.14-6.967 0.416-10.396l-0.029 0.451c0-264.192 0-528.64 0-793.6v-172.544zM228.864 899.072c69.12-69.376 89.344-96.256 142.848-30.464 7.424 8.96 29.44 30.464 40.704 43.264 22.528-19.968 44.8-42.752 64.768-62.976s42.496-25.6 66.048 0c19.712 20.48 39.168 41.216 62.976 62.464 22.528-19.712 43.776-42.752 63.744-62.72 31.232-31.232 45.312-35.072 68.608-9.216 18.33 21.038 36.803 40.241 56.172 58.503l0.404 0.377c0-21.76 0-642.048 0-921.6h-566.272z" />
<glyph unicode="&#xe906;" glyph-name="build-filled" d="M937.472 140.8l-329.472 312.064c35.84 35.84 84.48 84.736 118.528 118.272 1.811 1.361 4.098 2.18 6.576 2.18 1.030 0 2.028-0.142 2.974-0.406l-0.077 0.019c16.5-6.006 35.547-9.48 55.406-9.48 11.282 0 22.302 1.121 32.955 3.258l-1.065-0.178c75.309 15.307 131.189 80.985 131.189 159.715 0 17.189-2.664 33.756-7.601 49.31l0.316-1.153c-1.748 12.588-12.439 22.175-25.37 22.175-8.638 0-16.276-4.278-20.912-10.831l-0.054-0.080-63.232-62.464c-3.263-3.667-6.377-7.676-9.216-11.885l-0.256-0.403-51.2 51.2 6.144 6.4 68.352 68.352c5.425 4.72 8.835 11.635 8.835 19.346 0 11.725-7.883 21.61-18.638 24.642l-0.18 0.043c-15.088 5.443-32.499 8.589-50.644 8.589-10.615 0-20.978-1.077-30.986-3.127l0.991 0.17c-75.633-15.163-131.813-81.045-131.813-160.048 0-19.34 3.367-37.893 9.546-55.106l-0.357 1.138c0.667-1.359 1.057-2.958 1.057-4.648 0-3.542-1.713-6.684-4.356-8.643l-0.029-0.021-120.32-118.784c-2.634-1.608-5.82-2.559-9.229-2.559-5.136 0-9.767 2.161-13.035 5.623l-0.008 0.009-68.864 68.864-65.024 64c5.070 3.478 9.497 7.011 13.655 10.831l-0.087-0.079c4.997 4.684 8.111 11.326 8.111 18.695 0 4.199-1.011 8.161-2.802 11.658l0.067-0.144c-1.728 2.917-2.748 6.429-2.748 10.179 0 5.137 1.915 9.827 5.071 13.394l-0.019-0.021c3.247 5.45 6.543 10.132 10.152 14.548l-0.168-0.212c33.65 40.956 77.644 72.243 128.019 90.001l2.029 0.623c11.776 4.096 16.896 10.24 16.384 19.2s-6.144 13.056-17.664 15.872c-13.919 3.228-29.901 5.078-46.315 5.078-12.121 0-24.006-1.009-35.576-2.947l1.252 0.173c-60.628-9.24-113.469-37.348-153.567-78.047l-0.033-0.033c-36.096-35.328-71.68-71.424-107.52-107.264-7.331-5.521-12.021-14.209-12.021-23.991 0-5.912 1.713-11.423 4.669-16.066l-0.072 0.121c-6.4-6.144-12.288-12.288-18.944-17.92-1.164-0.55-2.528-0.871-3.968-0.871s-2.804 0.321-4.026 0.896l0.058-0.024c-3.134 1.474-6.807 2.335-10.681 2.335-6.521 0-12.473-2.438-16.994-6.453l0.026 0.023c-15.36-15.104-29.44-31.744-44.288-47.616v-15.616c14.592-15.872 29.184-32 44.032-47.872 8.704-9.216 17.664-18.176 25.6-25.6 5.223-5.785 12.749-9.405 21.12-9.405s15.897 3.62 21.098 9.38l0.022 0.025c9.216 8.96 18.176 18.432 27.392 27.392 7.693 5.599 12.636 14.574 12.636 24.703 0 6.029-1.752 11.65-4.774 16.38l0.073-0.123c3.84 3.328 7.68 6.4 11.008 9.728s11.008 12.288 22.016 7.68c1.796-0.45 3.858-0.708 5.98-0.708 7.86 0 14.893 3.542 19.589 9.118l0.032 0.039c3.328 3.328 6.4 7.424 9.728 11.264 1.916-1.375 3.584-2.719 5.177-4.146l-0.057 0.050 128-128c3.268-3.362 5.284-7.956 5.284-13.022 0-2.6-0.531-5.075-1.49-7.324l0.046 0.122-124.416-124.672c-1.985-2.563-5.063-4.197-8.523-4.197-1.745 0-3.393 0.416-4.85 1.154l0.061-0.028c-15.967 5.729-34.39 9.040-53.585 9.040-80.921 0-148.096-58.848-161.066-136.083l-0.133-0.958c-0.553-2.234-1.167-4.112-1.898-5.93l0.106 0.298v-36.352c3.072-11.776 5.376-24.064 8.96-35.584 2.2-10.318 11.238-17.944 22.057-17.944 1.251 0 2.478 0.102 3.674 0.298l-0.13-0.018c6.558 1.813 12.178 5.194 16.635 9.723l0.005 0.005c23.040 22.528 45.568 45.312 68.352 68.096l6.656 6.144 49.664-51.2-5.888-6.144-65.28-69.376c-5.661-4.729-9.236-11.791-9.236-19.687 0-11.964 8.207-22.012 19.299-24.819l0.177-0.038c10.752-3.584 22.016-5.376 33.28-8.192h36.096c1.098 0.604 2.374 1.128 3.71 1.505l0.13 0.031c78.844 12.119 138.52 79.477 138.52 160.773 0 6.493-0.381 12.897-1.121 19.191l0.073-0.764c-1.792 14.592-5.888 28.928-8.448 41.728l126.208 126.464 12.544-13.568q148.992-157.184 297.472-314.88c8.137-10.053 20.476-16.427 34.304-16.427s26.167 6.374 34.239 16.344l0.065 0.083 46.848 47.104c9.679 8.087 15.793 20.161 15.793 33.664s-6.113 25.577-15.723 33.608l-0.069 0.056z" />
<glyph unicode="&#xe907;" glyph-name="camera-filled" d="M512 544c-0.075 0-0.164 0-0.253 0-98.263 0-177.92-79.657-177.92-177.92s79.657-177.92 177.92-177.92c98.263 0 177.92 79.657 177.92 177.92 0 0.36-0.001 0.72-0.003 1.079v-0.055c-0.291 97.759-79.607 176.896-177.407 176.896-0.090 0-0.18 0-0.271 0h0.014zM866.048 603.136c-0.071 0-0.155 0.001-0.24 0.001-27.57 0-49.92-22.35-49.92-49.92s22.35-49.92 49.92-49.92c27.12 0 49.189 21.626 49.902 48.573l0.001 0.066c0.021 0.535 0.033 1.162 0.033 1.793 0 27.287-22.121 49.408-49.408 49.408-0.101 0-0.203 0-0.304-0.001h0.016zM937.984 671.744c-61.952 0-124.16 0-186.112 0-0.637-0.018-1.386-0.028-2.138-0.028-43.196 0-78.459 33.963-80.543 76.642l-0.007 0.187c0.053 0.764 0.083 1.657 0.083 2.556 0 21.632-17.536 39.168-39.168 39.168-1.563 0-3.104-0.092-4.619-0.27l0.184 0.018h-227.072c-1.162 0.119-2.512 0.186-3.877 0.186-22.339 0-40.448-18.109-40.448-40.448 0-0.606 0.013-1.208 0.040-1.808l-0.003 0.085c0-0.028 0-0.062 0-0.096 0-42.415-34.385-76.8-76.8-76.8-1.351 0-2.693 0.035-4.027 0.104l0.187-0.008h-188.416c-1.509 0.198-3.255 0.312-5.027 0.312-22.48 0-40.704-18.224-40.704-40.704 0-1.281 0.059-2.549 0.175-3.8l-0.012 0.16c0-179.2 0-295.424 0-475.392-0.193-1.483-0.303-3.198-0.303-4.939 0-22.339 18.109-40.448 40.448-40.448 1.822 0 3.615 0.12 5.373 0.354l-0.206-0.022h853.504c1.73-0.262 3.725-0.412 5.756-0.412 22.339 0 40.448 18.109 40.448 40.448 0 1.951-0.138 3.87-0.405 5.747l0.025-0.215c0 179.2 0 294.656 0 474.368 0.157 1.345 0.246 2.904 0.246 4.484 0 22.622-18.338 40.96-40.96 40.96-1.983 0-3.933-0.141-5.841-0.413l0.219 0.026zM394.496 748.544h234.752v-36.864h-234.496zM512 155.648c-116.077 0-210.176 94.099-210.176 210.176s94.099 210.176 210.176 210.176c116.077 0 210.176-94.099 210.176-210.176 0-0.090 0-0.18 0-0.27v0.014c-0.579-115.792-94.364-209.486-210.135-209.92h-0.041zM865.792 473.6c-43.396 0.012-78.572 35.194-78.572 78.592 0 43.405 35.187 78.592 78.592 78.592s78.592-35.187 78.592-78.592c0-0.63-0.007-1.258-0.022-1.885l0.002 0.093c-0.719-42.569-35.397-76.802-78.070-76.802-0.184 0-0.367 0.001-0.551 0.002h0.028z" />
<glyph unicode="&#xe908;" glyph-name="cart-filled" d="M1014.272 950.528h-123.904c-0.357 0.006-0.778 0.009-1.2 0.009-36.74 0-67.687-24.806-77.004-58.584l-0.132-0.561c-4.864-16.384-9.984-32.512-13.824-49.152-2.304-9.984-6.912-12.544-16.896-12.544q-367.872 0-735.488 0c-1.64 0.233-3.535 0.366-5.461 0.366-22.622 0-40.96-18.338-40.96-40.96 0-6.765 1.64-13.147 4.545-18.771l-0.107 0.229q61.952-170.496 124.16-340.992c15.903-48.132 60.48-82.251 113.026-82.251 1.485 0 2.963 0.027 4.434 0.081l-0.213-0.006h419.072c0.127 0.003 0.277 0.004 0.427 0.004 5.528 0 10.581-2.038 14.447-5.403l-0.027 0.023q40.192-43.52 79.36-87.808c6.791-7.108 10.971-16.762 10.971-27.391 0-17.414-11.217-32.207-26.82-37.55l-0.279-0.083c-6.144-1.827-13.203-2.878-20.507-2.878-1.071 0-2.136 0.023-3.196 0.067l0.151-0.005h-657.92v-39.68h79.872c-25.711-7.142-47.21-22.246-62.246-42.446l-0.218-0.306c-11.574-15.726-18.522-35.478-18.522-56.852 0-6.238 0.592-12.339 1.723-18.248l-0.096 0.604c7.314-45.859 45.254-80.907 91.886-83.699l0.274-0.013c2.39-0.203 5.171-0.319 7.98-0.319 43.52 0 80.537 27.846 94.206 66.692l0.214 0.699c3.544 9.72 5.593 20.941 5.593 32.641 0 18.677-5.222 36.134-14.285 50.99l0.245-0.432c-14.853 24.161-38.065 41.957-65.524 49.482l-0.78 0.182h484.352c-65.536-28.416-91.136-67.328-80.384-120.832 10.005-45.852 50.256-79.678 98.407-79.678 46.3 0 85.295 31.275 97.011 73.852l0.166 0.706c2.212 7.778 3.484 16.71 3.484 25.939 0 20.179-6.080 38.939-16.509 54.546l0.225-0.357c-15.234 22.848-38.165 39.53-65.022 46.424l-0.77 0.168c14.336 0 28.672 0 42.24 1.536 29.239 4.669 52.571 25.688 60.541 53.23l0.131 0.53c2.893 7.761 4.566 16.729 4.566 26.087 0 21.076-8.49 40.17-22.236 54.047l0.006-0.006c-25.6 28.416-51.2 56.32-76.8 84.736-2.26 2.908-3.623 6.61-3.623 10.631 0 1.129 0.107 2.233 0.313 3.302l-0.017-0.109q70.656 248.832 142.080 497.408c3.647 18.012 19.35 31.381 38.176 31.381 1.976 0 3.917-0.147 5.814-0.431l-0.214 0.026h130.816v41.216z" />
<glyph unicode="&#xe909;" glyph-name="chart-filled" d="M289.28 224c0-33.932-27.508-61.44-61.44-61.44s-61.44 27.508-61.44 61.44c0 33.932 27.508 61.44 61.44 61.44s61.44-27.508 61.44-61.44zM934.144 672.256c0-33.932-27.508-61.44-61.44-61.44s-61.44 27.508-61.44 61.44c0 33.932 27.508 61.44 61.44 61.44s61.44-27.508 61.44-61.44zM741.376 287.744c0-33.932-27.508-61.44-61.44-61.44s-61.44 27.508-61.44 61.44c0 33.932 27.508 61.44 61.44 61.44s61.44-27.508 61.44-61.44zM482.048 480.256c0-33.932-27.508-61.44-61.44-61.44s-61.44 27.508-61.44 61.44c0 33.932 27.508 61.44 61.44 61.44s61.44-27.508 61.44-61.44zM1003.52-22.784h-961.536c0 40.704 0 817.152 0 962.304 0 11.594-9.398 20.992-20.992 20.992s-20.992-9.398-20.992-20.992v-1003.52h1003.52c11.381 0 20.608 9.227 20.608 20.608s-9.227 20.608-20.608 20.608v0zM872.704 576c0.31-0.004 0.676-0.006 1.043-0.006 53.726 0 97.28 43.554 97.28 97.28s-43.554 97.28-97.28 97.28c-53.726 0-97.28-43.554-97.28-97.28 0-30.684 14.206-58.049 36.399-75.879l0.19-0.147-109.824-216.32c-7.132 1.953-15.321 3.075-23.773 3.075-25.303 0-48.257-10.057-65.082-26.393l0.023 0.022-107.52 81.152c6.106 12.178 9.694 26.53 9.728 41.717v0.011c0 0.072 0 0.157 0 0.243 0 53.161-43.095 96.256-96.256 96.256s-96.256-43.095-96.256-96.256c0-24.73 9.326-47.282 24.654-64.331l-0.078 0.088-79.872-105.728c-12.042 5.826-26.19 9.231-41.132 9.231-53.161 0-96.256-43.095-96.256-96.256s43.095-96.256 96.256-96.256c53.161 0 96.256 43.095 96.256 96.256 0 25.834-10.177 49.29-26.74 66.579l0.033-0.035 79.104 104.704c12.835-6.954 28.099-11.042 44.319-11.042 25.45 0 48.549 10.064 65.535 26.43l-0.029-0.028 107.264-80.896c-6.064-12.251-9.612-26.675-9.612-41.928 0-53.161 43.095-96.256 96.256-96.256s96.256 43.095 96.256 96.256c0 32.61-16.216 61.432-41.024 78.843l-0.308 0.205 109.824 214.272c8.289-2.861 17.851-4.623 27.789-4.862l0.115-0.002zM227.84 162.816c-33.932 0-61.44 27.508-61.44 61.44s27.508 61.44 61.44 61.44c33.932 0 61.44-27.508 61.44-61.44v0c0-33.932-27.508-61.44-61.44-61.44v0zM420.608 418.816c-33.932 0-61.44 27.508-61.44 61.44s27.508 61.44 61.44 61.44c33.932 0 61.44-27.508 61.44-61.44v0c-0.145-33.822-27.597-61.184-61.439-61.184 0 0 0 0-0.001 0v0zM742.4 287.744c0-33.932-27.508-61.44-61.44-61.44s-61.44 27.508-61.44 61.44c0 33.932 27.508 61.44 61.44 61.44v0c33.932 0 61.44-27.508 61.44-61.44v0zM812.288 671.744c0 33.932 27.508 61.44 61.44 61.44s61.44-27.508 61.44-61.44c0-33.932-27.508-61.44-61.44-61.44v0c-0.305-0.005-0.665-0.009-1.026-0.009-33.932 0-61.44 27.508-61.44 61.44 0 0.183 0.001 0.366 0.002 0.549v-0.028z" />
<glyph unicode="&#xe90a;" glyph-name="checkmark-filled" d="M917.248 926.208l-578.56-851.968c-4.708-6.431-12.23-10.56-20.716-10.56-5.036 0-9.733 1.454-13.693 3.966l0.105-0.062-211.712 144.128c-8.389 5.775-18.768 9.224-29.953 9.224-18.227 0-34.315-9.158-43.913-23.123l-0.117-0.18c-5.775-8.389-9.224-18.768-9.224-29.953 0-18.227 9.158-34.315 23.123-43.913l0.18-0.117 232.192-157.696c16.745-11.538 37.468-18.428 59.8-18.428 36.405 0 68.534 18.311 87.678 46.226l0.234 0.362 592.384 872.448c5.702 8.352 9.105 18.668 9.105 29.778 0 18.176-9.107 34.226-23.007 43.833l-0.178 0.116c-8.352 5.702-18.668 9.105-29.778 9.105-18.176 0-34.226-9.107-43.833-23.007l-0.116-0.178z" />
<glyph unicode="&#xe90b;" glyph-name="checkmark-in-circle-filled" d="M512 918.528c-259.865 0-470.528-210.663-470.528-470.528s210.663-470.528 470.528-470.528c259.865 0 470.528 210.663 470.528 470.528v0c0 259.865-210.663 470.528-470.528 470.528v0zM789.248 690.944l-332.8-491.008c-10.876-15.903-28.93-26.204-49.39-26.204-12.529 0-24.157 3.863-33.755 10.463l0.202-0.131-130.56 88.576c-6.862 5.535-11.214 13.943-11.214 23.367 0 16.542 13.41 29.952 29.952 29.952 5.442 0 10.545-1.451 14.943-3.988l-0.145 0.077 118.784-78.848c2.184-1.511 4.889-2.414 7.805-2.414 4.71 0 8.869 2.355 11.365 5.952l0.030 0.046 325.376 477.696c5.251 9.116 14.941 15.154 26.041 15.154 16.542 0 29.952-13.41 29.952-29.952 0-7.118-2.483-13.656-6.63-18.795l0.045 0.057z" />
<glyph unicode="&#xe90c;" glyph-name="clipboard-filled" d="M191.488-43.264h640c13.056 0 14.080 0 14.080 14.336 0 63.232 0 122.624 0 185.856 0 223.744 0 443.136 0 666.88 0 13.312-1.28 14.848-14.592 14.848-25.6 0-42.496 0-68.864 0-8.192 0-9.984-2.56-9.984-10.24 0-25.6 0-52.736 0-76.8 0.105-1.363 0.165-2.951 0.165-4.553 0-34.781-28.195-62.976-62.976-62.976-1.77 0-3.523 0.073-5.256 0.216l0.227-0.015h-345.856c-1.506-0.128-3.259-0.201-5.029-0.201-34.781 0-62.976 28.195-62.976 62.976 0 1.602 0.060 3.19 0.177 4.763l-0.013-0.21c0 25.6 0 51.2 0 76.8 0 11.776 0 11.776-11.52 11.776h-66.304c-14.336 0-15.36 0-15.36-15.616 0-143.104 0-281.6 0-424.96s0-283.392 0-427.008c0.256-14.848 1.792-15.872 14.080-15.872zM658.432 750.336c19.2 0 27.136 7.936 27.136 27.136q0 38.912 0 76.8c0 19.2-8.192 27.392-27.904 27.392h-68.864c-5.12 0-8.192 0-8.704 6.912-1.586 10.014-6.074 18.776-12.564 25.621l0.020-0.021c-13.52 15.162-33.108 24.663-54.916 24.663-24.239 0-45.736-11.738-59.118-29.839l-0.141-0.2c-4.912-6.083-8.562-13.397-10.425-21.397l-0.071-0.363c0-5.632-4.352-5.376-8.192-5.376h-69.376c-18.432 0-25.6-8.192-26.88-25.6q0-39.168 0-78.336c0-19.2 7.936-27.136 27.136-27.136z" />
<glyph unicode="&#xe90d;" glyph-name="close-filled" d="M1005.824 941.824v0c-9.634 9.624-22.938 15.576-37.632 15.576s-27.998-5.952-37.632-15.576v0l-380.928-380.928c-9.634-9.624-22.938-15.576-37.632-15.576s-27.998 5.952-37.632 15.576v0l-380.928 380.928c-9.634 9.624-22.938 15.576-37.632 15.576s-27.998-5.952-37.632-15.576v0c-9.624-9.634-15.576-22.938-15.576-37.632s5.952-27.998 15.576-37.632v0l380.928-380.928c9.624-9.634 15.576-22.938 15.576-37.632s-5.952-27.998-15.576-37.632v0l-380.928-380.928c-9.624-9.634-15.576-22.938-15.576-37.632s5.952-27.998 15.576-37.632v0c9.634-9.624 22.938-15.576 37.632-15.576s27.998 5.952 37.632 15.576v0l380.928 380.928c9.634 9.624 22.938 15.576 37.632 15.576s27.998-5.952 37.632-15.576v0l380.928-380.928c9.634-9.624 22.938-15.576 37.632-15.576s27.998 5.952 37.632 15.576v0c9.624 9.634 15.576 22.938 15.576 37.632s-5.952 27.998-15.576 37.632v0l-380.928 380.928c-9.624 9.634-15.576 22.938-15.576 37.632s5.952 27.998 15.576 37.632v0l380.928 380.928c9.624 9.634 15.576 22.938 15.576 37.632s-5.952 27.998-15.576 37.632v0z" />
<glyph unicode="&#xe90e;" glyph-name="credit-card-filled" d="M981.504 628.48c0 25.6 0 62.72 0 87.296-1.008 12.007-9.085 21.892-20.016 25.54l-0.208 0.060c-8.588 2.929-18.482 4.619-28.77 4.619-0.506 0-1.010-0.004-1.514-0.012l0.076 0.001h-844.8c-1.837 0.311-3.952 0.489-6.11 0.489-19.757 0-36.029-14.92-38.163-34.108l-0.016-0.173c0-23.040 0-59.648 0-83.712zM43.008 473.6c0-1.792 0-32.768 0-33.536 0-80.128 0-174.080 0-254.208 1.196-11.292 6.909-21.054 15.271-27.581l0.089-0.067c8.541-5.036 18.817-8.011 29.789-8.011 1.048 0 2.089 0.027 3.124 0.081l-0.145-0.006c272.64 0 574.464 0 847.104 0 1.644-0.243 3.541-0.381 5.471-0.381 21.773 0 39.424 17.651 39.424 39.424 0 1.85-0.127 3.67-0.374 5.452l0.023-0.206c0 67.584 0 149.248 0 216.832 0 10.752 0 51.2 0 62.72zM822.528 232.704q-70.912 0-142.080 0c-17.152 0-29.184 5.376-28.416 20.736s13.056 20.224 30.72 20.48h138.24c17.92 0 29.44-4.864 29.696-20.736s-10.496-20.736-28.16-20.992z" />
<glyph unicode="&#xe90f;" glyph-name="right-arrow-filled" d="M674.304 166.4c9.634-9.624 22.938-15.576 37.632-15.576s27.998 5.952 37.632 15.576v0l263.68 261.12c6.641 6.51 10.757 15.574 10.757 25.6s-4.116 19.090-10.751 25.594l-0.006 0.006-253.696 250.88c-9.634 9.624-22.938 15.576-37.632 15.576s-27.998-5.952-37.632-15.576v0c-9.624-9.634-15.576-22.938-15.576-37.632s5.952-27.998 15.576-37.632v0l160.512-147.968h-786.944c-29.408 0-53.248-23.84-53.248-53.248v0c0-29.408 23.84-53.248 53.248-53.248v0h786.944l-171.776-158.208c-9.624-9.634-15.576-22.938-15.576-37.632s5.952-27.998 15.576-37.632v0z" />
<glyph unicode="&#xe910;" glyph-name="dollars-filled" d="M929.792 526.848l-18.944 91.648c-2.895 13.905-15.047 24.202-29.605 24.202-2.208 0-4.361-0.237-6.434-0.687l0.199 0.036-598.528-123.904 164.864-19.2c5.852 4.010 12.568 7.851 19.591 11.145l0.889 0.375 6.144 2.56c5.371 2.267 11.94 4.458 18.697 6.181l1.015 0.219 5.376 1.28c8.869 1.913 19.057 3.008 29.501 3.008 42.18 0 80.188-17.866 106.869-46.443l0.078-0.085h5.888l303.36-35.072c3.442-0.459 6.552-1.266 9.5-2.4l-0.284 0.096-10.752 52.48zM502.528 296.96l3.072 25.6v2.304l7.168-3.072c9.787-3.968 18.234-8.962 25.806-15.007l-0.206 0.159 13.824 22.528-4.096 3.072c-3.121 2.734-6.546 5.345-10.142 7.717l-0.354 0.219c-6.448 3.541-13.931 6.598-21.777 8.782l-0.751 0.178-5.632 1.536v4.096l1.28 11.776c-7.593 0.639-14.419 1.636-21.105 3.012l1.137-0.196-1.792-15.616c-29.184 0-49.664-13.824-52.736-38.4s15.36-38.912 35.072-48.128l7.168-3.072-2.816-24.32v-9.984l-1.28-11.52c-4.487 1.295-8.309 2.776-11.966 4.547l0.446-0.195c-12.050 4.868-22.346 11.714-30.987 20.234l0.011-0.010-1.28 1.28-2.048-3.328-12.288-18.688c5.595-6.317 11.902-11.811 18.847-16.42l0.353-0.22c9.92-6.869 21.595-12.025 34.18-14.733l0.636-0.115-2.816-23.296 20.992 4.352 2.048 16.896c1.957-0.282 4.218-0.443 6.516-0.443 23.844 0 43.638 17.339 47.461 40.097l0.039 0.282s0 2.048 0 3.072c0.122 1.135 0.192 2.452 0.192 3.785 0 10.192-4.079 19.431-10.694 26.173l0.006-0.006c-9.238 8.285-20.118 14.967-32.063 19.478l-0.705 0.234zM482.56 301.312v-9.472c-7.047 3.036-12.365 8.941-14.545 16.203l-0.047 0.181c-0.146 0.847-0.229 1.822-0.229 2.816s0.083 1.969 0.244 2.918l-0.014-0.102c0 8.704 8.192 13.312 19.2 14.080zM508.16 248.064c4.14-3.359 6.764-8.447 6.764-14.147 0-0.698-0.039-1.387-0.116-2.064l0.008 0.083c0-9.472-8.704-14.848-20.736-16.128l2.048 18.176v7.936l1.536 13.312c3.704-2.065 6.898-4.444 9.743-7.182l-0.015 0.014zM910.336 410.624l-96.768 11.776-253.184 29.184h-7.68l-53.504 6.656h-7.424l-372.736 43.264c-0.651 0.054-1.41 0.084-2.176 0.084s-1.525-0.031-2.275-0.091l0.099 0.006c-14.796-0.135-26.975-11.165-28.911-25.448l-0.017-0.152-8.96-63.744-12.288-104.448v-10.24l-16.384-140.288c-0.141-1.095-0.221-2.362-0.221-3.648 0-15.136 11.131-27.671 25.654-29.867l0.167-0.021 25.6-3.072 43.776-5.12 32-3.584h10.752l107.776-12.288 571.392-66.304c1.095-0.141 2.362-0.221 3.648-0.221 15.136 0 27.671 11.131 29.867 25.654l0.021 0.167 19.456 168.704 4.096 35.584 13.312 113.92c0.147 1.119 0.231 2.413 0.231 3.726 0 14.957-10.87 27.375-25.141 29.785l-0.178 0.025zM638.208 253.184c-8.519-73.655-70.529-130.304-145.77-130.304-81.014 0-146.688 65.674-146.688 146.688 0 74.916 56.161 136.715 128.678 145.593l0.708 0.071h34.816l12.288-2.048h3.072c65.83-15.487 114.084-73.72 114.084-143.223 0-5.821-0.338-11.563-0.997-17.208l0.065 0.686zM968.704 337.664l-7.424-65.024c8.98 5.284 14.911 14.9 14.911 25.902 0 2.067-0.209 4.086-0.608 6.035l0.033-0.193zM363.008 570.88c25.379 45.457 73.188 75.69 128.059 75.69 33.884 0 65.075-11.529 89.865-30.878l-0.324 0.244 302.592 62.464-96.768 170.24c-5.302 9.169-15.061 15.239-26.238 15.239-5.51 0-10.675-1.475-15.123-4.052l0.145 0.078-579.584-328.704h3.328zM427.776 584.448l20.736 4.096-7.168 12.544-17.408-9.984 3.84-6.656z" />
<glyph unicode="&#xe911;" glyph-name="down-arrow-filled" d="M43.52 695.808c-9.624-9.634-15.576-22.938-15.576-37.632s5.952-27.998 15.576-37.632v0l435.2-438.784c6.51-6.641 15.574-10.757 25.6-10.757s19.090 4.116 25.594 10.751l0.006 0.006 450.56 452.352c9.624 9.634 15.576 22.938 15.576 37.632s-5.952 27.998-15.576 37.632v0c-9.675 9.639-23.022 15.598-37.76 15.598s-28.085-5.959-37.762-15.6l0.002 0.002-349.952-361.984c-12.835-13.093-30.705-21.208-50.47-21.208-20.51 0-38.98 8.739-51.887 22.697l-0.043 0.047-332.8 346.88c-9.634 9.624-22.938 15.576-37.632 15.576s-27.998-5.952-37.632-15.576v0z" />
<glyph unicode="&#xe912;" glyph-name="down-arrow-in-circle-filled" d="M512 918.528c-259.865 0-470.528-210.663-470.528-470.528s210.663-470.528 470.528-470.528c259.865 0 470.528 210.663 470.528 470.528v0c0 259.865-210.663 470.528-470.528 470.528v0zM711.68 349.952l-176.128-179.2c-4.614-4.525-10.941-7.318-17.92-7.318s-13.306 2.793-17.924 7.322l0.004-0.004-183.552 185.344c-6.727 6.758-10.886 16.077-10.886 26.368s4.159 19.61 10.888 26.369l-0.001-0.001c6.758 6.727 16.077 10.886 26.368 10.886s19.61-4.159 26.369-10.888l-0.001 0.001 111.104-120.832v388.352c0 20.642 16.734 37.376 37.376 37.376s37.376-16.734 37.376-37.376v0-387.072l103.936 113.408c6.533 5.724 15.147 9.216 24.576 9.216 20.642 0 37.376-16.734 37.376-37.376 0-9.429-3.492-18.043-9.253-24.619l0.037 0.043z" />
<glyph unicode="&#xe913;" glyph-name="download-filled" d="M325.12 425.472c-9.624-9.634-15.576-22.938-15.576-37.632s5.952-27.998 15.576-37.632v0l166.4-169.216c6.51-6.641 15.574-10.757 25.6-10.757s19.090 4.116 25.594 10.751l0.006 0.006 158.976 161.792c9.624 9.634 15.576 22.938 15.576 37.632s-5.952 27.998-15.576 37.632v0c-9.634 9.624-22.938 15.576-37.632 15.576s-27.998-5.952-37.632-15.576v0l-56.064-69.888v556.288c0 29.408-23.84 53.248-53.248 53.248v0c-29.408 0-53.248-23.84-53.248-53.248v0-556.288l-63.488 76.8c-9.634 9.624-22.938 15.576-37.632 15.576s-27.998-5.952-37.632-15.576v0zM917.76 102.912v-42.752c0-8.483-6.877-15.36-15.36-15.36v0h-780.544c-8.483 0-15.36 6.877-15.36 15.36v42.752c0 29.408-23.84 53.248-53.248 53.248v0 0c-29.408 0-53.248-23.84-53.248-53.248v0-131.584c0-18.097 14.671-32.768 32.768-32.768v0h958.464c0 0 0.001 0 0.001 0 18.007 0 32.622 14.525 32.767 32.498v131.854c0 29.408-23.84 53.248-53.248 53.248v0 0c-29.298-0.145-52.992-23.929-52.992-53.247 0 0 0 0 0-0.001v0z" />
<glyph unicode="&#xe914;" glyph-name="email-filled" d="M322.56 436.992c-92.16 92.16-192.512 212.224-280.832 300.544 0-177.152 2.816-393.728 2.816-576.512 92.416 92.16 190.208 188.416 278.016 275.968zM982.272 143.872c0 183.808 0 454.912 0 593.408-92.416-92.416-196.864-210.944-285.184-299.264 90.368-92.416 195.584-204.032 285.184-294.144zM587.264 374.272c121.856 121.6 370.944 384 379.392 392.704h-910.336c9.472-9.984 251.136-264.448 372.736-386.048 20.258-22.742 49.624-36.996 82.319-36.996 29.44 0 56.181 11.557 75.934 30.382l-0.044-0.042zM600.32 345.6c-21.898-23.977-53.295-38.961-88.192-38.961s-66.294 14.984-88.109 38.869l-0.083 0.092c-23.808 23.296-56.832 51.2-78.336 72.704-95.744-94.976-193.792-194.56-288.256-289.28h900.352c-93.696 93.696-189.696 194.048-285.184 289.792-21.504-22.016-48.384-48.896-72.192-73.216z" />
<glyph unicode="&#xe915;" glyph-name="ethereum-filled" d="M535.552 859.392v-585.728c96.256 55.552 148.224 92.672 245.248 148.992-95.232 156.16-147.456 276.48-245.248 436.736zM477.952 227.328c-81.408 48.384-144.896 86.784-226.816 134.4 84.48-116.48 158.208-206.592 243.456-324.608 0 58.88 2.304 102.4 0 162.304-1.42 11.579-7.613 21.481-16.517 27.821l-0.123 0.083zM537.6 194.304c0-63.232 0-94.464 0-157.696 81.408 112.896 153.6 216.32 236.032 331.264-9.984-6.656-148.992-99.584-225.28-145.664-6.666-6.86-10.775-16.235-10.775-26.569 0-0.469 0.008-0.937 0.025-1.402l-0.002 0.067zM499.968 278.016v580.864c-97.024-159.232-163.072-279.552-256-433.152 94.976-54.528 160.512-92.416 256-147.712z" />
<glyph unicode="&#xe916;" glyph-name="exchange-2-filled" d="M509.696 217.6c127.243 0.005 230.391 103.157 230.391 230.4 0 127.246-103.154 230.4-230.4 230.4-126.526 0-229.232-101.989-230.39-228.242l-0.001-0.11c-0.006-0.609-0.009-1.328-0.009-2.048 0-127.246 103.154-230.4 230.4-230.4 0.003 0 0.007 0 0.010 0h-0.001zM369.92 670.208c39.975 27.071 89.27 43.217 142.336 43.217s102.361-16.146 143.24-43.793l-0.904 0.576c16.665-10.492 31.103-22.244 43.974-35.523l0.058-0.061v175.104h-452.096c-28.672 0-34.048 5.632-34.816 34.304 0 11.264 0 51.2 0 60.928-47.872-47.36-144.384-135.68-184.32-175.36 44.032-44.032 140.032-124.672 184.064-168.704 0 4.352 0 36.608 0 46.080 0 34.56 4.096 38.656 37.632 38.656s46.848 0 80.896 0c11.52 0.768 30.208 18.944 39.936 24.576zM812.288 289.28c0-34.56-4.096-38.656-37.632-38.656s-46.848 0-80.896 0c-11.264 0-29.952-18.432-39.424-24.32-39.975-27.071-89.27-43.217-142.336-43.217s-102.361 16.146-143.24 43.793l0.904-0.576c-16.665 10.492-31.103 22.244-43.974 35.523l-0.058 0.061v-175.104h451.84c28.672 0 34.048-5.632 34.816-34.304 0-11.264 0-51.2 0-60.928 47.872 46.848 144.384 135.168 184.32 174.848-44.032 44.032-140.032 124.672-184.064 168.704-0.256-4.352 0-36.608-0.256-45.824z" />
<glyph unicode="&#xe917;" glyph-name="exchange-filled" d="M399.36 491.008c13.293-11.629 29.342-20.464 47.018-25.397l0.854-0.203c16.036-5.304 34.495-8.363 53.669-8.363 2.733 0 5.452 0.062 8.155 0.185l-0.384-0.014c6.4 0 13.056 0 19.456 0 16.871 1.231 32.549 4.603 47.333 9.861l-1.253-0.389c17.102 5.569 31.814 14.334 44.114 25.674l-0.082-0.074c5.982 5.388 10.691 12.070 13.699 19.614l0.125 0.354c1.189 3.401 1.876 7.321 1.876 11.402 0 8.985-3.33 17.192-8.823 23.454l0.035-0.040c-9.242 10.845-20.699 19.513-33.701 25.357l-0.603 0.243c-20.986 10.018-45.528 16.171-71.429 16.89l-0.251 0.006c-3.943 0.294-8.542 0.461-13.18 0.461-31.354 0-60.921-7.648-86.939-21.18l1.046 0.495c-12.686-6.298-23.129-15.428-30.8-26.608l-0.176-0.272c-3.75-5.258-5.996-11.814-5.996-18.894 0-4.448 0.886-8.688 2.491-12.555l-0.080 0.217c3.099-7.998 7.813-14.769 13.78-20.185l0.044-0.039zM679.936 411.136c0.225 1.455 0.354 3.134 0.354 4.843 0 7.88-2.739 15.121-7.317 20.822l0.050-0.065c-9.071 11.935-20.764 21.414-34.256 27.671l-0.56 0.233c-2.048 0-3.072 0-4.352 0-2.14-2.598-4.316-4.937-6.624-7.138l-0.032-0.030c-7.399-7.11-15.818-13.242-24.995-18.137l-0.605-0.295c-1.378-0.868-2.388-2.211-2.806-3.795l-0.010-0.045c-2.051-9.909-6.454-18.567-12.604-25.671l0.060 0.071c-9.278-10.692-20.617-19.328-33.432-25.34l-0.616-0.26c-15.604-7.832-33.723-13.582-52.824-16.276l-0.936-0.108-17.92-2.304v-1.28c9.984-2.816 19.712-6.144 29.696-8.192 13.167-2.991 28.287-4.704 43.808-4.704 7.563 0 15.031 0.407 22.383 1.2l-0.912-0.080c22.849 1.936 43.883 7.87 63.023 17.106l-1.071-0.466c12.931 6.235 23.784 14.876 32.378 25.43l0.134 0.17c4.485 4.536 7.92 10.119 9.904 16.35l0.080 0.29zM579.072 310.528c-7.682-0.908-16.58-1.427-25.6-1.427s-17.918 0.518-26.667 1.527l1.067-0.1c-28.741 2.545-54.895 11.739-77.514 26.021l0.714-0.421c-10.524 7.035-19.123 16.125-25.391 26.754l-0.209 0.382c-0.836 1.142-1.966 2.024-3.278 2.542l-0.050 0.018c-0.575 0.050-1.244 0.078-1.92 0.078s-1.345-0.028-2.006-0.084l0.086 0.006-30.72 8.192c-1.902-3.73-3.016-8.135-3.016-12.8s1.114-9.070 3.091-12.963l-0.075 0.163c5.835-11.453 14.587-20.699 25.293-26.97l0.307-0.166c20.762-13.784 45.698-22.973 72.565-25.55l0.651-0.050c7.603-0.977 16.399-1.535 25.324-1.535 14.593 0 28.839 1.491 42.592 4.329l-1.356-0.234c12.81 2.462 24.131 6.004 34.861 10.652l-1.069-0.412zM460.8 402.432c0.948-0.017 2.066-0.026 3.187-0.026 25.477 0 49.81 4.897 72.109 13.8l-1.312-0.462h2.304c-0.38 0.15-0.82 0.236-1.28 0.236s-0.9-0.087-1.304-0.245l0.024 0.008-18.688-1.536c-3.239-0.183-7.028-0.287-10.841-0.287-13.55 0-26.792 1.316-39.606 3.827l1.295-0.211c-19.771 3.349-37.488 9.6-53.639 18.369l0.903-0.449c-12.67 6.404-23.327 15.014-31.864 25.429l-0.136 0.171c-6.465 8.112-10.535 18.387-11.005 29.593l-0.003 0.103c0 6.4 0 12.8 0 19.712h-1.792c-11.072-6.39-20.181-15.008-26.952-25.301l-0.184-0.299c-3.596-5.21-5.744-11.66-5.744-18.611 0-5.546 1.367-10.773 3.783-15.361l-0.087 0.181c4.051-7.822 9.472-14.389 16.009-19.62l0.119-0.092c11.667-9.495 25.387-17.012 40.337-21.774l0.879-0.242c15.964-4.554 34.299-7.173 53.246-7.173 3.603 0 7.183 0.095 10.739 0.282l-0.497-0.021zM466.944 793.344c6.733 0.41 14.605 0.644 22.531 0.644 16.963 0 33.675-1.071 50.074-3.15l-1.949 0.202v8.448c3.072-0.256-71.936-6.144-70.656-6.144zM534.016 824.064v3.328c-12.795 1.469-27.623 2.307-42.647 2.307-0.577 0-1.154-0.001-1.731-0.004h0.090zM578.048 94.72l-91.648 109.312c-3.305 4.917-8.847 8.11-15.134 8.11-4.609 0-8.818-1.716-12.022-4.543l0.020 0.017c-7.424-6.4-4.608-18.688-4.864-30.208s0-25.6 0-41.984c-166.057 9.874-296.986 146.953-296.986 314.613 0 4.686 0.102 9.348 0.305 13.984l-0.023-0.661c6.533 128.348 88.058 236.124 201.36 280.849l2.16 0.751c17.749 6.818 30.118 23.725 30.118 43.52 0 25.682-20.82 46.502-46.502 46.502-5.887 0-11.518-1.094-16.702-3.090l0.318 0.108c-156.743-60.543-266.252-209.26-268.030-383.781l-0.002-0.219s0-2.56 0-3.84c0-0.026 0-0.057 0-0.088 0-223.384 176.396-405.569 397.496-414.86l0.84-0.028c-0.2-4.285-0.314-9.309-0.314-14.359 0-23.833 2.538-47.073 7.36-69.465l-0.39 2.16c2.79-3.325 6.947-5.424 11.594-5.424 0.424 0 0.845 0.017 1.26 0.052l-0.054-0.004c8.388 0.16 15.824 4.102 20.694 10.186l0.042 0.054c26.966 34.598 53.673 73.624 77.965 114.261l2.931 5.291c1.996 2.876 3.189 6.441 3.189 10.284 0 4.846-1.897 9.25-4.988 12.508l0.008-0.008zM526.848 94.72v0zM470.784 62.72v0zM471.808 89.6v0zM497.408 93.696c-8.448 0-16.384 0-25.6 0v0zM470.016 59.648v0c11.008 0 22.016-1.792 33.536-1.536v0c-12.032 0.256-23.040 1.28-34.048 2.048zM445.952 801.28l91.648-109.312c3.305-4.917 8.847-8.11 15.134-8.11 4.609 0 8.818 1.716 12.022 4.543l-0.020-0.017c7.424 6.4 4.608 18.688 4.864 30.208s0 25.6 0 41.984c166.057-9.874 296.986-146.953 296.986-314.613 0-4.686-0.102-9.348-0.305-13.984l0.023 0.661c-6.533-128.348-88.058-236.124-201.36-280.849l-2.16-0.751c-17.749-6.818-30.118-23.725-30.118-43.52 0-25.682 20.82-46.502 46.502-46.502 5.887 0 11.518 1.094 16.702 3.090l-0.318-0.108c156.743 60.543 266.252 209.26 268.030 383.781l0.002 0.219s0 2.56 0 3.84c0 0.026 0 0.057 0 0.088 0 223.384-176.396 405.569-397.496 414.86l-0.84 0.028c0.2 4.285 0.314 9.309 0.314 14.359 0 23.833-2.538 47.073-7.36 69.465l0.39-2.16c-2.79 3.325-6.947 5.424-11.594 5.424-0.424 0-0.845-0.017-1.26-0.052l0.054 0.004c-8.388-0.16-15.824-4.102-20.694-10.186l-0.042-0.054c-26.966-34.598-53.673-73.624-77.965-114.261l-2.931-5.291c-1.996-2.876-3.189-6.441-3.189-10.284 0-4.846 1.897-9.25 4.988-12.508l-0.008 0.008zM497.152 801.28v0zM553.216 833.28v0zM552.192 806.4v0zM526.592 802.304c8.448 0 16.384 0 25.6 0v0zM553.984 836.352v0c-11.008 0-22.016 1.792-33.536 1.536v0c12.032-0.256 23.040-1.28 34.048-2.048z" />
<glyph unicode="&#xe918;" glyph-name="gears-filled" d="M749.312 950.784c6.912-20.48 14.336-40.96 20.224-61.696 1.325-9.379 8.925-16.629 18.359-17.403l0.073-0.005c0.577 0.132 1.24 0.208 1.92 0.208s1.343-0.076 1.98-0.219l-0.060 0.011c21.248-13.824 37.888-5.12 53.504 10.24 4.249 3.655 8.925 7.192 13.817 10.429l0.519 0.323c21.76 16.384 21.76 16.384 44.544 0s25.6-17.152 14.336-45.056l-12.544-34.816c-0.942-2.001-1.816-4.384-2.486-6.85l-0.074-0.318c-1.536-9.216 25.6-41.216 35.84-40.96 19.2 0 38.4 0 57.6 2.304 0.637 0.11 1.37 0.173 2.118 0.173 6.183 0 11.362-4.298 12.713-10.069l0.017-0.088c17.152-42.752 18.432-44.288-20.48-67.072-18.117-7.18-30.697-24.551-30.697-44.86 0-4.254 0.552-8.379 1.588-12.307l-0.075 0.336c0.92-5.668 3.586-10.595 7.419-14.331l0.005-0.005c15.104-11.264 30.72-21.76 46.848-31.232 4.697-1.966 7.936-6.525 7.936-11.84 0-2.228-0.569-4.322-1.57-6.147l0.033 0.067c-4.352-12.288-5.632-28.928-14.336-35.84s-25.6-3.328-37.376-3.328c-42.24 0-42.24 0-66.304-34.048-0.803-1.851-1.27-4.007-1.27-6.272s0.467-4.421 1.31-6.377l-0.040 0.105c6.144-18.176 12.544-36.096 19.712-54.016 1.103-1.759 1.757-3.897 1.757-6.188 0-4.727-2.785-8.804-6.804-10.678l-0.072-0.030c-11.008-7.168-21.504-15.616-32.768-22.272-1.902-0.972-4.148-1.542-6.528-1.542s-4.626 0.57-6.611 1.58l0.083-0.038c-16.896 11.776-33.024 25.6-49.408 36.608-3.337 0.64-7.175 1.006-11.098 1.006-17.583 0-33.448-7.355-44.686-19.157l-0.024-0.025c-5.888-18.688-11.008-37.632-17.408-56.064 0-3.584-6.4-6.144-9.984-8.704s-2.56 0-3.84 0c-45.824-4.096-49.152-4.096-58.88 39.68-2.852 25.253-23.177 44.962-48.466 46.838l-0.174 0.010c-1.253 0.247-2.694 0.389-4.167 0.389-3.912 0-7.592-0.997-10.798-2.752l0.117 0.059c-16.128-11.264-31.744-23.040-47.104-35.328-2.006-2.085-4.82-3.379-7.936-3.379s-5.93 1.295-7.933 3.376l-0.003 0.004c-10.24 7.68-20.48 15.36-31.232 22.272-4.091 1.905-6.877 5.981-6.877 10.708 0 2.291 0.654 4.428 1.785 6.237l-0.029-0.049c7.168 17.664 13.824 35.84 19.712 54.016 0.187 1.163 0.294 2.504 0.294 3.869 0 4.291-1.056 8.335-2.921 11.887l0.067-0.14c-7.28 18.438-24.944 31.246-45.599 31.246-5.010 0-9.844-0.754-14.395-2.153l0.346 0.092c-8.704-1.536-17.92 0-25.6 0-1.192-0.365-2.562-0.574-3.981-0.574-7.076 0-12.932 5.219-13.93 12.018l-0.009 0.076c-3.328 11.776-7.936 23.552-10.496 35.328-0.054 0.462-0.084 0.996-0.084 1.538 0 4.163 1.807 7.904 4.679 10.482l0.013 0.012c15.616 11.264 31.488 21.76 47.872 32 5.802 3.73 9.618 10.112 9.728 17.392v0.016c0.855 3.301 1.347 7.091 1.347 10.996 0 20.064-12.967 37.099-30.977 43.182l-0.321 0.094c-6.538 3.568-12.149 7.299-17.406 11.458l0.254-0.194c-18.432 12.288-18.432 12.288-11.52 34.048 10.24 31.744 10.24 31.744 43.52 30.464h5.12c40.96-6.656 40.96-6.656 64.256 29.44 0.776 1.855 1.227 4.011 1.227 6.272s-0.451 4.417-1.268 6.382l0.041-0.11c-6.144 18.432-12.8 37.12-20.224 55.296-0.817 1.459-1.297 3.201-1.297 5.055 0 3.819 2.040 7.162 5.090 8.999l0.047 0.026c36.864 31.232 37.632 32.512 74.496 2.304 9.386-10.161 22.777-16.502 37.65-16.502 7.796 0 15.185 1.742 21.798 4.859l-0.312-0.132c11.52 5.12 18.688 9.472 22.016 22.016 4.864 19.456 11.776 38.144 17.92 57.344zM862.72 645.376c0.002 0.304 0.004 0.664 0.004 1.024 0 79.319-64.301 143.62-143.62 143.62-78.959 0-143.036-63.718-143.616-142.541v-0.055c-0.002-0.304-0.004-0.664-0.004-1.024 0-79.319 64.301-143.62 143.62-143.62 78.959 0 143.036 63.718 143.616 142.541v0.055zM142.592-10.752c-13.312 9.472-25.6 19.2-39.68 28.416-3.408 1.849-5.683 5.4-5.683 9.482 0 2.080 0.591 4.022 1.613 5.668l-0.026-0.046c7.168 18.176 14.080 36.608 19.968 55.296 0.189 1.169 0.297 2.516 0.297 3.888 0 3.883-0.864 7.563-2.411 10.86l0.066-0.157c0 3.072-4.864 5.12-6.144 7.936-5.79 14.328-19.585 24.253-35.699 24.253-4.355 0-8.541-0.725-12.443-2.061l0.27 0.080c-9.984-1.536-20.48 0-30.72-1.792s-17.664 3.84-21.76 15.104c-13.568 38.144-14.080 38.144 19.2 60.416l2.048 1.28c19.054 5.642 32.718 22.989 32.718 43.527 0 4.748-0.73 9.326-2.085 13.626l0.087-0.321c-1.048 5.597-3.79 10.429-7.666 14.067l-0.014 0.013c-15.36 11.264-31.488 21.76-47.872 32.256-4.194 1.864-7.066 5.993-7.066 10.793 0 1.649 0.339 3.219 0.951 4.644l-0.029-0.077c11.008 42.752 10.752 42.752 53.76 42.24s41.728 0 64.768 33.792c0.864 2.043 1.366 4.419 1.366 6.912s-0.502 4.869-1.41 7.032l0.045-0.12q-8.96 27.392-19.712 54.016c-0.95 1.548-1.513 3.423-1.513 5.429 0 4.11 2.363 7.669 5.804 9.392l0.061 0.027c13.056 8.96 25.6 18.176 39.424 27.904 18.688-13.824 36.864-27.136 54.528-40.96 2.832-2.865 6.763-4.64 11.108-4.64 2.68 0 5.203 0.675 7.407 1.865l-0.083-0.041c4.139 2.333 9.012 3.891 14.201 4.343l0.135 0.009c20.992 0 28.16 14.592 31.744 32.512 2.816 12.8 7.68 25.6 11.008 38.144 0.608 5.558 5.277 9.845 10.946 9.845 0.564 0 1.118-0.042 1.658-0.124l-0.061 0.008c13.568 0 27.392 0 40.96 0 7.424 0 10.496-3.328 12.288-9.984 5.12-18.432 10.24-36.864 16.64-55.040 2.891-5.135 7.079-9.241 12.127-11.953l0.161-0.079c3.328-2.304 8.704-1.536 12.032-3.584 5.224-3.573 11.68-5.705 18.633-5.705 10.883 0 20.545 5.223 26.617 13.3l0.062 0.085c8.448 7.936 18.944 13.312 27.392 21.248s16.64 7.168 25.6 0c34.304-23.296 34.56-22.784 20.224-61.44v0c-13.056-36.096-13.312-36.352 11.008-66.048 3.266-3.346 7.77-5.471 12.77-5.631l0.030-0.001c19.2 0 38.4 0 57.6 0 0.871 0.199 1.872 0.313 2.899 0.313 6.425 0 11.806-4.465 13.211-10.462l0.018-0.092c16.384-41.984 16.896-41.984-20.48-66.816-32.256-21.504-32.512-21.504-29.696-59.648 0.942-4.496 3.539-8.263 7.11-10.714l0.058-0.038q24.064-16.896 48.896-32.768c3.855-1.769 6.484-5.595 6.484-10.035 0-1.751-0.409-3.407-1.137-4.877l0.029 0.064c-4.096-11.52-8.192-23.296-11.776-35.072-1.084-5.030-5.495-8.745-10.773-8.745-0.901 0-1.776 0.108-2.614 0.312l0.075-0.016c-19.2 0-38.4 0-57.6 2.304-0.885 0.184-1.902 0.29-2.943 0.29-6.031 0-11.237-3.535-13.658-8.646l-0.039-0.092c-2.392-5.275-5.579-9.773-9.463-13.559l-0.009-0.009c-7.050-5.283-11.564-13.619-11.564-23.009 0-6.145 1.933-11.839 5.225-16.506l-0.061 0.090c5.612-11.766 10.769-25.724 14.69-40.191l0.414-1.793c0.184-0.899 0.289-1.932 0.289-2.99 0-4.086-1.569-7.806-4.139-10.589l0.010 0.011c-9.984-8.448-21.504-15.36-32-23.296-2.035-2.021-4.84-3.27-7.936-3.27s-5.901 1.249-7.937 3.271l0.001-0.001c-15.104 11.776-30.72 23.040-45.824 34.816-2.762 2.936-6.673 4.765-11.011 4.765-2.728 0-5.286-0.723-7.495-1.988l0.074 0.039c-3.737-2.338-8.155-3.97-12.89-4.59l-0.166-0.018c-20.736 0-28.416-13.568-32-32.256-3.682-14.587-8.237-27.2-13.868-39.208l0.556 1.32c-1.536-3.84-7.424-6.144-11.264-8.96v0c-15.36 0-34.304-4.608-45.056 2.816s-13.056 25.6-16.384 40.704c-1.624 20.854-17.389 37.582-37.64 40.673l-0.248 0.031c-3.52 1.463-7.609 2.313-11.896 2.313-7.655 0-14.676-2.709-20.159-7.221l0.055 0.044c-14.592-13.056-30.976-24.064-47.616-36.608zM447.488 249.856c0.002 0.304 0.004 0.665 0.004 1.025 0 79.138-64.010 143.326-143.080 143.615h-0.028c-0.228 0.001-0.498 0.002-0.768 0.002-79.318 0-143.618-64.3-143.618-143.618 0-79.048 63.863-143.18 142.808-143.616h0.042c0.685-0.012 1.494-0.019 2.304-0.019 78.61 0 142.336 63.726 142.336 142.336 0 0.097 0 0.193 0 0.29v-0.015z" />
<glyph unicode="&#xe919;" glyph-name="hamburger-menu" d="M0 205.056h1024v-132.096h-1024v132.096zM0 514.048h1024v-132.096h-1024v132.096zM0 823.040h1024v-132.096h-1024v132.096z" />
<glyph unicode="&#xe91a;" glyph-name="home-filled" d="M810.24 818.688c0 5.938-4.814 10.752-10.752 10.752v0h-76.8c-5.938 0-10.752-4.814-10.752-10.752v0c0-25.6 0-32 0-61.696 0 0 0-1.536 0-2.304l99.84-95.488c-1.536 55.040-1.536 141.056-1.536 159.488zM496.64 869.888l-326.144-311.296c0-55.296 0-401.152 0-507.392 0-17.108 13.868-30.976 30.976-30.976v0h150.784c0.152-0.003 0.332-0.004 0.512-0.004 17.249 0 31.232 13.983 31.232 31.232 0 0.001 0 0.003 0 0.004v0 230.4c0 7.352 5.96 13.312 13.312 13.312v0h229.12c7.352 0 13.312-5.96 13.312-13.312v0-230.4c0-17.249 13.983-31.232 31.232-31.232v0h151.296c0.076-0.001 0.166-0.001 0.256-0.001 17.108 0 30.976 13.868 30.976 30.976 0 0 0 0.001 0 0.001v0c0 106.24 0 451.84 0 507.648l-325.632 311.040c-4.043 3.893-9.55 6.291-15.616 6.291s-11.573-2.398-15.623-6.297l0.007 0.007z" />
<glyph unicode="&#xe91b;" glyph-name="left-arrow-filled" d="M352.256 729.6c-9.634 9.624-22.938 15.576-37.632 15.576s-27.998-5.952-37.632-15.576v0l-263.936-261.12c-6.641-6.51-10.757-15.574-10.757-25.6s4.116-19.090 10.751-25.594l0.006-0.006 253.696-250.88c9.634-9.624 22.938-15.576 37.632-15.576s27.998 5.952 37.632 15.576v0c9.624 9.634 15.576 22.938 15.576 37.632s-5.952 27.998-15.576 37.632v0l-162.816 147.968h789.248c29.408 0 53.248 23.84 53.248 53.248v0 0c0 29.408-23.84 53.248-53.248 53.248v0h-789.248l171.776 158.208c9.624 9.634 15.576 22.938 15.576 37.632s-5.952 27.998-15.576 37.632v0z" />
<glyph unicode="&#xe91c;" glyph-name="lightbulb-filled" d="M778.24 505.344c19.039 35.196 30.229 77.046 30.229 121.51 0 9.138-0.473 18.165-1.395 27.059l0.093-1.113c-17.152 158.72-191.232 286.464-346.368 256-173.056-35.072-284.672-230.4-217.344-391.168 12.544-30.464 30.208-58.88 45.824-87.808 5.632-10.752 12.8-20.736 18.944-30.976 33.666-50.959 56.866-111.713 65.068-177.132l0.212-2.068c3.84 0 263.936 0 280.064 0 6.912 0 9.216 1.792 9.216 8.704s1.28 30.976 2.56 37.888c9.534 44.003 25.378 82.959 46.775 118.165l-0.951-1.685c22.272 39.68 45.824 80.896 67.072 122.624zM654.848 727.040c-11.52-6.144-30.72 9.728-40.704 19.456-17.283 16.964-38.746 29.729-62.7 36.607l-1.044 0.257c-11.749 2.964-25.237 4.664-39.122 4.664-56.276 0-106.027-27.936-136.142-70.697l-0.352-0.527c-13.416-23.93-21.318-52.515-21.318-82.947 0-41.53 14.716-79.622 39.217-109.348l-0.236 0.294c7.68-8.192 18.944-21.76 17.408-33.536s-4.864-14.080-11.008-16.64c-3.043-1.226-6.571-1.938-10.265-1.938-8.316 0-15.789 3.604-20.944 9.336l-0.023 0.026c-30.288 29.973-50.952 69.618-56.974 113.919l-0.114 1.025c-1.363 8.828-2.142 19.011-2.142 29.376 0 96.724 67.815 177.609 158.493 197.702l1.345 0.25c10.132 2.090 22.735 3.901 35.534 5.026l1.33 0.094c1.862 0.061 4.050 0.095 6.247 0.095 55.407 0 105.674-22.002 142.542-57.746l-0.053 0.051c4.994-5.094 8.663-11.505 10.437-18.664l0.059-0.28c2.816-11.776 1.28-19.968-9.472-25.856zM700.16 214.528c-0.001 0.33-0.002 0.719-0.002 1.109 0 17.7 1.584 35.031 4.618 51.857l-0.264-1.766c9.314 36.025 23.095 67.652 41.032 96.421l-0.84-1.445c22.784 41.472 46.848 82.688 67.84 124.928 21.529 40.898 34.164 89.371 34.164 140.794 0 17.906-1.532 35.453-4.472 52.519l0.26-1.825c-27.514 159.574-164.88 279.435-330.24 279.435-184.937 0-334.859-149.921-334.859-334.859 0-19.577 1.68-38.761 4.904-57.417l-0.285 1.993c10.839-52.322 29.835-98.711 55.824-140.28l-1.040 1.784c22.016-37.888 45.312-75.008 67.072-113.152 16.172-26.677 25.743-58.916 25.743-93.39 0-2.538-0.052-5.065-0.155-7.578l0.012 0.36c0-23.552 11.264-35.072 34.816-35.072h299.52c25.6-1.28 35.84 9.472 36.352 35.584zM662.784 228.352c0-6.912-2.304-8.96-9.216-8.704-16.384 0-276.224 0-280.064 0-8.414 67.487-31.614 128.241-66.259 180.781l0.979-1.581c-6.4 10.24-13.312 20.224-18.944 30.976-15.616 29.184-33.28 57.6-45.824 87.808-67.328 160.768 44.288 356.096 217.344 391.168 155.136 30.464 329.216-97.28 346.368-256 0.856-7.91 1.345-17.086 1.345-26.376 0-44.497-11.207-86.376-30.952-122.969l0.679 1.377c-20.992-41.472-44.544-81.664-67.072-122.624-20.307-33.378-36.060-72.159-45.105-113.451l-0.463-2.517c-1.536-6.912-2.816-30.976-2.816-37.888zM677.632 66.816c0 15.104-8.448 19.968-23.296 23.296-1.843 0.199-3.98 0.313-6.144 0.313s-4.301-0.114-6.406-0.336l0.262 0.022h-262.912c-16.896-1.28-28.672-6.656-27.648-23.552s13.824-19.2 31.488-19.2h188.672c25.6 0 51.2 0 76.8 0 15.616 1.024 28.16 4.352 29.184 19.456zM520.192-61.44c25.6 0 51.2 0 76.8 0 15.872 0 28.16 3.584 29.44 18.688s-8.448 19.968-23.296 23.296c-1.843 0.2-3.98 0.315-6.144 0.315s-4.301-0.114-6.406-0.337l0.262 0.023h-160.768c-16.896-1.28-28.928-6.656-27.648-23.552s13.824-19.2 31.488-19.2h86.272z" />
<glyph unicode="&#xe91d;" glyph-name="lock-filled" d="M332.8 537.6c0 5.632 0 133.888 0 135.424 0 112.896 66.304 184.576 179.2 184.576s176.384-70.656 176.384-183.552v-136.448h62.464v145.92c0 124.672-113.664 242.688-238.336 242.688s-238.080-118.016-238.080-242.688c0-1.28 0-92.416 0-145.92zM242.176-30.208h539.648c58.88 0 90.112 10.752 90.112 84.48v358.4c0 57.088-17.664 84.48-90.112 84.48h-539.648c-81.664 0-90.112-37.376-90.112-84.48v-358.4c0-60.16 19.2-84.48 90.112-84.48zM512 385.536c0.021 0 0.045 0 0.070 0 50.899 0 92.16-41.261 92.16-92.16 0-28.59-13.019-54.14-33.451-71.044l-0.155-0.124v-99.84c0-60.416-110.080-60.416-110.080 0v95.232c-24.659 16.849-40.633 44.832-40.633 76.546 0 50.835 41.045 92.084 91.802 92.414h0.031z" />
<glyph unicode="&#xe91e;" glyph-name="map-pin-filled" d="M227.584 768.512c-45.568-72.704-51.2-231.936-21.248-313.088 62.208-164.096 189.952-326.656 303.616-465.664 40.448 51.2 98.048 129.536 133.888 179.2 69.376 95.744 139.776 191.744 176.896 305.152 54.016 164.608-25.6 432.384-307.2 432.384-142.592-0.256-240.384-65.536-285.952-137.984zM608.256 579.584c0.002-0.232 0.003-0.506 0.003-0.78 0-53.47-42.914-96.917-96.178-97.779l-0.081-0.001c-54.015 0.278-97.813 43.628-98.815 97.442l-0.001 0.094c0 0.076 0 0.166 0 0.256 0 53.919 43.637 97.646 97.522 97.792h0.014c0.459 0.008 1 0.012 1.542 0.012 53.019 0 96-42.981 96-96 0-0.364-0.002-0.728-0.006-1.092v0.055z" />
<glyph unicode="&#xe91f;" glyph-name="mobile-filled" d="M759.808 858.88c0.072 1.079 0.113 2.338 0.113 3.607 0 31.953-25.903 57.856-57.856 57.856-0.58 0-1.157-0.009-1.733-0.025l0.084 0.002h-376.32c-0.876 0.048-1.902 0.075-2.933 0.075-31.529 0-57.088-25.559-57.088-57.088 0-1.287 0.043-2.565 0.127-3.831l-0.009 0.172c0-11.776 0-39.936 0-51.2h495.616c0 12.288 0 40.704 0 50.432zM566.784 844.288h-109.312c-7.424 0-13.312 2.048-13.568 10.24s5.632 10.752 13.056 10.752h110.336c6.912 0 12.288-2.304 12.288-10.24s-5.12-10.752-12.544-10.752zM264.192 161.792c0-33.28 0-88.832 0-125.696 0.238-33.327 27.31-60.251 60.671-60.251 1.171 0 2.335 0.033 3.49 0.099l-0.16-0.007h371.712c0.713-0.031 1.548-0.049 2.388-0.049 31.953 0 57.856 25.903 57.856 57.856 0 1.098-0.031 2.189-0.091 3.272l0.007-0.15c0 25.6 0 83.2 0 125.184zM559.104 42.496c0-12.583-10.201-22.784-22.784-22.784v0h-48.384c-12.583 0-22.784 10.201-22.784 22.784v0 47.104c0 12.583 10.201 22.784 22.784 22.784v0h48.384c12.583 0 22.784-10.201 22.784-22.784v0zM759.808 185.6c0 179.2 0 449.536 0 598.528h-495.616c0-230.4 0-382.464 0-598.528z" />
<glyph unicode="&#xe920;" glyph-name="open-source-filled" d="M1022.208 445.696v0l-36.864 15.872-240.896 102.4c-6.184 2.721-13.394 4.304-20.973 4.304-21.803 0-40.546-13.104-48.781-31.866l-0.134-0.342c-2.721-6.184-4.304-13.394-4.304-20.973 0-21.803 13.104-40.546 31.866-48.781l0.342-0.134 132.608-56.832c2.154-1.061 3.61-3.24 3.61-5.76s-1.456-4.699-3.573-5.743l-0.038-0.017-128-54.272c-19.288-8.29-32.55-27.127-32.55-49.061 0-7.426 1.52-14.497 4.266-20.919l-0.132 0.347c8.29-19.288 27.127-32.55 49.061-32.55 7.426 0 14.497 1.52 20.919 4.266l-0.347-0.132 280.064 117.504 2.304 2.048c9.789 9.343 15.875 22.492 15.875 37.062 0 18.328-9.631 34.407-24.108 43.453l-0.215 0.125zM1.792 366.592v0l36.864-15.872 240.896-102.4c6.184-2.721 13.394-4.304 20.973-4.304 21.803 0 40.546 13.104 48.781 31.866l0.134 0.342c2.734 6.197 4.325 13.424 4.325 21.022 0 21.319-12.528 39.711-30.624 48.217l-133.189 56.201c-2.154 1.061-3.61 3.24-3.61 5.76s1.456 4.699 3.573 5.743l0.038 0.017 128 54.272c19.288 8.29 32.55 27.127 32.55 49.061 0 7.426-1.52 14.497-4.266 20.919l0.132-0.347c-8.29 19.288-27.127 32.55-49.061 32.55-7.426 0-14.497-1.52-20.919-4.266l0.347 0.132-278.784-117.504-2.304-2.048c-9.871-9.353-16.014-22.556-16.014-37.194 0-17.419 8.699-32.807 21.99-42.056l0.168-0.111zM635.718 821.674l-0.243 0.079c27.959-9.117 43.234-39.173 34.117-67.132l-210.789-646.437c-9.117-27.959-39.173-43.234-67.132-34.117l0.243-0.079c-27.959 9.117-43.234 39.173-34.117 67.132l210.789 646.437c9.117 27.959 39.173 43.234 67.132 34.117z" />
<glyph unicode="&#xe921;" glyph-name="paper-airplane-filled-2" d="M387.328-34.304c0 76.8 0 156.16 0 234.24-0.038 0.756-0.059 1.642-0.059 2.532 0 13.791 5.169 26.376 13.674 35.921l-0.047-0.054c41.728 46.336 83.2 93.184 125.184 139.008q159.744 174.592 320.256 348.416c1.484 1.439 2.442 3.413 2.559 5.611l0.001 0.021-34.304-27.392-259.84-214.784-221.952-182.528c-17.152-14.080-34.816-27.392-52.736-40.704-2.241-1.521-5.006-2.428-7.983-2.428-1.164 0-2.295 0.139-3.379 0.4l0.098-0.020q-117.504 41.472-234.496 83.712c-10.043 3.392-18.62 8.834-25.596 15.868l-0.004 0.004c-4.737 3.972-7.727 9.892-7.727 16.511 0 8.446 4.869 15.755 11.954 19.272l0.125 0.056c7.373 5.53 15.74 10.955 24.469 15.807l1.131 0.577 922.624 518.656c7.168 4.096 14.592 7.936 22.016 11.52 14.592 7.168 24.064 6.656 32-2.56 4.692-5.756 7.535-13.182 7.535-21.271 0-2.716-0.32-5.357-0.925-7.887l0.046 0.23c-1.792-8.448-3.072-16.896-4.352-25.6-5.12-33.28-11.008-66.304-15.872-99.584s-9.472-65.28-14.592-97.792c-5.632-37.376-11.52-75.008-17.408-112.384s-11.008-75.008-16.64-112.64-11.776-74.752-17.408-112.384-11.008-75.008-16.64-112.384-11.52-76.8-17.408-114.176c-1.472-13.852-3.455-25.975-6.050-37.87l0.418 2.286c-4.895-18.923-21.815-32.674-41.948-32.674-7.21 0-14.009 1.764-19.987 4.884l0.239-0.114-269.312 95.488c-1.587 0.975-3.509 1.553-5.567 1.553-4.564 0-8.464-2.844-10.024-6.856l-0.025-0.073q-39.424-64.512-79.872-129.792c-14.592-23.552-29.696-46.848-44.8-70.144-3.711-5.628-10.004-9.29-17.153-9.29-11.247 0-20.376 9.066-20.479 20.288v0.010z" />
<glyph unicode="&#xe922;" glyph-name="paper-airplane-filled" d="M466.176 132.608l7.68-2.048 76.8 107.776-51.2 20.992zM494.336 308.224c68.608 78.592 138.496 155.904 207.872 233.984l166.144 187.392c0.26 0.463 0.413 1.017 0.413 1.606 0 1.838-1.49 3.328-3.328 3.328-0.523 0-1.017-0.12-1.457-0.335l0.020 0.009-520.96-396.544 83.456-243.968c14.848 60.416 27.136 113.664 41.728 166.4 5.985 18.496 14.892 34.511 26.312 48.378l-0.2-0.25zM873.728 777.216c19.2 14.336 15.616 19.968 5.12 15.872l-832.256-321.28c14.592-6.4 22.784-10.24 31.232-13.568 73.728-29.696 147.712-58.624 220.672-89.344 5.507-2.77 12.002-4.393 18.876-4.393 11.451 0 21.85 4.502 29.525 11.832l-0.016-0.016c175.36 133.888 350.464 268.288 526.848 400.896zM972.8 801.024l-460.8-516.352 365.568-145.92 99.84 659.712c-0.25 1.612-1.628 2.832-3.291 2.832-0.476 0-0.929-0.1-1.339-0.28l0.021 0.008z" />
<glyph unicode="&#xe923;" glyph-name="pencil-filled" d="M844.8 890.624c-6.065 6.049-14.436 9.789-23.68 9.789s-17.615-3.74-23.681-9.79l-80.639-80.383 161.28-161.28 79.872 80.64c6.049 6.065 9.789 14.436 9.789 23.68s-3.74 17.615-9.79 23.681l0.001-0.001zM179.2 281.088l165.376-165.888 503.040 504.576-161.792 161.024c-165.12-165.632-340.992-334.592-506.624-499.712zM150.016 247.296c-30.208-80.896-62.72-163.328-93.44-244.736-0.213-0.556-0.337-1.2-0.337-1.873 0-2.969 2.407-5.376 5.376-5.376 0.673 0 1.316 0.123 1.91 0.349l-0.037-0.012c81.408 30.976 163.584 63.744 243.712 93.952l-82.176 82.688z" />
<glyph unicode="&#xe924;" glyph-name="phone-filled" d="M340.224 889.856c-6.583 10.366-18.003 17.146-31.006 17.146-8.633 0-16.568-2.988-22.827-7.987l0.073 0.057c-11.889-8.852-25.514-17.822-39.643-26.019l-2.085-1.117c-51.2-25.6-71.168-71.424-83.712-128-2.921-18.377-4.59-39.566-4.59-61.145 0-44.839 7.205-87.995 20.52-128.374l-0.827 2.895c56.142-193.127 167.024-355.565 314.596-474.233l1.82-1.415c42.721-37.179 94.183-65.513 150.823-81.506l2.777-0.67c56.576-14.080 112.128-19.2 161.28 22.784 11.256 8.297 24.213 16.761 37.634 24.51l2.046 1.090c13.173 6.2 22.129 19.364 22.129 34.619 0 9.719-3.635 18.588-9.619 25.324l0.034-0.039q-56.32 84.224-112.64 169.472c-15.872 23.808-28.672 25.6-52.992 11.008s-54.528-35.84-81.664-53.76c-45.056-29.952-51.2-29.44-89.856 8.192q-11.52 11.008-22.016 22.784c-56.938 62.952-105.746 134.838-143.787 212.933l-2.389 5.435c-9.207 19.849-18.598 44.461-26.448 69.752l-1.2 4.488c-1.336 3.226-2.112 6.973-2.112 10.901 0 11.881 7.099 22.103 17.287 26.657l0.185 0.074c35.584 21.76 69.888 45.312 104.448 68.608 20.48 13.824 25.6 27.904 13.056 45.824q-58.624 90.368-119.296 179.712z" />
<glyph unicode="&#xe925;" glyph-name="phone-in-circle-filled" d="M512 918.528c-259.865 0-470.528-210.663-470.528-470.528s210.663-470.528 470.528-470.528c259.865 0 470.528 210.663 470.528 470.528v0c0 259.865-210.663 470.528-470.528 470.528v0zM739.328 222.208c-7.194-8.488-14.556-16.174-22.355-23.394l-0.173-0.158c-9.216-7.68-20.48-12.544-29.696-20.224-15.692-11.761-35.49-18.833-56.939-18.833-1.854 0-3.695 0.053-5.522 0.157l0.253-0.012h-13.824l-40.192 6.656c-18.004 7.417-32.733 14.625-46.961 22.62l2.161-1.116c-77.043 48.447-139.047 114.221-181.682 192.108l-1.358 2.708c-28.529 48.842-49.269 105.921-58.782 166.721l-0.354 2.751c-2.304 16.64-2.304 33.024-2.304 49.408l9.216 45.312c12.906 32.424 36.707 58.216 66.789 73.365l0.795 0.363c11.778 8.555 26.051 14.401 41.54 16.339l0.444 0.045 7.68-1.536c19.403-8.643 34.746-23.49 43.802-41.977l0.23-0.519c16.64-25.6 34.048-51.2 51.2-76.8 6.591-8.041 10.585-18.43 10.585-29.752 0-17.792-9.864-33.28-24.422-41.293l-0.244-0.123c-17.408-11.776-35.072-22.784-54.272-35.328 27.123-63.652 63.905-118.076 109.137-164.179l-0.081 0.083 53.504 35.84c8.113 6.81 18.669 10.947 30.191 10.947 18.038 0 33.708-10.139 41.622-25.029l0.124-0.255c17.664-25.6 34.816-52.992 52.48-79.104 11.674-13.67 19.203-31.194 20.466-50.429l0.014-0.259z" />
<glyph unicode="&#xe926;" glyph-name="present-filled" d="M176.384-17.664h211.712v456.96h-211.712zM636.416-16.896h211.712v457.472h-211.712zM134.656 482.56h253.952v192h-253.952zM889.344 674.304h-253.184v-192.512h253.184zM429.824-16.64h165.632v457.472h-165.632zM738.56 733.44c39.453 6.393 69.234 40.146 69.376 80.881v0.015c0.203 2.293 0.319 4.96 0.319 7.654 0 37.934-22.983 70.501-55.784 84.534l-0.599 0.228c-10.1 4.609-21.907 7.295-34.341 7.295-27.823 0-52.505-13.45-67.897-34.203l-0.161-0.227c-31.744-47.616-57.6-98.816-86.272-146.688l8.448-12.032c56.064 3.84 111.872 5.12 166.912 12.544zM284.16 733.696c55.808-7.424 112.384-8.704 168.704-12.8l7.936 11.264c-28.672 51.2-55.040 102.4-87.040 149.248-15.295 20.189-39.288 33.097-66.295 33.097-13.737 0-26.694-3.339-38.103-9.251l0.462 0.218c-32.149-14.395-54.143-46.108-54.143-82.957 0-3.785 0.232-7.515 0.683-11.178l-0.044 0.439c1.092-39.256 29.812-71.491 67.354-78.010l0.486-0.070zM429.824 481.28h164.864v193.536h-164.864z" />
<glyph unicode="&#xe927;" glyph-name="question-filled" d="M288 634.112c-32.423 0.311-58.586 26.667-58.586 59.133 0 3.802 0.359 7.521 1.045 11.124l-0.058-0.369c29.44 134.912 132.864 210.176 283.136 210.176 168.96 0 281.6-81.664 281.6-235.264 0-202.496-184.064-228.864-217.344-375.040-5.828-26.992-29.326-46.984-57.559-47.36h-6.697c-0.067 0-0.145 0-0.224 0-32.377 0-58.624 26.247-58.624 58.624 0 4.261 0.455 8.415 1.318 12.418l-0.070-0.386c35.584 158.72 188.416 177.408 188.416 327.936 0 81.664-57.856 121.088-145.152 121.088-75.52 0-126.208-32.512-143.872-97.792-6.85-26.251-30.348-45.312-58.299-45.312-0.024 0-0.049 0-0.073 0h0.004zM569.6 45.312c0.163-1.683 0.256-3.638 0.256-5.615 0-34.074-27.622-61.696-61.696-61.696s-61.696 27.622-61.696 61.696c0 1.977 0.093 3.932 0.275 5.861l-0.019-0.247c0 33.932 27.508 61.44 61.44 61.44s61.44-27.508 61.44-61.44v0z" />
<glyph unicode="&#xe928;" glyph-name="question-in-circle-filled" d="M512 921.344c-261.421 0-473.344-211.923-473.344-473.344s211.923-473.344 473.344-473.344c261.421 0 473.344 211.923 473.344 473.344v0c0 261.421-211.923 473.344-473.344 473.344v0zM509.696 176.384c-0.018 0-0.039 0-0.059 0-19.511 0-35.328 15.817-35.328 35.328 0 0.72 0.022 1.436 0.064 2.146l-0.005-0.098c-0.082 0.9-0.128 1.947-0.128 3.005 0 19.511 15.817 35.328 35.328 35.328s35.328-15.817 35.328-35.328c0-1.058-0.046-2.104-0.138-3.139l0.010 0.134c0.038-0.612 0.059-1.328 0.059-2.049 0-19.442-15.705-35.216-35.121-35.327h-0.011zM514.56 334.848v0c-0.16-0.003-0.35-0.004-0.54-0.004-19.37 0-35.072 15.702-35.072 35.072 0 2.632 0.29 5.196 0.839 7.662l-0.044-0.233c21.248 89.088 107.52 100.352 107.52 185.856 0 46.848-33.024 69.376-83.2 69.376-2.542 0.298-5.487 0.469-8.472 0.469-35.391 0-65.19-23.938-74.090-56.506l-0.125-0.539c-4.458-14.921-18.059-25.612-34.158-25.612-0.321 0-0.642 0.004-0.961 0.013l0.047-0.001c-20.12 0.312-36.31 16.695-36.31 36.86 0 2.998 0.358 5.913 1.034 8.704l-0.051-0.252c18.176 74.24 76.8 115.712 161.024 115.712 96.768 0 161.28-46.848 161.28-134.656 0-116.224-105.984-131.072-124.672-215.552-3.911-15.267-17.547-26.372-33.777-26.372-0.185 0-0.371 0.001-0.555 0.004h0.028z" />
<glyph unicode="&#xe929;" glyph-name="refresh-filled" d="M909.568 344.32c-5.079 1.989-10.955 3.199-17.098 3.327l-0.054 0.001c-0.221 0.003-0.483 0.005-0.744 0.005-25.204 0-46.154-18.211-50.41-42.192l-0.045-0.309c-31.651-153.485-165.68-267.241-326.279-267.241-6.346 0-12.651 0.178-18.91 0.528l0.869-0.039c-179.754 5.277-323.463 152.256-323.463 332.8 0 183.875 149.060 332.935 332.935 332.935 3.331 0 6.65-0.049 9.957-0.146l-0.485 0.011h1.536v-112.64c0.047-11.982 9.771-21.678 21.76-21.678 4.058 0 7.857 1.111 11.108 3.045l-0.1-0.055 264.448 153.6c6.503 3.843 10.796 10.818 10.796 18.796 0 7.336-3.63 13.824-9.193 17.766l-0.068 0.046-267.264 187.904c-3.491 2.489-7.844 3.98-12.544 3.98-11.977 0-21.694-9.676-21.76-21.637v-110.854c-0.043-2.492-0.509-4.861-1.328-7.059l0.048 0.147c-239.329-3.031-432.225-197.544-432.64-437.208v-0.040c0-1.28 0-2.56 0-4.096 2.084-239.615 196.812-433.055 436.72-433.055 146.867 0 276.803 72.495 355.974 183.653l0.905 1.338c2.816 4.096 5.888 8.192 8.704 12.544l3.584 6.144c5.888 9.472 11.264 19.2 16.384 29.184l4.096 8.192q6.144 12.8 11.52 25.6l2.304 5.632c4.096 10.496 7.68 20.992 11.008 31.744l2.304 8.192q3.84 13.056 6.656 25.6c0 1.792 0 3.584 1.28 5.376s0 0 0 1.28c0.729 3.24 1.147 6.96 1.147 10.778 0 21.982-13.853 40.729-33.306 47.986l-0.354 0.116z" />
<glyph unicode="&#xe92a;" glyph-name="request-filled" d="M327.68 569.6c-9.624-9.634-15.576-22.938-15.576-37.632s5.952-27.998 15.576-37.632v0l162.048-164.864c6.51-6.641 15.574-10.757 25.6-10.757s19.090 4.116 25.594 10.751l0.006 0.006 162.048 164.864c9.624 9.634 15.576 22.938 15.576 37.632s-5.952 27.998-15.576 37.632v0c-9.634 9.624-22.938 15.576-37.632 15.576s-27.998-5.952-37.632-15.576v0l-59.392-72.704v340.48c0 29.408-23.84 53.248-53.248 53.248v0 0c-0.305 0.006-0.664 0.010-1.024 0.010-29.408 0-53.248-23.84-53.248-53.248 0-0.003 0-0.007 0-0.010v0.001-340.48l-59.136 72.704c-9.634 9.624-22.938 15.576-37.632 15.576s-27.998-5.952-37.632-15.576v0zM517.376 112.64c-2.478-0.050-5.398-0.079-8.325-0.079-187.525 0-347.59 117.568-410.508 283.016l-1.007 3.015c-7.744 20.791-27.425 35.333-50.503 35.333-0.245 0-0.49-0.002-0.734-0.005h0.037c-29.366-0.604-52.94-24.552-52.94-54.005 0-6.906 1.296-13.509 3.658-19.579l-0.126 0.368c79.768-209.348 278.847-355.379 512.033-355.379 240.723 0 445.098 155.623 518.007 371.75l1.128 3.853c1.772 5.117 2.796 11.015 2.796 17.152 0 29.825-24.172 54.004-53.994 54.016h-0.001c-0.024 0-0.052 0-0.080 0-23.743 0-43.89-15.391-51.010-36.741l-0.11-0.38c-58.313-174.258-218.314-298.351-407.854-302.328l-0.466-0.008z" />
<glyph unicode="&#xe92b;" glyph-name="alert" d="M448.256 845.568l-426.24-738.048c-6.119-10.513-9.731-23.139-9.731-36.608 0-40.63 32.865-73.584 73.461-73.728h852.494c40.61 0.144 73.475 33.098 73.475 73.728 0 13.469-3.612 26.095-9.92 36.961l0.189-0.353-426.24 738.048c-13.009 22.090-36.673 36.68-63.744 36.68s-50.735-14.59-63.556-36.336l-0.188-0.344zM552.96 797.44l404.48-696.576c1.36-4.307 2.143-9.259 2.143-14.395 0-23.234-16.037-42.722-37.645-47.999l-0.338-0.070h-819.2c-21.31 5.798-36.722 24.975-36.722 47.752 0 5.158 0.79 10.132 2.257 14.806l-0.095-0.35 403.2 696.832c8.354 14.203 23.561 23.585 40.96 23.585s32.606-9.382 40.839-23.363l0.121-0.222zM512 247.296v0c-0.015 0-0.033 0-0.051 0-12.326 0-22.415 9.572-23.241 21.688l-0.004 0.072-17.152 304.896c-0.076 0.921-0.119 1.994-0.119 3.077 0 22.056 17.88 39.936 39.936 39.936 0.222 0 0.443-0.002 0.664-0.005h-0.033c0.030 0 0.064 0 0.099 0 22.056 0 39.936-17.88 39.936-39.936 0-0.991-0.036-1.973-0.107-2.946l0.008 0.13-16.64-305.408c-0.959-12.072-10.992-21.504-23.227-21.504-0.024 0-0.049 0-0.073 0h0.004zM537.344 179.712c0-13.997-11.347-25.344-25.344-25.344s-25.344 11.347-25.344 25.344c0 13.997 11.347 25.344 25.344 25.344s25.344-11.347 25.344-25.344z" />
<glyph unicode="&#xe92c;" glyph-name="safe-filled" d="M936.192 448v0c0 25.6 0 51.2 0 75.008 0 109.056 0 201.728 0 310.784 0 32.512-5.376 38.144-37.376 38.144h-774.4c-30.464 0-36.608-6.144-36.608-36.864v-19.712c0-6.144 0-12.288 0-18.432v0c0-123.392 0-721.664 0-731.904 0-36.608 4.352-40.96 40.704-40.96h776.448c23.552 0 30.72 7.68 31.232 32 0 2.048 0 2.816 0 3.072s0 0 0 2.816zM833.792 137.728c-0.141-8.002-6.59-14.451-14.579-14.592h-627.469c-4.524 0-8.192 3.668-8.192 8.192v39.424c-2.205 0.619-4.895 1.157-7.645 1.506l-0.291 0.030c-37.12 2.048-37.12 2.048-37.12 38.656s0 79.872 0 120.064c0 14.848 3.84 20.48 19.456 20.224s22.784 0 25.6 4.352v184.32c-3.328 4.864-9.216 6.656-18.432 5.376-20.736-2.816-28.16 4.608-27.136 25.6 1.792 44.544 0 89.344 0 134.144 0 13.056 4.096 18.176 17.664 17.92 10.181 0.114 19.765 2.559 28.278 6.826l-0.374-0.17v34.816c0 4.524 3.668 8.192 8.192 8.192v0h627.456c8.002-0.141 14.451-6.59 14.592-14.579v-0.013zM520.96 603.392c-84.451-2.127-152.099-71.092-152.099-155.858 0-86.103 69.801-155.904 155.904-155.904s155.904 69.801 155.904 155.904c0 6.933-0.453 13.76-1.33 20.453l0.084-0.788c-8.987 77.060-73.886 136.303-152.623 136.303-2.054 0-4.099-0.040-6.133-0.12l0.292 0.009zM660.48 440.064c-14.080 0-25.6 0-38.656 0s-14.848-6.144-20.736-14.848c-16.64-25.6-6.912-42.496 14.336-57.856 3.739-3.258 6.274-7.813 6.902-12.957l0.010-0.099c-4.608 0-11.776 0-13.312 0-7.199 14.478-21.89 24.251-38.863 24.251-10.923 0-20.901-4.048-28.515-10.726l0.049 0.042c-2.649-1.102-5.747-1.992-8.966-2.526l-0.25-0.034c0-13.824 0-28.16 0-42.496 0-3.072-3.584-6.144-5.632-9.216l-7.168 9.728c-0.103 0.266-0.162 0.574-0.162 0.896s0.059 0.63 0.168 0.914l-0.006-0.018c8.96 33.28-10.24 47.104-37.888 54.784-1.17 0.26-2.513 0.41-3.891 0.41-4.228 0-8.128-1.404-11.26-3.772l0.047 0.034c-9.728-8.96-18.176-19.2-27.136-28.928l-6.144 1.792c0 4.352-2.304 12.032 0 13.056 33.792 19.712 25.6 46.080 13.312 73.984l-1.536 3.072h-56.832c5.12 6.4 7.168 10.24 10.24 12.032 1.616 0.363 3.472 0.571 5.376 0.571s3.76-0.208 5.546-0.602l-0.17 0.031c37.888 0 42.24 4.352 51.2 41.472 0.002 0.102 0.003 0.222 0.003 0.343 0 5.274-2.155 10.045-5.633 13.48l-0.002 0.002c-9.498 9.303-17.942 19.617-25.175 30.788l-0.425 0.7c4.608 0 12.288 1.792 13.568 0 20.48-36.096 48.896-25.6 76.8-8.704 6.4 3.84 0 25.6 0 38.912 0 3.584 4.096 6.912 6.4 10.496l6.4-10.496s0 0 0-1.792c0-13.568-2.56-30.464 4.096-39.936s23.296-10.24 35.84-13.824c0.963-0.181 2.072-0.285 3.204-0.285 4.099 0 7.881 1.357 10.922 3.646l-0.046-0.033c7.936 6.4 13.824 15.104 21.76 21.504 3.072 2.56 8.96 1.536 13.568 2.048l2.56-6.912c-4.352-3.328-8.192-6.912-12.8-9.728-33.536-20.992-13.824-45.568-3.84-69.12 15.616-2.048 32.512-4.096 49.152-6.4 1.28 1.792 1.792-2.048 3.84-7.424zM234.496 217.6c0 39.168 0 45.568 0 84.736 0 10.752-3.584 15.872-15.36 15.616h-3.584c-13.312 0-19.968 0-32 0h-14.080c0-47.104 0-59.392 0-104.448 0-3.584 8.192-9.984 12.8-10.496h38.912c6.648 2.258 11.662 7.696 13.284 14.454l0.028 0.138zM215.552 577.28h7.168c5.915 2.159 10.344 7.095 11.752 13.188l0.024 0.124c0 39.936 0 47.104 0 86.784 0 4.864-8.96 9.728-14.080 14.080 0 0-3.072 0-4.864 0h-32c-3.532-0.91-6.565-2.697-8.958-5.118l-0.002-0.002c-10.24-9.728-4.608-20.224-5.12-39.424 0-28.16 0-40.192 0-71.424h14.080c12.288 0.512 19.456 0.512 32 1.792zM793.6 742.912h-568.832c-2.56-0.030-4.889-0.996-6.667-2.569l0.011 0.009c0-5.376 0-11.008 0-16.64 3.827-0.25 8.297-0.393 12.8-0.393s8.973 0.143 13.406 0.424l-0.606-0.031c18.944 2.56 25.6-5.376 24.064-24.064-1.28-39.936 0-79.872 0-120.064 0-34.56 3.584-35.328-31.744-34.304-13.056 0-17.664-4.864-17.408-18.176 0-49.408 0-98.816 0-148.224 0-27.392 0-28.416 26.88-27.904 16.64 0 22.528-5.376 22.016-22.272 0-37.888 0-76.8 0-113.92s0-40.704-39.68-42.752c-3.522-0.501-6.555-1.127-9.52-1.919l0.56 0.127c0-5.12 0-9.984 0-14.848 1.83-1.591 4.236-2.56 6.869-2.56 0.015 0 0.030 0 0.045 0h567.806c5.797 0 10.496 4.699 10.496 10.496v569.088c0 5.797-4.699 10.496-10.496 10.496v0zM525.568 265.472c-100.168 0.655-181.117 82.008-181.117 182.268 0 100.666 81.606 182.272 182.272 182.272s182.272-81.606 182.272-182.272c0-2.43-0.048-4.848-0.142-7.254l0.011 0.346c-2.84-97.459-82.524-175.383-180.408-175.383-1.015 0-2.029 0.008-3.040 0.025l0.153-0.002zM916.48 903.424h-809.216c-39.168 0-51.2-11.52-51.2-51.2q0-16.896 0-33.536v0c0-17.664 0-755.456 0-773.12 0-41.984 11.008-53.248 52.48-53.248h805.632c41.984 0 53.248 11.008 53.248 52.48q0 249.344 0 498.688 0 153.6 0 308.992c0 39.424-11.52 50.944-50.944 50.944zM936.192 56.064c0-24.32-7.68-31.488-31.232-32h-776.96c-36.352 0-40.704 4.352-40.704 40.96 0 10.24 0 608.512 0 731.904v0c0 6.144 0 12.288 0 18.432v19.712c0 30.72 6.144 36.864 36.608 36.864h774.912c32 0 37.376-5.632 37.376-38.144 0-109.056 0-201.728 0-310.784 0-25.6 0-51.2 0-75.008v0-386.048c0-1.792 0-2.56 0-2.816s0-1.024 0-3.072z" />
<glyph unicode="&#xe92d;" glyph-name="search-filled" d="M475.392 956.672c-14.975 1.94-32.296 3.048-49.875 3.048-226.216 0-409.6-183.384-409.6-409.6s183.384-409.6 409.6-409.6c80.428 0 155.441 23.181 218.724 63.225l-1.68-0.993 245.504-245.504c13.108-13.094 31.208-21.191 51.2-21.191s38.092 8.098 51.201 21.192l-0.001-0.001c13.094 13.108 21.191 31.208 21.191 51.2s-8.098 38.092-21.192 51.201l0.001-0.001-241.408 240.896c52.852 68.082 84.729 154.744 84.729 248.851 0 17.589-1.114 34.918-3.274 51.92l0.209-2.019c-23.929 186.268-169.332 332.369-353.209 357.142l-2.119 0.234zM422.912 863.232c173.478-0.002 314.109-140.634 314.109-314.112s-140.633-314.112-314.112-314.112c-173.479 0-314.112 140.633-314.112 314.112 0 0.45 0.001 0.9 0.003 1.35v-0.070c0.437 172.866 140.672 312.832 313.599 312.832 0.18 0 0.361 0 0.541 0h-0.028z" />
<glyph unicode="&#xe92e;" glyph-name="send-filled" d="M699.392 640c9.624 9.634 15.576 22.938 15.576 37.632s-5.952 27.998-15.576 37.632v0l-161.792 164.608c-6.51 6.641-15.574 10.757-25.6 10.757s-19.090-4.116-25.594-10.751l-0.006-0.006-161.792-164.864c-9.624-9.634-15.576-22.938-15.576-37.632s5.952-27.998 15.576-37.632v0c9.634-9.624 22.938-15.576 37.632-15.576s27.998 5.952 37.632 15.576v0l59.136 72.704v-341.248c1.128-28.438 24.397-51.080 52.98-51.2h0.012c0.012 0 0.026 0 0.039 0 28.688 0 52.077 22.687 53.205 51.098l0.003 0.102v341.504l59.136-72.704c9.634-9.624 22.938-15.576 37.632-15.576s27.998 5.952 37.632 15.576v0zM512 112.64c-190.404 0.064-352.47 121.324-413.249 290.825l-0.959 3.063c-7.457 21.328-27.406 36.353-50.864 36.353-0.118 0-0.236 0-0.354-0.001h0.018c-29.457-0.488-53.148-24.482-53.148-54.009 0-6.33 1.089-12.405 3.089-18.049l-0.117 0.378c77.072-214.519 278.734-365.174 515.584-365.174s438.511 150.654 514.386 361.363l1.198 3.811c1.996 5.41 3.15 11.659 3.15 18.177 0 29.832-24.184 54.016-54.016 54.016-0.118 0-0.235 0-0.352-0.001h0.018c-0.1 0.001-0.218 0.001-0.336 0.001-23.458 0-43.407-15.025-50.749-35.976l-0.115-0.377c-61.458-172.457-223.072-293.798-413.111-294.4h-0.073z" />
<glyph unicode="&#xe92f;" glyph-name="settings-filled" d="M978.432 460.544c-1.536 55.808-1.536 55.808-56.832 55.808-51.2 0-56.832 9.728-80.64 54.016-31.232 57.856-23.552 102.4 28.672 139.776 5.307 5.022 9.958 10.65 13.868 16.795l0.212 0.357c-4.308 6.647-8.689 12.412-13.456 17.831l0.144-0.167c-18.432 19.2-37.632 37.376-55.552 56.832s-30.208 16.896-48.128-1.792c-52.736-55.040-53.504-54.272-122.112-25.6-6.912 2.816-13.824 5.888-21.248 8.192-25.604 6.55-44.231 29.415-44.231 56.63 0 1.693 0.072 3.369 0.213 5.026l-0.015-0.216c0 71.68 0 71.68-72.96 70.912h-2.816c-60.672 0-60.672 0-60.672-60.416 0-45.824-11.264-55.040-49.408-76.8-59.904-32.256-107.008-25.6-147.712 29.184-4.283 2.813-9.533 4.486-15.174 4.486-4.347 0-8.461-0.994-12.129-2.767l0.167 0.073c-24.274-21.137-46.348-43.048-66.926-66.314l-0.658-0.758c-2.237-3.946-3.555-8.667-3.555-13.696s1.318-9.75 3.628-13.836l-0.073 0.14c61.44-43.264 60.16-94.464 25.6-155.136-9.785-25.352-33.958-43.010-62.254-43.010-0.164 0-0.327 0.001-0.491 0.002h0.025c-70.912 0-70.912 0-70.144-73.472 0-2.816 0-5.632 0-8.448 1.536-54.272 1.536-54.272 55.552-54.528s57.344-9.216 82.688-55.296c32.512-59.136 20.224-102.4-30.208-139.52-12.032-8.96-14.848-18.944-3.072-30.72 22.784-22.784 44.8-46.336 68.864-67.584 3.62-1.839 7.894-2.916 12.42-2.916 5.45 0 10.536 1.563 14.832 4.264l-0.116-0.068c41.472 57.6 91.392 64 149.504 27.648 2.246-1.16 4.88-2.207 7.623-2.995l0.313-0.077c23.555-7.488 40.322-29.166 40.322-54.759 0-1.36-0.047-2.709-0.14-4.045l0.010 0.18c0-73.984 0-73.984 76.8-72.448 59.392 0 59.392 0 59.392 59.136 0 48.896 10.496 55.040 53.248 78.336 59.136 32.256 102.4 22.784 142.080-30.208 2.882-6.071 8.963-10.194 16.007-10.194 6.114 0 11.502 3.106 14.673 7.826l0.040 0.063 66.304 66.304c10.496 10.496 13.056 20.992 0 30.72-56.576 39.68-64.512 88.832-28.416 146.432 0.844 1.453 1.623 3.144 2.24 4.91l0.064 0.21c5.938 25.98 28.85 45.072 56.221 45.072 2.743 0 5.442-0.192 8.083-0.563l-0.304 0.035c69.12 0 69.12 0 68.864 69.632 1.024 4.096 1.024 7.68 0.768 11.52zM510.464 255.744c-106.078 0.876-191.733 87.072-191.733 193.274 0 106.746 86.534 193.28 193.28 193.28s193.28-86.534 193.28-193.28c0-0.718-0.004-1.435-0.012-2.151l0.001 0.109c0-0.159 0.001-0.348 0.001-0.537 0-105.897-85.847-191.744-191.744-191.744-1.080 0-2.159 0.009-3.235 0.027l0.162-0.002z" />
<glyph unicode="&#xe930;" glyph-name="stack-of-coins-filled" d="M171.008 569.856c11.892-6.426 26.323-12.977 41.207-18.604l2.569-0.852c24.123-9.533 53.33-18.352 83.389-24.888l3.907-0.712c57.902-12.865 124.407-20.236 192.633-20.236 1.668 0 3.335 0.004 5 0.013l-0.257-0.001c1.409-0.008 3.076-0.012 4.743-0.012 68.226 0 134.73 7.371 198.76 21.359l-6.128-1.123c44.514 9.396 83.788 22.903 120.708 40.547l-3.204-1.379c12.178 5.396 22.176 10.613 31.819 16.364l-1.355-0.748 12.032 8.192c7.387 5.43 13.906 11.056 19.96 17.144l0.008 0.008c15.777 14.227 25.989 34.363 27.128 56.892l0.008 0.196c0 87.552-180.736 158.72-403.712 158.72-200.96 0-367.616-57.6-398.592-133.12-3.238-7.562-5.12-16.361-5.12-25.6v0c0.076-7.448 1.383-14.566 3.725-21.195l-0.141 0.459c14.449-31.784 39.259-56.759 70.034-71.058l0.878-0.366zM133.888 457.216c11.852-5.761 26.83-11.907 42.191-17.234l3.121-0.942c47.542-16.155 102.986-28.099 160.319-33.56l3.009-0.232c30.226-3.242 65.315-5.101 100.835-5.12h0.029c2.394-0.024 5.223-0.037 8.055-0.037 82.297 0 161.95 11.322 237.486 32.492l-6.181-1.48c31.007 8.815 57.684 19.364 83.016 32.184l-2.632-1.208c16.239 7.785 30.176 16.312 43.14 26.064l-0.644-0.464c15.585 11.581 27.944 26.649 36.056 44.091l0.296 0.709c-19.734-11.052-42.97-21.591-67.119-30.21l-3.281-1.022c-19.885-7.424-45.051-14.905-70.794-20.885l-4.47-0.875c-58.368-13.51-125.39-21.254-194.221-21.254-1.109 0-2.218 0.002-3.327 0.006h0.171c-0.937-0.004-2.046-0.006-3.155-0.006-68.831 0-135.853 7.744-200.243 22.407l6.022-1.154c-30.216 6.857-55.383 14.338-79.877 23.222l4.613-1.462c-21.553 8.031-39.191 15.961-56.246 24.853l2.742-1.301c-14.235 7.040-25.968 13.765-37.274 21.095l1.434-0.871c-29.207 17.43-52.845 41.396-69.39 69.98l-0.498 0.932c-15.777-14.227-25.989-34.363-27.128-56.892l-0.008-0.196c3.685-33.215 23.185-61.194 50.693-76.54l0.507-0.26c10.534-7.323 22.613-14.396 35.233-20.532l1.631-0.716zM843.264 470.272c-10.114-9.057-21.236-17.493-33.015-24.986l-1.033-0.614c-12.812-8.624-27.658-17.148-43.101-24.633l-2.211-0.967c-23.052-11.162-50.579-21.707-79.063-30.007l-3.881-0.969c-69.061-19.846-148.384-31.26-230.373-31.26-2.44 0-4.877 0.010-7.312 0.030l0.374-0.002c-0.339 0-0.741-0.001-1.143-0.001-35.668 0-70.881 1.953-105.536 5.758l4.278-0.381c-28.16 3.072-55.296 7.424-80.896 12.8-46.493 9.43-87.358 22.42-126.2 39.204l4.088-1.572c20.162-26.992 46.781-48.102 77.616-61.23l1.232-0.466c12.015-5.971 27.069-12.284 42.523-17.749l3.045-0.939c76.887-25.684 165.412-40.503 257.399-40.503 3.379 0 6.753 0.020 10.122 0.060l-0.513-0.005c128 0 243.712 23.808 317.696 60.672 16.349 7.826 30.369 16.353 43.436 26.088l-0.684-0.488h1.536c10.496 8.177 19.531 17.538 27.117 28.017l0.275 0.399c8.75 11.58 14.165 26.11 14.59 41.886l0.002 0.098c-3.685 33.215-23.185 61.194-50.693 76.54l-0.507 0.26c-8.882-21.863-22.222-40.299-38.995-54.892l-0.173-0.148zM936.96 308.224c-35.584-95.744-217.856-168.704-437.504-168.704-4.558-0.096-9.93-0.151-15.315-0.151-107.33 0-209.592 21.699-302.638 60.949l5.122-1.918c41.216-70.4 201.728-123.136 393.472-123.136 222.976 0 403.712 70.912 403.712 158.72-3.008 31.645-20.853 58.565-46.414 73.997l-0.434 0.243zM901.888 329.728l-8.704 4.352c-80.384-51.2-212.992-86.272-363.264-86.272-4.503-0.093-9.811-0.146-15.131-0.146-106.398 0-207.841 21.219-300.326 59.656l5.186-1.91c-15.129 6.698-27.312 12.944-39.127 19.755l2.007-1.067c-28.548 15.578-52.609 35.718-72.101 59.719l-0.347 0.441c-8.765-11.573-14.183-26.108-14.59-41.89l-0.002-0.094c3.313-31.387 21.194-57.995 46.663-73.227l0.441-0.245c10.117-7.456 21.596-14.596 33.625-20.823l1.447-0.681c73.728-38.144 190.464-62.72 321.792-62.72 212.224-1.024 386.048 63.488 402.432 145.152z" />
<glyph unicode="&#xe931;" glyph-name="support-filled" d="M1015.808 448c-8.429 35.096-26.955 65.017-52.299 87.395l-0.181 0.157c-10.992 7.752-23.57 15.245-36.713 21.77l-1.687 0.758c-3.709 1.856-6.796 4.451-9.168 7.614l-0.048 0.066c-7.39 12.832-17.812 23.172-30.32 30.256l-0.4 0.208c-3.352 2.116-5.77 5.453-6.638 9.373l-0.018 0.099c-21.302 153.677-133.066 276.376-279.003 313.551l-2.597 0.561c-20.224 4.608-41.216 6.912-61.696 10.496h-45.056c-16.64-2.56-33.536-4.608-51.2-7.936-146.914-32.032-260.076-147.255-288.638-292.806l-0.386-2.362c-3.072-16.896-2.304-28.16-12.288-34.304-10.55-4.347-19.245-11.395-25.478-20.295l-0.122-0.185c-6.912-14.848-15.616-16.128-29.696-23.040-32.723-18.181-57.123-47.997-67.837-83.73l-0.259-1.006c-6.144-16.64-9.472-36.352-14.080-54.528v-46.080c0-3.072 1.536-6.4 2.048-9.472 4.827-35.928 18.314-68.016 38.282-95.021l-0.394 0.557c14.351-19.195 33.748-33.889 56.234-42.219l0.854-0.277c5.036-2.061 9.151-5.515 11.971-9.883l0.061-0.101c9.833-18.696 28.111-31.798 49.622-34.276l0.298-0.028c0.764-0.033 1.661-0.051 2.562-0.051 35.346 0 64 28.654 64 64 0 0.198-0.001 0.396-0.003 0.594v-0.030c0 98.304 0 196.608 0 294.912 0.042 0.899 0.066 1.952 0.066 3.011 0 25.226-13.563 47.283-33.795 59.278l-0.319 0.175c-2.517 2.081-4.108 5.204-4.108 8.699 0 0.182 0.004 0.363 0.013 0.543l-0.001-0.025c3.293 22.211 7.402 41.337 12.591 60.014l-0.815-3.438c42.136 133.591 164.927 228.763 309.947 228.763 37.701 0 73.899-6.432 107.558-18.259l-2.272 0.696c128-41.984 202.496-134.144 223.488-268.288 0-5.888 0-7.936-5.632-10.752-19.753-11.599-32.805-32.738-32.805-56.925 0-0.778 0.013-1.552 0.040-2.323l-0.003 0.112q0-147.456 0-294.912c-0.025-0.672-0.039-1.461-0.039-2.253 0-24.164 13.181-45.25 32.745-56.459l0.318-0.168c4.231-2.002 7.105-6.236 7.105-11.142 0-0.767-0.070-1.518-0.205-2.246l0.012 0.076c-6.656-60.928-39.168-105.984-107.52-114.688-29.952-3.84-60.416-2.048-90.88-3.072-0.495-0.068-1.066-0.106-1.647-0.106-5.16 0-9.606 3.053-11.632 7.451l-0.033 0.079c-9.751 19.039-28.85 32.059-51.075 33.020l-0.125 0.004c-35.328 0-70.656 0-105.984 0-24.975-0.905-46.041-16.71-54.642-38.753l-0.142-0.415c-3.231-6.723-5.119-14.618-5.119-22.953 0-14.556 5.757-27.767 15.119-37.48l-0.016 0.017c10.655-11.927 24.869-20.473 40.965-23.972l0.507-0.092h112.128c22.448 4.662 40.852 18.947 51.005 38.249l0.195 0.407c0 2.048 5.376 3.072 8.192 3.072h67.072c1.034-0.022 2.252-0.035 3.473-0.035 90.879 0 165.3 70.469 171.6 159.745l0.031 0.546c0.569 4.033 2.744 7.47 5.845 9.699l0.043 0.029c12.498 7.322 22.57 17.558 29.49 29.811l0.206 0.397c1.583 3.193 4.164 5.691 7.329 7.129l0.095 0.039c28.343 9.642 51.387 28.622 65.996 53.201l0.308 0.559c16.396 24.823 27.682 54.424 31.643 86.297l0.101 0.999c0.606 3.033 1.313 5.609 2.178 8.112l-0.13-0.432v46.080c-2.816 12.544-4.864 25.6-8.192 38.144z" />
<glyph unicode="&#xe932;" glyph-name="transactions-2-filled" d="M10.496 495.872h1003.008c0.46-0.081 0.99-0.128 1.531-0.128 5.090 0 9.216 4.126 9.216 9.216s-4.126 9.216-9.216 9.216c-0.541 0-1.070-0.047-1.586-0.136l0.055 0.008h-1003.008c-0.46 0.081-0.99 0.128-1.531 0.128-5.090 0-9.216-4.126-9.216-9.216s4.126-9.216 9.216-9.216c0.541 0 1.070 0.047 1.586 0.136l-0.055-0.008zM48.64 683.776h591.872c26.863 0 48.64-21.777 48.64-48.64s-21.777-48.64-48.64-48.64h-591.872c-26.863 0-48.64 21.777-48.64 48.64s21.777 48.64 48.64 48.64zM10.496 212.224h1003.008c0.46-0.081 0.99-0.128 1.531-0.128 5.090 0 9.216 4.126 9.216 9.216s-4.126 9.216-9.216 9.216c-0.541 0-1.070-0.047-1.586-0.136l0.055 0.008h-1003.008c-0.46 0.081-0.99 0.128-1.531 0.128-5.090 0-9.216-4.126-9.216-9.216s4.126-9.216 9.216-9.216c0.541 0 1.070 0.047 1.586 0.136l-0.055-0.008zM48.64 400.128h591.872c26.863 0 48.64-21.777 48.64-48.64s-21.777-48.64-48.64-48.64h-591.872c-26.863 0-48.64 21.777-48.64 48.64s21.777 48.64 48.64 48.64z" />
<glyph unicode="&#xe933;" glyph-name="transactions-filled" d="M816.896 841.984c-1.313 34.951-26.513 63.652-59.684 70.32l-0.476 0.080c-11.637 2.044-25.036 3.213-38.708 3.213-2.863 0-5.713-0.051-8.551-0.153l0.411 0.012h-414.72c-0.977 0.029-2.127 0.045-3.28 0.045-7.893 0-15.609-0.762-23.077-2.216l0.757 0.123c-37.316-7.325-65.079-39.771-65.079-78.702 0-2.485 0.113-4.943 0.334-7.37l-0.023 0.312q0-196.864 0-393.984c0-132.096 1.536-374.272 2.56-394.752 0-49.664 28.16-63.488 85.504-63.488h441.856c1.681-0.122 3.642-0.192 5.62-0.192 45.526 0 82.432 36.906 82.432 82.432 0 2.23-0.089 4.439-0.262 6.624l0.018-0.288c-1.28 208.896-3.328 387.584-3.328 595.968 0 60.672 0 120.832-2.304 182.016zM424.448 739.584h283.136c0.655 0.070 1.416 0.11 2.185 0.11 12.018 0 21.76-9.742 21.76-21.76 0-4.208-1.194-8.137-3.263-11.467l0.054 0.093c-4.281-6.743-11.708-11.152-20.166-11.152-0.922 0-1.833 0.052-2.728 0.155l0.109-0.010h-270.336c-4.096 0-8.192 0-12.288 0-11.575 0.384-20.812 9.86-20.812 21.493 0 0.635 0.027 1.263 0.081 1.884l-0.006-0.081c-0.001 0.084-0.002 0.182-0.002 0.281 0 11.735 9.513 21.248 21.248 21.248 0.361 0 0.72-0.009 1.076-0.027l-0.050 0.002zM424.448 563.712h283.136c0.655 0.070 1.416 0.11 2.185 0.11 12.018 0 21.76-9.742 21.76-21.76 0-4.208-1.194-8.137-3.263-11.467l0.054 0.093c-4.281-6.743-11.708-11.152-20.166-11.152-0.922 0-1.833 0.052-2.728 0.155l0.109-0.010h-270.336c-4.096 0-8.192 0-12.288 0-11.575 0.384-20.812 9.86-20.812 21.493 0 0.635 0.027 1.263 0.081 1.884l-0.006-0.081c-0.001 0.084-0.002 0.182-0.002 0.281 0 11.735 9.513 21.248 21.248 21.248 0.361 0 0.72-0.009 1.076-0.027l-0.050 0.002zM322.048 742.912c0.845 0.099 1.824 0.155 2.816 0.155 14.138 0 25.6-11.462 25.6-25.6 0-0.055 0-0.109-0.001-0.164v0.008c0.001-0.075 0.001-0.164 0.001-0.252 0-14.138-11.462-25.6-25.6-25.6-1.265 0-2.508 0.092-3.724 0.269l0.138-0.017c-14.138 0-25.6 11.462-25.6 25.6s11.462 25.6 25.6 25.6v0zM322.048 565.504c0.845 0.099 1.824 0.155 2.816 0.155 14.138 0 25.6-11.462 25.6-25.6 0-0.055 0-0.109-0.001-0.164v0.008c0.001-0.075 0.001-0.164 0.001-0.252 0-14.138-11.462-25.6-25.6-25.6-1.265 0-2.508 0.092-3.724 0.269l0.138-0.017c-14.138 0-25.6 11.462-25.6 25.6s11.462 25.6 25.6 25.6v0zM322.048 163.84c-1-0.138-2.155-0.217-3.329-0.217-14.138 0-25.6 11.462-25.6 25.6 0 0.076 0 0.153 0.001 0.229v-0.012c0.958 14.347 12.83 25.621 27.335 25.621 0.38 0 0.759-0.008 1.135-0.023l-0.054 0.002c1.232 0.21 2.651 0.33 4.098 0.33 14.138 0 25.6-11.462 25.6-25.6 0-0.116-0.001-0.232-0.002-0.348v0.018c-0.222-13.968-11.597-25.205-25.597-25.205-1.539 0-3.046 0.136-4.51 0.396l0.155-0.023zM322.048 335.616c-14.704 0-26.624 11.92-26.624 26.624s11.92 26.624 26.624 26.624v0c14.704 0 26.624-11.92 26.624-26.624s-11.92-26.624-26.624-26.624v0zM403.2 372.736c3.143 9.562 11.99 16.343 22.422 16.343 1.121 0 2.223-0.078 3.303-0.23l-0.124 0.014h276.48c0.758 0.085 1.637 0.133 2.527 0.133 8.81 0 16.514-4.734 20.708-11.798l0.061-0.111c2.035-3.152 3.244-7.003 3.244-11.136s-1.209-7.984-3.293-11.218l0.049 0.082c-4.706-6.453-12.241-10.599-20.744-10.599-0.808 0-1.608 0.037-2.397 0.111l0.101-0.008h-277.504c-18.432 1.28-29.696 13.312-25.344 28.928zM706.816 167.936h-279.296c-15.872 0-25.6 8.192-25.6 21.504s9.728 22.272 25.6 22.528h279.040c0.777 0.093 1.676 0.146 2.588 0.146 12.326 0 22.391-9.679 23.010-21.851l0.002-0.055c-0.977-11.771-10.771-20.954-22.71-20.954-1.11 0-2.201 0.079-3.268 0.233l0.122-0.014zM731.136 960c-261.888 0-171.264 0-433.152 0-93.184 0-134.912-37.632-134.912-109.056 0 0 0-1.536-1.536-2.56v-805.376c-0.256-81.408 31.488-107.008 92.416-107.008h519.68c47.36 0 88.832 31.744 88.832 113.664 0 269.568 0 509.184 0 778.496 0.256 82.944-20.48 131.84-131.328 131.84zM734.72-24.576h-441.344c-57.344 0-85.504 13.824-85.504 63.488 0 20.48-2.56 262.656-2.56 394.752s-0.512 262.656-0.512 393.984c-0.204 2.144-0.32 4.636-0.32 7.156 0 38.751 27.507 71.077 64.061 78.517l0.515 0.088c6.711 1.331 14.426 2.093 22.32 2.093 1.153 0 2.303-0.016 3.449-0.049l-0.168 0.004h414.976c2.427 0.090 5.278 0.141 8.14 0.141 13.672 0 27.071-1.169 40.102-3.412l-1.395 0.199c33.647-6.749 58.847-35.45 60.156-70.264l0.004-0.136c2.56-61.184 2.56-121.344 2.56-182.016 0-208.384 2.304-387.072 3.584-595.456 0.183-2.057 0.287-4.451 0.287-6.869 0-45.526-36.906-82.432-82.432-82.432-2.083 0-4.147 0.077-6.191 0.229l0.273-0.016zM691.2 169.472v0zM665.6 520.448v0zM665.6 696.32v0z" />
<glyph unicode="&#xe934;" glyph-name="trash-filled" d="M245.248 646.4c6.4-70.912 13.056-141.824 19.456-212.992s12.288-142.080 18.688-212.992 13.312-151.296 19.712-225.024c1.536-17.408 43.008-17.92 60.416-17.92h322.816c14.848 0 34.304 2.048 36.096 16.128 0 9.984 5.12 42.752 5.888 52.736 4.352 48.128 8.448 75.264 12.8 123.136s8.96 97.536 13.312 146.176 8.448 96.768 12.8 145.152 8.96 97.536 13.312 146.176 8.96 99.584 13.312 149.248c1.792 19.456 0 39.936 2.56 60.16h-568.576c0-3.328 12.544-116.48 17.408-169.984zM588.8 662.016c13.312 2.304 20.224-2.56 23.040-12.288 0.251-1.692 0.394-3.645 0.394-5.632s-0.143-3.94-0.42-5.85l0.026 0.218q0-133.888 0-267.776t0-268.544c0.142-0.861 0.224-1.852 0.224-2.863 0-9.718-7.521-17.679-17.059-18.382l-0.061-0.004c-1.928-0.787-4.166-1.243-6.51-1.243-8.103 0-14.932 5.456-17.013 12.895l-0.030 0.124c-0.259 1.577-0.407 3.395-0.407 5.248s0.148 3.671 0.433 5.443l-0.026-0.195q0 268.544 0 537.6c-0.512 12.032 4.608 19.2 17.408 21.248zM432.384 662.016c13.312 2.304 20.224-2.56 23.040-12.288 0.249-1.692 0.392-3.645 0.392-5.632s-0.142-3.94-0.417-5.85l0.026 0.218q0-133.888 0-267.776t0-268.544c0.142-0.861 0.224-1.852 0.224-2.863 0-9.718-7.521-17.679-17.059-18.382l-0.061-0.004c-1.928-0.787-4.166-1.243-6.51-1.243-8.103 0-14.932 5.456-17.013 12.895l-0.030 0.124c-0.261 1.577-0.41 3.395-0.41 5.248s0.149 3.67 0.436 5.442l-0.026-0.194q0 268.544 0 537.6c-0.512 12.032 4.608 19.2 16.896 21.248zM612.608 857.6c0 4.864 0 5.888 0 5.632s0 1.792 0 4.608c0 14.592-4.352 49.664-36.864 49.664h-118.784c-41.984 0-41.216-34.048-41.728-46.592-0.118-1.989-0.185-4.315-0.185-6.656s0.067-4.667 0.2-6.976l-0.015 0.32z" />
<glyph unicode="&#xe935;" glyph-name="up-arrow-filled" d="M980.48 200.192c9.624 9.634 15.576 22.938 15.576 37.632s-5.952 27.998-15.576 37.632v0l-436.224 438.784c-6.51 6.641-15.574 10.757-25.6 10.757s-19.090-4.116-25.594-10.751l-0.006-0.006-449.536-452.352c-9.624-9.634-15.576-22.938-15.576-37.632s5.952-27.998 15.576-37.632v0c9.675-9.639 23.022-15.598 37.76-15.598s28.085 5.959 37.762 15.6l-0.002-0.002 349.952 361.984c12.835 13.093 30.705 21.208 50.47 21.208 20.51 0 38.98-8.739 51.887-22.697l0.043-0.047 332.8-346.88c9.634-9.624 22.938-15.576 37.632-15.576s27.998 5.952 37.632 15.576v0z" />
<glyph unicode="&#xe936;" glyph-name="up-arrow-in-circle-filled" d="M512-22.528c259.865 0 470.528 210.663 470.528 470.528s-210.663 470.528-470.528 470.528c-259.865 0-470.528-210.663-470.528-470.528v0c0-259.865 210.663-470.528 470.528-470.528v0zM312.32 546.048l176.128 179.2c4.614 4.525 10.941 7.318 17.92 7.318s13.306-2.793 17.924-7.322l-0.004 0.004 183.552-185.344c6.727-6.758 10.886-16.077 10.886-26.368s-4.159-19.61-10.888-26.369l0.001 0.001c-6.758-6.727-16.077-10.886-26.368-10.886s-19.61 4.159-26.369 10.888l0.001-0.001-111.36 119.552v-387.072c0-20.642-16.734-37.376-37.376-37.376s-37.376 16.734-37.376 37.376v0 387.072l-103.936-113.408c-6.533-5.724-15.147-9.216-24.576-9.216-20.642 0-37.376 16.734-37.376 37.376 0 9.429 3.492 18.043 9.253 24.619l-0.037-0.043z" />
<glyph unicode="&#xe937;" glyph-name="user-filled" d="M89.6-22.528h844.8c0 5.12-2.048 32.256-3.072 35.84-17.664 59.648-57.6 88.832-109.824 113.408-48.128 22.784-83.2 32.256-130.56 56.32-34.304 17.408-69.12 40.96-71.68 84.224-1.792 30.976 0 62.208 0 93.184-0.080 0.716-0.125 1.546-0.125 2.387 0 4.636 1.384 8.948 3.762 12.546l-0.053-0.085c27.237 28.067 45.381 65.093 49.601 106.245l0.063 0.763c2.352 7.446 7.618 13.38 14.426 16.57l0.166 0.070c15.222 9.061 25.262 25.43 25.262 44.144 0 10.437-3.123 20.144-8.485 28.238l0.118-0.19c-5.981 4.966-9.761 12.404-9.761 20.724 0 4.391 1.053 8.536 2.92 12.196l-0.071-0.152c12.724 39.173 20.059 84.248 20.059 131.036 0 6.135-0.126 12.24-0.376 18.314l0.028-0.869c-2.107 61.504-44.457 112.559-101.443 127.782l-0.957 0.218c-6.449 2.882-12.008 6.308-17.045 10.356l0.149-0.116c-13.44 10.073-29.107 18.116-46.032 23.271l-1.072 0.281c-12.38 1.737-26.682 2.729-41.216 2.729s-28.836-0.992-42.842-2.912l1.626 0.182c-87.748-10.601-155.093-84.598-155.136-174.332v-0.004c2.919-52.959 8.579-101.877 16.96-149.86l-1.088 7.524c1.536-11.52 3.328-18.944-7.168-27.904-18.176-16.128-9.984-66.56 12.544-71.68 17.152-3.84 17.664-14.336 19.712-25.6 4.832-38.562 21.903-72.45 47.139-98.34l-0.035 0.036c3.399-3.707 5.519-8.635 5.632-14.057v-0.023c0-28.416 0-57.088 0-85.248 0.983-4.201 1.546-9.025 1.546-13.981 0-20.188-9.347-38.192-23.949-49.922l-0.125-0.097c-23.134-14.787-49.833-28.614-77.785-40.003l-3.367-1.213c-46.848-24.064-98.048-43.264-145.92-68.864-39.424-21.248-59.392-75.776-67.328-123.136z" />
<glyph unicode="&#xe938;" glyph-name="user-id-filled" d="M981.248 715.776c-1.008 12.007-9.085 21.892-20.016 25.54l-0.208 0.060c-8.588 2.929-18.482 4.619-28.77 4.619-0.506 0-1.010-0.004-1.514-0.012l0.076 0.001h-844.8c-1.685 0.262-3.628 0.411-5.606 0.411-19.729 0-35.983-14.879-38.154-34.028l-0.016-0.176v-23.040s0-423.936 1.536-504.064c1.196-11.292 6.909-21.054 15.271-27.581l0.089-0.067c3.16-2.095 6.827-3.763 10.749-4.805l0.259-0.059c2.289 14.734 6.583 27.996 12.647 40.224l-0.359-0.8c2.792 5.347 5.595 9.869 8.685 14.17l-0.237-0.346c17.122 19.947 39.151 35.212 64.233 43.97l1.047 0.318c20.224 8.96 41.216 16.384 60.928 25.6 10.35 4.575 18.55 12.443 23.429 22.254l0.123 0.274c11.52 39.424-17.92 68.096-29.696 102.4 0 0 0 0-1.792 1.792-10.473 11.288-16.899 26.458-16.899 43.13 0 2.845 0.187 5.646 0.55 8.392l-0.035-0.322c0 10.752 8.704 19.712 5.376 32-4.332 15.010-6.823 32.25-6.823 50.072 0 8.884 0.619 17.624 1.817 26.178l-0.113-0.987c2.522 37.583 25.869 69.156 58.506 83.466l0.63 0.246c10.163 5.356 21.951 9.76 34.334 12.608l0.994 0.192c6.766 1.402 14.542 2.205 22.506 2.205 11.407 0 22.43-1.647 32.843-4.716l-0.82 0.207 3.84-1.536c17.152-8.192 34.304-16.128 51.2-25.6l12.288-9.728c12.957-9.964 22.633-23.615 27.5-39.377l0.148-0.559v-3.328c2.286-11.749 3.593-25.261 3.593-39.077 0-20.911-2.996-41.123-8.581-60.229l0.379 1.515c-0.447-1.456-0.704-3.13-0.704-4.864s0.257-3.408 0.736-4.985l-0.032 0.121c3.542-7.088 5.615-15.441 5.615-24.278 0-12.915-4.428-24.796-11.848-34.208l0.089 0.118c-7.592-10.918-14.23-23.414-19.307-36.683l-0.405-1.205c-3.072-6.656-6.4-13.056-9.984-19.456-2.784-3.563-5.263-7.6-7.264-11.904l-0.16-0.384c-2.007-5.271-3.168-11.365-3.168-17.732 0-21.684 13.48-40.219 32.517-47.684l0.348-0.12 6.4-3.328c37.495-12.769 70.010-29.147 99.75-49.309l-1.446 0.925c19.008-17.753 32.927-40.727 39.477-66.636l0.203-0.948v-5.376h374.784c1.644-0.243 3.541-0.381 5.471-0.381 21.773 0 39.424 17.651 39.424 39.424 0 1.85-0.127 3.67-0.374 5.452l0.023-0.206c0 67.584 0 149.248 0 216.832zM844.8 334.080q-115.2 0-230.4 0c-27.648 0-47.104 4.352-45.824 16.128s21.248 15.872 49.664 15.872h224c28.928 0 47.872-3.84 48.384-16.384s-17.152-15.36-45.824-15.616zM844.8 432.896q-115.2 0-230.4 0c-27.648 0-47.104 4.352-45.824 16.128s21.248 15.872 49.664 15.872h224c28.928 0 47.872-3.84 48.384-16.384s-17.152-15.36-45.824-15.616zM844.8 531.712q-115.2 0-230.4 0c-27.648 0-47.104 4.352-45.824 16.128s21.248 15.872 49.664 15.872h224c28.928 0 47.872-3.84 48.384-16.384s-17.152-15.36-45.824-15.36z" />
<glyph unicode="&#xe939;" glyph-name="wallet-filled" d="M42.752 605.952q0-256 0-514.048c-0.219-1.649-0.344-3.557-0.344-5.493 0-24.318 19.714-44.032 44.032-44.032 2.017 0 4.002 0.136 5.947 0.398l-0.227-0.025h756.992c1.294-0.139 2.795-0.218 4.314-0.218 23.611 0 42.752 19.141 42.752 42.752 0 1.519-0.079 3.020-0.234 4.499l0.016-0.185c0 12.544 0 90.88 0 102.4h-214.272c-1.408-0.048-3.063-0.075-4.724-0.075-82.286 0-148.992 66.706-148.992 148.992 0 78.272 60.357 142.448 137.068 148.522l0.519 0.033c27.136 2.56 54.528 0 81.92 0h148.48c0 12.544 0 56.832 0 69.632 0.106 1.118 0.166 2.417 0.166 3.73 0 23.187-18.797 41.984-41.984 41.984-1.23 0-2.447-0.053-3.65-0.157l0.156 0.011h-807.936zM635.648 648.704l-8.96 7.424c-63.744 51.2-141.312 136.704-204.8 187.904-17.408 13.568-27.648 13.568-40.192-6.144-18.432-26.88-46.080-64.256-72.704-100.608-1.176-2.401-2.723-4.439-4.591-6.129l-0.017-0.015c-19.968-27.136-39.168-52.736-52.992-73.728-1.792-2.56-3.072-5.12-5.12-8.704zM182.528 648.192c0.561-0.063 1.212-0.099 1.871-0.099 6.492 0 12.166 3.502 15.236 8.721l0.045 0.083c13.312 19.712 30.464 43.264 48.64 68.352h-157.44c-1.642 0.222-3.541 0.349-5.469 0.349-23.753 0-43.008-19.255-43.008-43.008 0-1.928 0.127-3.827 0.373-5.688l-0.024 0.218q0-14.336 0-28.672c37.376 0 115.968 0 139.776-0.256zM716.8 648.192c21.504 0 91.136 0 112.64 0 2.048 19.456-3.84 76.8-26.88 76.8h-185.344c27.136-25.6 54.016-48.896 79.104-69.376 5.209-4.616 12.103-7.435 19.655-7.435 0.29 0 0.579 0.004 0.867 0.012l-0.042-0.001zM808.448 448c-41.984 0-83.968 0-125.696 0-58.887 0-106.624-47.737-106.624-106.624s47.737-106.624 106.624-106.624v0c84.48 0 168.96 0 253.44 0 0.795-0.053 1.724-0.084 2.66-0.084 23.329 0 42.24 18.911 42.24 42.24 0 1.020-0.036 2.032-0.107 3.035l0.008-0.135q0 60.928 0 121.856c0.106 1.13 0.167 2.444 0.167 3.772 0 23.611-19.141 42.752-42.752 42.752-1.411 0-2.806-0.068-4.181-0.202l0.175 0.014h-125.952zM680.448 277.504c-34.559 1.008-62.19 29.265-62.19 63.974 0 35.346 28.654 64 64 64s64-28.654 64-64c0-0.531-0.006-1.061-0.019-1.589l0.002 0.078c-0.988-34.717-29.367-62.483-64.232-62.483-0.549 0-1.096 0.007-1.641 0.021l0.081-0.002zM682.752 362.496c-0.074 0.001-0.162 0.001-0.25 0.001-11.735 0-21.248-9.513-21.248-21.248s9.513-21.248 21.248-21.248c11.554 0 20.955 9.223 21.241 20.708l0.001 0.027c0.016 0.306 0.025 0.665 0.025 1.026 0 11.452-9.284 20.736-20.736 20.736-0.099 0-0.198-0.001-0.296-0.002h0.015zM879.36 648.192v0c6.912 0 3.328 0 0 0z" />
<glyph unicode="&#xe93a;" glyph-name="bank" d="M960 17.152h-896c0 35.584 0 68.864 0 102.4 0 27.392 4.864 32.768 31.488 32.768h831.744c27.136 0 32-5.376 32-32.256 0-31.744 0-102.4 0-102.4zM43.008-32.256h936.448c14.138 0 25.6 11.462 25.6 25.6v0 0c0 14.138-11.462 25.6-25.6 25.6v0h-936.448c-14.138 0-25.6-11.462-25.6-25.6v0 0c0-14.138 11.462-25.6 25.6-25.6v0zM913.408 17.152v89.088h-803.584v-89.088zM1024 711.424c0-15.616-22.784-20.48-34.048-20.48q-477.952 0-955.904 0c-11.264-0.256-34.048 2.56-34.048 17.92s18.176 23.808 27.648 27.392c61.184 21.76 122.368 42.496 183.552 64l272.896 96.256c8.195 2.987 17.656 4.714 27.52 4.714s19.325-1.727 28.096-4.896l-0.576 0.182 459.264-161.024c9.216-3.072 25.6-7.68 25.6-24.064zM160.512 737.024v-3.84h703.744c-1.792 2.56-2.304 4.352-3.328 4.864q-169.728 59.904-338.432 119.552c-2.945 0.97-6.335 1.53-9.856 1.53s-6.911-0.56-10.086-1.595l0.23 0.065q-171.264-59.392-342.272-119.552zM735.744 422.4c0 62.976 0 125.696 0 188.672 0 28.928 5.888 34.56 35.072 34.816h109.824c27.648 0 34.304-6.4 34.56-33.28q0-190.976 0-381.952c0-25.6-7.424-32.256-32.768-32.512h-90.624c-55.808 0-55.808 0-55.808 57.088s-0.256 111.104-0.256 167.168zM782.080 601.6v-358.4h88.32v358.4zM285.952 420.608c0-63.744 0-128 0-190.976 0-25.6-4.864-31.488-32.256-31.744h-112.128c-25.6 0-33.28 6.656-33.28 31.744 0 128 0 256 0 384 0 22.016 8.96 32.256 31.232 32 38.912 0 76.8 0 116.992 0 22.528 0 30.72-9.728 30.464-32-1.536-63.232-1.024-128.768-1.024-193.024zM153.6 243.2h88.064v356.864h-88.064zM606.208 420.608c0-63.744 0-128 0-190.976 0-25.6-4.864-31.488-32.256-31.744h-113.152c-25.6 0-33.28 6.656-33.28 31.744 0 128 0 256 0 384 0 22.016 8.96 32.256 31.232 32 38.912 0 76.8 0 116.992 0 22.528 0 30.72-9.728 30.464-32-0.512-63.232 0-128.768 0-193.024zM472.832 243.2h89.088v356.864h-89.088z" />
</font>
</defs>
</svg>
