<?xml version="1.0" standalone="no"?>
<!DOCTYPE svg PUBLIC "-//W3C//DTD SVG 1.1//EN" "http://www.w3.org/Graphics/SVG/1.1/DTD/svg11.dtd" >
<svg xmlns="http://www.w3.org/2000/svg">
<metadata>Generated by IcoMoon</metadata>
<defs>
<font id="icomoon" horiz-adv-x="1024">
<font-face units-per-em="1024" ascent="960" descent="-64" />
<missing-glyph horiz-adv-x="1024" />
<glyph unicode="&#x20;" horiz-adv-x="512" d="" />
<glyph unicode="&#xe900;" glyph-name="alert-filled" d="M957.44 119.040l-404.48 696.576c-8.354 14.203-23.561 23.585-40.96 23.585s-32.606-9.382-40.839-23.363l-0.121-0.222-404.48-696.576c-1.36-4.307-2.143-9.259-2.143-14.395 0-23.234 16.037-42.722 37.645-47.999l0.338-0.070h819.2c21.947 5.347 37.983 24.835 37.983 48.069 0 5.136-0.784 10.088-2.238 14.745l0.094-0.35zM512 140.8c-0.055 0-0.12 0-0.185 0-28.277 0-51.2 22.923-51.2 51.2 0 1.532 0.067 3.049 0.199 4.546l-0.014-0.194c0 28.843 23.381 52.224 52.224 52.224s52.224-23.381 52.224-52.224v0c0.121-1.318 0.189-2.852 0.189-4.401 0-28.277-22.923-51.2-51.2-51.2-0.787 0-1.57 0.018-2.348 0.053l0.11-0.004zM563.2 543.232l-13.056-212.736c0-16.896-23.040-29.952-39.936-29.952-0.203-0.004-0.443-0.006-0.683-0.006-18.215 0-33.468 12.683-37.41 29.699l-0.051 0.259-11.264 211.712v78.592c1.668 26.924 23.911 48.128 51.108 48.128 0.032 0 0.065 0 0.097 0h-0.005c0.027 0 0.060 0 0.092 0 27.196 0 49.44-21.204 51.101-47.982l0.007-0.146z" />
<glyph unicode="&#xe901;" glyph-name="bank-filled" d="M41.472 82.944c0.667 8.497 7.726 15.139 16.337 15.139 0.377 0 0.751-0.013 1.122-0.038l-0.050 0.003h911.872c0.315 0.022 0.683 0.034 1.054 0.034 8.7 0 15.817-6.782 16.352-15.347l0.002-0.047v-58.112c-0.537-8.612-7.654-15.394-16.354-15.394-0.371 0-0.739 0.012-1.103 0.037l0.049-0.003h-912.128c-0.315-0.022-0.683-0.034-1.054-0.034-8.7 0-15.817 6.782-16.352 15.347l-0.002 0.047zM190.72 584.704v0c24.276-1.612 43.356-21.698 43.356-46.24 0-1.025-0.033-2.041-0.099-3.049l0.007 0.137v-338.432c0.058-0.871 0.092-1.887 0.092-2.912 0-24.542-19.080-44.628-43.216-46.233l-0.14-0.007c-24.16 1.742-43.101 21.771-43.101 46.223 0 1.031 0.034 2.053 0.1 3.067l-0.007-0.138v338.432c-0.059 0.876-0.093 1.899-0.093 2.929 0 24.452 18.941 44.481 42.951 46.214l0.15 0.009zM407.296 147.712v0c-24.153 1.75-43.085 21.775-43.085 46.222 0 0.941 0.028 1.875 0.083 2.802l-0.006-0.128v339.2c-0.049 0.799-0.077 1.733-0.077 2.674 0 24.447 18.932 44.472 42.935 46.213l0.15 0.009c24.153-1.75 43.085-21.775 43.085-46.222 0-0.941-0.028-1.875-0.083-2.802l0.006 0.128v-338.944c0.059-0.876 0.093-1.899 0.093-2.929 0-24.452-18.941-44.481-42.951-46.214l-0.15-0.009zM623.872 584.704v0c23.569-2.381 41.812-22.117 41.812-46.115 0-0.979-0.030-1.95-0.090-2.913l0.007 0.132v-338.944c0.049-0.799 0.077-1.733 0.077-2.674 0-24.447-18.932-44.472-42.935-46.213l-0.15-0.009c-24.153 1.75-43.085 21.775-43.085 46.222 0 0.941 0.028 1.875 0.083 2.802l-0.006-0.128v338.944c-0.047 0.778-0.073 1.687-0.073 2.602 0 24.896 19.634 45.206 44.263 46.29l0.098 0.003zM834.048 147.712v0c-24.276 1.612-43.356 21.698-43.356 46.24 0 1.025 0.033 2.041 0.099 3.049l-0.007-0.137v338.688c-0.058 0.871-0.092 1.887-0.092 2.912 0 24.542 19.080 44.628 43.216 46.233l0.14 0.007c24.276-1.612 43.356-21.698 43.356-46.24 0-1.025-0.033-2.041-0.099-3.049l0.007 0.137v-338.688c0.058-0.871 0.092-1.887 0.092-2.912 0-24.542-19.080-44.628-43.216-46.233l-0.14-0.007zM455.424 873.728l-439.808-193.792c-8.754-3.65-14.794-12.137-14.794-22.036 0-13.149 10.659-23.808 23.808-23.808 0.341 0 0.681 0.007 1.019 0.021l-0.048-0.002h970.752c1.578-0.339 3.39-0.532 5.248-0.532 14.433 0 26.132 11.7 26.132 26.132 0 12.575-8.882 23.075-20.714 25.57l-0.17 0.030-429.312 188.416c-17.971 8.115-38.961 12.843-61.056 12.843s-43.085-4.728-62.015-13.228l0.959 0.385z" />
<glyph unicode="&#xe902;" glyph-name="info" d="M512 960c92.648 0 177.981-23.162 256-69.486s140.19-108.495 186.514-186.514 69.486-163.352 69.486-256-23.162-177.981-69.486-256-108.495-140.19-186.514-186.514-163.352-69.486-256-69.486-177.981 23.162-256 69.486-140.19 108.495-186.514 186.514-69.486 163.352-69.486 256 23.162 177.981 69.486 256 108.495 140.19 186.514 186.514 163.352 69.486 256 69.486zM512 733.257c-23.162 0-43.886-8.533-60.952-25.6s-25.6-37.79-25.6-60.952 8.533-43.886 25.6-60.952 37.79-25.6 60.952-25.6 43.886 8.533 60.952 25.6c17.067 17.067 25.6 37.79 25.6 60.952s-8.533 43.886-25.6 60.952c-17.067 17.067-37.79 25.6-60.952 25.6zM627.81 209.067v49.981c0 7.314-2.438 12.19-7.314 17.067s-10.971 7.314-17.067 7.314h-24.381v206.019c0 7.314-2.438 12.19-7.314 17.067s-10.971 7.314-17.067 7.314h-134.095c-7.314 0-12.19-2.438-17.067-7.314s-7.314-10.971-7.314-17.067v-49.981c0-7.314 2.438-12.19 7.314-17.067s10.971-7.314 17.067-7.314h24.381v-131.657h-24.381c-7.314 0-12.19-2.438-17.067-7.314s-7.314-10.971-7.314-17.067v-49.981c0-7.314 2.438-12.19 7.314-17.067s10.971-7.314 17.067-7.314h181.638c7.314 0 12.19 2.438 17.067 7.314 6.095 3.657 8.533 9.752 8.533 17.067z" />
<glyph unicode="&#xe903;" glyph-name="close-circle" d="M512 874.666c-235.947 0-426.667-190.72-426.667-426.666s190.72-426.667 426.667-426.667c235.947 0 426.667 190.72 426.667 426.667s-190.72 426.666-426.667 426.666zM725.333 294.827l-60.16-60.16-153.173 153.173-153.173-153.173-60.16 60.16 153.173 153.173-153.173 153.172 60.16 60.16 153.173-153.172 153.173 153.172 60.16-60.16-153.173-153.172 153.173-153.173z" />
<glyph unicode="&#xe904;" glyph-name="forbidden" d="M512 960c-282.771 0-512-229.229-512-512s229.229-512 512-512c282.771 0 512 229.229 512 512s-229.229 512-512 512zM803.966 739.966c151.073-151.071 159.071-386.686 32.958-546.818l-579.776 579.776c160.182 126.152 395.786 118.076 546.818-32.958zM220.034 156.034c-151.073 151.071-159.071 386.686-32.958 546.818l579.776-579.776c-160.182-126.152-395.786-118.076-546.818 32.958z" />
<glyph unicode="&#xe905;" glyph-name="blockchain-logo-circle" d="M512-64c282.77 0 512 229.23 512 512s-229.23 512-512 512c-282.77 0-512-229.23-512-512s229.23-512 512-512zM229.338 503.887l28.032 28.032 216.23-108.288v-276.442c-6.85 3.422-13.079 7.964-18.432 13.44l-225.83 228.058c-7.759 7.453-13.932 16.398-18.148 26.295s-6.391 20.546-6.391 31.305c0 10.759 2.173 21.407 6.391 31.305s10.389 18.842 18.148 26.295zM766.63 531.919l28.032-28.032c7.759-7.454 13.932-16.398 18.149-26.295s6.39-20.546 6.39-31.305c0-10.759-2.173-21.407-6.39-31.305s-10.39-18.842-18.149-26.295l-225.83-228.058c-5.353-5.476-11.582-10.018-18.432-13.44v276.442l216.23 108.288zM571.099 730.83l141.311-141.695-199.679-99.073-198.528 99.073 141.696 141.695c7.481 7.711 16.433 13.841 26.328 18.028s20.529 6.343 31.272 6.343c10.743 0 21.377-2.157 31.271-6.343s18.848-10.317 26.329-18.028z" />
<glyph unicode="&#xe906;" glyph-name="arrow-top-right-bottom-left-circle" d="M512-64c282.77 0 512 229.23 512 512s-229.23 512-512 512c-282.77 0-512-229.23-512-512s229.23-512 512-512zM255.823 501.162c0.016 17.657 14.369 31.984 32.059 32l21.461 0.020c17.69 0.016 32.016-14.285 32.001-31.942l-0.149-163.346 281.12 280.609-163.643-0.148c-17.69-0.016-32.016 14.285-32 31.942l0.020 21.42c0.016 17.657 14.369 31.984 32.058 32l277.693 0.253c17.69 0.015 32.016-14.286 32-31.942l-0.253-277.188c-0.016-17.657-14.369-31.984-32.058-32l-21.462-0.020c-17.69-0.015-32.016 14.285-32 31.942l0.149 163.524-281.3-280.788 163.822 0.148c17.689 0.016 32.015-14.285 32-31.942l-0.020-21.42c-0.016-17.657-14.369-31.984-32.059-32l-277.693-0.252c-17.689-0.016-32.015 14.285-32 31.941l0.253 277.188z" />
<glyph unicode="&#xe907;" glyph-name="key-circle" d="M512-64c282.77 0 512 229.23 512 512s-229.23 512-512 512c-282.77 0-512-229.23-512-512s229.23-512 512-512zM356.849 618.667c80.989 0 149.876-51.82 175.321-124.122h321.164v-124.121h-62.060v-124.122h-124.122v124.122h-134.982c-25.445-72.3-94.332-124.122-175.321-124.122-102.711 0-186.182 83.471-186.182 186.182s83.471 186.182 186.182 186.182zM294.788 432.485c0-34.133 27.927-62.060 62.060-62.060s62.060 27.927 62.060 62.060c0 34.133-27.927 62.060-62.060 62.060s-62.060-27.927-62.060-62.060z" />
<glyph unicode="&#xe908;" glyph-name="shield" d="M512 917.333l-384-170.667v-256c0-236.8 163.84-458.24 384-512 220.16 53.76 384 275.2 384 512v256l-384 170.667zM512 448.427h298.667c-22.613-175.787-139.947-332.373-298.667-381.44v381.013h-298.667v243.2l298.667 132.693v-375.467z" />
<glyph unicode="&#xe909;" glyph-name="question-in-circle-filled" d="M512 832c-211.968 0-384-172.032-384-384s172.032-384 384-384c211.968 0 384 172.032 384 384s-172.032 384-384 384zM550.4 179.2h-76.8v76.8h76.8v-76.8zM629.888 476.8l-34.56-35.328c-27.648-28.032-44.928-51.072-44.928-108.672h-76.8v19.2c0 42.24 17.28 80.64 44.928 108.672l47.616 48.384c14.208 13.824 22.656 33.024 22.656 54.144 0 42.24-34.56 76.8-76.8 76.8s-76.8-34.56-76.8-76.8h-76.8c0 84.864 68.736 153.6 153.6 153.6s153.6-68.736 153.6-153.6c0-33.792-13.824-64.512-35.712-86.4z" />
<glyph unicode="&#xe90a;" glyph-name="refresh" d="M753.058 689.067c-61.867 61.867-146.773 100.267-241.067 100.267-188.588 0-340.908-152.747-340.908-341.333s152.32-341.333 340.908-341.333c159.147 0 291.84 108.8 329.813 256h-88.747c-34.987-99.413-129.707-170.667-241.067-170.667-141.228 0-256.001 114.773-256.001 256s114.773 256 256.001 256c70.827 0 133.973-29.44 180.053-75.947l-137.387-137.387h298.667v298.667l-100.267-100.267z" />
<glyph unicode="&#xe90b;" glyph-name="checkmark-in-circle-filled" d="M512 918.528c-259.865 0-470.528-210.663-470.528-470.528s210.663-470.528 470.528-470.528c259.865 0 470.528 210.663 470.528 470.528v0c0 259.865-210.663 470.528-470.528 470.528v0zM789.248 690.944l-332.8-491.008c-10.876-15.903-28.93-26.204-49.39-26.204-12.529 0-24.157 3.863-33.755 10.463l0.202-0.131-130.56 88.576c-6.862 5.535-11.214 13.943-11.214 23.367 0 16.542 13.41 29.952 29.952 29.952 5.442 0 10.545-1.451 14.943-3.988l-0.145 0.077 118.784-78.848c2.184-1.511 4.889-2.414 7.805-2.414 4.71 0 8.869 2.355 11.365 5.952l0.030 0.046 325.376 477.696c5.251 9.116 14.941 15.154 26.041 15.154 16.542 0 29.952-13.41 29.952-29.952 0-7.118-2.483-13.656-6.63-18.795l0.045 0.057z" />
<glyph unicode="&#xe90c;" glyph-name="bell" d="M512 21.333c46.933 0 85.333 38.4 85.333 85.333h-170.667c0-46.933 37.973-85.333 85.333-85.333zM768 277.333v213.333c0 130.987-69.973 240.64-192 269.653v29.013c0 35.413-28.587 64-64 64s-64-28.587-64-64v-29.013c-122.453-29.013-192-138.24-192-269.653v-213.333l-85.333-85.333v-42.667h682.667v42.667l-85.333 85.333z" />
<glyph unicode="&#xe90d;" glyph-name="close" d="M853.333 720.579l-68.753 68.754-272.58-272.58-272.579 272.58-68.754-68.754 272.58-272.579-272.58-272.58 68.754-68.753 272.579 272.58 272.58-272.58 68.753 68.753-272.58 272.58 272.58 272.579z" />
<glyph unicode="&#xe90e;" glyph-name="credit-card-filled" d="M981.504 628.48c0 25.6 0 62.72 0 87.296-1.008 12.007-9.085 21.892-20.016 25.54l-0.208 0.060c-8.588 2.929-18.482 4.619-28.77 4.619-0.506 0-1.010-0.004-1.514-0.012l0.076 0.001h-844.8c-1.837 0.311-3.952 0.489-6.11 0.489-19.757 0-36.029-14.92-38.163-34.108l-0.016-0.173c0-23.040 0-59.648 0-83.712zM43.008 473.6c0-1.792 0-32.768 0-33.536 0-80.128 0-174.080 0-254.208 1.196-11.292 6.909-21.054 15.271-27.581l0.089-0.067c8.541-5.036 18.817-8.011 29.789-8.011 1.048 0 2.089 0.027 3.124 0.081l-0.145-0.006c272.64 0 574.464 0 847.104 0 1.644-0.243 3.541-0.381 5.471-0.381 21.773 0 39.424 17.651 39.424 39.424 0 1.85-0.127 3.67-0.374 5.452l0.023-0.206c0 67.584 0 149.248 0 216.832 0 10.752 0 51.2 0 62.72zM822.528 232.704q-70.912 0-142.080 0c-17.152 0-29.184 5.376-28.416 20.736s13.056 20.224 30.72 20.48h138.24c17.92 0 29.44-4.864 29.696-20.736s-10.496-20.736-28.16-20.992z" />
<glyph unicode="&#xe90f;" glyph-name="arrow-left" d="M800 454.787c0 17.67-14.326 32-32 32h-401.475l115.424 115.424c12.499 12.496 12.499 32.758 0 45.254l-15.162 15.162c-12.496 12.497-32.758 12.497-45.254 0l-196.18-196.18c-12.497-12.496-12.497-32.758 0-45.254l196.18-196.179c12.496-12.499 32.758-12.499 45.254 0l15.162 15.158c12.496 12.496 12.496 32.758 0 45.254l-115.92 115.92h401.971c17.674 0 32 14.326 32 32v21.44z" />
<glyph unicode="&#xe910;" glyph-name="check" horiz-adv-x="1365" d="M560.273-43.892l785.067 789.585c26.658 26.812 26.658 70.286 0 97.098l-96.542 97.097c-26.658 26.816-69.884 26.816-96.546 0l-640.252-643.932-298.918 300.639c-26.658 26.812-69.884 26.812-96.546 0l-96.542-97.098c-26.658-26.811-26.658-70.286 0-97.097l443.733-446.287c26.662-26.816 69.884-26.816 96.546-0.004z" />
<glyph unicode="&#xe911;" glyph-name="download" horiz-adv-x="843" d="M843.294 598.588h-240.941v361.412h-361.412v-361.412h-240.941l421.647-421.647 421.647 421.647zM0 56.471v-120.471h843.294v120.471h-843.294z" />
<glyph unicode="&#xe912;" glyph-name="request" d="M445.331 874.65h133.331c22.17 0 40.003-17.833 40.003-40v-280h146.166c29.665 0 44.503-35.833 23.501-56.834l-253.501-253.664c-12.498-12.503-32.999-12.503-45.499 0l-253.833 253.664c-21 21-6.167 56.834 23.5 56.834h146.334v280c0 22.167 17.833 40 40 40zM938.665 247.982v-186.665c0-22.17-17.833-40.003-40.003-40.003h-773.331c-22.167 0-40 17.833-40 40.003v186.665c0 22.17 17.833 40.003 40 40.003h244.5l81.667-81.669c33.5-33.5 87.5-33.5 121 0l81.669 81.669h244.495c22.17 0 40.003-17.833 40.003-40.003z" />
<glyph unicode="&#xe913;" glyph-name="copy-clipboard" horiz-adv-x="870" d="M631.485 917.331h-512.002c-46.934 0-85.333-38.4-85.333-85.333v-597.333h85.333v597.333h512.002v85.333zM588.815 746.664l256-256v-426.664c0-46.935-38.4-85.335-85.33-85.335h-469.762c-46.934 0-84.906 38.4-84.906 85.335l0.426 597.331c0 46.933 37.974 85.333 84.906 85.333h298.665zM546.15 448h234.665l-234.665 234.664v-234.664z" />
<glyph unicode="&#xe914;" glyph-name="home" d="M344.532 32c23.564 0 42.667 19.102 42.667 42.667v205.867c0 23.565 19.102 42.667 42.668 42.667h164.267c23.565 0 42.667-19.102 42.667-42.667v-205.867c0-23.565 19.102-42.667 42.667-42.667h164.267c23.565 0 42.667 19.102 42.667 42.667v456.397c0 26.334-12.16 51.192-32.943 67.36l-315.264 245.203c-15.407 11.983-36.983 11.983-52.39 0l-315.26-245.203c-20.786-16.167-32.943-41.025-32.943-67.36v-456.397c0-23.565 19.102-42.667 42.667-42.667h164.267z" />
<glyph unicode="&#xe915;" glyph-name="pending" d="M512 960c-282.839 0-512-229.161-512-512s229.161-512 512-512c282.839 0 512 229.161 512 512s-229.161 512-512 512zM512 35.097c-228.129 0-412.903 184.774-412.903 412.903s184.774 412.903 412.903 412.903c228.129 0 412.903-184.774 412.903-412.903s-184.774-412.903-412.903-412.903zM639.587 250.632l-175.277 127.381c-6.4 4.748-10.116 12.181-10.116 20.026v338.994c0 13.626 11.148 24.774 24.774 24.774h66.065c13.626 0 24.774-11.148 24.774-24.774v-292.542l137.91-100.336c11.148-8.052 13.419-23.535 5.368-34.684l-38.813-53.471c-8.052-10.942-23.535-13.419-34.684-5.368z" />
<glyph unicode="&#xe916;" glyph-name="twitter" horiz-adv-x="1247" d="M1246.609 839.611c-46.601-19.418-93.206-34.952-147.572-38.835 54.365 31.068 93.202 81.554 112.622 139.806-50.488-31.068-104.858-50.486-163.11-62.136-46.601 50.486-112.622 81.554-182.526 81.554-139.807 0-256.312-112.622-256.312-256.312 0-19.418 3.882-38.835 7.769-58.253-213.595 11.65-400.004 112.622-528.16 267.963-23.301-38.835-34.952-81.554-34.952-128.156 0-89.321 46.602-166.991 112.622-213.593-42.719 0-81.554 11.65-116.505 31.068v-3.884c0-124.271 89.321-225.242 205.826-248.545-23.301-3.882-42.719-7.769-66.020-7.769-15.534 0-31.068 0-46.602 3.887 31.068-100.971 128.156-174.761 236.895-178.643-85.438-69.904-198.059-108.74-318.448-108.74-19.418 0-42.719 0-62.136 3.887 116.505-69.904 252.428-112.622 396.119-112.622 469.905 0 726.216 388.35 726.216 726.216 0 11.65 0 23.301 0 31.068 46.605 38.835 89.324 81.554 124.274 132.039z" />
<glyph unicode="&#xe917;" glyph-name="caret" horiz-adv-x="569" d="M0 31.432v861.581c0 59.604 72.524 89.406 115.026 47.215l434.13-430.623c26.311-26.119 26.311-68.645 0-94.764l-434.13-430.623c-42.502-42.192-115.026-12.39-115.026 47.215z" />
<glyph unicode="&#xe918;" glyph-name="facebook" d="M985.143 960h-943.427c-22.463 0-41.716-19.2-41.716-41.6v-937.6c0-25.6 19.254-44.8 41.716-44.8h503.803v384h-128.358v160h128.358v128c0 131.2 83.43 198.4 202.163 198.4 57.758 0 105.894-6.4 118.729-6.4v-137.6h-83.43c-64.179 0-80.226-32-80.226-76.8v-105.6h160.448l-32.090-160h-128.358l3.209-384h275.968c22.464 0 41.719 19.2 41.719 41.6v940.8c3.209 22.4-16.047 41.6-38.507 41.6z" />
<glyph unicode="&#xe919;" glyph-name="blockchain-logo" d="M610.498 919.383l235.518-236.159-332.798-165.121-330.88 165.121 236.16 236.159c12.469 12.851 27.39 23.068 43.88 30.045s34.214 10.572 52.12 10.572c17.906 0 35.629-3.595 52.119-10.572s31.412-17.194 43.881-30.045zM87.617 587.863l-46.719-46.72c-12.931-12.422-23.219-27.329-30.247-43.826s-10.65-34.243-10.65-52.174c0-17.931 3.623-35.678 10.65-52.174s17.316-31.403 30.247-43.826l376.383-380.095c8.921-9.128 19.304-16.696 30.72-22.4v460.735l-360.383 180.48zM936.384 587.863l46.72-46.72c12.928-12.422 23.216-27.329 30.248-43.826 7.024-16.497 10.648-34.243 10.648-52.174s-3.624-35.678-10.648-52.174c-7.032-16.497-17.32-31.403-30.248-43.826l-376.384-380.095c-8.921-9.128-19.304-16.696-30.72-22.4v460.735l360.384 180.48z" />
<glyph unicode="&#xe91a;" glyph-name="copy" horiz-adv-x="2048" d="M234.063 447.988c0 166.766 135.558 302.324 302.324 302.324h390.091v185.295h-390.091c-269.166 0-487.619-218.453-487.619-487.619 0-269.169 218.453-487.617 487.619-487.617h390.091v185.293h-390.091c-166.766 0-302.324 135.559-302.324 302.324zM633.911 350.464h780.189v195.048h-780.189v-195.048zM1511.621 935.607h-390.093v-185.295h390.093c166.766 0 302.329-135.558 302.329-302.324s-135.563-302.324-302.329-302.324h-390.093v-185.293h390.093c269.166 0 487.621 218.448 487.621 487.617 0 269.166-218.456 487.619-487.621 487.619z" />
<glyph unicode="&#xe91b;" glyph-name="hamburger-menu" d="M0 205.056h1024v-132.096h-1024v132.096zM0 514.048h1024v-132.096h-1024v132.096zM0 823.040h1024v-132.096h-1024v132.096z" />
<glyph unicode="&#xe91c;" glyph-name="arrow-up" d="M730.957 527.754c12.496-12.499 12.496-32.758 0-45.258l-15.165-15.162c-12.496-12.496-32.755-12.496-45.254 0l-115.424 115.424v-401.472c0-17.674-14.326-32-32-32h-21.44c-17.674 0-32 14.326-32 32v401.968l-115.917-115.917c-12.496-12.496-32.758-12.496-45.255 0l-15.16 15.158c-12.497 12.499-12.497 32.758 0 45.258l196.179 196.179c12.499 12.497 32.758 12.497 45.254 0l196.182-196.179z" />
<glyph unicode="&#xe91d;" glyph-name="arrow-down" d="M501.19 746.559c-17.674 0-32-14.327-32-32v-401.474l-115.424 115.424c-12.496 12.496-32.758 12.496-45.255 0l-15.162-15.162c-12.497-12.499-12.497-32.758 0-45.254l196.18-196.182c12.496-12.496 32.758-12.496 45.254 0l196.179 196.182c12.496 12.496 12.496 32.755 0 45.254l-15.162 15.158c-12.496 12.499-32.755 12.499-45.254 0l-115.917-115.917v401.97c0 17.673-14.326 32-32 32h-21.44z" />
<glyph unicode="&#xe91e;" glyph-name="hardware" horiz-adv-x="931" d="M81.983 907.108c0 16.358 13.261 29.62 29.62 29.62h296.198c16.359 0 29.62-13.261 29.62-29.62v-207.339h-11.108c32.717 0 59.239-26.523 59.239-59.24v-118.479h385.057c16.361 0 29.622-13.261 29.622-29.622v-414.673c0-16.361-13.261-29.622-29.622-29.622h-385.057v-29.622c0-32.717-26.522-59.238-59.239-59.238h-355.438c-32.717 0-59.24 26.522-59.24 59.238v622.018c0 32.717 26.522 59.24 59.24 59.24h11.107v207.339zM374.355 122.182h451.818v325.818h-451.818c-88.152-1.704-159.091-74.003-159.091-162.909s70.939-161.206 159.091-162.909zM388.002 170.096c63.262 0 114.544 51.484 114.544 114.995s-51.282 114.995-114.544 114.995c-63.261 0-114.546-51.484-114.546-114.995s51.284-114.995 114.546-114.995zM141.225 877.493v-177.719h236.958v177.719h-236.958zM170.845 818.253c0 16.358 13.261 29.62 29.62 29.62s29.62-13.261 29.62-29.62v-59.24c0-16.358-13.261-29.62-29.62-29.62s-29.62 13.261-29.62 29.62v59.24zM289.324 818.253c0 16.358 13.261 29.62 29.62 29.62s29.62-13.261 29.62-29.62v-59.24c0-16.358-13.261-29.62-29.62-29.62s-29.62 13.261-29.62 29.62v59.24z" />
<glyph unicode="&#xe91f;" glyph-name="computer" d="M938.249 277.333c0-46.933-37.973-85.333-84.907-85.333h170.667v-42.667c0-23.565-19.102-42.667-42.667-42.667h-938.665c-23.564 0-42.666 19.102-42.666 42.667v42.667h170.666c-46.933 0-85.333 38.4-85.333 85.333v426.667c0 46.933 38.4 85.333 85.333 85.333h682.665c46.933 0 85.333-38.4 85.333-85.333l-0.427-426.667zM853.342 704h-682.665v-426.667h682.665v426.667zM597.342 234.667h-170.667v-42.667h170.667v42.667z" />
<glyph unicode="&#xe920;" glyph-name="cart-filled" d="M298.667 192c-46.933 0-84.907-38.4-84.907-85.333s37.973-85.333 84.907-85.333c46.933 0 85.333 38.4 85.333 85.333s-38.4 85.333-85.333 85.333zM42.667 874.667v-85.333h85.333l153.6-323.84-57.6-104.533c-6.827-11.947-10.667-26.027-10.667-40.96 0-46.933 38.4-85.333 85.333-85.333h512v85.333h-494.080c-5.973 0-10.667 4.693-10.667 10.667l1.28 5.12 38.4 69.547h317.867c32 0 60.16 17.493 74.667 43.947l152.747 276.907c3.413 5.973 5.12 13.227 5.12 20.48 0 23.467-19.2 42.667-42.667 42.667h-631.040l-40.107 85.333h-139.52zM725.333 192c-46.933 0-84.907-38.4-84.907-85.333s37.973-85.333 84.907-85.333c46.933 0 85.333 38.4 85.333 85.333s-38.4 85.333-85.333 85.333z" />
<glyph unicode="&#xe921;" glyph-name="lightning-bolt" horiz-adv-x="640" d="M592 640h-230.8l85.2 259.6c8 30.4-15.002 60.4-46.4 60.4h-288c-24 0-44.4-17.8-47.6-41.6l-64-480c-3.8-28.8 18.6-54.4 47.6-54.4h237.4l-92.2-389.001c-7.2-30.4 16-58.999 46.6-58.999 16.8 0 32.8 8.798 41.6 24l351.999 608c18.603 31.8-4.399 72-41.399 72z" />
<glyph unicode="&#xe922;" glyph-name="arrow-switch-thick" d="M397.083 528.973v130.629c0 21.717 17.472 39.189 39.188 39.189h274.325v143.204c0 29.065 35.106 43.598 55.68 23.023l248.525-248.361c12.25-12.247 12.25-32.331 0-44.578l-248.525-248.688c-20.574-20.574-55.68-6.042-55.68 23.023v143.369h-274.325c-21.716 0-39.188 17.472-39.188 39.189zM626.918 399.821v-130.633c0-21.717-17.472-39.189-39.189-39.189h-274.326v-143.202c0-29.065-35.107-43.597-55.681-23.023l-248.524 248.363c-12.247 12.245-12.247 32.329 0 44.574l248.525 248.689c20.574 20.574 55.681 6.042 55.681-23.024v-143.366h274.326c21.717 0 39.189-17.472 39.189-39.189z" />
<glyph unicode="&#xe923;" glyph-name="pencil-filled" d="M844.8 890.624c-6.065 6.049-14.436 9.789-23.68 9.789s-17.615-3.74-23.681-9.79l-80.639-80.383 161.28-161.28 79.872 80.64c6.049 6.065 9.789 14.436 9.789 23.68s-3.74 17.615-9.79 23.681l0.001-0.001zM179.2 281.088l165.376-165.888 503.040 504.576-161.792 161.024c-165.12-165.632-340.992-334.592-506.624-499.712zM150.016 247.296c-30.208-80.896-62.72-163.328-93.44-244.736-0.213-0.556-0.337-1.2-0.337-1.873 0-2.969 2.407-5.376 5.376-5.376 0.673 0 1.316 0.123 1.91 0.349l-0.037-0.012c81.408 30.976 163.584 63.744 243.712 93.952l-82.176 82.688z" />
<glyph unicode="&#xe924;" glyph-name="bitpay-logo" horiz-adv-x="2987" d="M2954.129 718.459h-152.798l-88.286-374.22-13.585-51.029c-10.18-3.402-16.973-3.402-27.162-6.804-16.981-3.402-30.558-3.401-47.539-3.401-20.369 0-33.954 3.401-47.539 10.206-10.18 6.804-20.369 13.608-23.765 23.814s-6.793 23.814-6.793 37.421c0 13.608 3.396 30.618 6.793 44.227l47.539 193.913 30.558 129.276h-156.194l-71.305-299.375c-10.189-37.422-13.585-71.442-13.585-102.060 0-34.020 3.396-61.235 13.585-85.049 10.18-23.814 30.558-44.227 57.719-57.835 27.17-13.607 64.521-20.412 112.051-20.412 33.963 0 64.521 3.402 88.286 10.206h3.396c-6.793-30.618-20.369-54.432-44.143-74.842-23.765-20.412-54.323-30.618-98.466-30.618-16.981 0-37.35 0-50.935 3.396l-30.558-125.867c20.369-3.405 44.143-3.405 67.908-3.405 47.539 0 88.286 6.801 122.24 17.007s64.512 27.221 91.682 47.633c23.765 20.412 47.539 47.625 64.512 81.647 16.981 34.019 30.558 71.441 40.747 115.667l105.267 445.661 20.369 74.844zM2312.371 398.671c-10.189-37.422-13.585-78.246-10.189-119.070s20.378-98.658 33.954-129.276h-149.402c-16.981 30.618-16.981 44.226-20.378 54.432-20.369-17.009-40.747-27.216-64.512-37.422s-47.539-17.009-78.097-17.009c-33.954 0-64.512 6.804-88.286 17.009-23.765 10.206-44.143 27.216-61.116 47.628-16.981 20.413-27.17 44.227-33.954 71.442-6.793 27.216-10.189 54.432-10.189 88.452 0 47.628 10.189 91.854 23.765 132.677 16.981 40.824 40.747 78.246 71.305 108.864 30.566 30.618 101.871 102.060 220.715 102.060h237.687l-71.305-319.788zM2203.716 589.182c-71.313 0-84.89 0.001-115.456-13.607-20.369-10.206-37.35-27.216-54.323-47.628-13.585-17.010-27.17-40.824-37.35-64.638-10.189-23.814-13.585-51.029-13.585-78.246 0-34.020 6.793-57.834 16.981-78.246 10.18-20.412 30.558-27.215 61.116-27.215 16.981 0 30.558 3.401 44.143 10.206s27.162 17.009 40.747 30.618c0 17.010 3.396 34.020 6.793 54.432s6.793 37.422 10.189 51.029l40.747 163.296zM1792.853 493.927c0-51.030-10.189-95.256-23.774-139.482-16.973-40.823-40.747-78.246-67.908-108.863-30.558-30.618-64.512-54.432-105.259-71.442s-84.89-27.216-132.429-27.216c-23.774 0-47.539 3.402-71.305 6.804l-47.539-187.11h-152.798l176.563 748.439h203.733c37.35 0 71.305-6.804 98.475-17.010 27.162-10.206 50.927-27.215 67.908-47.628s30.558-44.226 40.747-71.442c10.189-23.814 13.585-54.432 13.585-85.049zM1415.945 283.004c10.189-3.402 27.162-3.402 44.143-3.402 27.162 0 50.935 3.402 74.701 13.608 20.378 10.206 40.747 23.814 57.728 40.823 16.973 17.010 27.162 40.824 37.35 64.638 10.18 23.814 13.577 54.432 13.577 85.049s-6.784 54.432-20.369 74.844c-13.585 20.412-37.35 30.618-67.908 30.618h-61.124l-78.097-306.179zM1096.764 283.004c-20.378 0-33.954 3.401-47.539 10.206-10.189 6.804-20.369 13.608-23.765 23.814s-6.793 23.814-6.793 37.421c0 13.608 3.396 30.618 6.793 44.227l47.531 193.913h173.175l30.558 129.276h-176.563l40.747 163.296-162.987-27.216-101.871-438.857c-10.18-37.422-13.577-71.442-13.577-102.060 0-34.020 3.396-61.236 13.577-85.050 10.189-23.814 30.566-44.226 57.728-57.834s64.512-20.413 112.051-20.413c33.954 0 64.521 3.402 88.286 10.207 3.396 0 6.793 0 10.189 3.401l30.558 132.678c-10.189-3.402-20.378-6.804-30.558-6.804-16.981-10.206-30.566-10.206-47.539-10.206zM706.275 718.459l-135.823-568.133h152.8l135.824 568.133h-152.801zM872.653 786.499l23.774 98.658h-152.801l-23.769-98.658h152.796zM366.719 718.459c33.956 0 61.12-6.804 84.889-17.010s44.143-27.216 61.12-47.628c16.978-20.412 27.165-44.226 33.956-71.442s10.186-54.432 10.186-85.050c0-47.628-10.186-91.854-27.164-136.079-16.978-40.824-40.747-78.246-71.306-112.266s-64.515-54.432-108.657-74.843c-40.747-17.010-84.889-27.216-132.427-27.216h-33.955c-16.978 0-33.956 0-54.329 3.402s-40.747 6.804-64.515 13.608c-23.769 6.804-44.142 13.607-64.515 23.814l176.568 748.438 159.591 23.814-64.515-265.355c13.583 6.804 27.164 10.206 40.747 13.607 23.769 10.207 37.351 10.207 54.328 10.207zM230.897 276.199c23.769 0 47.537 6.804 67.911 17.010s40.747 27.215 54.329 47.628c16.978 20.412 27.164 40.823 37.351 64.637s13.582 51.030 13.582 78.246c0 34.021-6.791 57.835-16.978 78.246-10.186 17.009-33.955 27.215-64.515 27.215-10.186 0-20.373 0.001-33.955-3.401-16.978-3.402-27.165-10.206-40.747-20.412l-67.911-282.365c20.372-3.402 27.164-3.402 30.56-3.402 6.791-3.402 13.583-3.402 20.373-3.402z" />
<glyph unicode="&#xe925;" glyph-name="send" d="M878.735 869.266l-772.585-445.576c-30.17-17.331-26.336-59.32 3.667-71.987l177.185-74.317 478.883 421.915c9.17 8.165 22.17-4.333 14.336-13.831l-401.542-489.067v-134.139c0-39.327 47.505-54.825 70.841-26.332l105.846 128.809 207.688-86.984c23.67-9.994 50.673 4.833 55.004 30.331l120.013 719.853c5.668 33.66-30.5 57.989-59.336 41.325z" />
<glyph unicode="&#xe926;" glyph-name="present-filled" d="M176.384-17.664h211.712v456.96h-211.712zM636.416-16.896h211.712v457.472h-211.712zM134.656 482.56h253.952v192h-253.952zM889.344 674.304h-253.184v-192.512h253.184zM429.824-16.64h165.632v457.472h-165.632zM738.56 733.44c39.453 6.393 69.234 40.146 69.376 80.881v0.015c0.203 2.293 0.319 4.96 0.319 7.654 0 37.934-22.983 70.501-55.784 84.534l-0.599 0.228c-10.1 4.609-21.907 7.295-34.341 7.295-27.823 0-52.505-13.45-67.897-34.203l-0.161-0.227c-31.744-47.616-57.6-98.816-86.272-146.688l8.448-12.032c56.064 3.84 111.872 5.12 166.912 12.544zM284.16 733.696c55.808-7.424 112.384-8.704 168.704-12.8l7.936 11.264c-28.672 51.2-55.040 102.4-87.040 149.248-15.295 20.189-39.288 33.097-66.295 33.097-13.737 0-26.694-3.339-38.103-9.251l0.462 0.218c-32.149-14.395-54.143-46.108-54.143-82.957 0-3.785 0.232-7.515 0.683-11.178l-0.044 0.439c1.092-39.256 29.812-71.491 67.354-78.010l0.486-0.070zM429.824 481.28h164.864v193.536h-164.864z" />
<glyph unicode="&#xe927;" glyph-name="arrow-right" d="M594.448 225.014c-12.496-12.499-32.758-12.499-45.254 0l-15.162 15.162c-12.499 12.496-12.499 32.758 0 45.254l115.424 115.424h-401.476c-17.673 0-32 14.326-32 32v21.44c0 17.674 14.327 32 32 32h401.968l-115.917 115.917c-12.496 12.499-12.496 32.758 0 45.256l15.162 15.16c12.496 12.497 32.758 12.497 45.254 0l196.179-196.18c12.496-12.496 12.496-32.758 0-45.254l-196.179-196.179z" />
<glyph unicode="&#xe928;" glyph-name="users" horiz-adv-x="1229" d="M184.32 529.919c67.776 0 122.88 55.104 122.88 122.88s-55.104 122.88-122.88 122.88c-67.776 0-122.88-55.104-122.88-122.88s55.104-122.88 122.88-122.88zM1044.48 529.919c67.779 0 122.88 55.104 122.88 122.88s-55.101 122.88-122.88 122.88c-67.773 0-122.88-55.104-122.88-122.88s55.107-122.88 122.88-122.88zM1105.92 468.479h-122.88c-33.792 0-64.317-13.632-86.589-35.711 77.373-42.435 132.285-119.040 144.189-210.048h126.72c33.987 0 61.44 27.453 61.44 61.44v61.44c0 67.773-55.101 122.879-122.88 122.879zM614.4 468.479c118.851 0 215.040 96.192 215.040 215.040s-96.189 215.040-215.040 215.040c-118.848 0-215.040-96.192-215.040-215.040s96.192-215.040 215.040-215.040zM761.856 407.040h-15.933c-39.936-19.2-84.291-30.72-131.523-30.72s-91.392 11.52-131.52 30.72h-15.936c-122.112 0-221.184-99.072-221.184-221.184v-55.296c0-50.883 41.28-92.16 92.16-92.16h552.96c50.883 0 92.16 41.277 92.16 92.16v55.296c0 122.112-99.072 221.184-221.184 221.184zM332.352 432.768c-22.272 22.079-52.8 35.711-86.592 35.711h-122.88c-67.776 0-122.88-55.106-122.88-122.879v-61.44c0-33.987 27.456-61.44 61.44-61.44h126.528c12.096 91.008 67.008 167.613 144.384 210.048z" />
<glyph unicode="&#xe929;" glyph-name="wallet-filled" d="M819.802 649.143h-571.802c-13.26 0-24 11.251-24 25.143s10.74 25.143 24 25.143h576c13.261 0 24 11.251 24 25.143 0 41.659-32.235 75.429-72 75.429h-552c-53.025 0-96-45.021-96-100.571v-502.859c0-55.548 42.975-100.57 96-100.57h595.802c42.027 0 76.198 33.835 76.198 75.43v402.284c0 41.596-34.172 75.429-76.198 75.429zM752 322.287c-26.505 0-48 22.519-48 50.283 0 27.767 21.495 50.287 48 50.287s48-22.519 48-50.287c0-27.763-21.495-50.283-48-50.283z" />
<glyph unicode="&#xe92a;" glyph-name="checkmark-circle-filled" d="M512-64c282.769 0 512 229.231 512 512s-229.231 512-512 512c-282.77 0-512-229.23-512-512s229.23-512 512-512zM198.693 419.972l90.51 90.513 128-128 336.159 336.155 90.509-90.51-426.668-426.668-218.51 218.509z" />
<glyph unicode="&#xe92b;" glyph-name="key" horiz-adv-x="1920" d="M1015.469 618.667c-69.971 198.826-259.411 341.333-482.133 341.333-282.453 0-512-229.547-512-512 0-282.451 229.547-512 512-512 222.722 0 412.162 142.509 482.133 341.331h371.2v-341.331h341.331v341.331h170.669v341.336h-883.2zM533.336 277.331c-93.866 0-170.666 76.802-170.666 170.669s76.8 170.667 170.666 170.667c93.867 0 170.664-76.8 170.664-170.667s-76.797-170.669-170.664-170.669z" />
<glyph unicode="&#xe92c;" glyph-name="percentage" d="M362.667 645.818c-26.778 0-48.485-21.707-48.485-48.485s21.707-48.485 48.485-48.485c26.778 0 48.485 21.707 48.485 48.485s-21.707 48.485-48.485 48.485zM661.333 347.153c-26.778 0-48.486-21.709-48.486-48.486s21.709-48.486 48.486-48.486c26.778 0 48.486 21.709 48.486 48.486s-21.709 48.486-48.486 48.486zM512-64c282.769 0 512 229.231 512 512s-229.231 512-512 512c-282.77 0-512-229.23-512-512s229.23-512 512-512zM256 597.333c0 58.91 47.756 106.667 106.667 106.667s106.667-47.756 106.667-106.667c0-58.91-47.756-106.667-106.667-106.667s-106.667 47.756-106.667 106.667zM554.667 298.667c0 58.91 47.757 106.667 106.667 106.667s106.667-47.757 106.667-106.667c0-58.91-47.757-106.667-106.667-106.667s-106.667 47.757-106.667 106.667zM768 652.8l-460.8-460.8-51.2 51.2 460.8 460.8 51.2-51.2z" />
<glyph unicode="&#xe92d;" glyph-name="plus-in-circle-filled" d="M511.999 922.074c-261.689 0-474.074-212.385-474.074-474.074s212.385-474.072 474.074-474.072c261.689 0 474.073 212.383 474.073 474.072s-212.383 474.074-474.073 474.074zM749.039 400.592h-189.632v-189.631h-94.814v189.631h-189.63v94.815h189.63v189.629h94.814v-189.629h189.632v-94.815z" />
<glyph unicode="&#xe92e;" glyph-name="credit-card-sb" horiz-adv-x="1280" d="M1152 960h-1024c-71.040 0-127.36-56.96-127.36-128l-0.64-768c0-71.040 56.96-128 128-128h1024c71.040 0 128 56.96 128 128v768c0 71.040-56.96 128-128 128zM1152 64h-1024v384h1024v-384zM1152 704h-1024v128h1024v-128z" />
<glyph unicode="&#xe92f;" glyph-name="spade" d="M903.177 552.296c-217.705 173.827-360.934 355.556-391.489 407.704-30.556-52.148-173.785-233.876-391.491-407.704-145.139-126.42-162.326-292.345-32.466-395.062 124.132-101.136 273.090-30.025 359.026 25.284-1.91-36.346-17.187-143.803-137.499-246.519h408.679c-122.222 102.716-137.499 211.753-137.499 246.519 84.027-55.309 232.985-126.42 359.023-25.284 126.046 102.717 108.86 270.223-36.284 395.062z" />
<glyph unicode="&#xe930;" glyph-name="xlm" d="M741.67 649.223l-449.186-228.804c-1.259 9.597-1.892 19.267-1.896 28.947 0.051 38.621 10.191 76.557 29.415 110.054 19.226 33.494 46.867 61.389 80.186 80.914 33.322 19.526 71.165 30.009 109.786 30.409 38.618 0.4 76.672-9.296 110.39-28.127l50.688 25.832c-40.406 29.328-88.134 46.913-137.91 50.811s-99.661-6.042-144.141-28.722c-44.48-22.68-81.823-57.216-107.902-99.792s-39.878-91.533-39.873-141.462c0-6.896 0.262-13.763 0.785-20.605 0.733-9.69-1.416-19.376-6.176-27.846s-11.92-15.344-20.577-19.757l-23.26-11.859v-55.318l640 326.12v55.292l-90.33-46.086zM832 584.614l-640-325.958v-55.264l539.651 274.97c1.261-9.661 1.891-19.392 1.894-29.136-0.022-38.666-10.16-76.653-29.402-110.189-19.245-33.536-46.925-61.456-80.291-80.989-33.37-19.533-71.267-29.997-109.933-30.358-38.662-0.358-76.749 9.402-110.474 28.314l-2.707-1.437-47.818-24.368c40.397-29.328 88.115-46.918 137.885-50.826 49.766-3.91 99.645 6.019 144.125 28.682 44.48 22.666 81.83 57.184 107.92 99.744 26.090 42.563 39.907 91.507 39.923 141.427 0 6.96-0.272 13.92-0.787 20.797-0.73 9.683 1.414 19.37 6.17 27.84 4.755 8.467 11.907 15.344 20.557 19.76l23.286 11.862v55.13z" />
<glyph unicode="&#xe931;" glyph-name="parachute" horiz-adv-x="768" d="M354.178 204.325c16.611-16.433 43.034-16.433 59.644 0l329.516 325.952c16.609 16.43 26.425 39.075 24.399 62.57-17.761 205.856-182.784 367.153-383.737 367.153s-365.976-161.298-383.737-367.153c-2.027-23.495 7.789-46.14 24.398-62.57l329.516-325.952zM283.657 616.016c-4.763-8.909-5.001-19.423-1.924-29.047l92.107-288.004c3.163-9.891 17.156-9.891 20.319 0l92.107 288.004c3.077 9.624 2.84 20.138-1.924 29.047-21.542 40.294-58.441 66.862-100.343 66.862s-78.8-26.567-100.343-66.862zM462.020 327.667c-3.193-3.304-8.638 0.082-7.084 4.409l82.706 230.157c20.482 44.219 58.428 74.459 106.253 74.459 16.861 0 32.934-3.76 47.574-10.564 21.517-10.002 21.584-38.63 4.994-55.803l-234.443-242.659zM230.358 562.233l82.706-230.157c1.554-4.326-3.891-7.713-7.084-4.409l-234.443 242.659c-16.591 17.172-16.523 45.8 4.994 55.803 14.64 6.804 30.712 10.564 47.574 10.564 47.825 0 85.771-30.241 106.253-74.459zM490.666 42.666c0-58.909-47.755-106.666-106.666-106.666s-106.666 47.757-106.666 106.666c0 58.911 47.755 106.668 106.666 106.668s106.666-47.757 106.666-106.668z" />
<glyph unicode="&#xe932;" glyph-name="padlock" horiz-adv-x="780" d="M682.667 618.667h-48.762v97.524c0 134.583-109.227 243.81-243.81 243.81s-243.81-109.227-243.81-243.81v-97.524h-48.762c-53.638 0-97.524-43.886-97.524-97.524v-487.619c0-53.638 43.886-97.524 97.524-97.524h585.143c53.638 0 97.524 43.886 97.524 97.524v487.619c0 53.638-43.886 97.524-97.524 97.524zM390.095 179.81c-53.638 0-97.524 43.886-97.524 97.524s43.886 97.524 97.524 97.524c53.638 0 97.524-43.886 97.524-97.524s-43.886-97.524-97.524-97.524zM541.257 618.667h-302.324v97.524c0 83.383 67.779 151.162 151.162 151.162s151.162-67.779 151.162-151.162v-97.524z" />
<glyph unicode="&#xe933;" glyph-name="line-graph-up" horiz-adv-x="986" d="M381.982 400.126c-14.81 14.81-38.823 14.81-53.634 0l-209.969-209.969c-14.811-14.81-38.824-14.81-53.635 0s-14.811 38.825 0 53.635l236.787 236.787c29.622 29.624 77.648 29.624 107.269 0l97.030-97.026c14.81-14.81 38.825-14.81 53.635 0l308.232 308.231c14.81 14.811 38.825 14.811 53.635 0s14.81-38.824 0-53.635l-335.049-335.048c-29.624-29.624-77.65-29.624-107.27 0l-97.030 97.026z" />
<glyph unicode="&#xe934;" glyph-name="email" d="M853.334 789.334h-682.665c-46.933 0-84.907-38.4-84.907-85.333l-0.427-512.001c0-46.931 38.4-85.331 85.333-85.331h682.665c46.934 0 85.334 38.4 85.334 85.331v512.001c0 46.933-38.4 85.333-85.334 85.333zM853.334 618.669l-341.331-213.334-341.334 213.334v85.332l341.334-213.332 341.331 213.332v-85.332z" />
<glyph unicode="&#xe935;" glyph-name="arrow-down-circle" d="M512 21.333c235.639 0 426.667 191.027 426.667 426.667 0 235.642-191.027 426.667-426.667 426.667-235.642 0-426.667-191.025-426.667-426.667 0-235.639 191.025-426.667 426.667-426.667zM722.88 493.12l45.12-45.12-256-256-256 256 45.44 45.44 178.56-178.88v389.44h64v-389.44l178.88 178.56z" />
<glyph unicode="&#xe936;" glyph-name="arrow-up-circle" d="M512 21.333c235.639 0 426.667 191.027 426.667 426.667 0 235.642-191.027 426.667-426.667 426.667-235.642 0-426.667-191.025-426.667-426.667 0-235.639 191.025-426.667 426.667-426.667zM301.12 402.88l-45.12 45.12 256 256 256-256-45.44-45.44-178.56 178.88v-389.44h-64v389.44l-178.88-178.56z" />
<glyph unicode="&#xe937;" glyph-name="chevron-up" d="M695.253 289.92l60.16 60.16-256 256-256.002-256 60.16-60.16 195.842 195.413 195.84-195.413z" />
<glyph unicode="&#xe938;" glyph-name="chevron-up-large" d="M890.598 293.265l-74.526-74.53-309.474 309.474-309.472-309.474-74.527 74.53 384 383.998 384-383.998z" />
<glyph unicode="&#xe939;" glyph-name="cloud" d="M825.6 531.733c-29.013 147.2-158.293 257.707-313.6 257.707-123.307 0-230.4-69.973-283.733-172.373-128.427-13.653-228.267-122.453-228.267-254.293 0-141.227 114.773-256 256-256h554.667c117.76 0 213.333 95.573 213.333 213.333 0 112.64-87.467 203.947-198.4 211.627z" />
<glyph unicode="&#xe93a;" glyph-name="chevron-right" d="M426.665 704l-60.16-60.16 195.415-195.84-195.415-195.84 60.16-60.16 256.001 256-256.001 256z" />
<glyph unicode="&#xe93b;" glyph-name="chevron-right-large" d="M351.865 832l-74.527-74.527 309.474-309.473-309.474-309.474 74.527-74.526 383.999 384-383.999 384z" />
<glyph unicode="&#xe93c;" glyph-name="chevron-left" d="M657.493 643.84l-60.16 60.16-256-256 256-256 60.16 60.16-195.413 195.84 195.413 195.84z" />
<glyph unicode="&#xe93d;" glyph-name="sync-regular" d="M1000 944h-55.422c-13.478 0-24.314-11.096-23.994-24.572l4.694-197.15c-88.854 133.636-240.766 221.722-413.278 221.722-242.374 0-444.134-173.848-487.408-403.648-2.776-14.738 8.616-28.352 23.614-28.352h57.152c11.348 0 21.084 7.964 23.474 19.058 38.050 176.686 195.002 308.942 383.168 308.942 159.090 0 295.884-94.564 357.352-230.604l-252.78 6.018c-13.474 0.32-24.572-10.514-24.572-23.994v-55.42c0-13.254 10.746-24 24-24h384c13.254 0 24 10.746 24 24v384c0 13.254-10.746 24-24 24zM975.794 384h-57.152c-11.348 0-21.084-7.964-23.474-19.058-38.050-176.686-195.002-308.942-383.168-308.942-159.092 0-295.884 94.564-357.352 230.604l252.78-6.018c13.474-0.32 24.572 10.514 24.572 23.994v55.42c0 13.254-10.746 24-24 24h-384c-13.254 0-24-10.746-24-24v-384c0-13.254 10.746-24 24-24h55.422c13.478 0 24.314 11.096 23.994 24.572l-4.694 197.15c88.854-133.636 240.766-221.722 413.278-221.722 242.374 0 444.134 173.848 487.408 403.648 2.776 14.738-8.616 28.352-23.614 28.352z" />
<glyph unicode="&#xe93e;" glyph-name="chevron-left-large" d="M661.333 832l74.526-74.527-309.472-309.473 309.472-309.474-74.526-74.526-384 384 384 384z" />
<glyph unicode="&#xe93f;" glyph-name="chevron-down" d="M780.582 545.92l-60.16 60.16-195.84-195.413-195.839 195.413-60.16-60.16 255.999-256 256 256z" />
<glyph unicode="&#xe940;" glyph-name="chevron-down-large" d="M890.598 602.737l-74.526 74.527-309.474-309.472-309.472 309.472-74.527-74.527 384-384.002 384 384.002z" />
<glyph unicode="&#xe941;" glyph-name="credit-card" d="M825.856 787.968h14.336c30.208 0 60.416 0 90.368 0 0.042 0 0.091 0 0.141 0 43.557 0 80.134-29.885 90.345-70.268l0.138-0.644c0.961-2.803 1.913-5.087 2.986-7.301l-0.17 0.389v-525.312c-7.438-17.305-14.974-31.766-23.422-45.608l0.894 1.576c-13.439-16.731-32.179-28.716-53.645-33.421l-0.627-0.115h-870.4s0 0-2.048 0c-43.454 10.46-75.241 48.995-75.241 94.954 0 3.434 0.177 6.826 0.524 10.169l-0.035-0.418c0 102.4 0 156.416 0 257.536v78.336c0 45.312 1.536 90.624 0 135.68-0.106 1.721-0.167 3.733-0.167 5.759 0 54.999 44.585 99.584 99.584 99.584 1.769 0 3.528-0.046 5.275-0.137l-0.244 0.010c195.072-1.792 390.4 0 585.472 0h135.936zM982.528 473.6h-939.52c0-1.792 0-32.768 0-33.536 0-80.128 0-174.080 0-254.208 1.196-11.292 6.909-21.054 15.271-27.581l0.089-0.067c8.541-5.036 18.817-8.011 29.789-8.011 1.048 0 2.089 0.027 3.124 0.081l-0.145-0.006c272.64 0 574.464 0 847.104 0 1.487-0.199 3.206-0.312 4.951-0.312 21.773 0 39.424 17.651 39.424 39.424 0 0.92-0.032 1.834-0.094 2.738l0.007-0.122c0 67.584 0 149.248 0 216.832 0 11.776 0 52.736 0 64.768zM42.24 514.56h939.264v71.424h-939.264zM42.24 627.968h939.52c0 25.6 0 62.72 0 87.296-1.008 12.007-9.085 21.892-20.016 25.54l-0.208 0.060c-8.588 2.929-18.482 4.619-28.77 4.619-0.506 0-1.010-0.004-1.514-0.012l0.076 0.001h-844.8c-1.921 0.341-4.132 0.535-6.389 0.535-19.682 0-35.906-14.808-38.138-33.891l-0.017-0.18c-1.024-23.296-0.256-59.136-0.256-84.736zM752.64 273.152h68.352c17.92 0 29.44-4.864 29.696-20.736s-10.496-20.224-28.16-20.48q-70.912 0-142.080 0c-17.152 0-29.184 5.376-28.416 20.736s13.056 20.224 30.72 20.48z" />
<glyph unicode="&#xe942;" glyph-name="dollars" d="M1024 286.976l-45.568 220.416c12.788 7.358 21.26 20.946 21.26 36.512 0 7.561-1.998 14.654-5.496 20.782l0.108-0.206-45.824 80.64c-1.929 7.875-5.875 14.646-11.26 19.964l-0.004 0.004-122.88 218.112c-7.358 12.788-20.946 21.26-36.512 21.26-7.561 0-14.654-1.998-20.782-5.496l0.206 0.108-641.536-364.544h-10.24c-1.366 0.158-2.949 0.248-4.553 0.248-20.009 0-36.749-13.998-40.962-32.735l-0.053-0.28-38.656-22.016c-12.788-7.358-21.26-20.946-21.26-36.512 0-7.561 1.998-14.654 5.496-20.782l-0.108 0.206 37.376-65.792-25.6-221.696c-0.116-1.171-0.182-2.531-0.182-3.907 0-21.356 15.946-38.988 36.581-41.64l0.209-0.022 66.048-7.68c7.736-10.335 19.948-16.952 33.706-16.952 2.93 0 5.79 0.3 8.55 0.871l-0.272-0.047 34.56 7.168 698.112-80.64c1.467-0.182 3.165-0.285 4.887-0.285 21.484 0 39.198 16.136 41.685 36.95l0.019 0.199 23.552 202.752 25.6 5.376c19.809 3.621 34.627 20.747 34.627 41.334 0 2.948-0.304 5.826-0.882 8.602l0.047-0.272zM956.16 436.224c-2.664 1.038-5.774 1.845-9.002 2.28l-0.214 0.024-76.544 9.472-57.344 6.656-169.984 18.944h-5.888c-26.759 28.662-64.767 46.528-106.947 46.528-10.444 0-20.632-1.095-30.456-3.177l0.955 0.17-5.376-1.28c-7.773-1.943-14.342-4.134-20.688-6.757l0.976 0.357-6.144-2.56c-7.912-3.67-14.628-7.511-20.982-11.843l0.502 0.323-21.504 2.56-143.36 16.64 72.192 14.848 526.336 109.056c1.874 0.414 4.027 0.65 6.235 0.65 14.558 0 26.71-10.298 29.571-24.006l0.034-0.196 18.688-90.112 7.168-35.072zM431.36 588.032l17.664 9.984 7.168-12.544-20.992-4.352zM752.896 857.6c4.126 2.252 9.037 3.577 14.258 3.577 11.326 0 21.196-6.233 26.367-15.456l0.078-0.152 96.512-170.24-301.312-62.72c-24.465 19.105-55.657 30.634-89.541 30.634-54.871 0-102.68-30.233-127.679-74.95l-0.38-0.74-194.816-39.936h-3.328zM906.496 56.064c-2.217-14.69-14.752-25.821-29.888-25.821-1.286 0-2.553 0.080-3.797 0.236l0.148-0.015-678.144 77.056h-10.752l-32 5.12-43.776 5.12-25.6 3.072c-14.69 2.217-25.821 14.752-25.821 29.888 0 1.286 0.080 2.553 0.236 3.797l-0.015-0.148 14.592 140.032v10.24l12.288 104.448 8.448 64.512c1.953 14.435 14.132 25.465 28.914 25.6h0.014c0.651 0.054 1.41 0.084 2.176 0.084s1.525-0.031 2.275-0.091l-0.099 0.006 372.736-43.264h7.424l54.272-6.4h7.68l349.952-40.448c14.69-2.217 25.821-14.752 25.821-29.888 0-1.286-0.080-2.553-0.236-3.797l0.015 0.148-13.312-113.92-4.096-35.584zM968.96 268.8l7.424 65.024 6.912-33.024c0.395-1.825 0.622-3.922 0.622-6.071 0-11.021-5.952-20.651-14.817-25.852l-0.141-0.076zM474.112 310.528c-0.146-0.847-0.229-1.822-0.229-2.816s0.083-1.969 0.244-2.918l-0.014 0.102c2.227-7.443 7.545-13.348 14.426-16.32l0.166-0.064v9.472l3.072 25.6c-9.472 0.256-16.64-3.584-17.664-13.056zM521.472 228.352v0c0.069 0.594 0.108 1.283 0.108 1.981 0 5.7-2.624 10.788-6.731 14.121l-0.034 0.027c-2.829 2.626-6.024 4.922-9.483 6.791l-0.245 0.121-1.536-13.312v-7.936l-2.048-18.176c10.496 1.536 18.688 7.168 19.968 16.384zM638.464 314.88c-16.873 47.523-56.264 83.19-104.995 94.526l-0.989 0.194h-3.072l-12.288 2.048h-34.56c-27.952-3.42-52.858-14.35-73.246-30.685l0.286 0.221c-34.342-27.002-56.196-68.549-56.196-115.2s21.854-88.198 55.882-114.962l0.314-0.238c13.417-10.967 29.171-19.695 46.334-25.309l1.026-0.291c12.968-4.183 27.887-6.594 43.369-6.594 80.589 0 145.92 65.331 145.92 145.92 0 6.385-0.41 12.675-1.205 18.843l0.077-0.73c-1.095 11.904-3.449 22.856-6.955 33.28l0.299-1.024zM474.88 166.4l2.816 23.296c-13.221 2.823-24.896 7.979-35.139 15.059l0.323-0.211c-7.296 4.832-13.603 10.325-19.113 16.54l-0.087 0.1 12.288 18.688 2.304 3.328 1.28-1.28c8.189-9.181 18.053-16.671 29.14-22.029l0.556-0.243c3.211-1.576 7.033-3.057 10.991-4.219l0.529-0.133 1.28 11.52v9.984l2.816 24.32-7.168 3.072c-19.712 8.96-38.144 20.992-35.072 48.128s23.552 38.4 52.736 38.4v0l1.792 15.616c5.549-1.18 12.375-2.177 19.315-2.771l0.653-0.045-1.28-11.776v-4.096l5.632-1.536c8.597-2.362 16.080-5.419 23.087-9.239l-0.559 0.279c4.808-2.555 8.912-5.186 12.783-8.109l-0.239 0.173 4.096-3.072-13.824-22.528c-7.366 5.886-15.813 10.88-24.916 14.601l-0.684 0.247-7.168 3.072v-1.536l-3.072-25.6-1.536-13.312c12.65-4.746 23.53-11.427 32.864-19.797l-0.096 0.085c6.609-6.737 10.688-15.976 10.688-26.167 0-1.333-0.070-2.65-0.206-3.947l0.014 0.162s0-2.048 0-3.072c-3.862-23.040-23.656-40.379-47.5-40.379-2.298 0-4.558 0.161-6.771 0.473l0.255-0.029-2.048-16.896z" />
<glyph unicode="&#xe943;" glyph-name="magnifier" d="M670.015 374.687c43.816 60.83 69.541 135.348 69.541 215.535 0 204.231-165.547 369.778-369.778 369.778s-369.778-165.547-369.778-369.778c0-204.231 165.547-369.778 369.778-369.778 80.166 0 154.666 25.714 215.489 69.513l324.955-324.944 84.764 84.764-324.972 324.91zM369.778 334.222c-141.653 0-256 114.347-256 256s114.347 256 256 256c141.653 0 256-114.347 256-256s-114.347-256-256-256z" />
<glyph unicode="&#xe944;" glyph-name="borrow" d="M460.8 960v-1024c-259.584 25.6-460.8 245.248-460.8 512s201.216 486.4 460.8 512zM564.736 960v-460.288h459.264c-24.064 242.688-217.088 436.224-459.264 460.288zM564.736 396.288v-460.288c242.688 24.064 435.2 217.6 459.264 460.288h-459.264z" />
<glyph unicode="&#xe945;" glyph-name="timer" horiz-adv-x="975" d="M975.238 729.851l-224.305 188.221-62.903-74.606 224.305-188.221 62.903 74.606zM286.72 843.466l-62.415 74.606-224.305-187.733 62.903-74.606 223.817 187.733zM512 618.673h-73.143v-292.573l231.619-138.971 36.571 59.977-195.048 115.566v256.002zM487.619 813.721c-242.347 0-438.857-196.51-438.857-438.859 0-242.347 196.023-438.857 438.857-438.857 242.347 0 438.857 196.51 438.857 438.857 0 242.349-196.51 438.859-438.857 438.859zM487.619 33.529c-188.709 0-341.333 152.625-341.333 341.333 0 188.711 152.625 341.335 341.333 341.335s341.333-152.625 341.333-341.335c0-188.709-152.625-341.333-341.333-341.333z" />
<glyph unicode="&#xe946;" glyph-name="qr-code" d="M0 521.143h438.857v438.857h-438.857v-438.857zM73.143 886.857h292.572v-292.572h-292.572v292.572zM585.142 960v-438.857h438.858v438.857h-438.858zM950.858 594.286h-292.574v292.572h292.574v-292.572zM0-64h438.857v438.858h-438.857v-438.858zM73.143 301.716h292.572v-292.574h-292.572v292.574zM146.286 813.714h146.286v-146.286h-146.286v146.286zM877.716 667.428h-146.29v146.286h146.29v-146.286zM146.286 228.574h146.286v-146.29h-146.286v146.29zM950.858 374.858h73.142v-292.574h-292.574v73.142h-73.142v-219.426h-73.142v438.858h219.432v-73.142h146.284v73.142zM950.858 9.142h73.142v-73.142h-73.142v73.142zM804.574 9.142h73.142v-73.142h-73.142v73.142z" />
<glyph unicode="&#xe947;" glyph-name="ellipsis" horiz-adv-x="3584" d="M512.041 874.672c-234.665 0-426.666-191.999-426.666-426.667s192.001-426.668 426.666-426.668c234.668 0 426.668 192 426.668 426.668s-192 426.667-426.668 426.667zM3072.051 874.672c-234.675 0-426.675-191.999-426.675-426.667s192-426.668 426.675-426.668c234.65 0 426.65 192 426.65 426.668s-192 426.667-426.65 426.667zM1792.041 874.672c-234.665 0-426.665-191.999-426.665-426.667s192-426.668 426.665-426.668c234.668 0 426.668 192 426.668 426.668s-192 426.667-426.668 426.667z" />
<glyph unicode="&#xe948;" glyph-name="keyboard" d="M938.667 96h-853.333c-47.129 0-85.333 39.398-85.333 88v528c0 48.602 38.204 88 85.333 88h853.333c47.13 0 85.333-39.398 85.333-88v-528c0-48.602-38.204-88-85.333-88zM227.555 587.333v73.334c0 12.149-9.552 22-21.333 22h-71.111c-11.782 0-21.333-9.85-21.333-22v-73.334c0-12.149 9.552-22 21.333-22h71.111c11.782 0 21.333 9.85 21.333 22zM398.222 587.333v73.334c0 12.149-9.552 22-21.333 22h-71.111c-11.782 0-21.333-9.85-21.333-22v-73.334c0-12.149 9.552-22 21.333-22h71.111c11.782 0 21.333 9.85 21.333 22zM568.887 587.333v73.334c0 12.149-9.549 22-21.333 22h-71.108c-11.785 0-21.333-9.85-21.333-22v-73.334c0-12.149 9.549-22 21.333-22h71.108c11.785 0 21.333 9.85 21.333 22zM739.554 587.333v73.334c0 12.149-9.549 22-21.333 22h-71.108c-11.785 0-21.333-9.85-21.333-22v-73.334c0-12.149 9.549-22 21.333-22h71.108c11.785 0 21.333 9.85 21.333 22zM910.221 587.333v73.334c0 12.149-9.549 22-21.333 22h-71.108c-11.785 0-21.333-9.85-21.333-22v-73.334c0-12.149 9.549-22 21.333-22h71.108c11.785 0 21.333 9.85 21.333 22zM312.889 411.332v73.335c0 12.147-9.552 21.999-21.333 21.999h-71.111c-11.782 0-21.333-9.852-21.333-21.999v-73.335c0-12.147 9.552-21.999 21.333-21.999h71.111c11.782 0 21.333 9.852 21.333 21.999zM483.554 411.332v73.335c0 12.147-9.549 21.999-21.333 21.999h-71.11c-11.782 0-21.333-9.852-21.333-21.999v-73.335c0-12.147 9.552-21.999 21.333-21.999h71.11c11.785 0 21.333 9.852 21.333 21.999zM654.221 411.332v73.335c0 12.147-9.549 21.999-21.333 21.999h-71.108c-11.785 0-21.333-9.852-21.333-21.999v-73.335c0-12.147 9.549-21.999 21.333-21.999h71.108c11.785 0 21.333 9.852 21.333 21.999zM824.887 411.332v73.335c0 12.147-9.549 21.999-21.333 21.999h-71.108c-11.785 0-21.333-9.852-21.333-21.999v-73.335c0-12.147 9.549-21.999 21.333-21.999h71.108c11.785 0 21.333 9.852 21.333 21.999zM227.555 235.332v73.335c0 12.147-9.552 21.999-21.333 21.999h-71.111c-11.782 0-21.333-9.852-21.333-21.999v-73.335c0-12.147 9.552-21.999 21.333-21.999h71.111c11.782 0 21.333 9.852 21.333 21.999zM739.554 235.332v73.335c0 12.147-9.549 21.999-21.333 21.999h-412.443c-11.782 0-21.333-9.852-21.333-21.999v-73.335c0-12.147 9.552-21.999 21.333-21.999h412.443c11.785 0 21.333 9.852 21.333 21.999zM910.221 235.332v73.335c0 12.147-9.549 21.999-21.333 21.999h-71.108c-11.785 0-21.333-9.852-21.333-21.999v-73.335c0-12.147 9.549-21.999 21.333-21.999h71.108c11.785 0 21.333 9.852 21.333 21.999z" />
<glyph unicode="&#xe949;" glyph-name="lock" d="M739.962 556.8h-41.448v60.58c0 103.48-82.895 188.76-185.996 189.020s-187.032-83.85-187.032-187.2v-62.4h-41.448c-34.324 0-62.171-27.95-62.171-62.4v-291.2c0-34.45 27.848-62.4 62.171-62.4h455.924c34.324 0 62.171 27.95 62.171 62.4v291.2c0 34.45-27.848 62.4-62.171 62.4zM387.657 619.2c0 68.77 55.825 124.8 124.343 124.8s124.343-56.030 124.343-124.8v-62.4h-248.686v62.4zM739.962 203.2h-455.924v291.2h455.924v-291.2z" />
<glyph unicode="&#xe94a;" glyph-name="qr-scanner" d="M139.636 680.727v-124.121c0-8.569 6.946-15.515 15.515-15.515s15.515 6.946 15.515 15.515v124.121c0 59.982 48.624 108.606 108.606 108.606h124.121c8.569 0 15.515 6.946 15.515 15.515s-6.946 15.515-15.515 15.515h-124.121c-77.119 0-139.636-62.518-139.636-139.636zM605.091 804.849c0-8.569 6.949-15.515 15.514-15.515h124.123c59.983 0 108.605-48.624 108.605-108.606v-124.121c0-8.569 6.949-15.515 15.518-15.515 8.564 0 15.514 6.946 15.514 15.515v124.121c0 77.119-62.515 139.636-139.636 139.636h-124.123c-8.564 0-15.514-6.946-15.514-15.515zM155.151 354.909c-8.569 0-15.515-6.949-15.515-15.514v-124.123c0-77.121 62.518-139.636 139.636-139.636h124.121c8.569 0 15.515 6.949 15.515 15.514 0 8.569-6.946 15.518-15.515 15.518h-124.121c-59.982 0-108.606 48.621-108.606 108.605v124.123c0 8.564-6.946 15.514-15.515 15.514zM868.85 354.909c-8.569 0-15.518-6.949-15.518-15.514v-124.123c0-59.983-48.621-108.605-108.605-108.605h-124.123c-8.564 0-15.514-6.949-15.514-15.518 0-8.564 6.949-15.514 15.514-15.514h124.123c77.121 0 139.636 62.515 139.636 139.636v124.123c0 8.564-6.949 15.514-15.514 15.514zM543.032 416.968v-217.209h31.027v124.118h62.064v-31.027h124.118v124.118h-31.027v-62.059h-62.064v62.059h-124.118zM667.15 261.818h-62.059v-62.059h62.059v62.059zM698.182 199.759v62.059h62.059c0-34.276-27.783-62.059-62.059-62.059zM325.818 634.182v-93.091h93.091v93.091h-93.091zM263.758 634.182c0 34.275 27.785 62.060 62.060 62.060h155.15v-217.21h-217.21v155.15zM325.818 354.909h93.091v-93.091h-93.091v93.091zM263.758 261.818c0-34.276 27.785-62.059 62.060-62.059h155.15v217.209h-217.21v-155.15zM698.182 634.182h-93.091v-93.091h93.091v93.091zM698.182 696.242c34.276 0 62.059-27.785 62.059-62.060v-155.15h-217.209v217.21h155.15z" />
<glyph unicode="&#xe94b;" glyph-name="lock-circle" d="M512-64c282.771 0 512 229.229 512 512s-229.229 512-512 512c-282.77 0-512-229.23-512-512s229.23-512 512-512zM665.6 566.4c31.814 0 57.6-25.788 57.6-57.6v-259.2c0-31.814-25.786-57.6-57.6-57.6h-288c-31.812 0-57.6 25.786-57.6 57.6v259.2c0 31.812 25.788 57.6 57.6 57.6v57.6c0 79.529 64.471 144 144 144s144-64.471 144-144v-57.6zM435.2 566.4v57.6c0 47.717 38.683 86.4 86.4 86.4s86.4-38.683 86.4-86.4v-57.6h-172.8zM579.2 379.228c0-31.812-25.788-57.6-57.6-57.6s-57.6 25.788-57.6 57.6c0 31.812 25.788 57.6 57.6 57.6s57.6-25.788 57.6-57.6z" />
<glyph unicode="&#xe94c;" glyph-name="plus" d="M501.437 704c-17.674 0-32-14.327-32-32v-181.28h-181.281c-17.673 0-32-14.33-32-32v-21.44c0-17.674 14.327-32 32-32h181.281v-181.28c0-17.674 14.326-32 32-32h21.44c17.674 0 32 14.326 32 32v181.28h181.28c17.674 0 32 14.326 32 32v21.44c0 17.67-14.326 32-32 32h-181.28v181.28c0 17.673-14.326 32-32 32h-21.44z" />
<glyph unicode="&#xe94d;" glyph-name="bars-circle" d="M512 960c-282.504 0-512-229.496-512-512s229.496-512 512-512c282.504 0 512 229.496 512 512s-229.496 512-512 512zM451.765 267.294c0-49.995-40.358-90.353-90.353-90.353h-90.353c-49.995 0-90.353 40.358-90.353 90.353v210.824c0 49.995 40.358 90.353 90.353 90.353h90.353c49.995 0 90.353-40.358 90.353-90.353v-210.824zM783.059 267.294c0-49.995-40.358-90.353-90.353-90.353h-90.353c-49.995 0-90.353 40.358-90.353 90.353v421.647c0 49.995 40.358 90.353 90.353 90.353h90.353c49.995 0 90.353-40.358 90.353-90.353v-421.647z" />
<glyph unicode="&#xe94e;" glyph-name="minus" d="M768.157 458.72v-21.44c0-17.673-14.327-32-32-32h-448c-17.673 0-32 14.327-32 32v21.44c0 17.673 14.327 32 32 32h448c17.673 0 32-14.327 32-32z" />
<glyph unicode="&#xe94f;" glyph-name="icon-home" d="M338.048 21.333c24.507 0 44.373 19.867 44.373 44.373v0 214.059c0 24.533 19.883 44.373 44.373 44.373h170.837c24.491 0 44.373-19.84 44.373-44.373v-214.059c0-24.491 19.84-44.373 44.373-44.373h170.795c24.507 0 44.373 19.867 44.373 44.373v0 474.581c0 0.002 0 0.004 0 0.006 0 28.387-13.328 53.661-34.067 69.906l-0.194 0.146-327.851 254.933c-7.438 5.829-16.929 9.347-27.243 9.347s-19.805-3.518-27.34-9.42l0.097 0.073-327.808-254.933c-20.934-16.391-34.261-41.665-34.261-70.052 0-0.002 0-0.004 0-0.007v0-474.581c0-24.491 19.84-44.373 44.373-44.373h170.795z" />
<glyph unicode="&#xe950;" glyph-name="market-up" d="M682.662 704l97.709-97.707-208.212-208.213-170.667 170.667-316.16-316.587 60.16-60.16 256 256 170.667-170.669 268.801 268.376 97.702-97.707v256h-256z" />
<glyph unicode="&#xe951;" glyph-name="trash" d="M857.6 857.6c-14.336 0-28.672 0-43.008 0h-162.304c0 13.056 0 25.6 0 38.912 0.157 1.61 0.247 3.481 0.247 5.373 0 22.858-13.082 42.661-32.168 52.329l-0.335 0.154c-7.359 3.556-16.004 5.634-25.134 5.634-0.164 0-0.328-0.001-0.491-0.002h-160.743c-0.391 0.008-0.853 0.012-1.315 0.012-12.678 0-24.579-3.327-34.878-9.156l0.353 0.184c-8.161-4.496-14.651-11.151-18.824-19.201l-0.12-0.255c-4.054-10.389-6.404-22.417-6.404-34.994 0-0.298 0.001-0.595 0.004-0.892v0.045c0-12.032 0-25.6 0-37.888h-201.472c-60.928-0.256-49.92-42.24-5.376-42.24h20.48c2.816-30.976 5.632-60.416 8.192-90.624q6.656-74.496 13.312-149.248c4.352-48.384 8.448-96.768 12.8-145.152s8.96-97.536 13.312-146.176 8.448-95.488 12.8-143.36c4.608-51.2 8.704-104.192 14.336-156.16 1.98-20.335 15.136-37.171 33.178-44.417l0.358-0.127 10.24-4.352h401.152c0.065 0 0.142 0 0.219 0 13.633 0 26.258 4.314 36.585 11.652l-0.195-0.132c14.625 12.155 23.868 30.35 23.868 50.704 0 0.985-0.022 1.964-0.064 2.938l0.005-0.139c7.68 89.6 15.872 179.2 23.808 268.544s14.848 171.776 22.528 257.536c6.912 78.336 14.336 156.416 21.248 234.752 1.536 17.92 0 37.632 2.048 56.32 7.424 0 16.384 0 23.040 0 13.312 0 32 2.816 32 19.456s-13.056 19.968-33.28 19.968zM413.696 871.68c0 12.544 0 46.592 41.728 46.592h118.528c32.768 0 36.608-35.072 36.864-49.664 0-2.56 0-3.84 0-4.608s0 0 0-5.632h-197.12c-0.118 1.989-0.185 4.315-0.185 6.656s0.067 4.667 0.2 6.976l-0.015-0.32zM792.064 756.48q-6.656-74.496-13.312-149.248t-13.312-146.176c-4.352-48.384-8.448-96.768-12.8-145.152s-8.96-97.536-13.312-146.176-8.448-75.264-12.8-123.136c0-9.984-4.864-42.752-5.888-52.736-1.536-14.336-21.248-16.128-36.096-16.128h-322.816c-17.408 0-58.88 0-60.416 17.92-6.4 73.984-13.312 151.296-19.712 225.024s-12.288 142.080-18.688 212.992-12.8 141.824-19.2 212.992c-4.864 53.504-17.408 166.4-17.408 170.24h567.296c0-20.224 0-40.704-1.536-60.16zM570.624 92.416c2.111-7.563 8.939-13.019 17.042-13.019 2.344 0 4.581 0.457 6.628 1.286l-0.118-0.042c9.599 0.706 17.12 8.667 17.12 18.385 0 1.011-0.081 2.002-0.238 2.969l0.014-0.106q0 134.4 0 268.544t0 267.776c0.251 1.692 0.394 3.645 0.394 5.632s-0.143 3.94-0.42 5.85l0.026-0.218c-2.816 9.472-9.728 14.592-23.040 12.288s-17.408-8.448-17.408-21.76q0-268.544 0-537.6c-0.236-1.5-0.371-3.23-0.371-4.992s0.135-3.492 0.395-5.181l-0.024 0.189zM414.208 92.416c2.111-7.563 8.939-13.019 17.042-13.019 2.344 0 4.581 0.457 6.628 1.286l-0.118-0.042c9.599 0.706 17.12 8.667 17.12 18.385 0 1.011-0.081 2.002-0.238 2.969l0.014-0.106q0 134.4 0 268.544t0 267.776c0.251 1.692 0.394 3.645 0.394 5.632s-0.143 3.94-0.42 5.85l0.026-0.218c-2.816 9.472-9.728 14.592-23.040 12.288s-17.408-8.448-17.408-21.76q0-268.544 0-537.6c-0.236-1.5-0.371-3.23-0.371-4.992s0.135-3.492 0.395-5.181l-0.024 0.189z" />
<glyph unicode="&#xe952;" glyph-name="arrow-top-right" d="M206.453 251.683l405.483 405.483c15.996 15.996 41.93 15.996 57.926 0l19.309-19.309c15.996-15.996 15.996-41.93 0-57.926l-405.483-405.483c-15.996-15.996-41.93-15.996-57.926 0l-19.309 19.309c-15.996 15.996-15.996 41.93 0 57.926zM382.29 741.55h354.988c22.622 0 40.96-18.338 40.96-40.96v-27.307c0-22.622-18.338-40.96-40.96-40.96h-354.988c-22.622 0-40.96 18.338-40.96 40.96v27.307c0 22.622 18.338 40.96 40.96 40.96zM669 345.6v354.988c0 22.622 18.338 40.96 40.96 40.96h27.307c22.622 0 40.96-18.338 40.96-40.96v-354.988c0-22.622-18.338-40.96-40.96-40.96h-27.307c-22.622 0-40.96 18.338-40.96 40.96z" />
<glyph unicode="&#xe953;" glyph-name="arrow-bottom-right" d="M363.861-64.007c-37.703 0-68.267 30.563-68.267 68.267v45.745c0 37.704 30.564 68.267 68.267 68.267h349.177l-637.515 637.514c-26.66 26.66-26.66 69.884 0 96.544l32.342 32.342c26.659 26.66 69.884 26.66 96.543 0l637.319-637.321v348.783c0 37.702 30.563 68.267 68.267 68.267h45.739c37.704 0 68.267-30.564 68.267-68.267v-591.873c0-37.704-30.563-68.267-68.267-68.267h-591.872z" />
<glyph unicode="&#xe954;" glyph-name="arrow-top-right-bottom-left" d="M130.614 194.586l633.568 633.568c24.994 24.994 65.516 24.994 90.51 0l30.17-30.17c24.994-24.994 24.994-65.516 0-90.51l-633.568-633.568c-24.994-24.994-65.516-24.994-90.51 0l-30.17 30.17c-24.994 24.994-24.994 65.516 0 90.51zM405.344 960h554.669c35.346 0 64-28.654 64-64v-42.667c0-35.346-28.654-64-64-64h-554.669c-35.346 0-64 28.654-64 64v42.667c0 35.346 28.654 64 64 64zM853.376 341.331v554.669c0 35.346 28.654 64 64 64h42.667c35.346 0 64-28.654 64-64v-554.669c0-35.346-28.654-64-64-64h-42.667c-35.346 0-64 28.654-64 64zM618.688-64h-554.669c-35.346 0-64 28.654-64 64v42.667c0 35.346 28.654 64 64 64h554.669c35.346 0 64-28.654 64-64v-42.667c0-35.346-28.654-64-64-64zM170.672 554.672v-554.669c0-35.346-28.654-64-64-64h-42.667c-35.346 0-64 28.654-64 64v554.669c0 35.346 28.654 64 64 64h42.667c35.346 0 64-28.654 64-64z" />
<glyph unicode="&#xe955;" glyph-name="user" d="M512 448c137.155 0 248.246 111.088 248.246 248.242s-111.090 248.243-248.246 248.243c-137.152 0-248.24-111.088-248.24-248.243s111.088-248.242 248.24-248.242zM512 323.877c-165.7 0-496.483-83.158-496.483-248.241v-124.123h992.969v124.123c0 165.083-330.785 248.241-496.486 248.241z" />
<glyph unicode="&#xe956;" glyph-name="wallet" horiz-adv-x="1109" d="M960.711 784.575v35.085c0 77.516-61.438 140.34-137.244 140.34h-617.6c-113.698 0-205.867-94.247-205.867-210.51v-561.361c0-116.263 92.168-210.51 205.867-210.51h754.844c75.806 0 137.244 62.824 137.244 140.34v526.276c0 77.516-61.438 140.34-137.244 140.34zM995.022 117.959c0-19.341-15.397-35.085-34.311-35.085h-754.844c-56.763 0-102.933 47.211-102.933 105.255v561.361c0 58.044 46.17 105.255 102.933 105.255h617.6c18.914 0 34.311-15.744 34.311-35.085v-70.17h-617.6c-18.957 0-34.311-15.701-34.311-35.085s15.354-35.085 34.311-35.085h720.533c18.914 0 34.311-15.744 34.311-35.085v-526.276zM823.467 468.809c-37.892 0-68.622-31.423-68.622-70.17s30.73-70.17 68.622-70.17c37.892 0 68.622 31.423 68.622 70.17s-30.73 70.17-68.622 70.17z" />
<glyph unicode="&#xe957;" glyph-name="arrows-horizontal" horiz-adv-x="1536" d="M572.052 885.619c-24.993 24.994-65.516 24.994-90.51 0l-392.359-392.36c-24.994-24.993-24.994-65.516 0-90.51l392.359-392.357c24.993-24.994 65.516-24.994 90.51 0l30.321 30.319c24.993 24.994 24.994 65.519 0 90.509l-231.468 231.468h794.186l-231.467-231.469c-24.994-24.989-24.994-65.514 0-90.508l30.327-30.327c24.994-24.994 65.51-24.994 90.505 0l392.363 392.361c24.994 24.994 24.994 65.516 0 90.51l-392.363 392.36c-24.994 24.994-65.51 24.994-90.505 0l-30.327-30.321c-24.986-24.993-24.986-65.516 0-90.51l231.219-231.215h-793.683l231.216 231.216c24.994 24.993 24.994 65.516 0 90.51l-30.324 30.324z" />
<glyph unicode="&#xe958;" glyph-name="arrow-back" d="M853.333 490.667h-519.253l238.507 238.507-60.587 60.16-341.333-341.333 341.333-341.333 60.16 60.16-238.080 238.507h519.253v85.333z" />
<glyph unicode="&#xe959;" glyph-name="camera" d="M510.72 66.304h-427.776c-1.105-0.055-2.399-0.087-3.7-0.087-37.037 0-68.109 25.536-76.572 59.962l-0.112 0.541c-2.56 7.936-2.56 82.944-2.56 24.32 0-179.2 0 295.424 0 475.392-0.127 1.675-0.199 3.627-0.199 5.596 0 36.751 25.225 67.61 59.305 76.208l0.543 0.116c7.17 1.636 15.405 2.574 23.858 2.574 0.613 0 1.224-0.005 1.834-0.015l-0.092 0.001h182.528c2.065-0.372 4.443-0.584 6.87-0.584 22.48 0 40.704 18.224 40.704 40.704 0 1.468-0.078 2.918-0.229 4.346l0.015-0.178c1.967 40.845 35.561 73.216 76.716 73.216 0.029 0 0.059 0 0.088 0h-0.005q118.528 1.536 237.312 0c42.415 0 76.8-34.385 76.8-76.8v0c-0.008-0.291-0.012-0.634-0.012-0.978 0-22.197 17.995-40.192 40.192-40.192 1.447 0 2.876 0.076 4.283 0.226l-0.175-0.015h188.16c1.505 0.105 3.262 0.165 5.033 0.165 36.301 0 66.719-25.185 74.735-59.036l0.104-0.521c1.649-6.883 2.595-14.785 2.595-22.908 0-0.946-0.013-1.89-0.038-2.83l0.003 0.138c0-179.2 0-295.424 0-475.392 0.102-1.507 0.16-3.267 0.16-5.040 0-43.829-35.531-79.36-79.36-79.36-1.858 0-3.701 0.064-5.527 0.189l0.247-0.014zM510.72 105.984h427.008c1.73-0.262 3.725-0.412 5.756-0.412 22.339 0 40.448 18.109 40.448 40.448 0 1.951-0.138 3.87-0.405 5.747l0.025-0.215c0 179.2 0 294.656 0 474.368 0.193 1.492 0.302 3.217 0.302 4.969 0 22.622-18.338 40.96-40.96 40.96-1.912 0-3.794-0.131-5.636-0.385l0.214 0.024c-61.952 0-124.16 0-186.112 0-0.637-0.018-1.386-0.028-2.138-0.028-43.196 0-78.459 33.963-80.543 76.642l-0.007 0.187c0.053 0.764 0.083 1.657 0.083 2.556 0 21.632-17.536 39.168-39.168 39.168-1.563 0-3.104-0.092-4.619-0.27l0.184 0.018h-227.072c-1.162 0.119-2.512 0.186-3.877 0.186-22.339 0-40.448-18.109-40.448-40.448 0-0.606 0.013-1.208 0.040-1.808l-0.003 0.085c0-0.028 0-0.062 0-0.096 0-42.415-34.385-76.8-76.8-76.8-1.351 0-2.693 0.035-4.027 0.104l0.187-0.008h-188.416c-1.503 0.197-3.241 0.309-5.005 0.309-22.48 0-40.704-18.224-40.704-40.704 0-1.19 0.051-2.368 0.151-3.532l-0.010 0.151c0-179.2 0-295.424 0-475.392-0.259-1.719-0.407-3.703-0.407-5.721 0-22.339 18.109-40.448 40.448-40.448 1.858 0 3.688 0.125 5.479 0.368l-0.209-0.023zM512 576c115.636-0.582 209.151-94.457 209.151-210.174 0-116.077-94.099-210.176-210.176-210.176s-210.176 94.099-210.176 210.176c0 0.179 0 0.358 0.001 0.537v-0.028c0.29 115.858 94.278 209.666 210.175 209.666 0.36 0 0.72-0.001 1.080-0.003h-0.055zM512 543.744c-0.075 0-0.164 0-0.253 0-98.263 0-177.92-79.657-177.92-177.92s79.657-177.92 177.92-177.92c98.263 0 177.92 79.657 177.92 177.92 0 0.36-0.001 0.72-0.003 1.079v-0.055c-0.146 97.87-79.518 177.152-177.408 177.152-0.090 0-0.18 0-0.27 0h0.014zM787.2 553.472c0.154 43.147 35.167 78.065 78.336 78.065 43.264 0 78.336-35.072 78.336-78.336s-35.072-78.336-78.336-78.336c-0.54 0-1.079 0.005-1.616 0.016l0.080-0.001c-0.006 0-0.014 0-0.021 0-42.415 0-76.8 34.385-76.8 76.8 0 0.63 0.008 1.258 0.023 1.885l-0.002-0.093zM865.536 603.136c-0.071 0-0.155 0.001-0.24 0.001-27.57 0-49.92-22.35-49.92-49.92s22.35-49.92 49.92-49.92c27.12 0 49.189 21.626 49.902 48.573l0.001 0.066c0.021 0.535 0.033 1.162 0.033 1.793 0 27.287-22.121 49.408-49.408 49.408-0.101 0-0.203 0-0.304-0.001h0.016zM628.736 749.056v-37.376h-234.752v37.376z" />
<glyph unicode="&#xe95a;" glyph-name="up-down-chevron" horiz-adv-x="569" d="M284.443 799.004l180.338-180.338 80.213 80.213-260.551 261.12-261.12-261.12 80.782-80.213 180.338 180.338zM284.443 96.996l-180.338 180.338-80.213-80.213 260.551-261.12 261.12 261.12-80.782 80.213-180.338-180.338z" />
<glyph unicode="&#xe95b;" glyph-name="chart" d="M1003.52-22.784h-961.536c0 40.704 0 817.152 0 962.304 0 0.008 0 0.017 0 0.026 0 11.311-9.169 20.48-20.48 20.48-0.36 0-0.718-0.009-1.074-0.028l0.050 0.002c-11.311 0-20.48-9.169-20.48-20.48v0-1003.52h1003.52c11.311 0 20.48 9.169 20.48 20.48v0 0c0.001 0.076 0.002 0.166 0.002 0.256 0 11.311-9.169 20.48-20.48 20.48-0.001 0-0.001 0-0.002 0v0zM227.84 127.744c0.135-0.001 0.294-0.001 0.454-0.001 53.019 0 96 42.981 96 96 0 25.859-10.224 49.33-26.851 66.591l0.029-0.030 79.104 104.704c12.835-6.954 28.099-11.042 44.319-11.042 25.45 0 48.549 10.064 65.535 26.43l-0.029-0.028 107.264-80.896c-6.181-12.161-9.854-26.501-9.984-41.686v-0.042c0-0.035 0-0.077 0-0.119 0-53.161 43.095-96.256 96.256-96.256s96.256 43.095 96.256 96.256c0 32.56-16.167 61.344-40.911 78.763l-0.305 0.204 109.824 214.272c8.533-2.939 18.37-4.707 28.598-4.863l0.074-0.001c0.31-0.004 0.676-0.006 1.043-0.006 53.726 0 97.28 43.554 97.28 97.28s-43.554 97.28-97.28 97.28c-53.726 0-97.28-43.554-97.28-97.28 0-30.684 14.206-58.049 36.399-75.879l0.19-0.147-109.824-216.32c-7.132 1.953-15.321 3.075-23.773 3.075-25.303 0-48.257-10.057-65.082-26.393l0.023 0.022-108.288 81.152c6.098 12.179 9.685 26.53 9.728 41.714v0.014c0 0.072 0 0.157 0 0.243 0 53.161-43.095 96.256-96.256 96.256s-96.256-43.095-96.256-96.256c0-24.73 9.326-47.282 24.654-64.331l-0.078 0.088-79.872-105.728c-12.174 5.975-26.496 9.47-41.633 9.47-53.161 0-96.256-43.095-96.256-96.256s43.095-96.256 96.256-96.256c0.237 0 0.473 0.001 0.71 0.003h-0.036zM872.704 733.696c33.932 0 61.44-27.508 61.44-61.44s-27.508-61.44-61.44-61.44c-33.932 0-61.44 27.508-61.44 61.44v0c0 33.932 27.508 61.44 61.44 61.44v0zM679.936 349.696c33.932 0 61.44-27.508 61.44-61.44s-27.508-61.44-61.44-61.44c-33.932 0-61.44 27.508-61.44 61.44v0c0.433 33.6 27.773 60.672 61.435 60.672 0.002 0 0.003 0 0.005 0v0zM420.608 541.696c33.932 0 61.44-27.508 61.44-61.44s-27.508-61.44-61.44-61.44c-33.932 0-61.44 27.508-61.44 61.44v0c0 33.932 27.508 61.44 61.44 61.44v0zM227.84 285.696c33.932 0 61.44-27.508 61.44-61.44s-27.508-61.44-61.44-61.44c-33.932 0-61.44 27.508-61.44 61.44v0c0.145 33.822 27.597 61.184 61.439 61.184 0 0 0 0 0.001 0v0z" />
<glyph unicode="&#xe95c;" glyph-name="checkmark-in-circle" d="M765.696 717.824v0c-1.13 0.177-2.434 0.278-3.762 0.278-8.243 0-15.576-3.896-20.259-9.947l-0.044-0.059-304.64-460.8c-1.489-2.219-3.988-3.66-6.824-3.66-1.984 0-3.804 0.705-5.221 1.879l0.014-0.011-145.408 125.696c-4.057 3.967-9.615 6.415-15.744 6.415s-11.687-2.448-15.748-6.419l0.004 0.004c-10.24-10.24-2.048-28.672 0-31.488l179.2-160.768c1.445-1.304 3.369-2.102 5.479-2.102 2.826 0 5.318 1.431 6.791 3.609l0.018 0.029 337.664 502.784c3.072 4.352 10.24 29.696-11.52 34.56zM512 960c-282.77 0-512-229.23-512-512s229.23-512 512-512c282.77 0 512 229.23 512 512v0c0 282.77-229.23 512-512 512v0zM512-22.528c-259.865 0-470.528 210.663-470.528 470.528s210.663 470.528 470.528 470.528c259.865 0 470.528-210.663 470.528-470.528v0c0-259.865-210.663-470.528-470.528-470.528v0z" />
<glyph unicode="&#xe95d;" glyph-name="checkmark" d="M1008.128 953.088v0c-14.336 9.216-26.88 3.584-47.36-22.784l-612.864-903.424c-4.697-6.56-12.294-10.784-20.877-10.784-5.183 0-10.006 1.54-14.036 4.188l0.097-0.060-265.472 179.2c-5.024 3.248-11.164 5.179-17.755 5.179-9.302 0-17.706-3.846-23.708-10.035l-0.008-0.008c-3.038-4.157-4.861-9.37-4.861-15.009 0-7.283 3.041-13.856 7.923-18.518l0.010-0.009 310.016-210.176c6.095-4.203 13.64-6.714 21.771-6.714 13.247 0 24.938 6.664 31.904 16.822l0.085 0.132 2.304 3.328 638.208 944.384c12.032 18.432 10.496 33.792-5.376 44.288z" />
<glyph unicode="&#xe95f;" glyph-name="compass" d="M511.998 504.32c-31.232 0-56.32-25.088-56.32-56.32s25.088-56.32 56.32-56.32c31.234 0 56.322 25.088 56.322 56.32s-25.088 56.32-56.322 56.32zM511.998 960c-282.624 0-512-229.376-512-512s229.376-512 512-512c282.626 0 512.002 229.376 512.002 512s-229.376 512-512.002 512zM624.128 335.872l-419.33-195.072 195.072 419.328 419.33 195.072-195.072-419.328z" />
<glyph unicode="&#xe967;" glyph-name="mobile" d="M797.696 860.928c0.076 1.415 0.119 3.072 0.119 4.74 0 52.171-42.293 94.464-94.464 94.464-1.753 0-3.494-0.048-5.224-0.142l0.241 0.010h-373.248c-1.257 0.060-2.731 0.093-4.212 0.093-52.454 0-94.976-42.522-94.976-94.976 0-1.654 0.042-3.297 0.126-4.93l-0.009 0.229q0-232.448 0-464.896c0-153.6 0-204.8 0-358.4-0.186-2.234-0.293-4.835-0.293-7.461 0-52.595 42.637-95.232 95.232-95.232 2.626 0 5.227 0.106 7.799 0.315l-0.338-0.022h369.152c1.565-0.092 3.396-0.145 5.239-0.145 52.454 0 94.976 42.522 94.976 94.976 0 1.672-0.043 3.333-0.129 4.984l0.010-0.231c0.256 311.296 0.256 516.096 0 826.624zM264.192 782.080h495.616c0-148.992 0-419.328 0-598.528h-495.616c0 216.064 0 366.848 0 598.528zM324.096 918.272h376.32c0.478 0.014 1.041 0.022 1.606 0.022 31.953 0 57.856-25.903 57.856-57.856 0-0.998-0.025-1.991-0.075-2.977l0.006 0.138c0-9.984 0-38.144 0-51.2h-495.616c0 11.264 0 39.424 0 51.2-0.075 1.094-0.117 2.372-0.117 3.659 0 31.529 25.559 57.088 57.088 57.088 1.032 0 2.057-0.027 3.076-0.081l-0.142 0.006zM699.648-26.368h-371.456c-0.995-0.058-2.158-0.091-3.329-0.091-33.36 0-60.432 26.925-60.67 60.229v0.023c0 36.864 0 92.416 0 125.696h495.616c0-41.984 0-98.56 0-125.184 0.045-0.852 0.070-1.851 0.070-2.855 0-31.953-25.903-57.856-57.856-57.856-0.745 0-1.487 0.014-2.225 0.042l0.106-0.003zM457.472 842.496h109.312c7.424 0 13.056 2.304 13.056 10.752s-5.376 10.24-12.288 10.24h-110.336c-7.424 0-13.056-2.56-13.056-10.752s5.888-10.496 13.312-10.24zM536.064 111.872h-48.128c-12.583 0-22.784-10.201-22.784-22.784v0-48.384c0-12.583 10.201-22.784 22.784-22.784v0h48.384c12.583 0 22.784 10.201 22.784 22.784v0 48.896c-0.286 12.362-10.375 22.274-22.778 22.274-0.092 0-0.184-0.001-0.276-0.002h0.014zM545.792 42.496c0-6.362-5.158-11.52-11.52-11.52h-44.544c-6.362 0-11.52 5.158-11.52 11.52v0 44.544c0 6.362 5.158 11.52 11.52 11.52h44.544c6.362 0 11.52-5.158 11.52-11.52v0z" />
<glyph unicode="&#xe96a;" glyph-name="pencil" d="M1008.64 794.624l-146.432 146.688c-9.326 9.666-22.394 15.669-36.864 15.669s-27.538-6.002-36.849-15.653l-0.015-0.015-95.232-94.72-23.296-23.040c-165.12-165.12-354.048-347.136-519.168-512l-25.6-25.6-125.184-333.824c-0.419-1.030-0.661-2.225-0.661-3.477 0-5.231 4.241-9.472 9.472-9.472 1.252 0 2.447 0.243 3.541 0.684l-0.064-0.023 332.8 125.184 27.904 20.992 540.672 538.624 94.976 96.256c9.666 9.326 15.669 22.394 15.669 36.864s-6.002 27.538-15.653 36.849l-0.015 0.015zM63.744 9.472c30.72 81.408 63.232 164.096 93.44 244.736l157.696-157.696c-80.64-30.208-162.816-63.232-244.224-93.952-0.556-0.213-1.2-0.337-1.873-0.337-2.969 0-5.376 2.407-5.376 5.376 0 0.673 0.123 1.316 0.349 1.91l-0.012-0.037zM351.744 123.136l-164.608 164.864c165.12 165.12 340.736 332.8 505.856 499.2l161.792-160zM966.144 737.536l-80.64-80.64-161.28 161.28 79.616 79.616c6.065 6.049 14.436 9.789 23.68 9.789s17.615-3.74 23.681-9.79l113.919-113.919c6.049-6.065 9.789-14.436 9.789-23.68s-3.74-17.615-9.79-23.681l0.001 0.001z" />
<glyph unicode="&#xe96c;" glyph-name="phone" d="M328.96 956.928c33.891-15.52 60.639-41.771 76.394-74.334l0.406-0.93c29.44-46.080 60.416-90.88 90.368-136.704 11.504-14.155 18.471-32.4 18.471-52.272 0-31.627-17.647-59.132-43.631-73.207l-0.44-0.218c-30.72-20.736-62.208-40.448-96.256-62.464 47.714-113.181 112.673-209.988 192.698-292.032l-0.186 0.192c33.024 22.272 63.744 43.264 94.72 63.488 14.423 12.224 33.243 19.656 53.8 19.656 32.141 0 60.038-18.169 73.981-44.796l0.219-0.459c31.232-46.592 61.44-93.952 93.184-140.288 20.435-23.675 33.813-53.957 36.571-87.253l0.037-0.555-5.376-25.6c-12.751-15.037-25.801-28.655-39.627-41.446l-0.309-0.282c-16.128-13.312-36.096-22.528-51.2-35.584-27.821-20.94-62.957-33.536-101.034-33.536-3.272 0-6.523 0.093-9.749 0.277l0.447-0.020h-25.6l-71.424 14.592c-31.461 12.424-57.076 24.461-81.864 37.832l4.040-1.992c-136.539 85.68-246.476 202.010-322.202 339.799l-2.406 4.777c-50.543 86.545-87.268 187.688-104.080 295.427l-0.624 4.861c-3.84 28.16-3.072 57.088-4.352 85.504l16.384 80.384c23.022 57.791 65.609 103.697 119.405 130.43l1.427 0.642c20.887 15.231 46.214 25.643 73.706 29.103l0.79 0.081zM160.512 744.192c-2.921-18.377-4.59-39.566-4.59-61.145 0-44.839 7.205-87.995 20.52-128.374l-0.827 2.895c55.899-193.625 166.827-356.531 314.607-475.519l1.809-1.409c42.717-37.187 94.181-65.521 150.824-81.507l2.776-0.669c56.576-14.080 112.128-19.2 161.28 22.784 11.255 8.296 24.212 16.759 37.632 24.509l2.048 1.091c13.173 6.2 22.129 19.364 22.129 34.619 0 9.719-3.635 18.588-9.619 25.324l0.034-0.039q-56.32 85.248-112.64 169.472c-15.872 23.808-28.672 25.6-52.992 11.008s-54.528-35.84-81.664-53.76c-45.056-29.952-51.2-29.44-89.856 8.192q-11.52 11.008-22.016 22.784c-56.938 62.952-105.746 134.838-143.787 212.933l-2.389 5.435c-9.204 19.846-18.596 44.458-26.447 69.748l-1.201 4.492c-1.336 3.226-2.112 6.973-2.112 10.901 0 11.881 7.099 22.103 17.287 26.657l0.185 0.074c35.584 21.76 69.888 45.312 104.448 68.608 20.48 13.824 25.6 27.904 13.056 45.824q-58.88 90.624-119.296 179.2c-6.583 10.366-18.003 17.146-31.006 17.146-8.633 0-16.568-2.988-22.827-7.987l0.073 0.057c-11.861-8.554-25.577-17.283-39.785-25.237l-2.199-1.131c-51.712-25.344-71.168-71.424-83.456-126.976z" />
<glyph unicode="&#xe96d;" glyph-name="present" d="M517.12 739.328c30.976 53.76 60.416 111.104 95.488 164.608 22.934 34.239 61.468 56.478 105.196 56.478 12.878 0 25.306-1.929 37.010-5.513l-0.894 0.236c54.323-10.615 96.518-52.552 107.372-105.881l0.148-0.871c2.225-9.799 3.5-21.052 3.5-32.603 0-40.462-15.645-77.27-41.216-104.705l0.084 0.092c29.184 0 51.2 0 75.008 0 0.613 0.038 1.328 0.060 2.049 0.060 19.37 0 35.072-15.702 35.072-35.072 0-0.111-0.001-0.222-0.002-0.333v0.017c0-68.096 1.792-135.936-1.536-204.8v-5.376c-1.216-19.088-16.995-34.11-36.283-34.11-0.745 0-1.484 0.022-2.218 0.067l0.101-0.005h-2.304q0-219.648 0-439.040c0-56.832 0-57.088-55.040-57.088h-646.912c-51.2 0-51.2 0-51.2 52.992 0 147.712 0 295.168 0 444.672-37.888 2.56-42.496 25.6-41.728 57.088q2.304 87.296 0 174.848c0 32.768 9.728 49.408 44.8 46.080 19.712-1.792 39.68 0 64.768 0l-17.92 29.696c-13.27 21.465-21.133 47.489-21.133 75.35 0 48.595 23.922 91.602 60.632 117.888l0.437 0.298c22.463 16.9 50.829 27.066 81.57 27.066 46.648 0 87.828-23.408 112.435-59.119l0.299-0.459c36.096-52.736 61.696-110.080 92.416-162.56zM393.472-23.040v457.216h-211.712v-457.216zM641.792 435.456v-457.472h211.712v457.472zM435.2 435.456v-457.216h165.632v457.216zM139.776 477.184h253.952v192h-253.952zM894.72 477.184v191.744h-253.184v-192.512zM458.24 715.52l7.68 11.264c-28.672 51.2-55.040 102.4-86.784 149.248-15.295 20.189-39.288 33.097-66.295 33.097-13.737 0-26.694-3.339-38.103-9.251l0.462 0.218c-32.149-14.395-54.143-46.108-54.143-82.957 0-3.785 0.232-7.515 0.683-11.178l-0.044 0.439c1.709-38.722 30.222-70.305 67.355-76.731l0.485-0.069c55.808-8.448 112.64-9.984 168.704-14.080zM569.088 727.552l8.448-12.032c55.552 3.84 111.36 5.376 166.4 12.8 39.453 6.393 69.234 40.146 69.376 80.881v0.015c0.203 2.293 0.319 4.96 0.319 7.654 0 37.934-22.983 70.501-55.784 84.534l-0.599 0.228c-10.1 4.609-21.907 7.295-34.341 7.295-27.823 0-52.505-13.45-67.897-34.203l-0.161-0.227c-31.744-47.36-57.6-97.792-85.76-146.944zM600.064 475.904v193.792h-164.864v-193.536z" />
<glyph unicode="&#xe96e;" glyph-name="question-in-circle" d="M512 960c92.215 0 177.548-23.054 256-69.161s140.731-108.387 186.839-186.839c46.108-78.452 69.161-163.785 69.161-256s-23.054-177.548-69.161-256c-46.108-78.452-108.387-140.731-186.839-186.839s-163.785-69.161-256-69.161c-92.215 0-177.548 23.054-256 69.161s-140.731 108.387-186.839 186.839c-46.108 78.452-69.161 163.785-69.161 256s23.054 177.548 69.161 256c46.108 78.452 108.387 140.731 186.839 186.839s163.785 69.161 256 69.161zM512 35.097c74.323 0 143.14 18.581 206.452 55.742s113.548 87.398 150.71 150.71c37.161 63.312 55.742 132.129 55.742 206.452s-18.581 143.14-55.742 206.452c-37.161 63.312-87.398 113.548-150.71 150.71s-132.129 55.742-206.452 55.742c-74.323 0-143.14-18.581-206.452-55.742s-113.548-87.398-150.71-150.71c-37.161-63.312-55.742-132.129-55.742-206.452s18.581-143.14 55.742-206.452c37.161-63.312 87.398-113.548 150.71-150.71s132.129-55.742 206.452-55.742zM732.903 561.548c0-37.161-11.011-68.817-33.032-94.968-13.763-15.14-36.473-31.656-68.129-49.548-16.516-9.634-27.527-17.204-33.032-22.71-9.634-6.882-14.452-15.14-14.452-24.774v-12.387c0-6.882-2.409-12.731-7.226-17.548s-10.667-7.226-17.548-7.226h-94.968c-6.882 0-12.731 2.409-17.548 7.226s-7.226 10.667-7.226 17.548v18.581c0 31.656 11.011 58.495 33.032 80.516 12.387 12.387 33.032 26.839 61.935 43.355l4.129 2.065c20.645 12.387 35.097 22.022 43.355 28.903 9.634 9.634 14.452 20.645 14.452 33.032 0 16.516-8.602 30.28-25.806 41.29s-36.473 16.516-57.806 16.516c-21.333 0-39.57-4.817-54.71-14.452-12.387-8.258-27.527-24.086-45.419-47.484-4.129-4.129-9.29-6.882-15.484-8.258s-12.043 0-17.548 4.129l-57.806 43.355c-5.505 4.129-8.602 9.634-9.29 16.516s0.344 13.075 3.097 18.581c26.151 37.161 55.742 65.032 88.774 83.613s72.946 27.871 119.742 27.871c33.032 0 66.065-8.258 99.097-24.774s59.527-38.538 79.484-66.065c19.957-27.527 29.935-58.495 29.935-92.903zM598.71 216.774c0-23.398-8.602-43.699-25.806-60.903s-37.505-25.806-60.903-25.806c-23.398 0-43.699 8.602-60.903 25.806s-25.806 37.505-25.806 60.903c0 23.398 8.602 43.699 25.806 60.903s37.505 25.806 60.903 25.806c23.398 0 43.699-8.602 60.903-25.806s25.806-37.505 25.806-60.903z" />
<glyph unicode="&#xe972;" glyph-name="stack-of-coins" d="M146.944 118.272c-11.912 20.252-18.948 44.612-18.948 70.615 0 0.375 0.001 0.749 0.004 1.123v-0.057c0 22.784 0 45.824 0 68.608 1.442 17.229 4.161 33.023 8.115 48.319l-0.435-1.983c1.536 6.4 0 8.448-4.096 11.52-20.992 13.056-42.496 25.6-62.464 40.96-24.721 18.618-44.188 42.932-56.636 71.048l-0.452 1.144c-3.978 10.211-8.101 23.279-11.489 36.639l-0.543 2.529q0 53.504 0 107.264c0.708 1.595 1.406 3.552 1.971 5.566l0.077 0.322c5.856 29.83 19.214 55.88 38.027 76.958l-0.139-0.158c22.933 25.56 50.146 46.725 80.606 62.493l1.57 0.739c4.805 2.307 8.224 6.829 8.951 12.206l0.009 0.082c4.935 24.47 15.244 45.972 29.671 64.043l-0.231-0.299c28.342 35.362 64.296 63.439 105.474 81.968l1.79 0.72c47.176 22.732 101.963 38.913 159.644 45.597l2.404 0.227 42.752 5.632h78.592c2.395-0.699 5.34-1.325 8.349-1.751l0.355-0.041c72.008-4.714 138.763-22.532 199.466-51.089l-3.37 1.425c40.526-18.506 74.684-44.468 102.070-76.406l0.33-0.394c23.395-26.811 37.66-62.115 37.66-100.751 0-1.030-0.010-2.057-0.030-3.082l0.002 0.154c0-19.968 0-40.192 0-59.904-1.665-19.248-4.472-36.717-8.434-53.742l0.498 2.542c-1.28-6.144 0-8.192 4.096-11.008 22.016-14.080 44.544-27.648 65.792-43.52 21.842-16.095 39.225-37.004 50.779-61.228l0.421-0.98c4.9-12.361 9.984-28.15 14.174-44.3l0.674-3.060v-104.96c-0.5-0.949-0.937-2.055-1.253-3.211l-0.027-0.117c-6.945-40.252-27.898-74.689-57.56-98.839l-0.296-0.233c-19.712-16.896-41.984-29.952-62.976-45.312-3.739-2.586-6.704-6.042-8.638-10.086l-0.066-0.154c-6.144-14.336-11.776-28.928-17.152-43.776 0-3.328-2.816 0 0-3.328-86.016-131.072-247.552-152.32-369.408-151.040-184.32 2.048-326.144 83.456-359.68 154.368zM512 524.8c18.176 0 36.608 0 54.784 0 47.203 3.061 91.242 12.196 132.785 26.662l-3.505-1.062c47.773 15.437 88.904 39.715 123.401 71.15l-0.265-0.238c16.783 14.985 30.024 33.568 38.558 54.567l0.354 0.985c3.34 9.52 5.27 20.496 5.27 31.923 0 25.32-9.474 48.427-25.070 65.97l0.088-0.101c-25.833 30.556-57.898 54.994-94.319 71.51l-1.681 0.682c-58.852 28.015-127.673 45.178-200.292 47.090l-0.668 0.014c-11.221 0.849-24.305 1.332-37.501 1.332-87.594 0-170.209-21.314-242.942-59.039l2.939 1.387c-35.675-18.041-64.957-44.125-86.273-75.989l-0.511-0.811c-10.584-14.777-16.924-33.22-16.924-53.144 0-12.4 2.456-24.226 6.907-35.018l-0.223 0.611c8.955-20.821 21.795-38.42 37.739-52.606l0.149-0.13c37.137-33.331 82.098-58.743 131.744-73.132l2.4-0.596c44.215-14.371 95.091-22.657 147.902-22.657 8.848 0 17.641 0.233 26.375 0.692l-1.221-0.051zM435.2 263.168v-3.84c27.648-7.68 55.040-16.896 83.2-23.040 36.841-8.364 79.149-13.158 122.577-13.158 21.298 0 42.326 1.153 63.026 3.399l-2.563-0.226c64.014 5.421 122.943 22.035 176.573 47.898l-3.005-1.306c36.081 16.651 66.479 39.919 90.831 68.497l0.305 0.367c12.961 15.296 22.046 34.267 25.508 55.139l0.092 0.669c0.522 3.709 0.819 7.993 0.819 12.347 0 21.909-7.54 42.057-20.168 57.991l0.148-0.194c-25.468 32.869-58.121 58.958-95.695 76.15l-1.585 0.65c-5.632 2.816-8.704 1.536-12.288-3.328-5.88-7.381-11.827-13.977-18.146-20.195l-0.030-0.029c-20.514-19.71-43.828-36.737-69.232-50.376l-1.68-0.824c-3.759-2.481-6.508-6.229-7.652-10.626l-0.028-0.126c-5.889-27.364-18.175-51.237-35.235-70.847l0.163 0.191c-25.917-30.129-57.636-54.477-93.52-71.463l-1.712-0.729c-43.949-22.525-94.996-39.125-148.868-47.036l-2.684-0.324zM128 683.008l-4.608-2.048c-31.148-17.185-56.894-40.558-76.318-68.639l-0.482-0.737c-10.010-14.553-15.988-32.557-15.988-51.957 0-15.53 3.831-30.165 10.599-43.013l-0.243 0.505c11.401-21.85 26.628-40.185 44.968-54.776l0.344-0.264c32.618-26.491 70.965-47.468 112.738-60.764l2.462-0.676c52.054-17.535 112.001-27.654 174.312-27.654 0.908 0 1.816 0.002 2.723 0.006l-0.139-0.001c3.869-0.099 8.424-0.155 12.993-0.155 71.034 0 138.894 13.589 201.122 38.31l-3.684-1.291c2.604 1.196 4.703 2.307 6.738 3.513l-0.338-0.185c-1.617 1.176-3.643 1.882-5.834 1.882-0.471 0-0.934-0.033-1.387-0.096l0.052 0.006c-17.408-1.536-34.816-3.328-51.2-4.352-8.908-0.495-19.333-0.776-29.823-0.776-38.167 0-75.462 3.73-111.542 10.846l3.637-0.598c-55.438 9.719-105.033 27.558-150.191 52.453l2.479-1.253c-35.747 18.677-65.701 43.724-89.411 73.908l-0.445 0.588c-18.759 22.008-31.016 50.075-33.503 80.901l-0.033 0.507c0 18.688 0 36.352 0 55.808zM722.432 115.2v2.56h-13.568c-21.317-2.513-46.011-3.947-71.040-3.947s-49.723 1.434-74.004 4.224l2.964-0.277c-80.814 7.23-154.306 33.248-217.776 73.618l1.968-1.17c-30.832 19.625-56.039 45.404-74.43 75.772l-0.578 1.028c-2.452 3.243-5.757 5.723-9.582 7.121l-0.146 0.047c-1.038 0.058-2.252 0.091-3.474 0.091-2.383 0-4.736-0.126-7.054-0.372l0.288 0.025-86.016 23.296c-6.028-10.984-9.574-24.069-9.574-37.982 0-12.727 2.967-24.761 8.247-35.447l-0.209 0.469c15.291-32.023 38.588-58.115 67.353-76.36l0.743-0.44c58.171-38.041 127.957-63.255 203.063-70.018l1.737-0.126c21.056-2.68 45.417-4.209 70.136-4.209 41.139 0 81.288 4.236 120.036 12.294l-3.804-0.662c35.983 7.514 67.653 18.021 97.609 31.64l-2.889-1.176z" />
<glyph unicode="&#xe979;" glyph-name="open-in-new-tab" d="M810.667 149.333h-597.333v597.333h298.667v85.333h-298.667c-47.36 0-85.333-38.4-85.333-85.333v-597.333c0-46.933 37.973-85.333 85.333-85.333h597.333c46.933 0 85.333 38.4 85.333 85.333v298.667h-85.333v-298.667zM597.333 832v-85.333h153.173l-419.413-419.413 60.16-60.16 419.413 419.413v-153.173h85.333v298.667h-298.667z" />
<glyph unicode="&#xe97e;" glyph-name="arrow-switch" horiz-adv-x="1138" d="M1073.859 627.518l-200.75-205.128c-9.372-9.612-24.568-9.612-33.94 0l-39.252 40.258c-9.506 9.75-9.35 25.608 0.346 35.159l102.458 97.885h-821.832c-13.254 0-24 11.022-24 24.615v49.231c0 13.594 10.746 24.615 24 24.615h821.832l-102.456 97.885c-9.698 9.551-9.854 25.409-0.346 35.159l39.252 40.258c9.372 9.612 24.568 9.612 33.94 0l200.75-205.128c9.37-9.612 9.37-25.198-0.002-34.81zM63.919 233.672l200.75-205.128c9.372-9.612 24.568-9.612 33.94 0l39.252 40.258c9.506 9.75 9.35 25.608-0.346 35.159l-102.458 97.885h821.832c13.254 0 24 11.022 24 24.615v49.231c0 13.594-10.746 24.615-24 24.615h-821.832l102.456 97.885c9.698 9.551 9.854 25.409 0.346 35.159l-39.252 40.258c-9.372 9.612-24.568 9.612-33.94 0l-200.75-205.128c-9.372-9.612-9.372-25.198 0.002-34.81z" />
<glyph unicode="&#xe980;" glyph-name="vertical-arrow-switch" horiz-adv-x="878" d="M336.959 830.469c9.118-30.33 39.79-47.348 70.949-41.643 39.351 7.119 83.285 1.122 129.707-26.185 53.053-31.159 82.895-90.697 82.895-152.235v-242.883c0-17.359-14.043-31.451-31.403-31.451h-56.418c-13.897 0-21.845-15.799-13.556-26.917l138.142-184.661c12.824-17.115 38.424-17.115 51.249-0.049l138.728 184.71c8.338 11.069 0.39 26.917-13.507 26.917h-59.099c-17.359 0-31.451 14.092-31.451 31.451v243.517c0 123.758-73.533 238.885-189.538 281.99-58.661 21.748-116.248 25.893-169.106 16.433-36.035-6.485-58.173-43.983-47.592-78.994zM562.434 68.564c-9.118 30.33-39.79 47.348-70.949 41.643-39.351-7.168-83.285-1.122-129.707 26.136-53.053 31.208-82.895 90.746-82.895 152.283v242.883c0 17.359 14.043 31.451 31.403 31.451h56.418c13.897 0 21.845 15.799 13.507 26.868l-138.094 184.661c-12.824 17.115-38.424 17.164-51.249 0.049l-138.728-184.661c-8.338-11.118-0.39-26.917 13.507-26.917h59.051c17.408 0 31.451-14.092 31.451-31.451v-243.517c0-123.758 73.582-238.933 189.586-281.99 58.661-21.748 116.248-25.941 169.106-16.433 36.035 6.437 58.173 43.983 47.592 78.994z" />
<glyph unicode="&#xe981;" glyph-name="id-card" horiz-adv-x="1293" d="M1185.684 960h-1077.895c-59.509 0-107.789-49.143-107.789-109.714v-804.571c0-60.571 48.281-109.714 107.789-109.714h1077.895c59.509 0 107.789 49.143 107.789 109.714v804.571c0 60.571-48.281 109.714-107.789 109.714zM1185.684 45.714h-504.814c2.021 10.286 1.797-8.229 1.797 51.2 0 72.686-67.593 131.657-150.905 131.657-24.253 0-41.993-18.286-100.604-18.286-60.407 0-75.004 18.286-100.604 18.286-83.312 0-150.905-58.971-150.905-131.657 0-59.429-0.449-40.914 1.797-51.2h-73.656v658.286h1077.895v-658.286zM808.421 228.571h251.509c9.881 0 17.965 8.229 17.965 18.286v36.571c0 10.057-8.084 18.286-17.965 18.286h-251.509c-9.881 0-17.965-8.229-17.965-18.286v-36.571c0-10.057 8.084-18.286 17.965-18.286zM808.421 374.857h251.509c9.881 0 17.965 8.229 17.965 18.286v36.571c0 10.057-8.084 18.286-17.965 18.286h-251.509c-9.881 0-17.965-8.229-17.965-18.286v-36.571c0-10.057 8.084-18.286 17.965-18.286zM808.421 521.143h251.509c9.881 0 17.965 8.229 17.965 18.286v36.571c0 10.057-8.084 18.286-17.965 18.286h-251.509c-9.881 0-17.965-8.229-17.965-18.286v-36.571c0-10.057 8.084-18.286 17.965-18.286zM431.158 301.714c79.27 0 143.719 65.6 143.719 146.286s-64.449 146.286-143.719 146.286c-79.27 0-143.719-65.6-143.719-146.286s64.449-146.286 143.719-146.286z" />
<glyph unicode="&#xe982;" glyph-name="comment-alt-regular" horiz-adv-x="1067" d="M898.854 960h-768c-70.6 0-128-57.4-128-128v-576c0-70.6 57.4-128 128-128h192v-168c0-14.2 11.6-24 24-24 4.8 0 9.8 1.4 14.2 4.8l249.8 187.2h288c70.6 0 128 57.4 128 128v576c0 70.6-57.4 128-128 128zM930.854 256c0-17.6-14.4-32-32-32h-320l-160-120v120h-288c-17.6 0-32 14.4-32 32v576c0 17.6 14.4 32 32 32h768c17.6 0 32-14.4 32-32v-576z" />
<glyph unicode="&#xe985;" glyph-name="phone-regular" d="M953.138 914.2l-188.033 43.4c-43.116 10-87.030-12.4-104.396-53.2l-86.83-203c-15.969-37.2-5.19-81.2 26.149-106.8l79.844-65.4c-57.088-104.8-143.32-191.2-247.916-248.2l-65.273 80c-25.55 31.4-69.464 42.2-106.592 26.2l-202.804-87c-40.72-17.4-62.877-61.4-53.096-104.6l43.315-188.4c9.581-41.8 46.31-71 89.026-71 488.845-0.2 887.467 396.4 887.467 888.8 0 42.8-29.143 79.6-70.862 89.2zM140.326 32l-41.719 181.4 196.017 84.2 111.183-136.2c197.215 92.8 300.613 196 393.232 394l-135.935 111.4 84.036 196.4 181.046-41.8c-1.996-435.2-353.51-787.4-787.861-789.4z" />
<glyph unicode="&#xe986;" glyph-name="birthday-cake-light" horiz-adv-x="939" d="M194.854 768c-35.5 0-64 28.5-64 64 0 62 64 46 64 128 24 0 64-59 64-112s-28.5-80-64-80zM450.854 768c-35.5 0-64 28.5-64 64 0 62 64 46 64 128 24 0 64-59 64-112s-28.5-80-64-80zM706.854 768c-35.5 0-64 28.5-64 64 0 62 64 46 64 128 24 0 64-59 64-112s-28.5-80-64-80zM802.854 448h-64v288h-64v-288h-192v288h-64v-288h-192v288h-64v-288h-64c-53 0-96-43-96-96v-416h896v416c0 53-43 96-96 96zM834.854 0h-768v144.086c32.444 18.958 47.856 47.914 85.5 47.914 55.902 0 62.506-64 149.5-64 85.686 0 94.434 64 149 64 56.296 0 62.402-64 149.5-64 86.714 0 93.534 64 149.5 64 36.976 0 52.49-28.95 85-47.91v-144.090zM834.854 224.748c-19.252 15.748-42.434 31.252-85 31.252-86.86 0-93.65-64-149.5-64-55.39 0-62.908 64-149.5 64-85.684 0-94.436-64-149-64-56.296 0-62.404 64-149.5 64-42.926 0-66.202-15.548-85.5-31.316v127.316c0 17.644 14.356 32 32 32h704c17.644 0 32-14.356 32-32v-127.252z" />
<glyph unicode="&#xe988;" glyph-name="cart" d="M822.033 697.6h-531.534l-11.376 57.99c-2.873 14.643-15.744 25.21-30.707 25.21h-130.37c-8.64 0-15.644-6.985-15.644-15.6v-31.2c0-8.615 7.005-15.6 15.644-15.6h104.609l90.73-462.411c-14.39-14.95-23.25-35.231-23.25-57.589 0-45.95 37.356-83.2 83.437-83.2s83.437 37.25 83.437 83.2c0.016 14.608-3.844 28.961-11.19 41.6h189.255c-7.345-12.639-11.206-26.992-11.19-41.6 0-45.95 37.356-83.2 83.437-83.2s83.437 37.25 83.437 83.2c0 23.577-9.851 44.845-25.652 59.985l1.349 6.184c4.242 19.448-10.615 37.831-30.574 37.831h-367.837l-12.242 62.4h407.284c14.719 0 27.448 10.23 30.574 24.573l58.948 270.4c4.24 19.447-10.617 37.827-30.574 37.827zM373.57 167.2c-17.253 0-31.289 13.996-31.289 31.2s14.036 31.2 31.289 31.2c17.253 0 31.289-13.996 31.289-31.2s-14.036-31.2-31.289-31.2zM707.319 167.2c-17.253 0-31.289 13.996-31.289 31.2s14.036 31.2 31.289 31.2c17.253 0 31.289-13.996 31.289-31.2s-14.036-31.2-31.289-31.2zM737.875 427.2h-394.316l-40.819 208h480.477l-45.343-208z" />
</font>
</defs>
</svg>
